%TF.GenerationSoftware,KiCad,Pcbnew,8.0.8*%
%TF.CreationDate,2025-02-06T20:07:43-05:00*%
%TF.ProjectId,flashlight-led,666c6173-686c-4696-9768-742d6c65642e,rev?*%
%TF.SameCoordinates,Original*%
%TF.FileFunction,Legend,Top*%
%TF.FilePolarity,Positive*%
%FSLAX46Y46*%
G04 Gerber Fmt 4.6, Leading zero omitted, Abs format (unit mm)*
G04 Created by KiCad (PCBNEW 8.0.8) date 2025-02-06 20:07:43*
%MOMM*%
%LPD*%
G01*
G04 APERTURE LIST*
G04 Aperture macros list*
%AMRotRect*
0 Rectangle, with rotation*
0 The origin of the aperture is its center*
0 $1 length*
0 $2 width*
0 $3 Rotation angle, in degrees counterclockwise*
0 Add horizontal line*
21,1,$1,$2,0,0,$3*%
G04 Aperture macros list end*
%ADD10C,0.152400*%
%ADD11C,0.120000*%
%ADD12C,0.100000*%
%ADD13C,3.000000*%
%ADD14R,4.460000X1.730000*%
%ADD15R,5.060000X0.950000*%
%ADD16RotRect,1.730000X4.460000X120.000000*%
%ADD17RotRect,0.950000X5.060000X120.000000*%
%ADD18C,2.200000*%
%ADD19RotRect,1.730000X4.460000X240.000000*%
%ADD20RotRect,0.950000X5.060000X240.000000*%
G04 APERTURE END LIST*
D10*
X152415420Y-108706542D02*
X152465927Y-108858065D01*
X152465927Y-108858065D02*
X152617450Y-109009588D01*
X152617450Y-109009588D02*
X152819481Y-109110603D01*
X152819481Y-109110603D02*
X153021511Y-109110603D01*
X153021511Y-109110603D02*
X153173034Y-109060095D01*
X153173034Y-109060095D02*
X153425572Y-108908572D01*
X153425572Y-108908572D02*
X153577095Y-108757049D01*
X153577095Y-108757049D02*
X153728618Y-108504511D01*
X153728618Y-108504511D02*
X153779126Y-108352988D01*
X153779126Y-108352988D02*
X153779126Y-108150958D01*
X153779126Y-108150958D02*
X153678111Y-107948927D01*
X153678111Y-107948927D02*
X153577095Y-107847912D01*
X153577095Y-107847912D02*
X153375065Y-107746897D01*
X153375065Y-107746897D02*
X153274050Y-107746897D01*
X153274050Y-107746897D02*
X152920496Y-108100450D01*
X152920496Y-108100450D02*
X153122527Y-108302481D01*
X152920496Y-107191313D02*
X151859836Y-108251973D01*
X151859836Y-108251973D02*
X152314405Y-106585221D01*
X152314405Y-106585221D02*
X151253744Y-107645882D01*
X151809328Y-106080145D02*
X150748668Y-107140805D01*
X150748668Y-107140805D02*
X150496130Y-106888267D01*
X150496130Y-106888267D02*
X150395114Y-106686236D01*
X150395114Y-106686236D02*
X150395114Y-106484206D01*
X150395114Y-106484206D02*
X150445622Y-106332683D01*
X150445622Y-106332683D02*
X150597145Y-106080145D01*
X150597145Y-106080145D02*
X150748668Y-105928622D01*
X150748668Y-105928622D02*
X151001206Y-105777099D01*
X151001206Y-105777099D02*
X151152729Y-105726591D01*
X151152729Y-105726591D02*
X151354759Y-105726591D01*
X151354759Y-105726591D02*
X151556790Y-105827607D01*
X151556790Y-105827607D02*
X151809328Y-106080145D01*
X171636542Y-107354579D02*
X171788065Y-107304072D01*
X171788065Y-107304072D02*
X171939588Y-107152549D01*
X171939588Y-107152549D02*
X172040603Y-106950518D01*
X172040603Y-106950518D02*
X172040603Y-106748488D01*
X172040603Y-106748488D02*
X171990095Y-106596965D01*
X171990095Y-106596965D02*
X171838572Y-106344427D01*
X171838572Y-106344427D02*
X171687049Y-106192904D01*
X171687049Y-106192904D02*
X171434511Y-106041381D01*
X171434511Y-106041381D02*
X171282988Y-105990873D01*
X171282988Y-105990873D02*
X171080958Y-105990873D01*
X171080958Y-105990873D02*
X170878927Y-106091888D01*
X170878927Y-106091888D02*
X170777912Y-106192904D01*
X170777912Y-106192904D02*
X170676897Y-106394934D01*
X170676897Y-106394934D02*
X170676897Y-106495949D01*
X170676897Y-106495949D02*
X171030450Y-106849503D01*
X171030450Y-106849503D02*
X171232481Y-106647472D01*
X170121313Y-106849503D02*
X171181973Y-107910163D01*
X171181973Y-107910163D02*
X169515221Y-107455594D01*
X169515221Y-107455594D02*
X170575882Y-108516255D01*
X169010145Y-107960671D02*
X170070805Y-109021331D01*
X170070805Y-109021331D02*
X169818267Y-109273869D01*
X169818267Y-109273869D02*
X169616236Y-109374885D01*
X169616236Y-109374885D02*
X169414206Y-109374885D01*
X169414206Y-109374885D02*
X169262683Y-109324377D01*
X169262683Y-109324377D02*
X169010145Y-109172854D01*
X169010145Y-109172854D02*
X168858622Y-109021331D01*
X168858622Y-109021331D02*
X168707099Y-108768793D01*
X168707099Y-108768793D02*
X168656591Y-108617270D01*
X168656591Y-108617270D02*
X168656591Y-108415240D01*
X168656591Y-108415240D02*
X168757607Y-108213209D01*
X168757607Y-108213209D02*
X169010145Y-107960671D01*
X155903720Y-84263503D02*
X155046577Y-84263503D01*
X155475148Y-84263503D02*
X155475148Y-82763503D01*
X155475148Y-82763503D02*
X155332291Y-82977789D01*
X155332291Y-82977789D02*
X155189434Y-83120646D01*
X155189434Y-83120646D02*
X155046577Y-83192075D01*
X156760862Y-83406360D02*
X156618005Y-83334932D01*
X156618005Y-83334932D02*
X156546576Y-83263503D01*
X156546576Y-83263503D02*
X156475148Y-83120646D01*
X156475148Y-83120646D02*
X156475148Y-83049217D01*
X156475148Y-83049217D02*
X156546576Y-82906360D01*
X156546576Y-82906360D02*
X156618005Y-82834932D01*
X156618005Y-82834932D02*
X156760862Y-82763503D01*
X156760862Y-82763503D02*
X157046576Y-82763503D01*
X157046576Y-82763503D02*
X157189434Y-82834932D01*
X157189434Y-82834932D02*
X157260862Y-82906360D01*
X157260862Y-82906360D02*
X157332291Y-83049217D01*
X157332291Y-83049217D02*
X157332291Y-83120646D01*
X157332291Y-83120646D02*
X157260862Y-83263503D01*
X157260862Y-83263503D02*
X157189434Y-83334932D01*
X157189434Y-83334932D02*
X157046576Y-83406360D01*
X157046576Y-83406360D02*
X156760862Y-83406360D01*
X156760862Y-83406360D02*
X156618005Y-83477789D01*
X156618005Y-83477789D02*
X156546576Y-83549217D01*
X156546576Y-83549217D02*
X156475148Y-83692075D01*
X156475148Y-83692075D02*
X156475148Y-83977789D01*
X156475148Y-83977789D02*
X156546576Y-84120646D01*
X156546576Y-84120646D02*
X156618005Y-84192075D01*
X156618005Y-84192075D02*
X156760862Y-84263503D01*
X156760862Y-84263503D02*
X157046576Y-84263503D01*
X157046576Y-84263503D02*
X157189434Y-84192075D01*
X157189434Y-84192075D02*
X157260862Y-84120646D01*
X157260862Y-84120646D02*
X157332291Y-83977789D01*
X157332291Y-83977789D02*
X157332291Y-83692075D01*
X157332291Y-83692075D02*
X157260862Y-83549217D01*
X157260862Y-83549217D02*
X157189434Y-83477789D01*
X157189434Y-83477789D02*
X157046576Y-83406360D01*
X157760862Y-82763503D02*
X158260862Y-84263503D01*
X158260862Y-84263503D02*
X158760862Y-82763503D01*
D11*
%TO.C,J3*%
X150460000Y-104170000D02*
G75*
G02*
X146960000Y-104170000I-1750000J0D01*
G01*
X146960000Y-104170000D02*
G75*
G02*
X150460000Y-104170000I1750000J0D01*
G01*
D12*
%TO.C,D1*%
X161270000Y-91520000D02*
X161270000Y-91520000D01*
X161270000Y-91620000D02*
X161270000Y-91620000D01*
X161270000Y-91520000D02*
G75*
G02*
X161270000Y-91620000I-1J-50000D01*
G01*
X161270000Y-91620000D02*
G75*
G02*
X161270000Y-91520000I-1J50000D01*
G01*
%TO.C,D2*%
X155460001Y-103854679D02*
X155460001Y-103854679D01*
X155510000Y-103941281D02*
X155510000Y-103941281D01*
X155460001Y-103854679D02*
G75*
G02*
X155510000Y-103941281I24996J-43303D01*
G01*
X155510000Y-103941281D02*
G75*
G02*
X155460001Y-103854679I-25001J43300D01*
G01*
%TO.C,D3*%
X170180000Y-98485321D02*
X170180000Y-98485321D01*
X170230001Y-98398719D02*
X170230001Y-98398719D01*
X170180000Y-98485321D02*
G75*
G02*
X170230001Y-98398718I25003J43300D01*
G01*
X170230001Y-98398719D02*
G75*
G02*
X170180000Y-98485320I-24998J-43302D01*
G01*
D11*
%TO.C,J2*%
X175580000Y-104170000D02*
G75*
G02*
X172080000Y-104170000I-1750000J0D01*
G01*
X172080000Y-104170000D02*
G75*
G02*
X175580000Y-104170000I1750000J0D01*
G01*
%TO.C,J1*%
X163020000Y-82420000D02*
G75*
G02*
X159520000Y-82420000I-1750000J0D01*
G01*
X159520000Y-82420000D02*
G75*
G02*
X163020000Y-82420000I1750000J0D01*
G01*
%TD*%
%LPC*%
D13*
%TO.C,J3*%
X148710000Y-104170000D03*
%TD*%
D14*
%TO.C,D1*%
X161270000Y-90160000D03*
X161270000Y-86680000D03*
D15*
X161270000Y-88420000D03*
%TD*%
D16*
%TO.C,D2*%
X154779999Y-102676885D03*
X153040001Y-99663115D03*
D17*
X153910000Y-101170000D03*
%TD*%
D18*
%TO.C,H1*%
X161270000Y-106920000D03*
%TD*%
%TO.C,H3*%
X152610000Y-91920000D03*
%TD*%
D19*
%TO.C,D3*%
X169500002Y-99663116D03*
X167759998Y-102676884D03*
D20*
X168630000Y-101170000D03*
%TD*%
D13*
%TO.C,J2*%
X173830000Y-104170000D03*
%TD*%
%TO.C,J1*%
X161270000Y-82420000D03*
%TD*%
D18*
%TO.C,H2*%
X169930000Y-91920000D03*
%TD*%
%LPD*%
M02*
