M48
; DRILL file {KiCad 8.0.8} date 2025-03-02T01:38:11-0500
; FORMAT={-:-/ absolute / inch / decimal}
; #@! TF.CreationDate,2025-03-02T01:38:11-05:00
; #@! TF.GenerationSoftware,Kicad,Pcbnew,8.0.8
; #@! TF.FileFunction,Plated,1,2,PTH
FMAT,2
INCH
; #@! TA.AperFunction,Plated,PTH,ViaDrill
T1C0.0120
; #@! TA.AperFunction,Plated,PTH,ComponentDrill
T2C0.0120
; #@! TA.AperFunction,Plated,PTH,ComponentDrill
T3C0.0394
; #@! TA.AperFunction,Plated,PTH,ComponentDrill
T4C0.0984
%
G90
G05
T1
X6.2501Y-5.8931
X6.2601Y-5.7131
X6.3201Y-4.7331
X6.4301Y-5.8931
X6.5101Y-4.7331
X6.5101Y-4.9131
X6.6501Y-5.7131
X6.6501Y-5.8931
X6.7001Y-4.7331
X6.7101Y-4.9131
X6.7601Y-5.3731
X6.7901Y-5.1731
X6.8301Y-5.7131
X6.8401Y-5.3731
X6.8401Y-5.9031
X6.9301Y-4.7331
X6.9401Y-4.9131
X7.1901Y-5.3331
T2
X6.7229Y-5.4841
X6.7229Y-5.5431
X6.7229Y-5.6022
X6.782Y-5.4841
X6.782Y-5.5431
X6.782Y-5.6022
T3
X6.0698Y-5.0831
X6.0698Y-5.1831
X6.0698Y-5.2831
X6.0698Y-5.3831
X6.0698Y-5.4831
X6.0698Y-5.5831
X7.1698Y-5.0831
X7.1698Y-5.1831
X7.1698Y-5.4827
X7.1698Y-5.5827
T4
X6.1276Y-4.841
X6.1276Y-5.8253
X7.1119Y-4.841
X7.1119Y-5.8253
M30
