%TF.GenerationSoftware,KiCad,Pcbnew,9.0.1*%
%TF.CreationDate,2025-05-13T22:03:03-04:00*%
%TF.ProjectId,mp3-project-v2,6d70332d-7072-46f6-9a65-63742d76322e,1.1*%
%TF.SameCoordinates,Original*%
%TF.FileFunction,Profile,NP*%
%FSLAX46Y46*%
G04 Gerber Fmt 4.6, Leading zero omitted, Abs format (unit mm)*
G04 Created by KiCad (PCBNEW 9.0.1) date 2025-05-13 22:03:03*
%MOMM*%
%LPD*%
G01*
G04 APERTURE LIST*
%TA.AperFunction,Profile*%
%ADD10C,0.250000*%
%TD*%
%ADD11C,0.250000*%
%TA.AperFunction,Profile*%
%ADD12C,0.050000*%
%TD*%
G04 APERTURE END LIST*
D10*
X36335995Y4749907D02*
X38341087Y6460033D01*
X29104367Y6460033D02*
X31144688Y4719862D01*
D11*
X17468584Y17411803D02*
X17535847Y17341363D01*
X17603330Y17270807D01*
X17671035Y17200136D01*
X17738961Y17129350D01*
X17807109Y17058448D01*
X17875479Y16987430D01*
X17944071Y16916296D01*
X18012887Y16845046D01*
X18081927Y16773680D01*
X18151191Y16702198D01*
X18220679Y16630598D01*
X18290392Y16558882D01*
X18360330Y16487049D01*
X18430494Y16415099D01*
X18500884Y16343032D01*
X18571500Y16270847D01*
X18642344Y16198545D01*
X18713415Y16126124D01*
X18784714Y16053586D01*
X18856242Y15980930D01*
X18927998Y15908155D01*
X18999983Y15835262D01*
X19072198Y15762251D01*
X19144643Y15689120D01*
X19217318Y15615871D01*
X19290225Y15542503D01*
X19363363Y15469015D01*
X19436732Y15395408D01*
X19510334Y15321681D01*
X19584168Y15247834D01*
X19658236Y15173868D01*
X19732537Y15099781D01*
X19807072Y15025574D01*
X19881841Y14951246D01*
X19956846Y14876798D01*
X20032085Y14802229D01*
X20107561Y14727540D01*
X20183272Y14652729D01*
X20259221Y14577796D01*
X20335406Y14502743D01*
X20411829Y14427567D01*
X20488489Y14352270D01*
X20565388Y14276851D01*
X20642526Y14201310D01*
X20719904Y14125646D01*
X20797521Y14049860D01*
X20875378Y13973951D01*
X20953475Y13897920D01*
X21031814Y13821765D01*
X21110394Y13745488D01*
X21189217Y13669087D01*
X21268281Y13592562D01*
X21347589Y13515914D01*
X21427140Y13439142D01*
X21506934Y13362246D01*
X21586973Y13285226D01*
X21667256Y13208081D01*
X21747785Y13130812D01*
X21828559Y13053419D01*
X21909579Y12975900D01*
X21990845Y12898256D01*
X22072359Y12820488D01*
X22154119Y12742593D01*
X22236128Y12664574D01*
X22318384Y12586428D01*
X22400890Y12508157D01*
X22483645Y12429759D01*
X22566649Y12351236D01*
X22649903Y12272586D01*
X22733408Y12193809D01*
X22817164Y12114906D01*
X22901171Y12035876D01*
X22985430Y11956718D01*
X23069941Y11877434D01*
X23154706Y11798022D01*
X23239723Y11718482D01*
X23324994Y11638815D01*
X23410520Y11559019D01*
X23496300Y11479096D01*
X23582335Y11399044D01*
X23668626Y11318864D01*
X23755172Y11238555D01*
X23841975Y11158117D01*
X23929036Y11077551D01*
X24016353Y10996855D01*
X24103928Y10916030D01*
X24191762Y10835075D01*
X24279855Y10753991D01*
X24368206Y10672776D01*
X24456818Y10591432D01*
X24545689Y10509958D01*
X24634822Y10428353D01*
X24724215Y10346618D01*
X24813870Y10264751D01*
X24828560Y10251348D01*
D10*
X58972727Y32471199D02*
G75*
G02*
X56472727Y32471199I-1250000J0D01*
G01*
X56472727Y32471199D02*
G75*
G02*
X58972727Y32471199I1250000J0D01*
G01*
X4391492Y37851419D02*
G75*
G02*
X3722730Y44255809I30331308J6404381D01*
G01*
D11*
X38341087Y6460033D02*
X38392529Y6504457D01*
X38443917Y6548863D01*
X38495214Y6593215D01*
X38546458Y6637549D01*
X38597611Y6681829D01*
X38648711Y6726090D01*
X38699719Y6770299D01*
X38750675Y6814488D01*
X38801539Y6858624D01*
X38852351Y6902742D01*
X38903071Y6946807D01*
X38953740Y6990853D01*
X39004317Y7034846D01*
X39054842Y7078820D01*
X39105276Y7122741D01*
X39155658Y7166644D01*
X39205949Y7210494D01*
X39256188Y7254326D01*
X39306336Y7298104D01*
X39356432Y7341864D01*
X39406438Y7385571D01*
X39456392Y7429260D01*
X39506256Y7472896D01*
X39556068Y7516514D01*
X39605790Y7560079D01*
X39655460Y7603625D01*
X39705040Y7647120D01*
X39754568Y7690595D01*
X39804007Y7734018D01*
X39853394Y7777423D01*
X39902691Y7820775D01*
X39951937Y7864109D01*
X40001094Y7907391D01*
X40050199Y7950654D01*
X40099214Y7993865D01*
X40148179Y8037058D01*
X40197054Y8080198D01*
X40245878Y8123320D01*
X40294613Y8166390D01*
X40343297Y8209442D01*
X40391892Y8252442D01*
X40440437Y8295423D01*
X40488892Y8338353D01*
X40537297Y8381264D01*
X40585612Y8424123D01*
X40633878Y8466964D01*
X40682054Y8509753D01*
X40730180Y8552524D01*
X40778218Y8595244D01*
X40826205Y8637945D01*
X40874104Y8680594D01*
X40921953Y8723226D01*
X40969713Y8765805D01*
X41017423Y8808367D01*
X41065046Y8850877D01*
X41112617Y8893369D01*
X41160102Y8935809D01*
X41207536Y8978231D01*
X41254882Y9020602D01*
X41302179Y9062955D01*
X41349388Y9105257D01*
X41396547Y9147540D01*
X41443619Y9189772D01*
X41490640Y9231986D01*
X41537575Y9274149D01*
X41584460Y9316294D01*
X41631258Y9358388D01*
X41678006Y9400464D01*
X41724668Y9442489D01*
X41771279Y9484496D01*
X41817805Y9526452D01*
X41864280Y9568390D01*
X41910669Y9610277D01*
X41957009Y9652146D01*
X42003262Y9693965D01*
X42049466Y9735765D01*
X42095584Y9777515D01*
X42141652Y9819247D01*
X42187635Y9860928D01*
X42233568Y9902591D01*
X42279416Y9944204D01*
X42325214Y9985799D01*
X42370927Y10027343D01*
X42416590Y10068869D01*
X42462168Y10110345D01*
X42507697Y10151804D01*
X42553141Y10193211D01*
X42598536Y10234602D01*
X42616894Y10251348D01*
D10*
X36335995Y4749907D02*
G75*
G02*
X31144664Y4719834I-2613295J3028293D01*
G01*
X36133168Y57994305D02*
G75*
G02*
X31312286Y57994305I-2410441J3192145D01*
G01*
D11*
X61009322Y32157053D02*
X61020247Y32179128D01*
X61031148Y32201200D01*
X61042019Y32223255D01*
X61052866Y32245306D01*
X61063682Y32267342D01*
X61074475Y32289373D01*
X61085237Y32311389D01*
X61095975Y32333400D01*
X61106683Y32355396D01*
X61117367Y32377387D01*
X61128020Y32399363D01*
X61138650Y32421335D01*
X61149250Y32443291D01*
X61159826Y32465243D01*
X61170372Y32487180D01*
X61180894Y32509112D01*
X61191386Y32531029D01*
X61201854Y32552941D01*
X61212292Y32574838D01*
X61222706Y32596731D01*
X61233091Y32618609D01*
X61243452Y32640482D01*
X61253783Y32662340D01*
X61264090Y32684194D01*
X61274368Y32706032D01*
X61284622Y32727867D01*
X61294846Y32749685D01*
X61305046Y32771500D01*
X61315217Y32793300D01*
X61325365Y32815095D01*
X61335482Y32836875D01*
X61345577Y32858651D01*
X61355641Y32880412D01*
X61365682Y32902169D01*
X61375694Y32923910D01*
X61385682Y32945648D01*
X61395641Y32967369D01*
X61405576Y32989088D01*
X61415483Y33010791D01*
X61425365Y33032490D01*
X61435218Y33054173D01*
X61445048Y33075853D01*
X61454849Y33097517D01*
X61464626Y33119178D01*
X61474374Y33140824D01*
X61484099Y33162465D01*
X61493795Y33184092D01*
X61503467Y33205714D01*
X61513111Y33227321D01*
X61522731Y33248925D01*
X61532322Y33270513D01*
X61541890Y33292098D01*
X61551429Y33313667D01*
X61560945Y33335233D01*
X61570432Y33356784D01*
X61579895Y33378330D01*
X61589330Y33399862D01*
X61598742Y33421390D01*
X61608125Y33442903D01*
X61617485Y33464412D01*
X61626816Y33485906D01*
X61636124Y33507397D01*
X61645404Y33528872D01*
X61654660Y33550344D01*
X61663888Y33571801D01*
X61673093Y33593254D01*
X61682269Y33614692D01*
X61691422Y33636126D01*
X61700547Y33657546D01*
X61709649Y33678962D01*
X61718723Y33700363D01*
X61727773Y33721760D01*
X61736796Y33743143D01*
X61745795Y33764522D01*
X61754766Y33785886D01*
X61763714Y33807246D01*
X61772634Y33828592D01*
X61781531Y33849934D01*
X61790400Y33871261D01*
X61799246Y33892585D01*
X61808064Y33913894D01*
X61816859Y33935199D01*
X61825627Y33956490D01*
X61834371Y33977777D01*
X61843088Y33999049D01*
X61851781Y34020318D01*
X61860447Y34041572D01*
X61869090Y34062823D01*
X61877705Y34084059D01*
X61886298Y34105291D01*
X61894862Y34126509D01*
X61903404Y34147724D01*
X61911919Y34168924D01*
X61920410Y34190120D01*
X61928874Y34211302D01*
X61937315Y34232480D01*
X61945729Y34253644D01*
X61954120Y34274804D01*
X61962484Y34295950D01*
X61970825Y34317093D01*
X61979138Y34338221D01*
X61987429Y34359346D01*
X61995693Y34380456D01*
X62003934Y34401562D01*
X62012147Y34422655D01*
X62020338Y34443744D01*
X62028502Y34464818D01*
X62036643Y34485890D01*
X62044758Y34506947D01*
X62052849Y34528000D01*
X62060913Y34549039D01*
X62068955Y34570075D01*
X62076970Y34591097D01*
X62084962Y34612115D01*
X62092928Y34633119D01*
X62100871Y34654120D01*
X62108787Y34675106D01*
X62116680Y34696089D01*
X62124547Y34717058D01*
X62132391Y34738024D01*
X62140208Y34758975D01*
X62148003Y34779924D01*
X62155771Y34800858D01*
X62163517Y34821788D01*
X62171236Y34842705D01*
X62178933Y34863619D01*
X62186603Y34884518D01*
X62194250Y34905414D01*
X62201871Y34926296D01*
X62209470Y34947175D01*
X62217043Y34968040D01*
X62224592Y34988902D01*
X62232116Y35009749D01*
X62239617Y35030594D01*
X62247092Y35051424D01*
X62254544Y35072252D01*
X62261971Y35093065D01*
X62269375Y35113875D01*
X62276752Y35134672D01*
X62284108Y35155465D01*
X62291437Y35176244D01*
X62298744Y35197020D01*
X62306025Y35217783D01*
X62313283Y35238542D01*
X62320516Y35259288D01*
X62327726Y35280030D01*
X62334910Y35300759D01*
X62342072Y35321484D01*
X62349209Y35342196D01*
X62356322Y35362904D01*
X62363411Y35383599D01*
X62370476Y35404291D01*
X62377516Y35424969D01*
X62384534Y35445644D01*
X62391527Y35466306D01*
X62398496Y35486964D01*
X62405441Y35507609D01*
X62412363Y35528251D01*
X62419260Y35548879D01*
X62426134Y35569504D01*
X62432983Y35590116D01*
X62439809Y35610725D01*
X62446611Y35631320D01*
X62453390Y35651912D01*
X62460144Y35672491D01*
X62466875Y35693066D01*
X62473581Y35713629D01*
X62480265Y35734188D01*
X62486924Y35754734D01*
X62493561Y35775276D01*
X62500172Y35795806D01*
X62506762Y35816332D01*
X62513326Y35836846D01*
X62519868Y35857356D01*
X62526385Y35877853D01*
X62532880Y35898346D01*
X62539350Y35918827D01*
X62545798Y35939305D01*
X62552221Y35959770D01*
X62558622Y35980231D01*
X62564998Y36000680D01*
X62571352Y36021125D01*
X62577681Y36041558D01*
X62583988Y36061987D01*
X62590270Y36082403D01*
X62596530Y36102816D01*
X62602766Y36123217D01*
X62608979Y36143614D01*
X62615168Y36163999D01*
X62621335Y36184380D01*
X62627477Y36204749D01*
X62633597Y36225114D01*
X62639693Y36245467D01*
X62645767Y36265817D01*
X62651816Y36286154D01*
X62657843Y36306487D01*
X62663846Y36326809D01*
X62669827Y36347127D01*
X62675783Y36367432D01*
X62681718Y36387734D01*
X62687628Y36408024D01*
X62693516Y36428311D01*
X62699380Y36448585D01*
X62705222Y36468856D01*
X62711040Y36489115D01*
X62716836Y36509370D01*
X62722608Y36529614D01*
X62728358Y36549853D01*
X62734084Y36570081D01*
X62739788Y36590305D01*
X62745467Y36610518D01*
X62751126Y36630727D01*
X62756760Y36650924D01*
X62762372Y36671117D01*
X62767960Y36691299D01*
X62773526Y36711477D01*
X62779069Y36731643D01*
X62784590Y36751806D01*
X62790086Y36771957D01*
X62795562Y36792105D01*
X62801013Y36812240D01*
X62806442Y36832373D01*
X62811848Y36852493D01*
X62817232Y36872611D01*
X62822592Y36892716D01*
X62827931Y36912818D01*
X62833245Y36932908D01*
X62838539Y36952996D01*
X62843808Y36973071D01*
X62849056Y36993143D01*
X62854280Y37013203D01*
X62859483Y37033260D01*
X62864662Y37053306D01*
X62869819Y37073348D01*
X62874953Y37093378D01*
X62880065Y37113406D01*
X62885154Y37133421D01*
X62890221Y37153434D01*
X62895265Y37173434D01*
X62900287Y37193432D01*
X62905286Y37213418D01*
X62910263Y37233401D01*
X62915217Y37253372D01*
X62920149Y37273340D01*
X62925058Y37293297D01*
X62929946Y37313251D01*
X62934810Y37333193D01*
X62939653Y37353132D01*
X62944472Y37373059D01*
X62949270Y37392983D01*
X62954045Y37412896D01*
X62958799Y37432806D01*
X62963529Y37452705D01*
X62968238Y37472600D01*
X62972923Y37492484D01*
X62977588Y37512365D01*
X62982229Y37532234D01*
X62986849Y37552101D01*
X62991446Y37571956D01*
X62996021Y37591808D01*
X63000574Y37611649D01*
X63005105Y37631487D01*
X63009613Y37651314D01*
X63014100Y37671137D01*
X63018564Y37690950D01*
X63023006Y37710759D01*
X63027426Y37730558D01*
X63031825Y37750353D01*
X63036200Y37770137D01*
X63040555Y37789918D01*
X63044886Y37809688D01*
X63049197Y37829455D01*
X63053962Y37851419D01*
X6436132Y32157053D02*
X6459295Y32110388D01*
X6482575Y32063668D01*
X6505972Y32016893D01*
X6529486Y31970063D01*
X6553118Y31923177D01*
X6576866Y31876236D01*
X6600733Y31829239D01*
X6624718Y31782187D01*
X6648821Y31735079D01*
X6673043Y31687915D01*
X6697383Y31640694D01*
X6721842Y31593418D01*
X6746421Y31546086D01*
X6771118Y31498697D01*
X6795936Y31451252D01*
X6820873Y31403750D01*
X6845931Y31356191D01*
X6871109Y31308576D01*
X6896407Y31260904D01*
X6921826Y31213176D01*
X6947366Y31165390D01*
X6973028Y31117547D01*
X6998811Y31069646D01*
X7024716Y31021689D01*
X7050743Y30973674D01*
X7076892Y30925601D01*
X7103163Y30877471D01*
X7129557Y30829283D01*
X7156074Y30781037D01*
X7182714Y30732733D01*
X7209478Y30684371D01*
X7236365Y30635951D01*
X7263377Y30587473D01*
X7290512Y30538936D01*
X7317772Y30490341D01*
X7345156Y30441687D01*
X7372665Y30392975D01*
X7400299Y30344204D01*
X7428059Y30295374D01*
X7455944Y30246485D01*
X7483955Y30197537D01*
X7512092Y30148529D01*
X7540356Y30099463D01*
X7568746Y30050337D01*
X7597263Y30001151D01*
X7625906Y29951906D01*
X7654678Y29902602D01*
X7683576Y29853237D01*
X7712603Y29803813D01*
X7741757Y29754328D01*
X7771040Y29704784D01*
X7800452Y29655179D01*
X7829992Y29605514D01*
X7859661Y29555788D01*
X7889460Y29506002D01*
X7919388Y29456156D01*
X7949445Y29406249D01*
X7979633Y29356280D01*
X8009952Y29306251D01*
X8040400Y29256161D01*
X8070980Y29206010D01*
X8101691Y29155798D01*
X8132532Y29105524D01*
X8163506Y29055189D01*
X8194611Y29004792D01*
X8225849Y28954334D01*
X8257219Y28903814D01*
X8288721Y28853232D01*
X8320356Y28802588D01*
X8352124Y28751882D01*
X8384026Y28701114D01*
X8416061Y28650284D01*
X8448231Y28599392D01*
X8480534Y28548437D01*
X8512972Y28497419D01*
X8545544Y28446339D01*
X8578251Y28395196D01*
X8611094Y28343990D01*
X8644072Y28292721D01*
X8677186Y28241390D01*
X8710435Y28189995D01*
X8743821Y28138536D01*
X8777343Y28087015D01*
X8811003Y28035430D01*
X8844799Y27983781D01*
X8878732Y27932069D01*
X8912803Y27880293D01*
X8947012Y27828453D01*
X8981359Y27776550D01*
X9015844Y27724582D01*
X9050468Y27672550D01*
X9085231Y27620454D01*
X9120133Y27568293D01*
X9155174Y27516068D01*
X9190356Y27463778D01*
X9225677Y27411424D01*
X9261138Y27359005D01*
X9296740Y27306521D01*
X9332482Y27253972D01*
X9368366Y27201358D01*
X9404391Y27148678D01*
X9440557Y27095934D01*
X9476866Y27043124D01*
X9513316Y26990249D01*
X9549909Y26937308D01*
X9586645Y26884301D01*
X9623523Y26831229D01*
X9660545Y26778091D01*
X9697710Y26724886D01*
X9735020Y26671616D01*
X9772473Y26618280D01*
X9810070Y26564877D01*
X9847812Y26511408D01*
X9885699Y26457872D01*
X9923731Y26404270D01*
X9961909Y26350601D01*
X10000232Y26296865D01*
X10038702Y26243062D01*
X10077317Y26189193D01*
X10112564Y26140142D01*
X24828560Y10251348D02*
X24919273Y10168643D01*
X25010254Y10085801D01*
X25101503Y10002824D01*
X25193021Y9919710D01*
X25284809Y9836459D01*
X25376868Y9753071D01*
X25469196Y9669546D01*
X25561796Y9585884D01*
X25654667Y9502085D01*
X25747810Y9418148D01*
X25841225Y9334073D01*
X25934914Y9249860D01*
X26028876Y9165509D01*
X26123112Y9081019D01*
X26217622Y8996391D01*
X26312407Y8911625D01*
X26407468Y8826719D01*
X26502804Y8741674D01*
X26598417Y8656490D01*
X26694307Y8571167D01*
X26790474Y8485703D01*
X26886919Y8400100D01*
X26983642Y8314357D01*
X27080644Y8228474D01*
X27177926Y8142450D01*
X27275487Y8056286D01*
X27373329Y7969981D01*
X27471451Y7883535D01*
X27569855Y7796947D01*
X27668540Y7710218D01*
X27767508Y7623348D01*
X27866759Y7536336D01*
X27966293Y7449182D01*
X28066110Y7361886D01*
X28166212Y7274448D01*
X28266599Y7186867D01*
X28367271Y7099144D01*
X28468229Y7011277D01*
X28569473Y6923268D01*
X28671004Y6835115D01*
X28772822Y6746819D01*
X28874928Y6658379D01*
X28977322Y6569796D01*
X29080005Y6481068D01*
X29104367Y6460033D01*
D10*
X3722727Y44255809D02*
G75*
G02*
X31312289Y57994309I17215393J1D01*
G01*
D11*
X42616894Y10251348D02*
X42661802Y10292332D01*
X42706661Y10333299D01*
X42751438Y10374217D01*
X42796166Y10415119D01*
X42840812Y10455972D01*
X42885410Y10496808D01*
X42929925Y10537595D01*
X42974392Y10578366D01*
X43018777Y10619089D01*
X43063114Y10659794D01*
X43107368Y10700452D01*
X43151575Y10741092D01*
X43195700Y10781685D01*
X43239777Y10822260D01*
X43283772Y10862787D01*
X43327720Y10903298D01*
X43371586Y10943760D01*
X43415404Y10984206D01*
X43459141Y11024604D01*
X43502830Y11064985D01*
X43546437Y11105318D01*
X43589997Y11145634D01*
X43633476Y11185903D01*
X43676908Y11226155D01*
X43720258Y11266358D01*
X43763561Y11306546D01*
X43806783Y11346685D01*
X43849958Y11386808D01*
X43893052Y11426883D01*
X43936099Y11466942D01*
X43979066Y11506953D01*
X44021985Y11546947D01*
X44064824Y11586894D01*
X44107615Y11626824D01*
X44150327Y11666706D01*
X44192991Y11706573D01*
X44235575Y11746391D01*
X44278113Y11786193D01*
X44320570Y11825948D01*
X44362981Y11865686D01*
X44405312Y11905377D01*
X44447596Y11945052D01*
X44489800Y11984679D01*
X44531958Y12024289D01*
X44574036Y12063853D01*
X44616067Y12103400D01*
X44658019Y12142900D01*
X44699925Y12182384D01*
X44741752Y12221820D01*
X44783532Y12261240D01*
X44825232Y12300613D01*
X44866887Y12339970D01*
X44908463Y12379280D01*
X44949992Y12418573D01*
X44991443Y12457820D01*
X45032847Y12497050D01*
X45074173Y12536233D01*
X45115452Y12575400D01*
X45156653Y12614521D01*
X45197808Y12653625D01*
X45238885Y12692682D01*
X45279916Y12731723D01*
X45320869Y12770718D01*
X45361775Y12809696D01*
X45402604Y12848628D01*
X45443387Y12887543D01*
X45484092Y12926412D01*
X45524751Y12965265D01*
X45565333Y13004072D01*
X45605868Y13042862D01*
X45646327Y13081606D01*
X45686739Y13120333D01*
X45727075Y13159015D01*
X45767364Y13197680D01*
X45807577Y13236299D01*
X45847744Y13274902D01*
X45887834Y13313459D01*
X45927878Y13352000D01*
X45967846Y13390494D01*
X46007768Y13428973D01*
X46047614Y13467405D01*
X46087414Y13505822D01*
X46127137Y13544192D01*
X46166816Y13582546D01*
X46206418Y13620855D01*
X46245974Y13659147D01*
X46285455Y13697394D01*
X46324890Y13735625D01*
X46364250Y13773810D01*
X46403564Y13811979D01*
X46442802Y13850102D01*
X46481996Y13888209D01*
X46521113Y13926271D01*
X46560186Y13964316D01*
X46599183Y14002316D01*
X46638135Y14040301D01*
X46677011Y14078239D01*
X46715843Y14116162D01*
X46754600Y14154039D01*
X46793312Y14191901D01*
X46831948Y14229717D01*
X46870540Y14267517D01*
X46909057Y14305272D01*
X46947530Y14343011D01*
X46985927Y14380705D01*
X47024281Y14418383D01*
X47062559Y14456015D01*
X47100793Y14493632D01*
X47138952Y14531204D01*
X47177067Y14568760D01*
X47215108Y14606271D01*
X47253104Y14643767D01*
X47291026Y14681217D01*
X47328904Y14718652D01*
X47366708Y14756041D01*
X47404467Y14793415D01*
X47442153Y14830744D01*
X47479795Y14868057D01*
X47517362Y14905326D01*
X47554886Y14942579D01*
X47592336Y14979787D01*
X47629742Y15016979D01*
X47667075Y15054127D01*
X47704364Y15091259D01*
X47741579Y15128347D01*
X47778751Y15165419D01*
X47815849Y15202446D01*
X47852904Y15239458D01*
X47889885Y15276425D01*
X47926823Y15313377D01*
X47963688Y15350284D01*
X48000510Y15387176D01*
X48037259Y15424023D01*
X48073964Y15460855D01*
X48110596Y15497643D01*
X48147185Y15534415D01*
X48183702Y15571142D01*
X48220175Y15607855D01*
X48256576Y15644523D01*
X48292934Y15681176D01*
X48329220Y15717784D01*
X48365462Y15754377D01*
X48401632Y15790926D01*
X48437759Y15827460D01*
X48473814Y15863950D01*
X48509826Y15900424D01*
X48545767Y15936854D01*
X48581664Y15973269D01*
X48617490Y16009640D01*
X48653273Y16045996D01*
X48688984Y16082308D01*
X48724653Y16118605D01*
X48760250Y16154857D01*
X48795804Y16191095D01*
X48831287Y16227289D01*
X48866728Y16263468D01*
X48902098Y16299602D01*
X48937424Y16335722D01*
X48972680Y16371798D01*
X49007894Y16407859D01*
X49043036Y16443876D01*
X49078137Y16479879D01*
X49113166Y16515837D01*
X49148153Y16551781D01*
X49183070Y16587681D01*
X49217944Y16623566D01*
X49252748Y16659408D01*
X49287510Y16695234D01*
X49322202Y16731017D01*
X49356851Y16766786D01*
X49391431Y16802510D01*
X49425968Y16838220D01*
X49460435Y16873887D01*
X49494860Y16909539D01*
X49529216Y16945147D01*
X49563530Y16980740D01*
X49597774Y17016291D01*
X49631976Y17051826D01*
X49666108Y17087318D01*
X49700199Y17122796D01*
X49734220Y17158230D01*
X49768200Y17193650D01*
X49802110Y17229027D01*
X49835979Y17264388D01*
X49869779Y17299707D01*
X49903537Y17335011D01*
X49937226Y17370272D01*
X49970874Y17405519D01*
X49976870Y17411803D01*
X10112564Y26140142D02*
X10152926Y26084105D01*
X10193449Y26027984D01*
X10234131Y25971777D01*
X10274974Y25915486D01*
X10315977Y25859109D01*
X10357141Y25802646D01*
X10398467Y25746098D01*
X10439955Y25689465D01*
X10481605Y25632745D01*
X10523417Y25575940D01*
X10565392Y25519048D01*
X10607530Y25462071D01*
X10649832Y25405007D01*
X10692297Y25347856D01*
X10734926Y25290619D01*
X10777720Y25233295D01*
X10820678Y25175884D01*
X10863801Y25118386D01*
X10907090Y25060801D01*
X10950545Y25003129D01*
X10994166Y24945369D01*
X11037953Y24887521D01*
X11081907Y24829586D01*
X11126028Y24771563D01*
X11170316Y24713452D01*
X11214772Y24655253D01*
X11259397Y24596966D01*
X11304189Y24538590D01*
X11349151Y24480126D01*
X11394282Y24421574D01*
X11439582Y24362932D01*
X11485052Y24304201D01*
X11530692Y24245382D01*
X11576503Y24186473D01*
X11622484Y24127475D01*
X11668637Y24068388D01*
X11714961Y24009210D01*
X11761457Y23949944D01*
X11808126Y23890587D01*
X11854967Y23831140D01*
X11901981Y23771603D01*
X11949168Y23711976D01*
X11996528Y23652259D01*
X12044063Y23592451D01*
X12091772Y23532552D01*
X12139655Y23472562D01*
X12187714Y23412482D01*
X12235948Y23352310D01*
X12284358Y23292047D01*
X12332943Y23231693D01*
X12381705Y23171247D01*
X12430644Y23110710D01*
X12479760Y23050081D01*
X12529053Y22989360D01*
X12578525Y22928547D01*
X12628174Y22867642D01*
X12678002Y22806644D01*
X12728008Y22745554D01*
X12778194Y22684372D01*
X12828560Y22623096D01*
X12879105Y22561728D01*
X12929831Y22500267D01*
X12980737Y22438713D01*
X13031824Y22377065D01*
X13083093Y22315325D01*
X13134543Y22253490D01*
X13186176Y22191562D01*
X13237990Y22129540D01*
X13289988Y22067424D01*
X13342169Y22005214D01*
X13394533Y21942910D01*
X13447081Y21880511D01*
X13499813Y21818018D01*
X13552730Y21755431D01*
X13605832Y21692748D01*
X13659119Y21629971D01*
X13712591Y21567098D01*
X13766250Y21504131D01*
X13820095Y21441068D01*
X13874127Y21377909D01*
X13928346Y21314655D01*
X13982752Y21251306D01*
X14037347Y21187860D01*
X14092129Y21124318D01*
X14147100Y21060681D01*
X14202260Y20996947D01*
X14257609Y20933116D01*
X14313148Y20869189D01*
X14368877Y20805165D01*
X14424796Y20741045D01*
X14480906Y20676827D01*
X14537207Y20612513D01*
X14593700Y20548101D01*
X14650385Y20483591D01*
X14707262Y20418985D01*
X14764331Y20354280D01*
X14821593Y20289478D01*
X14879049Y20224577D01*
X14936698Y20159579D01*
X14994542Y20094483D01*
X15052580Y20029288D01*
X15110813Y19963994D01*
X15169241Y19898602D01*
X15227865Y19833111D01*
X15286684Y19767522D01*
X15345700Y19701833D01*
X15404913Y19636045D01*
X15464322Y19570157D01*
X15523929Y19504171D01*
X15583734Y19438084D01*
X15643738Y19371898D01*
X15703939Y19305612D01*
X15764340Y19239226D01*
X15824940Y19172740D01*
X15885740Y19106153D01*
X15946740Y19039466D01*
X16007940Y18972678D01*
X16069341Y18905790D01*
X16130944Y18838801D01*
X16192748Y18771711D01*
X16254754Y18704519D01*
X16316962Y18637227D01*
X16379374Y18569832D01*
X16441988Y18502337D01*
X16504806Y18434739D01*
X16567827Y18367040D01*
X16631053Y18299239D01*
X16694484Y18231336D01*
X16758120Y18163330D01*
X16821961Y18095222D01*
X16886008Y18027011D01*
X16950261Y17958698D01*
X17014721Y17890282D01*
X17079388Y17821763D01*
X17144262Y17753141D01*
X17209344Y17684415D01*
X17274634Y17615587D01*
X17340132Y17546654D01*
X17405840Y17477618D01*
X17468584Y17411803D01*
D10*
X63722727Y44255809D02*
G75*
G02*
X63053966Y37851418I-31000127J-9D01*
G01*
X10972727Y32471199D02*
G75*
G02*
X8472727Y32471199I-1250000J0D01*
G01*
X8472727Y32471199D02*
G75*
G02*
X10972727Y32471199I1250000J0D01*
G01*
X36133168Y57994305D02*
G75*
G02*
X63722731Y44255809I10374172J-13738495D01*
G01*
D11*
X57332890Y26140142D02*
X57352293Y26167130D01*
X57371666Y26194111D01*
X57390996Y26221065D01*
X57410295Y26248012D01*
X57429552Y26274933D01*
X57448778Y26301846D01*
X57467961Y26328733D01*
X57487115Y26355613D01*
X57506225Y26382467D01*
X57525306Y26409314D01*
X57544343Y26436134D01*
X57563351Y26462947D01*
X57582316Y26489735D01*
X57601251Y26516514D01*
X57620143Y26543268D01*
X57639005Y26570015D01*
X57657825Y26596735D01*
X57676615Y26623449D01*
X57695363Y26650136D01*
X57714081Y26676816D01*
X57732756Y26703470D01*
X57751402Y26730117D01*
X57770005Y26756738D01*
X57788579Y26783352D01*
X57807110Y26809940D01*
X57825612Y26836521D01*
X57844072Y26863076D01*
X57862503Y26889624D01*
X57880891Y26916146D01*
X57899249Y26942661D01*
X57917566Y26969150D01*
X57935854Y26995633D01*
X57954099Y27022089D01*
X57972315Y27048538D01*
X57990489Y27074962D01*
X58008634Y27101378D01*
X58026737Y27127769D01*
X58044811Y27154153D01*
X58062844Y27180511D01*
X58080847Y27206862D01*
X58098808Y27233188D01*
X58116741Y27259506D01*
X58134631Y27285799D01*
X58152493Y27312085D01*
X58170314Y27338345D01*
X58188105Y27364598D01*
X58205855Y27390826D01*
X58223576Y27417047D01*
X58241256Y27443243D01*
X58258906Y27469431D01*
X58276516Y27495594D01*
X58294097Y27521750D01*
X58311637Y27547881D01*
X58329147Y27574005D01*
X58346617Y27600103D01*
X58364058Y27626194D01*
X58381459Y27652261D01*
X58398830Y27678320D01*
X58416161Y27704354D01*
X58433463Y27730381D01*
X58450724Y27756383D01*
X58467956Y27782378D01*
X58485148Y27808348D01*
X58502312Y27834310D01*
X58519434Y27860248D01*
X58536529Y27886179D01*
X58553582Y27912085D01*
X58570608Y27937984D01*
X58587592Y27963858D01*
X58604549Y27989724D01*
X58621465Y28015566D01*
X58638353Y28041401D01*
X58655200Y28067212D01*
X58672019Y28093015D01*
X58688798Y28118793D01*
X58705549Y28144565D01*
X58722260Y28170311D01*
X58738942Y28196051D01*
X58755584Y28221766D01*
X58772198Y28247474D01*
X58788773Y28273157D01*
X58805319Y28298834D01*
X58821825Y28324486D01*
X58838303Y28350130D01*
X58854742Y28375751D01*
X58871152Y28401364D01*
X58887523Y28426953D01*
X58903866Y28452535D01*
X58920169Y28478092D01*
X58936444Y28503642D01*
X58952680Y28529168D01*
X58968888Y28554688D01*
X58985057Y28580182D01*
X59001197Y28605670D01*
X59017299Y28631133D01*
X59033372Y28656590D01*
X59049406Y28682022D01*
X59065413Y28707447D01*
X59081380Y28732848D01*
X59097320Y28758243D01*
X59113220Y28783612D01*
X59129093Y28808975D01*
X59144927Y28834314D01*
X59160733Y28859646D01*
X59176501Y28884954D01*
X59192240Y28910255D01*
X59207941Y28935532D01*
X59223615Y28960802D01*
X59239249Y28986048D01*
X59254856Y29011287D01*
X59270425Y29036502D01*
X59285966Y29061710D01*
X59301469Y29086894D01*
X59316944Y29112072D01*
X59332380Y29137225D01*
X59347790Y29162372D01*
X59363161Y29187494D01*
X59378504Y29212610D01*
X59393809Y29237703D01*
X59409087Y29262788D01*
X59424327Y29287849D01*
X59439539Y29312904D01*
X59454714Y29337935D01*
X59469861Y29362959D01*
X59484970Y29387959D01*
X59500052Y29412953D01*
X59515096Y29437923D01*
X59530113Y29462886D01*
X59545092Y29487826D01*
X59560044Y29512759D01*
X59574958Y29537668D01*
X59589845Y29562570D01*
X59604694Y29587449D01*
X59619517Y29612321D01*
X59634302Y29637170D01*
X59649059Y29662012D01*
X59663780Y29686830D01*
X59678473Y29711642D01*
X59693129Y29736430D01*
X59707758Y29761212D01*
X59722350Y29785970D01*
X59736914Y29810721D01*
X59751442Y29835450D01*
X59765942Y29860171D01*
X59780406Y29884869D01*
X59794843Y29909561D01*
X59809243Y29934229D01*
X59823615Y29958890D01*
X59837951Y29983528D01*
X59852260Y30008160D01*
X59866533Y30032768D01*
X59880778Y30057370D01*
X59894987Y30081949D01*
X59909169Y30106521D01*
X59923315Y30131070D01*
X59937434Y30155612D01*
X59951516Y30180131D01*
X59965571Y30204644D01*
X59979591Y30229133D01*
X59993583Y30253616D01*
X60007539Y30278076D01*
X60021469Y30302529D01*
X60035362Y30326960D01*
X60049228Y30351384D01*
X60063059Y30375785D01*
X60076863Y30400179D01*
X60090631Y30424550D01*
X60104372Y30448915D01*
X60118077Y30473257D01*
X60131756Y30497593D01*
X60145399Y30521906D01*
X60159015Y30546212D01*
X60172596Y30570495D01*
X60186150Y30594772D01*
X60199669Y30619026D01*
X60213161Y30643274D01*
X60226617Y30667499D01*
X60240047Y30691718D01*
X60253442Y30715914D01*
X60266810Y30740103D01*
X60280143Y30764270D01*
X60293449Y30788430D01*
X60306720Y30812568D01*
X60319965Y30836699D01*
X60333175Y30860808D01*
X60346358Y30884911D01*
X60359506Y30908990D01*
X60372628Y30933064D01*
X60385715Y30957115D01*
X60398775Y30981160D01*
X60411801Y31005182D01*
X60424800Y31029198D01*
X60437765Y31053191D01*
X60450703Y31077178D01*
X60463607Y31101143D01*
X60476484Y31125101D01*
X60489327Y31149037D01*
X60502143Y31172967D01*
X60514925Y31196874D01*
X60527681Y31220775D01*
X60540403Y31244654D01*
X60553098Y31268526D01*
X60565759Y31292377D01*
X60578394Y31316221D01*
X60590994Y31340042D01*
X60603569Y31363858D01*
X60616109Y31387651D01*
X60628623Y31411439D01*
X60641103Y31435204D01*
X60653558Y31458962D01*
X60665978Y31482699D01*
X60678372Y31506430D01*
X60690732Y31530138D01*
X60703066Y31553840D01*
X60715367Y31577521D01*
X60727641Y31601195D01*
X60739882Y31624847D01*
X60752097Y31648493D01*
X60764278Y31672117D01*
X60776434Y31695734D01*
X60788555Y31719330D01*
X60800651Y31742920D01*
X60812714Y31766488D01*
X60824750Y31790050D01*
X60836753Y31813590D01*
X60848731Y31837124D01*
X60860675Y31860636D01*
X60872593Y31884142D01*
X60884479Y31907626D01*
X60896338Y31931104D01*
X60908164Y31954561D01*
X60919965Y31978011D01*
X60931732Y32001440D01*
X60943474Y32024862D01*
X60955183Y32048263D01*
X60966866Y32071658D01*
X60978517Y32095032D01*
X60990141Y32118399D01*
X61009322Y32157053D01*
X49976870Y17411803D02*
X50009868Y17446403D01*
X50042827Y17480991D01*
X50075721Y17515539D01*
X50108575Y17550075D01*
X50141364Y17584571D01*
X50174113Y17619055D01*
X50206798Y17653500D01*
X50239443Y17687931D01*
X50272023Y17722324D01*
X50304564Y17756704D01*
X50337040Y17791045D01*
X50369477Y17825374D01*
X50401849Y17859663D01*
X50434182Y17893940D01*
X50466451Y17928178D01*
X50498681Y17962403D01*
X50530846Y17996590D01*
X50562972Y18030764D01*
X50595034Y18064898D01*
X50627057Y18099021D01*
X50659016Y18133104D01*
X50690936Y18167176D01*
X50722792Y18201208D01*
X50754609Y18235228D01*
X50786362Y18269209D01*
X50818076Y18303177D01*
X50849727Y18337107D01*
X50881339Y18371025D01*
X50912888Y18404904D01*
X50944397Y18438770D01*
X50975844Y18472598D01*
X51007251Y18506414D01*
X51038596Y18540191D01*
X51069901Y18573955D01*
X51101144Y18607681D01*
X51132348Y18641395D01*
X51163490Y18675070D01*
X51194592Y18708733D01*
X51225632Y18742358D01*
X51256633Y18775970D01*
X51287572Y18809544D01*
X51318472Y18843106D01*
X51349310Y18876629D01*
X51380109Y18910140D01*
X51410846Y18943613D01*
X51441544Y18977073D01*
X51472181Y19010496D01*
X51502779Y19043906D01*
X51533315Y19077278D01*
X51563812Y19110638D01*
X51594248Y19143960D01*
X51624646Y19177269D01*
X51654981Y19210541D01*
X51685279Y19243800D01*
X51715515Y19277021D01*
X51745713Y19310230D01*
X51775849Y19343402D01*
X51805947Y19376561D01*
X51835984Y19409682D01*
X51865983Y19442791D01*
X51895920Y19475862D01*
X51925820Y19508921D01*
X51955658Y19541943D01*
X51985459Y19574952D01*
X52015198Y19607924D01*
X52044900Y19640883D01*
X52074541Y19673805D01*
X52104144Y19706715D01*
X52133686Y19739587D01*
X52163191Y19772447D01*
X52192635Y19805270D01*
X52222041Y19838080D01*
X52251387Y19870853D01*
X52280695Y19903614D01*
X52309943Y19936338D01*
X52339154Y19969049D01*
X52368304Y20001724D01*
X52397416Y20034386D01*
X52426469Y20067011D01*
X52455484Y20099624D01*
X52484439Y20132199D01*
X52513357Y20164763D01*
X52542215Y20197289D01*
X52571036Y20229804D01*
X52599797Y20262281D01*
X52628520Y20294746D01*
X52657185Y20327175D01*
X52685811Y20359591D01*
X52714379Y20391970D01*
X52742909Y20424338D01*
X52771380Y20456668D01*
X52799814Y20488987D01*
X52828189Y20521268D01*
X52856527Y20553538D01*
X52884805Y20585771D01*
X52913047Y20617992D01*
X52941230Y20650176D01*
X52969376Y20682348D01*
X52997463Y20714483D01*
X53025513Y20746607D01*
X53053504Y20778694D01*
X53081459Y20810769D01*
X53109355Y20842807D01*
X53137214Y20874834D01*
X53165015Y20906824D01*
X53192780Y20938802D01*
X53220486Y20970744D01*
X53248155Y21002674D01*
X53275766Y21034567D01*
X53303341Y21066449D01*
X53330857Y21098294D01*
X53358337Y21130127D01*
X53385760Y21161924D01*
X53413145Y21193709D01*
X53440473Y21225458D01*
X53467764Y21257196D01*
X53494998Y21288896D01*
X53522196Y21320586D01*
X53549336Y21352239D01*
X53576439Y21383880D01*
X53603485Y21415485D01*
X53630495Y21447078D01*
X53657448Y21478636D01*
X53684365Y21510181D01*
X53711224Y21541691D01*
X53738047Y21573189D01*
X53764813Y21604651D01*
X53791543Y21636101D01*
X53818217Y21667515D01*
X53844854Y21698918D01*
X53871434Y21730285D01*
X53897979Y21761640D01*
X53924467Y21792959D01*
X53950918Y21824267D01*
X53977314Y21855539D01*
X54003673Y21886799D01*
X54029976Y21918024D01*
X54056244Y21949237D01*
X54082455Y21980414D01*
X54108630Y22011580D01*
X54134749Y22042710D01*
X54160833Y22073829D01*
X54186860Y22104912D01*
X54212852Y22135984D01*
X54238788Y22167020D01*
X54264688Y22198044D01*
X54290532Y22229033D01*
X54316341Y22260011D01*
X54342095Y22290953D01*
X54367813Y22321884D01*
X54393475Y22352779D01*
X54419102Y22383663D01*
X54444674Y22414512D01*
X54470210Y22445349D01*
X54495691Y22476150D01*
X54521136Y22506941D01*
X54546527Y22537696D01*
X54571882Y22568440D01*
X54597182Y22599148D01*
X54622447Y22629846D01*
X54647657Y22660508D01*
X54672832Y22691159D01*
X54697952Y22721774D01*
X54723037Y22752379D01*
X54748067Y22782948D01*
X54773063Y22813506D01*
X54798004Y22844029D01*
X54822909Y22874541D01*
X54847761Y22905018D01*
X54872577Y22935483D01*
X54897339Y22965914D01*
X54922067Y22996333D01*
X54946740Y23026718D01*
X54971378Y23057091D01*
X54995962Y23087430D01*
X55020512Y23117757D01*
X55045007Y23148049D01*
X55069468Y23178331D01*
X55093875Y23208578D01*
X55118248Y23238813D01*
X55142566Y23269014D01*
X55166851Y23299204D01*
X55191081Y23329359D01*
X55215277Y23359503D01*
X55239420Y23389612D01*
X55263528Y23419711D01*
X55287583Y23449774D01*
X55311603Y23479827D01*
X55335570Y23509845D01*
X55359503Y23539853D01*
X55383382Y23569825D01*
X55407228Y23599787D01*
X55431020Y23629715D01*
X55454778Y23659631D01*
X55478483Y23689513D01*
X55502154Y23719384D01*
X55525773Y23749221D01*
X55549357Y23779047D01*
X55572888Y23808838D01*
X55596386Y23838619D01*
X55619831Y23868365D01*
X55643241Y23898101D01*
X55666600Y23927802D01*
X55689924Y23957492D01*
X55713197Y23987149D01*
X55736435Y24016794D01*
X55759621Y24046406D01*
X55782773Y24076006D01*
X55805874Y24105573D01*
X55828940Y24135128D01*
X55851955Y24164650D01*
X55874935Y24194161D01*
X55897864Y24223638D01*
X55920760Y24253104D01*
X55943603Y24282537D01*
X55966413Y24311958D01*
X55989172Y24341346D01*
X56011896Y24370723D01*
X56034570Y24400066D01*
X56057209Y24429399D01*
X56079798Y24458697D01*
X56102353Y24487985D01*
X56124857Y24517240D01*
X56147327Y24546483D01*
X56169746Y24575693D01*
X56192132Y24604893D01*
X56214467Y24634059D01*
X56236768Y24663214D01*
X56259019Y24692335D01*
X56281236Y24721446D01*
X56303403Y24750524D01*
X56325536Y24779590D01*
X56347619Y24808624D01*
X56369669Y24837647D01*
X56391668Y24866636D01*
X56413634Y24895615D01*
X56435549Y24924560D01*
X56457432Y24953495D01*
X56479264Y24982397D01*
X56501063Y25011288D01*
X56522812Y25040146D01*
X56544528Y25068993D01*
X56566194Y25097807D01*
X56587827Y25126611D01*
X56609411Y25155381D01*
X56630961Y25184141D01*
X56652462Y25212868D01*
X56673929Y25241585D01*
X56695347Y25270268D01*
X56716733Y25298941D01*
X56738068Y25327581D01*
X56759371Y25356211D01*
X56780625Y25384807D01*
X56801846Y25413393D01*
X56823017Y25441946D01*
X56844156Y25470489D01*
X56865246Y25498999D01*
X56886303Y25527499D01*
X56907311Y25555966D01*
X56928287Y25584422D01*
X56949213Y25612846D01*
X56970107Y25641259D01*
X56990952Y25669640D01*
X57011765Y25698010D01*
X57032529Y25726348D01*
X57053261Y25754675D01*
X57073944Y25782970D01*
X57094595Y25811254D01*
X57115197Y25839506D01*
X57135767Y25867748D01*
X57156288Y25895957D01*
X57176778Y25924156D01*
X57197219Y25952322D01*
X57217628Y25980479D01*
X57237988Y26008602D01*
X57258317Y26036716D01*
X57278597Y26064797D01*
X57298846Y26092868D01*
X57332890Y26140142D01*
X4391492Y37851419D02*
X4400082Y37811912D01*
X4408759Y37772378D01*
X4417525Y37732815D01*
X4426379Y37693224D01*
X4435321Y37653605D01*
X4444352Y37613958D01*
X4453471Y37574282D01*
X4462679Y37534577D01*
X4471976Y37494844D01*
X4481361Y37455082D01*
X4490836Y37415292D01*
X4500400Y37375472D01*
X4510053Y37335623D01*
X4519795Y37295746D01*
X4529627Y37255839D01*
X4539548Y37215903D01*
X4549560Y37175937D01*
X4559661Y37135942D01*
X4569852Y37095918D01*
X4580133Y37055864D01*
X4590505Y37015780D01*
X4600966Y36975666D01*
X4611519Y36935522D01*
X4622162Y36895349D01*
X4632895Y36855145D01*
X4643720Y36814911D01*
X4654635Y36774647D01*
X4665642Y36734352D01*
X4676740Y36694027D01*
X4687930Y36653671D01*
X4699211Y36613285D01*
X4710583Y36572868D01*
X4722048Y36532420D01*
X4733604Y36491941D01*
X4745252Y36451432D01*
X4756993Y36410891D01*
X4768826Y36370319D01*
X4780751Y36329715D01*
X4792769Y36289081D01*
X4804880Y36248414D01*
X4817084Y36207717D01*
X4829380Y36166987D01*
X4841770Y36126226D01*
X4854253Y36085433D01*
X4866830Y36044608D01*
X4879500Y36003752D01*
X4892264Y35962863D01*
X4905122Y35921942D01*
X4918074Y35880988D01*
X4931120Y35840003D01*
X4944260Y35798984D01*
X4957495Y35757934D01*
X4970824Y35716850D01*
X4984248Y35675734D01*
X4997767Y35634585D01*
X5011381Y35593404D01*
X5025090Y35552189D01*
X5038894Y35510941D01*
X5052794Y35469660D01*
X5066790Y35428346D01*
X5080881Y35386998D01*
X5095069Y35345617D01*
X5109352Y35304203D01*
X5123732Y35262755D01*
X5138208Y35221273D01*
X5152780Y35179757D01*
X5167449Y35138208D01*
X5182216Y35096624D01*
X5197079Y35055007D01*
X5212039Y35013355D01*
X5227096Y34971669D01*
X5242252Y34929949D01*
X5257504Y34888195D01*
X5272855Y34846406D01*
X5288303Y34804582D01*
X5303850Y34762724D01*
X5319494Y34720831D01*
X5335238Y34678903D01*
X5351080Y34636940D01*
X5367020Y34594942D01*
X5383060Y34552909D01*
X5399198Y34510841D01*
X5415436Y34468737D01*
X5431773Y34426599D01*
X5448210Y34384424D01*
X5464747Y34342214D01*
X5481383Y34299969D01*
X5498119Y34257688D01*
X5514956Y34215371D01*
X5531893Y34173018D01*
X5548931Y34130629D01*
X5566070Y34088204D01*
X5583309Y34045743D01*
X5600649Y34003246D01*
X5618091Y33960712D01*
X5635634Y33918142D01*
X5653279Y33875536D01*
X5671025Y33832893D01*
X5688874Y33790213D01*
X5706824Y33747496D01*
X5724877Y33704743D01*
X5743032Y33661953D01*
X5761290Y33619125D01*
X5779651Y33576261D01*
X5798114Y33533359D01*
X5816681Y33490420D01*
X5835351Y33447444D01*
X5854125Y33404430D01*
X5873002Y33361379D01*
X5891984Y33318290D01*
X5911069Y33275164D01*
X5930258Y33231999D01*
X5949552Y33188797D01*
X5968951Y33145557D01*
X5988454Y33102278D01*
X6008062Y33058962D01*
X6027776Y33015608D01*
X6047594Y32972215D01*
X6067519Y32928783D01*
X6087549Y32885314D01*
X6107684Y32841805D01*
X6127926Y32798258D01*
X6148274Y32754673D01*
X6168729Y32711048D01*
X6189290Y32667385D01*
X6209958Y32623683D01*
X6230733Y32579941D01*
X6251615Y32536161D01*
X6272604Y32492341D01*
X6293701Y32448482D01*
X6314906Y32404583D01*
X6336219Y32360645D01*
X6357640Y32316668D01*
X6379169Y32272651D01*
X6400806Y32228594D01*
X6422553Y32184497D01*
X6436132Y32157053D01*
D12*
%TO.C,J1*%
X31197727Y53573300D02*
G75*
G02*
X30447727Y53573300I-375000J0D01*
G01*
X30447727Y53573300D02*
G75*
G02*
X31197727Y53573300I375000J0D01*
G01*
X36997727Y53573300D02*
G75*
G02*
X36247727Y53573300I-375000J0D01*
G01*
X36247727Y53573300D02*
G75*
G02*
X36997727Y53573300I375000J0D01*
G01*
%TD*%
M02*
