%TF.GenerationSoftware,KiCad,Pcbnew,9.0.1*%
%TF.CreationDate,2025-05-13T22:03:03-04:00*%
%TF.ProjectId,mp3-project-v2,6d70332d-7072-46f6-9a65-63742d76322e,1.1*%
%TF.SameCoordinates,Original*%
%TF.FileFunction,Copper,L2,Inr*%
%TF.FilePolarity,Positive*%
%FSLAX46Y46*%
G04 Gerber Fmt 4.6, Leading zero omitted, Abs format (unit mm)*
G04 Created by KiCad (PCBNEW 9.0.1) date 2025-05-13 22:03:03*
%MOMM*%
%LPD*%
G01*
G04 APERTURE LIST*
G04 Aperture macros list*
%AMRoundRect*
0 Rectangle with rounded corners*
0 $1 Rounding radius*
0 $2 $3 $4 $5 $6 $7 $8 $9 X,Y pos of 4 corners*
0 Add a 4 corners polygon primitive as box body*
4,1,4,$2,$3,$4,$5,$6,$7,$8,$9,$2,$3,0*
0 Add four circle primitives for the rounded corners*
1,1,$1+$1,$2,$3*
1,1,$1+$1,$4,$5*
1,1,$1+$1,$6,$7*
1,1,$1+$1,$8,$9*
0 Add four rect primitives between the rounded corners*
20,1,$1+$1,$2,$3,$4,$5,0*
20,1,$1+$1,$4,$5,$6,$7,0*
20,1,$1+$1,$6,$7,$8,$9,0*
20,1,$1+$1,$8,$9,$2,$3,0*%
%AMRotRect*
0 Rectangle, with rotation*
0 The origin of the aperture is its center*
0 $1 length*
0 $2 width*
0 $3 Rotation angle, in degrees counterclockwise*
0 Add horizontal line*
21,1,$1,$2,0,0,$3*%
G04 Aperture macros list end*
%TA.AperFunction,ComponentPad*%
%ADD10R,1.700000X1.700000*%
%TD*%
%TA.AperFunction,ComponentPad*%
%ADD11C,1.700000*%
%TD*%
%TA.AperFunction,ComponentPad*%
%ADD12O,1.200000X2.000000*%
%TD*%
%TA.AperFunction,ComponentPad*%
%ADD13O,1.200000X1.800000*%
%TD*%
%TA.AperFunction,ComponentPad*%
%ADD14RoundRect,0.250000X0.000000X1.166726X-1.166726X0.000000X0.000000X-1.166726X1.166726X0.000000X0*%
%TD*%
%TA.AperFunction,ComponentPad*%
%ADD15RoundRect,0.250000X-0.825000X-0.825000X0.825000X-0.825000X0.825000X0.825000X-0.825000X0.825000X0*%
%TD*%
%TA.AperFunction,ComponentPad*%
%ADD16RoundRect,0.250000X-0.600000X-0.750000X0.600000X-0.750000X0.600000X0.750000X-0.600000X0.750000X0*%
%TD*%
%TA.AperFunction,ComponentPad*%
%ADD17O,1.700000X2.000000*%
%TD*%
%TA.AperFunction,ComponentPad*%
%ADD18C,5.000000*%
%TD*%
%TA.AperFunction,ComponentPad*%
%ADD19RotRect,1.700000X1.700000X45.000000*%
%TD*%
%TA.AperFunction,ViaPad*%
%ADD20C,0.609600*%
%TD*%
G04 APERTURE END LIST*
D10*
%TO.N,GND*%
%TO.C,J3*%
X26530200Y56394600D03*
D11*
%TO.N,/Project Architecture/MCU/SCK*%
X26530200Y53854600D03*
%TO.N,/Project Architecture/MCU/SWD*%
X26530200Y51314600D03*
%TD*%
D12*
%TO.N,GND*%
%TO.C,J1*%
X38052727Y53073300D03*
X29392727Y53073300D03*
D13*
X29392727Y57253300D03*
X38052727Y57253300D03*
%TD*%
D14*
%TO.N,/Project Architecture/POWER - GENERATION/VSYS_T*%
%TO.C,J5*%
X41541600Y17989800D03*
%TD*%
D15*
%TO.N,VSYS*%
%TO.C,J4*%
X59143800Y39529000D03*
%TD*%
D16*
%TO.N,/Project Architecture/SENSOR - BATTERY/BAT+*%
%TO.C,BT1*%
X32321400Y12394000D03*
D17*
%TO.N,GND*%
X34821400Y12394000D03*
%TD*%
D18*
%TO.N,GND*%
%TO.C,H2*%
X57722727Y32471199D03*
%TD*%
%TO.N,GND*%
%TO.C,H1*%
X9722727Y32471199D03*
%TD*%
D19*
%TO.N,/Project Architecture/OUTPUT - AUDIO/OUT-*%
%TO.C,LS1*%
X55410000Y54159400D03*
D11*
%TO.N,/Project Architecture/OUTPUT - AUDIO/OUT+*%
X57206051Y52363348D03*
%TD*%
D20*
%TO.N,/Project Architecture/SENSOR - BATTERY/BAT+*%
X29756000Y16542000D03*
X28419278Y17586923D03*
X31370000Y17516000D03*
X29756000Y17558000D03*
X31370000Y16500000D03*
X23660000Y15322800D03*
X31844000Y14530000D03*
X32860000Y14530000D03*
%TO.N,GND*%
X24930000Y42196000D03*
X37579200Y7931400D03*
X20205600Y15983200D03*
X55410000Y25940000D03*
X34937600Y45218600D03*
X40576400Y21850600D03*
X7150000Y50070000D03*
X38900000Y45244000D03*
X45783400Y15221200D03*
X34582000Y19844000D03*
X26911200Y26625800D03*
X25438000Y33306000D03*
X36310000Y48140000D03*
X13500000Y55658000D03*
X48069400Y19361400D03*
X40220000Y33870000D03*
X10198000Y48800000D03*
X20866000Y60230000D03*
X38646000Y14256000D03*
X25438000Y34068000D03*
X48520000Y40960000D03*
X29070200Y7804400D03*
X18580000Y34830000D03*
X29578200Y14230600D03*
X35016000Y26041600D03*
X39460000Y38150000D03*
X7658000Y43974000D03*
X29603600Y15297400D03*
X17818000Y49054000D03*
X43280000Y48600000D03*
X23660000Y29750000D03*
X47810000Y46140000D03*
X30111600Y42450000D03*
X50330000Y55150000D03*
X44996000Y54896000D03*
X8674000Y42958000D03*
X27470000Y14256000D03*
X33820000Y41510200D03*
X52870000Y43720000D03*
X13500000Y32290000D03*
X16040000Y22130000D03*
X41948000Y57690000D03*
X31062450Y40200450D03*
X36360000Y17812000D03*
X46977200Y57690000D03*
X41270000Y27890000D03*
X7658000Y46260000D03*
X14008000Y58452000D03*
X26022200Y10471400D03*
X50800000Y48270000D03*
X19596000Y47022000D03*
X38570000Y27870000D03*
X40424000Y48292000D03*
X32804000Y31528000D03*
X12738000Y49054000D03*
X10980000Y36610000D03*
X37400000Y41586400D03*
X44996000Y51594000D03*
X57950000Y47530000D03*
X41948000Y54896000D03*
X34836000Y31528000D03*
X34722727Y33814000D03*
X22872600Y15043400D03*
X4610000Y44990000D03*
X19850000Y23400000D03*
X33769200Y25432000D03*
X33722727Y32624722D03*
X15024000Y51340000D03*
X34582000Y21622000D03*
X29400000Y48040000D03*
X41338400Y25940000D03*
X14610000Y37760000D03*
X5880000Y37338101D03*
X26098400Y28124400D03*
X52870000Y57690000D03*
X52980000Y33410000D03*
X24930000Y23400000D03*
X29470000Y26700000D03*
X32804000Y33814000D03*
X38544400Y35465000D03*
X8928000Y54388000D03*
X32320000Y45260000D03*
X47095027Y20374183D03*
%TO.N,VSYS*%
X58712000Y43212000D03*
X41948000Y59976000D03*
X47850000Y60730000D03*
X49009200Y45625000D03*
X60744000Y44228000D03*
X62522000Y39656000D03*
X60744000Y41434000D03*
X45050000Y60690000D03*
X56680000Y44228000D03*
X62776000Y42450000D03*
%TO.N,+2V85*%
X31129112Y33966387D03*
X33870800Y34804600D03*
X36614000Y40062400D03*
X22059800Y51695600D03*
X31330800Y30359600D03*
X32931000Y30029400D03*
X22898000Y35846000D03*
X32194400Y22180800D03*
X24930000Y38894000D03*
X48552000Y34830000D03*
X36004400Y30410400D03*
X25946000Y40164000D03*
%TO.N,+3V3*%
X26987400Y30791400D03*
X14922400Y56826400D03*
%TO.N,+2V85A*%
X43954600Y46285400D03*
X43088389Y41891200D03*
%TO.N,+5V*%
X31630000Y55960000D03*
X49314000Y26194000D03*
X20866000Y56674000D03*
X35860000Y55980000D03*
X22390000Y56674000D03*
X50279200Y18802600D03*
X49314000Y24162000D03*
X48298000Y25178000D03*
X37452200Y50324000D03*
X23914000Y55404000D03*
X32524600Y54946800D03*
X47790000Y22638000D03*
X33720000Y56090000D03*
X29756000Y50908200D03*
X23914000Y56674000D03*
X22390000Y55404000D03*
X35013800Y54946800D03*
X50330000Y25178000D03*
%TO.N,/Project Architecture/MCU/RST*%
X21170800Y32493200D03*
X25209400Y44786800D03*
%TO.N,/Project Architecture/MCU/USB_N*%
X33439000Y53397400D03*
X34505800Y53372000D03*
%TO.N,/Project Architecture/MCU/DAT2*%
X9131200Y44151800D03*
X14135000Y44939200D03*
%TO.N,/Project Architecture/MCU/DAT3*%
X21551800Y38792400D03*
X21588250Y35476050D03*
%TO.N,/Project Architecture/MCU/DAT1*%
X19240400Y50679600D03*
X22898000Y37751000D03*
%TO.N,/Project Architecture/MCU/T_USB_N*%
X28587600Y42958000D03*
X28816200Y25714646D03*
%TO.N,/Project Architecture/MCU/T_USB_P*%
X28054200Y25714646D03*
X28206600Y42348400D03*
%TO.N,/Project Architecture/MCU/SCL*%
X22720200Y17939000D03*
X40461628Y30651228D03*
%TO.N,/Project Architecture/MCU/SDA*%
X39471500Y30194500D03*
X21424800Y17227800D03*
%TO.N,/Project Architecture/MCU/STAT2*%
X42913200Y31624722D03*
X45835200Y17457400D03*
%TO.N,/Project Architecture/MCU/STAT1*%
X42901501Y30728901D03*
X48679000Y22968200D03*
X44361000Y15399000D03*
X45554800Y33712400D03*
%TO.N,/Project Architecture/POWER - GENERATION/VBAT_LOAD*%
X45250000Y18320000D03*
X44234000Y17304000D03*
X26098400Y14103600D03*
X42740000Y15900000D03*
X26022200Y16872200D03*
X41313000Y14662400D03*
X24853800Y14103600D03*
X25057000Y16872200D03*
%TO.N,/Project Architecture/POWER - GENERATION/VSYS_T*%
X39408000Y16542000D03*
X40170000Y15780000D03*
X43726000Y19082000D03*
X42964000Y19844000D03*
X42202000Y20606000D03*
X38646000Y17304000D03*
%TD*%
%TA.AperFunction,Conductor*%
%TO.N,GND*%
G36*
X21503263Y61258045D02*
G01*
X21509126Y61257849D01*
X22304481Y61212472D01*
X22310404Y61211995D01*
X23102754Y61129154D01*
X23108576Y61128406D01*
X23896168Y61008282D01*
X23901982Y61007254D01*
X24683009Y60850121D01*
X24688763Y60848821D01*
X25354608Y60681836D01*
X25461464Y60655038D01*
X25467195Y60653457D01*
X26229543Y60423551D01*
X26229905Y60423442D01*
X26235551Y60421593D01*
X26986573Y60155859D01*
X26992110Y60153752D01*
X27247388Y60049633D01*
X27729743Y59852898D01*
X27735192Y59850524D01*
X28457835Y59515208D01*
X28463148Y59512589D01*
X29169176Y59143559D01*
X29174338Y59140704D01*
X29862182Y58738781D01*
X29867222Y58735675D01*
X30377061Y58404555D01*
X30535319Y58301773D01*
X30540225Y58298421D01*
X30911050Y58031903D01*
X31188108Y57832778D01*
X31190497Y57831017D01*
X31202684Y57821815D01*
X31221869Y57807328D01*
X31221871Y57807328D01*
X31232005Y57799676D01*
X31232006Y57799675D01*
X31232009Y57799673D01*
X31344621Y57714637D01*
X31454704Y57646481D01*
X31675092Y57510030D01*
X32023027Y57336789D01*
X32023031Y57336788D01*
X32023038Y57336784D01*
X32196434Y57269614D01*
X32385462Y57196388D01*
X32759305Y57090026D01*
X33141366Y57018610D01*
X33528387Y56982749D01*
X33528393Y56982749D01*
X33917061Y56982749D01*
X33917067Y56982749D01*
X34304088Y57018610D01*
X34686149Y57090026D01*
X35059992Y57196388D01*
X35275177Y57279748D01*
X35422415Y57336784D01*
X35422418Y57336786D01*
X35422427Y57336789D01*
X35770362Y57510030D01*
X35976107Y57637415D01*
X37198727Y57637415D01*
X37198727Y57507300D01*
X37652728Y57507300D01*
X37652728Y56999300D01*
X37198727Y56999300D01*
X37198727Y56869186D01*
X37231546Y56704197D01*
X37231547Y56704194D01*
X37295922Y56548780D01*
X37389381Y56408908D01*
X37389386Y56408902D01*
X37508328Y56289960D01*
X37508334Y56289955D01*
X37648205Y56196496D01*
X37798726Y56134148D01*
X37798727Y56134148D01*
X37798727Y56641616D01*
X37807122Y56633221D01*
X37898333Y56580560D01*
X38000066Y56553301D01*
X38105388Y56553301D01*
X38207121Y56580560D01*
X38298332Y56633221D01*
X38306727Y56641616D01*
X38306727Y56134148D01*
X38457248Y56196496D01*
X38597119Y56289955D01*
X38597125Y56289960D01*
X38716067Y56408902D01*
X38716072Y56408908D01*
X38809531Y56548780D01*
X38873906Y56704194D01*
X38873907Y56704197D01*
X38906726Y56869186D01*
X38906727Y56869190D01*
X38906727Y56999300D01*
X38452726Y56999300D01*
X38452726Y57507300D01*
X38906727Y57507300D01*
X38906727Y57637411D01*
X38906726Y57637415D01*
X38873907Y57802404D01*
X38873906Y57802407D01*
X38809531Y57957821D01*
X38716072Y58097693D01*
X38716067Y58097699D01*
X38597125Y58216641D01*
X38597119Y58216646D01*
X38457247Y58310105D01*
X38306727Y58372453D01*
X38306727Y57864984D01*
X38298332Y57873379D01*
X38207121Y57926040D01*
X38105388Y57953299D01*
X38000066Y57953299D01*
X37898333Y57926040D01*
X37807122Y57873379D01*
X37798727Y57864984D01*
X37798727Y58372453D01*
X37648206Y58310105D01*
X37508334Y58216646D01*
X37508328Y58216641D01*
X37389386Y58097699D01*
X37389381Y58097693D01*
X37295922Y57957821D01*
X37231547Y57802407D01*
X37231546Y57802404D01*
X37198727Y57637415D01*
X35976107Y57637415D01*
X36100829Y57714635D01*
X36212242Y57798766D01*
X36212248Y57798769D01*
X36223581Y57807328D01*
X36223585Y57807328D01*
X36254800Y57830900D01*
X36257035Y57832547D01*
X36905251Y58298431D01*
X36910114Y58301754D01*
X37578254Y58735683D01*
X37583248Y58738762D01*
X38271136Y59140711D01*
X38276261Y59143545D01*
X38982325Y59512593D01*
X38987584Y59515187D01*
X39710302Y59850540D01*
X39715672Y59852879D01*
X40453360Y60153754D01*
X40458865Y60155850D01*
X41209918Y60421595D01*
X41215535Y60423434D01*
X41328684Y60457558D01*
X41399677Y60458075D01*
X41459682Y60420129D01*
X41489646Y60355765D01*
X41480056Y60285419D01*
X41474183Y60273924D01*
X41426816Y60191882D01*
X41388700Y60049632D01*
X41388700Y59902369D01*
X41388699Y59902369D01*
X41426816Y59760118D01*
X41500446Y59632586D01*
X41500454Y59632576D01*
X41604575Y59528455D01*
X41604580Y59528451D01*
X41604582Y59528449D01*
X41604583Y59528448D01*
X41604585Y59528447D01*
X41654066Y59499879D01*
X41732118Y59454816D01*
X41874367Y59416700D01*
X41874369Y59416700D01*
X42021631Y59416700D01*
X42021633Y59416700D01*
X42163882Y59454816D01*
X42291418Y59528449D01*
X42395551Y59632582D01*
X42469184Y59760118D01*
X42507300Y59902367D01*
X42507300Y60049633D01*
X42469184Y60191882D01*
X42395551Y60319418D01*
X42395549Y60319420D01*
X42395545Y60319425D01*
X42291424Y60423546D01*
X42291414Y60423554D01*
X42188341Y60483063D01*
X42139348Y60534446D01*
X42125912Y60604159D01*
X42152298Y60670070D01*
X42210131Y60711252D01*
X42220666Y60714390D01*
X42756702Y60848821D01*
X42762438Y60850117D01*
X43543480Y61007252D01*
X43549279Y61008278D01*
X44336885Y61128404D01*
X44342702Y61129151D01*
X44432176Y61138505D01*
X44502007Y61125694D01*
X44553827Y61077164D01*
X44571183Y61008321D01*
X44554396Y60950188D01*
X44528816Y60905883D01*
X44490700Y60763632D01*
X44490700Y60616369D01*
X44490699Y60616369D01*
X44528816Y60474118D01*
X44602446Y60346586D01*
X44602454Y60346576D01*
X44706575Y60242455D01*
X44706580Y60242451D01*
X44706582Y60242449D01*
X44834118Y60168816D01*
X44976367Y60130700D01*
X44976369Y60130700D01*
X45123631Y60130700D01*
X45123633Y60130700D01*
X45265882Y60168816D01*
X45393418Y60242449D01*
X45497551Y60346582D01*
X45571184Y60474118D01*
X45609300Y60616367D01*
X45609300Y60763633D01*
X45571184Y60905882D01*
X45497551Y61033418D01*
X45497547Y61033422D01*
X45495944Y61035512D01*
X45495136Y61037601D01*
X45493422Y61040570D01*
X45493884Y61040838D01*
X45470340Y61101731D01*
X45484602Y61171280D01*
X45534201Y61222078D01*
X45588724Y61238015D01*
X45936331Y61257847D01*
X45942191Y61258043D01*
X46738840Y61265856D01*
X46744772Y61265775D01*
X47288293Y61245452D01*
X47355618Y61222919D01*
X47400073Y61167563D01*
X47407544Y61096961D01*
X47392704Y61056541D01*
X47364245Y61007247D01*
X47328816Y60945882D01*
X47303001Y60849538D01*
X47290700Y60803632D01*
X47290700Y60656369D01*
X47290699Y60656369D01*
X47328816Y60514118D01*
X47402446Y60386586D01*
X47402454Y60386576D01*
X47506575Y60282455D01*
X47506580Y60282451D01*
X47506582Y60282449D01*
X47506583Y60282448D01*
X47506585Y60282447D01*
X47529119Y60269437D01*
X47634118Y60208816D01*
X47776367Y60170700D01*
X47776369Y60170700D01*
X47923631Y60170700D01*
X47923633Y60170700D01*
X48065882Y60208816D01*
X48193418Y60282449D01*
X48297551Y60386582D01*
X48371184Y60514118D01*
X48409300Y60656367D01*
X48409300Y60803633D01*
X48371184Y60945882D01*
X48362426Y60961051D01*
X48345688Y61030043D01*
X48368907Y61097135D01*
X48424713Y61141024D01*
X48488096Y61148958D01*
X49136215Y61063079D01*
X49142034Y61062169D01*
X49926004Y60920383D01*
X49931806Y60919192D01*
X50232043Y60850126D01*
X50708163Y60740601D01*
X50713923Y60739132D01*
X50960311Y60670070D01*
X51481003Y60524121D01*
X51486662Y60522390D01*
X52242766Y60271433D01*
X52248311Y60269446D01*
X52819017Y60049632D01*
X52991729Y59983110D01*
X52997224Y59980843D01*
X53287757Y59852896D01*
X53640323Y59697630D01*
X53726282Y59659775D01*
X53731644Y59657262D01*
X54444802Y59302137D01*
X54450033Y59299376D01*
X55145616Y58911030D01*
X55150687Y58908040D01*
X55643914Y58601294D01*
X55827199Y58487306D01*
X55832171Y58484048D01*
X56084449Y58310134D01*
X56488065Y58031890D01*
X56492843Y58028428D01*
X57126709Y57545816D01*
X57131331Y57542121D01*
X57543532Y57196388D01*
X57741687Y57030186D01*
X57746150Y57026260D01*
X58331692Y56486098D01*
X58335965Y56481965D01*
X58895355Y55914812D01*
X58899429Y55910483D01*
X58932060Y55874118D01*
X59431493Y55317525D01*
X59435335Y55313034D01*
X59557952Y55162682D01*
X59938816Y54695670D01*
X59942463Y54690976D01*
X60416259Y54050564D01*
X60419681Y54045703D01*
X60862746Y53383655D01*
X60865935Y53378638D01*
X61277286Y52696422D01*
X61280234Y52691261D01*
X61658946Y51990414D01*
X61661644Y51985126D01*
X61735232Y51832097D01*
X62006887Y51267178D01*
X62009336Y51261762D01*
X62108023Y51029028D01*
X62304877Y50564782D01*
X62320325Y50528352D01*
X62322516Y50522825D01*
X62427994Y50237299D01*
X62561298Y49876447D01*
X62598569Y49775557D01*
X62600497Y49769934D01*
X62841003Y49010462D01*
X62842663Y49004754D01*
X63047070Y48234824D01*
X63048460Y48229045D01*
X63216337Y47450283D01*
X63217452Y47444444D01*
X63348410Y46658644D01*
X63349248Y46652759D01*
X63442993Y45861698D01*
X63443554Y45855780D01*
X63499889Y45061119D01*
X63500169Y45055181D01*
X63518971Y44258332D01*
X63518992Y44253487D01*
X63505449Y43342334D01*
X63505338Y43338590D01*
X63481776Y42810563D01*
X63458757Y42743402D01*
X63403082Y42699347D01*
X63332427Y42692386D01*
X63269226Y42724728D01*
X63246784Y42753177D01*
X63223551Y42793418D01*
X63223548Y42793421D01*
X63223545Y42793425D01*
X63119424Y42897546D01*
X63119414Y42897554D01*
X62991882Y42971184D01*
X62849633Y43009300D01*
X62702367Y43009300D01*
X62607534Y42983890D01*
X62560117Y42971184D01*
X62432585Y42897554D01*
X62432575Y42897546D01*
X62328454Y42793425D01*
X62328446Y42793415D01*
X62254816Y42665883D01*
X62216700Y42523632D01*
X62216700Y42376369D01*
X62216699Y42376369D01*
X62254816Y42234118D01*
X62328446Y42106586D01*
X62328454Y42106576D01*
X62432575Y42002455D01*
X62432580Y42002451D01*
X62432582Y42002449D01*
X62432583Y42002448D01*
X62432585Y42002447D01*
X62482066Y41973879D01*
X62560118Y41928816D01*
X62702367Y41890700D01*
X62702369Y41890700D01*
X62849631Y41890700D01*
X62849633Y41890700D01*
X62991882Y41928816D01*
X63119418Y42002449D01*
X63218376Y42101408D01*
X63280686Y42135431D01*
X63351502Y42130367D01*
X63408338Y42087820D01*
X63433149Y42021300D01*
X63433122Y42002956D01*
X63396781Y41514855D01*
X63396448Y41511124D01*
X63301755Y40604298D01*
X63301310Y40600579D01*
X63222262Y40013193D01*
X63193353Y39948349D01*
X63133976Y39909427D01*
X63062983Y39908786D01*
X63002912Y39946629D01*
X62988269Y39966998D01*
X62969553Y39999415D01*
X62969545Y39999425D01*
X62865424Y40103546D01*
X62865414Y40103554D01*
X62737882Y40177184D01*
X62595633Y40215300D01*
X62448367Y40215300D01*
X62353534Y40189890D01*
X62306117Y40177184D01*
X62178585Y40103554D01*
X62178575Y40103546D01*
X62074454Y39999425D01*
X62074446Y39999415D01*
X62000816Y39871883D01*
X61962700Y39729632D01*
X61962700Y39582369D01*
X61962699Y39582369D01*
X62000816Y39440118D01*
X62074446Y39312586D01*
X62074454Y39312576D01*
X62178575Y39208455D01*
X62178580Y39208451D01*
X62178582Y39208449D01*
X62306118Y39134816D01*
X62448367Y39096700D01*
X62448369Y39096700D01*
X62595631Y39096700D01*
X62595633Y39096700D01*
X62737882Y39134816D01*
X62865418Y39208449D01*
X62868112Y39211144D01*
X62870943Y39212690D01*
X62871970Y39213477D01*
X62872092Y39213318D01*
X62930421Y39245171D01*
X63001237Y39240110D01*
X63058075Y39197567D01*
X63082889Y39131048D01*
X63081531Y39101543D01*
X63030755Y38793757D01*
X63030090Y38790071D01*
X62854996Y37895223D01*
X62854446Y37892564D01*
X62840869Y37830324D01*
X62840516Y37828756D01*
X62738306Y37387323D01*
X62737655Y37384642D01*
X62625147Y36942968D01*
X62624446Y36940337D01*
X62499979Y36492409D01*
X62499234Y36489832D01*
X62363858Y36040000D01*
X62363069Y36037476D01*
X62215156Y35580930D01*
X62214328Y35578463D01*
X62055308Y35120147D01*
X62054444Y35117735D01*
X61882198Y34652090D01*
X61881301Y34649737D01*
X61697647Y34182196D01*
X61696718Y34179899D01*
X61499201Y33704731D01*
X61498246Y33702494D01*
X61289016Y33225359D01*
X61288036Y33223180D01*
X61064148Y32737856D01*
X61063145Y32735735D01*
X60827020Y32247969D01*
X60826203Y32246312D01*
X60682297Y31959828D01*
X60633846Y31907934D01*
X60565030Y31890473D01*
X60497698Y31912988D01*
X60453228Y31968331D01*
X60444496Y32030494D01*
X60476727Y32316537D01*
X60476727Y32625862D01*
X60442092Y32933242D01*
X60373260Y33234812D01*
X60373261Y33234812D01*
X60271106Y33526753D01*
X60271095Y33526780D01*
X60136888Y33805464D01*
X59972319Y34067372D01*
X59841788Y34231052D01*
X59018866Y33408130D01*
X58956554Y33374105D01*
X58885738Y33379170D01*
X58833957Y33415399D01*
X58831540Y33418229D01*
X58669756Y33580013D01*
X58666929Y33582427D01*
X58628114Y33641874D01*
X58627602Y33712869D01*
X58659656Y33767341D01*
X59482578Y34590262D01*
X59318899Y34720792D01*
X59056991Y34885361D01*
X58778307Y35019568D01*
X58778280Y35019579D01*
X58486339Y35121734D01*
X58184769Y35190565D01*
X57877389Y35225199D01*
X57568065Y35225199D01*
X57260684Y35190565D01*
X56959114Y35121734D01*
X56667173Y35019579D01*
X56667146Y35019568D01*
X56388462Y34885361D01*
X56126554Y34720792D01*
X55962874Y34590263D01*
X55962874Y34590262D01*
X56785796Y33767341D01*
X56819821Y33705028D01*
X56814757Y33634213D01*
X56778538Y33582439D01*
X56775698Y33580014D01*
X56613912Y33418228D01*
X56611487Y33415388D01*
X56552034Y33376583D01*
X56481039Y33376081D01*
X56426585Y33408130D01*
X55603664Y34231052D01*
X55603663Y34231052D01*
X55473134Y34067372D01*
X55308565Y33805464D01*
X55174358Y33526780D01*
X55174347Y33526753D01*
X55072192Y33234812D01*
X55003361Y32933242D01*
X54968727Y32625862D01*
X54968727Y32316537D01*
X55003361Y32009157D01*
X55072193Y31707587D01*
X55072192Y31707587D01*
X55174347Y31415646D01*
X55174358Y31415619D01*
X55308565Y31136935D01*
X55473134Y30875027D01*
X55603664Y30711348D01*
X56426585Y31534270D01*
X56488898Y31568295D01*
X56559713Y31563231D01*
X56611499Y31526997D01*
X56613913Y31524170D01*
X56775697Y31362386D01*
X56778527Y31359969D01*
X56817338Y31300520D01*
X56817848Y31229525D01*
X56785796Y31175060D01*
X55962874Y30352138D01*
X55962874Y30352137D01*
X56126554Y30221607D01*
X56388462Y30057038D01*
X56667146Y29922831D01*
X56667173Y29922820D01*
X56959114Y29820665D01*
X57260684Y29751834D01*
X57568065Y29717199D01*
X57877389Y29717199D01*
X58184769Y29751834D01*
X58486339Y29820665D01*
X58778280Y29922820D01*
X58778307Y29922831D01*
X59056991Y30057038D01*
X59318899Y30221607D01*
X59560735Y30414464D01*
X59571657Y30425386D01*
X59633968Y30459414D01*
X59704784Y30454351D01*
X59761621Y30411807D01*
X59786435Y30345287D01*
X59771346Y30275913D01*
X59769567Y30272763D01*
X59462197Y29746324D01*
X59461193Y29744635D01*
X59121607Y29183313D01*
X59120600Y29181677D01*
X58766963Y28616759D01*
X58765955Y28615176D01*
X58392386Y28037719D01*
X58391379Y28036186D01*
X58003300Y27455021D01*
X58002295Y27453539D01*
X57593134Y26859268D01*
X57592132Y26857834D01*
X57167656Y26259282D01*
X57166966Y26258318D01*
X56983571Y26004805D01*
X56982896Y26003881D01*
X56509804Y25362265D01*
X56508854Y25360993D01*
X56019346Y24714328D01*
X56018405Y24713102D01*
X55503056Y24049380D01*
X55502126Y24048196D01*
X54969352Y23378702D01*
X54968432Y23377560D01*
X54408448Y22690437D01*
X54407540Y22689336D01*
X53829556Y21996312D01*
X53828660Y21995249D01*
X53221990Y21283938D01*
X53221105Y21282912D01*
X52595846Y20565568D01*
X52594974Y20564578D01*
X51939636Y19828428D01*
X51938777Y19827472D01*
X51264000Y19084878D01*
X51263154Y19083956D01*
X51045619Y18849284D01*
X50984639Y18812924D01*
X50913683Y18815304D01*
X50855277Y18855667D01*
X50831508Y18902327D01*
X50800384Y19018482D01*
X50726751Y19146018D01*
X50726749Y19146020D01*
X50726745Y19146025D01*
X50622624Y19250146D01*
X50622614Y19250154D01*
X50495082Y19323784D01*
X50352833Y19361900D01*
X50205567Y19361900D01*
X50110734Y19336490D01*
X50063317Y19323784D01*
X49935785Y19250154D01*
X49935775Y19250146D01*
X49831654Y19146025D01*
X49831646Y19146015D01*
X49758016Y19018483D01*
X49719900Y18876232D01*
X49719900Y18728969D01*
X49719899Y18728969D01*
X49758016Y18586718D01*
X49831646Y18459186D01*
X49831654Y18459176D01*
X49935775Y18355055D01*
X49935780Y18355051D01*
X49935782Y18355049D01*
X50063318Y18281416D01*
X50205567Y18243300D01*
X50205575Y18243300D01*
X50207250Y18243079D01*
X50208566Y18242497D01*
X50213544Y18241163D01*
X50213336Y18240388D01*
X50272180Y18214361D01*
X50311275Y18155099D01*
X50312125Y18084108D01*
X50282385Y18031608D01*
X49829517Y17552452D01*
X49828969Y17551876D01*
X49567719Y17278933D01*
X49567179Y17278372D01*
X48783513Y16469688D01*
X48782726Y16468883D01*
X47977564Y15652745D01*
X47976790Y15651968D01*
X47134922Y14813348D01*
X47134163Y14812598D01*
X46269804Y13966037D01*
X46269059Y13965313D01*
X45365993Y13095313D01*
X45365261Y13094614D01*
X44438946Y12216445D01*
X44438229Y12215770D01*
X43471496Y11313529D01*
X43470792Y11312877D01*
X42480324Y10402497D01*
X42479325Y10401589D01*
X40455202Y8580747D01*
X40454236Y8579887D01*
X39344999Y7602466D01*
X39344354Y7601901D01*
X38208640Y6614805D01*
X38207749Y6614038D01*
X36243775Y4938981D01*
X36243752Y4938961D01*
X36234161Y4930786D01*
X36233588Y4930595D01*
X36205019Y4905942D01*
X36204598Y4905583D01*
X36204543Y4905559D01*
X36200595Y4902310D01*
X35926386Y4687336D01*
X35916719Y4680466D01*
X35626019Y4493835D01*
X35615748Y4487905D01*
X35308802Y4329438D01*
X35298020Y4324500D01*
X34977535Y4195594D01*
X34966336Y4191691D01*
X34635151Y4093487D01*
X34623635Y4090654D01*
X34284673Y4024021D01*
X34272942Y4022284D01*
X33929230Y3987815D01*
X33917387Y3987188D01*
X33571943Y3985187D01*
X33560094Y3985677D01*
X33216009Y4016161D01*
X33204258Y4017762D01*
X32864550Y4080464D01*
X32853002Y4083163D01*
X32520699Y4177524D01*
X32509455Y4181297D01*
X32187493Y4306484D01*
X32176655Y4311297D01*
X31867895Y4466196D01*
X31857557Y4472007D01*
X31564721Y4655253D01*
X31554974Y4662010D01*
X31530862Y4680466D01*
X31279163Y4873125D01*
X31273988Y4877309D01*
X31240865Y4905559D01*
X29238187Y6613625D01*
X29236990Y6614658D01*
X29236822Y6614805D01*
X27039670Y8536912D01*
X27038390Y8538047D01*
X24965882Y10401810D01*
X24965045Y10402569D01*
X24479781Y10846891D01*
X24479065Y10847553D01*
X24270702Y11041915D01*
X23357238Y11894000D01*
X22584575Y12614744D01*
X22583153Y12616091D01*
X22075265Y13104839D01*
X21984417Y13192263D01*
X31216900Y13192263D01*
X31216900Y11595754D01*
X31216902Y11595730D01*
X31223359Y11535661D01*
X31223359Y11535659D01*
X31274057Y11399734D01*
X31274058Y11399733D01*
X31360996Y11283596D01*
X31477133Y11196658D01*
X31613058Y11145960D01*
X31673145Y11139500D01*
X32969654Y11139501D01*
X33029742Y11145960D01*
X33165667Y11196658D01*
X33281804Y11283596D01*
X33368742Y11399733D01*
X33419440Y11535658D01*
X33425900Y11595745D01*
X33425899Y12648000D01*
X33720110Y12648000D01*
X34390697Y12648000D01*
X34355475Y12586993D01*
X34321400Y12459826D01*
X34321400Y12328174D01*
X34355475Y12201007D01*
X34390697Y12140000D01*
X33720110Y12140000D01*
X33744584Y11985477D01*
X33798283Y11820212D01*
X33798284Y11820210D01*
X33877176Y11665375D01*
X33979317Y11524790D01*
X34102189Y11401918D01*
X34242774Y11299777D01*
X34397609Y11220885D01*
X34397611Y11220884D01*
X34562878Y11167185D01*
X34562884Y11167183D01*
X34567400Y11166468D01*
X34567400Y11963298D01*
X34628407Y11928075D01*
X34755574Y11894000D01*
X34887226Y11894000D01*
X35014393Y11928075D01*
X35075400Y11963298D01*
X35075400Y11166468D01*
X35079915Y11167183D01*
X35079921Y11167185D01*
X35245188Y11220884D01*
X35245190Y11220885D01*
X35400025Y11299777D01*
X35540610Y11401918D01*
X35663482Y11524790D01*
X35765623Y11665375D01*
X35844515Y11820210D01*
X35844516Y11820212D01*
X35898215Y11985477D01*
X35922690Y12140000D01*
X35252103Y12140000D01*
X35287325Y12201007D01*
X35321400Y12328174D01*
X35321400Y12459826D01*
X35287325Y12586993D01*
X35252103Y12648000D01*
X35922689Y12648000D01*
X35898215Y12802524D01*
X35844516Y12967789D01*
X35844515Y12967791D01*
X35765623Y13122626D01*
X35663482Y13263211D01*
X35540610Y13386083D01*
X35400025Y13488224D01*
X35245190Y13567116D01*
X35245188Y13567117D01*
X35079924Y13620815D01*
X35079923Y13620816D01*
X35075400Y13621533D01*
X35075400Y12824703D01*
X35014393Y12859925D01*
X34887226Y12894000D01*
X34755574Y12894000D01*
X34628407Y12859925D01*
X34567400Y12824703D01*
X34567400Y13621533D01*
X34562876Y13620816D01*
X34562875Y13620815D01*
X34397611Y13567117D01*
X34397609Y13567116D01*
X34242774Y13488224D01*
X34102189Y13386083D01*
X33979317Y13263211D01*
X33877176Y13122626D01*
X33798284Y12967791D01*
X33798283Y12967789D01*
X33744584Y12802524D01*
X33720110Y12648000D01*
X33425899Y12648000D01*
X33425899Y13192254D01*
X33419440Y13252342D01*
X33368742Y13388267D01*
X33281804Y13504404D01*
X33165667Y13591342D01*
X33165665Y13591343D01*
X33165666Y13591343D01*
X33029749Y13642038D01*
X33029744Y13642040D01*
X33029742Y13642040D01*
X32996629Y13645600D01*
X32969656Y13648500D01*
X31673153Y13648500D01*
X31673129Y13648498D01*
X31613060Y13642041D01*
X31613058Y13642041D01*
X31477133Y13591343D01*
X31360996Y13504404D01*
X31274057Y13388266D01*
X31223362Y13252350D01*
X31223360Y13252342D01*
X31216900Y13192263D01*
X21984417Y13192263D01*
X21394264Y13760176D01*
X21113906Y14029969D01*
X24294499Y14029969D01*
X24332616Y13887718D01*
X24406246Y13760186D01*
X24406254Y13760176D01*
X24510375Y13656055D01*
X24510380Y13656051D01*
X24510382Y13656049D01*
X24510383Y13656048D01*
X24510385Y13656047D01*
X24534646Y13642040D01*
X24637918Y13582416D01*
X24780167Y13544300D01*
X24780169Y13544300D01*
X24927431Y13544300D01*
X24927433Y13544300D01*
X25069682Y13582416D01*
X25197218Y13656049D01*
X25301351Y13760182D01*
X25366981Y13873858D01*
X25418363Y13922850D01*
X25488077Y13936286D01*
X25553988Y13909900D01*
X25585219Y13873857D01*
X25650846Y13760186D01*
X25650854Y13760176D01*
X25754975Y13656055D01*
X25754980Y13656051D01*
X25754982Y13656049D01*
X25754983Y13656048D01*
X25754985Y13656047D01*
X25779246Y13642040D01*
X25882518Y13582416D01*
X26024767Y13544300D01*
X26024769Y13544300D01*
X26172031Y13544300D01*
X26172033Y13544300D01*
X26314282Y13582416D01*
X26441818Y13656049D01*
X26545951Y13760182D01*
X26619584Y13887718D01*
X26657700Y14029967D01*
X26657700Y14177233D01*
X26619584Y14319482D01*
X26545951Y14447018D01*
X26545949Y14447020D01*
X26545945Y14447025D01*
X26536601Y14456369D01*
X31284699Y14456369D01*
X31322816Y14314118D01*
X31396446Y14186586D01*
X31396454Y14186576D01*
X31500575Y14082455D01*
X31500580Y14082451D01*
X31500582Y14082449D01*
X31628118Y14008816D01*
X31770367Y13970700D01*
X31770369Y13970700D01*
X31917631Y13970700D01*
X31917633Y13970700D01*
X32059882Y14008816D01*
X32187418Y14082449D01*
X32208069Y14103100D01*
X32262905Y14157935D01*
X32325217Y14191961D01*
X32396032Y14186896D01*
X32441095Y14157935D01*
X32516575Y14082455D01*
X32516580Y14082451D01*
X32516582Y14082449D01*
X32644118Y14008816D01*
X32786367Y13970700D01*
X32786369Y13970700D01*
X32933631Y13970700D01*
X32933633Y13970700D01*
X33075882Y14008816D01*
X33203418Y14082449D01*
X33307551Y14186582D01*
X33381184Y14314118D01*
X33419300Y14456367D01*
X33419300Y14588769D01*
X40753699Y14588769D01*
X40791816Y14446518D01*
X40865446Y14318986D01*
X40865454Y14318976D01*
X40969575Y14214855D01*
X40969580Y14214851D01*
X40969582Y14214849D01*
X41097118Y14141216D01*
X41239367Y14103100D01*
X41239369Y14103100D01*
X41386631Y14103100D01*
X41386633Y14103100D01*
X41528882Y14141216D01*
X41656418Y14214849D01*
X41760551Y14318982D01*
X41834184Y14446518D01*
X41872300Y14588767D01*
X41872300Y14736033D01*
X41834184Y14878282D01*
X41760551Y15005818D01*
X41760549Y15005820D01*
X41760545Y15005825D01*
X41656424Y15109946D01*
X41656414Y15109954D01*
X41528882Y15183584D01*
X41386633Y15221700D01*
X41239367Y15221700D01*
X41144534Y15196290D01*
X41097117Y15183584D01*
X40969585Y15109954D01*
X40969575Y15109946D01*
X40865454Y15005825D01*
X40865446Y15005815D01*
X40791816Y14878283D01*
X40789071Y14868039D01*
X40756340Y14745883D01*
X40753700Y14736032D01*
X40753700Y14588769D01*
X40753699Y14588769D01*
X33419300Y14588769D01*
X33419300Y14603633D01*
X33381184Y14745882D01*
X33349006Y14801616D01*
X33307553Y14873415D01*
X33307545Y14873425D01*
X33203424Y14977546D01*
X33203414Y14977554D01*
X33075882Y15051184D01*
X33059491Y15055576D01*
X32933633Y15089300D01*
X32786367Y15089300D01*
X32691534Y15063890D01*
X32644117Y15051184D01*
X32516585Y14977554D01*
X32516575Y14977546D01*
X32441095Y14902065D01*
X32378783Y14868039D01*
X32307968Y14873104D01*
X32262905Y14902065D01*
X32187424Y14977546D01*
X32187414Y14977554D01*
X32059882Y15051184D01*
X32043491Y15055576D01*
X31917633Y15089300D01*
X31770367Y15089300D01*
X31675534Y15063890D01*
X31628117Y15051184D01*
X31500585Y14977554D01*
X31500575Y14977546D01*
X31396454Y14873425D01*
X31396446Y14873415D01*
X31322816Y14745883D01*
X31313652Y14711681D01*
X31290368Y14624784D01*
X31284700Y14603632D01*
X31284700Y14456369D01*
X31284699Y14456369D01*
X26536601Y14456369D01*
X26441824Y14551146D01*
X26441814Y14551154D01*
X26314282Y14624784D01*
X26172033Y14662900D01*
X26024767Y14662900D01*
X25929934Y14637490D01*
X25882517Y14624784D01*
X25754985Y14551154D01*
X25754975Y14551146D01*
X25650854Y14447025D01*
X25650846Y14447015D01*
X25585219Y14333344D01*
X25533836Y14284351D01*
X25464123Y14270915D01*
X25398212Y14297301D01*
X25366981Y14333344D01*
X25301353Y14447015D01*
X25301345Y14447025D01*
X25197224Y14551146D01*
X25197214Y14551154D01*
X25069682Y14624784D01*
X24927433Y14662900D01*
X24780167Y14662900D01*
X24685334Y14637490D01*
X24637917Y14624784D01*
X24510385Y14551154D01*
X24510375Y14551146D01*
X24406254Y14447025D01*
X24406246Y14447015D01*
X24332616Y14319483D01*
X24319602Y14270915D01*
X24297004Y14186576D01*
X24294500Y14177232D01*
X24294500Y14029969D01*
X24294499Y14029969D01*
X21113906Y14029969D01*
X20818629Y14314118D01*
X20812291Y14320217D01*
X20810815Y14321661D01*
X19878065Y15249169D01*
X23100699Y15249169D01*
X23138816Y15106918D01*
X23212446Y14979386D01*
X23212454Y14979376D01*
X23316575Y14875255D01*
X23316580Y14875251D01*
X23316582Y14875249D01*
X23316583Y14875248D01*
X23316585Y14875247D01*
X23320297Y14873104D01*
X23444118Y14801616D01*
X23586367Y14763500D01*
X23586369Y14763500D01*
X23733631Y14763500D01*
X23733633Y14763500D01*
X23875882Y14801616D01*
X24003418Y14875249D01*
X24107551Y14979382D01*
X24181184Y15106918D01*
X24219300Y15249167D01*
X24219300Y15396433D01*
X24181184Y15538682D01*
X24107551Y15666218D01*
X24107549Y15666220D01*
X24107545Y15666225D01*
X24003424Y15770346D01*
X24003414Y15770354D01*
X23875882Y15843984D01*
X23733633Y15882100D01*
X23586367Y15882100D01*
X23491574Y15856700D01*
X23444117Y15843984D01*
X23316585Y15770354D01*
X23316575Y15770346D01*
X23212454Y15666225D01*
X23212446Y15666215D01*
X23138816Y15538683D01*
X23138816Y15538682D01*
X23111457Y15436576D01*
X23100700Y15396432D01*
X23100700Y15249169D01*
X23100699Y15249169D01*
X19878065Y15249169D01*
X19811514Y15315346D01*
X19157984Y15965203D01*
X19156454Y15966751D01*
X18002875Y17154169D01*
X20865499Y17154169D01*
X20903616Y17011918D01*
X20977246Y16884386D01*
X20977254Y16884376D01*
X21081375Y16780255D01*
X21081380Y16780251D01*
X21081382Y16780249D01*
X21208918Y16706616D01*
X21351167Y16668500D01*
X21351169Y16668500D01*
X21498431Y16668500D01*
X21498433Y16668500D01*
X21640682Y16706616D01*
X21768218Y16780249D01*
X21786538Y16798569D01*
X24497699Y16798569D01*
X24535816Y16656318D01*
X24609446Y16528786D01*
X24609454Y16528776D01*
X24713575Y16424655D01*
X24713580Y16424651D01*
X24713582Y16424649D01*
X24713583Y16424648D01*
X24713585Y16424647D01*
X24733831Y16412958D01*
X24841118Y16351016D01*
X24983367Y16312900D01*
X24983369Y16312900D01*
X25130631Y16312900D01*
X25130633Y16312900D01*
X25272882Y16351016D01*
X25400418Y16424649D01*
X25408003Y16432234D01*
X25450505Y16474735D01*
X25512817Y16508761D01*
X25583632Y16503696D01*
X25628695Y16474735D01*
X25678775Y16424655D01*
X25678780Y16424651D01*
X25678782Y16424649D01*
X25678783Y16424648D01*
X25678785Y16424647D01*
X25699031Y16412958D01*
X25806318Y16351016D01*
X25948567Y16312900D01*
X25948569Y16312900D01*
X26095831Y16312900D01*
X26095833Y16312900D01*
X26238082Y16351016D01*
X26365618Y16424649D01*
X26469751Y16528782D01*
X26543384Y16656318D01*
X26581500Y16798567D01*
X26581500Y16945833D01*
X26543384Y17088082D01*
X26469751Y17215618D01*
X26469749Y17215620D01*
X26469745Y17215625D01*
X26365624Y17319746D01*
X26365614Y17319754D01*
X26238082Y17393384D01*
X26095833Y17431500D01*
X25948567Y17431500D01*
X25853734Y17406090D01*
X25806317Y17393384D01*
X25678785Y17319754D01*
X25678775Y17319746D01*
X25628695Y17269665D01*
X25566383Y17235639D01*
X25495568Y17240704D01*
X25450505Y17269665D01*
X25400424Y17319746D01*
X25400414Y17319754D01*
X25272882Y17393384D01*
X25130633Y17431500D01*
X24983367Y17431500D01*
X24888534Y17406090D01*
X24841117Y17393384D01*
X24713585Y17319754D01*
X24713575Y17319746D01*
X24609454Y17215625D01*
X24609446Y17215615D01*
X24535816Y17088083D01*
X24526156Y17052032D01*
X24498161Y16947551D01*
X24497700Y16945832D01*
X24497700Y16798569D01*
X24497699Y16798569D01*
X21786538Y16798569D01*
X21872351Y16884382D01*
X21945984Y17011918D01*
X21984100Y17154167D01*
X21984100Y17301433D01*
X21945984Y17443682D01*
X21883518Y17551876D01*
X21872353Y17571215D01*
X21872345Y17571225D01*
X21768224Y17675346D01*
X21768214Y17675354D01*
X21640682Y17748984D01*
X21498433Y17787100D01*
X21351167Y17787100D01*
X21256334Y17761690D01*
X21208917Y17748984D01*
X21081385Y17675354D01*
X21081375Y17675346D01*
X20977254Y17571225D01*
X20977246Y17571215D01*
X20903616Y17443683D01*
X20887562Y17383769D01*
X20870409Y17319751D01*
X20865500Y17301432D01*
X20865500Y17154169D01*
X20865499Y17154169D01*
X18002875Y17154169D01*
X17937080Y17221894D01*
X17722888Y17442369D01*
X17616059Y17552332D01*
X17615040Y17553393D01*
X17575025Y17595576D01*
X17319099Y17865369D01*
X22160899Y17865369D01*
X22199016Y17723118D01*
X22272646Y17595586D01*
X22272654Y17595576D01*
X22376775Y17491455D01*
X22376780Y17491451D01*
X22376782Y17491449D01*
X22376783Y17491448D01*
X22376785Y17491447D01*
X22389045Y17484369D01*
X22504318Y17417816D01*
X22646567Y17379700D01*
X22646569Y17379700D01*
X22793831Y17379700D01*
X22793833Y17379700D01*
X22936082Y17417816D01*
X23063618Y17491449D01*
X23085461Y17513292D01*
X27859977Y17513292D01*
X27898094Y17371041D01*
X27971724Y17243509D01*
X27971732Y17243499D01*
X28075853Y17139378D01*
X28075858Y17139374D01*
X28075860Y17139372D01*
X28075861Y17139371D01*
X28075863Y17139370D01*
X28107158Y17121302D01*
X28203396Y17065739D01*
X28345645Y17027623D01*
X28345647Y17027623D01*
X28492909Y17027623D01*
X28492911Y17027623D01*
X28635160Y17065739D01*
X28762696Y17139372D01*
X28866829Y17243505D01*
X28940462Y17371041D01*
X28962058Y17451638D01*
X28999009Y17512259D01*
X29062869Y17543280D01*
X29133364Y17534852D01*
X29188111Y17489649D01*
X29205469Y17451640D01*
X29214533Y17417816D01*
X29234816Y17342118D01*
X29308446Y17214586D01*
X29308454Y17214576D01*
X29383935Y17139095D01*
X29417961Y17076783D01*
X29412896Y17005968D01*
X29383935Y16960905D01*
X29308454Y16885425D01*
X29308446Y16885415D01*
X29234816Y16757883D01*
X29196700Y16615632D01*
X29196700Y16468369D01*
X29196699Y16468369D01*
X29234816Y16326118D01*
X29308446Y16198586D01*
X29308454Y16198576D01*
X29412575Y16094455D01*
X29412580Y16094451D01*
X29412582Y16094449D01*
X29540118Y16020816D01*
X29682367Y15982700D01*
X29682369Y15982700D01*
X29829631Y15982700D01*
X29829633Y15982700D01*
X29971882Y16020816D01*
X30099418Y16094449D01*
X30203551Y16198582D01*
X30277184Y16326118D01*
X30315300Y16468367D01*
X30315300Y16615633D01*
X30277184Y16757882D01*
X30232121Y16835934D01*
X30203553Y16885415D01*
X30203545Y16885425D01*
X30128065Y16960905D01*
X30094039Y17023217D01*
X30099104Y17094032D01*
X30128065Y17139095D01*
X30203545Y17214576D01*
X30203551Y17214582D01*
X30277184Y17342118D01*
X30304047Y17442369D01*
X30810699Y17442369D01*
X30848816Y17300118D01*
X30922446Y17172586D01*
X30922454Y17172576D01*
X30997935Y17097095D01*
X31031961Y17034783D01*
X31026896Y16963968D01*
X30997935Y16918905D01*
X30922454Y16843425D01*
X30922446Y16843415D01*
X30848816Y16715883D01*
X30810700Y16573632D01*
X30810700Y16426369D01*
X30810699Y16426369D01*
X30848816Y16284118D01*
X30922446Y16156586D01*
X30922454Y16156576D01*
X31026575Y16052455D01*
X31026580Y16052451D01*
X31026582Y16052449D01*
X31154118Y15978816D01*
X31296367Y15940700D01*
X31296369Y15940700D01*
X31443631Y15940700D01*
X31443633Y15940700D01*
X31585882Y15978816D01*
X31713418Y16052449D01*
X31817551Y16156582D01*
X31891184Y16284118D01*
X31929300Y16426367D01*
X31929300Y16573633D01*
X31891184Y16715882D01*
X31843445Y16798569D01*
X31817553Y16843415D01*
X31817545Y16843425D01*
X31742065Y16918905D01*
X31708039Y16981217D01*
X31713104Y17052032D01*
X31742065Y17097095D01*
X31817545Y17172576D01*
X31817551Y17172582D01*
X31850914Y17230369D01*
X38086699Y17230369D01*
X38124816Y17088118D01*
X38198446Y16960586D01*
X38198454Y16960576D01*
X38302575Y16856455D01*
X38302580Y16856451D01*
X38302582Y16856449D01*
X38302583Y16856448D01*
X38302585Y16856447D01*
X38352066Y16827879D01*
X38430118Y16782816D01*
X38572367Y16744700D01*
X38572369Y16744700D01*
X38722700Y16744700D01*
X38790821Y16724698D01*
X38837314Y16671042D01*
X38848700Y16618700D01*
X38848700Y16468369D01*
X38848699Y16468369D01*
X38886816Y16326118D01*
X38960446Y16198586D01*
X38960454Y16198576D01*
X39064575Y16094455D01*
X39064580Y16094451D01*
X39064582Y16094449D01*
X39192118Y16020816D01*
X39334367Y15982700D01*
X39334369Y15982700D01*
X39484700Y15982700D01*
X39552821Y15962698D01*
X39599314Y15909042D01*
X39610700Y15856700D01*
X39610700Y15706369D01*
X39610699Y15706369D01*
X39648816Y15564118D01*
X39722446Y15436586D01*
X39722454Y15436576D01*
X39826575Y15332455D01*
X39826580Y15332451D01*
X39826582Y15332449D01*
X39954118Y15258816D01*
X40096367Y15220700D01*
X40096369Y15220700D01*
X40243631Y15220700D01*
X40243633Y15220700D01*
X40385882Y15258816D01*
X40501155Y15325369D01*
X43801699Y15325369D01*
X43839816Y15183118D01*
X43913446Y15055586D01*
X43913454Y15055576D01*
X44017575Y14951455D01*
X44017580Y14951451D01*
X44017582Y14951449D01*
X44145118Y14877816D01*
X44287367Y14839700D01*
X44287369Y14839700D01*
X44434631Y14839700D01*
X44434633Y14839700D01*
X44576882Y14877816D01*
X44704418Y14951449D01*
X44808551Y15055582D01*
X44882184Y15183118D01*
X44920300Y15325367D01*
X44920300Y15472633D01*
X44882184Y15614882D01*
X44808551Y15742418D01*
X44808549Y15742420D01*
X44808545Y15742425D01*
X44704424Y15846546D01*
X44704414Y15846554D01*
X44576882Y15920184D01*
X44434633Y15958300D01*
X44287367Y15958300D01*
X44221684Y15940700D01*
X44145117Y15920184D01*
X44017585Y15846554D01*
X44017575Y15846546D01*
X43913454Y15742425D01*
X43913446Y15742415D01*
X43839816Y15614883D01*
X43801700Y15472632D01*
X43801700Y15325369D01*
X43801699Y15325369D01*
X40501155Y15325369D01*
X40513418Y15332449D01*
X40617551Y15436582D01*
X40691184Y15564118D01*
X40729300Y15706367D01*
X40729300Y15826369D01*
X42180699Y15826369D01*
X42218816Y15684118D01*
X42292446Y15556586D01*
X42292454Y15556576D01*
X42396575Y15452455D01*
X42396580Y15452451D01*
X42396582Y15452449D01*
X42396583Y15452448D01*
X42396585Y15452447D01*
X42424064Y15436582D01*
X42524118Y15378816D01*
X42666367Y15340700D01*
X42666369Y15340700D01*
X42813631Y15340700D01*
X42813633Y15340700D01*
X42955882Y15378816D01*
X43083418Y15452449D01*
X43187551Y15556582D01*
X43261184Y15684118D01*
X43299300Y15826367D01*
X43299300Y15973633D01*
X43261184Y16115882D01*
X43187551Y16243418D01*
X43187549Y16243420D01*
X43187545Y16243425D01*
X43083424Y16347546D01*
X43083414Y16347554D01*
X42955882Y16421184D01*
X42942958Y16424647D01*
X42813633Y16459300D01*
X42666367Y16459300D01*
X42571534Y16433890D01*
X42524117Y16421184D01*
X42396585Y16347554D01*
X42396575Y16347546D01*
X42292454Y16243425D01*
X42292446Y16243415D01*
X42218816Y16115883D01*
X42180700Y15973632D01*
X42180700Y15826369D01*
X42180699Y15826369D01*
X40729300Y15826369D01*
X40729300Y15853633D01*
X40703671Y15949281D01*
X40703671Y15949284D01*
X40691185Y15995880D01*
X40617553Y16123415D01*
X40617545Y16123425D01*
X40513424Y16227546D01*
X40513414Y16227554D01*
X40385882Y16301184D01*
X40243633Y16339300D01*
X40096367Y16339300D01*
X40093300Y16339300D01*
X40025179Y16359302D01*
X39978686Y16412958D01*
X39967300Y16465300D01*
X39967300Y16615632D01*
X39952453Y16671042D01*
X39929184Y16757882D01*
X39884121Y16835934D01*
X39855553Y16885415D01*
X39855545Y16885425D01*
X39751424Y16989546D01*
X39751414Y16989554D01*
X39623882Y17063184D01*
X39604233Y17068449D01*
X39481633Y17101300D01*
X39334367Y17101300D01*
X39331300Y17101300D01*
X39263179Y17121302D01*
X39216686Y17174958D01*
X39205300Y17227300D01*
X39205300Y17377632D01*
X39201079Y17393384D01*
X39167184Y17519882D01*
X39102665Y17631632D01*
X39093553Y17647415D01*
X39093545Y17647425D01*
X38989424Y17751546D01*
X38989414Y17751554D01*
X38861882Y17825184D01*
X38719633Y17863300D01*
X38572367Y17863300D01*
X38508565Y17846204D01*
X38430117Y17825184D01*
X38302585Y17751554D01*
X38302575Y17751546D01*
X38198454Y17647425D01*
X38198446Y17647415D01*
X38124816Y17519883D01*
X38122773Y17512259D01*
X38097468Y17417817D01*
X38086700Y17377632D01*
X38086700Y17230369D01*
X38086699Y17230369D01*
X31850914Y17230369D01*
X31891184Y17300118D01*
X31929300Y17442367D01*
X31929300Y17589633D01*
X31891184Y17731882D01*
X31817551Y17859418D01*
X31817549Y17859420D01*
X31817545Y17859425D01*
X31713424Y17963546D01*
X31713414Y17963554D01*
X31667954Y17989800D01*
X39865186Y17989800D01*
X39885832Y17846204D01*
X39946097Y17714242D01*
X39946098Y17714241D01*
X39946099Y17714239D01*
X39984010Y17667194D01*
X39984031Y17667171D01*
X41218969Y16432234D01*
X41218983Y16432221D01*
X41218986Y16432218D01*
X41266042Y16394297D01*
X41398004Y16334032D01*
X41541600Y16313386D01*
X41685196Y16334032D01*
X41817158Y16394297D01*
X41864214Y16432217D01*
X42466780Y17034783D01*
X42662366Y17230369D01*
X43674699Y17230369D01*
X43712816Y17088118D01*
X43786446Y16960586D01*
X43786454Y16960576D01*
X43890575Y16856455D01*
X43890580Y16856451D01*
X43890582Y16856449D01*
X43890583Y16856448D01*
X43890585Y16856447D01*
X43940066Y16827879D01*
X44018118Y16782816D01*
X44160367Y16744700D01*
X44160369Y16744700D01*
X44307631Y16744700D01*
X44307633Y16744700D01*
X44449882Y16782816D01*
X44577418Y16856449D01*
X44681551Y16960582D01*
X44755184Y17088118D01*
X44793300Y17230367D01*
X44793300Y17377633D01*
X44755184Y17519882D01*
X44690665Y17631632D01*
X44681553Y17647415D01*
X44681545Y17647425D01*
X44577424Y17751546D01*
X44577414Y17751554D01*
X44449882Y17825184D01*
X44307633Y17863300D01*
X44160367Y17863300D01*
X44096565Y17846204D01*
X44018117Y17825184D01*
X43890585Y17751554D01*
X43890575Y17751546D01*
X43786454Y17647425D01*
X43786446Y17647415D01*
X43712816Y17519883D01*
X43710773Y17512259D01*
X43685468Y17417817D01*
X43674700Y17377632D01*
X43674700Y17230369D01*
X43674699Y17230369D01*
X42662366Y17230369D01*
X42906984Y17474987D01*
X43099166Y17667170D01*
X43099167Y17667171D01*
X43099182Y17667186D01*
X43137103Y17714242D01*
X43197368Y17846204D01*
X43218014Y17989800D01*
X43197368Y18133396D01*
X43145775Y18246369D01*
X44690699Y18246369D01*
X44728816Y18104118D01*
X44802446Y17976586D01*
X44802454Y17976576D01*
X44906575Y17872455D01*
X44906580Y17872451D01*
X44906582Y17872449D01*
X44906583Y17872448D01*
X44906585Y17872447D01*
X44952040Y17846204D01*
X45034118Y17798816D01*
X45176367Y17760700D01*
X45176368Y17760700D01*
X45184556Y17759622D01*
X45184271Y17757459D01*
X45241354Y17740698D01*
X45287847Y17687042D01*
X45297951Y17616768D01*
X45294941Y17602095D01*
X45275900Y17531033D01*
X45275900Y17531032D01*
X45275900Y17383769D01*
X45275899Y17383769D01*
X45314016Y17241518D01*
X45387646Y17113986D01*
X45387654Y17113976D01*
X45491775Y17009855D01*
X45491780Y17009851D01*
X45491782Y17009849D01*
X45491783Y17009848D01*
X45491785Y17009847D01*
X45526934Y16989554D01*
X45619318Y16936216D01*
X45761567Y16898100D01*
X45761569Y16898100D01*
X45908831Y16898100D01*
X45908833Y16898100D01*
X46051082Y16936216D01*
X46178618Y17009849D01*
X46282751Y17113982D01*
X46356384Y17241518D01*
X46394500Y17383767D01*
X46394500Y17531033D01*
X46356384Y17673282D01*
X46283907Y17798816D01*
X46282753Y17800815D01*
X46282745Y17800825D01*
X46178624Y17904946D01*
X46178614Y17904954D01*
X46051082Y17978584D01*
X45908831Y18016701D01*
X45900644Y18017778D01*
X45900928Y18019942D01*
X45843846Y18036702D01*
X45797353Y18090358D01*
X45787249Y18160632D01*
X45790260Y18175311D01*
X45809300Y18246367D01*
X45809300Y18393633D01*
X45771184Y18535882D01*
X45726121Y18613934D01*
X45697553Y18663415D01*
X45697545Y18663425D01*
X45593424Y18767546D01*
X45593414Y18767554D01*
X45465882Y18841184D01*
X45323633Y18879300D01*
X45176367Y18879300D01*
X45088169Y18855667D01*
X45034117Y18841184D01*
X44906585Y18767554D01*
X44906575Y18767546D01*
X44802454Y18663425D01*
X44802446Y18663415D01*
X44728816Y18535883D01*
X44690700Y18393632D01*
X44690700Y18246369D01*
X44690699Y18246369D01*
X43145775Y18246369D01*
X43137103Y18265358D01*
X43099183Y18312414D01*
X43099178Y18312419D01*
X43099168Y18312430D01*
X41864230Y19547367D01*
X41864215Y19547381D01*
X41817158Y19585303D01*
X41778004Y19603184D01*
X41685196Y19645568D01*
X41541600Y19666214D01*
X41398003Y19645568D01*
X41266038Y19585301D01*
X41218993Y19547390D01*
X41218970Y19547369D01*
X39984033Y18312431D01*
X39984019Y18312416D01*
X39946097Y18265359D01*
X39891690Y18146223D01*
X39885832Y18133396D01*
X39865186Y17989800D01*
X31667954Y17989800D01*
X31585882Y18037184D01*
X31443633Y18075300D01*
X31296367Y18075300D01*
X31201534Y18049890D01*
X31154117Y18037184D01*
X31026585Y17963554D01*
X31026575Y17963546D01*
X30922454Y17859425D01*
X30922446Y17859415D01*
X30848816Y17731883D01*
X30831476Y17667170D01*
X30812293Y17595576D01*
X30810700Y17589632D01*
X30810700Y17442369D01*
X30810699Y17442369D01*
X30304047Y17442369D01*
X30315300Y17484367D01*
X30315300Y17631633D01*
X30277184Y17773882D01*
X30232121Y17851934D01*
X30203553Y17901415D01*
X30203545Y17901425D01*
X30099424Y18005546D01*
X30099414Y18005554D01*
X29971882Y18079184D01*
X29829633Y18117300D01*
X29682367Y18117300D01*
X29587534Y18091890D01*
X29540117Y18079184D01*
X29412585Y18005554D01*
X29412575Y18005546D01*
X29308454Y17901425D01*
X29308446Y17901415D01*
X29234815Y17773881D01*
X29213219Y17693286D01*
X29176267Y17632664D01*
X29112406Y17601643D01*
X29041912Y17610073D01*
X28987165Y17655276D01*
X28969809Y17693281D01*
X28940462Y17802805D01*
X28895399Y17880857D01*
X28866831Y17930338D01*
X28866823Y17930348D01*
X28762702Y18034469D01*
X28762692Y18034477D01*
X28635160Y18108107D01*
X28492911Y18146223D01*
X28345645Y18146223D01*
X28250812Y18120813D01*
X28203395Y18108107D01*
X28075863Y18034477D01*
X28075853Y18034469D01*
X27971732Y17930348D01*
X27971724Y17930338D01*
X27898094Y17802806D01*
X27883112Y17746893D01*
X27861755Y17667185D01*
X27859978Y17660555D01*
X27859978Y17513292D01*
X27859977Y17513292D01*
X23085461Y17513292D01*
X23167751Y17595582D01*
X23241384Y17723118D01*
X23279500Y17865367D01*
X23279500Y18012633D01*
X23241384Y18154882D01*
X23167751Y18282418D01*
X23167749Y18282420D01*
X23167745Y18282425D01*
X23063624Y18386546D01*
X23063614Y18386554D01*
X22936082Y18460184D01*
X22793833Y18498300D01*
X22646567Y18498300D01*
X22551734Y18472890D01*
X22504317Y18460184D01*
X22376785Y18386554D01*
X22376775Y18386546D01*
X22272654Y18282425D01*
X22272646Y18282415D01*
X22199016Y18154883D01*
X22185414Y18104118D01*
X22161220Y18013825D01*
X22160900Y18012632D01*
X22160900Y17865369D01*
X22160899Y17865369D01*
X17319099Y17865369D01*
X17175546Y18016701D01*
X17167800Y18024867D01*
X17166795Y18025940D01*
X15788330Y19515713D01*
X15786752Y19517453D01*
X14884350Y20532369D01*
X41642699Y20532369D01*
X41680816Y20390118D01*
X41754446Y20262586D01*
X41754454Y20262576D01*
X41858575Y20158455D01*
X41858580Y20158451D01*
X41858582Y20158449D01*
X41986118Y20084816D01*
X42128367Y20046700D01*
X42128369Y20046700D01*
X42278700Y20046700D01*
X42346821Y20026698D01*
X42393314Y19973042D01*
X42404700Y19920700D01*
X42404700Y19770369D01*
X42404699Y19770369D01*
X42442816Y19628118D01*
X42516446Y19500586D01*
X42516454Y19500576D01*
X42620575Y19396455D01*
X42620580Y19396451D01*
X42620582Y19396449D01*
X42748118Y19322816D01*
X42890367Y19284700D01*
X42890369Y19284700D01*
X43040700Y19284700D01*
X43108821Y19264698D01*
X43155314Y19211042D01*
X43166700Y19158700D01*
X43166700Y19008369D01*
X43166699Y19008369D01*
X43204816Y18866118D01*
X43278446Y18738586D01*
X43278454Y18738576D01*
X43382575Y18634455D01*
X43382580Y18634451D01*
X43382582Y18634449D01*
X43510118Y18560816D01*
X43652367Y18522700D01*
X43652369Y18522700D01*
X43799632Y18522700D01*
X43799633Y18522700D01*
X43941882Y18560816D01*
X44069418Y18634449D01*
X44173551Y18738582D01*
X44247184Y18866118D01*
X44285300Y19008367D01*
X44285300Y19155633D01*
X44247184Y19297882D01*
X44202121Y19375934D01*
X44173553Y19425415D01*
X44173545Y19425425D01*
X44069424Y19529546D01*
X44069414Y19529554D01*
X43941882Y19603184D01*
X43799633Y19641300D01*
X43652367Y19641300D01*
X43649300Y19641300D01*
X43581179Y19661302D01*
X43534686Y19714958D01*
X43523300Y19767300D01*
X43523300Y19917632D01*
X43508453Y19973042D01*
X43485184Y20059882D01*
X43440121Y20137934D01*
X43411553Y20187415D01*
X43411545Y20187425D01*
X43307424Y20291546D01*
X43307414Y20291554D01*
X43179882Y20365184D01*
X43037633Y20403300D01*
X42890367Y20403300D01*
X42887300Y20403300D01*
X42819179Y20423302D01*
X42772686Y20476958D01*
X42761300Y20529300D01*
X42761300Y20679632D01*
X42750186Y20721109D01*
X42723184Y20821882D01*
X42649551Y20949418D01*
X42649549Y20949420D01*
X42649545Y20949425D01*
X42545424Y21053546D01*
X42545414Y21053554D01*
X42417882Y21127184D01*
X42275633Y21165300D01*
X42128367Y21165300D01*
X42033534Y21139890D01*
X41986117Y21127184D01*
X41858585Y21053554D01*
X41858575Y21053546D01*
X41754454Y20949425D01*
X41754446Y20949415D01*
X41680816Y20821883D01*
X41642700Y20679632D01*
X41642700Y20532369D01*
X41642699Y20532369D01*
X14884350Y20532369D01*
X14855278Y20565066D01*
X14820510Y20604169D01*
X14506894Y20956887D01*
X14505167Y20958871D01*
X13526316Y22107169D01*
X31635099Y22107169D01*
X31673216Y21964918D01*
X31746846Y21837386D01*
X31746854Y21837376D01*
X31850975Y21733255D01*
X31850980Y21733251D01*
X31850982Y21733249D01*
X31978518Y21659616D01*
X32120767Y21621500D01*
X32120769Y21621500D01*
X32268031Y21621500D01*
X32268033Y21621500D01*
X32410282Y21659616D01*
X32537818Y21733249D01*
X32641951Y21837382D01*
X32715584Y21964918D01*
X32753700Y22107167D01*
X32753700Y22254433D01*
X32715584Y22396682D01*
X32670521Y22474734D01*
X32641953Y22524215D01*
X32641945Y22524225D01*
X32601801Y22564369D01*
X47230699Y22564369D01*
X47268816Y22422118D01*
X47342446Y22294586D01*
X47342454Y22294576D01*
X47446575Y22190455D01*
X47446580Y22190451D01*
X47446582Y22190449D01*
X47446583Y22190448D01*
X47446585Y22190447D01*
X47496066Y22161879D01*
X47574118Y22116816D01*
X47716367Y22078700D01*
X47716369Y22078700D01*
X47863631Y22078700D01*
X47863633Y22078700D01*
X48005882Y22116816D01*
X48133418Y22190449D01*
X48237551Y22294582D01*
X48296951Y22397466D01*
X48348329Y22446456D01*
X48418043Y22459893D01*
X48454664Y22448181D01*
X48455491Y22450175D01*
X48463112Y22447018D01*
X48463116Y22447017D01*
X48463118Y22447016D01*
X48605367Y22408900D01*
X48605369Y22408900D01*
X48752631Y22408900D01*
X48752633Y22408900D01*
X48894882Y22447016D01*
X49022418Y22520649D01*
X49126551Y22624782D01*
X49200184Y22752318D01*
X49238300Y22894567D01*
X49238300Y23041833D01*
X49200184Y23184082D01*
X49126551Y23311618D01*
X49126549Y23311620D01*
X49126545Y23311625D01*
X49033771Y23404399D01*
X49033768Y23404401D01*
X49022418Y23415751D01*
X48894882Y23489384D01*
X48752633Y23527500D01*
X48605367Y23527500D01*
X48519423Y23504471D01*
X48463117Y23489384D01*
X48335585Y23415754D01*
X48335575Y23415746D01*
X48231454Y23311625D01*
X48231446Y23311615D01*
X48172051Y23208738D01*
X48120669Y23159745D01*
X48050955Y23146309D01*
X48014333Y23158016D01*
X48013509Y23156025D01*
X48005887Y23159183D01*
X47950691Y23173973D01*
X47863633Y23197300D01*
X47716367Y23197300D01*
X47621534Y23171890D01*
X47574117Y23159184D01*
X47446585Y23085554D01*
X47446575Y23085546D01*
X47342454Y22981425D01*
X47342446Y22981415D01*
X47268816Y22853883D01*
X47230700Y22711632D01*
X47230700Y22564369D01*
X47230699Y22564369D01*
X32601801Y22564369D01*
X32537824Y22628346D01*
X32537814Y22628354D01*
X32410282Y22701984D01*
X32268033Y22740100D01*
X32120767Y22740100D01*
X32025934Y22714690D01*
X31978517Y22701984D01*
X31850985Y22628354D01*
X31850975Y22628346D01*
X31746854Y22524225D01*
X31746846Y22524215D01*
X31673216Y22396683D01*
X31673216Y22396682D01*
X31645857Y22294576D01*
X31635100Y22254432D01*
X31635100Y22107169D01*
X31635099Y22107169D01*
X13526316Y22107169D01*
X13463420Y22180953D01*
X13319149Y22350198D01*
X13317375Y22352325D01*
X12359409Y23527500D01*
X12221080Y23697193D01*
X12219271Y23699467D01*
X12207620Y23714455D01*
X11916965Y24088369D01*
X48754699Y24088369D01*
X48792816Y23946118D01*
X48866446Y23818586D01*
X48866454Y23818576D01*
X48959227Y23725803D01*
X48959229Y23725802D01*
X48970582Y23714449D01*
X49098118Y23640816D01*
X49240367Y23602700D01*
X49240368Y23602700D01*
X49387631Y23602700D01*
X49387633Y23602700D01*
X49529882Y23640816D01*
X49657418Y23714449D01*
X49761551Y23818582D01*
X49835184Y23946118D01*
X49873300Y24088367D01*
X49873300Y24235633D01*
X49835184Y24377882D01*
X49761551Y24505418D01*
X49761549Y24505420D01*
X49761545Y24505425D01*
X49657424Y24609546D01*
X49657414Y24609554D01*
X49529882Y24683184D01*
X49387633Y24721300D01*
X49240367Y24721300D01*
X49145534Y24695890D01*
X49098117Y24683184D01*
X48970585Y24609554D01*
X48970575Y24609546D01*
X48866454Y24505425D01*
X48866446Y24505415D01*
X48792816Y24377883D01*
X48754700Y24235632D01*
X48754700Y24088369D01*
X48754699Y24088369D01*
X11916965Y24088369D01*
X11623523Y24465869D01*
X11208966Y24999177D01*
X11207109Y25001627D01*
X11131191Y25104369D01*
X47738699Y25104369D01*
X47776816Y24962118D01*
X47850446Y24834586D01*
X47850454Y24834576D01*
X47954575Y24730455D01*
X47954580Y24730451D01*
X47954582Y24730449D01*
X47954583Y24730448D01*
X47954585Y24730447D01*
X47982504Y24714328D01*
X48082118Y24656816D01*
X48224367Y24618700D01*
X48224369Y24618700D01*
X48371631Y24618700D01*
X48371633Y24618700D01*
X48513882Y24656816D01*
X48641418Y24730449D01*
X48745551Y24834582D01*
X48819184Y24962118D01*
X48857300Y25104367D01*
X48857300Y25104369D01*
X49770699Y25104369D01*
X49808816Y24962118D01*
X49882446Y24834586D01*
X49882454Y24834576D01*
X49986575Y24730455D01*
X49986580Y24730451D01*
X49986582Y24730449D01*
X49986583Y24730448D01*
X49986585Y24730447D01*
X50014504Y24714328D01*
X50114118Y24656816D01*
X50256367Y24618700D01*
X50256369Y24618700D01*
X50403631Y24618700D01*
X50403633Y24618700D01*
X50545882Y24656816D01*
X50673418Y24730449D01*
X50777551Y24834582D01*
X50851184Y24962118D01*
X50889300Y25104367D01*
X50889300Y25251633D01*
X50851184Y25393882D01*
X50777551Y25521418D01*
X50777549Y25521420D01*
X50777545Y25521425D01*
X50673424Y25625546D01*
X50673414Y25625554D01*
X50545882Y25699184D01*
X50403633Y25737300D01*
X50256367Y25737300D01*
X50161534Y25711890D01*
X50114117Y25699184D01*
X49986585Y25625554D01*
X49986575Y25625546D01*
X49882454Y25521425D01*
X49882446Y25521415D01*
X49808816Y25393883D01*
X49770700Y25251632D01*
X49770700Y25104369D01*
X49770699Y25104369D01*
X48857300Y25104369D01*
X48857300Y25251633D01*
X48819184Y25393882D01*
X48745551Y25521418D01*
X48745549Y25521420D01*
X48745545Y25521425D01*
X48641424Y25625546D01*
X48641414Y25625554D01*
X48513882Y25699184D01*
X48371633Y25737300D01*
X48224367Y25737300D01*
X48129534Y25711890D01*
X48082117Y25699184D01*
X47954585Y25625554D01*
X47954575Y25625546D01*
X47850454Y25521425D01*
X47850446Y25521415D01*
X47776816Y25393883D01*
X47738700Y25251632D01*
X47738700Y25104369D01*
X47738699Y25104369D01*
X11131191Y25104369D01*
X10734654Y25641015D01*
X27494899Y25641015D01*
X27533016Y25498764D01*
X27606646Y25371232D01*
X27606654Y25371222D01*
X27710775Y25267101D01*
X27710780Y25267097D01*
X27710782Y25267095D01*
X27710783Y25267094D01*
X27710785Y25267093D01*
X27760266Y25238525D01*
X27838318Y25193462D01*
X27980567Y25155346D01*
X27980569Y25155346D01*
X28127831Y25155346D01*
X28127833Y25155346D01*
X28270082Y25193462D01*
X28372200Y25252421D01*
X28441195Y25269158D01*
X28498199Y25252421D01*
X28600318Y25193462D01*
X28742567Y25155346D01*
X28742569Y25155346D01*
X28889831Y25155346D01*
X28889833Y25155346D01*
X29032082Y25193462D01*
X29159618Y25267095D01*
X29197200Y25304677D01*
X29241511Y25348987D01*
X29263745Y25371222D01*
X29263751Y25371228D01*
X29337384Y25498764D01*
X29375500Y25641013D01*
X29375500Y25788279D01*
X29337384Y25930528D01*
X29263751Y26058064D01*
X29263749Y26058066D01*
X29263745Y26058071D01*
X29201447Y26120369D01*
X48754699Y26120369D01*
X48792816Y25978118D01*
X48866446Y25850586D01*
X48866454Y25850576D01*
X48970575Y25746455D01*
X48970580Y25746451D01*
X48970582Y25746449D01*
X48970583Y25746448D01*
X48970585Y25746447D01*
X49020066Y25717879D01*
X49098118Y25672816D01*
X49240367Y25634700D01*
X49240369Y25634700D01*
X49387631Y25634700D01*
X49387633Y25634700D01*
X49529882Y25672816D01*
X49657418Y25746449D01*
X49761551Y25850582D01*
X49835184Y25978118D01*
X49873300Y26120367D01*
X49873300Y26267633D01*
X49835184Y26409882D01*
X49761551Y26537418D01*
X49761549Y26537420D01*
X49761545Y26537425D01*
X49657424Y26641546D01*
X49657414Y26641554D01*
X49529882Y26715184D01*
X49387633Y26753300D01*
X49240367Y26753300D01*
X49145534Y26727890D01*
X49098117Y26715184D01*
X48970585Y26641554D01*
X48970575Y26641546D01*
X48866454Y26537425D01*
X48866446Y26537415D01*
X48792816Y26409883D01*
X48754700Y26267632D01*
X48754700Y26120369D01*
X48754699Y26120369D01*
X29201447Y26120369D01*
X29159624Y26162192D01*
X29159614Y26162200D01*
X29151694Y26166772D01*
X29151693Y26166773D01*
X29151692Y26166773D01*
X29032082Y26235830D01*
X28889833Y26273946D01*
X28742567Y26273946D01*
X28600318Y26235830D01*
X28498199Y26176872D01*
X28429204Y26160135D01*
X28372201Y26176872D01*
X28325998Y26203547D01*
X28270082Y26235830D01*
X28127833Y26273946D01*
X27980567Y26273946D01*
X27885734Y26248536D01*
X27838317Y26235830D01*
X27710785Y26162200D01*
X27710775Y26162192D01*
X27606654Y26058071D01*
X27606646Y26058061D01*
X27533016Y25930529D01*
X27494900Y25788278D01*
X27494900Y25641015D01*
X27494899Y25641015D01*
X10734654Y25641015D01*
X10675065Y25721659D01*
X10675064Y25721662D01*
X10278154Y26258812D01*
X10276814Y26260659D01*
X10271854Y26267632D01*
X9940371Y26733668D01*
X9939010Y26735621D01*
X9855073Y26858544D01*
X9320978Y27640711D01*
X9145608Y27897536D01*
X9143626Y27900529D01*
X8419030Y29029450D01*
X8417047Y29032644D01*
X8131466Y29508216D01*
X7757694Y30130651D01*
X7755728Y30134043D01*
X7753349Y30138300D01*
X7680037Y30269499D01*
X7664270Y30338721D01*
X7688430Y30405481D01*
X7744848Y30448580D01*
X7815611Y30454336D01*
X7878252Y30420921D01*
X7879126Y30420055D01*
X7884713Y30414468D01*
X8126554Y30221607D01*
X8388462Y30057038D01*
X8667146Y29922831D01*
X8667173Y29922820D01*
X8959114Y29820665D01*
X9260684Y29751834D01*
X9568065Y29717199D01*
X9877389Y29717199D01*
X10184769Y29751834D01*
X10486339Y29820665D01*
X10778280Y29922820D01*
X10778307Y29922831D01*
X11056991Y30057038D01*
X11318896Y30221604D01*
X11482578Y30352138D01*
X10659657Y31175058D01*
X10625632Y31237371D01*
X10630696Y31308186D01*
X10666931Y31359973D01*
X10669738Y31362372D01*
X10669749Y31362379D01*
X10831547Y31524177D01*
X10831554Y31524188D01*
X10833953Y31526995D01*
X10893400Y31565810D01*
X10964395Y31566324D01*
X11018868Y31534269D01*
X11841788Y30711348D01*
X11846909Y30717769D01*
X26428099Y30717769D01*
X26466216Y30575518D01*
X26539846Y30447986D01*
X26539854Y30447976D01*
X26643975Y30343855D01*
X26643980Y30343851D01*
X26643982Y30343849D01*
X26643983Y30343848D01*
X26643985Y30343847D01*
X26693466Y30315279D01*
X26771518Y30270216D01*
X26913767Y30232100D01*
X26913769Y30232100D01*
X27061031Y30232100D01*
X27061033Y30232100D01*
X27203282Y30270216D01*
X27230567Y30285969D01*
X30771499Y30285969D01*
X30809616Y30143718D01*
X30883246Y30016186D01*
X30883254Y30016176D01*
X30987375Y29912055D01*
X30987380Y29912051D01*
X30987382Y29912049D01*
X31114918Y29838416D01*
X31257167Y29800300D01*
X31257169Y29800300D01*
X31404431Y29800300D01*
X31404433Y29800300D01*
X31546682Y29838416D01*
X31674218Y29912049D01*
X31717938Y29955769D01*
X32371699Y29955769D01*
X32409816Y29813518D01*
X32483446Y29685986D01*
X32483454Y29685976D01*
X32587575Y29581855D01*
X32587580Y29581851D01*
X32587582Y29581849D01*
X32715118Y29508216D01*
X32857367Y29470100D01*
X32857369Y29470100D01*
X33004631Y29470100D01*
X33004633Y29470100D01*
X33146882Y29508216D01*
X33274418Y29581849D01*
X33378551Y29685982D01*
X33452184Y29813518D01*
X33490300Y29955767D01*
X33490300Y30103033D01*
X33452184Y30245282D01*
X33399364Y30336769D01*
X35445099Y30336769D01*
X35483216Y30194518D01*
X35556846Y30066986D01*
X35556854Y30066976D01*
X35660975Y29962855D01*
X35660980Y29962851D01*
X35660982Y29962849D01*
X35788518Y29889216D01*
X35930767Y29851100D01*
X35930769Y29851100D01*
X36078031Y29851100D01*
X36078033Y29851100D01*
X36220282Y29889216D01*
X36347818Y29962849D01*
X36451951Y30066982D01*
X36483063Y30120869D01*
X38912199Y30120869D01*
X38950316Y29978618D01*
X39023946Y29851086D01*
X39023954Y29851076D01*
X39128075Y29746955D01*
X39128080Y29746951D01*
X39128082Y29746949D01*
X39128083Y29746948D01*
X39128085Y29746947D01*
X39130626Y29745480D01*
X39255618Y29673316D01*
X39397867Y29635200D01*
X39397869Y29635200D01*
X39545131Y29635200D01*
X39545133Y29635200D01*
X39687382Y29673316D01*
X39814918Y29746949D01*
X39919051Y29851082D01*
X39992684Y29978618D01*
X40019228Y30077681D01*
X40056177Y30138300D01*
X40120038Y30169321D01*
X40190532Y30160893D01*
X40203929Y30154187D01*
X40245746Y30130044D01*
X40387995Y30091928D01*
X40387997Y30091928D01*
X40535259Y30091928D01*
X40535261Y30091928D01*
X40677510Y30130044D01*
X40805046Y30203677D01*
X40909179Y30307810D01*
X40982812Y30435346D01*
X41020928Y30577595D01*
X41020928Y30655270D01*
X42342200Y30655270D01*
X42380317Y30513019D01*
X42453947Y30385487D01*
X42453955Y30385477D01*
X42558076Y30281356D01*
X42558081Y30281352D01*
X42558083Y30281350D01*
X42558084Y30281349D01*
X42558086Y30281348D01*
X42578611Y30269498D01*
X42685619Y30207717D01*
X42827868Y30169601D01*
X42827870Y30169601D01*
X42975132Y30169601D01*
X42975134Y30169601D01*
X43117383Y30207717D01*
X43244919Y30281350D01*
X43349052Y30385483D01*
X43422685Y30513019D01*
X43460801Y30655268D01*
X43460801Y30802534D01*
X43422685Y30944783D01*
X43349052Y31072319D01*
X43339504Y31081867D01*
X43305479Y31144175D01*
X43310542Y31214991D01*
X43339503Y31260057D01*
X43360751Y31281304D01*
X43434384Y31408840D01*
X43472500Y31551089D01*
X43472500Y31698355D01*
X43434384Y31840604D01*
X43386899Y31922851D01*
X43360753Y31968137D01*
X43360745Y31968147D01*
X43256624Y32072268D01*
X43256614Y32072276D01*
X43129082Y32145906D01*
X43114602Y32149786D01*
X42986833Y32184022D01*
X42839567Y32184022D01*
X42744734Y32158612D01*
X42697317Y32145906D01*
X42569785Y32072276D01*
X42569775Y32072268D01*
X42465654Y31968147D01*
X42465646Y31968137D01*
X42392016Y31840605D01*
X42353900Y31698354D01*
X42353900Y31551091D01*
X42353899Y31551091D01*
X42392016Y31408840D01*
X42465646Y31281308D01*
X42465649Y31281304D01*
X42475195Y31271758D01*
X42509221Y31209449D01*
X42504158Y31138633D01*
X42475198Y31093568D01*
X42453952Y31072323D01*
X42453947Y31072316D01*
X42380317Y30944784D01*
X42363168Y30880784D01*
X42353246Y30843752D01*
X42342201Y30802533D01*
X42342201Y30655270D01*
X42342200Y30655270D01*
X41020928Y30655270D01*
X41020928Y30724861D01*
X40982812Y30867110D01*
X40909179Y30994646D01*
X40909177Y30994648D01*
X40909173Y30994653D01*
X40805052Y31098774D01*
X40805042Y31098782D01*
X40677510Y31172412D01*
X40667628Y31175060D01*
X40535261Y31210528D01*
X40387995Y31210528D01*
X40293162Y31185118D01*
X40245745Y31172412D01*
X40118213Y31098782D01*
X40118203Y31098774D01*
X40014082Y30994653D01*
X40014074Y30994643D01*
X39940442Y30867108D01*
X39913900Y30768051D01*
X39876949Y30707429D01*
X39813088Y30676407D01*
X39742593Y30684837D01*
X39729195Y30691543D01*
X39709325Y30703015D01*
X39687382Y30715684D01*
X39545133Y30753800D01*
X39397867Y30753800D01*
X39303034Y30728390D01*
X39255617Y30715684D01*
X39128085Y30642054D01*
X39128075Y30642046D01*
X39023954Y30537925D01*
X39023946Y30537915D01*
X38950316Y30410383D01*
X38940250Y30372815D01*
X38912759Y30270217D01*
X38912200Y30268132D01*
X38912200Y30120869D01*
X38912199Y30120869D01*
X36483063Y30120869D01*
X36525584Y30194518D01*
X36563700Y30336767D01*
X36563700Y30484033D01*
X36525584Y30626282D01*
X36472764Y30717769D01*
X36451953Y30753815D01*
X36451945Y30753825D01*
X36347824Y30857946D01*
X36347814Y30857954D01*
X36220282Y30931584D01*
X36171023Y30944783D01*
X36078033Y30969700D01*
X35930767Y30969700D01*
X35837780Y30944784D01*
X35788517Y30931584D01*
X35660985Y30857954D01*
X35660975Y30857946D01*
X35556854Y30753825D01*
X35556846Y30753815D01*
X35483216Y30626283D01*
X35445100Y30484032D01*
X35445100Y30336769D01*
X35445099Y30336769D01*
X33399364Y30336769D01*
X33398237Y30338721D01*
X33378553Y30372815D01*
X33378545Y30372825D01*
X33274424Y30476946D01*
X33274414Y30476954D01*
X33146882Y30550584D01*
X33004633Y30588700D01*
X32857367Y30588700D01*
X32762534Y30563290D01*
X32715117Y30550584D01*
X32587585Y30476954D01*
X32587575Y30476946D01*
X32483454Y30372825D01*
X32483446Y30372815D01*
X32409816Y30245283D01*
X32399750Y30207717D01*
X32379553Y30132338D01*
X32371700Y30103032D01*
X32371700Y29955769D01*
X32371699Y29955769D01*
X31717938Y29955769D01*
X31778351Y30016182D01*
X31851984Y30143718D01*
X31890100Y30285967D01*
X31890100Y30433233D01*
X31851984Y30575482D01*
X31806921Y30653534D01*
X31778353Y30703015D01*
X31778345Y30703025D01*
X31674224Y30807146D01*
X31674214Y30807154D01*
X31546682Y30880784D01*
X31404433Y30918900D01*
X31257167Y30918900D01*
X31162334Y30893490D01*
X31114917Y30880784D01*
X30987385Y30807154D01*
X30987375Y30807146D01*
X30883254Y30703025D01*
X30883246Y30703015D01*
X30809616Y30575483D01*
X30799550Y30537915D01*
X30775451Y30447976D01*
X30771500Y30433232D01*
X30771500Y30285969D01*
X30771499Y30285969D01*
X27230567Y30285969D01*
X27330818Y30343849D01*
X27434951Y30447982D01*
X27508584Y30575518D01*
X27546700Y30717767D01*
X27546700Y30865033D01*
X27508584Y31007282D01*
X27434951Y31134818D01*
X27434949Y31134820D01*
X27434945Y31134825D01*
X27330824Y31238946D01*
X27330814Y31238954D01*
X27203282Y31312584D01*
X27202554Y31312779D01*
X27061033Y31350700D01*
X26913767Y31350700D01*
X26818934Y31325290D01*
X26771517Y31312584D01*
X26643985Y31238954D01*
X26643975Y31238946D01*
X26539854Y31134825D01*
X26539846Y31134815D01*
X26466216Y31007283D01*
X26428100Y30865032D01*
X26428100Y30717769D01*
X26428099Y30717769D01*
X11846909Y30717769D01*
X11972322Y30875030D01*
X12013352Y30940328D01*
X12136888Y31136935D01*
X12271095Y31415619D01*
X12271106Y31415646D01*
X12373261Y31707587D01*
X12442092Y32009157D01*
X12476727Y32316537D01*
X12476727Y32419569D01*
X20611499Y32419569D01*
X20649616Y32277318D01*
X20723246Y32149786D01*
X20723254Y32149776D01*
X20827375Y32045655D01*
X20827380Y32045651D01*
X20827382Y32045649D01*
X20827383Y32045648D01*
X20827385Y32045647D01*
X20853212Y32030736D01*
X20954918Y31972016D01*
X21097167Y31933900D01*
X21097169Y31933900D01*
X21244431Y31933900D01*
X21244433Y31933900D01*
X21386682Y31972016D01*
X21514218Y32045649D01*
X21618351Y32149782D01*
X21691984Y32277318D01*
X21730100Y32419567D01*
X21730100Y32566833D01*
X21691984Y32709082D01*
X21618351Y32836618D01*
X21618349Y32836620D01*
X21618345Y32836625D01*
X21514224Y32940746D01*
X21514214Y32940754D01*
X21386682Y33014384D01*
X21244433Y33052500D01*
X21097167Y33052500D01*
X21002334Y33027090D01*
X20954917Y33014384D01*
X20827385Y32940754D01*
X20827375Y32940746D01*
X20723254Y32836625D01*
X20723246Y32836615D01*
X20649616Y32709083D01*
X20611500Y32566832D01*
X20611500Y32419569D01*
X20611499Y32419569D01*
X12476727Y32419569D01*
X12476727Y32625862D01*
X12442092Y32933242D01*
X12373260Y33234812D01*
X12373261Y33234812D01*
X12271106Y33526753D01*
X12271095Y33526780D01*
X12136888Y33805464D01*
X12082038Y33892756D01*
X30569811Y33892756D01*
X30607928Y33750505D01*
X30681558Y33622973D01*
X30681566Y33622963D01*
X30785687Y33518842D01*
X30785692Y33518838D01*
X30785694Y33518836D01*
X30785695Y33518835D01*
X30785697Y33518834D01*
X30804485Y33507987D01*
X30913230Y33445203D01*
X31055479Y33407087D01*
X31055481Y33407087D01*
X31202743Y33407087D01*
X31202745Y33407087D01*
X31344994Y33445203D01*
X31472530Y33518836D01*
X31576663Y33622969D01*
X31585785Y33638769D01*
X44995499Y33638769D01*
X45033616Y33496518D01*
X45107246Y33368986D01*
X45107254Y33368976D01*
X45211375Y33264855D01*
X45211380Y33264851D01*
X45211382Y33264849D01*
X45338918Y33191216D01*
X45481167Y33153100D01*
X45481169Y33153100D01*
X45628431Y33153100D01*
X45628433Y33153100D01*
X45770682Y33191216D01*
X45898218Y33264849D01*
X46002351Y33368982D01*
X46075984Y33496518D01*
X46114100Y33638767D01*
X46114100Y33786033D01*
X46075984Y33928282D01*
X46002351Y34055818D01*
X46002349Y34055820D01*
X46002345Y34055825D01*
X45898224Y34159946D01*
X45898214Y34159954D01*
X45770682Y34233584D01*
X45628433Y34271700D01*
X45481167Y34271700D01*
X45386334Y34246290D01*
X45338917Y34233584D01*
X45211385Y34159954D01*
X45211375Y34159946D01*
X45107254Y34055825D01*
X45107246Y34055815D01*
X45033616Y33928283D01*
X44995500Y33786032D01*
X44995500Y33638769D01*
X44995499Y33638769D01*
X31585785Y33638769D01*
X31650296Y33750505D01*
X31688412Y33892754D01*
X31688412Y34040020D01*
X31650296Y34182269D01*
X31577234Y34308816D01*
X31576665Y34309802D01*
X31576657Y34309812D01*
X31472536Y34413933D01*
X31472526Y34413941D01*
X31344994Y34487571D01*
X31202745Y34525687D01*
X31055479Y34525687D01*
X30981011Y34505733D01*
X30913229Y34487571D01*
X30785697Y34413941D01*
X30785687Y34413933D01*
X30681566Y34309812D01*
X30681558Y34309802D01*
X30607928Y34182270D01*
X30601948Y34159951D01*
X30574045Y34055815D01*
X30569812Y34040019D01*
X30569812Y33892756D01*
X30569811Y33892756D01*
X12082038Y33892756D01*
X12026439Y33981241D01*
X12026438Y33981242D01*
X11972316Y34067376D01*
X11841788Y34231052D01*
X11018866Y33408130D01*
X10956554Y33374105D01*
X10885738Y33379170D01*
X10833957Y33415399D01*
X10831540Y33418229D01*
X10669756Y33580013D01*
X10666929Y33582427D01*
X10628114Y33641874D01*
X10627602Y33712869D01*
X10659656Y33767341D01*
X11482578Y34590262D01*
X11318899Y34720792D01*
X11302703Y34730969D01*
X33311499Y34730969D01*
X33349616Y34588718D01*
X33423246Y34461186D01*
X33423254Y34461176D01*
X33527375Y34357055D01*
X33527380Y34357051D01*
X33527382Y34357049D01*
X33654918Y34283416D01*
X33797167Y34245300D01*
X33797169Y34245300D01*
X33944431Y34245300D01*
X33944433Y34245300D01*
X34086682Y34283416D01*
X34214218Y34357049D01*
X34318351Y34461182D01*
X34391984Y34588718D01*
X34430100Y34730967D01*
X34430100Y34756369D01*
X47992699Y34756369D01*
X48030816Y34614118D01*
X48104446Y34486586D01*
X48104454Y34486576D01*
X48208575Y34382455D01*
X48208580Y34382451D01*
X48208582Y34382449D01*
X48208583Y34382448D01*
X48208585Y34382447D01*
X48258066Y34353879D01*
X48336118Y34308816D01*
X48478367Y34270700D01*
X48478369Y34270700D01*
X48625631Y34270700D01*
X48625633Y34270700D01*
X48767882Y34308816D01*
X48895418Y34382449D01*
X48999551Y34486582D01*
X49073184Y34614118D01*
X49111300Y34756367D01*
X49111300Y34903633D01*
X49073184Y35045882D01*
X49023097Y35132636D01*
X48999553Y35173415D01*
X48999545Y35173425D01*
X48895424Y35277546D01*
X48895414Y35277554D01*
X48767882Y35351184D01*
X48625633Y35389300D01*
X48478367Y35389300D01*
X48383574Y35363900D01*
X48336117Y35351184D01*
X48208585Y35277554D01*
X48208575Y35277546D01*
X48104454Y35173425D01*
X48104446Y35173415D01*
X48030816Y35045883D01*
X47992700Y34903632D01*
X47992700Y34756369D01*
X47992699Y34756369D01*
X34430100Y34756369D01*
X34430100Y34878233D01*
X34430099Y34878235D01*
X34430099Y34878239D01*
X34429823Y34879269D01*
X34429819Y34879280D01*
X34412608Y34943512D01*
X34391984Y35020482D01*
X34387357Y35028497D01*
X34318353Y35148015D01*
X34318345Y35148025D01*
X34214224Y35252146D01*
X34214214Y35252154D01*
X34086682Y35325784D01*
X33944433Y35363900D01*
X33797167Y35363900D01*
X33702334Y35338490D01*
X33654917Y35325784D01*
X33527385Y35252154D01*
X33527375Y35252146D01*
X33423254Y35148025D01*
X33423246Y35148015D01*
X33349616Y35020483D01*
X33311500Y34878232D01*
X33311500Y34730969D01*
X33311499Y34730969D01*
X11302703Y34730969D01*
X11056991Y34885361D01*
X10778307Y35019568D01*
X10778280Y35019579D01*
X10486339Y35121734D01*
X10184769Y35190565D01*
X9877389Y35225199D01*
X9568065Y35225199D01*
X9260684Y35190565D01*
X8959114Y35121734D01*
X8667173Y35019579D01*
X8667146Y35019568D01*
X8388462Y34885361D01*
X8126554Y34720792D01*
X7962874Y34590263D01*
X7962874Y34590262D01*
X8785796Y33767341D01*
X8819821Y33705028D01*
X8814757Y33634213D01*
X8778538Y33582439D01*
X8775698Y33580014D01*
X8613912Y33418228D01*
X8611487Y33415388D01*
X8552034Y33376583D01*
X8481039Y33376081D01*
X8426585Y33408130D01*
X7603664Y34231052D01*
X7603663Y34231052D01*
X7473134Y34067372D01*
X7308565Y33805464D01*
X7174358Y33526780D01*
X7174347Y33526753D01*
X7072192Y33234812D01*
X7003361Y32933242D01*
X6968727Y32625862D01*
X6968727Y32316537D01*
X6999793Y32040823D01*
X6987544Y31970891D01*
X6939431Y31918683D01*
X6870730Y31900774D01*
X6803253Y31922851D01*
X6762645Y31968875D01*
X6618534Y32247787D01*
X6617487Y32249865D01*
X6552369Y32382150D01*
X6551236Y32384514D01*
X6451845Y32597497D01*
X6103189Y33344626D01*
X6101273Y33348940D01*
X5705473Y34287779D01*
X5703678Y34292279D01*
X5357147Y35213031D01*
X5355455Y35217821D01*
X5344093Y35252151D01*
X5294361Y35402419D01*
X21028949Y35402419D01*
X21067066Y35260168D01*
X21140696Y35132636D01*
X21140704Y35132626D01*
X21244825Y35028505D01*
X21244830Y35028501D01*
X21244832Y35028499D01*
X21244833Y35028498D01*
X21244835Y35028497D01*
X21294316Y34999929D01*
X21372368Y34954866D01*
X21514617Y34916750D01*
X21514619Y34916750D01*
X21661881Y34916750D01*
X21661883Y34916750D01*
X21804132Y34954866D01*
X21931668Y35028499D01*
X22035801Y35132632D01*
X22109434Y35260168D01*
X22147550Y35402417D01*
X22147550Y35549683D01*
X22109434Y35691932D01*
X22035801Y35819468D01*
X22035799Y35819470D01*
X22035795Y35819475D01*
X21935637Y35919633D01*
X22338700Y35919633D01*
X22338700Y35772367D01*
X22376816Y35630118D01*
X22390236Y35606874D01*
X22450446Y35502586D01*
X22450454Y35502576D01*
X22554575Y35398455D01*
X22554580Y35398451D01*
X22554582Y35398449D01*
X22554583Y35398448D01*
X22554585Y35398447D01*
X22604066Y35369879D01*
X22682118Y35324816D01*
X22824367Y35286700D01*
X22824369Y35286700D01*
X22971631Y35286700D01*
X22971633Y35286700D01*
X23113882Y35324816D01*
X23241418Y35398449D01*
X23345551Y35502582D01*
X23419184Y35630118D01*
X23457300Y35772367D01*
X23457300Y35919633D01*
X23419184Y36061882D01*
X23345551Y36189418D01*
X23345549Y36189420D01*
X23345545Y36189425D01*
X23241424Y36293546D01*
X23241414Y36293554D01*
X23113882Y36367184D01*
X23074035Y36377861D01*
X22971633Y36405300D01*
X22824367Y36405300D01*
X22729534Y36379890D01*
X22682117Y36367184D01*
X22554585Y36293554D01*
X22554575Y36293546D01*
X22450454Y36189425D01*
X22450446Y36189415D01*
X22376816Y36061883D01*
X22370276Y36037476D01*
X22338700Y35919633D01*
X21935637Y35919633D01*
X21931674Y35923596D01*
X21931664Y35923604D01*
X21804132Y35997234D01*
X21661883Y36035350D01*
X21514617Y36035350D01*
X21419784Y36009940D01*
X21372367Y35997234D01*
X21244835Y35923604D01*
X21244825Y35923596D01*
X21140704Y35819475D01*
X21140696Y35819465D01*
X21067066Y35691933D01*
X21067066Y35691932D01*
X21044275Y35606874D01*
X21028950Y35549682D01*
X21028950Y35402419D01*
X21028949Y35402419D01*
X5294361Y35402419D01*
X5056404Y36121428D01*
X5054860Y36126441D01*
X5036891Y36189415D01*
X4801597Y37014040D01*
X4800232Y37019248D01*
X4744385Y37252457D01*
X4642631Y37677369D01*
X22338699Y37677369D01*
X22376816Y37535118D01*
X22450446Y37407586D01*
X22450454Y37407576D01*
X22554575Y37303455D01*
X22554580Y37303451D01*
X22554582Y37303449D01*
X22682118Y37229816D01*
X22824367Y37191700D01*
X22824369Y37191700D01*
X22971631Y37191700D01*
X22971633Y37191700D01*
X23113882Y37229816D01*
X23241418Y37303449D01*
X23345551Y37407582D01*
X23419184Y37535118D01*
X23457300Y37677367D01*
X23457300Y37824633D01*
X23419184Y37966882D01*
X23345551Y38094418D01*
X23345549Y38094420D01*
X23345545Y38094425D01*
X23241424Y38198546D01*
X23241414Y38198554D01*
X23113882Y38272184D01*
X22971633Y38310300D01*
X22824367Y38310300D01*
X22729534Y38284890D01*
X22682117Y38272184D01*
X22554585Y38198554D01*
X22554575Y38198546D01*
X22450454Y38094425D01*
X22450446Y38094415D01*
X22376816Y37966883D01*
X22338700Y37824632D01*
X22338700Y37677369D01*
X22338699Y37677369D01*
X4642631Y37677369D01*
X4621085Y37767343D01*
X4612415Y37803548D01*
X4591073Y37892669D01*
X4589953Y37897817D01*
X4551483Y38094425D01*
X4429318Y38718769D01*
X20992499Y38718769D01*
X21030616Y38576518D01*
X21104246Y38448986D01*
X21104254Y38448976D01*
X21208375Y38344855D01*
X21208380Y38344851D01*
X21208382Y38344849D01*
X21208383Y38344848D01*
X21208385Y38344847D01*
X21257866Y38316279D01*
X21335918Y38271216D01*
X21478167Y38233100D01*
X21478169Y38233100D01*
X21625431Y38233100D01*
X21625433Y38233100D01*
X21767682Y38271216D01*
X21895218Y38344849D01*
X21999351Y38448982D01*
X22072984Y38576518D01*
X22111100Y38718767D01*
X22111100Y38820369D01*
X24370699Y38820369D01*
X24408816Y38678118D01*
X24482446Y38550586D01*
X24482454Y38550576D01*
X24586575Y38446455D01*
X24586580Y38446451D01*
X24586582Y38446449D01*
X24714118Y38372816D01*
X24856367Y38334700D01*
X24856369Y38334700D01*
X25003631Y38334700D01*
X25003633Y38334700D01*
X25145882Y38372816D01*
X25273418Y38446449D01*
X25377551Y38550582D01*
X25451184Y38678118D01*
X25489300Y38820367D01*
X25489300Y38967633D01*
X25451184Y39109882D01*
X25400559Y39197567D01*
X25377553Y39237415D01*
X25377545Y39237425D01*
X25273424Y39341546D01*
X25273414Y39341554D01*
X25145882Y39415184D01*
X25003633Y39453300D01*
X24856367Y39453300D01*
X24761534Y39427890D01*
X24714117Y39415184D01*
X24586585Y39341554D01*
X24586575Y39341546D01*
X24482454Y39237425D01*
X24482446Y39237415D01*
X24408816Y39109883D01*
X24370700Y38967632D01*
X24370700Y38820369D01*
X24370699Y38820369D01*
X22111100Y38820369D01*
X22111100Y38866033D01*
X22072984Y39008282D01*
X21999351Y39135818D01*
X21999349Y39135820D01*
X21999345Y39135825D01*
X21895224Y39239946D01*
X21895214Y39239954D01*
X21767682Y39313584D01*
X21625433Y39351700D01*
X21478167Y39351700D01*
X21383334Y39326290D01*
X21335917Y39313584D01*
X21208385Y39239954D01*
X21208375Y39239946D01*
X21104254Y39135825D01*
X21104246Y39135815D01*
X21030616Y39008283D01*
X20992500Y38866032D01*
X20992500Y38718769D01*
X20992499Y38718769D01*
X4429318Y38718769D01*
X4415354Y38790133D01*
X4414702Y38793756D01*
X4414108Y38797355D01*
X4266291Y39693366D01*
X4265740Y39697054D01*
X4262789Y39718982D01*
X4212809Y40090369D01*
X25386699Y40090369D01*
X25424816Y39948118D01*
X25498446Y39820586D01*
X25498454Y39820576D01*
X25602575Y39716455D01*
X25602580Y39716451D01*
X25602582Y39716449D01*
X25730118Y39642816D01*
X25872367Y39604700D01*
X25872369Y39604700D01*
X26019631Y39604700D01*
X26019633Y39604700D01*
X26161882Y39642816D01*
X26289418Y39716449D01*
X26393551Y39820582D01*
X26467184Y39948118D01*
X26478077Y39988769D01*
X36054699Y39988769D01*
X36092816Y39846518D01*
X36166446Y39718986D01*
X36166454Y39718976D01*
X36270575Y39614855D01*
X36270580Y39614851D01*
X36270582Y39614849D01*
X36270583Y39614848D01*
X36270585Y39614847D01*
X36320066Y39586279D01*
X36398118Y39541216D01*
X36540367Y39503100D01*
X36540369Y39503100D01*
X36687631Y39503100D01*
X36687633Y39503100D01*
X36829882Y39541216D01*
X36957418Y39614849D01*
X37061551Y39718982D01*
X37135184Y39846518D01*
X37173300Y39988767D01*
X37173300Y40136033D01*
X37135184Y40278282D01*
X37063608Y40402255D01*
X37063603Y40402263D01*
X57814300Y40402263D01*
X57814300Y38655754D01*
X57814302Y38655730D01*
X57820759Y38595661D01*
X57820759Y38595659D01*
X57871457Y38459734D01*
X57871458Y38459733D01*
X57958396Y38343596D01*
X58074533Y38256658D01*
X58210458Y38205960D01*
X58270545Y38199500D01*
X60017054Y38199501D01*
X60077142Y38205960D01*
X60213067Y38256658D01*
X60329204Y38343596D01*
X60416142Y38459733D01*
X60466840Y38595658D01*
X60473300Y38655745D01*
X60473299Y40402254D01*
X60466840Y40462342D01*
X60416142Y40598267D01*
X60329204Y40714404D01*
X60213067Y40801342D01*
X60213065Y40801343D01*
X60213066Y40801343D01*
X60077149Y40852038D01*
X60077144Y40852040D01*
X60077142Y40852040D01*
X60047098Y40855270D01*
X60017056Y40858500D01*
X58270553Y40858500D01*
X58270529Y40858498D01*
X58210460Y40852041D01*
X58210458Y40852041D01*
X58074533Y40801343D01*
X57958396Y40714404D01*
X57871457Y40598266D01*
X57820762Y40462350D01*
X57820760Y40462342D01*
X57814300Y40402263D01*
X37063603Y40402263D01*
X37061553Y40405815D01*
X37061545Y40405825D01*
X36957424Y40509946D01*
X36957414Y40509954D01*
X36829882Y40583584D01*
X36687633Y40621700D01*
X36540367Y40621700D01*
X36452915Y40598267D01*
X36398117Y40583584D01*
X36270585Y40509954D01*
X36270575Y40509946D01*
X36166454Y40405825D01*
X36166446Y40405815D01*
X36092816Y40278283D01*
X36054700Y40136032D01*
X36054700Y39988769D01*
X36054699Y39988769D01*
X26478077Y39988769D01*
X26505300Y40090367D01*
X26505300Y40237633D01*
X26467184Y40379882D01*
X26393551Y40507418D01*
X26393549Y40507420D01*
X26393545Y40507425D01*
X26289424Y40611546D01*
X26289414Y40611554D01*
X26161882Y40685184D01*
X26019633Y40723300D01*
X25872367Y40723300D01*
X25777534Y40697890D01*
X25730117Y40685184D01*
X25602585Y40611554D01*
X25602575Y40611546D01*
X25498454Y40507425D01*
X25498446Y40507415D01*
X25424816Y40379883D01*
X25386700Y40237632D01*
X25386700Y40090369D01*
X25386699Y40090369D01*
X4212809Y40090369D01*
X4144140Y40600629D01*
X4143706Y40604249D01*
X4049005Y41511148D01*
X4048675Y41514856D01*
X4046224Y41547782D01*
X3992096Y42274769D01*
X27647299Y42274769D01*
X27685416Y42132518D01*
X27759046Y42004986D01*
X27759054Y42004976D01*
X27863175Y41900855D01*
X27863180Y41900851D01*
X27863182Y41900849D01*
X27863183Y41900848D01*
X27863185Y41900847D01*
X27896602Y41881554D01*
X27990718Y41827216D01*
X28132967Y41789100D01*
X28132969Y41789100D01*
X28280231Y41789100D01*
X28280233Y41789100D01*
X28386479Y41817569D01*
X42529088Y41817569D01*
X42567205Y41675318D01*
X42640835Y41547786D01*
X42640843Y41547776D01*
X42744964Y41443655D01*
X42744969Y41443651D01*
X42744971Y41443649D01*
X42872507Y41370016D01*
X43014756Y41331900D01*
X43014758Y41331900D01*
X43162020Y41331900D01*
X43162022Y41331900D01*
X43268268Y41360369D01*
X60184699Y41360369D01*
X60222816Y41218118D01*
X60296446Y41090586D01*
X60296454Y41090576D01*
X60400575Y40986455D01*
X60400580Y40986451D01*
X60400582Y40986449D01*
X60528118Y40912816D01*
X60670367Y40874700D01*
X60670369Y40874700D01*
X60817631Y40874700D01*
X60817633Y40874700D01*
X60959882Y40912816D01*
X61087418Y40986449D01*
X61191551Y41090582D01*
X61265184Y41218118D01*
X61303300Y41360367D01*
X61303300Y41507633D01*
X61265184Y41649882D01*
X61191551Y41777418D01*
X61191549Y41777420D01*
X61191545Y41777425D01*
X61087424Y41881546D01*
X61087414Y41881554D01*
X60959882Y41955184D01*
X60817633Y41993300D01*
X60670367Y41993300D01*
X60575534Y41967890D01*
X60528117Y41955184D01*
X60400585Y41881554D01*
X60400575Y41881546D01*
X60296454Y41777425D01*
X60296446Y41777415D01*
X60222816Y41649883D01*
X60222816Y41649882D01*
X60185636Y41511124D01*
X60184700Y41507632D01*
X60184700Y41360369D01*
X60184699Y41360369D01*
X43268268Y41360369D01*
X43304271Y41370016D01*
X43431807Y41443649D01*
X43535940Y41547782D01*
X43609573Y41675318D01*
X43647689Y41817567D01*
X43647689Y41964833D01*
X43609573Y42107082D01*
X43535940Y42234618D01*
X43535938Y42234620D01*
X43535934Y42234625D01*
X43431813Y42338746D01*
X43431803Y42338754D01*
X43304271Y42412384D01*
X43272351Y42420937D01*
X43162022Y42450500D01*
X43014756Y42450500D01*
X42922949Y42425900D01*
X42872506Y42412384D01*
X42744974Y42338754D01*
X42744964Y42338746D01*
X42640843Y42234625D01*
X42640835Y42234615D01*
X42567205Y42107083D01*
X42567205Y42107082D01*
X42539846Y42004976D01*
X42529089Y41964832D01*
X42529089Y41817569D01*
X42529088Y41817569D01*
X28386479Y41817569D01*
X28422482Y41827216D01*
X28550018Y41900849D01*
X28654151Y42004982D01*
X28727784Y42132518D01*
X28765900Y42274767D01*
X28765900Y42342372D01*
X28785902Y42410493D01*
X28828900Y42451491D01*
X28853901Y42465926D01*
X28931018Y42510449D01*
X29035151Y42614582D01*
X29108784Y42742118D01*
X29146900Y42884367D01*
X29146900Y43031633D01*
X29118300Y43138369D01*
X58152699Y43138369D01*
X58190816Y42996118D01*
X58264446Y42868586D01*
X58264454Y42868576D01*
X58368575Y42764455D01*
X58368580Y42764451D01*
X58368582Y42764449D01*
X58368583Y42764448D01*
X58368585Y42764447D01*
X58405036Y42743402D01*
X58496118Y42690816D01*
X58638367Y42652700D01*
X58638369Y42652700D01*
X58785631Y42652700D01*
X58785633Y42652700D01*
X58927882Y42690816D01*
X59055418Y42764449D01*
X59159551Y42868582D01*
X59233184Y42996118D01*
X59271300Y43138367D01*
X59271300Y43285633D01*
X59233184Y43427882D01*
X59188121Y43505934D01*
X59159553Y43555415D01*
X59159545Y43555425D01*
X59055424Y43659546D01*
X59055414Y43659554D01*
X58927882Y43733184D01*
X58785633Y43771300D01*
X58638367Y43771300D01*
X58543534Y43745890D01*
X58496117Y43733184D01*
X58368585Y43659554D01*
X58368575Y43659546D01*
X58264454Y43555425D01*
X58264446Y43555415D01*
X58190816Y43427883D01*
X58190816Y43427882D01*
X58167894Y43342335D01*
X58152700Y43285632D01*
X58152700Y43138369D01*
X58152699Y43138369D01*
X29118300Y43138369D01*
X29108784Y43173882D01*
X29044265Y43285632D01*
X29035153Y43301415D01*
X29035145Y43301425D01*
X28931024Y43405546D01*
X28931014Y43405554D01*
X28803482Y43479184D01*
X28661233Y43517300D01*
X28513967Y43517300D01*
X28419134Y43491890D01*
X28371717Y43479184D01*
X28244185Y43405554D01*
X28244175Y43405546D01*
X28140054Y43301425D01*
X28140046Y43301415D01*
X28066416Y43173883D01*
X28028300Y43031632D01*
X28028300Y42964028D01*
X28008298Y42895907D01*
X27965300Y42854909D01*
X27863185Y42795954D01*
X27863175Y42795946D01*
X27759054Y42691825D01*
X27759046Y42691815D01*
X27685416Y42564283D01*
X27685416Y42564282D01*
X27648479Y42426431D01*
X27647300Y42422032D01*
X27647300Y42274769D01*
X27647299Y42274769D01*
X3992096Y42274769D01*
X3980980Y42424062D01*
X3980761Y42427754D01*
X3972425Y42614576D01*
X3940116Y43338657D01*
X3940008Y43342269D01*
X3930052Y44012118D01*
X3929070Y44078169D01*
X8571899Y44078169D01*
X8610016Y43935918D01*
X8683646Y43808386D01*
X8683654Y43808376D01*
X8787775Y43704255D01*
X8787780Y43704251D01*
X8787782Y43704249D01*
X8915318Y43630616D01*
X9057567Y43592500D01*
X9057569Y43592500D01*
X9204831Y43592500D01*
X9204833Y43592500D01*
X9347082Y43630616D01*
X9474618Y43704249D01*
X9578751Y43808382D01*
X9652384Y43935918D01*
X9690500Y44078167D01*
X9690500Y44154369D01*
X56120699Y44154369D01*
X56158816Y44012118D01*
X56232446Y43884586D01*
X56232454Y43884576D01*
X56336575Y43780455D01*
X56336580Y43780451D01*
X56336582Y43780449D01*
X56336583Y43780448D01*
X56336585Y43780447D01*
X56386066Y43751879D01*
X56464118Y43706816D01*
X56606367Y43668700D01*
X56606369Y43668700D01*
X56753631Y43668700D01*
X56753633Y43668700D01*
X56895882Y43706816D01*
X57023418Y43780449D01*
X57127551Y43884582D01*
X57201184Y44012118D01*
X57239300Y44154367D01*
X57239300Y44154369D01*
X60184699Y44154369D01*
X60222816Y44012118D01*
X60296446Y43884586D01*
X60296454Y43884576D01*
X60400575Y43780455D01*
X60400580Y43780451D01*
X60400582Y43780449D01*
X60400583Y43780448D01*
X60400585Y43780447D01*
X60450066Y43751879D01*
X60528118Y43706816D01*
X60670367Y43668700D01*
X60670369Y43668700D01*
X60817631Y43668700D01*
X60817633Y43668700D01*
X60959882Y43706816D01*
X61087418Y43780449D01*
X61191551Y43884582D01*
X61265184Y44012118D01*
X61303300Y44154367D01*
X61303300Y44301633D01*
X61265184Y44443882D01*
X61191551Y44571418D01*
X61191549Y44571420D01*
X61191545Y44571425D01*
X61087424Y44675546D01*
X61087414Y44675554D01*
X60959882Y44749184D01*
X60817633Y44787300D01*
X60670367Y44787300D01*
X60575534Y44761890D01*
X60528117Y44749184D01*
X60400585Y44675554D01*
X60400575Y44675546D01*
X60296454Y44571425D01*
X60296446Y44571415D01*
X60222816Y44443883D01*
X60184700Y44301632D01*
X60184700Y44154369D01*
X60184699Y44154369D01*
X57239300Y44154369D01*
X57239300Y44301633D01*
X57201184Y44443882D01*
X57127551Y44571418D01*
X57127549Y44571420D01*
X57127545Y44571425D01*
X57023424Y44675546D01*
X57023414Y44675554D01*
X56895882Y44749184D01*
X56753633Y44787300D01*
X56606367Y44787300D01*
X56511534Y44761890D01*
X56464117Y44749184D01*
X56336585Y44675554D01*
X56336575Y44675546D01*
X56232454Y44571425D01*
X56232446Y44571415D01*
X56158816Y44443883D01*
X56120700Y44301632D01*
X56120700Y44154369D01*
X56120699Y44154369D01*
X9690500Y44154369D01*
X9690500Y44225433D01*
X9652384Y44367682D01*
X9578751Y44495218D01*
X9578749Y44495220D01*
X9578745Y44495225D01*
X9474624Y44599346D01*
X9474614Y44599354D01*
X9347082Y44672984D01*
X9204833Y44711100D01*
X9057567Y44711100D01*
X8962734Y44685690D01*
X8915317Y44672984D01*
X8787785Y44599354D01*
X8787775Y44599346D01*
X8683654Y44495225D01*
X8683646Y44495215D01*
X8610016Y44367683D01*
X8610016Y44367682D01*
X8573612Y44231820D01*
X8571900Y44225432D01*
X8571900Y44078169D01*
X8571899Y44078169D01*
X3929070Y44078169D01*
X3926787Y44231820D01*
X3926465Y44253474D01*
X3926486Y44258319D01*
X3940814Y44865569D01*
X13575699Y44865569D01*
X13613816Y44723318D01*
X13687446Y44595786D01*
X13687454Y44595776D01*
X13791575Y44491655D01*
X13791580Y44491651D01*
X13791582Y44491649D01*
X13919118Y44418016D01*
X14061367Y44379900D01*
X14061369Y44379900D01*
X14208631Y44379900D01*
X14208633Y44379900D01*
X14350882Y44418016D01*
X14478418Y44491649D01*
X14582551Y44595782D01*
X14650324Y44713169D01*
X24650099Y44713169D01*
X24688216Y44570918D01*
X24761846Y44443386D01*
X24761854Y44443376D01*
X24865975Y44339255D01*
X24865980Y44339251D01*
X24865982Y44339249D01*
X24993518Y44265616D01*
X25135767Y44227500D01*
X25135769Y44227500D01*
X25283031Y44227500D01*
X25283033Y44227500D01*
X25425282Y44265616D01*
X25552818Y44339249D01*
X25581252Y44367683D01*
X25612557Y44398987D01*
X25656945Y44443376D01*
X25656951Y44443382D01*
X25730584Y44570918D01*
X25768700Y44713167D01*
X25768700Y44860433D01*
X25730584Y45002682D01*
X25656951Y45130218D01*
X25656949Y45130220D01*
X25656945Y45130225D01*
X25552824Y45234346D01*
X25552814Y45234354D01*
X25425282Y45307984D01*
X25283033Y45346100D01*
X25135767Y45346100D01*
X25040934Y45320690D01*
X24993517Y45307984D01*
X24865985Y45234354D01*
X24865975Y45234346D01*
X24761854Y45130225D01*
X24761846Y45130215D01*
X24688216Y45002683D01*
X24650100Y44860432D01*
X24650100Y44713169D01*
X24650099Y44713169D01*
X14650324Y44713169D01*
X14656184Y44723318D01*
X14694300Y44865567D01*
X14694300Y45012833D01*
X14656184Y45155082D01*
X14582551Y45282618D01*
X14582549Y45282620D01*
X14582545Y45282625D01*
X14478424Y45386746D01*
X14478414Y45386754D01*
X14350882Y45460384D01*
X14208633Y45498500D01*
X14061367Y45498500D01*
X13966534Y45473090D01*
X13919117Y45460384D01*
X13791585Y45386754D01*
X13791575Y45386746D01*
X13687454Y45282625D01*
X13687446Y45282615D01*
X13613816Y45155083D01*
X13607153Y45130215D01*
X13578710Y45024064D01*
X13575700Y45012832D01*
X13575700Y44865569D01*
X13575699Y44865569D01*
X3940814Y44865569D01*
X3945289Y45055209D01*
X3945566Y45061090D01*
X3980322Y45551369D01*
X48449899Y45551369D01*
X48488016Y45409118D01*
X48561646Y45281586D01*
X48561654Y45281576D01*
X48665775Y45177455D01*
X48665780Y45177451D01*
X48665782Y45177449D01*
X48793318Y45103816D01*
X48935567Y45065700D01*
X48935569Y45065700D01*
X49082831Y45065700D01*
X49082833Y45065700D01*
X49225082Y45103816D01*
X49352618Y45177449D01*
X49456751Y45281582D01*
X49530384Y45409118D01*
X49568500Y45551367D01*
X49568500Y45698633D01*
X49530384Y45840882D01*
X49456751Y45968418D01*
X49456749Y45968420D01*
X49456745Y45968425D01*
X49352624Y46072546D01*
X49352614Y46072554D01*
X49225082Y46146184D01*
X49082833Y46184300D01*
X48935567Y46184300D01*
X48840734Y46158890D01*
X48793317Y46146184D01*
X48665785Y46072554D01*
X48665775Y46072546D01*
X48561654Y45968425D01*
X48561646Y45968415D01*
X48488016Y45840883D01*
X48449900Y45698632D01*
X48449900Y45551369D01*
X48449899Y45551369D01*
X3980322Y45551369D01*
X4001903Y45855787D01*
X4002464Y45861698D01*
X4043949Y46211769D01*
X43395299Y46211769D01*
X43433416Y46069518D01*
X43507046Y45941986D01*
X43507054Y45941976D01*
X43611175Y45837855D01*
X43611180Y45837851D01*
X43611182Y45837849D01*
X43738718Y45764216D01*
X43880967Y45726100D01*
X43880969Y45726100D01*
X44028231Y45726100D01*
X44028233Y45726100D01*
X44170482Y45764216D01*
X44298018Y45837849D01*
X44402151Y45941982D01*
X44475784Y46069518D01*
X44513900Y46211767D01*
X44513900Y46359033D01*
X44475784Y46501282D01*
X44402151Y46628818D01*
X44402149Y46628820D01*
X44402145Y46628825D01*
X44298024Y46732946D01*
X44298014Y46732954D01*
X44170482Y46806584D01*
X44028233Y46844700D01*
X43880967Y46844700D01*
X43786134Y46819290D01*
X43738717Y46806584D01*
X43611185Y46732954D01*
X43611175Y46732946D01*
X43507054Y46628825D01*
X43507046Y46628815D01*
X43433416Y46501283D01*
X43395300Y46359032D01*
X43395300Y46211769D01*
X43395299Y46211769D01*
X4043949Y46211769D01*
X4096212Y46652786D01*
X4097043Y46658618D01*
X4228009Y47444466D01*
X4229115Y47450260D01*
X4396999Y48229054D01*
X4398387Y48234824D01*
X4528997Y48726786D01*
X4602800Y49004778D01*
X4604447Y49010439D01*
X4844974Y49769977D01*
X4846873Y49775514D01*
X5122952Y50522855D01*
X5125119Y50528321D01*
X5158044Y50605969D01*
X18681099Y50605969D01*
X18719216Y50463718D01*
X18792846Y50336186D01*
X18792854Y50336176D01*
X18896975Y50232055D01*
X18896980Y50232051D01*
X18896982Y50232049D01*
X19024518Y50158416D01*
X19166767Y50120300D01*
X19166769Y50120300D01*
X19314031Y50120300D01*
X19314033Y50120300D01*
X19456282Y50158416D01*
X19583818Y50232049D01*
X19687951Y50336182D01*
X19761584Y50463718D01*
X19799700Y50605967D01*
X19799700Y50753233D01*
X19761584Y50895482D01*
X19687951Y51023018D01*
X19687949Y51023020D01*
X19687945Y51023025D01*
X19583824Y51127146D01*
X19583814Y51127154D01*
X19456282Y51200784D01*
X19314033Y51238900D01*
X19166767Y51238900D01*
X19071934Y51213490D01*
X19024517Y51200784D01*
X18896985Y51127154D01*
X18896975Y51127146D01*
X18792854Y51023025D01*
X18792846Y51023015D01*
X18719216Y50895483D01*
X18702894Y50834569D01*
X18686009Y50771551D01*
X18681100Y50753232D01*
X18681100Y50605969D01*
X18681099Y50605969D01*
X5158044Y50605969D01*
X5436132Y51261788D01*
X5438570Y51267178D01*
X5447644Y51286047D01*
X5609180Y51621969D01*
X21500499Y51621969D01*
X21538616Y51479718D01*
X21612246Y51352186D01*
X21612254Y51352176D01*
X21716375Y51248055D01*
X21716380Y51248051D01*
X21716382Y51248049D01*
X21716383Y51248048D01*
X21716385Y51248047D01*
X21765866Y51219479D01*
X21843918Y51174416D01*
X21986167Y51136300D01*
X21986169Y51136300D01*
X22133431Y51136300D01*
X22133433Y51136300D01*
X22275682Y51174416D01*
X22403218Y51248049D01*
X22507351Y51352182D01*
X22535840Y51401526D01*
X25425700Y51401526D01*
X25425700Y51227674D01*
X25442108Y51124082D01*
X25452898Y51055958D01*
X25505039Y50895483D01*
X25506620Y50890619D01*
X25585547Y50735716D01*
X25585549Y50735713D01*
X25687736Y50595065D01*
X25810664Y50472137D01*
X25810667Y50472135D01*
X25951316Y50369947D01*
X26106219Y50291020D01*
X26271562Y50237297D01*
X26443274Y50210100D01*
X26443277Y50210100D01*
X26617123Y50210100D01*
X26617126Y50210100D01*
X26788838Y50237297D01*
X26829070Y50250369D01*
X36892899Y50250369D01*
X36931016Y50108118D01*
X37004646Y49980586D01*
X37004654Y49980576D01*
X37108775Y49876455D01*
X37108780Y49876451D01*
X37108782Y49876449D01*
X37236318Y49802816D01*
X37378567Y49764700D01*
X37378569Y49764700D01*
X37525831Y49764700D01*
X37525833Y49764700D01*
X37668082Y49802816D01*
X37795618Y49876449D01*
X37899751Y49980582D01*
X37973384Y50108118D01*
X38011500Y50250367D01*
X38011500Y50397633D01*
X37973384Y50539882D01*
X37899751Y50667418D01*
X37899749Y50667420D01*
X37899745Y50667425D01*
X37795624Y50771546D01*
X37795614Y50771554D01*
X37668082Y50845184D01*
X37525833Y50883300D01*
X37378567Y50883300D01*
X37283734Y50857890D01*
X37236317Y50845184D01*
X37108785Y50771554D01*
X37108775Y50771546D01*
X37004654Y50667425D01*
X37004646Y50667415D01*
X36931016Y50539883D01*
X36892900Y50397632D01*
X36892900Y50250369D01*
X36892899Y50250369D01*
X26829070Y50250369D01*
X26954181Y50291020D01*
X27109084Y50369947D01*
X27249733Y50472135D01*
X27372665Y50595067D01*
X27474853Y50735716D01*
X27525221Y50834569D01*
X29196699Y50834569D01*
X29234816Y50692318D01*
X29308446Y50564786D01*
X29308454Y50564776D01*
X29412575Y50460655D01*
X29412580Y50460651D01*
X29412582Y50460649D01*
X29540118Y50387016D01*
X29682367Y50348900D01*
X29682369Y50348900D01*
X29829631Y50348900D01*
X29829633Y50348900D01*
X29971882Y50387016D01*
X30099418Y50460649D01*
X30110906Y50472137D01*
X30133757Y50494987D01*
X30203545Y50564776D01*
X30203551Y50564782D01*
X30277184Y50692318D01*
X30315300Y50834567D01*
X30315300Y50981833D01*
X30277184Y51124082D01*
X30203551Y51251618D01*
X30203549Y51251620D01*
X30203545Y51251625D01*
X30099424Y51355746D01*
X30099414Y51355754D01*
X29971882Y51429384D01*
X29829633Y51467500D01*
X29682367Y51467500D01*
X29587534Y51442090D01*
X29540117Y51429384D01*
X29412585Y51355754D01*
X29412575Y51355746D01*
X29308454Y51251625D01*
X29308446Y51251615D01*
X29234816Y51124083D01*
X29196700Y50981832D01*
X29196700Y50834569D01*
X29196699Y50834569D01*
X27525221Y50834569D01*
X27553780Y50890619D01*
X27607503Y51055962D01*
X27634700Y51227674D01*
X27634700Y51401526D01*
X27607503Y51573238D01*
X27553780Y51738581D01*
X27474853Y51893484D01*
X27404429Y51990414D01*
X27372663Y52034136D01*
X27249735Y52157064D01*
X27109087Y52259251D01*
X27109086Y52259252D01*
X27109084Y52259253D01*
X26954181Y52338180D01*
X26954178Y52338181D01*
X26954176Y52338182D01*
X26788842Y52391902D01*
X26788840Y52391903D01*
X26788838Y52391903D01*
X26617126Y52419100D01*
X26443274Y52419100D01*
X26271562Y52391903D01*
X26271560Y52391903D01*
X26271557Y52391902D01*
X26106223Y52338182D01*
X26106217Y52338179D01*
X25951312Y52259251D01*
X25810664Y52157064D01*
X25687736Y52034136D01*
X25585549Y51893488D01*
X25506621Y51738583D01*
X25506618Y51738577D01*
X25452898Y51573243D01*
X25452897Y51573240D01*
X25452897Y51573238D01*
X25425700Y51401526D01*
X22535840Y51401526D01*
X22580984Y51479718D01*
X22619100Y51621967D01*
X22619100Y51769233D01*
X22580984Y51911482D01*
X22524128Y52009960D01*
X22507353Y52039015D01*
X22507345Y52039025D01*
X22403224Y52143146D01*
X22403214Y52143154D01*
X22275682Y52216784D01*
X22133433Y52254900D01*
X21986167Y52254900D01*
X21891334Y52229490D01*
X21843917Y52216784D01*
X21716385Y52143154D01*
X21716375Y52143146D01*
X21612254Y52039025D01*
X21612246Y52039015D01*
X21538616Y51911483D01*
X21538616Y51911482D01*
X21504581Y51784461D01*
X21500500Y51769232D01*
X21500500Y51621969D01*
X21500499Y51621969D01*
X5609180Y51621969D01*
X5783829Y51985160D01*
X5786490Y51990374D01*
X6165228Y52691272D01*
X6168170Y52696422D01*
X6200536Y52750100D01*
X6579533Y53378659D01*
X6582697Y53383635D01*
X6956056Y53941526D01*
X25425700Y53941526D01*
X25425700Y53767674D01*
X25452897Y53595964D01*
X25452898Y53595958D01*
X25506538Y53430869D01*
X25506620Y53430619D01*
X25574005Y53298369D01*
X25585549Y53275713D01*
X25687736Y53135065D01*
X25810664Y53012137D01*
X25810667Y53012135D01*
X25951316Y52909947D01*
X26106219Y52831020D01*
X26271562Y52777297D01*
X26443274Y52750100D01*
X26443277Y52750100D01*
X26617123Y52750100D01*
X26617126Y52750100D01*
X26788838Y52777297D01*
X26954181Y52831020D01*
X27109084Y52909947D01*
X27249733Y53012135D01*
X27372665Y53135067D01*
X27474853Y53275716D01*
X27553780Y53430619D01*
X27594978Y53557415D01*
X28538727Y53557415D01*
X28538727Y53327300D01*
X28992728Y53327300D01*
X28992728Y52819300D01*
X28538727Y52819300D01*
X28538727Y52589186D01*
X28571546Y52424197D01*
X28571547Y52424194D01*
X28635922Y52268780D01*
X28729381Y52128908D01*
X28729386Y52128902D01*
X28848328Y52009960D01*
X28848334Y52009955D01*
X28988205Y51916496D01*
X29138726Y51854148D01*
X29138727Y51854148D01*
X29138727Y52361629D01*
X29147122Y52353234D01*
X29238333Y52300573D01*
X29340066Y52273314D01*
X29445388Y52273314D01*
X29547121Y52300573D01*
X29638332Y52353234D01*
X29646727Y52361629D01*
X29646727Y51854148D01*
X29797248Y51916496D01*
X29937119Y52009955D01*
X29937125Y52009960D01*
X30056067Y52128902D01*
X30056072Y52128908D01*
X30149531Y52268780D01*
X30213906Y52424194D01*
X30213907Y52424197D01*
X30246726Y52589186D01*
X30246727Y52589190D01*
X30246727Y52819300D01*
X29792726Y52819300D01*
X29792726Y53327300D01*
X30223783Y53327300D01*
X30291904Y53307298D01*
X30332902Y53264300D01*
X30359648Y53217974D01*
X30359656Y53217964D01*
X30467390Y53110230D01*
X30467395Y53110226D01*
X30467397Y53110224D01*
X30467398Y53110223D01*
X30467400Y53110222D01*
X30599352Y53034039D01*
X30599354Y53034039D01*
X30599357Y53034037D01*
X30746540Y52994600D01*
X30746542Y52994600D01*
X30898912Y52994600D01*
X30898914Y52994600D01*
X31046097Y53034037D01*
X31046100Y53034039D01*
X31046101Y53034039D01*
X31130697Y53082881D01*
X31178057Y53110224D01*
X31285803Y53217970D01*
X31332221Y53298369D01*
X31346886Y53323769D01*
X32879699Y53323769D01*
X32917816Y53181518D01*
X32991446Y53053986D01*
X32991454Y53053976D01*
X33095575Y52949855D01*
X33095580Y52949851D01*
X33095582Y52949849D01*
X33095583Y52949848D01*
X33095585Y52949847D01*
X33145066Y52921279D01*
X33223118Y52876216D01*
X33365367Y52838100D01*
X33365369Y52838100D01*
X33512631Y52838100D01*
X33512633Y52838100D01*
X33654882Y52876216D01*
X33782418Y52949849D01*
X33871081Y53038513D01*
X33933391Y53072536D01*
X34004207Y53067472D01*
X34050923Y53032936D01*
X34052409Y53034421D01*
X34162375Y52924455D01*
X34162380Y52924451D01*
X34162382Y52924449D01*
X34289918Y52850816D01*
X34432167Y52812700D01*
X34432169Y52812700D01*
X34579431Y52812700D01*
X34579433Y52812700D01*
X34721682Y52850816D01*
X34849218Y52924449D01*
X34953351Y53028582D01*
X35026984Y53156118D01*
X35065100Y53298367D01*
X35065100Y53445633D01*
X35026984Y53587882D01*
X34991417Y53649486D01*
X34991416Y53649487D01*
X36044027Y53649487D01*
X36044027Y53606719D01*
X36044027Y53497113D01*
X36061844Y53430619D01*
X36083465Y53349926D01*
X36159648Y53217974D01*
X36159656Y53217964D01*
X36267390Y53110230D01*
X36267395Y53110226D01*
X36267397Y53110224D01*
X36267398Y53110223D01*
X36267400Y53110222D01*
X36399352Y53034039D01*
X36399354Y53034039D01*
X36399357Y53034037D01*
X36546540Y52994600D01*
X36546542Y52994600D01*
X36698912Y52994600D01*
X36698914Y52994600D01*
X36846097Y53034037D01*
X36846100Y53034039D01*
X36846101Y53034039D01*
X36930697Y53082881D01*
X36978057Y53110224D01*
X37085803Y53217970D01*
X37097280Y53237851D01*
X37112552Y53264300D01*
X37163935Y53313293D01*
X37221671Y53327300D01*
X37652728Y53327300D01*
X37652728Y52819300D01*
X37198727Y52819300D01*
X37198727Y52589186D01*
X37231546Y52424197D01*
X37231547Y52424194D01*
X37295922Y52268780D01*
X37389381Y52128908D01*
X37389386Y52128902D01*
X37508328Y52009960D01*
X37508334Y52009955D01*
X37648205Y51916496D01*
X37798726Y51854148D01*
X37798727Y51854148D01*
X37798727Y52361604D01*
X37807122Y52353209D01*
X37898333Y52300548D01*
X38000066Y52273289D01*
X38105388Y52273289D01*
X38207121Y52300548D01*
X38298332Y52353209D01*
X38306727Y52361604D01*
X38306727Y51854148D01*
X38457248Y51916496D01*
X38597119Y52009955D01*
X38597125Y52009960D01*
X38716067Y52128902D01*
X38716072Y52128908D01*
X38809531Y52268780D01*
X38873906Y52424194D01*
X38873907Y52424198D01*
X38879094Y52450274D01*
X56101551Y52450274D01*
X56101551Y52276422D01*
X56128748Y52104710D01*
X56128749Y52104706D01*
X56166735Y51987795D01*
X56182471Y51939367D01*
X56261398Y51784464D01*
X56261400Y51784461D01*
X56363587Y51643813D01*
X56486515Y51520885D01*
X56557272Y51469477D01*
X56627167Y51418695D01*
X56782070Y51339768D01*
X56947413Y51286045D01*
X57119125Y51258848D01*
X57119128Y51258848D01*
X57292974Y51258848D01*
X57292977Y51258848D01*
X57464689Y51286045D01*
X57630032Y51339768D01*
X57784935Y51418695D01*
X57925584Y51520883D01*
X58048516Y51643815D01*
X58150704Y51784464D01*
X58229631Y51939367D01*
X58283354Y52104710D01*
X58310551Y52276422D01*
X58310551Y52450274D01*
X58283354Y52621986D01*
X58229631Y52787329D01*
X58150704Y52942232D01*
X58084803Y53032936D01*
X58048514Y53082884D01*
X57925586Y53205812D01*
X57784938Y53307999D01*
X57784937Y53308000D01*
X57784935Y53308001D01*
X57630032Y53386928D01*
X57630029Y53386929D01*
X57630027Y53386930D01*
X57464693Y53440650D01*
X57464691Y53440651D01*
X57464689Y53440651D01*
X57292977Y53467848D01*
X57119125Y53467848D01*
X56947413Y53440651D01*
X56947411Y53440651D01*
X56947408Y53440650D01*
X56782074Y53386930D01*
X56782068Y53386927D01*
X56627163Y53307999D01*
X56486515Y53205812D01*
X56363587Y53082884D01*
X56261400Y52942236D01*
X56182472Y52787331D01*
X56182469Y52787325D01*
X56128749Y52621991D01*
X56128748Y52621988D01*
X56128748Y52621986D01*
X56101551Y52450274D01*
X38879094Y52450274D01*
X38884969Y52479806D01*
X38884969Y52479807D01*
X38906726Y52589186D01*
X38906727Y52589190D01*
X38906727Y52819300D01*
X38452726Y52819300D01*
X38452726Y53327300D01*
X38906727Y53327300D01*
X38906727Y53557411D01*
X38906726Y53557415D01*
X38873907Y53722404D01*
X38873906Y53722407D01*
X38809531Y53877821D01*
X38716072Y54017693D01*
X38716067Y54017699D01*
X38597125Y54136641D01*
X38597119Y54136646D01*
X38563064Y54159401D01*
X53948433Y54159401D01*
X53948433Y54159400D01*
X53968184Y54060100D01*
X54010235Y53997166D01*
X54010238Y53997162D01*
X55247760Y52759641D01*
X55247763Y52759639D01*
X55247766Y52759636D01*
X55247769Y52759634D01*
X55310697Y52717586D01*
X55310699Y52717585D01*
X55410000Y52697833D01*
X55509301Y52717585D01*
X55572234Y52759635D01*
X56809764Y53997166D01*
X56851815Y54060099D01*
X56871567Y54159400D01*
X56851815Y54258701D01*
X56809765Y54321634D01*
X56809764Y54321635D01*
X56809761Y54321639D01*
X55572239Y55559160D01*
X55572230Y55559167D01*
X55509302Y55601215D01*
X55410000Y55620967D01*
X55310699Y55601216D01*
X55247765Y55559165D01*
X55247761Y55559162D01*
X54010240Y54321640D01*
X54010233Y54321631D01*
X53968185Y54258703D01*
X53948433Y54159401D01*
X38563064Y54159401D01*
X38457247Y54230105D01*
X38306727Y54292453D01*
X38306727Y53784996D01*
X38298332Y53793391D01*
X38207121Y53846052D01*
X38105388Y53873311D01*
X38000066Y53873311D01*
X37898333Y53846052D01*
X37807122Y53793391D01*
X37798727Y53784996D01*
X37798727Y54292453D01*
X37648206Y54230105D01*
X37508334Y54136646D01*
X37508328Y54136641D01*
X37389386Y54017699D01*
X37389381Y54017692D01*
X37311510Y53901151D01*
X37257033Y53855623D01*
X37186589Y53846776D01*
X37122545Y53877417D01*
X37097626Y53908152D01*
X37091603Y53918584D01*
X37085803Y53928630D01*
X37085800Y53928633D01*
X37085797Y53928637D01*
X36978063Y54036371D01*
X36978053Y54036379D01*
X36846101Y54112562D01*
X36828714Y54117221D01*
X36698914Y54152000D01*
X36546540Y54152000D01*
X36489219Y54136641D01*
X36399352Y54112562D01*
X36267400Y54036379D01*
X36267390Y54036371D01*
X36159656Y53928637D01*
X36159648Y53928627D01*
X36083465Y53796675D01*
X36068499Y53740818D01*
X36044027Y53649487D01*
X34991416Y53649487D01*
X34953355Y53715412D01*
X34953352Y53715415D01*
X34953351Y53715418D01*
X34953348Y53715421D01*
X34953345Y53715425D01*
X34849224Y53819546D01*
X34849214Y53819554D01*
X34721682Y53893184D01*
X34691949Y53901151D01*
X34579433Y53931300D01*
X34432167Y53931300D01*
X34337334Y53905890D01*
X34289917Y53893184D01*
X34162385Y53819554D01*
X34162379Y53819549D01*
X34073719Y53730889D01*
X34011407Y53696864D01*
X33940591Y53701930D01*
X33893877Y53736466D01*
X33892391Y53734979D01*
X33782424Y53844946D01*
X33782414Y53844954D01*
X33654882Y53918584D01*
X33512633Y53956700D01*
X33365367Y53956700D01*
X33270574Y53931300D01*
X33223117Y53918584D01*
X33095585Y53844954D01*
X33095575Y53844946D01*
X32991454Y53740825D01*
X32991446Y53740815D01*
X32917816Y53613283D01*
X32879700Y53471032D01*
X32879700Y53323769D01*
X32879699Y53323769D01*
X31346886Y53323769D01*
X31361988Y53349926D01*
X31361988Y53349927D01*
X31361990Y53349930D01*
X31401427Y53497113D01*
X31401427Y53649487D01*
X31361990Y53796670D01*
X31361988Y53796673D01*
X31361988Y53796675D01*
X31285805Y53928627D01*
X31285804Y53928629D01*
X31285803Y53928630D01*
X31285801Y53928632D01*
X31285797Y53928637D01*
X31178063Y54036371D01*
X31178053Y54036379D01*
X31046101Y54112562D01*
X31028714Y54117221D01*
X30898914Y54152000D01*
X30746540Y54152000D01*
X30689219Y54136641D01*
X30599352Y54112562D01*
X30467400Y54036379D01*
X30467390Y54036371D01*
X30359656Y53928637D01*
X30359648Y53928627D01*
X30347825Y53908149D01*
X30296440Y53859158D01*
X30226726Y53845724D01*
X30160816Y53872113D01*
X30133943Y53901151D01*
X30056072Y54017693D01*
X30056067Y54017699D01*
X29937125Y54136641D01*
X29937119Y54136646D01*
X29797247Y54230105D01*
X29646727Y54292453D01*
X29646727Y53784971D01*
X29638332Y53793366D01*
X29547121Y53846027D01*
X29445388Y53873286D01*
X29340066Y53873286D01*
X29238333Y53846027D01*
X29147122Y53793366D01*
X29138727Y53784971D01*
X29138727Y54292453D01*
X28988206Y54230105D01*
X28848334Y54136646D01*
X28848328Y54136641D01*
X28729386Y54017699D01*
X28729381Y54017693D01*
X28635922Y53877821D01*
X28571547Y53722407D01*
X28571546Y53722404D01*
X28538727Y53557415D01*
X27594978Y53557415D01*
X27607503Y53595962D01*
X27634700Y53767674D01*
X27634700Y53941526D01*
X27607503Y54113238D01*
X27553780Y54278581D01*
X27474853Y54433484D01*
X27372665Y54574133D01*
X27372663Y54574136D01*
X27249735Y54697064D01*
X27109087Y54799251D01*
X27109086Y54799252D01*
X27109084Y54799253D01*
X26954181Y54878180D01*
X26954178Y54878181D01*
X26954176Y54878182D01*
X26788842Y54931902D01*
X26788840Y54931903D01*
X26788838Y54931903D01*
X26617126Y54959100D01*
X26443274Y54959100D01*
X26271562Y54931903D01*
X26271560Y54931903D01*
X26271557Y54931902D01*
X26106223Y54878182D01*
X26106217Y54878179D01*
X25951312Y54799251D01*
X25810664Y54697064D01*
X25687736Y54574136D01*
X25585549Y54433488D01*
X25506621Y54278583D01*
X25506618Y54278577D01*
X25452898Y54113243D01*
X25452897Y54113240D01*
X25452897Y54113238D01*
X25425700Y53941526D01*
X6956056Y53941526D01*
X7025801Y54045743D01*
X7029183Y54050546D01*
X7502999Y54690985D01*
X7506640Y54695670D01*
X7591114Y54799251D01*
X8010141Y55313059D01*
X8013942Y55317501D01*
X8546045Y55910502D01*
X8550084Y55914794D01*
X9109513Y56481988D01*
X9113740Y56486077D01*
X9402838Y56752769D01*
X14363099Y56752769D01*
X14401216Y56610518D01*
X14474846Y56482986D01*
X14474854Y56482976D01*
X14578975Y56378855D01*
X14578980Y56378851D01*
X14578982Y56378849D01*
X14706518Y56305216D01*
X14848767Y56267100D01*
X14848769Y56267100D01*
X14996031Y56267100D01*
X14996033Y56267100D01*
X15138282Y56305216D01*
X15265818Y56378849D01*
X15369951Y56482982D01*
X15437724Y56600369D01*
X20306699Y56600369D01*
X20344816Y56458118D01*
X20418446Y56330586D01*
X20418454Y56330576D01*
X20522575Y56226455D01*
X20522580Y56226451D01*
X20522582Y56226449D01*
X20650118Y56152816D01*
X20792367Y56114700D01*
X20792369Y56114700D01*
X20939631Y56114700D01*
X20939633Y56114700D01*
X21081882Y56152816D01*
X21209418Y56226449D01*
X21313551Y56330582D01*
X21387184Y56458118D01*
X21425300Y56600367D01*
X21425300Y56600369D01*
X21830699Y56600369D01*
X21868816Y56458118D01*
X21942446Y56330586D01*
X21942454Y56330576D01*
X22046575Y56226455D01*
X22046580Y56226451D01*
X22046582Y56226449D01*
X22046583Y56226448D01*
X22046585Y56226447D01*
X22121735Y56183060D01*
X22174116Y56152817D01*
X22181270Y56148687D01*
X22179660Y56145900D01*
X22223145Y56110853D01*
X22245561Y56043488D01*
X22227998Y55974698D01*
X22180561Y55930540D01*
X22181270Y55929313D01*
X22046585Y55851554D01*
X22046575Y55851546D01*
X21942454Y55747425D01*
X21942446Y55747415D01*
X21868816Y55619883D01*
X21868816Y55619882D01*
X21831310Y55479907D01*
X21830700Y55477632D01*
X21830700Y55330369D01*
X21830699Y55330369D01*
X21868816Y55188118D01*
X21942446Y55060586D01*
X21942454Y55060576D01*
X22046575Y54956455D01*
X22046580Y54956451D01*
X22046582Y54956449D01*
X22174118Y54882816D01*
X22316367Y54844700D01*
X22316369Y54844700D01*
X22463631Y54844700D01*
X22463633Y54844700D01*
X22605882Y54882816D01*
X22733418Y54956449D01*
X22837551Y55060582D01*
X22911184Y55188118D01*
X22949300Y55330367D01*
X22949300Y55477633D01*
X22911184Y55619882D01*
X22866121Y55697934D01*
X22837553Y55747415D01*
X22837545Y55747425D01*
X22733424Y55851546D01*
X22733414Y55851554D01*
X22598730Y55929313D01*
X22600341Y55932104D01*
X22556872Y55967120D01*
X22534439Y56034479D01*
X22551984Y56103274D01*
X22599433Y56147468D01*
X22598730Y56148687D01*
X22605882Y56152816D01*
X22733418Y56226449D01*
X22837551Y56330582D01*
X22911184Y56458118D01*
X22949300Y56600367D01*
X22949300Y56600369D01*
X23354699Y56600369D01*
X23392816Y56458118D01*
X23466446Y56330586D01*
X23466454Y56330576D01*
X23570575Y56226455D01*
X23570580Y56226451D01*
X23570582Y56226449D01*
X23570583Y56226448D01*
X23570585Y56226447D01*
X23645735Y56183060D01*
X23698116Y56152817D01*
X23705270Y56148687D01*
X23703660Y56145900D01*
X23747145Y56110853D01*
X23769561Y56043488D01*
X23751998Y55974698D01*
X23704561Y55930540D01*
X23705270Y55929313D01*
X23570585Y55851554D01*
X23570575Y55851546D01*
X23466454Y55747425D01*
X23466446Y55747415D01*
X23392816Y55619883D01*
X23392816Y55619882D01*
X23355310Y55479907D01*
X23354700Y55477632D01*
X23354700Y55330369D01*
X23354699Y55330369D01*
X23392816Y55188118D01*
X23466446Y55060586D01*
X23466454Y55060576D01*
X23570575Y54956455D01*
X23570580Y54956451D01*
X23570582Y54956449D01*
X23698118Y54882816D01*
X23840367Y54844700D01*
X23840369Y54844700D01*
X23987631Y54844700D01*
X23987633Y54844700D01*
X24129882Y54882816D01*
X24257418Y54956449D01*
X24361551Y55060582D01*
X24435184Y55188118D01*
X24473300Y55330367D01*
X24473300Y55477633D01*
X24435184Y55619882D01*
X24390121Y55697934D01*
X24361553Y55747415D01*
X24361545Y55747425D01*
X24257424Y55851546D01*
X24257414Y55851554D01*
X24122730Y55929313D01*
X24124341Y55932104D01*
X24080872Y55967120D01*
X24058439Y56034479D01*
X24075984Y56103274D01*
X24123433Y56147468D01*
X24122730Y56148687D01*
X24129882Y56152816D01*
X24257418Y56226449D01*
X24257424Y56226455D01*
X24312856Y56281886D01*
X24361545Y56330576D01*
X24361551Y56330582D01*
X24435184Y56458118D01*
X24473300Y56600367D01*
X24473300Y56747633D01*
X24435184Y56889882D01*
X24381567Y56982749D01*
X24361553Y57017415D01*
X24361545Y57017425D01*
X24257424Y57121546D01*
X24257414Y57121554D01*
X24179238Y57166688D01*
X24168856Y57172682D01*
X24129882Y57195184D01*
X23987633Y57233300D01*
X23840367Y57233300D01*
X23745534Y57207890D01*
X23698117Y57195184D01*
X23570585Y57121554D01*
X23570575Y57121546D01*
X23466454Y57017425D01*
X23466446Y57017415D01*
X23392816Y56889883D01*
X23387270Y56869186D01*
X23367312Y56794699D01*
X23354700Y56747632D01*
X23354700Y56600369D01*
X23354699Y56600369D01*
X22949300Y56600369D01*
X22949300Y56747633D01*
X22911184Y56889882D01*
X22857567Y56982749D01*
X22837553Y57017415D01*
X22837545Y57017425D01*
X22733424Y57121546D01*
X22733414Y57121554D01*
X22605882Y57195184D01*
X22601374Y57196392D01*
X22463633Y57233300D01*
X22316367Y57233300D01*
X22221534Y57207890D01*
X22174117Y57195184D01*
X22046585Y57121554D01*
X22046575Y57121546D01*
X21942454Y57017425D01*
X21942446Y57017415D01*
X21868816Y56889883D01*
X21863270Y56869186D01*
X21843312Y56794699D01*
X21830700Y56747632D01*
X21830700Y56600369D01*
X21830699Y56600369D01*
X21425300Y56600369D01*
X21425300Y56747633D01*
X21387184Y56889882D01*
X21333567Y56982749D01*
X21313553Y57017415D01*
X21313545Y57017425D01*
X21209424Y57121546D01*
X21209414Y57121554D01*
X21081882Y57195184D01*
X21077374Y57196392D01*
X20939633Y57233300D01*
X20792367Y57233300D01*
X20697534Y57207890D01*
X20650117Y57195184D01*
X20522585Y57121554D01*
X20522575Y57121546D01*
X20418454Y57017425D01*
X20418446Y57017415D01*
X20344816Y56889883D01*
X20339270Y56869186D01*
X20319312Y56794699D01*
X20306700Y56747632D01*
X20306700Y56600369D01*
X20306699Y56600369D01*
X15437724Y56600369D01*
X15443584Y56610518D01*
X15481700Y56752767D01*
X15481700Y56900033D01*
X15443584Y57042282D01*
X15369951Y57169818D01*
X15369949Y57169820D01*
X15369945Y57169825D01*
X15270147Y57269623D01*
X25426200Y57269623D01*
X25426200Y56648600D01*
X26099497Y56648600D01*
X26064275Y56587593D01*
X26030200Y56460426D01*
X26030200Y56328774D01*
X26064275Y56201607D01*
X26099497Y56140600D01*
X25426201Y56140600D01*
X25426201Y55519578D01*
X25440937Y55445495D01*
X25440937Y55445493D01*
X25497075Y55361476D01*
X25581093Y55305338D01*
X25581094Y55305337D01*
X25655180Y55290601D01*
X26276200Y55290601D01*
X26276200Y55963898D01*
X26337207Y55928675D01*
X26464374Y55894600D01*
X26596026Y55894600D01*
X26723193Y55928675D01*
X26784200Y55963898D01*
X26784200Y55290601D01*
X27405214Y55290601D01*
X27405222Y55290602D01*
X27479305Y55305338D01*
X27479307Y55305338D01*
X27563324Y55361476D01*
X27619462Y55445494D01*
X27619463Y55445495D01*
X27634199Y55519578D01*
X27634200Y55519585D01*
X27634200Y55886369D01*
X31070699Y55886369D01*
X31108816Y55744118D01*
X31182446Y55616586D01*
X31182454Y55616576D01*
X31286575Y55512455D01*
X31286580Y55512451D01*
X31286582Y55512449D01*
X31286583Y55512448D01*
X31286585Y55512447D01*
X31313955Y55496645D01*
X31414118Y55438816D01*
X31556367Y55400700D01*
X31556369Y55400700D01*
X31703631Y55400700D01*
X31703633Y55400700D01*
X31845882Y55438816D01*
X31917055Y55479909D01*
X31986046Y55496645D01*
X32053138Y55473425D01*
X32097026Y55417618D01*
X32103775Y55346943D01*
X32080019Y55294090D01*
X32077050Y55290221D01*
X32003416Y55162683D01*
X32003416Y55162682D01*
X31976057Y55060576D01*
X31965300Y55020432D01*
X31965300Y54873169D01*
X31965299Y54873169D01*
X32003416Y54730918D01*
X32077046Y54603386D01*
X32077054Y54603376D01*
X32181175Y54499255D01*
X32181180Y54499251D01*
X32181182Y54499249D01*
X32308718Y54425616D01*
X32450967Y54387500D01*
X32450969Y54387500D01*
X32598231Y54387500D01*
X32598233Y54387500D01*
X32740482Y54425616D01*
X32868018Y54499249D01*
X32972151Y54603382D01*
X33045784Y54730918D01*
X33083900Y54873167D01*
X33083900Y54873169D01*
X34454499Y54873169D01*
X34492616Y54730918D01*
X34566246Y54603386D01*
X34566254Y54603376D01*
X34670375Y54499255D01*
X34670380Y54499251D01*
X34670382Y54499249D01*
X34797918Y54425616D01*
X34940167Y54387500D01*
X34940169Y54387500D01*
X35087431Y54387500D01*
X35087433Y54387500D01*
X35229682Y54425616D01*
X35357218Y54499249D01*
X35461351Y54603382D01*
X35534984Y54730918D01*
X35573100Y54873167D01*
X35573100Y55020433D01*
X35534984Y55162682D01*
X35461351Y55290218D01*
X35459076Y55294159D01*
X35442338Y55363155D01*
X35465559Y55430246D01*
X35521366Y55474133D01*
X35592041Y55480882D01*
X35631190Y55466280D01*
X35644118Y55458816D01*
X35786367Y55420700D01*
X35786369Y55420700D01*
X35933631Y55420700D01*
X35933633Y55420700D01*
X36075882Y55458816D01*
X36203418Y55532449D01*
X36307551Y55636582D01*
X36381184Y55764118D01*
X36419300Y55906367D01*
X36419300Y56053633D01*
X36381184Y56195882D01*
X36318060Y56305216D01*
X36307553Y56323415D01*
X36307545Y56323425D01*
X36203424Y56427546D01*
X36203414Y56427554D01*
X36075882Y56501184D01*
X35933633Y56539300D01*
X35786367Y56539300D01*
X35711727Y56519300D01*
X35644117Y56501184D01*
X35516585Y56427554D01*
X35516575Y56427546D01*
X35412454Y56323425D01*
X35412446Y56323415D01*
X35338816Y56195883D01*
X35328746Y56158301D01*
X35314002Y56103274D01*
X35300700Y56053632D01*
X35300700Y55906369D01*
X35300699Y55906369D01*
X35306059Y55886367D01*
X35338816Y55764118D01*
X35348944Y55746576D01*
X35414724Y55632641D01*
X35431461Y55563646D01*
X35408240Y55496554D01*
X35352433Y55452667D01*
X35281758Y55445919D01*
X35242608Y55460522D01*
X35229682Y55467984D01*
X35229681Y55467985D01*
X35229680Y55467985D01*
X35163663Y55485674D01*
X35087433Y55506100D01*
X34940167Y55506100D01*
X34846053Y55480882D01*
X34797917Y55467984D01*
X34670385Y55394354D01*
X34670375Y55394346D01*
X34566254Y55290225D01*
X34566246Y55290215D01*
X34492616Y55162683D01*
X34492616Y55162682D01*
X34465257Y55060576D01*
X34454500Y55020432D01*
X34454500Y54873169D01*
X34454499Y54873169D01*
X33083900Y54873169D01*
X33083900Y55020433D01*
X33045784Y55162682D01*
X32972151Y55290218D01*
X32972148Y55290221D01*
X32972145Y55290225D01*
X32868024Y55394346D01*
X32868014Y55394354D01*
X32740482Y55467984D01*
X32717534Y55474133D01*
X32598233Y55506100D01*
X32450967Y55506100D01*
X32331666Y55474133D01*
X32308718Y55467984D01*
X32237546Y55426893D01*
X32168551Y55410156D01*
X32101459Y55433377D01*
X32057572Y55489184D01*
X32050824Y55559860D01*
X32074588Y55612721D01*
X32077544Y55616576D01*
X32077551Y55616582D01*
X32151184Y55744118D01*
X32189300Y55886367D01*
X32189300Y56016369D01*
X33160699Y56016369D01*
X33198816Y55874118D01*
X33272446Y55746586D01*
X33272454Y55746576D01*
X33376575Y55642455D01*
X33376580Y55642451D01*
X33376582Y55642449D01*
X33504118Y55568816D01*
X33646367Y55530700D01*
X33646369Y55530700D01*
X33793631Y55530700D01*
X33793633Y55530700D01*
X33935882Y55568816D01*
X34063418Y55642449D01*
X34167551Y55746582D01*
X34241184Y55874118D01*
X34279300Y56016367D01*
X34279300Y56163633D01*
X34241184Y56305882D01*
X34170941Y56427546D01*
X34167553Y56433415D01*
X34167545Y56433425D01*
X34063424Y56537546D01*
X34063414Y56537554D01*
X33935882Y56611184D01*
X33793633Y56649300D01*
X33646367Y56649300D01*
X33551534Y56623890D01*
X33504117Y56611184D01*
X33376585Y56537554D01*
X33376575Y56537546D01*
X33272454Y56433425D01*
X33272446Y56433415D01*
X33198816Y56305883D01*
X33194548Y56289955D01*
X33163983Y56175883D01*
X33160700Y56163632D01*
X33160700Y56016369D01*
X33160699Y56016369D01*
X32189300Y56016369D01*
X32189300Y56033633D01*
X32151184Y56175882D01*
X32077551Y56303418D01*
X32077549Y56303420D01*
X32077545Y56303425D01*
X31973424Y56407546D01*
X31973414Y56407554D01*
X31845882Y56481184D01*
X31808487Y56491204D01*
X31703633Y56519300D01*
X31556367Y56519300D01*
X31461534Y56493890D01*
X31414117Y56481184D01*
X31286585Y56407554D01*
X31286575Y56407546D01*
X31182454Y56303425D01*
X31182446Y56303415D01*
X31108816Y56175883D01*
X31070700Y56033632D01*
X31070700Y55886369D01*
X31070699Y55886369D01*
X27634200Y55886369D01*
X27634200Y56140600D01*
X26960903Y56140600D01*
X26996125Y56201607D01*
X27030200Y56328774D01*
X27030200Y56460426D01*
X26996125Y56587593D01*
X26960903Y56648600D01*
X27634199Y56648600D01*
X27634199Y57269614D01*
X27634198Y57269623D01*
X27619462Y57343706D01*
X27619462Y57343708D01*
X27563324Y57427725D01*
X27479306Y57483863D01*
X27479305Y57483864D01*
X27405222Y57498600D01*
X26784200Y57498600D01*
X26784200Y56825303D01*
X26723193Y56860525D01*
X26596026Y56894600D01*
X26464374Y56894600D01*
X26337207Y56860525D01*
X26276200Y56825303D01*
X26276200Y57498600D01*
X25655186Y57498600D01*
X25655176Y57498599D01*
X25581094Y57483863D01*
X25581092Y57483863D01*
X25497075Y57427725D01*
X25440937Y57343707D01*
X25440936Y57343706D01*
X25426200Y57269623D01*
X15270147Y57269623D01*
X15265824Y57273946D01*
X15265814Y57273954D01*
X15138282Y57347584D01*
X14996033Y57385700D01*
X14848767Y57385700D01*
X14753934Y57360290D01*
X14706517Y57347584D01*
X14578985Y57273954D01*
X14578975Y57273946D01*
X14474854Y57169825D01*
X14474846Y57169815D01*
X14401216Y57042283D01*
X14389699Y56999300D01*
X14363263Y56900639D01*
X14363100Y56900032D01*
X14363100Y56752769D01*
X14363099Y56752769D01*
X9402838Y56752769D01*
X9699347Y57026298D01*
X9703749Y57030169D01*
X10314146Y57542139D01*
X10318726Y57545801D01*
X10439053Y57637415D01*
X28538727Y57637415D01*
X28538727Y57507300D01*
X28992728Y57507300D01*
X28992728Y56999300D01*
X28538727Y56999300D01*
X28538727Y56869186D01*
X28571546Y56704197D01*
X28571547Y56704194D01*
X28635922Y56548780D01*
X28729381Y56408908D01*
X28729386Y56408902D01*
X28848328Y56289960D01*
X28848334Y56289955D01*
X28988205Y56196496D01*
X29138726Y56134148D01*
X29138727Y56134148D01*
X29138727Y56641616D01*
X29147122Y56633221D01*
X29238333Y56580560D01*
X29340066Y56553301D01*
X29445388Y56553301D01*
X29547121Y56580560D01*
X29638332Y56633221D01*
X29646727Y56641616D01*
X29646727Y56134148D01*
X29705038Y56158301D01*
X29797248Y56196496D01*
X29937119Y56289955D01*
X29937125Y56289960D01*
X30056067Y56408902D01*
X30056072Y56408908D01*
X30149531Y56548780D01*
X30213906Y56704194D01*
X30213907Y56704197D01*
X30246726Y56869186D01*
X30246727Y56869190D01*
X30246727Y56999300D01*
X29792726Y56999300D01*
X29792726Y57507300D01*
X30246727Y57507300D01*
X30246727Y57637411D01*
X30246726Y57637415D01*
X30213907Y57802404D01*
X30213906Y57802407D01*
X30149531Y57957821D01*
X30056072Y58097693D01*
X30056067Y58097699D01*
X29937125Y58216641D01*
X29937119Y58216646D01*
X29797247Y58310105D01*
X29646727Y58372453D01*
X29646727Y57864984D01*
X29638332Y57873379D01*
X29547121Y57926040D01*
X29445388Y57953299D01*
X29340066Y57953299D01*
X29238333Y57926040D01*
X29147122Y57873379D01*
X29138727Y57864984D01*
X29138727Y58372453D01*
X28988206Y58310105D01*
X28848334Y58216646D01*
X28848328Y58216641D01*
X28729386Y58097699D01*
X28729381Y58097693D01*
X28635922Y57957821D01*
X28571547Y57802407D01*
X28571546Y57802404D01*
X28538727Y57637415D01*
X10439053Y57637415D01*
X10952633Y58028444D01*
X10957371Y58031877D01*
X11613312Y58484068D01*
X11618229Y58487290D01*
X12294769Y58908040D01*
X12299821Y58911019D01*
X12995440Y59299387D01*
X13000636Y59302130D01*
X13713802Y59657258D01*
X13719161Y59659771D01*
X14448256Y59980854D01*
X14453686Y59983094D01*
X15197171Y60269458D01*
X15202676Y60271430D01*
X15958806Y60522395D01*
X15964441Y60524119D01*
X16731574Y60739145D01*
X16737251Y60740593D01*
X17513658Y60919196D01*
X17519443Y60920384D01*
X18303422Y61062170D01*
X18309241Y61063080D01*
X19098996Y61167728D01*
X19104860Y61168365D01*
X19898710Y61235651D01*
X19904576Y61236008D01*
X20700684Y61265777D01*
X20706615Y61265858D01*
X21503263Y61258045D01*
G37*
%TD.AperFunction*%
%TD*%
M02*
