M48
; DRILL file {KiCad 9.0.1} date 2025-05-13T22:03:03-0400
; FORMAT={-:-/ absolute / inch / decimal}
; #@! TF.CreationDate,2025-05-13T22:03:03-04:00
; #@! TF.GenerationSoftware,Kicad,Pcbnew,9.0.1
; #@! TF.FileFunction,Plated,1,4,PTH
FMAT,2
INCH
; #@! TA.AperFunction,Plated,PTH,ViaDrill
T1C0.0120
; #@! TA.AperFunction,Plated,PTH,ComponentDrill
T2C0.0315
; #@! TA.AperFunction,Plated,PTH,ComponentDrill
T3C0.0394
; #@! TA.AperFunction,Plated,PTH,ComponentDrill
T4C0.0453
; #@! TA.AperFunction,Plated,PTH,ComponentDrill
T5C0.0984
%
G90
G05
T1
X0.1815Y1.7713
X0.2315Y1.47
X0.2815Y1.9713
X0.3015Y1.8213
X0.3015Y1.7313
X0.3415Y1.6913
X0.3515Y2.1413
X0.3595Y1.7383
X0.4015Y1.9213
X0.4323Y1.4413
X0.5015Y1.9313
X0.5315Y2.1913
X0.5315Y1.2713
X0.5515Y2.3013
X0.5565Y1.7693
X0.5752Y1.4866
X0.5875Y2.2373
X0.5915Y2.0213
X0.6315Y0.8713
X0.7015Y1.9313
X0.7315Y1.3713
X0.7575Y1.9953
X0.7715Y1.8513
X0.7815Y0.9213
X0.7955Y0.6293
X0.8215Y2.3713
X0.8215Y2.2313
X0.8335Y1.2793
X0.8435Y0.6783
X0.8485Y1.5273
X0.8499Y1.3967
X0.8685Y2.0353
X0.8815Y2.2313
X0.8815Y2.1813
X0.8945Y0.7063
X0.9005Y0.5923
X0.9015Y1.4863
X0.9015Y1.4113
X0.9315Y1.1713
X0.9315Y0.6033
X0.9415Y2.2313
X0.9415Y2.1813
X0.9785Y0.5553
X0.9815Y1.6613
X0.9815Y1.5313
X0.9815Y0.9213
X0.9865Y0.6643
X0.9925Y1.7633
X1.0015Y1.3413
X1.0015Y1.3113
X1.0215Y1.5813
X1.0245Y0.6643
X1.0245Y0.4123
X1.0275Y1.1073
X1.0275Y0.5553
X1.0595Y1.0483
X1.0625Y1.2123
X1.0815Y0.5613
X1.1045Y1.0124
X1.1105Y1.6673
X1.1189Y0.6924
X1.1255Y1.6913
X1.1345Y1.0124
X1.1445Y0.3073
X1.1575Y1.8913
X1.1602Y1.0512
X1.1645Y0.5603
X1.1655Y0.6023
X1.1715Y2.0043
X1.1715Y0.6913
X1.1715Y0.6513
X1.1855Y1.6713
X1.2229Y1.5827
X1.2256Y1.3373
X1.2335Y1.1953
X1.235Y0.6896
X1.235Y0.6496
X1.2453Y2.2031
X1.2537Y0.572
X1.2675Y0.8733
X1.2724Y1.7819
X1.2805Y2.1633
X1.2915Y1.3313
X1.2915Y1.2413
X1.2937Y0.572
X1.2965Y1.1823
X1.3165Y2.1023
X1.3276Y2.2083
X1.3277Y1.2844
X1.3295Y1.0013
X1.3315Y1.6343
X1.3335Y1.3703
X1.3585Y2.1013
X1.3615Y0.8513
X1.3615Y0.7813
X1.367Y1.3313
X1.3715Y1.2413
X1.3755Y1.7803
X1.3785Y2.1633
X1.3786Y1.0253
X1.4118Y2.2039
X1.4175Y1.1973
X1.4295Y1.8953
X1.4315Y0.7013
X1.4415Y1.5773
X1.4724Y1.6373
X1.4745Y1.9813
X1.4795Y0.3123
X1.5175Y1.3963
X1.5185Y1.0972
X1.5215Y0.6813
X1.5215Y0.5613
X1.5315Y1.7813
X1.5515Y0.6513
X1.5535Y1.502
X1.554Y1.1888
X1.5815Y0.6213
X1.5835Y1.3335
X1.5915Y1.9013
X1.593Y1.2067
X1.5975Y0.8603
X1.6248Y1.098
X1.6265Y0.5773
X1.6275Y1.0213
X1.6515Y2.3613
X1.6515Y2.2713
X1.6515Y2.1613
X1.6615Y0.8113
X1.6827Y0.626
X1.689Y1.2098
X1.6895Y1.2451
X1.6915Y0.7813
X1.6964Y1.6493
X1.7039Y1.9134
X1.7215Y0.7513
X1.7305Y1.8223
X1.7415Y0.6813
X1.7465Y0.6063
X1.7715Y2.1613
X1.7715Y2.0313
X1.7736Y2.3894
X1.7815Y0.7213
X1.7935Y1.3273
X1.8025Y0.5993
X1.8045Y0.6873
X1.8495Y2.2713
X1.8541Y0.8021
X1.8815Y0.8913
X1.8823Y1.8165
X1.8839Y2.3909
X1.8925Y0.7623
X1.9015Y0.9913
X1.9102Y1.6126
X1.9115Y1.3713
X1.9165Y0.9043
X1.9295Y1.7963
X1.9415Y1.0313
X1.9415Y0.9513
X1.9795Y0.7403
X1.9815Y2.1713
X1.9815Y0.9913
X2.0Y1.9004
X2.0815Y2.2713
X2.0815Y1.7213
X2.0858Y1.3154
X2.1815Y1.0213
X2.2315Y1.7413
X2.2815Y1.8713
X2.3115Y1.7013
X2.3915Y1.7413
X2.3915Y1.6313
X2.4615Y1.5613
X2.4715Y1.6713
T3
X1.0445Y2.2203
X1.0445Y2.1203
X1.0445Y2.0203
X1.2725Y0.488
X1.3709Y0.488
X2.1815Y2.1323
X2.2522Y2.0615
T4
X1.6355Y0.7083
X2.3285Y1.5563
T5
X0.3828Y1.2784
X2.2725Y1.2784
T2
G00X1.1572Y2.2423
M15
G01X1.1572Y2.2659
M16
G05
G00X1.1572Y2.0738
M15
G01X1.1572Y2.1052
M16
G05
G00X1.4981Y2.2423
M15
G01X1.4981Y2.2659
M16
G05
G00X1.4981Y2.0738
M15
G01X1.4981Y2.1052
M16
G05
M30
