%TF.GenerationSoftware,KiCad,Pcbnew,9.0.1*%
%TF.CreationDate,2025-05-13T22:03:03-04:00*%
%TF.ProjectId,mp3-project-v2,6d70332d-7072-46f6-9a65-63742d76322e,1.1*%
%TF.SameCoordinates,Original*%
%TF.FileFunction,Legend,Top*%
%TF.FilePolarity,Positive*%
%FSLAX46Y46*%
G04 Gerber Fmt 4.6, Leading zero omitted, Abs format (unit mm)*
G04 Created by KiCad (PCBNEW 9.0.1) date 2025-05-13 22:03:03*
%MOMM*%
%LPD*%
G01*
G04 APERTURE LIST*
G04 Aperture macros list*
%AMRoundRect*
0 Rectangle with rounded corners*
0 $1 Rounding radius*
0 $2 $3 $4 $5 $6 $7 $8 $9 X,Y pos of 4 corners*
0 Add a 4 corners polygon primitive as box body*
4,1,4,$2,$3,$4,$5,$6,$7,$8,$9,$2,$3,0*
0 Add four circle primitives for the rounded corners*
1,1,$1+$1,$2,$3*
1,1,$1+$1,$4,$5*
1,1,$1+$1,$6,$7*
1,1,$1+$1,$8,$9*
0 Add four rect primitives between the rounded corners*
20,1,$1+$1,$2,$3,$4,$5,0*
20,1,$1+$1,$4,$5,$6,$7,0*
20,1,$1+$1,$6,$7,$8,$9,0*
20,1,$1+$1,$8,$9,$2,$3,0*%
%AMHorizOval*
0 Thick line with rounded ends*
0 $1 width*
0 $2 $3 position (X,Y) of the first rounded end (center of the circle)*
0 $4 $5 position (X,Y) of the second rounded end (center of the circle)*
0 Add line between two ends*
20,1,$1,$2,$3,$4,$5,0*
0 Add two circle primitives to create the rounded ends*
1,1,$1,$2,$3*
1,1,$1,$4,$5*%
G04 Aperture macros list end*
%ADD10C,0.150000*%
%ADD11C,0.152400*%
%ADD12C,0.254000*%
%ADD13C,0.120000*%
%ADD14C,0.250000*%
%ADD15C,0.100000*%
%ADD16C,0.200000*%
%ADD17C,0.300000*%
%ADD18RoundRect,0.250000X-0.371231X-0.017678X-0.017678X-0.371231X0.371231X0.017678X0.017678X0.371231X0*%
%ADD19RoundRect,0.225000X-0.225000X-0.300000X0.225000X-0.300000X0.225000X0.300000X-0.225000X0.300000X0*%
%ADD20RoundRect,0.165000X0.195000X-0.165000X0.195000X0.165000X-0.195000X0.165000X-0.195000X-0.165000X0*%
%ADD21RoundRect,0.165000X-0.165000X-0.195000X0.165000X-0.195000X0.165000X0.195000X-0.165000X0.195000X0*%
%ADD22RoundRect,0.165000X-0.195000X0.165000X-0.195000X-0.165000X0.195000X-0.165000X0.195000X0.165000X0*%
%ADD23RoundRect,0.250000X0.275000X-0.250000X0.275000X0.250000X-0.275000X0.250000X-0.275000X-0.250000X0*%
%ADD24RoundRect,0.225000X-0.371231X-0.053033X-0.053033X-0.371231X0.371231X0.053033X0.053033X0.371231X0*%
%ADD25RoundRect,0.175000X-0.175000X0.537500X-0.175000X-0.537500X0.175000X-0.537500X0.175000X0.537500X0*%
%ADD26RoundRect,0.050000X0.335876X0.194454X0.194454X0.335876X-0.335876X-0.194454X-0.194454X-0.335876X0*%
%ADD27RoundRect,0.050000X0.212132X-0.919239X0.919239X-0.212132X-0.212132X0.919239X-0.919239X0.212132X0*%
%ADD28RoundRect,0.165000X0.165000X0.195000X-0.165000X0.195000X-0.165000X-0.195000X0.165000X-0.195000X0*%
%ADD29C,1.100000*%
%ADD30RoundRect,0.275000X0.159099X-0.548008X0.548008X-0.159099X-0.159099X0.548008X-0.548008X0.159099X0*%
%ADD31RoundRect,0.160000X0.210000X-0.160000X0.210000X0.160000X-0.210000X0.160000X-0.210000X-0.160000X0*%
%ADD32RoundRect,0.175000X0.537500X0.175000X-0.537500X0.175000X-0.537500X-0.175000X0.537500X-0.175000X0*%
%ADD33RoundRect,0.160000X0.035355X-0.261630X0.261630X-0.035355X-0.035355X0.261630X-0.261630X0.035355X0*%
%ADD34RoundRect,0.050000X-0.850000X-0.850000X0.850000X-0.850000X0.850000X0.850000X-0.850000X0.850000X0*%
%ADD35C,1.800000*%
%ADD36RoundRect,0.160000X-0.210000X0.160000X-0.210000X-0.160000X0.210000X-0.160000X0.210000X0.160000X0*%
%ADD37RoundRect,0.274390X0.475610X-0.288110X0.475610X0.288110X-0.475610X0.288110X-0.475610X-0.288110X0*%
%ADD38RoundRect,0.160000X-0.261630X-0.035355X-0.035355X-0.261630X0.261630X0.035355X0.035355X0.261630X0*%
%ADD39RoundRect,0.160000X0.261630X0.035355X0.035355X0.261630X-0.261630X-0.035355X-0.035355X-0.261630X0*%
%ADD40O,1.300000X2.100000*%
%ADD41O,1.300000X1.900000*%
%ADD42RoundRect,0.050000X0.150000X0.650000X-0.150000X0.650000X-0.150000X-0.650000X0.150000X-0.650000X0*%
%ADD43RoundRect,0.250000X0.017678X-0.371231X0.371231X-0.017678X-0.017678X0.371231X-0.371231X0.017678X0*%
%ADD44RoundRect,0.261628X0.000000X1.220992X-1.220992X0.000000X0.000000X-1.220992X1.220992X0.000000X0*%
%ADD45RoundRect,0.165000X0.254558X0.021213X0.021213X0.254558X-0.254558X-0.021213X-0.021213X-0.254558X0*%
%ADD46RoundRect,0.175000X-0.175000X0.612500X-0.175000X-0.612500X0.175000X-0.612500X0.175000X0.612500X0*%
%ADD47RoundRect,0.075000X0.412500X0.075000X-0.412500X0.075000X-0.412500X-0.075000X0.412500X-0.075000X0*%
%ADD48RoundRect,0.075000X0.075000X0.412500X-0.075000X0.412500X-0.075000X-0.412500X0.075000X-0.412500X0*%
%ADD49RoundRect,0.050000X1.600000X1.600000X-1.600000X1.600000X-1.600000X-1.600000X1.600000X-1.600000X0*%
%ADD50RoundRect,0.250000X0.371231X0.017678X0.017678X0.371231X-0.371231X-0.017678X-0.017678X-0.371231X0*%
%ADD51RoundRect,0.050000X-0.700000X-0.600000X0.700000X-0.600000X0.700000X0.600000X-0.700000X0.600000X0*%
%ADD52RoundRect,0.250000X0.250000X0.275000X-0.250000X0.275000X-0.250000X-0.275000X0.250000X-0.275000X0*%
%ADD53RoundRect,0.187500X0.675000X0.187500X-0.675000X0.187500X-0.675000X-0.187500X0.675000X-0.187500X0*%
%ADD54RoundRect,0.050000X-0.245513X0.574760X-0.620513X-0.074760X0.245513X-0.574760X0.620513X0.074760X0*%
%ADD55RoundRect,0.225000X0.225000X0.300000X-0.225000X0.300000X-0.225000X-0.300000X0.225000X-0.300000X0*%
%ADD56RoundRect,0.225000X0.371231X0.053033X0.053033X0.371231X-0.371231X-0.053033X-0.053033X-0.371231X0*%
%ADD57RoundRect,0.165000X-0.251375X0.045394X-0.086375X-0.240394X0.251375X-0.045394X0.086375X0.240394X0*%
%ADD58RoundRect,0.160000X-0.101865X0.243564X-0.261865X-0.033564X0.101865X-0.243564X0.261865X0.033564X0*%
%ADD59RoundRect,0.250000X-0.250000X-0.275000X0.250000X-0.275000X0.250000X0.275000X-0.250000X0.275000X0*%
%ADD60C,0.340000*%
%ADD61RoundRect,0.243750X0.026517X-0.371231X0.371231X-0.026517X-0.026517X0.371231X-0.371231X0.026517X0*%
%ADD62RoundRect,0.050000X0.250000X0.500000X-0.250000X0.500000X-0.250000X-0.500000X0.250000X-0.500000X0*%
%ADD63RoundRect,0.050000X-0.400000X-0.400000X0.400000X-0.400000X0.400000X0.400000X-0.400000X0.400000X0*%
%ADD64RoundRect,0.250000X-0.275000X0.250000X-0.275000X-0.250000X0.275000X-0.250000X0.275000X0.250000X0*%
%ADD65RoundRect,0.274390X-0.475610X0.288110X-0.475610X-0.288110X0.475610X-0.288110X0.475610X0.288110X0*%
%ADD66RoundRect,0.261628X-0.863372X-0.863372X0.863372X-0.863372X0.863372X0.863372X-0.863372X0.863372X0*%
%ADD67RoundRect,0.160000X-0.261865X0.033564X-0.101865X-0.243564X0.261865X-0.033564X0.101865X0.243564X0*%
%ADD68RoundRect,0.165000X-0.021213X0.254558X-0.254558X0.021213X0.021213X-0.254558X0.254558X-0.021213X0*%
%ADD69RoundRect,0.148500X-0.148500X0.483500X-0.148500X-0.483500X0.148500X-0.483500X0.148500X0.483500X0*%
%ADD70RoundRect,0.250000X-0.017678X0.371231X-0.371231X0.017678X0.017678X-0.371231X0.371231X-0.017678X0*%
%ADD71RoundRect,0.165000X-0.254558X-0.021213X-0.021213X-0.254558X0.254558X0.021213X0.021213X0.254558X0*%
%ADD72RoundRect,0.050000X-0.620513X0.074760X-0.245513X-0.574760X0.620513X-0.074760X0.245513X0.574760X0*%
%ADD73RoundRect,0.175000X-0.537500X-0.175000X0.537500X-0.175000X0.537500X0.175000X-0.537500X0.175000X0*%
%ADD74RoundRect,0.050000X-0.212132X0.742462X-0.742462X0.212132X0.212132X-0.742462X0.742462X-0.212132X0*%
%ADD75RoundRect,0.050000X-0.247487X0.707107X-0.707107X0.247487X0.247487X-0.707107X0.707107X-0.247487X0*%
%ADD76RoundRect,0.050000X-0.024749X0.788424X-0.788424X0.024749X0.024749X-0.788424X0.788424X-0.024749X0*%
%ADD77RoundRect,0.050000X0.010607X0.753069X-0.753069X-0.010607X-0.010607X-0.753069X0.753069X0.010607X0*%
%ADD78RoundRect,0.050000X0.123744X0.866206X-0.866206X-0.123744X-0.123744X-0.866206X0.866206X0.123744X0*%
%ADD79RoundRect,0.050000X-0.141421X0.707107X-0.707107X0.141421X0.141421X-0.707107X0.707107X-0.141421X0*%
%ADD80RoundRect,0.050000X0.070711X1.131371X-1.131371X-0.070711X-0.070711X-1.131371X1.131371X0.070711X0*%
%ADD81RoundRect,0.160000X-0.160000X-0.210000X0.160000X-0.210000X0.160000X0.210000X-0.160000X0.210000X0*%
%ADD82RoundRect,0.050000X-0.360624X-0.063640X-0.063640X-0.360624X0.360624X0.063640X0.063640X0.360624X0*%
%ADD83RoundRect,0.050000X0.360624X0.063640X0.063640X0.360624X-0.360624X-0.063640X-0.063640X-0.360624X0*%
%ADD84RoundRect,0.264706X-0.635294X-0.785294X0.635294X-0.785294X0.635294X0.785294X-0.635294X0.785294X0*%
%ADD85O,1.800000X2.100000*%
%ADD86RoundRect,0.225000X0.344856X0.147308X-0.044856X0.372308X-0.344856X-0.147308X0.044856X-0.372308X0*%
%ADD87C,5.100000*%
%ADD88RoundRect,0.272222X-0.652778X0.340278X-0.652778X-0.340278X0.652778X-0.340278X0.652778X0.340278X0*%
%ADD89HorizOval,0.730000X-0.434871X-0.434871X0.434871X0.434871X0*%
%ADD90RoundRect,0.160000X-0.033564X-0.261865X0.243564X-0.101865X0.033564X0.261865X-0.243564X0.101865X0*%
%ADD91RoundRect,0.243750X-0.281250X0.243750X-0.281250X-0.243750X0.281250X-0.243750X0.281250X0.243750X0*%
%ADD92RoundRect,0.050000X0.000000X-1.202082X1.202082X0.000000X0.000000X1.202082X-1.202082X0.000000X0*%
G04 APERTURE END LIST*
D10*
X25641200Y46590200D02*
X17056000Y38081200D01*
X5484187Y49752342D01*
X13819325Y58163716D01*
X25641200Y46590200D01*
X25150200Y57774600D02*
X27901800Y57766200D01*
X27910200Y49934600D02*
X22948800Y49934600D01*
X22948800Y49934600D02*
X22948800Y54616600D01*
X39389200Y57893202D02*
X41179399Y57893202D01*
X41179399Y49504399D01*
X39389200Y49504399D01*
X39389200Y57893202D01*
X22948800Y54616600D02*
X25158600Y54616600D01*
X27901800Y57766200D02*
X27910200Y49934600D01*
X25158600Y54616600D02*
X25150200Y57774600D01*
X10922849Y53986918D02*
X10788162Y53919574D01*
X10788162Y53919574D02*
X10619803Y53751216D01*
X10619803Y53751216D02*
X10586132Y53650200D01*
X10586132Y53650200D02*
X10586132Y53582857D01*
X10586132Y53582857D02*
X10619803Y53481842D01*
X10619803Y53481842D02*
X10687147Y53414498D01*
X10687147Y53414498D02*
X10788162Y53380826D01*
X10788162Y53380826D02*
X10855506Y53380826D01*
X10855506Y53380826D02*
X10956521Y53414498D01*
X10956521Y53414498D02*
X11124880Y53515513D01*
X11124880Y53515513D02*
X11225895Y53549185D01*
X11225895Y53549185D02*
X11293238Y53549185D01*
X11293238Y53549185D02*
X11394254Y53515513D01*
X11394254Y53515513D02*
X11461597Y53448170D01*
X11461597Y53448170D02*
X11495269Y53347155D01*
X11495269Y53347155D02*
X11495269Y53279811D01*
X11495269Y53279811D02*
X11461597Y53178796D01*
X11461597Y53178796D02*
X11293238Y53010437D01*
X11293238Y53010437D02*
X11158551Y52943094D01*
X10182071Y53313483D02*
X10889177Y52606376D01*
X10889177Y52606376D02*
X10720819Y52438017D01*
X10720819Y52438017D02*
X10586132Y52370674D01*
X10586132Y52370674D02*
X10451445Y52370674D01*
X10451445Y52370674D02*
X10350429Y52404346D01*
X10350429Y52404346D02*
X10182071Y52505361D01*
X10182071Y52505361D02*
X10081055Y52606376D01*
X10081055Y52606376D02*
X9980040Y52774735D01*
X9980040Y52774735D02*
X9946368Y52875750D01*
X9946368Y52875750D02*
X9946368Y53010437D01*
X9946368Y53010437D02*
X10013712Y53145124D01*
X10013712Y53145124D02*
X10182071Y53313483D01*
D11*
X41627476Y27789305D02*
X41143666Y27789305D01*
X41143666Y27789305D02*
X41095285Y27305495D01*
X41095285Y27305495D02*
X41143666Y27353876D01*
X41143666Y27353876D02*
X41240428Y27402257D01*
X41240428Y27402257D02*
X41482333Y27402257D01*
X41482333Y27402257D02*
X41579095Y27353876D01*
X41579095Y27353876D02*
X41627476Y27305495D01*
X41627476Y27305495D02*
X41675857Y27208733D01*
X41675857Y27208733D02*
X41675857Y26966828D01*
X41675857Y26966828D02*
X41627476Y26870066D01*
X41627476Y26870066D02*
X41579095Y26821685D01*
X41579095Y26821685D02*
X41482333Y26773305D01*
X41482333Y26773305D02*
X41240428Y26773305D01*
X41240428Y26773305D02*
X41143666Y26821685D01*
X41143666Y26821685D02*
X41095285Y26870066D01*
X41966142Y27789305D02*
X42304809Y26773305D01*
X42304809Y26773305D02*
X42643476Y27789305D01*
X58316485Y47474305D02*
X58655152Y46458305D01*
X58655152Y46458305D02*
X58993819Y47474305D01*
X59284104Y46506685D02*
X59429247Y46458305D01*
X59429247Y46458305D02*
X59671152Y46458305D01*
X59671152Y46458305D02*
X59767914Y46506685D01*
X59767914Y46506685D02*
X59816295Y46555066D01*
X59816295Y46555066D02*
X59864676Y46651828D01*
X59864676Y46651828D02*
X59864676Y46748590D01*
X59864676Y46748590D02*
X59816295Y46845352D01*
X59816295Y46845352D02*
X59767914Y46893733D01*
X59767914Y46893733D02*
X59671152Y46942114D01*
X59671152Y46942114D02*
X59477628Y46990495D01*
X59477628Y46990495D02*
X59380866Y47038876D01*
X59380866Y47038876D02*
X59332485Y47087257D01*
X59332485Y47087257D02*
X59284104Y47184019D01*
X59284104Y47184019D02*
X59284104Y47280781D01*
X59284104Y47280781D02*
X59332485Y47377543D01*
X59332485Y47377543D02*
X59380866Y47425924D01*
X59380866Y47425924D02*
X59477628Y47474305D01*
X59477628Y47474305D02*
X59719533Y47474305D01*
X59719533Y47474305D02*
X59864676Y47425924D01*
X60493628Y46942114D02*
X60493628Y46458305D01*
X60154961Y47474305D02*
X60493628Y46942114D01*
X60493628Y46942114D02*
X60832295Y47474305D01*
X61122580Y46506685D02*
X61267723Y46458305D01*
X61267723Y46458305D02*
X61509628Y46458305D01*
X61509628Y46458305D02*
X61606390Y46506685D01*
X61606390Y46506685D02*
X61654771Y46555066D01*
X61654771Y46555066D02*
X61703152Y46651828D01*
X61703152Y46651828D02*
X61703152Y46748590D01*
X61703152Y46748590D02*
X61654771Y46845352D01*
X61654771Y46845352D02*
X61606390Y46893733D01*
X61606390Y46893733D02*
X61509628Y46942114D01*
X61509628Y46942114D02*
X61316104Y46990495D01*
X61316104Y46990495D02*
X61219342Y47038876D01*
X61219342Y47038876D02*
X61170961Y47087257D01*
X61170961Y47087257D02*
X61122580Y47184019D01*
X61122580Y47184019D02*
X61122580Y47280781D01*
X61122580Y47280781D02*
X61170961Y47377543D01*
X61170961Y47377543D02*
X61219342Y47425924D01*
X61219342Y47425924D02*
X61316104Y47474305D01*
X61316104Y47474305D02*
X61558009Y47474305D01*
X61558009Y47474305D02*
X61703152Y47425924D01*
X38897581Y32358885D02*
X39042724Y32310505D01*
X39042724Y32310505D02*
X39284629Y32310505D01*
X39284629Y32310505D02*
X39381391Y32358885D01*
X39381391Y32358885D02*
X39429772Y32407266D01*
X39429772Y32407266D02*
X39478153Y32504028D01*
X39478153Y32504028D02*
X39478153Y32600790D01*
X39478153Y32600790D02*
X39429772Y32697552D01*
X39429772Y32697552D02*
X39381391Y32745933D01*
X39381391Y32745933D02*
X39284629Y32794314D01*
X39284629Y32794314D02*
X39091105Y32842695D01*
X39091105Y32842695D02*
X38994343Y32891076D01*
X38994343Y32891076D02*
X38945962Y32939457D01*
X38945962Y32939457D02*
X38897581Y33036219D01*
X38897581Y33036219D02*
X38897581Y33132981D01*
X38897581Y33132981D02*
X38945962Y33229743D01*
X38945962Y33229743D02*
X38994343Y33278124D01*
X38994343Y33278124D02*
X39091105Y33326505D01*
X39091105Y33326505D02*
X39333010Y33326505D01*
X39333010Y33326505D02*
X39478153Y33278124D01*
X39768438Y33326505D02*
X40349010Y33326505D01*
X40058724Y32310505D02*
X40058724Y33326505D01*
X40639295Y32600790D02*
X41123105Y32600790D01*
X40542533Y32310505D02*
X40881200Y33326505D01*
X40881200Y33326505D02*
X41219867Y32310505D01*
X41413390Y33326505D02*
X41993962Y33326505D01*
X41703676Y32310505D02*
X41703676Y33326505D01*
X42284247Y33229743D02*
X42332628Y33278124D01*
X42332628Y33278124D02*
X42429390Y33326505D01*
X42429390Y33326505D02*
X42671295Y33326505D01*
X42671295Y33326505D02*
X42768057Y33278124D01*
X42768057Y33278124D02*
X42816438Y33229743D01*
X42816438Y33229743D02*
X42864819Y33132981D01*
X42864819Y33132981D02*
X42864819Y33036219D01*
X42864819Y33036219D02*
X42816438Y32891076D01*
X42816438Y32891076D02*
X42235866Y32310505D01*
X42235866Y32310505D02*
X42864819Y32310505D01*
X44904076Y34545705D02*
X44565409Y35029514D01*
X44323504Y34545705D02*
X44323504Y35561705D01*
X44323504Y35561705D02*
X44710552Y35561705D01*
X44710552Y35561705D02*
X44807314Y35513324D01*
X44807314Y35513324D02*
X44855695Y35464943D01*
X44855695Y35464943D02*
X44904076Y35368181D01*
X44904076Y35368181D02*
X44904076Y35223038D01*
X44904076Y35223038D02*
X44855695Y35126276D01*
X44855695Y35126276D02*
X44807314Y35077895D01*
X44807314Y35077895D02*
X44710552Y35029514D01*
X44710552Y35029514D02*
X44323504Y35029514D01*
X7036305Y38840724D02*
X6939543Y38889105D01*
X6939543Y38889105D02*
X6794400Y38889105D01*
X6794400Y38889105D02*
X6649257Y38840724D01*
X6649257Y38840724D02*
X6552495Y38743962D01*
X6552495Y38743962D02*
X6504114Y38647200D01*
X6504114Y38647200D02*
X6455733Y38453676D01*
X6455733Y38453676D02*
X6455733Y38308533D01*
X6455733Y38308533D02*
X6504114Y38115009D01*
X6504114Y38115009D02*
X6552495Y38018247D01*
X6552495Y38018247D02*
X6649257Y37921485D01*
X6649257Y37921485D02*
X6794400Y37873105D01*
X6794400Y37873105D02*
X6891162Y37873105D01*
X6891162Y37873105D02*
X7036305Y37921485D01*
X7036305Y37921485D02*
X7084686Y37969866D01*
X7084686Y37969866D02*
X7084686Y38308533D01*
X7084686Y38308533D02*
X6891162Y38308533D01*
X7520114Y37873105D02*
X7520114Y38889105D01*
X7520114Y38889105D02*
X8100686Y37873105D01*
X8100686Y37873105D02*
X8100686Y38889105D01*
X8584495Y37873105D02*
X8584495Y38889105D01*
X8584495Y38889105D02*
X8826400Y38889105D01*
X8826400Y38889105D02*
X8971543Y38840724D01*
X8971543Y38840724D02*
X9068305Y38743962D01*
X9068305Y38743962D02*
X9116686Y38647200D01*
X9116686Y38647200D02*
X9165067Y38453676D01*
X9165067Y38453676D02*
X9165067Y38308533D01*
X9165067Y38308533D02*
X9116686Y38115009D01*
X9116686Y38115009D02*
X9068305Y38018247D01*
X9068305Y38018247D02*
X8971543Y37921485D01*
X8971543Y37921485D02*
X8826400Y37873105D01*
X8826400Y37873105D02*
X8584495Y37873105D01*
X57630685Y42546705D02*
X57969352Y41530705D01*
X57969352Y41530705D02*
X58308019Y42546705D01*
X58598304Y41579085D02*
X58743447Y41530705D01*
X58743447Y41530705D02*
X58985352Y41530705D01*
X58985352Y41530705D02*
X59082114Y41579085D01*
X59082114Y41579085D02*
X59130495Y41627466D01*
X59130495Y41627466D02*
X59178876Y41724228D01*
X59178876Y41724228D02*
X59178876Y41820990D01*
X59178876Y41820990D02*
X59130495Y41917752D01*
X59130495Y41917752D02*
X59082114Y41966133D01*
X59082114Y41966133D02*
X58985352Y42014514D01*
X58985352Y42014514D02*
X58791828Y42062895D01*
X58791828Y42062895D02*
X58695066Y42111276D01*
X58695066Y42111276D02*
X58646685Y42159657D01*
X58646685Y42159657D02*
X58598304Y42256419D01*
X58598304Y42256419D02*
X58598304Y42353181D01*
X58598304Y42353181D02*
X58646685Y42449943D01*
X58646685Y42449943D02*
X58695066Y42498324D01*
X58695066Y42498324D02*
X58791828Y42546705D01*
X58791828Y42546705D02*
X59033733Y42546705D01*
X59033733Y42546705D02*
X59178876Y42498324D01*
X59807828Y42014514D02*
X59807828Y41530705D01*
X59469161Y42546705D02*
X59807828Y42014514D01*
X59807828Y42014514D02*
X60146495Y42546705D01*
X60436780Y41579085D02*
X60581923Y41530705D01*
X60581923Y41530705D02*
X60823828Y41530705D01*
X60823828Y41530705D02*
X60920590Y41579085D01*
X60920590Y41579085D02*
X60968971Y41627466D01*
X60968971Y41627466D02*
X61017352Y41724228D01*
X61017352Y41724228D02*
X61017352Y41820990D01*
X61017352Y41820990D02*
X60968971Y41917752D01*
X60968971Y41917752D02*
X60920590Y41966133D01*
X60920590Y41966133D02*
X60823828Y42014514D01*
X60823828Y42014514D02*
X60630304Y42062895D01*
X60630304Y42062895D02*
X60533542Y42111276D01*
X60533542Y42111276D02*
X60485161Y42159657D01*
X60485161Y42159657D02*
X60436780Y42256419D01*
X60436780Y42256419D02*
X60436780Y42353181D01*
X60436780Y42353181D02*
X60485161Y42449943D01*
X60485161Y42449943D02*
X60533542Y42498324D01*
X60533542Y42498324D02*
X60630304Y42546705D01*
X60630304Y42546705D02*
X60872209Y42546705D01*
X60872209Y42546705D02*
X61017352Y42498324D01*
X51964922Y32405132D02*
X52066429Y32290662D01*
X52066429Y32290662D02*
X52084138Y32224572D01*
X52084138Y32224572D02*
X52077656Y32116584D01*
X52077656Y32116584D02*
X52005084Y31990886D01*
X52005084Y31990886D02*
X51914804Y31931278D01*
X51914804Y31931278D02*
X51848715Y31913570D01*
X51848715Y31913570D02*
X51740726Y31920051D01*
X51740726Y31920051D02*
X51405533Y32113575D01*
X51405533Y32113575D02*
X51913533Y32993457D01*
X51913533Y32993457D02*
X52206827Y32824124D01*
X52206827Y32824124D02*
X52266434Y32733844D01*
X52266434Y32733844D02*
X52284143Y32667754D01*
X52284143Y32667754D02*
X52277661Y32559765D01*
X52277661Y32559765D02*
X52229280Y32475967D01*
X52229280Y32475967D02*
X52139000Y32416359D01*
X52139000Y32416359D02*
X52072911Y32398651D01*
X52072911Y32398651D02*
X51964922Y32405132D01*
X51964922Y32405132D02*
X51671628Y32574466D01*
X52961011Y32388695D02*
X53128608Y32291933D01*
X53128608Y32291933D02*
X53188215Y32201653D01*
X53188215Y32201653D02*
X53223633Y32069474D01*
X53223633Y32069474D02*
X53168770Y31877687D01*
X53168770Y31877687D02*
X52999437Y31584393D01*
X52999437Y31584393D02*
X52860776Y31440987D01*
X52860776Y31440987D02*
X52728596Y31405570D01*
X52728596Y31405570D02*
X52620608Y31412051D01*
X52620608Y31412051D02*
X52453011Y31508813D01*
X52453011Y31508813D02*
X52393403Y31599093D01*
X52393403Y31599093D02*
X52357986Y31731273D01*
X52357986Y31731273D02*
X52412849Y31923060D01*
X52412849Y31923060D02*
X52582182Y32216354D01*
X52582182Y32216354D02*
X52720843Y32359760D01*
X52720843Y32359760D02*
X52853022Y32395177D01*
X52853022Y32395177D02*
X52961011Y32388695D01*
X53882792Y31856505D02*
X54050389Y31759743D01*
X54050389Y31759743D02*
X54109996Y31669463D01*
X54109996Y31669463D02*
X54145414Y31537283D01*
X54145414Y31537283D02*
X54090551Y31345496D01*
X54090551Y31345496D02*
X53921218Y31052203D01*
X53921218Y31052203D02*
X53782557Y30908796D01*
X53782557Y30908796D02*
X53650377Y30873379D01*
X53650377Y30873379D02*
X53542389Y30879861D01*
X53542389Y30879861D02*
X53374792Y30976623D01*
X53374792Y30976623D02*
X53315184Y31066903D01*
X53315184Y31066903D02*
X53279767Y31199082D01*
X53279767Y31199082D02*
X53334630Y31390869D01*
X53334630Y31390869D02*
X53503963Y31684163D01*
X53503963Y31684163D02*
X53642624Y31827569D01*
X53642624Y31827569D02*
X53774803Y31862987D01*
X53774803Y31862987D02*
X53882792Y31856505D01*
X54511279Y31493648D02*
X55014069Y31203362D01*
X54254674Y30468623D02*
X54762674Y31348505D01*
X39819295Y56124877D02*
X39819295Y55641067D01*
X39819295Y55641067D02*
X40303105Y55592686D01*
X40303105Y55592686D02*
X40254724Y55641067D01*
X40254724Y55641067D02*
X40206343Y55737829D01*
X40206343Y55737829D02*
X40206343Y55979734D01*
X40206343Y55979734D02*
X40254724Y56076496D01*
X40254724Y56076496D02*
X40303105Y56124877D01*
X40303105Y56124877D02*
X40399867Y56173258D01*
X40399867Y56173258D02*
X40641772Y56173258D01*
X40641772Y56173258D02*
X40738534Y56124877D01*
X40738534Y56124877D02*
X40786915Y56076496D01*
X40786915Y56076496D02*
X40835295Y55979734D01*
X40835295Y55979734D02*
X40835295Y55737829D01*
X40835295Y55737829D02*
X40786915Y55641067D01*
X40786915Y55641067D02*
X40738534Y55592686D01*
X39819295Y56463543D02*
X40835295Y56802210D01*
X40835295Y56802210D02*
X39819295Y57140877D01*
X49297066Y39351143D02*
X49345447Y39399524D01*
X49345447Y39399524D02*
X49442209Y39447905D01*
X49442209Y39447905D02*
X49684114Y39447905D01*
X49684114Y39447905D02*
X49780876Y39399524D01*
X49780876Y39399524D02*
X49829257Y39351143D01*
X49829257Y39351143D02*
X49877638Y39254381D01*
X49877638Y39254381D02*
X49877638Y39157619D01*
X49877638Y39157619D02*
X49829257Y39012476D01*
X49829257Y39012476D02*
X49248685Y38431905D01*
X49248685Y38431905D02*
X49877638Y38431905D01*
X50167923Y39447905D02*
X50506590Y38431905D01*
X50506590Y38431905D02*
X50845257Y39447905D01*
X51329066Y39012476D02*
X51232304Y39060857D01*
X51232304Y39060857D02*
X51183923Y39109238D01*
X51183923Y39109238D02*
X51135542Y39206000D01*
X51135542Y39206000D02*
X51135542Y39254381D01*
X51135542Y39254381D02*
X51183923Y39351143D01*
X51183923Y39351143D02*
X51232304Y39399524D01*
X51232304Y39399524D02*
X51329066Y39447905D01*
X51329066Y39447905D02*
X51522590Y39447905D01*
X51522590Y39447905D02*
X51619352Y39399524D01*
X51619352Y39399524D02*
X51667733Y39351143D01*
X51667733Y39351143D02*
X51716114Y39254381D01*
X51716114Y39254381D02*
X51716114Y39206000D01*
X51716114Y39206000D02*
X51667733Y39109238D01*
X51667733Y39109238D02*
X51619352Y39060857D01*
X51619352Y39060857D02*
X51522590Y39012476D01*
X51522590Y39012476D02*
X51329066Y39012476D01*
X51329066Y39012476D02*
X51232304Y38964095D01*
X51232304Y38964095D02*
X51183923Y38915714D01*
X51183923Y38915714D02*
X51135542Y38818952D01*
X51135542Y38818952D02*
X51135542Y38625428D01*
X51135542Y38625428D02*
X51183923Y38528666D01*
X51183923Y38528666D02*
X51232304Y38480285D01*
X51232304Y38480285D02*
X51329066Y38431905D01*
X51329066Y38431905D02*
X51522590Y38431905D01*
X51522590Y38431905D02*
X51619352Y38480285D01*
X51619352Y38480285D02*
X51667733Y38528666D01*
X51667733Y38528666D02*
X51716114Y38625428D01*
X51716114Y38625428D02*
X51716114Y38818952D01*
X51716114Y38818952D02*
X51667733Y38915714D01*
X51667733Y38915714D02*
X51619352Y38964095D01*
X51619352Y38964095D02*
X51522590Y39012476D01*
X52635352Y39447905D02*
X52151542Y39447905D01*
X52151542Y39447905D02*
X52103161Y38964095D01*
X52103161Y38964095D02*
X52151542Y39012476D01*
X52151542Y39012476D02*
X52248304Y39060857D01*
X52248304Y39060857D02*
X52490209Y39060857D01*
X52490209Y39060857D02*
X52586971Y39012476D01*
X52586971Y39012476D02*
X52635352Y38964095D01*
X52635352Y38964095D02*
X52683733Y38867333D01*
X52683733Y38867333D02*
X52683733Y38625428D01*
X52683733Y38625428D02*
X52635352Y38528666D01*
X52635352Y38528666D02*
X52586971Y38480285D01*
X52586971Y38480285D02*
X52490209Y38431905D01*
X52490209Y38431905D02*
X52248304Y38431905D01*
X52248304Y38431905D02*
X52151542Y38480285D01*
X52151542Y38480285D02*
X52103161Y38528666D01*
D10*
X30938999Y8813191D02*
X31081856Y8765572D01*
X31081856Y8765572D02*
X31129475Y8717953D01*
X31129475Y8717953D02*
X31177094Y8622715D01*
X31177094Y8622715D02*
X31177094Y8479858D01*
X31177094Y8479858D02*
X31129475Y8384620D01*
X31129475Y8384620D02*
X31081856Y8337000D01*
X31081856Y8337000D02*
X30986618Y8289381D01*
X30986618Y8289381D02*
X30605666Y8289381D01*
X30605666Y8289381D02*
X30605666Y9289381D01*
X30605666Y9289381D02*
X30938999Y9289381D01*
X30938999Y9289381D02*
X31034237Y9241762D01*
X31034237Y9241762D02*
X31081856Y9194143D01*
X31081856Y9194143D02*
X31129475Y9098905D01*
X31129475Y9098905D02*
X31129475Y9003667D01*
X31129475Y9003667D02*
X31081856Y8908429D01*
X31081856Y8908429D02*
X31034237Y8860810D01*
X31034237Y8860810D02*
X30938999Y8813191D01*
X30938999Y8813191D02*
X30605666Y8813191D01*
X31558047Y8575096D02*
X32034237Y8575096D01*
X31462809Y8289381D02*
X31796142Y9289381D01*
X31796142Y9289381D02*
X32129475Y8289381D01*
X32319952Y9289381D02*
X32891380Y9289381D01*
X32605666Y8289381D02*
X32605666Y9289381D01*
X33081857Y9289381D02*
X33653285Y9289381D01*
X33367571Y8289381D02*
X33367571Y9289381D01*
X33986619Y8813191D02*
X34319952Y8813191D01*
X34462809Y8289381D02*
X33986619Y8289381D01*
X33986619Y8289381D02*
X33986619Y9289381D01*
X33986619Y9289381D02*
X34462809Y9289381D01*
X35462809Y8289381D02*
X35129476Y8765572D01*
X34891381Y8289381D02*
X34891381Y9289381D01*
X34891381Y9289381D02*
X35272333Y9289381D01*
X35272333Y9289381D02*
X35367571Y9241762D01*
X35367571Y9241762D02*
X35415190Y9194143D01*
X35415190Y9194143D02*
X35462809Y9098905D01*
X35462809Y9098905D02*
X35462809Y8956048D01*
X35462809Y8956048D02*
X35415190Y8860810D01*
X35415190Y8860810D02*
X35367571Y8813191D01*
X35367571Y8813191D02*
X35272333Y8765572D01*
X35272333Y8765572D02*
X34891381Y8765572D01*
X36081857Y8765572D02*
X36081857Y8289381D01*
X35748524Y9289381D02*
X36081857Y8765572D01*
X36081857Y8765572D02*
X36415190Y9289381D01*
D11*
X55736750Y49823984D02*
X55189382Y50371352D01*
X55736750Y50371352D02*
X55189382Y49823984D01*
X47431981Y34467085D02*
X47577124Y34418705D01*
X47577124Y34418705D02*
X47819029Y34418705D01*
X47819029Y34418705D02*
X47915791Y34467085D01*
X47915791Y34467085D02*
X47964172Y34515466D01*
X47964172Y34515466D02*
X48012553Y34612228D01*
X48012553Y34612228D02*
X48012553Y34708990D01*
X48012553Y34708990D02*
X47964172Y34805752D01*
X47964172Y34805752D02*
X47915791Y34854133D01*
X47915791Y34854133D02*
X47819029Y34902514D01*
X47819029Y34902514D02*
X47625505Y34950895D01*
X47625505Y34950895D02*
X47528743Y34999276D01*
X47528743Y34999276D02*
X47480362Y35047657D01*
X47480362Y35047657D02*
X47431981Y35144419D01*
X47431981Y35144419D02*
X47431981Y35241181D01*
X47431981Y35241181D02*
X47480362Y35337943D01*
X47480362Y35337943D02*
X47528743Y35386324D01*
X47528743Y35386324D02*
X47625505Y35434705D01*
X47625505Y35434705D02*
X47867410Y35434705D01*
X47867410Y35434705D02*
X48012553Y35386324D01*
X48302838Y35434705D02*
X48883410Y35434705D01*
X48593124Y34418705D02*
X48593124Y35434705D01*
X49173695Y34708990D02*
X49657505Y34708990D01*
X49076933Y34418705D02*
X49415600Y35434705D01*
X49415600Y35434705D02*
X49754267Y34418705D01*
X49947790Y35434705D02*
X50528362Y35434705D01*
X50238076Y34418705D02*
X50238076Y35434705D01*
X51399219Y34418705D02*
X50818647Y34418705D01*
X51108933Y34418705D02*
X51108933Y35434705D01*
X51108933Y35434705D02*
X51012171Y35289562D01*
X51012171Y35289562D02*
X50915409Y35192800D01*
X50915409Y35192800D02*
X50818647Y35144419D01*
D10*
X37553848Y8670334D02*
X38315753Y8670334D01*
X28511448Y8848134D02*
X29273353Y8848134D01*
X28892400Y8467181D02*
X28892400Y9229086D01*
D11*
X23799095Y25731905D02*
X24428048Y25731905D01*
X24428048Y25731905D02*
X24089381Y25344857D01*
X24089381Y25344857D02*
X24234524Y25344857D01*
X24234524Y25344857D02*
X24331286Y25296476D01*
X24331286Y25296476D02*
X24379667Y25248095D01*
X24379667Y25248095D02*
X24428048Y25151333D01*
X24428048Y25151333D02*
X24428048Y24909428D01*
X24428048Y24909428D02*
X24379667Y24812666D01*
X24379667Y24812666D02*
X24331286Y24764285D01*
X24331286Y24764285D02*
X24234524Y24715905D01*
X24234524Y24715905D02*
X23944238Y24715905D01*
X23944238Y24715905D02*
X23847476Y24764285D01*
X23847476Y24764285D02*
X23799095Y24812666D01*
X24718333Y25731905D02*
X25057000Y24715905D01*
X25057000Y24715905D02*
X25395667Y25731905D01*
X25637571Y25731905D02*
X26266524Y25731905D01*
X26266524Y25731905D02*
X25927857Y25344857D01*
X25927857Y25344857D02*
X26073000Y25344857D01*
X26073000Y25344857D02*
X26169762Y25296476D01*
X26169762Y25296476D02*
X26218143Y25248095D01*
X26218143Y25248095D02*
X26266524Y25151333D01*
X26266524Y25151333D02*
X26266524Y24909428D01*
X26266524Y24909428D02*
X26218143Y24812666D01*
X26218143Y24812666D02*
X26169762Y24764285D01*
X26169762Y24764285D02*
X26073000Y24715905D01*
X26073000Y24715905D02*
X25782714Y24715905D01*
X25782714Y24715905D02*
X25685952Y24764285D01*
X25685952Y24764285D02*
X25637571Y24812666D01*
X28390448Y43562705D02*
X27809876Y43562705D01*
X28100162Y43562705D02*
X28100162Y44578705D01*
X28100162Y44578705D02*
X28003400Y44433562D01*
X28003400Y44433562D02*
X27906638Y44336800D01*
X27906638Y44336800D02*
X27809876Y44288419D01*
X28680733Y44578705D02*
X29019400Y43562705D01*
X29019400Y43562705D02*
X29358067Y44578705D01*
X30228924Y43562705D02*
X29648352Y43562705D01*
X29938638Y43562705D02*
X29938638Y44578705D01*
X29938638Y44578705D02*
X29841876Y44433562D01*
X29841876Y44433562D02*
X29745114Y44336800D01*
X29745114Y44336800D02*
X29648352Y44288419D01*
X41856076Y48972905D02*
X41856076Y49988905D01*
X41856076Y49988905D02*
X42194743Y49263190D01*
X42194743Y49263190D02*
X42533410Y49988905D01*
X42533410Y49988905D02*
X42533410Y48972905D01*
X43017219Y49988905D02*
X43017219Y49166428D01*
X43017219Y49166428D02*
X43065600Y49069666D01*
X43065600Y49069666D02*
X43113981Y49021285D01*
X43113981Y49021285D02*
X43210743Y48972905D01*
X43210743Y48972905D02*
X43404267Y48972905D01*
X43404267Y48972905D02*
X43501029Y49021285D01*
X43501029Y49021285D02*
X43549410Y49069666D01*
X43549410Y49069666D02*
X43597791Y49166428D01*
X43597791Y49166428D02*
X43597791Y49988905D01*
X43936457Y49988905D02*
X44517029Y49988905D01*
X44226743Y48972905D02*
X44226743Y49988905D01*
X44855695Y49505095D02*
X45194362Y49505095D01*
X45339505Y48972905D02*
X44855695Y48972905D01*
X44855695Y48972905D02*
X44855695Y49988905D01*
X44855695Y49988905D02*
X45339505Y49988905D01*
X42410038Y53168743D02*
X42458419Y53217124D01*
X42458419Y53217124D02*
X42555181Y53265505D01*
X42555181Y53265505D02*
X42797086Y53265505D01*
X42797086Y53265505D02*
X42893848Y53217124D01*
X42893848Y53217124D02*
X42942229Y53168743D01*
X42942229Y53168743D02*
X42990610Y53071981D01*
X42990610Y53071981D02*
X42990610Y52975219D01*
X42990610Y52975219D02*
X42942229Y52830076D01*
X42942229Y52830076D02*
X42361657Y52249505D01*
X42361657Y52249505D02*
X42990610Y52249505D01*
X43280895Y53265505D02*
X43619562Y52249505D01*
X43619562Y52249505D02*
X43958229Y53265505D01*
X44442038Y52830076D02*
X44345276Y52878457D01*
X44345276Y52878457D02*
X44296895Y52926838D01*
X44296895Y52926838D02*
X44248514Y53023600D01*
X44248514Y53023600D02*
X44248514Y53071981D01*
X44248514Y53071981D02*
X44296895Y53168743D01*
X44296895Y53168743D02*
X44345276Y53217124D01*
X44345276Y53217124D02*
X44442038Y53265505D01*
X44442038Y53265505D02*
X44635562Y53265505D01*
X44635562Y53265505D02*
X44732324Y53217124D01*
X44732324Y53217124D02*
X44780705Y53168743D01*
X44780705Y53168743D02*
X44829086Y53071981D01*
X44829086Y53071981D02*
X44829086Y53023600D01*
X44829086Y53023600D02*
X44780705Y52926838D01*
X44780705Y52926838D02*
X44732324Y52878457D01*
X44732324Y52878457D02*
X44635562Y52830076D01*
X44635562Y52830076D02*
X44442038Y52830076D01*
X44442038Y52830076D02*
X44345276Y52781695D01*
X44345276Y52781695D02*
X44296895Y52733314D01*
X44296895Y52733314D02*
X44248514Y52636552D01*
X44248514Y52636552D02*
X44248514Y52443028D01*
X44248514Y52443028D02*
X44296895Y52346266D01*
X44296895Y52346266D02*
X44345276Y52297885D01*
X44345276Y52297885D02*
X44442038Y52249505D01*
X44442038Y52249505D02*
X44635562Y52249505D01*
X44635562Y52249505D02*
X44732324Y52297885D01*
X44732324Y52297885D02*
X44780705Y52346266D01*
X44780705Y52346266D02*
X44829086Y52443028D01*
X44829086Y52443028D02*
X44829086Y52636552D01*
X44829086Y52636552D02*
X44780705Y52733314D01*
X44780705Y52733314D02*
X44732324Y52781695D01*
X44732324Y52781695D02*
X44635562Y52830076D01*
X45748324Y53265505D02*
X45264514Y53265505D01*
X45264514Y53265505D02*
X45216133Y52781695D01*
X45216133Y52781695D02*
X45264514Y52830076D01*
X45264514Y52830076D02*
X45361276Y52878457D01*
X45361276Y52878457D02*
X45603181Y52878457D01*
X45603181Y52878457D02*
X45699943Y52830076D01*
X45699943Y52830076D02*
X45748324Y52781695D01*
X45748324Y52781695D02*
X45796705Y52684933D01*
X45796705Y52684933D02*
X45796705Y52443028D01*
X45796705Y52443028D02*
X45748324Y52346266D01*
X45748324Y52346266D02*
X45699943Y52297885D01*
X45699943Y52297885D02*
X45603181Y52249505D01*
X45603181Y52249505D02*
X45361276Y52249505D01*
X45361276Y52249505D02*
X45264514Y52297885D01*
X45264514Y52297885D02*
X45216133Y52346266D01*
X46183752Y52539790D02*
X46667562Y52539790D01*
X46086990Y52249505D02*
X46425657Y53265505D01*
X46425657Y53265505D02*
X46764324Y52249505D01*
X38380385Y18736124D02*
X39338279Y18257177D01*
X39338279Y18257177D02*
X38859332Y19215071D01*
X39748804Y18736124D02*
X39885646Y18804545D01*
X39885646Y18804545D02*
X40056699Y18975598D01*
X40056699Y18975598D02*
X40090909Y19078229D01*
X40090909Y19078229D02*
X40090909Y19146650D01*
X40090909Y19146650D02*
X40056699Y19249282D01*
X40056699Y19249282D02*
X39988278Y19317703D01*
X39988278Y19317703D02*
X39885646Y19351913D01*
X39885646Y19351913D02*
X39817225Y19351913D01*
X39817225Y19351913D02*
X39714594Y19317703D01*
X39714594Y19317703D02*
X39543541Y19215071D01*
X39543541Y19215071D02*
X39440910Y19180861D01*
X39440910Y19180861D02*
X39372489Y19180861D01*
X39372489Y19180861D02*
X39269857Y19215071D01*
X39269857Y19215071D02*
X39201436Y19283492D01*
X39201436Y19283492D02*
X39167226Y19386124D01*
X39167226Y19386124D02*
X39167226Y19454545D01*
X39167226Y19454545D02*
X39201436Y19557176D01*
X39201436Y19557176D02*
X39372489Y19728229D01*
X39372489Y19728229D02*
X39509331Y19796650D01*
X40296172Y19899281D02*
X40638277Y19557176D01*
X39680383Y20036123D02*
X40296172Y19899281D01*
X40296172Y19899281D02*
X40159330Y20515070D01*
X41048803Y20036123D02*
X41185645Y20104544D01*
X41185645Y20104544D02*
X41356698Y20275596D01*
X41356698Y20275596D02*
X41390908Y20378228D01*
X41390908Y20378228D02*
X41390908Y20446649D01*
X41390908Y20446649D02*
X41356698Y20549280D01*
X41356698Y20549280D02*
X41288277Y20617701D01*
X41288277Y20617701D02*
X41185645Y20651912D01*
X41185645Y20651912D02*
X41117224Y20651912D01*
X41117224Y20651912D02*
X41014593Y20617701D01*
X41014593Y20617701D02*
X40843540Y20515070D01*
X40843540Y20515070D02*
X40740909Y20480859D01*
X40740909Y20480859D02*
X40672488Y20480859D01*
X40672488Y20480859D02*
X40569856Y20515070D01*
X40569856Y20515070D02*
X40501435Y20583491D01*
X40501435Y20583491D02*
X40467225Y20686122D01*
X40467225Y20686122D02*
X40467225Y20754543D01*
X40467225Y20754543D02*
X40501435Y20857175D01*
X40501435Y20857175D02*
X40672488Y21028227D01*
X40672488Y21028227D02*
X40809330Y21096648D01*
X41698803Y20480859D02*
X42246171Y21028227D01*
X41527750Y21883490D02*
X41938276Y22294016D01*
X42451434Y21370332D02*
X41733013Y22088753D01*
D10*
X24397400Y50465458D02*
X24445019Y50608315D01*
X24445019Y50608315D02*
X24445019Y50846410D01*
X24445019Y50846410D02*
X24397400Y50941648D01*
X24397400Y50941648D02*
X24349780Y50989267D01*
X24349780Y50989267D02*
X24254542Y51036886D01*
X24254542Y51036886D02*
X24159304Y51036886D01*
X24159304Y51036886D02*
X24064066Y50989267D01*
X24064066Y50989267D02*
X24016447Y50941648D01*
X24016447Y50941648D02*
X23968828Y50846410D01*
X23968828Y50846410D02*
X23921209Y50655934D01*
X23921209Y50655934D02*
X23873590Y50560696D01*
X23873590Y50560696D02*
X23825971Y50513077D01*
X23825971Y50513077D02*
X23730733Y50465458D01*
X23730733Y50465458D02*
X23635495Y50465458D01*
X23635495Y50465458D02*
X23540257Y50513077D01*
X23540257Y50513077D02*
X23492638Y50560696D01*
X23492638Y50560696D02*
X23445019Y50655934D01*
X23445019Y50655934D02*
X23445019Y50894029D01*
X23445019Y50894029D02*
X23492638Y51036886D01*
X23445019Y51370220D02*
X24445019Y51608315D01*
X24445019Y51608315D02*
X23730733Y51798791D01*
X23730733Y51798791D02*
X24445019Y51989267D01*
X24445019Y51989267D02*
X23445019Y52227362D01*
X24445019Y52608315D02*
X23445019Y52608315D01*
X23445019Y52608315D02*
X23445019Y52846410D01*
X23445019Y52846410D02*
X23492638Y52989267D01*
X23492638Y52989267D02*
X23587876Y53084505D01*
X23587876Y53084505D02*
X23683114Y53132124D01*
X23683114Y53132124D02*
X23873590Y53179743D01*
X23873590Y53179743D02*
X24016447Y53179743D01*
X24016447Y53179743D02*
X24206923Y53132124D01*
X24206923Y53132124D02*
X24302161Y53084505D01*
X24302161Y53084505D02*
X24397400Y52989267D01*
X24397400Y52989267D02*
X24445019Y52846410D01*
X24445019Y52846410D02*
X24445019Y52608315D01*
D11*
X13525400Y36194285D02*
X13670543Y36145905D01*
X13670543Y36145905D02*
X13912448Y36145905D01*
X13912448Y36145905D02*
X14009210Y36194285D01*
X14009210Y36194285D02*
X14057591Y36242666D01*
X14057591Y36242666D02*
X14105972Y36339428D01*
X14105972Y36339428D02*
X14105972Y36436190D01*
X14105972Y36436190D02*
X14057591Y36532952D01*
X14057591Y36532952D02*
X14009210Y36581333D01*
X14009210Y36581333D02*
X13912448Y36629714D01*
X13912448Y36629714D02*
X13718924Y36678095D01*
X13718924Y36678095D02*
X13622162Y36726476D01*
X13622162Y36726476D02*
X13573781Y36774857D01*
X13573781Y36774857D02*
X13525400Y36871619D01*
X13525400Y36871619D02*
X13525400Y36968381D01*
X13525400Y36968381D02*
X13573781Y37065143D01*
X13573781Y37065143D02*
X13622162Y37113524D01*
X13622162Y37113524D02*
X13718924Y37161905D01*
X13718924Y37161905D02*
X13960829Y37161905D01*
X13960829Y37161905D02*
X14105972Y37113524D01*
X14541400Y36145905D02*
X14541400Y37161905D01*
X14541400Y37161905D02*
X14783305Y37161905D01*
X14783305Y37161905D02*
X14928448Y37113524D01*
X14928448Y37113524D02*
X15025210Y37016762D01*
X15025210Y37016762D02*
X15073591Y36920000D01*
X15073591Y36920000D02*
X15121972Y36726476D01*
X15121972Y36726476D02*
X15121972Y36581333D01*
X15121972Y36581333D02*
X15073591Y36387809D01*
X15073591Y36387809D02*
X15025210Y36291047D01*
X15025210Y36291047D02*
X14928448Y36194285D01*
X14928448Y36194285D02*
X14783305Y36145905D01*
X14783305Y36145905D02*
X14541400Y36145905D01*
X15315496Y36049143D02*
X16089591Y36049143D01*
X16331495Y36145905D02*
X16331495Y37161905D01*
X16331495Y37161905D02*
X16573400Y37161905D01*
X16573400Y37161905D02*
X16718543Y37113524D01*
X16718543Y37113524D02*
X16815305Y37016762D01*
X16815305Y37016762D02*
X16863686Y36920000D01*
X16863686Y36920000D02*
X16912067Y36726476D01*
X16912067Y36726476D02*
X16912067Y36581333D01*
X16912067Y36581333D02*
X16863686Y36387809D01*
X16863686Y36387809D02*
X16815305Y36291047D01*
X16815305Y36291047D02*
X16718543Y36194285D01*
X16718543Y36194285D02*
X16573400Y36145905D01*
X16573400Y36145905D02*
X16331495Y36145905D01*
X17347495Y36678095D02*
X17686162Y36678095D01*
X17831305Y36145905D02*
X17347495Y36145905D01*
X17347495Y36145905D02*
X17347495Y37161905D01*
X17347495Y37161905D02*
X17831305Y37161905D01*
X18121590Y37161905D02*
X18702162Y37161905D01*
X18411876Y36145905D02*
X18411876Y37161905D01*
X53247550Y52211584D02*
X52700182Y52758952D01*
X38122276Y40133705D02*
X37638466Y40133705D01*
X37638466Y40133705D02*
X37638466Y41149705D01*
X16009124Y23760604D02*
X15473925Y24010262D01*
X15506334Y23470319D02*
X14998334Y24350200D01*
X14998334Y24350200D02*
X15333528Y24543724D01*
X15333528Y24543724D02*
X15441516Y24550206D01*
X15441516Y24550206D02*
X15507606Y24532497D01*
X15507606Y24532497D02*
X15597886Y24472890D01*
X15597886Y24472890D02*
X15670457Y24347192D01*
X15670457Y24347192D02*
X15676939Y24239203D01*
X15676939Y24239203D02*
X15659231Y24173114D01*
X15659231Y24173114D02*
X15599623Y24082834D01*
X15599623Y24082834D02*
X15264430Y23889310D01*
X16120121Y24439209D02*
X16413415Y24608542D01*
X16805208Y24220223D02*
X16386216Y23978319D01*
X16386216Y23978319D02*
X15878216Y24858200D01*
X15878216Y24858200D02*
X16297208Y25100105D01*
X17116210Y24455646D02*
X17266098Y24486318D01*
X17266098Y24486318D02*
X17475594Y24607271D01*
X17475594Y24607271D02*
X17535201Y24697551D01*
X17535201Y24697551D02*
X17552910Y24763641D01*
X17552910Y24763641D02*
X17546428Y24871629D01*
X17546428Y24871629D02*
X17498047Y24955428D01*
X17498047Y24955428D02*
X17407767Y25015035D01*
X17407767Y25015035D02*
X17341678Y25032744D01*
X17341678Y25032744D02*
X17233689Y25026262D01*
X17233689Y25026262D02*
X17041902Y24971399D01*
X17041902Y24971399D02*
X16933913Y24964918D01*
X16933913Y24964918D02*
X16867824Y24982626D01*
X16867824Y24982626D02*
X16777543Y25042234D01*
X16777543Y25042234D02*
X16729163Y25126032D01*
X16729163Y25126032D02*
X16722681Y25234021D01*
X16722681Y25234021D02*
X16740389Y25300111D01*
X16740389Y25300111D02*
X16799997Y25390391D01*
X16799997Y25390391D02*
X17009493Y25511343D01*
X17009493Y25511343D02*
X17159381Y25542015D01*
X17754187Y25382638D02*
X18047481Y25551971D01*
X18439274Y25163652D02*
X18020282Y24921747D01*
X18020282Y24921747D02*
X17512282Y25801629D01*
X17512282Y25801629D02*
X17931274Y26043534D01*
X18182668Y26188676D02*
X18685458Y26478962D01*
X18942063Y25453937D02*
X18434063Y26333819D01*
D12*
X41000468Y24249112D02*
X41727441Y23522139D01*
X41727441Y23522139D02*
X41855731Y23479376D01*
X41855731Y23479376D02*
X41941257Y23479376D01*
X41941257Y23479376D02*
X42069546Y23522139D01*
X42069546Y23522139D02*
X42240599Y23693191D01*
X42240599Y23693191D02*
X42283362Y23821481D01*
X42283362Y23821481D02*
X42283362Y23907007D01*
X42283362Y23907007D02*
X42240599Y24035296D01*
X42240599Y24035296D02*
X41513626Y24762269D01*
X42625467Y25275427D02*
X43224151Y24676743D01*
X42069546Y25403716D02*
X42497177Y24548454D01*
X42497177Y24548454D02*
X43053098Y25104374D01*
D10*
X33389393Y48858481D02*
X33389393Y48144196D01*
X33389393Y48144196D02*
X33341774Y48001339D01*
X33341774Y48001339D02*
X33246536Y47906100D01*
X33246536Y47906100D02*
X33103679Y47858481D01*
X33103679Y47858481D02*
X33008441Y47858481D01*
X34389393Y47858481D02*
X33817965Y47858481D01*
X34103679Y47858481D02*
X34103679Y48858481D01*
X34103679Y48858481D02*
X34008441Y48715624D01*
X34008441Y48715624D02*
X33913203Y48620386D01*
X33913203Y48620386D02*
X33817965Y48572767D01*
X27089095Y31438181D02*
X27089095Y30628658D01*
X27089095Y30628658D02*
X27136714Y30533420D01*
X27136714Y30533420D02*
X27184333Y30485800D01*
X27184333Y30485800D02*
X27279571Y30438181D01*
X27279571Y30438181D02*
X27470047Y30438181D01*
X27470047Y30438181D02*
X27565285Y30485800D01*
X27565285Y30485800D02*
X27612904Y30533420D01*
X27612904Y30533420D02*
X27660523Y30628658D01*
X27660523Y30628658D02*
X27660523Y31438181D01*
X28660523Y30438181D02*
X28089095Y30438181D01*
X28374809Y30438181D02*
X28374809Y31438181D01*
X28374809Y31438181D02*
X28279571Y31295324D01*
X28279571Y31295324D02*
X28184333Y31200086D01*
X28184333Y31200086D02*
X28089095Y31152467D01*
X36690295Y25392981D02*
X36690295Y24583458D01*
X36690295Y24583458D02*
X36737914Y24488220D01*
X36737914Y24488220D02*
X36785533Y24440600D01*
X36785533Y24440600D02*
X36880771Y24392981D01*
X36880771Y24392981D02*
X37071247Y24392981D01*
X37071247Y24392981D02*
X37166485Y24440600D01*
X37166485Y24440600D02*
X37214104Y24488220D01*
X37214104Y24488220D02*
X37261723Y24583458D01*
X37261723Y24583458D02*
X37261723Y25392981D01*
X37690295Y25297743D02*
X37737914Y25345362D01*
X37737914Y25345362D02*
X37833152Y25392981D01*
X37833152Y25392981D02*
X38071247Y25392981D01*
X38071247Y25392981D02*
X38166485Y25345362D01*
X38166485Y25345362D02*
X38214104Y25297743D01*
X38214104Y25297743D02*
X38261723Y25202505D01*
X38261723Y25202505D02*
X38261723Y25107267D01*
X38261723Y25107267D02*
X38214104Y24964410D01*
X38214104Y24964410D02*
X37642676Y24392981D01*
X37642676Y24392981D02*
X38261723Y24392981D01*
X19088095Y17772981D02*
X19088095Y16963458D01*
X19088095Y16963458D02*
X19135714Y16868220D01*
X19135714Y16868220D02*
X19183333Y16820600D01*
X19183333Y16820600D02*
X19278571Y16772981D01*
X19278571Y16772981D02*
X19469047Y16772981D01*
X19469047Y16772981D02*
X19564285Y16820600D01*
X19564285Y16820600D02*
X19611904Y16868220D01*
X19611904Y16868220D02*
X19659523Y16963458D01*
X19659523Y16963458D02*
X19659523Y17772981D01*
X20040476Y17772981D02*
X20707142Y17772981D01*
X20707142Y17772981D02*
X20278571Y16772981D01*
X48600096Y51717406D02*
X48364394Y51481704D01*
X48734783Y51111315D02*
X48027676Y51818422D01*
X48027676Y51818422D02*
X48364394Y52155139D01*
X49206188Y52323498D02*
X49340875Y52390842D01*
X49340875Y52390842D02*
X49408218Y52390842D01*
X49408218Y52390842D02*
X49509234Y52357170D01*
X49509234Y52357170D02*
X49610249Y52256155D01*
X49610249Y52256155D02*
X49643921Y52155139D01*
X49643921Y52155139D02*
X49643921Y52087796D01*
X49643921Y52087796D02*
X49610249Y51986781D01*
X49610249Y51986781D02*
X49340875Y51717407D01*
X49340875Y51717407D02*
X48633768Y52424513D01*
X48633768Y52424513D02*
X48869470Y52660216D01*
X48869470Y52660216D02*
X48970486Y52693887D01*
X48970486Y52693887D02*
X49037829Y52693887D01*
X49037829Y52693887D02*
X49138844Y52660216D01*
X49138844Y52660216D02*
X49206188Y52592872D01*
X49206188Y52592872D02*
X49239860Y52491857D01*
X49239860Y52491857D02*
X49239860Y52424513D01*
X49239860Y52424513D02*
X49206188Y52323498D01*
X49206188Y52323498D02*
X48970486Y52087796D01*
X50418371Y52794903D02*
X50014310Y52390842D01*
X50216340Y52592872D02*
X49509234Y53299979D01*
X49509234Y53299979D02*
X49542905Y53131620D01*
X49542905Y53131620D02*
X49542905Y52996933D01*
X49542905Y52996933D02*
X49509234Y52895918D01*
X37643619Y44532896D02*
X38453142Y44532896D01*
X38453142Y44532896D02*
X38548380Y44580515D01*
X38548380Y44580515D02*
X38596000Y44628134D01*
X38596000Y44628134D02*
X38643619Y44723372D01*
X38643619Y44723372D02*
X38643619Y44913848D01*
X38643619Y44913848D02*
X38596000Y45009086D01*
X38596000Y45009086D02*
X38548380Y45056705D01*
X38548380Y45056705D02*
X38453142Y45104324D01*
X38453142Y45104324D02*
X37643619Y45104324D01*
X37643619Y46009086D02*
X37643619Y45818610D01*
X37643619Y45818610D02*
X37691238Y45723372D01*
X37691238Y45723372D02*
X37738857Y45675753D01*
X37738857Y45675753D02*
X37881714Y45580515D01*
X37881714Y45580515D02*
X38072190Y45532896D01*
X38072190Y45532896D02*
X38453142Y45532896D01*
X38453142Y45532896D02*
X38548380Y45580515D01*
X38548380Y45580515D02*
X38596000Y45628134D01*
X38596000Y45628134D02*
X38643619Y45723372D01*
X38643619Y45723372D02*
X38643619Y45913848D01*
X38643619Y45913848D02*
X38596000Y46009086D01*
X38596000Y46009086D02*
X38548380Y46056705D01*
X38548380Y46056705D02*
X38453142Y46104324D01*
X38453142Y46104324D02*
X38215047Y46104324D01*
X38215047Y46104324D02*
X38119809Y46056705D01*
X38119809Y46056705D02*
X38072190Y46009086D01*
X38072190Y46009086D02*
X38024571Y45913848D01*
X38024571Y45913848D02*
X38024571Y45723372D01*
X38024571Y45723372D02*
X38072190Y45628134D01*
X38072190Y45628134D02*
X38119809Y45580515D01*
X38119809Y45580515D02*
X38215047Y45532896D01*
X16903695Y56685781D02*
X16903695Y55876258D01*
X16903695Y55876258D02*
X16951314Y55781020D01*
X16951314Y55781020D02*
X16998933Y55733400D01*
X16998933Y55733400D02*
X17094171Y55685781D01*
X17094171Y55685781D02*
X17284647Y55685781D01*
X17284647Y55685781D02*
X17379885Y55733400D01*
X17379885Y55733400D02*
X17427504Y55781020D01*
X17427504Y55781020D02*
X17475123Y55876258D01*
X17475123Y55876258D02*
X17475123Y56685781D01*
X18427504Y56685781D02*
X17951314Y56685781D01*
X17951314Y56685781D02*
X17903695Y56209591D01*
X17903695Y56209591D02*
X17951314Y56257210D01*
X17951314Y56257210D02*
X18046552Y56304829D01*
X18046552Y56304829D02*
X18284647Y56304829D01*
X18284647Y56304829D02*
X18379885Y56257210D01*
X18379885Y56257210D02*
X18427504Y56209591D01*
X18427504Y56209591D02*
X18475123Y56114353D01*
X18475123Y56114353D02*
X18475123Y55876258D01*
X18475123Y55876258D02*
X18427504Y55781020D01*
X18427504Y55781020D02*
X18379885Y55733400D01*
X18379885Y55733400D02*
X18284647Y55685781D01*
X18284647Y55685781D02*
X18046552Y55685781D01*
X18046552Y55685781D02*
X17951314Y55733400D01*
X17951314Y55733400D02*
X17903695Y55781020D01*
X54619560Y45795728D02*
X54383858Y45560026D01*
X54754247Y45189637D02*
X54047140Y45896744D01*
X54047140Y45896744D02*
X54383858Y46233461D01*
X55225652Y46401820D02*
X55360339Y46469164D01*
X55360339Y46469164D02*
X55427682Y46469164D01*
X55427682Y46469164D02*
X55528698Y46435492D01*
X55528698Y46435492D02*
X55629713Y46334477D01*
X55629713Y46334477D02*
X55663385Y46233461D01*
X55663385Y46233461D02*
X55663385Y46166118D01*
X55663385Y46166118D02*
X55629713Y46065103D01*
X55629713Y46065103D02*
X55360339Y45795729D01*
X55360339Y45795729D02*
X54653232Y46502835D01*
X54653232Y46502835D02*
X54888934Y46738538D01*
X54888934Y46738538D02*
X54989950Y46772209D01*
X54989950Y46772209D02*
X55057293Y46772209D01*
X55057293Y46772209D02*
X55158308Y46738538D01*
X55158308Y46738538D02*
X55225652Y46671194D01*
X55225652Y46671194D02*
X55259324Y46570179D01*
X55259324Y46570179D02*
X55259324Y46502835D01*
X55259324Y46502835D02*
X55225652Y46401820D01*
X55225652Y46401820D02*
X54989950Y46166118D01*
X55394011Y47108927D02*
X55394011Y47176270D01*
X55394011Y47176270D02*
X55427682Y47277286D01*
X55427682Y47277286D02*
X55596041Y47445644D01*
X55596041Y47445644D02*
X55697056Y47479316D01*
X55697056Y47479316D02*
X55764400Y47479316D01*
X55764400Y47479316D02*
X55865415Y47445644D01*
X55865415Y47445644D02*
X55932759Y47378301D01*
X55932759Y47378301D02*
X56000102Y47243614D01*
X56000102Y47243614D02*
X56000102Y46435492D01*
X56000102Y46435492D02*
X56437835Y46873225D01*
X42065150Y40417154D02*
X42637570Y39844734D01*
X42637570Y39844734D02*
X42738585Y39811062D01*
X42738585Y39811062D02*
X42805929Y39811062D01*
X42805929Y39811062D02*
X42906944Y39844734D01*
X42906944Y39844734D02*
X43041631Y39979421D01*
X43041631Y39979421D02*
X43075303Y40080436D01*
X43075303Y40080436D02*
X43075303Y40147780D01*
X43075303Y40147780D02*
X43041631Y40248795D01*
X43041631Y40248795D02*
X42469211Y40821215D01*
X43546707Y40484497D02*
X43681394Y40619184D01*
X43681394Y40619184D02*
X43715066Y40720199D01*
X43715066Y40720199D02*
X43715066Y40787543D01*
X43715066Y40787543D02*
X43681394Y40955902D01*
X43681394Y40955902D02*
X43580379Y41124260D01*
X43580379Y41124260D02*
X43311005Y41393634D01*
X43311005Y41393634D02*
X43209990Y41427306D01*
X43209990Y41427306D02*
X43142646Y41427306D01*
X43142646Y41427306D02*
X43041631Y41393634D01*
X43041631Y41393634D02*
X42906944Y41258947D01*
X42906944Y41258947D02*
X42873272Y41157932D01*
X42873272Y41157932D02*
X42873272Y41090589D01*
X42873272Y41090589D02*
X42906944Y40989573D01*
X42906944Y40989573D02*
X43075303Y40821215D01*
X43075303Y40821215D02*
X43176318Y40787543D01*
X43176318Y40787543D02*
X43243662Y40787543D01*
X43243662Y40787543D02*
X43344677Y40821215D01*
X43344677Y40821215D02*
X43479364Y40955902D01*
X43479364Y40955902D02*
X43513036Y41056917D01*
X43513036Y41056917D02*
X43513036Y41124260D01*
X43513036Y41124260D02*
X43479364Y41225276D01*
X44289033Y47510036D02*
X44861453Y46937617D01*
X44861453Y46937617D02*
X44962468Y46903945D01*
X44962468Y46903945D02*
X45029812Y46903945D01*
X45029812Y46903945D02*
X45130827Y46937617D01*
X45130827Y46937617D02*
X45265514Y47072304D01*
X45265514Y47072304D02*
X45299186Y47173319D01*
X45299186Y47173319D02*
X45299186Y47240662D01*
X45299186Y47240662D02*
X45265514Y47341678D01*
X45265514Y47341678D02*
X44693094Y47914097D01*
X46107308Y47914097D02*
X45703247Y47510036D01*
X45905277Y47712067D02*
X45198170Y48419174D01*
X45198170Y48419174D02*
X45231842Y48250815D01*
X45231842Y48250815D02*
X45231842Y48116128D01*
X45231842Y48116128D02*
X45198170Y48015113D01*
X45837934Y49058937D02*
X45905277Y49126281D01*
X45905277Y49126281D02*
X46006292Y49159952D01*
X46006292Y49159952D02*
X46073636Y49159952D01*
X46073636Y49159952D02*
X46174651Y49126281D01*
X46174651Y49126281D02*
X46343010Y49025265D01*
X46343010Y49025265D02*
X46511369Y48856907D01*
X46511369Y48856907D02*
X46612384Y48688548D01*
X46612384Y48688548D02*
X46646056Y48587532D01*
X46646056Y48587532D02*
X46646056Y48520189D01*
X46646056Y48520189D02*
X46612384Y48419174D01*
X46612384Y48419174D02*
X46545040Y48351830D01*
X46545040Y48351830D02*
X46444025Y48318158D01*
X46444025Y48318158D02*
X46376682Y48318158D01*
X46376682Y48318158D02*
X46275666Y48351830D01*
X46275666Y48351830D02*
X46107308Y48452845D01*
X46107308Y48452845D02*
X45938949Y48621204D01*
X45938949Y48621204D02*
X45837934Y48789563D01*
X45837934Y48789563D02*
X45804262Y48890578D01*
X45804262Y48890578D02*
X45804262Y48957922D01*
X45804262Y48957922D02*
X45837934Y49058937D01*
X53245036Y55415226D02*
X52908319Y55078509D01*
X52908319Y55078509D02*
X52201212Y55785615D01*
X53413395Y55650929D02*
X53548082Y55718272D01*
X53548082Y55718272D02*
X53716441Y55886631D01*
X53716441Y55886631D02*
X53750113Y55987646D01*
X53750113Y55987646D02*
X53750113Y56054990D01*
X53750113Y56054990D02*
X53716441Y56156005D01*
X53716441Y56156005D02*
X53649098Y56223348D01*
X53649098Y56223348D02*
X53548082Y56257020D01*
X53548082Y56257020D02*
X53480739Y56257020D01*
X53480739Y56257020D02*
X53379724Y56223348D01*
X53379724Y56223348D02*
X53211365Y56122333D01*
X53211365Y56122333D02*
X53110350Y56088661D01*
X53110350Y56088661D02*
X53043006Y56088661D01*
X53043006Y56088661D02*
X52941991Y56122333D01*
X52941991Y56122333D02*
X52874647Y56189677D01*
X52874647Y56189677D02*
X52840976Y56290692D01*
X52840976Y56290692D02*
X52840976Y56358035D01*
X52840976Y56358035D02*
X52874647Y56459051D01*
X52874647Y56459051D02*
X53043006Y56627409D01*
X53043006Y56627409D02*
X53177693Y56694753D01*
X54524563Y56694753D02*
X54120502Y56290692D01*
X54322533Y56492722D02*
X53615426Y57199829D01*
X53615426Y57199829D02*
X53649098Y57031470D01*
X53649098Y57031470D02*
X53649098Y56896783D01*
X53649098Y56896783D02*
X53615426Y56795768D01*
D13*
%TO.C,CJ21*%
X10231947Y39659628D02*
X10430759Y39460816D01*
X10953195Y40380876D02*
X11152007Y40182064D01*
%TO.C,RD22*%
X31626942Y7564900D02*
X32101458Y7564900D01*
X31626942Y6519900D02*
X32101458Y6519900D01*
%TO.C,CU21*%
X28202201Y19609165D02*
X28202200Y19824837D01*
X28922200Y19609163D02*
X28922199Y19824835D01*
%TO.C,CU17*%
X33661362Y24437000D02*
X33877034Y24437004D01*
X33661366Y25156996D02*
X33877038Y25157000D01*
%TO.C,CU19*%
X33942600Y26632038D02*
X33942603Y26416367D01*
X34662597Y26632033D02*
X34662600Y26416362D01*
%TO.C,CU52*%
X16332403Y58495484D02*
X16332403Y58776646D01*
X17352403Y58495484D02*
X17352403Y58776646D01*
%TO.C,RU96*%
X40648770Y45220103D02*
X40984303Y44884570D01*
X41387697Y45959030D02*
X41723230Y45623497D01*
%TO.C,U8*%
X45470933Y58382567D02*
X45470933Y59182567D01*
X45470933Y58382567D02*
X45470933Y57582567D01*
X48590933Y58382567D02*
X48590933Y59182567D01*
X48590933Y58382567D02*
X48590933Y57582567D01*
X48870932Y59442566D02*
X48540933Y59682567D01*
X48870933Y59922567D01*
X48870932Y59442566D01*
G36*
X48870932Y59442566D02*
G01*
X48540933Y59682567D01*
X48870933Y59922567D01*
X48870932Y59442566D01*
G37*
D14*
%TO.C,U4*%
X45187096Y20321151D02*
G75*
G02*
X44937094Y20321151I-125001J0D01*
G01*
X44937094Y20321151D02*
G75*
G02*
X45187096Y20321151I125001J0D01*
G01*
D13*
%TO.C,CY11*%
X36203200Y41643438D02*
X36203203Y41427767D01*
X36923197Y41643433D02*
X36923200Y41427762D01*
%TO.C,CU13*%
X27730234Y27332604D02*
X27514562Y27332600D01*
X27730238Y28052600D02*
X27514566Y28052596D01*
%TO.C,TP11*%
X38838000Y38843200D02*
G75*
G02*
X37438000Y38843200I-700000J0D01*
G01*
X37438000Y38843200D02*
G75*
G02*
X38838000Y38843200I700000J0D01*
G01*
%TO.C,CU15*%
X27704834Y33225402D02*
X27489162Y33225400D01*
X27704838Y33945400D02*
X27489166Y33945398D01*
%TO.C,CU93*%
X43453343Y39254390D02*
X43822810Y39623857D01*
X44492790Y38214943D02*
X44862257Y38584410D01*
%TO.C,RJ12*%
X34608397Y49814759D02*
X34608398Y50122040D01*
X35368402Y49814760D02*
X35368403Y50122041D01*
%TO.C,U3*%
X55156000Y41139800D02*
X54356000Y41139800D01*
X55156000Y41139800D02*
X55956000Y41139800D01*
X55156000Y38019800D02*
X54356000Y38019800D01*
X55156000Y38019800D02*
X55956000Y38019800D01*
X56696000Y37739800D02*
X56215998Y37739800D01*
X56456001Y38069804D01*
X56696000Y37739800D01*
G36*
X56696000Y37739800D02*
G01*
X56215998Y37739800D01*
X56456001Y38069804D01*
X56696000Y37739800D01*
G37*
%TO.C,RU42*%
X46013687Y17082426D02*
X46230966Y17299707D01*
X46551088Y16545027D02*
X46768367Y16762308D01*
%TO.C,CU82*%
X49604535Y58298285D02*
X49604534Y58579447D01*
X50624534Y58298285D02*
X50624533Y58579447D01*
%TO.C,CY12*%
X30666001Y41478565D02*
X30666000Y41694237D01*
X31386000Y41478563D02*
X31385999Y41694235D01*
%TO.C,J3*%
X25150200Y57774600D02*
X26530200Y57774600D01*
X25150200Y56394600D02*
X25150200Y57774600D01*
X25150200Y55124600D02*
X25150200Y49934600D01*
X25150200Y55124600D02*
X27910200Y55124600D01*
X25150200Y49934600D02*
X27910200Y49934600D01*
X27910200Y55124600D02*
X27910200Y49934600D01*
%TO.C,CU110*%
X31936001Y38633765D02*
X31936000Y38849437D01*
X32656000Y38633763D02*
X32655999Y38849435D01*
%TO.C,TP7*%
X52909600Y37039800D02*
G75*
G02*
X51509600Y37039800I-700000J0D01*
G01*
X51509600Y37039800D02*
G75*
G02*
X52909600Y37039800I700000J0D01*
G01*
%TO.C,CU42*%
X62012001Y45103419D02*
X62012000Y45384581D01*
X63032000Y45103419D02*
X63031999Y45384581D01*
%TO.C,RD11*%
X39891602Y54186039D02*
X39891602Y53878761D01*
X40651598Y54186039D02*
X40651598Y53878761D01*
%TO.C,RU11*%
X30392600Y45093136D02*
X30392600Y45547264D01*
X31862600Y45093136D02*
X31862600Y45547264D01*
%TO.C,RU92*%
X45932282Y37658790D02*
X46149561Y37441508D01*
X46469683Y38196190D02*
X46686962Y37978908D01*
%TO.C,RU91*%
X42346740Y36916462D02*
X42129462Y37133740D01*
X42884138Y37453860D02*
X42666860Y37671138D01*
D14*
%TO.C,J1*%
X29252727Y59883300D02*
X29252727Y58403300D01*
X29252727Y59883300D02*
X38192727Y59883300D01*
X29252727Y56163300D02*
X29252727Y54303300D01*
X38192727Y59883300D02*
X38192727Y58403300D01*
X38192727Y56163300D02*
X38192727Y54303300D01*
D13*
%TO.C,CU105*%
X51159970Y42101218D02*
X51358781Y42300030D01*
X51881219Y41379970D02*
X52080030Y41578782D01*
%TO.C,CU18*%
X30564400Y26911438D02*
X30564403Y26695767D01*
X31284397Y26911433D02*
X31284400Y26695762D01*
%TO.C,TP1*%
X47372400Y33458400D02*
G75*
G02*
X45972400Y33458400I-700000J0D01*
G01*
X45972400Y33458400D02*
G75*
G02*
X47372400Y33458400I700000J0D01*
G01*
%TO.C,CU45*%
X45554293Y23754990D02*
X45401790Y23907493D01*
X46063410Y24264107D02*
X45910907Y24416610D01*
%TO.C,Q2*%
X25910000Y11462000D02*
X25910000Y12112000D01*
X25910000Y11462000D02*
X25910000Y10812001D01*
X29030000Y11462000D02*
X29030000Y12111999D01*
X29030000Y11462000D02*
X29030000Y10812000D01*
X29309999Y12384501D02*
X28980000Y12624500D01*
X29310000Y12864500D01*
X29309999Y12384501D01*
G36*
X29309999Y12384501D02*
G01*
X28980000Y12624500D01*
X29310000Y12864500D01*
X29309999Y12384501D01*
G37*
%TO.C,TP12*%
X44019600Y35134800D02*
G75*
G02*
X42619600Y35134800I-700000J0D01*
G01*
X42619600Y35134800D02*
G75*
G02*
X44019600Y35134800I700000J0D01*
G01*
%TO.C,U1*%
X30112725Y36234720D02*
X30112727Y35584722D01*
X30112729Y29014720D02*
X30112728Y29664724D01*
X30762727Y29014722D02*
X30112729Y29014720D01*
X30762729Y36234721D02*
X30112725Y36234720D01*
X36682725Y29014723D02*
X37032726Y29014721D01*
X36682727Y36234722D02*
X37332725Y36234724D01*
X37332725Y36234724D02*
X37332726Y35584720D01*
X37332727Y29664722D02*
X37332726Y29254724D01*
X37572725Y28684725D02*
X37092727Y28684721D01*
X37332729Y29014724D01*
X37572725Y28684725D01*
G36*
X37572725Y28684725D02*
G01*
X37092727Y28684721D01*
X37332729Y29014724D01*
X37572725Y28684725D01*
G37*
%TO.C,CU101*%
X43083782Y42802770D02*
X42884970Y43001582D01*
X43805030Y43524018D02*
X43606218Y43722830D01*
%TO.C,TP2*%
X44934000Y32721800D02*
G75*
G02*
X43534000Y32721800I-700000J0D01*
G01*
X43534000Y32721800D02*
G75*
G02*
X44934000Y32721800I700000J0D01*
G01*
%TO.C,Y1*%
X31794600Y43160200D02*
X31794600Y39860200D01*
X31794600Y39860200D02*
X35794600Y39860200D01*
%TO.C,CU31*%
X55525181Y42985398D02*
X55244019Y42985399D01*
X55525181Y41965401D02*
X55244019Y41965402D01*
%TO.C,U2*%
X31110800Y23874000D02*
X31110800Y23604000D01*
X31110800Y18354000D02*
X31110800Y18624001D01*
X33870800Y23874000D02*
X31110800Y23874000D01*
X33870800Y23874000D02*
X36630800Y23874000D01*
X33870800Y18354000D02*
X31110800Y18354000D01*
X33870800Y18354000D02*
X36630800Y18354000D01*
X36630800Y23874000D02*
X36630800Y23603999D01*
X36630800Y18354000D02*
X36630800Y18624000D01*
X37635799Y18293999D02*
X37155800Y18294000D01*
X37395801Y18623999D01*
X37635799Y18293999D01*
G36*
X37635799Y18293999D02*
G01*
X37155800Y18294000D01*
X37395801Y18623999D01*
X37635799Y18293999D01*
G37*
D15*
%TO.C,S1*%
X48586835Y29142975D02*
X49586835Y30875025D01*
X51752251Y25525635D02*
X48288149Y27525635D01*
X53003565Y26592975D02*
X54003565Y28325025D01*
D16*
X54155712Y24888550D02*
X54155712Y24888550D01*
X54242316Y24838551D02*
X54242316Y24838551D01*
X54242316Y24838551D02*
X54242316Y24838551D01*
D15*
X54302251Y29942365D02*
X50838149Y31942365D01*
D16*
X54155712Y24888550D02*
G75*
G02*
X54242316Y24838551I43302J-25000D01*
G01*
X54155712Y24888550D02*
G75*
G02*
X54242316Y24838551I43302J-25000D01*
G01*
X54242316Y24838551D02*
G75*
G02*
X54155712Y24888550I-43302J25000D01*
G01*
D13*
%TO.C,CU71*%
X23008258Y19477500D02*
X22533742Y19477500D01*
X23008258Y18432500D02*
X22533742Y18432500D01*
%TO.C,RU18*%
X44539802Y29573439D02*
X44539802Y29266161D01*
X45299798Y29573439D02*
X45299798Y29266161D01*
%TO.C,RJ25*%
X20391757Y52587021D02*
X20056224Y52922554D01*
X21130684Y53325948D02*
X20795151Y53661481D01*
%TO.C,CU102*%
X45369781Y40592970D02*
X45170970Y40791781D01*
X46091030Y41314219D02*
X45892219Y41513030D01*
%TO.C,TP8*%
X30151200Y41408600D02*
G75*
G02*
X28751200Y41408600I-700000J0D01*
G01*
X28751200Y41408600D02*
G75*
G02*
X30151200Y41408600I700000J0D01*
G01*
%TO.C,CU111*%
X21264047Y29540188D02*
X21371886Y29353413D01*
X21887584Y29900183D02*
X21995423Y29713408D01*
%TO.C,CU72*%
X22907834Y19940004D02*
X22692162Y19940000D01*
X22907838Y20660000D02*
X22692166Y20659996D01*
%TO.C,CBT12*%
X27084600Y16091038D02*
X27084603Y15875367D01*
X27804597Y16091033D02*
X27804600Y15875362D01*
%TO.C,RS11*%
X46491463Y31518935D02*
X46337823Y31252824D01*
X47149639Y31138936D02*
X46995999Y30872825D01*
%TO.C,CU41*%
X60070020Y37346600D02*
X60351180Y37346600D01*
X60070020Y36326600D02*
X60351180Y36326600D01*
%TO.C,TP9*%
X44324400Y26473400D02*
G75*
G02*
X42924400Y26473400I-700000J0D01*
G01*
X42924400Y26473400D02*
G75*
G02*
X44324400Y26473400I700000J0D01*
G01*
%TO.C,CU51*%
X22337201Y58565419D02*
X22337201Y58846581D01*
X23357199Y58565419D02*
X23357199Y58846581D01*
%TO.C,RD21*%
X35428858Y7539500D02*
X34954342Y7539500D01*
X35428858Y6494500D02*
X34954342Y6494500D01*
D10*
%TO.C,U7*%
X21951799Y15652000D02*
X21951800Y17431999D01*
X21951800Y17431999D02*
X23691801Y17432000D01*
X23691800Y15652001D02*
X21951799Y15652000D01*
X23691801Y17432000D02*
X23691800Y15652001D01*
D16*
X22421800Y15252000D02*
G75*
G02*
X22221802Y15252000I-99999J0D01*
G01*
X22221802Y15252000D02*
G75*
G02*
X22421800Y15252000I99999J0D01*
G01*
D13*
%TO.C,CU47*%
X44561370Y21680020D02*
X44760183Y21878831D01*
X45282617Y20958769D02*
X45481430Y21157580D01*
%TO.C,CU46*%
X43392970Y22823020D02*
X43591783Y23021831D01*
X44114217Y22101769D02*
X44313030Y22300580D01*
%TO.C,FB1*%
X49773572Y51492239D02*
X50003777Y51722442D01*
X50494821Y50770990D02*
X50725026Y51001193D01*
%TO.C,RJ26*%
X25336524Y42141370D02*
X25000991Y42476903D01*
X26075451Y42880297D02*
X25739918Y43215830D01*
%TO.C,CU44*%
X46748594Y24721639D02*
X46549782Y24920451D01*
X47469842Y25442887D02*
X47271030Y25641699D01*
%TO.C,CU11*%
X39554164Y29322600D02*
X39769836Y29322600D01*
X39554164Y28602600D02*
X39769836Y28602600D01*
%TO.C,TP13*%
X42800400Y47682400D02*
G75*
G02*
X41400400Y47682400I-700000J0D01*
G01*
X41400400Y47682400D02*
G75*
G02*
X42800400Y47682400I700000J0D01*
G01*
D14*
%TO.C,D2*%
X34813748Y4180054D02*
G75*
G02*
X32784600Y4149601I-1019148J289545D01*
G01*
D13*
%TO.C,RU95*%
X39437063Y43864741D02*
X39654341Y43647461D01*
X39974459Y44402139D02*
X40191737Y44184859D01*
%TO.C,CBT11*%
X28151400Y16091038D02*
X28151403Y15875367D01*
X28871397Y16091033D02*
X28871400Y15875362D01*
%TO.C,CU81*%
X43432333Y58731849D02*
X43432334Y58450687D01*
X44452332Y58731849D02*
X44452333Y58450687D01*
%TO.C,RU15*%
X41085401Y29573441D02*
X41085400Y29266160D01*
X41845400Y29573440D02*
X41845399Y29266159D01*
%TO.C,CU106*%
X49959970Y43241218D02*
X50158781Y43440030D01*
X50681219Y42519970D02*
X50880030Y42718782D01*
%TO.C,RU12*%
X35447200Y45445664D02*
X35447200Y44991536D01*
X36917200Y45445664D02*
X36917200Y44991536D01*
%TO.C,CU14*%
X33953234Y37797402D02*
X33737562Y37797400D01*
X33953238Y38517400D02*
X33737566Y38517398D01*
%TO.C,CU104*%
X50992624Y50304581D02*
X51191435Y50503392D01*
X51713873Y49583332D02*
X51912684Y49782143D01*
%TO.C,RS21*%
X19458523Y32627443D02*
X19612164Y32361330D01*
X20116702Y33007444D02*
X20270343Y32741331D01*
%TO.C,RJ27*%
X12885595Y39802597D02*
X13221128Y39467064D01*
X13624522Y40541524D02*
X13960055Y40205991D01*
%TO.C,CU91*%
X41138436Y36650890D02*
X40985934Y36498386D01*
X41647548Y36141772D02*
X41495046Y35989268D01*
D11*
%TO.C,U6*%
X32618401Y45923998D02*
X32618403Y44563999D01*
X34818399Y44564002D02*
X34818397Y45924001D01*
D13*
%TO.C,CU43*%
X48138382Y18856230D02*
X47939570Y18657418D01*
X48859630Y18134982D02*
X48660818Y17936170D01*
%TO.C,RU44*%
X50347740Y19974662D02*
X50130462Y20191940D01*
X50885138Y20512060D02*
X50667860Y20729338D01*
%TO.C,CU92*%
X44607211Y36319743D02*
X44759715Y36167240D01*
X45116329Y36828858D02*
X45268833Y36676355D01*
D15*
%TO.C,S2*%
X13604992Y25980058D02*
X12604992Y27712108D01*
X15770408Y31329448D02*
X12306306Y29329448D01*
X18021722Y28530058D02*
X17021722Y30262108D01*
X18320408Y26912718D02*
X14856306Y24912718D01*
D16*
X20073870Y28675634D02*
X20073870Y28675634D01*
X20160473Y28725636D02*
X20160473Y28725636D01*
X20160473Y28725636D02*
X20160473Y28725636D01*
X20073870Y28675634D02*
G75*
G02*
X20160474Y28725636I43302J25001D01*
G01*
X20073870Y28675634D02*
G75*
G02*
X20160474Y28725636I43302J25001D01*
G01*
X20160473Y28725636D02*
G75*
G02*
X20073871Y28675634I-43301J-25001D01*
G01*
D13*
%TO.C,CU74*%
X33298419Y17813999D02*
X33579581Y17814000D01*
X33298419Y16794000D02*
X33579581Y16794001D01*
%TO.C,CU16*%
X27704834Y28424802D02*
X27489162Y28424800D01*
X27704838Y29144800D02*
X27489166Y29144798D01*
%TO.C,U5*%
X19889703Y60285869D02*
X19089703Y60285869D01*
X19889703Y60285869D02*
X20689703Y60285869D01*
X19889703Y57165869D02*
X19089703Y57165869D01*
X19889703Y57165869D02*
X20689703Y57165869D01*
X18589701Y60235864D02*
X18349703Y60565869D01*
X18829704Y60565870D01*
X18589701Y60235864D01*
G36*
X18589701Y60235864D02*
G01*
X18349703Y60565869D01*
X18829704Y60565870D01*
X18589701Y60235864D01*
G37*
D14*
%TO.C,J2*%
X10099093Y45110021D02*
X12602250Y42606865D01*
X13776049Y41433064D02*
X14370019Y40839097D01*
X15508459Y39700654D02*
X16137784Y39071329D01*
X15939795Y53425597D02*
X10226370Y47712173D01*
X17955048Y39092544D02*
X18478308Y39615801D01*
X19793524Y40931018D02*
X23286633Y44424127D01*
X21540081Y50554743D02*
X18541949Y53552875D01*
X24580639Y47514183D02*
X22713876Y49380947D01*
D13*
%TO.C,RU17*%
X43320602Y29573439D02*
X43320602Y29266161D01*
X44080598Y29573439D02*
X44080598Y29266161D01*
%TO.C,FB2*%
X53383637Y47882176D02*
X53613841Y48112380D01*
X54104885Y47160928D02*
X54335089Y47391132D01*
%TO.C,CU95*%
X40430743Y42099190D02*
X40800210Y42468657D01*
X41470190Y41059743D02*
X41839657Y41429210D01*
%TO.C,RU19*%
X36234001Y38537159D02*
X36234000Y38844440D01*
X36994000Y38537160D02*
X36993999Y38844441D01*
%TO.C,RJ22*%
X10066487Y42530176D02*
X10402020Y42194643D01*
X10805414Y43269103D02*
X11140947Y42933570D01*
%TO.C,TP4*%
X44502200Y54388000D02*
G75*
G02*
X43102200Y54388000I-700000J0D01*
G01*
X43102200Y54388000D02*
G75*
G02*
X44502200Y54388000I700000J0D01*
G01*
%TO.C,RJ21*%
X21598770Y39124103D02*
X21934303Y38788570D01*
X22337697Y39863030D02*
X22673230Y39527497D01*
%TO.C,RY11*%
X33691760Y39578798D02*
X33999039Y39578799D01*
X33691761Y38818801D02*
X33999040Y38818802D01*
%TO.C,CU94*%
X38111985Y42525697D02*
X38264493Y42373189D01*
X38621107Y43034811D02*
X38773615Y42882303D01*
D16*
%TO.C,U9*%
X39714321Y38828167D02*
X38724376Y37838221D01*
X41269952Y37272529D02*
X40280007Y36282583D01*
X38448600Y37548305D02*
G75*
G02*
X38455989Y37555105I-77782J91923D01*
G01*
D13*
%TO.C,CU12*%
X32901200Y26632038D02*
X32901203Y26416367D01*
X33621197Y26632033D02*
X33621200Y26416362D01*
%TO.C,TP14*%
X16613000Y34779200D02*
G75*
G02*
X15213000Y34779200I-700000J0D01*
G01*
X15213000Y34779200D02*
G75*
G02*
X16613000Y34779200I700000J0D01*
G01*
%TO.C,BT1*%
X29471400Y9644000D02*
X29471400Y10894000D01*
X29761400Y15904000D02*
X37381400Y15904000D01*
X29761400Y9934000D02*
X29761400Y15904000D01*
X29771400Y12194000D02*
X30521400Y12194000D01*
X29771400Y10694000D02*
X31571400Y10694000D01*
X29771400Y9944000D02*
X29771400Y10694000D01*
X30521400Y15144000D02*
X33571400Y15144000D01*
X30521400Y12194000D02*
X30521400Y15144000D01*
X30721400Y9644000D02*
X29471400Y9644000D01*
X31571400Y10694000D02*
X31571400Y9944000D01*
X31571400Y9944000D02*
X29771400Y9944000D01*
X33071400Y10694000D02*
X34071400Y10694000D01*
X33071400Y9944000D02*
X33071400Y10694000D01*
X34071400Y10694000D02*
X34071400Y9944000D01*
X34071400Y9944000D02*
X33071400Y9944000D01*
X35571400Y10694000D02*
X37371400Y10694000D01*
X35571400Y9944000D02*
X35571400Y10694000D01*
X36621400Y15144000D02*
X33571400Y15144000D01*
X36621400Y12194000D02*
X36621400Y15144000D01*
X37371400Y12194000D02*
X36621400Y12194000D01*
X37371400Y10694000D02*
X37371400Y9944000D01*
X37371400Y9944000D02*
X35571400Y9944000D01*
X37381400Y15904000D02*
X37381400Y9934000D01*
X37381400Y9934000D02*
X29761400Y9934000D01*
%TO.C,CU103*%
X52195978Y49101227D02*
X52394789Y49300038D01*
X52917227Y48379978D02*
X53116038Y48578789D01*
%TO.C,TP5*%
X25858600Y27032200D02*
G75*
G02*
X24458600Y27032200I-700000J0D01*
G01*
X24458600Y27032200D02*
G75*
G02*
X25858600Y27032200I700000J0D01*
G01*
%TO.C,CU32*%
X55767561Y37334081D02*
X56048723Y37334082D01*
X55767561Y36314082D02*
X56048723Y36314083D01*
%TO.C,TP10*%
X8586600Y36379400D02*
G75*
G02*
X7186600Y36379400I-700000J0D01*
G01*
X7186600Y36379400D02*
G75*
G02*
X8586600Y36379400I700000J0D01*
G01*
%TO.C,RJ23*%
X24194903Y41023770D02*
X23859370Y41359303D01*
X24933830Y41762697D02*
X24598297Y42098230D01*
%TO.C,RU14*%
X42203001Y29573441D02*
X42203000Y29266160D01*
X42963000Y29573440D02*
X42962999Y29266159D01*
%TO.C,RJ28*%
X22741770Y40267103D02*
X23077303Y39931570D01*
X23480697Y41006030D02*
X23816230Y40670497D01*
%TO.C,RU45*%
X51137821Y21228673D02*
X50726879Y21465930D01*
X51660321Y22133670D02*
X51249379Y22370927D01*
%TO.C,RU71*%
X24604200Y18081864D02*
X24604200Y16627736D01*
X26424200Y18081864D02*
X26424200Y16627736D01*
%TO.C,RJ11*%
X31585803Y50122041D02*
X31585802Y49814762D01*
X32345798Y50122038D02*
X32345797Y49814759D01*
%TO.C,RJ24*%
X20504566Y38026245D02*
X20840099Y37690712D01*
X21243493Y38765172D02*
X21579026Y38429639D01*
%TO.C,Q1*%
X38041001Y11462000D02*
X38041001Y12111999D01*
X38041001Y11462000D02*
X38041001Y10812000D01*
X41161001Y11462000D02*
X41161001Y12112000D01*
X41161001Y11462000D02*
X41161001Y10812001D01*
X41440999Y12384500D02*
X41111001Y12624500D01*
X41441001Y12864500D01*
X41440999Y12384500D01*
G36*
X41440999Y12384500D02*
G01*
X41111001Y12624500D01*
X41441001Y12864500D01*
X41440999Y12384500D01*
G37*
%TO.C,RU94*%
X39400340Y39710459D02*
X39183059Y39927739D01*
X39937741Y40247861D02*
X39720460Y40465141D01*
D14*
%TO.C,U10*%
X45068047Y46116658D02*
X48603581Y42581124D01*
X45683230Y46731840D02*
X45068047Y46116658D01*
X46574186Y47622798D02*
X47175226Y48223838D01*
X47175226Y48223838D02*
X50710758Y44688305D01*
X48603581Y42581124D02*
X50710758Y44688305D01*
X46574186Y47622798D02*
G75*
G02*
X45687550Y46728833I-523259J-367697D01*
G01*
D17*
X45974651Y46038876D02*
G75*
G02*
X45674651Y46038876I-150000J0D01*
G01*
X45674651Y46038876D02*
G75*
G02*
X45974651Y46038876I150000J0D01*
G01*
D13*
%TO.C,RU72*%
X21680303Y13972770D02*
X21344770Y14308303D01*
X22419230Y14711697D02*
X22083697Y15047230D01*
%TO.C,RU13*%
X20883019Y31628867D02*
X21149131Y31782510D01*
X21263019Y30970690D02*
X21529131Y31124333D01*
%TO.C,RU46*%
X51950621Y22651074D02*
X51539678Y22888329D01*
X52473122Y23556071D02*
X52062179Y23793326D01*
%TO.C,D1*%
X39536600Y52596402D02*
X39536600Y50311402D01*
X41006599Y52596402D02*
X39536600Y52596402D01*
X41006600Y50311400D02*
X41006599Y52596402D01*
%TO.C,RU93*%
X47379770Y38489103D02*
X47715303Y38153570D01*
X48118697Y39228030D02*
X48454230Y38892497D01*
%TO.C,LS1*%
X53458385Y54159400D02*
X54434193Y55135207D01*
X54434193Y53183593D02*
X53458385Y54159400D01*
X55332218Y52285567D02*
X57206051Y50411734D01*
X55332218Y52285567D02*
X57283833Y54237180D01*
X57206051Y50411734D02*
X59157666Y52363347D01*
X57283833Y54237180D02*
X59157666Y52363347D01*
%TO.C,TP6*%
X60428000Y49054000D02*
G75*
G02*
X59028000Y49054000I-700000J0D01*
G01*
X59028000Y49054000D02*
G75*
G02*
X60428000Y49054000I700000J0D01*
G01*
%TD*%
%LPC*%
D18*
%TO.C,CJ21*%
X10143969Y40468854D03*
X11239985Y39372838D03*
%TD*%
D19*
%TO.C,RD22*%
X31039200Y7042400D03*
X32689200Y7042400D03*
%TD*%
D20*
%TO.C,CU21*%
X28562200Y19237000D03*
X28562200Y20197000D03*
%TD*%
D21*
%TO.C,CU17*%
X33289200Y24797000D03*
X34249200Y24797000D03*
%TD*%
D22*
%TO.C,CU19*%
X34302600Y27004200D03*
X34302600Y26044200D03*
%TD*%
D23*
%TO.C,CU52*%
X16842403Y57861064D03*
X16842403Y59411066D03*
%TD*%
D24*
%TO.C,RU96*%
X40602637Y46005163D03*
X41769363Y44838437D03*
%TD*%
D25*
%TO.C,U8*%
X47980933Y59520067D03*
X47030933Y59520067D03*
X46080933Y59520067D03*
X46080933Y57245067D03*
X47980933Y57245067D03*
%TD*%
D26*
%TO.C,U4*%
X45751526Y20162054D03*
X46034367Y19879208D03*
X46317208Y19596368D03*
X46600052Y19313523D03*
X46882898Y19030679D03*
X48438528Y20586312D03*
X48155687Y20869158D03*
X47872846Y21151998D03*
X47590002Y21434843D03*
X47307156Y21717687D03*
D27*
X47095027Y20374183D03*
%TD*%
D22*
%TO.C,CY11*%
X36563200Y42015600D03*
X36563200Y41055600D03*
%TD*%
D28*
%TO.C,CU13*%
X28102400Y27692600D03*
X27142400Y27692600D03*
%TD*%
D29*
%TO.C,TP11*%
X38138000Y38843200D03*
%TD*%
D28*
%TO.C,CU15*%
X28077000Y33585400D03*
X27117000Y33585400D03*
%TD*%
D30*
%TO.C,CU93*%
X43486049Y38247649D03*
X44829551Y39591151D03*
%TD*%
D31*
%TO.C,RJ12*%
X34988395Y49458399D03*
X34988405Y50478401D03*
%TD*%
D32*
%TO.C,U3*%
X56293500Y38629800D03*
X56293500Y39579800D03*
X56293500Y40529800D03*
X54018500Y40529800D03*
X54018500Y38629800D03*
%TD*%
D33*
%TO.C,RU42*%
X46030402Y16561743D03*
X46751652Y17282991D03*
%TD*%
D23*
%TO.C,CU82*%
X50114534Y57663865D03*
X50114534Y59213867D03*
%TD*%
D20*
%TO.C,CY12*%
X31026000Y41106400D03*
X31026000Y42066400D03*
%TD*%
D34*
%TO.C,J3*%
X26530200Y56394600D03*
D35*
X26530200Y53854600D03*
X26530200Y51314600D03*
%TD*%
D20*
%TO.C,CU110*%
X32296000Y38261600D03*
X32296000Y39221600D03*
%TD*%
D29*
%TO.C,TP7*%
X52209600Y37039800D03*
%TD*%
D23*
%TO.C,CU42*%
X62522000Y44468999D03*
X62522000Y46019001D03*
%TD*%
D36*
%TO.C,RD11*%
X40271601Y54542400D03*
X40271599Y53522400D03*
%TD*%
D37*
%TO.C,RU11*%
X31127600Y44407700D03*
X31127600Y46232700D03*
%TD*%
D38*
%TO.C,RU92*%
X45949000Y38179472D03*
X46670244Y37458226D03*
%TD*%
D39*
%TO.C,RU91*%
X42867422Y36933177D03*
X42146178Y37654423D03*
%TD*%
D40*
%TO.C,J1*%
X38052727Y53073300D03*
X29392727Y53073300D03*
D41*
X29392727Y57253300D03*
X38052727Y57253300D03*
D42*
X37072727Y52313300D03*
X36272727Y52313300D03*
X34972727Y52313300D03*
X33972727Y52313300D03*
X33472727Y52313300D03*
X32472727Y52313300D03*
X31172727Y52313300D03*
X30372727Y52313300D03*
X30672727Y52313300D03*
X31472727Y52313300D03*
X31972727Y52313300D03*
X32972727Y52313300D03*
X34472727Y52313300D03*
X35472727Y52313300D03*
X35972727Y52313300D03*
X36772727Y52313300D03*
%TD*%
D43*
%TO.C,CU105*%
X51071992Y41291992D03*
X52168008Y42388008D03*
%TD*%
D22*
%TO.C,CU18*%
X30924400Y27283600D03*
X30924400Y26323600D03*
%TD*%
D44*
%TO.C,J5*%
X41541600Y17989800D03*
%TD*%
D29*
%TO.C,TP1*%
X46672400Y33458400D03*
%TD*%
D45*
%TO.C,CU45*%
X46072011Y23746389D03*
X45393189Y24425211D03*
%TD*%
D46*
%TO.C,Q2*%
X28420000Y12399500D03*
X26520001Y12399501D03*
X27470000Y10524500D03*
%TD*%
D29*
%TO.C,TP12*%
X43319600Y35134800D03*
%TD*%
D47*
%TO.C,U1*%
X37160230Y30024721D03*
X37160227Y30424722D03*
X37160227Y30824722D03*
X37160228Y31224722D03*
X37160227Y31624722D03*
X37160227Y32024722D03*
X37160226Y32424720D03*
X37160227Y32824722D03*
X37160229Y33224721D03*
X37160227Y33624722D03*
X37160225Y34024722D03*
X37160227Y34424720D03*
X37160228Y34824724D03*
X37160227Y35224722D03*
D48*
X36322728Y36062225D03*
X35922727Y36062222D03*
X35522727Y36062222D03*
X35122727Y36062223D03*
X34722727Y36062222D03*
X34322727Y36062222D03*
X33922729Y36062221D03*
X33522727Y36062222D03*
X33122728Y36062224D03*
X32722727Y36062222D03*
X32322727Y36062220D03*
X31922729Y36062222D03*
X31522725Y36062223D03*
X31122727Y36062222D03*
D47*
X30285224Y35224723D03*
X30285227Y34824722D03*
X30285227Y34424722D03*
X30285226Y34024722D03*
X30285227Y33624722D03*
X30285227Y33224722D03*
X30285228Y32824724D03*
X30285227Y32424722D03*
X30285225Y32024723D03*
X30285227Y31624722D03*
X30285229Y31224722D03*
X30285227Y30824724D03*
X30285226Y30424720D03*
X30285227Y30024722D03*
D48*
X31122726Y29187219D03*
X31522727Y29187222D03*
X31922727Y29187222D03*
X32322727Y29187221D03*
X32722727Y29187222D03*
X33122727Y29187222D03*
X33522725Y29187223D03*
X33922727Y29187222D03*
X34322726Y29187220D03*
X34722727Y29187222D03*
X35122727Y29187224D03*
X35522725Y29187222D03*
X35922729Y29187221D03*
X36322727Y29187222D03*
D49*
X33722727Y32624722D03*
%TD*%
D50*
%TO.C,CU101*%
X43893008Y42714792D03*
X42796992Y43810808D03*
%TD*%
D29*
%TO.C,TP2*%
X44234000Y32721800D03*
%TD*%
D51*
%TO.C,Y1*%
X32694600Y40660200D03*
X34894600Y40660200D03*
X34894600Y42360200D03*
X32694600Y42360200D03*
%TD*%
D52*
%TO.C,CU31*%
X56159601Y42475400D03*
X54609599Y42475400D03*
%TD*%
D53*
%TO.C,U2*%
X37458300Y19209001D03*
X37458299Y20479000D03*
X37458300Y21748998D03*
X37458300Y23019000D03*
X30283300Y23018999D03*
X30283301Y21749000D03*
X30283300Y20479002D03*
X30283300Y19209000D03*
%TD*%
D54*
%TO.C,S1*%
X52955775Y25610204D03*
X47759622Y28610202D03*
X54830778Y28857798D03*
X49634625Y31857796D03*
%TD*%
D55*
%TO.C,CU71*%
X23596000Y18955000D03*
X21946000Y18955000D03*
%TD*%
D36*
%TO.C,RU18*%
X44919801Y29929800D03*
X44919799Y28909800D03*
%TD*%
D56*
%TO.C,RJ25*%
X21176817Y52540888D03*
X20010091Y53707614D03*
%TD*%
D50*
%TO.C,CU102*%
X46179008Y40504992D03*
X45082992Y41601008D03*
%TD*%
D29*
%TO.C,TP8*%
X29451200Y41408600D03*
%TD*%
D57*
%TO.C,CU111*%
X21389735Y30042490D03*
X21869735Y29211106D03*
%TD*%
D28*
%TO.C,CU72*%
X23280000Y20300000D03*
X22320000Y20300000D03*
%TD*%
D22*
%TO.C,CBT12*%
X27444600Y16463200D03*
X27444600Y15503200D03*
%TD*%
D58*
%TO.C,RS11*%
X46998732Y31637552D03*
X46488730Y30754208D03*
%TD*%
D59*
%TO.C,CU41*%
X59435600Y36836600D03*
X60985600Y36836600D03*
%TD*%
D29*
%TO.C,TP9*%
X43624400Y26473400D03*
%TD*%
D23*
%TO.C,CU51*%
X22847200Y57930999D03*
X22847200Y59481001D03*
%TD*%
D55*
%TO.C,RD21*%
X36016600Y7017000D03*
X34366600Y7017000D03*
%TD*%
D60*
%TO.C,U7*%
X22321800Y16042000D03*
X22321800Y16541999D03*
X22321800Y17042000D03*
X22821801Y16042000D03*
X22821800Y16542000D03*
X22821799Y17042000D03*
X23321800Y16042000D03*
X23321800Y16542001D03*
X23321800Y17042000D03*
%TD*%
D43*
%TO.C,CU47*%
X44473392Y20870792D03*
X45569408Y21966808D03*
%TD*%
%TO.C,CU46*%
X43304992Y22013792D03*
X44401008Y23109808D03*
%TD*%
D61*
%TO.C,FB1*%
X49692452Y50689869D03*
X50806146Y51803563D03*
%TD*%
D56*
%TO.C,RJ26*%
X26121584Y42095237D03*
X24954858Y43261963D03*
%TD*%
D50*
%TO.C,CU44*%
X47557820Y24633661D03*
X46461804Y25729677D03*
%TD*%
D21*
%TO.C,CU11*%
X39182000Y28962600D03*
X40142000Y28962600D03*
%TD*%
D29*
%TO.C,TP13*%
X42100400Y47682400D03*
%TD*%
D62*
%TO.C,D2*%
X34194599Y4959601D03*
X33394601Y4959599D03*
D63*
X32394600Y4959600D03*
X35194600Y4959600D03*
%TD*%
D38*
%TO.C,RU95*%
X39453777Y44385430D03*
X40175023Y43664170D03*
%TD*%
D22*
%TO.C,CBT11*%
X28511400Y16463200D03*
X28511400Y15503200D03*
%TD*%
D64*
%TO.C,CU81*%
X43942333Y59366269D03*
X43942333Y57816267D03*
%TD*%
D36*
%TO.C,RU15*%
X41465401Y29929800D03*
X41465399Y28909800D03*
%TD*%
D43*
%TO.C,CU106*%
X49871992Y42431992D03*
X50968008Y43528008D03*
%TD*%
D65*
%TO.C,RU12*%
X36182200Y46131100D03*
X36182200Y44306100D03*
%TD*%
D28*
%TO.C,CU14*%
X34325400Y38157400D03*
X33365400Y38157400D03*
%TD*%
D43*
%TO.C,CU104*%
X50904646Y49495354D03*
X52000662Y50591370D03*
%TD*%
D66*
%TO.C,J4*%
X59143800Y39529000D03*
%TD*%
D67*
%TO.C,RS21*%
X19609434Y33126060D03*
X20119432Y32242714D03*
%TD*%
D24*
%TO.C,RJ27*%
X12839462Y40587657D03*
X14006188Y39420931D03*
%TD*%
D68*
%TO.C,CU91*%
X41656152Y36659490D03*
X40977330Y35980668D03*
%TD*%
D69*
%TO.C,U6*%
X34368400Y46179001D03*
X33718400Y46179000D03*
X33068399Y46179000D03*
X33068400Y44308999D03*
X33718400Y44309000D03*
X34368401Y44309000D03*
%TD*%
D70*
%TO.C,CU43*%
X48947608Y18944208D03*
X47851592Y17848192D03*
%TD*%
D39*
%TO.C,RU44*%
X50868422Y19991377D03*
X50147178Y20712623D03*
%TD*%
D71*
%TO.C,CU92*%
X44598611Y36837460D03*
X45277433Y36158638D03*
%TD*%
D72*
%TO.C,S2*%
X18848934Y27997286D03*
X13652782Y24997287D03*
X16973932Y31244879D03*
X11777780Y28244880D03*
%TD*%
D59*
%TO.C,CU74*%
X32663999Y17304000D03*
X34214001Y17304000D03*
%TD*%
D28*
%TO.C,CU16*%
X28077000Y28784800D03*
X27117000Y28784800D03*
%TD*%
D73*
%TO.C,U5*%
X18752203Y59675869D03*
X18752203Y57775869D03*
X21027203Y58725869D03*
%TD*%
D74*
%TO.C,J2*%
X12616394Y46510094D03*
X13394209Y47287912D03*
X14172028Y48065728D03*
X14949843Y48843546D03*
X15727663Y49621363D03*
X16505479Y50399180D03*
X17283302Y51176998D03*
X18061114Y51954814D03*
D75*
X11909287Y45802986D03*
D76*
X15275110Y40598677D03*
D77*
X17049952Y38908695D03*
D78*
X18775291Y40634035D03*
X23583619Y45442361D03*
D77*
X24736204Y46594946D03*
D79*
X21844133Y49685001D03*
D80*
X17247941Y53644796D03*
X10000099Y46396955D03*
D79*
X13415423Y42246240D03*
%TD*%
D36*
%TO.C,RU17*%
X43700601Y29929800D03*
X43700599Y28909800D03*
%TD*%
D61*
%TO.C,FB2*%
X53302515Y47079807D03*
X54416211Y48193501D03*
%TD*%
D30*
%TO.C,CU95*%
X40463449Y41092449D03*
X41806951Y42435951D03*
%TD*%
D31*
%TO.C,RU19*%
X36613999Y38180800D03*
X36614001Y39200800D03*
%TD*%
D24*
%TO.C,RJ22*%
X10020354Y43315236D03*
X11187080Y42148510D03*
%TD*%
D29*
%TO.C,TP4*%
X43802200Y54388000D03*
%TD*%
D24*
%TO.C,RJ21*%
X21552637Y39909163D03*
X22719363Y38742437D03*
%TD*%
D81*
%TO.C,RY11*%
X33335400Y39198801D03*
X34355400Y39198799D03*
%TD*%
D71*
%TO.C,CU94*%
X38103389Y43043411D03*
X38782211Y42364589D03*
%TD*%
D82*
%TO.C,U9*%
X38865793Y37343243D03*
X39325412Y36883623D03*
X39785032Y36424004D03*
D83*
X41128535Y37767507D03*
X40668916Y38227127D03*
X40209296Y38686746D03*
%TD*%
D22*
%TO.C,CU12*%
X33261200Y27004200D03*
X33261200Y26044200D03*
%TD*%
D29*
%TO.C,TP14*%
X15913000Y34779200D03*
%TD*%
D84*
%TO.C,BT1*%
X32321400Y12394000D03*
D85*
X34821400Y12394000D03*
%TD*%
D43*
%TO.C,CU103*%
X52108000Y48292000D03*
X53204016Y49388016D03*
%TD*%
D29*
%TO.C,TP5*%
X25158600Y27032200D03*
%TD*%
D59*
%TO.C,CU32*%
X55133141Y36824082D03*
X56683143Y36824082D03*
%TD*%
D29*
%TO.C,TP10*%
X7886600Y36379400D03*
%TD*%
D56*
%TO.C,RJ23*%
X24979963Y40977637D03*
X23813237Y42144363D03*
%TD*%
D36*
%TO.C,RU14*%
X42583001Y29929800D03*
X42582999Y28909800D03*
%TD*%
D24*
%TO.C,RJ28*%
X22695637Y41052163D03*
X23862363Y39885437D03*
%TD*%
D86*
%TO.C,RU45*%
X51908071Y21387300D03*
X50479129Y22212300D03*
%TD*%
D87*
%TO.C,H2*%
X57722727Y32471199D03*
%TD*%
D88*
%TO.C,RU71*%
X25514200Y18817300D03*
X25514200Y15892300D03*
%TD*%
D87*
%TO.C,H1*%
X9722727Y32471199D03*
%TD*%
D36*
%TO.C,RJ11*%
X31965802Y50478400D03*
X31965798Y49458400D03*
%TD*%
D24*
%TO.C,RJ24*%
X20458433Y38811305D03*
X21625159Y37644579D03*
%TD*%
D46*
%TO.C,Q1*%
X40551000Y12399501D03*
X38651001Y12399500D03*
X39601001Y10524500D03*
%TD*%
D39*
%TO.C,RU94*%
X39921024Y39727175D03*
X39199776Y40448425D03*
%TD*%
D89*
%TO.C,U10*%
X44650852Y44865076D03*
X45555951Y43959982D03*
X46446905Y43069028D03*
X47344932Y42171002D03*
X51135024Y45961093D03*
X50236997Y46859120D03*
X49346043Y47750074D03*
X48440944Y48655172D03*
%TD*%
D56*
%TO.C,RU72*%
X22465363Y13926637D03*
X21298637Y15093363D03*
%TD*%
D90*
%TO.C,RU13*%
X20764402Y31121601D03*
X21647748Y31631599D03*
%TD*%
D86*
%TO.C,RU46*%
X52720869Y22809702D03*
X51291931Y23634698D03*
%TD*%
D91*
%TO.C,D1*%
X40271599Y51898902D03*
X40271601Y50323898D03*
%TD*%
D24*
%TO.C,RU93*%
X47333637Y39274163D03*
X48500363Y38107437D03*
%TD*%
D92*
%TO.C,LS1*%
X55410000Y54159400D03*
D35*
X57206051Y52363348D03*
%TD*%
D29*
%TO.C,TP6*%
X59728000Y49054000D03*
%TD*%
%LPD*%
M02*
