%TF.GenerationSoftware,KiCad,Pcbnew,9.0.1*%
%TF.CreationDate,2025-05-13T22:03:03-04:00*%
%TF.ProjectId,mp3-project-v2,6d70332d-7072-46f6-9a65-63742d76322e,1.1*%
%TF.SameCoordinates,Original*%
%TF.FileFunction,Legend,Bot*%
%TF.FilePolarity,Positive*%
%FSLAX46Y46*%
G04 Gerber Fmt 4.6, Leading zero omitted, Abs format (unit mm)*
G04 Created by KiCad (PCBNEW 9.0.1) date 2025-05-13 22:03:03*
%MOMM*%
%LPD*%
G01*
G04 APERTURE LIST*
G04 Aperture macros list*
%AMRoundRect*
0 Rectangle with rounded corners*
0 $1 Rounding radius*
0 $2 $3 $4 $5 $6 $7 $8 $9 X,Y pos of 4 corners*
0 Add a 4 corners polygon primitive as box body*
4,1,4,$2,$3,$4,$5,$6,$7,$8,$9,$2,$3,0*
0 Add four circle primitives for the rounded corners*
1,1,$1+$1,$2,$3*
1,1,$1+$1,$4,$5*
1,1,$1+$1,$6,$7*
1,1,$1+$1,$8,$9*
0 Add four rect primitives between the rounded corners*
20,1,$1+$1,$2,$3,$4,$5,0*
20,1,$1+$1,$4,$5,$6,$7,0*
20,1,$1+$1,$6,$7,$8,$9,0*
20,1,$1+$1,$8,$9,$2,$3,0*%
G04 Aperture macros list end*
%ADD10C,0.200000*%
%ADD11C,0.152400*%
%ADD12C,0.300000*%
%ADD13RoundRect,0.050000X-0.850000X-0.850000X0.850000X-0.850000X0.850000X0.850000X-0.850000X0.850000X0*%
%ADD14C,1.800000*%
%ADD15O,1.300000X2.100000*%
%ADD16O,1.300000X1.900000*%
%ADD17RoundRect,0.261628X0.000000X1.220992X-1.220992X0.000000X0.000000X-1.220992X1.220992X0.000000X0*%
%ADD18RoundRect,0.261628X-0.863372X-0.863372X0.863372X-0.863372X0.863372X0.863372X-0.863372X0.863372X0*%
%ADD19RoundRect,0.264706X-0.635294X-0.785294X0.635294X-0.785294X0.635294X0.785294X-0.635294X0.785294X0*%
%ADD20O,1.800000X2.100000*%
%ADD21C,5.100000*%
%ADD22RoundRect,0.050000X0.000000X-1.202082X1.202082X0.000000X0.000000X1.202082X-1.202082X0.000000X0*%
G04 APERTURE END LIST*
D10*
X48722727Y32624722D02*
G75*
G02*
X18722727Y32624722I-15000000J0D01*
G01*
X18722727Y32624722D02*
G75*
G02*
X48722727Y32624722I15000000J0D01*
G01*
D11*
X14133449Y57444608D02*
X14082133Y57338555D01*
X14082133Y57338555D02*
X14085554Y57287239D01*
X14085554Y57287239D02*
X14119764Y57211976D01*
X14119764Y57211976D02*
X14212133Y57140134D01*
X14212133Y57140134D02*
X14301080Y57119608D01*
X14301080Y57119608D02*
X14359238Y57123029D01*
X14359238Y57123029D02*
X14444764Y57153818D01*
X14444764Y57153818D02*
X14663711Y57372766D01*
X14663711Y57372766D02*
X14017133Y57875660D01*
X14017133Y57875660D02*
X13825554Y57684081D01*
X13825554Y57684081D02*
X13801607Y57605397D01*
X13801607Y57605397D02*
X13805028Y57554081D01*
X13805028Y57554081D02*
X13839238Y57478818D01*
X13839238Y57478818D02*
X13900817Y57430923D01*
X13900817Y57430923D02*
X13989765Y57410397D01*
X13989765Y57410397D02*
X14047922Y57413818D01*
X14047922Y57413818D02*
X14133449Y57444608D01*
X14133449Y57444608D02*
X14325027Y57636186D01*
X13712659Y57188029D02*
X14006870Y56715924D01*
X13438976Y56914345D02*
X14006870Y56715924D01*
X14006870Y56715924D02*
X14215554Y56650924D01*
X14215554Y56650924D02*
X14273712Y56654345D01*
X14273712Y56654345D02*
X14359238Y56685135D01*
X13055818Y56093293D02*
X12782134Y55819609D01*
X13295292Y56004346D02*
X12457134Y56315661D01*
X12457134Y56315661D02*
X12912134Y55621188D01*
X12720555Y55429609D02*
X12073977Y55932504D01*
X12474239Y55183294D02*
X12135556Y55446715D01*
X12135556Y55446715D02*
X12101345Y55521978D01*
X12101345Y55521978D02*
X12125292Y55600662D01*
X12125292Y55600662D02*
X12207398Y55682767D01*
X12207398Y55682767D02*
X12292924Y55713556D01*
X12292924Y55713556D02*
X12351082Y55716977D01*
X12200556Y54909610D02*
X11769504Y55244873D01*
X11831082Y55196978D02*
X11772925Y55193557D01*
X11772925Y55193557D02*
X11687398Y55162768D01*
X11687398Y55162768D02*
X11605293Y55080663D01*
X11605293Y55080663D02*
X11581346Y55001978D01*
X11581346Y55001978D02*
X11615556Y54926715D01*
X11615556Y54926715D02*
X11954240Y54663294D01*
X11615556Y54926715D02*
X11526609Y54947242D01*
X11526609Y54947242D02*
X11441083Y54916452D01*
X11441083Y54916452D02*
X11358978Y54834347D01*
X11358978Y54834347D02*
X11335030Y54755663D01*
X11335030Y54755663D02*
X11369241Y54680400D01*
X11369241Y54680400D02*
X11707925Y54416979D01*
X11187925Y53896979D02*
X10849241Y54160400D01*
X10849241Y54160400D02*
X10815031Y54235663D01*
X10815031Y54235663D02*
X10838978Y54314348D01*
X10838978Y54314348D02*
X10948452Y54423821D01*
X10948452Y54423821D02*
X11033978Y54454611D01*
X11157136Y53920927D02*
X11242662Y53951716D01*
X11242662Y53951716D02*
X11379504Y54088558D01*
X11379504Y54088558D02*
X11403451Y54167242D01*
X11403451Y54167242D02*
X11369241Y54242506D01*
X11369241Y54242506D02*
X11307662Y54290400D01*
X11307662Y54290400D02*
X11218715Y54310927D01*
X11218715Y54310927D02*
X11133188Y54280137D01*
X11133188Y54280137D02*
X10996346Y54143295D01*
X10996346Y54143295D02*
X10910820Y54112506D01*
X10667926Y53376980D02*
X10021348Y53879875D01*
X10637137Y53400928D02*
X10722663Y53431717D01*
X10722663Y53431717D02*
X10832136Y53541191D01*
X10832136Y53541191D02*
X10856084Y53619875D01*
X10856084Y53619875D02*
X10852663Y53671191D01*
X10852663Y53671191D02*
X10818452Y53746454D01*
X10818452Y53746454D02*
X10633716Y53890138D01*
X10633716Y53890138D02*
X10544768Y53910664D01*
X10544768Y53910664D02*
X10486610Y53907243D01*
X10486610Y53907243D02*
X10401084Y53876454D01*
X10401084Y53876454D02*
X10291611Y53766980D01*
X10291611Y53766980D02*
X10267663Y53688296D01*
X9391875Y53250402D02*
X9063454Y52921981D01*
X9874243Y52583297D02*
X9227664Y53086191D01*
X9272138Y51981192D02*
X8933454Y52244613D01*
X8933454Y52244613D02*
X8899244Y52319876D01*
X8899244Y52319876D02*
X8923191Y52398561D01*
X8923191Y52398561D02*
X9032665Y52508034D01*
X9032665Y52508034D02*
X9118191Y52538824D01*
X9241349Y52005140D02*
X9326875Y52035929D01*
X9326875Y52035929D02*
X9463717Y52172771D01*
X9463717Y52172771D02*
X9487664Y52251455D01*
X9487664Y52251455D02*
X9453454Y52326719D01*
X9453454Y52326719D02*
X9391875Y52374613D01*
X9391875Y52374613D02*
X9302928Y52395140D01*
X9302928Y52395140D02*
X9217401Y52364350D01*
X9217401Y52364350D02*
X9080559Y52227508D01*
X9080559Y52227508D02*
X8995033Y52196719D01*
X8998455Y51707509D02*
X8351876Y52210403D01*
X8697402Y51844351D02*
X8779507Y51488562D01*
X8348455Y51823825D02*
X8813718Y51851193D01*
X8286876Y50995930D02*
X7948192Y51259351D01*
X7948192Y51259351D02*
X7913982Y51334614D01*
X7913982Y51334614D02*
X7937929Y51413298D01*
X7937929Y51413298D02*
X8047403Y51522772D01*
X8047403Y51522772D02*
X8132929Y51553562D01*
X8256087Y51019878D02*
X8341613Y51050667D01*
X8341613Y51050667D02*
X8478455Y51187509D01*
X8478455Y51187509D02*
X8502402Y51266193D01*
X8502402Y51266193D02*
X8468192Y51341456D01*
X8468192Y51341456D02*
X8406613Y51389351D01*
X8406613Y51389351D02*
X8317666Y51409877D01*
X8317666Y51409877D02*
X8232139Y51379088D01*
X8232139Y51379088D02*
X8095297Y51242246D01*
X8095297Y51242246D02*
X8009771Y51211457D01*
X18120581Y58979049D02*
X17474003Y59481944D01*
X17474003Y59481944D02*
X17337161Y59345102D01*
X17337161Y59345102D02*
X17285845Y59239049D01*
X17285845Y59239049D02*
X17292687Y59136418D01*
X17292687Y59136418D02*
X17326897Y59061154D01*
X17326897Y59061154D02*
X17422687Y58937997D01*
X17422687Y58937997D02*
X17515055Y58866155D01*
X17515055Y58866155D02*
X17665581Y58797734D01*
X17665581Y58797734D02*
X17754529Y58777207D01*
X17754529Y58777207D02*
X17870844Y58784049D01*
X17870844Y58784049D02*
X17983739Y58842207D01*
X17983739Y58842207D02*
X18120581Y58979049D01*
X17296108Y58209313D02*
X17381634Y58240102D01*
X17381634Y58240102D02*
X17491108Y58349576D01*
X17491108Y58349576D02*
X17515055Y58428260D01*
X17515055Y58428260D02*
X17480845Y58503523D01*
X17480845Y58503523D02*
X17234529Y58695102D01*
X17234529Y58695102D02*
X17145582Y58715628D01*
X17145582Y58715628D02*
X17060056Y58684839D01*
X17060056Y58684839D02*
X16950582Y58575365D01*
X16950582Y58575365D02*
X16926635Y58496681D01*
X16926635Y58496681D02*
X16960845Y58421418D01*
X16960845Y58421418D02*
X17022424Y58373523D01*
X17022424Y58373523D02*
X17357687Y58599313D01*
X16806898Y57665366D02*
X16160319Y58168260D01*
X16776108Y57689313D02*
X16861634Y57720103D01*
X16861634Y57720103D02*
X16971108Y57829576D01*
X16971108Y57829576D02*
X16995055Y57908260D01*
X16995055Y57908260D02*
X16991634Y57959576D01*
X16991634Y57959576D02*
X16957424Y58034839D01*
X16957424Y58034839D02*
X16772687Y58178523D01*
X16772687Y58178523D02*
X16683740Y58199050D01*
X16683740Y58199050D02*
X16625582Y58195629D01*
X16625582Y58195629D02*
X16540056Y58164839D01*
X16540056Y58164839D02*
X16430582Y58055366D01*
X16430582Y58055366D02*
X16406635Y57976681D01*
X16533214Y57391682D02*
X16102162Y57726945D01*
X15886636Y57894577D02*
X15944793Y57897998D01*
X15944793Y57897998D02*
X15948214Y57846682D01*
X15948214Y57846682D02*
X15890057Y57843261D01*
X15890057Y57843261D02*
X15886636Y57894577D01*
X15886636Y57894577D02*
X15948214Y57846682D01*
X15982425Y56895630D02*
X16067951Y56926419D01*
X16067951Y56926419D02*
X16177425Y57035893D01*
X16177425Y57035893D02*
X16201372Y57114577D01*
X16201372Y57114577D02*
X16197951Y57165893D01*
X16197951Y57165893D02*
X16163740Y57241156D01*
X16163740Y57241156D02*
X15979004Y57384840D01*
X15979004Y57384840D02*
X15890056Y57405366D01*
X15890056Y57405366D02*
X15831898Y57401945D01*
X15831898Y57401945D02*
X15746372Y57371156D01*
X15746372Y57371156D02*
X15636899Y57261682D01*
X15636899Y57261682D02*
X15612951Y57182998D01*
X15520583Y56379051D02*
X15181899Y56642472D01*
X15181899Y56642472D02*
X15147688Y56717735D01*
X15147688Y56717735D02*
X15171636Y56796419D01*
X15171636Y56796419D02*
X15281109Y56905893D01*
X15281109Y56905893D02*
X15366635Y56936682D01*
X15489793Y56402998D02*
X15575320Y56433788D01*
X15575320Y56433788D02*
X15712162Y56570630D01*
X15712162Y56570630D02*
X15736109Y56649314D01*
X15736109Y56649314D02*
X15701898Y56724577D01*
X15701898Y56724577D02*
X15640319Y56772472D01*
X15640319Y56772472D02*
X15551372Y56792998D01*
X15551372Y56792998D02*
X15465846Y56762209D01*
X15465846Y56762209D02*
X15329004Y56625367D01*
X15329004Y56625367D02*
X15243478Y56594577D01*
X14897952Y56522735D02*
X14679005Y56303788D01*
X14600321Y56608262D02*
X15154531Y56177209D01*
X15154531Y56177209D02*
X15188741Y56101946D01*
X15188741Y56101946D02*
X15164794Y56023262D01*
X15164794Y56023262D02*
X15110057Y55968525D01*
X14668742Y55581947D02*
X14754268Y55612736D01*
X14754268Y55612736D02*
X14863742Y55722210D01*
X14863742Y55722210D02*
X14887689Y55800894D01*
X14887689Y55800894D02*
X14853478Y55876157D01*
X14853478Y55876157D02*
X14607163Y56067736D01*
X14607163Y56067736D02*
X14518216Y56088262D01*
X14518216Y56088262D02*
X14432689Y56057473D01*
X14432689Y56057473D02*
X14323216Y55947999D01*
X14323216Y55947999D02*
X14299268Y55869315D01*
X14299268Y55869315D02*
X14333479Y55794052D01*
X14333479Y55794052D02*
X14395058Y55746157D01*
X14395058Y55746157D02*
X14730321Y55971946D01*
X14179531Y55038000D02*
X13532953Y55540894D01*
X14148742Y55061947D02*
X14234268Y55092736D01*
X14234268Y55092736D02*
X14343742Y55202210D01*
X14343742Y55202210D02*
X14367689Y55280894D01*
X14367689Y55280894D02*
X14364268Y55332210D01*
X14364268Y55332210D02*
X14330058Y55407473D01*
X14330058Y55407473D02*
X14145321Y55551157D01*
X14145321Y55551157D02*
X14056374Y55571683D01*
X14056374Y55571683D02*
X13998216Y55568262D01*
X13998216Y55568262D02*
X13912689Y55537473D01*
X13912689Y55537473D02*
X13803216Y55427999D01*
X13803216Y55427999D02*
X13779269Y55349315D01*
X13119006Y54743790D02*
X12900059Y54524843D01*
X12821375Y54829316D02*
X13375585Y54398264D01*
X13375585Y54398264D02*
X13409796Y54323001D01*
X13409796Y54323001D02*
X13385848Y54244316D01*
X13385848Y54244316D02*
X13331111Y54189580D01*
X13057428Y53915896D02*
X13081375Y53994580D01*
X13081375Y53994580D02*
X13077954Y54045896D01*
X13077954Y54045896D02*
X13043743Y54121159D01*
X13043743Y54121159D02*
X12859007Y54264843D01*
X12859007Y54264843D02*
X12770059Y54285369D01*
X12770059Y54285369D02*
X12711902Y54281948D01*
X12711902Y54281948D02*
X12626375Y54251159D01*
X12626375Y54251159D02*
X12544270Y54169053D01*
X12544270Y54169053D02*
X12520323Y54090369D01*
X12520323Y54090369D02*
X12523744Y54039054D01*
X12523744Y54039054D02*
X12557954Y53963790D01*
X12557954Y53963790D02*
X12742691Y53820106D01*
X12742691Y53820106D02*
X12831638Y53799580D01*
X12831638Y53799580D02*
X12889796Y53803001D01*
X12889796Y53803001D02*
X12975322Y53833791D01*
X12975322Y53833791D02*
X13057428Y53915896D01*
X12181639Y53040107D02*
X11750587Y53375370D01*
X11812166Y53327476D02*
X11754008Y53324055D01*
X11754008Y53324055D02*
X11668482Y53293265D01*
X11668482Y53293265D02*
X11586377Y53211160D01*
X11586377Y53211160D02*
X11562429Y53132476D01*
X11562429Y53132476D02*
X11596640Y53057213D01*
X11596640Y53057213D02*
X11935324Y52793792D01*
X11596640Y53057213D02*
X11507692Y53077739D01*
X11507692Y53077739D02*
X11422166Y53046950D01*
X11422166Y53046950D02*
X11340061Y52964844D01*
X11340061Y52964844D02*
X11316114Y52886160D01*
X11316114Y52886160D02*
X11350324Y52810897D01*
X11350324Y52810897D02*
X11689008Y52547476D01*
X11039009Y52663792D02*
X11333219Y52191687D01*
X10765325Y52390108D02*
X11333219Y52191687D01*
X11333219Y52191687D02*
X11541903Y52126687D01*
X11541903Y52126687D02*
X11600061Y52130108D01*
X11600061Y52130108D02*
X11685587Y52160898D01*
X10457431Y51315899D02*
X10481378Y51394583D01*
X10481378Y51394583D02*
X10447167Y51469846D01*
X10447167Y51469846D02*
X9892957Y51900898D01*
X10156378Y51014847D02*
X10180326Y51093531D01*
X10180326Y51093531D02*
X10176905Y51144847D01*
X10176905Y51144847D02*
X10142694Y51220110D01*
X10142694Y51220110D02*
X9957958Y51363794D01*
X9957958Y51363794D02*
X9869010Y51384320D01*
X9869010Y51384320D02*
X9810852Y51380899D01*
X9810852Y51380899D02*
X9725326Y51350110D01*
X9725326Y51350110D02*
X9643221Y51268004D01*
X9643221Y51268004D02*
X9619274Y51189320D01*
X9619274Y51189320D02*
X9622695Y51138004D01*
X9622695Y51138004D02*
X9656905Y51062741D01*
X9656905Y51062741D02*
X9841642Y50919057D01*
X9841642Y50919057D02*
X9930589Y50898531D01*
X9930589Y50898531D02*
X9988747Y50901952D01*
X9988747Y50901952D02*
X10074273Y50932741D01*
X10074273Y50932741D02*
X10156378Y51014847D01*
X9342169Y50966952D02*
X9636379Y50494847D01*
X9636379Y50494847D02*
X9068485Y50693268D01*
X9030853Y49944058D02*
X9116380Y49974848D01*
X9116380Y49974848D02*
X9225853Y50084322D01*
X9225853Y50084322D02*
X9249801Y50163006D01*
X9249801Y50163006D02*
X9215590Y50238269D01*
X9215590Y50238269D02*
X8969275Y50429848D01*
X8969275Y50429848D02*
X8880327Y50450374D01*
X8880327Y50450374D02*
X8794801Y50419584D01*
X8794801Y50419584D02*
X8685327Y50310111D01*
X8685327Y50310111D02*
X8661380Y50231427D01*
X8661380Y50231427D02*
X8695591Y50156164D01*
X8695591Y50156164D02*
X8757169Y50108269D01*
X8757169Y50108269D02*
X9092432Y50334058D01*
X8346643Y49259848D02*
X8295328Y49153796D01*
X8295328Y49153796D02*
X8158486Y49016954D01*
X8158486Y49016954D02*
X8072959Y48986164D01*
X8072959Y48986164D02*
X8014802Y48982743D01*
X8014802Y48982743D02*
X7925854Y49003270D01*
X7925854Y49003270D02*
X7864275Y49051164D01*
X7864275Y49051164D02*
X7830065Y49126427D01*
X7830065Y49126427D02*
X7826644Y49177743D01*
X7826644Y49177743D02*
X7850591Y49256427D01*
X7850591Y49256427D02*
X7929275Y49389848D01*
X7929275Y49389848D02*
X7953223Y49468532D01*
X7953223Y49468532D02*
X7949802Y49519848D01*
X7949802Y49519848D02*
X7915591Y49595111D01*
X7915591Y49595111D02*
X7854012Y49643006D01*
X7854012Y49643006D02*
X7765065Y49663532D01*
X7765065Y49663532D02*
X7706907Y49660111D01*
X7706907Y49660111D02*
X7621381Y49629322D01*
X7621381Y49629322D02*
X7484539Y49492480D01*
X7484539Y49492480D02*
X7433223Y49386427D01*
X7556381Y48414849D02*
X7217697Y48678270D01*
X7217697Y48678270D02*
X7183487Y48753533D01*
X7183487Y48753533D02*
X7207434Y48832217D01*
X7207434Y48832217D02*
X7316908Y48941691D01*
X7316908Y48941691D02*
X7402434Y48972480D01*
X7525592Y48438797D02*
X7611118Y48469586D01*
X7611118Y48469586D02*
X7747960Y48606428D01*
X7747960Y48606428D02*
X7771907Y48685112D01*
X7771907Y48685112D02*
X7737697Y48760375D01*
X7737697Y48760375D02*
X7676118Y48808270D01*
X7676118Y48808270D02*
X7587171Y48828796D01*
X7587171Y48828796D02*
X7501644Y48798007D01*
X7501644Y48798007D02*
X7364802Y48661165D01*
X7364802Y48661165D02*
X7279276Y48630375D01*
X7282697Y48141166D02*
X6851645Y48476429D01*
X6974803Y48380639D02*
X6885856Y48401165D01*
X6885856Y48401165D02*
X6827698Y48397744D01*
X6827698Y48397744D02*
X6742172Y48366955D01*
X6742172Y48366955D02*
X6687435Y48312218D01*
X6680593Y47539061D02*
X6341909Y47802482D01*
X6341909Y47802482D02*
X6307698Y47877745D01*
X6307698Y47877745D02*
X6331645Y47956429D01*
X6331645Y47956429D02*
X6441119Y48065902D01*
X6441119Y48065902D02*
X6526645Y48096692D01*
X6649803Y47563008D02*
X6735329Y47593798D01*
X6735329Y47593798D02*
X6872171Y47730640D01*
X6872171Y47730640D02*
X6896119Y47809324D01*
X6896119Y47809324D02*
X6861908Y47884587D01*
X6861908Y47884587D02*
X6800329Y47932481D01*
X6800329Y47932481D02*
X6711382Y47953008D01*
X6711382Y47953008D02*
X6625856Y47922218D01*
X6625856Y47922218D02*
X6489014Y47785376D01*
X6489014Y47785376D02*
X6403487Y47754587D01*
X18313769Y58087966D02*
X18094822Y57869019D01*
X18016138Y58173493D02*
X18570348Y57742440D01*
X18570348Y57742440D02*
X18604558Y57667177D01*
X18604558Y57667177D02*
X18580611Y57588493D01*
X18580611Y57588493D02*
X18525874Y57533756D01*
X18087980Y57095862D02*
X17749296Y57359283D01*
X17749296Y57359283D02*
X17715085Y57434546D01*
X17715085Y57434546D02*
X17739033Y57513230D01*
X17739033Y57513230D02*
X17848506Y57622704D01*
X17848506Y57622704D02*
X17934033Y57653493D01*
X18057190Y57119809D02*
X18142717Y57150599D01*
X18142717Y57150599D02*
X18279559Y57287441D01*
X18279559Y57287441D02*
X18303506Y57366125D01*
X18303506Y57366125D02*
X18269296Y57441388D01*
X18269296Y57441388D02*
X18207717Y57489283D01*
X18207717Y57489283D02*
X18118769Y57509809D01*
X18118769Y57509809D02*
X18033243Y57479020D01*
X18033243Y57479020D02*
X17896401Y57342178D01*
X17896401Y57342178D02*
X17810875Y57311388D01*
X17814296Y56822178D02*
X17167718Y57325073D01*
X17513244Y56959020D02*
X17595349Y56603231D01*
X17164297Y56938494D02*
X17629560Y56965863D01*
X17102718Y56110600D02*
X16764034Y56374021D01*
X16764034Y56374021D02*
X16729823Y56449284D01*
X16729823Y56449284D02*
X16753771Y56527968D01*
X16753771Y56527968D02*
X16863244Y56637442D01*
X16863244Y56637442D02*
X16948771Y56668231D01*
X17071928Y56134547D02*
X17157455Y56165337D01*
X17157455Y56165337D02*
X17294297Y56302179D01*
X17294297Y56302179D02*
X17318244Y56380863D01*
X17318244Y56380863D02*
X17284033Y56456126D01*
X17284033Y56456126D02*
X17222455Y56504021D01*
X17222455Y56504021D02*
X17133507Y56524547D01*
X17133507Y56524547D02*
X17047981Y56493758D01*
X17047981Y56493758D02*
X16911139Y56356916D01*
X16911139Y56356916D02*
X16825613Y56326126D01*
X16582719Y55590601D02*
X16244035Y55854022D01*
X16244035Y55854022D02*
X16209824Y55929285D01*
X16209824Y55929285D02*
X16233771Y56007969D01*
X16233771Y56007969D02*
X16343245Y56117442D01*
X16343245Y56117442D02*
X16428771Y56148232D01*
X16551929Y55614548D02*
X16637455Y55645338D01*
X16637455Y55645338D02*
X16774297Y55782180D01*
X16774297Y55782180D02*
X16798245Y55860864D01*
X16798245Y55860864D02*
X16764034Y55936127D01*
X16764034Y55936127D02*
X16702455Y55984022D01*
X16702455Y55984022D02*
X16613508Y56004548D01*
X16613508Y56004548D02*
X16527982Y55973758D01*
X16527982Y55973758D02*
X16391140Y55836916D01*
X16391140Y55836916D02*
X16305614Y55806127D01*
X16309035Y55316917D02*
X15662456Y55819811D01*
X16062719Y55070602D02*
X15724035Y55334022D01*
X15724035Y55334022D02*
X15689825Y55409285D01*
X15689825Y55409285D02*
X15713772Y55487970D01*
X15713772Y55487970D02*
X15795877Y55570075D01*
X15795877Y55570075D02*
X15881404Y55600864D01*
X15881404Y55600864D02*
X15939561Y55604285D01*
X15789036Y54796918D02*
X15357983Y55132181D01*
X15419562Y55084286D02*
X15361404Y55080865D01*
X15361404Y55080865D02*
X15275878Y55050076D01*
X15275878Y55050076D02*
X15193773Y54967970D01*
X15193773Y54967970D02*
X15169826Y54889286D01*
X15169826Y54889286D02*
X15204036Y54814023D01*
X15204036Y54814023D02*
X15542720Y54550602D01*
X15204036Y54814023D02*
X15115089Y54834549D01*
X15115089Y54834549D02*
X15029563Y54803760D01*
X15029563Y54803760D02*
X14947457Y54721655D01*
X14947457Y54721655D02*
X14923510Y54642971D01*
X14923510Y54642971D02*
X14957720Y54567708D01*
X14957720Y54567708D02*
X15296404Y54304287D01*
X14776405Y53784287D02*
X14437721Y54047708D01*
X14437721Y54047708D02*
X14403511Y54122971D01*
X14403511Y54122971D02*
X14427458Y54201655D01*
X14427458Y54201655D02*
X14536932Y54311129D01*
X14536932Y54311129D02*
X14622458Y54341918D01*
X14745616Y53808235D02*
X14831142Y53839024D01*
X14831142Y53839024D02*
X14967984Y53975866D01*
X14967984Y53975866D02*
X14991931Y54054550D01*
X14991931Y54054550D02*
X14957721Y54129813D01*
X14957721Y54129813D02*
X14896142Y54177708D01*
X14896142Y54177708D02*
X14807195Y54198234D01*
X14807195Y54198234D02*
X14721668Y54167445D01*
X14721668Y54167445D02*
X14584826Y54030603D01*
X14584826Y54030603D02*
X14499300Y53999813D01*
X14256406Y53264288D02*
X13609827Y53767182D01*
X14225616Y53288235D02*
X14311143Y53319025D01*
X14311143Y53319025D02*
X14420616Y53428498D01*
X14420616Y53428498D02*
X14444564Y53507183D01*
X14444564Y53507183D02*
X14441143Y53558498D01*
X14441143Y53558498D02*
X14406932Y53633761D01*
X14406932Y53633761D02*
X14222195Y53777446D01*
X14222195Y53777446D02*
X14133248Y53797972D01*
X14133248Y53797972D02*
X14075090Y53794551D01*
X14075090Y53794551D02*
X13989564Y53763761D01*
X13989564Y53763761D02*
X13880090Y53654288D01*
X13880090Y53654288D02*
X13856143Y53575604D01*
X13425091Y53472972D02*
X13366933Y53469551D01*
X13366933Y53469551D02*
X13281407Y53438762D01*
X13281407Y53438762D02*
X13144565Y53301920D01*
X13144565Y53301920D02*
X13120618Y53223236D01*
X13120618Y53223236D02*
X13124039Y53171920D01*
X13124039Y53171920D02*
X13158249Y53096657D01*
X13158249Y53096657D02*
X13219828Y53048762D01*
X13219828Y53048762D02*
X13339565Y53004289D01*
X13339565Y53004289D02*
X14037459Y53045341D01*
X14037459Y53045341D02*
X13681670Y52689552D01*
X12515092Y52672447D02*
X12788776Y52946131D01*
X12788776Y52946131D02*
X13124039Y52734026D01*
X13124039Y52734026D02*
X13065881Y52730605D01*
X13065881Y52730605D02*
X12980355Y52699815D01*
X12980355Y52699815D02*
X12843513Y52562973D01*
X12843513Y52562973D02*
X12819565Y52484289D01*
X12819565Y52484289D02*
X12822986Y52432973D01*
X12822986Y52432973D02*
X12857197Y52357710D01*
X12857197Y52357710D02*
X13011144Y52237974D01*
X13011144Y52237974D02*
X13100091Y52217447D01*
X13100091Y52217447D02*
X13158249Y52220868D01*
X13158249Y52220868D02*
X13243776Y52251658D01*
X13243776Y52251658D02*
X13380618Y52388500D01*
X13380618Y52388500D02*
X13404565Y52467184D01*
X13404565Y52467184D02*
X13401144Y52518500D01*
X12224303Y51779553D02*
X12220882Y51830869D01*
X12220882Y51830869D02*
X12244829Y51909553D01*
X12244829Y51909553D02*
X12299566Y51964290D01*
X12299566Y51964290D02*
X12385092Y51995079D01*
X12385092Y51995079D02*
X12443250Y51998500D01*
X12443250Y51998500D02*
X12532197Y51977974D01*
X12532197Y51977974D02*
X12593776Y51930079D01*
X12593776Y51930079D02*
X12627987Y51854816D01*
X12627987Y51854816D02*
X12631408Y51803500D01*
X12631408Y51803500D02*
X12607460Y51724816D01*
X12607460Y51724816D02*
X12552724Y51670079D01*
X12552724Y51670079D02*
X12467197Y51639290D01*
X12467197Y51639290D02*
X12409040Y51635869D01*
X12162724Y51827448D02*
X12409040Y51635869D01*
X12409040Y51635869D02*
X12412461Y51584553D01*
X12412461Y51584553D02*
X12385092Y51557185D01*
X12385092Y51557185D02*
X12299566Y51526395D01*
X12299566Y51526395D02*
X12210619Y51546922D01*
X12210619Y51546922D02*
X12056671Y51666658D01*
X12056671Y51666658D02*
X12019040Y51793237D01*
X12019040Y51793237D02*
X12039566Y51923237D01*
X12039566Y51923237D02*
X12118250Y52056658D01*
X12118250Y52056658D02*
X12258513Y52142184D01*
X12258513Y52142184D02*
X12402197Y52176395D01*
X12402197Y52176395D02*
X12549303Y52159290D01*
X12549303Y52159290D02*
X12699829Y52090869D01*
X12699829Y52090869D02*
X12795618Y51967711D01*
X12795618Y51967711D02*
X12833250Y51841132D01*
X12833250Y51841132D02*
X12812723Y51711132D01*
X12812723Y51711132D02*
X12734039Y51577711D01*
X12734039Y51577711D02*
X12593776Y51492185D01*
X12593776Y51492185D02*
X12450092Y51457974D01*
X11471672Y51245869D02*
X11995092Y50838764D01*
X11995092Y50838764D02*
X12084039Y50818238D01*
X12084039Y50818238D02*
X12142197Y50821659D01*
X12142197Y50821659D02*
X12227724Y50852448D01*
X12227724Y50852448D02*
X12309829Y50934553D01*
X12309829Y50934553D02*
X12333776Y51013238D01*
X11871934Y50934553D02*
X11957461Y50965343D01*
X11957461Y50965343D02*
X12066934Y51074816D01*
X12066934Y51074816D02*
X12090882Y51153501D01*
X12090882Y51153501D02*
X12087461Y51204816D01*
X12087461Y51204816D02*
X12053250Y51280079D01*
X12053250Y51280079D02*
X11868513Y51423764D01*
X11868513Y51423764D02*
X11779566Y51444290D01*
X11779566Y51444290D02*
X11721408Y51440869D01*
X11721408Y51440869D02*
X11635882Y51410079D01*
X11635882Y51410079D02*
X11526408Y51300606D01*
X11526408Y51300606D02*
X11502461Y51221922D01*
X11629040Y50636922D02*
X11197988Y50972185D01*
X11259567Y50924291D02*
X11201409Y50920870D01*
X11201409Y50920870D02*
X11115883Y50890080D01*
X11115883Y50890080D02*
X11033777Y50807975D01*
X11033777Y50807975D02*
X11009830Y50729291D01*
X11009830Y50729291D02*
X11044041Y50654028D01*
X11044041Y50654028D02*
X11382725Y50390607D01*
X11044041Y50654028D02*
X10955093Y50674554D01*
X10955093Y50674554D02*
X10869567Y50643764D01*
X10869567Y50643764D02*
X10787462Y50561659D01*
X10787462Y50561659D02*
X10763515Y50482975D01*
X10763515Y50482975D02*
X10797725Y50407712D01*
X10797725Y50407712D02*
X11136409Y50144291D01*
X10616410Y49624292D02*
X10277726Y49887713D01*
X10277726Y49887713D02*
X10243515Y49962976D01*
X10243515Y49962976D02*
X10267463Y50041660D01*
X10267463Y50041660D02*
X10376936Y50151134D01*
X10376936Y50151134D02*
X10462462Y50181923D01*
X10585620Y49648239D02*
X10671146Y49679029D01*
X10671146Y49679029D02*
X10807988Y49815871D01*
X10807988Y49815871D02*
X10831936Y49894555D01*
X10831936Y49894555D02*
X10797725Y49969818D01*
X10797725Y49969818D02*
X10736146Y50017713D01*
X10736146Y50017713D02*
X10647199Y50038239D01*
X10647199Y50038239D02*
X10561673Y50007449D01*
X10561673Y50007449D02*
X10424831Y49870607D01*
X10424831Y49870607D02*
X10339305Y49839818D01*
X10342726Y49350608D02*
X9911674Y49685871D01*
X9696148Y49853503D02*
X9754305Y49856924D01*
X9754305Y49856924D02*
X9757726Y49805608D01*
X9757726Y49805608D02*
X9699569Y49802187D01*
X9699569Y49802187D02*
X9696148Y49853503D01*
X9696148Y49853503D02*
X9757726Y49805608D01*
X9986937Y48994819D02*
X10010884Y49073503D01*
X10010884Y49073503D02*
X9976673Y49148766D01*
X9976673Y49148766D02*
X9422463Y49579818D01*
X9706411Y48823766D02*
X9709832Y48772451D01*
X9709832Y48772451D02*
X9767990Y48775872D01*
X9767990Y48775872D02*
X9764569Y48827188D01*
X9764569Y48827188D02*
X9706411Y48823766D01*
X9706411Y48823766D02*
X9767990Y48775872D01*
X9217200Y48279819D02*
X9302727Y48310609D01*
X9302727Y48310609D02*
X9412200Y48420082D01*
X9412200Y48420082D02*
X9436147Y48498766D01*
X9436147Y48498766D02*
X9432726Y48550082D01*
X9432726Y48550082D02*
X9398516Y48625345D01*
X9398516Y48625345D02*
X9213779Y48769029D01*
X9213779Y48769029D02*
X9124832Y48789556D01*
X9124832Y48789556D02*
X9066674Y48786135D01*
X9066674Y48786135D02*
X8981148Y48755345D01*
X8981148Y48755345D02*
X8871674Y48645872D01*
X8871674Y48645872D02*
X8847727Y48567187D01*
X8919569Y47927451D02*
X8943516Y48006135D01*
X8943516Y48006135D02*
X8940095Y48057451D01*
X8940095Y48057451D02*
X8905885Y48132714D01*
X8905885Y48132714D02*
X8721148Y48276398D01*
X8721148Y48276398D02*
X8632201Y48296924D01*
X8632201Y48296924D02*
X8574043Y48293503D01*
X8574043Y48293503D02*
X8488516Y48262714D01*
X8488516Y48262714D02*
X8406411Y48180609D01*
X8406411Y48180609D02*
X8382464Y48101924D01*
X8382464Y48101924D02*
X8385885Y48050609D01*
X8385885Y48050609D02*
X8420095Y47975346D01*
X8420095Y47975346D02*
X8604832Y47831662D01*
X8604832Y47831662D02*
X8693779Y47811135D01*
X8693779Y47811135D02*
X8751937Y47814556D01*
X8751937Y47814556D02*
X8837464Y47845346D01*
X8837464Y47845346D02*
X8919569Y47927451D01*
X8481675Y47489557D02*
X8050622Y47824820D01*
X8112201Y47776925D02*
X8054043Y47773504D01*
X8054043Y47773504D02*
X7968517Y47742715D01*
X7968517Y47742715D02*
X7886412Y47660609D01*
X7886412Y47660609D02*
X7862465Y47581925D01*
X7862465Y47581925D02*
X7896675Y47506662D01*
X7896675Y47506662D02*
X8235359Y47243241D01*
X7896675Y47506662D02*
X7807728Y47527188D01*
X7807728Y47527188D02*
X7722202Y47496399D01*
X7722202Y47496399D02*
X7640096Y47414294D01*
X7640096Y47414294D02*
X7616149Y47335610D01*
X7616149Y47335610D02*
X7650360Y47260347D01*
X7650360Y47260347D02*
X7989043Y46996926D01*
D12*
X57753803Y40698277D02*
X59875123Y42819597D01*
X59875123Y42819597D02*
X57652788Y42011475D01*
X57652788Y42011475D02*
X58460910Y44233811D01*
X58460910Y44233811D02*
X56339589Y42112491D01*
X55329437Y43122643D02*
X57450758Y45243963D01*
X57450758Y45243963D02*
X56642636Y46052085D01*
X56642636Y46052085D02*
X56339590Y46153101D01*
X56339590Y46153101D02*
X56137559Y46153101D01*
X56137559Y46153101D02*
X55834514Y46052085D01*
X55834514Y46052085D02*
X55531468Y45749040D01*
X55531468Y45749040D02*
X55430452Y45445994D01*
X55430452Y45445994D02*
X55430452Y45243963D01*
X55430452Y45243963D02*
X55531468Y44940917D01*
X55531468Y44940917D02*
X56339590Y44132795D01*
X55531468Y47163253D02*
X54218269Y48476451D01*
X54218269Y48476451D02*
X54117254Y46961223D01*
X54117254Y46961223D02*
X53814208Y47264268D01*
X53814208Y47264268D02*
X53511163Y47365284D01*
X53511163Y47365284D02*
X53309132Y47365284D01*
X53309132Y47365284D02*
X53006086Y47264268D01*
X53006086Y47264268D02*
X52501010Y46759192D01*
X52501010Y46759192D02*
X52399995Y46456146D01*
X52399995Y46456146D02*
X52399995Y46254116D01*
X52399995Y46254116D02*
X52501010Y45951070D01*
X52501010Y45951070D02*
X53107102Y45344978D01*
X53107102Y45344978D02*
X53410147Y45243963D01*
X53410147Y45243963D02*
X53612178Y45243963D01*
X51490857Y46557162D02*
X49874613Y48173406D01*
X49571568Y48880512D02*
X51692888Y51001833D01*
X51692888Y51001833D02*
X50884766Y51809955D01*
X50884766Y51809955D02*
X50581720Y51910970D01*
X50581720Y51910970D02*
X50379690Y51910970D01*
X50379690Y51910970D02*
X50076644Y51809955D01*
X50076644Y51809955D02*
X49773598Y51506909D01*
X49773598Y51506909D02*
X49672583Y51203863D01*
X49672583Y51203863D02*
X49672583Y51001833D01*
X49672583Y51001833D02*
X49773598Y50698787D01*
X49773598Y50698787D02*
X50581720Y49890665D01*
X47147202Y51304878D02*
X47450247Y51203863D01*
X47450247Y51203863D02*
X47753293Y51304878D01*
X47753293Y51304878D02*
X49571568Y53123153D01*
X45429942Y53022138D02*
X46541110Y54133306D01*
X46541110Y54133306D02*
X46844156Y54234321D01*
X46844156Y54234321D02*
X47147201Y54133306D01*
X47147201Y54133306D02*
X47551262Y53729245D01*
X47551262Y53729245D02*
X47652278Y53426199D01*
X45530957Y53123153D02*
X45631973Y52820108D01*
X45631973Y52820108D02*
X46137049Y52315031D01*
X46137049Y52315031D02*
X46440095Y52214016D01*
X46440095Y52214016D02*
X46743140Y52315031D01*
X46743140Y52315031D02*
X46945171Y52517062D01*
X46945171Y52517062D02*
X47046186Y52820108D01*
X47046186Y52820108D02*
X46945171Y53123153D01*
X46945171Y53123153D02*
X46440095Y53628230D01*
X46440095Y53628230D02*
X46339079Y53931275D01*
X46036033Y55244474D02*
X44116744Y54335337D01*
X45025881Y56254626D02*
X44116744Y54335337D01*
X44116744Y54335337D02*
X43813698Y53628230D01*
X43813698Y53628230D02*
X43813698Y53426199D01*
X43813698Y53426199D02*
X43914713Y53123153D01*
X42096439Y56557672D02*
X42197454Y56254626D01*
X42197454Y56254626D02*
X42601515Y55850565D01*
X42601515Y55850565D02*
X42904561Y55749550D01*
X42904561Y55749550D02*
X43207607Y55850565D01*
X43207607Y55850565D02*
X44015729Y56658687D01*
X44015729Y56658687D02*
X44116744Y56961733D01*
X44116744Y56961733D02*
X44015729Y57264779D01*
X44015729Y57264779D02*
X43611668Y57668840D01*
X43611668Y57668840D02*
X43308622Y57769855D01*
X43308622Y57769855D02*
X43005576Y57668840D01*
X43005576Y57668840D02*
X42803545Y57466809D01*
X42803545Y57466809D02*
X43611668Y56254626D01*
X40985271Y57466810D02*
X42399484Y58881023D01*
X41995423Y58476962D02*
X42096438Y58780008D01*
X42096438Y58780008D02*
X42096438Y58982038D01*
X42096438Y58982038D02*
X41995423Y59285084D01*
X41995423Y59285084D02*
X41793393Y59487115D01*
D11*
X35195356Y55460597D02*
X35466289Y55847644D01*
X35659813Y55460597D02*
X35659813Y56273397D01*
X35659813Y56273397D02*
X35350175Y56273397D01*
X35350175Y56273397D02*
X35272765Y56234692D01*
X35272765Y56234692D02*
X35234060Y56195987D01*
X35234060Y56195987D02*
X35195356Y56118578D01*
X35195356Y56118578D02*
X35195356Y56002463D01*
X35195356Y56002463D02*
X35234060Y55925054D01*
X35234060Y55925054D02*
X35272765Y55886349D01*
X35272765Y55886349D02*
X35350175Y55847644D01*
X35350175Y55847644D02*
X35659813Y55847644D01*
X34537375Y55499301D02*
X34614784Y55460597D01*
X34614784Y55460597D02*
X34769603Y55460597D01*
X34769603Y55460597D02*
X34847013Y55499301D01*
X34847013Y55499301D02*
X34885717Y55576711D01*
X34885717Y55576711D02*
X34885717Y55886349D01*
X34885717Y55886349D02*
X34847013Y55963759D01*
X34847013Y55963759D02*
X34769603Y56002463D01*
X34769603Y56002463D02*
X34614784Y56002463D01*
X34614784Y56002463D02*
X34537375Y55963759D01*
X34537375Y55963759D02*
X34498670Y55886349D01*
X34498670Y55886349D02*
X34498670Y55808940D01*
X34498670Y55808940D02*
X34885717Y55731530D01*
X34227736Y56002463D02*
X34034212Y55460597D01*
X34034212Y55460597D02*
X33840689Y56002463D01*
X33608460Y56273397D02*
X33105298Y56273397D01*
X33105298Y56273397D02*
X33376232Y55963759D01*
X33376232Y55963759D02*
X33260117Y55963759D01*
X33260117Y55963759D02*
X33182708Y55925054D01*
X33182708Y55925054D02*
X33144003Y55886349D01*
X33144003Y55886349D02*
X33105298Y55808940D01*
X33105298Y55808940D02*
X33105298Y55615416D01*
X33105298Y55615416D02*
X33144003Y55538006D01*
X33144003Y55538006D02*
X33182708Y55499301D01*
X33182708Y55499301D02*
X33260117Y55460597D01*
X33260117Y55460597D02*
X33492346Y55460597D01*
X33492346Y55460597D02*
X33569755Y55499301D01*
X33569755Y55499301D02*
X33608460Y55538006D01*
X32756956Y55538006D02*
X32718251Y55499301D01*
X32718251Y55499301D02*
X32756956Y55460597D01*
X32756956Y55460597D02*
X32795660Y55499301D01*
X32795660Y55499301D02*
X32756956Y55538006D01*
X32756956Y55538006D02*
X32756956Y55460597D01*
X31944155Y55460597D02*
X32408612Y55460597D01*
X32176384Y55460597D02*
X32176384Y56273397D01*
X32176384Y56273397D02*
X32253793Y56157282D01*
X32253793Y56157282D02*
X32331203Y56079873D01*
X32331203Y56079873D02*
X32408612Y56041168D01*
X52725583Y52758951D02*
X53272951Y52211583D01*
X55736750Y50366817D02*
X55189382Y49819449D01*
X55736750Y49819449D02*
X55189382Y50366817D01*
%LPC*%
D13*
%TO.C,J3*%
X26530200Y56394600D03*
D14*
X26530200Y53854600D03*
X26530200Y51314600D03*
%TD*%
D15*
%TO.C,J1*%
X38052727Y53073300D03*
X29392727Y53073300D03*
D16*
X29392727Y57253300D03*
X38052727Y57253300D03*
%TD*%
D17*
%TO.C,J5*%
X41541600Y17989800D03*
%TD*%
D18*
%TO.C,J4*%
X59143800Y39529000D03*
%TD*%
D19*
%TO.C,BT1*%
X32321400Y12394000D03*
D20*
X34821400Y12394000D03*
%TD*%
D21*
%TO.C,H2*%
X57722727Y32471199D03*
%TD*%
%TO.C,H1*%
X9722727Y32471199D03*
%TD*%
D22*
%TO.C,LS1*%
X55410000Y54159400D03*
D14*
X57206051Y52363348D03*
%TD*%
%LPD*%
M02*
