%TF.GenerationSoftware,KiCad,Pcbnew,8.0.8*%
%TF.CreationDate,2025-02-05T19:25:59-05:00*%
%TF.ProjectId,flashlight-led,666c6173-686c-4696-9768-742d6c65642e,rev?*%
%TF.SameCoordinates,Original*%
%TF.FileFunction,Profile,NP*%
%FSLAX46Y46*%
G04 Gerber Fmt 4.6, Leading zero omitted, Abs format (unit mm)*
G04 Created by KiCad (PCBNEW 8.0.8) date 2025-02-05 19:25:59*
%MOMM*%
%LPD*%
G01*
G04 APERTURE LIST*
%TA.AperFunction,Profile*%
%ADD10C,0.250000*%
%TD*%
%TA.AperFunction,Profile*%
%ADD11C,0.050000*%
%TD*%
G04 APERTURE END LIST*
D10*
X163270001Y-96920000D02*
G75*
G02*
X159269999Y-96920000I-2000001J0D01*
G01*
X159269999Y-96920000D02*
G75*
G02*
X163270001Y-96920000I2000001J0D01*
G01*
X148159660Y-108714226D02*
G75*
G02*
X147822194Y-106556999I1486880J1337609D01*
G01*
X174380341Y-108714227D02*
G75*
G02*
X148159659Y-108714227I-13110341J11794230D01*
G01*
X174717809Y-106556997D02*
G75*
G02*
X174380343Y-108714229I-1824349J-819620D01*
G01*
X174717809Y-106556997D02*
G75*
G02*
X176339790Y-103747645I1824342J819617D01*
G01*
X178039271Y-102376773D02*
G75*
G02*
X176339790Y-103747642I-1901841J618866D01*
G01*
X164928930Y-79668999D02*
G75*
G02*
X178039270Y-102376773I-3658929J-17251000D01*
G01*
X162891981Y-80455357D02*
G75*
G02*
X164928930Y-79669001I1621979J-1170120D01*
G01*
X162891981Y-80455357D02*
G75*
G02*
X159648019Y-80455357I-1621981J1170121D01*
G01*
X157611070Y-79668999D02*
G75*
G02*
X159647997Y-80455373I414960J-1956428D01*
G01*
X144500730Y-102376773D02*
G75*
G02*
X157611070Y-79668999I16769270J5456773D01*
G01*
X146200211Y-103747645D02*
G75*
G02*
X144500726Y-102376774I202359J1989738D01*
G01*
X146200211Y-103747645D02*
G75*
G02*
X147822192Y-106556998I-202361J-1989735D01*
G01*
D11*
%TO.C,REF\u002A\u002A*%
X174470000Y-89920000D02*
G75*
G02*
X172310000Y-89920000I-1080000J0D01*
G01*
X172310000Y-89920000D02*
G75*
G02*
X174470000Y-89920000I1080000J0D01*
G01*
X162350000Y-110920000D02*
G75*
G02*
X160190000Y-110920000I-1080000J0D01*
G01*
X160190000Y-110920000D02*
G75*
G02*
X162350000Y-110920000I1080000J0D01*
G01*
X150230000Y-89920000D02*
G75*
G02*
X148070000Y-89920000I-1080000J0D01*
G01*
X148070000Y-89920000D02*
G75*
G02*
X150230000Y-89920000I1080000J0D01*
G01*
%TD*%
M02*
