M48
; DRILL file {KiCad 8.0.8} date 2025-02-07T00:34:32-0500
; FORMAT={-:-/ absolute / inch / decimal}
; #@! TF.CreationDate,2025-02-07T00:34:32-05:00
; #@! TF.GenerationSoftware,Kicad,Pcbnew,8.0.8
; #@! TF.FileFunction,Plated,1,2,PTH
FMAT,2
INCH
; #@! TA.AperFunction,Plated,PTH,ViaDrill
T1C0.0120
; #@! TA.AperFunction,Plated,PTH,ComponentDrill
T2C0.0394
; #@! TA.AperFunction,Plated,PTH,ComponentDrill
T3C0.0866
%
G90
G05
T1
X5.2Y-3.1
X5.2Y-3.25
X5.25Y-4.2
X5.2929Y-3.7618
X5.35Y-3.1
X5.35Y-3.25
X5.35Y-3.4
X5.35Y-3.55
X5.35Y-4.05
X5.3618Y-3.8409
X5.402Y-3.8406
X5.45Y-3.55
X5.45Y-4.2
X5.5Y-3.1
X5.5Y-3.25
X5.5Y-3.4
X5.55Y-4.05
X5.6102Y-3.6075
X5.6102Y-3.6689
X5.65Y-3.1
X5.65Y-3.25
X5.65Y-3.4
X5.65Y-4.2
X5.6728Y-3.6705
X5.75Y-4.05
X5.8Y-3.1
X5.8Y-3.25
X5.85Y-4.2
X5.95Y-3.1
X5.95Y-3.25
T2
X5.1315Y-3.4256
X5.1315Y-3.5256
X5.1315Y-3.6256
X5.1315Y-3.7256
X5.1315Y-3.8256
X5.1315Y-3.9256
X6.0315Y-3.4256
X6.0315Y-3.5256
X6.0315Y-3.8256
X6.0315Y-3.9256
T3
X5.0815Y-3.1756
X5.0815Y-4.1756
X6.0815Y-3.1756
X6.0815Y-4.1756
M30
