%TF.GenerationSoftware,KiCad,Pcbnew,8.0.8*%
%TF.CreationDate,2025-02-07T00:34:32-05:00*%
%TF.ProjectId,flashlight-boost-dev,666c6173-686c-4696-9768-742d626f6f73,rev?*%
%TF.SameCoordinates,Original*%
%TF.FileFunction,Copper,L1,Top*%
%TF.FilePolarity,Positive*%
%FSLAX46Y46*%
G04 Gerber Fmt 4.6, Leading zero omitted, Abs format (unit mm)*
G04 Created by KiCad (PCBNEW 8.0.8) date 2025-02-07 00:34:32*
%MOMM*%
%LPD*%
G01*
G04 APERTURE LIST*
G04 Aperture macros list*
%AMRoundRect*
0 Rectangle with rounded corners*
0 $1 Rounding radius*
0 $2 $3 $4 $5 $6 $7 $8 $9 X,Y pos of 4 corners*
0 Add a 4 corners polygon primitive as box body*
4,1,4,$2,$3,$4,$5,$6,$7,$8,$9,$2,$3,0*
0 Add four circle primitives for the rounded corners*
1,1,$1+$1,$2,$3*
1,1,$1+$1,$4,$5*
1,1,$1+$1,$6,$7*
1,1,$1+$1,$8,$9*
0 Add four rect primitives between the rounded corners*
20,1,$1+$1,$2,$3,$4,$5,0*
20,1,$1+$1,$4,$5,$6,$7,0*
20,1,$1+$1,$6,$7,$8,$9,0*
20,1,$1+$1,$8,$9,$2,$3,0*%
G04 Aperture macros list end*
%TA.AperFunction,SMDPad,CuDef*%
%ADD10R,1.298243X4.018234*%
%TD*%
%TA.AperFunction,SMDPad,CuDef*%
%ADD11R,1.332434X4.037434*%
%TD*%
%TA.AperFunction,SMDPad,CuDef*%
%ADD12RoundRect,0.225000X-0.250000X0.225000X-0.250000X-0.225000X0.250000X-0.225000X0.250000X0.225000X0*%
%TD*%
%TA.AperFunction,SMDPad,CuDef*%
%ADD13RoundRect,0.250000X0.337500X0.475000X-0.337500X0.475000X-0.337500X-0.475000X0.337500X-0.475000X0*%
%TD*%
%TA.AperFunction,SMDPad,CuDef*%
%ADD14R,0.250000X0.360000*%
%TD*%
%TA.AperFunction,SMDPad,CuDef*%
%ADD15RoundRect,0.250000X0.625000X-0.400000X0.625000X0.400000X-0.625000X0.400000X-0.625000X-0.400000X0*%
%TD*%
%TA.AperFunction,ComponentPad*%
%ADD16C,4.400000*%
%TD*%
%TA.AperFunction,SMDPad,CuDef*%
%ADD17RoundRect,0.050000X0.545000X0.150000X-0.545000X0.150000X-0.545000X-0.150000X0.545000X-0.150000X0*%
%TD*%
%TA.AperFunction,ComponentPad*%
%ADD18R,1.700000X1.700000*%
%TD*%
%TA.AperFunction,ComponentPad*%
%ADD19O,1.700000X1.700000*%
%TD*%
%TA.AperFunction,ViaPad*%
%ADD20C,0.609600*%
%TD*%
%TA.AperFunction,Conductor*%
%ADD21C,0.508000*%
%TD*%
%TA.AperFunction,Conductor*%
%ADD22C,0.762000*%
%TD*%
%TA.AperFunction,Conductor*%
%ADD23C,0.406400*%
%TD*%
G04 APERTURE END LIST*
D10*
%TO.P,LU11,1*%
%TO.N,+5V*%
X141235879Y-97825638D03*
D11*
%TO.P,LU11,2*%
%TO.N,/VOUT*%
X143941217Y-97828717D03*
%TD*%
D12*
%TO.P,CU12,1*%
%TO.N,+5V*%
X136860000Y-94545000D03*
%TO.P,CU12,2*%
%TO.N,GND*%
X136860000Y-96095000D03*
%TD*%
D13*
%TO.P,CU13,1*%
%TO.N,/LED1+*%
X146247500Y-91800000D03*
%TO.P,CU13,2*%
%TO.N,GND*%
X144172500Y-91800000D03*
%TD*%
D14*
%TO.P,DU11,P$1*%
%TO.N,/LED1+*%
X146580000Y-93370000D03*
%TO.P,DU11,P$2*%
%TO.N,/VOUT*%
X146580000Y-94330000D03*
%TD*%
D15*
%TO.P,RU11,1*%
%TO.N,/LED1-*%
X140640000Y-91130000D03*
%TO.P,RU11,2*%
%TO.N,GND*%
X140640000Y-88030000D03*
%TD*%
D16*
%TO.P,H1,1,1*%
%TO.N,GND*%
X129070000Y-80660000D03*
%TD*%
%TO.P,H3,1,1*%
%TO.N,GND*%
X154470000Y-106060000D03*
%TD*%
D13*
%TO.P,CU11,1*%
%TO.N,+5V*%
X138947500Y-99150000D03*
%TO.P,CU11,2*%
%TO.N,GND*%
X136872500Y-99150000D03*
%TD*%
D17*
%TO.P,U1,1,SW*%
%TO.N,/VOUT*%
X140849999Y-94310000D03*
%TO.P,U1,2,GND*%
%TO.N,GND*%
X140850000Y-93660000D03*
%TO.P,U1,3,FB*%
%TO.N,/LED1-*%
X140850000Y-93009999D03*
%TO.P,U1,4,CTRL*%
%TO.N,/PWM1*%
X138930001Y-93010000D03*
%TO.P,U1,5,VIN*%
%TO.N,+5V*%
X138930000Y-94310001D03*
%TD*%
D18*
%TO.P,J2,1,Pin_1*%
%TO.N,/LED1-*%
X153200000Y-87010000D03*
D19*
%TO.P,J2,2,Pin_2*%
X153200000Y-89550000D03*
%TD*%
D16*
%TO.P,H4,1,1*%
%TO.N,GND*%
X129070000Y-106060000D03*
%TD*%
D18*
%TO.P,J3,1,Pin_1*%
%TO.N,/LED1+*%
X153200000Y-99710000D03*
D19*
%TO.P,J3,2,Pin_2*%
X153200000Y-97170000D03*
%TD*%
D18*
%TO.P,J1,1,Pin_1*%
%TO.N,GND*%
X130340000Y-87010000D03*
D19*
%TO.P,J1,2,Pin_2*%
X130340000Y-89550000D03*
%TO.P,J1,3,Pin_3*%
%TO.N,/PWM1*%
X130340000Y-92090000D03*
%TO.P,J1,4,Pin_4*%
X130340000Y-94630000D03*
%TO.P,J1,5,Pin_5*%
%TO.N,+5V*%
X130340000Y-97170000D03*
%TO.P,J1,6,Pin_6*%
X130340000Y-99710000D03*
%TD*%
D16*
%TO.P,H2,1,1*%
%TO.N,GND*%
X154470000Y-80660000D03*
%TD*%
D20*
%TO.N,GND*%
X143510000Y-86360000D03*
X135890000Y-82550000D03*
X133350000Y-106680000D03*
X142500000Y-93190000D03*
X134440000Y-95550000D03*
X138430000Y-106680000D03*
X136190000Y-97560000D03*
X135890000Y-90170000D03*
X143510000Y-106680000D03*
X139700000Y-78740000D03*
X147320000Y-82550000D03*
X144090000Y-93230000D03*
X143510000Y-78740000D03*
X132080000Y-82550000D03*
X135890000Y-86360000D03*
X146050000Y-102870000D03*
X132080000Y-78740000D03*
X151130000Y-78740000D03*
X140970000Y-102870000D03*
X147320000Y-78740000D03*
X143510000Y-82550000D03*
X135890000Y-78740000D03*
X139700000Y-82550000D03*
X138430000Y-90170000D03*
X151130000Y-82550000D03*
X142500000Y-91630000D03*
X137210000Y-97550000D03*
X139700000Y-86360000D03*
X135890000Y-102870000D03*
X148590000Y-106680000D03*
%TD*%
D21*
%TO.N,+5V*%
X132965000Y-94545000D02*
X130340000Y-97170000D01*
X136860000Y-94545000D02*
X132965000Y-94545000D01*
D22*
X130340000Y-97170000D02*
X130340000Y-99710000D01*
%TO.N,/LED1+*%
X147830000Y-91800000D02*
X153200000Y-97170000D01*
X153200000Y-97170000D02*
X153200000Y-99710000D01*
X146247500Y-91800000D02*
X147830000Y-91800000D01*
%TO.N,/LED1-*%
X153200000Y-89550000D02*
X153200000Y-87010000D01*
X140640000Y-91130000D02*
X142220000Y-89550000D01*
X142220000Y-89550000D02*
X153200000Y-89550000D01*
D23*
%TO.N,/PWM1*%
X138930001Y-93010000D02*
X131260000Y-93010000D01*
D22*
X130340000Y-92090000D02*
X130340000Y-94630000D01*
D23*
X131260000Y-93010000D02*
X130340000Y-92090000D01*
D21*
%TO.N,/VOUT*%
X143880000Y-94430000D02*
X144000000Y-94310000D01*
X140969999Y-94430000D02*
X143880000Y-94430000D01*
X140899999Y-94360000D02*
X140969999Y-94430000D01*
%TD*%
%TA.AperFunction,Conductor*%
%TO.N,+5V*%
G36*
X139281980Y-94112383D02*
G01*
X139341480Y-94124218D01*
X139386175Y-94142730D01*
X139426272Y-94169522D01*
X139460477Y-94203727D01*
X139487267Y-94243822D01*
X139505781Y-94288517D01*
X139509542Y-94307427D01*
X139517617Y-94348019D01*
X139520000Y-94372210D01*
X139520000Y-95480000D01*
X139920000Y-95970000D01*
X141625093Y-95970000D01*
X141649148Y-95972356D01*
X141708330Y-95984059D01*
X141752819Y-96002370D01*
X141792781Y-96028878D01*
X141826950Y-96062742D01*
X141853815Y-96102463D01*
X141872526Y-96146786D01*
X141882424Y-96194581D01*
X141885000Y-96219727D01*
X141885000Y-99698624D01*
X141865315Y-99765663D01*
X141864482Y-99766942D01*
X141858976Y-99775282D01*
X141824731Y-99809834D01*
X141784514Y-99836902D01*
X141739606Y-99855622D01*
X141699350Y-99863676D01*
X141679790Y-99867590D01*
X141655464Y-99870000D01*
X138601764Y-99870000D01*
X138577601Y-99867623D01*
X138518157Y-99855812D01*
X138473499Y-99837337D01*
X138433434Y-99810604D01*
X138399231Y-99776459D01*
X138372429Y-99736441D01*
X138353877Y-99691818D01*
X138341962Y-99632393D01*
X138339543Y-99608245D01*
X138332033Y-95300368D01*
X138332032Y-95300365D01*
X138331875Y-95210000D01*
X138273974Y-95140621D01*
X138273973Y-95140619D01*
X138271800Y-95138015D01*
X138260943Y-95125005D01*
X138260940Y-95125002D01*
X138260938Y-95125000D01*
X138260936Y-95124998D01*
X138190000Y-95040000D01*
X138079293Y-95039384D01*
X138079290Y-95039384D01*
X136650778Y-95031448D01*
X136626684Y-95028948D01*
X136567448Y-95016865D01*
X136522984Y-94998230D01*
X136483119Y-94971393D01*
X136449121Y-94937206D01*
X136422508Y-94897197D01*
X136404119Y-94852627D01*
X136392366Y-94793323D01*
X136390000Y-94769217D01*
X136390000Y-94372210D01*
X136392383Y-94348019D01*
X136404218Y-94288517D01*
X136422729Y-94243826D01*
X136449524Y-94203724D01*
X136483724Y-94169524D01*
X136523826Y-94142729D01*
X136568514Y-94124219D01*
X136628028Y-94112381D01*
X136652211Y-94110000D01*
X139257789Y-94110000D01*
X139281980Y-94112383D01*
G37*
%TD.AperFunction*%
%TD*%
%TA.AperFunction,Conductor*%
%TO.N,/LED1-*%
G36*
X141240172Y-90512405D02*
G01*
X141276074Y-90519580D01*
X141299936Y-90524350D01*
X141344806Y-90543033D01*
X141385003Y-90570053D01*
X141419245Y-90604550D01*
X141445965Y-90644944D01*
X141464316Y-90689952D01*
X141475818Y-90749800D01*
X141478043Y-90774121D01*
X141462767Y-92836418D01*
X141442586Y-92903310D01*
X141389445Y-92948673D01*
X141338770Y-92959500D01*
X140374000Y-92959500D01*
X140306961Y-92939815D01*
X140261206Y-92887011D01*
X140250000Y-92835500D01*
X140250000Y-92129999D01*
X140250000Y-91880000D01*
X140000007Y-91880000D01*
X139997704Y-91879542D01*
X139990462Y-91878471D01*
X139927010Y-91865910D01*
X139882486Y-91847562D01*
X139842498Y-91821002D01*
X139808321Y-91787073D01*
X139781471Y-91747284D01*
X139762796Y-91702889D01*
X139750636Y-91643729D01*
X139748100Y-91619668D01*
X139741927Y-90774084D01*
X139744154Y-90749778D01*
X139755661Y-90689929D01*
X139774013Y-90644929D01*
X139800738Y-90604535D01*
X139834975Y-90570047D01*
X139875174Y-90543027D01*
X139920037Y-90524348D01*
X139979805Y-90512403D01*
X140004100Y-90510000D01*
X141215869Y-90510000D01*
X141240172Y-90512405D01*
G37*
%TD.AperFunction*%
%TD*%
%TA.AperFunction,Conductor*%
%TO.N,/VOUT*%
G36*
X147001715Y-93983068D02*
G01*
X147031475Y-93988903D01*
X147061292Y-93994749D01*
X147106072Y-94013162D01*
X147146254Y-94039869D01*
X147180566Y-94074023D01*
X147207458Y-94114080D01*
X147226078Y-94158774D01*
X147238034Y-94218290D01*
X147240463Y-94242493D01*
X147249539Y-99379274D01*
X147247216Y-99403382D01*
X147235570Y-99462700D01*
X147217266Y-99507295D01*
X147190730Y-99547350D01*
X147156802Y-99581596D01*
X147116997Y-99608504D01*
X147072574Y-99627222D01*
X147013356Y-99639421D01*
X146989282Y-99641966D01*
X143536412Y-99668026D01*
X143512270Y-99665837D01*
X143464676Y-99656762D01*
X143452777Y-99654493D01*
X143408013Y-99636385D01*
X143367768Y-99609997D01*
X143333313Y-99576161D01*
X143306197Y-99536397D01*
X143287280Y-99491968D01*
X143277636Y-99445945D01*
X143275000Y-99420513D01*
X143275000Y-95970000D01*
X143271181Y-95966181D01*
X143237696Y-95904858D01*
X143234869Y-95879813D01*
X143230997Y-95514141D01*
X143230996Y-95514139D01*
X143230000Y-95420000D01*
X142710000Y-94840000D01*
X141701635Y-94831768D01*
X140520105Y-94822123D01*
X140496057Y-94819568D01*
X140436944Y-94807370D01*
X140392588Y-94788678D01*
X140352830Y-94761818D01*
X140318937Y-94727648D01*
X140292400Y-94687669D01*
X140274073Y-94643164D01*
X140262358Y-94583950D01*
X140260000Y-94559884D01*
X140260000Y-94261475D01*
X140262375Y-94237325D01*
X140266937Y-94214350D01*
X140299301Y-94152428D01*
X140360005Y-94117833D01*
X140388562Y-94114500D01*
X141440458Y-94114500D01*
X141440460Y-94114500D01*
X141465923Y-94111546D01*
X141570065Y-94065563D01*
X141603409Y-94032219D01*
X141664731Y-93998733D01*
X141690730Y-93995900D01*
X145078228Y-93986194D01*
X146977502Y-93980752D01*
X147001715Y-93983068D01*
G37*
%TD.AperFunction*%
%TD*%
%TA.AperFunction,Conductor*%
%TO.N,/LED1+*%
G36*
X146852865Y-90822371D02*
G01*
X146867029Y-90825181D01*
X146912241Y-90834152D01*
X146956855Y-90852585D01*
X146996891Y-90879257D01*
X147031084Y-90913325D01*
X147057905Y-90953266D01*
X147076501Y-90997812D01*
X147088500Y-91057139D01*
X147090960Y-91081265D01*
X147099032Y-93276840D01*
X147096728Y-93301096D01*
X147085058Y-93360768D01*
X147066623Y-93405622D01*
X147039869Y-93445862D01*
X147005642Y-93480215D01*
X146965500Y-93507117D01*
X146920716Y-93525716D01*
X146893690Y-93531104D01*
X146861083Y-93537606D01*
X146836839Y-93540000D01*
X145481269Y-93540000D01*
X145457134Y-93537629D01*
X145397759Y-93525847D01*
X145353144Y-93507414D01*
X145313108Y-93480742D01*
X145278915Y-93446674D01*
X145252094Y-93406733D01*
X145233499Y-93362189D01*
X145221498Y-93302858D01*
X145219039Y-93278734D01*
X145210967Y-91083159D01*
X145213270Y-91058908D01*
X145224943Y-90999225D01*
X145243374Y-90954380D01*
X145270132Y-90914134D01*
X145304354Y-90879786D01*
X145344501Y-90852880D01*
X145389284Y-90834283D01*
X145425934Y-90826975D01*
X145448915Y-90822394D01*
X145473161Y-90820000D01*
X146828731Y-90820000D01*
X146852865Y-90822371D01*
G37*
%TD.AperFunction*%
%TD*%
%TA.AperFunction,Conductor*%
%TO.N,GND*%
G36*
X139958989Y-93301472D02*
G01*
X139970442Y-93310284D01*
X139973112Y-93312598D01*
X140003301Y-93351842D01*
X140011841Y-93369311D01*
X140095689Y-93453159D01*
X140165114Y-93487098D01*
X140202218Y-93505237D01*
X140271279Y-93515299D01*
X141416777Y-93515298D01*
X141483816Y-93534983D01*
X141529571Y-93587786D01*
X141539515Y-93656945D01*
X141510490Y-93720501D01*
X141476207Y-93748128D01*
X141454696Y-93759874D01*
X141428524Y-93779467D01*
X141363059Y-93803884D01*
X141354213Y-93804200D01*
X141003018Y-93804200D01*
X140981735Y-93801398D01*
X140981688Y-93801761D01*
X140973633Y-93800700D01*
X140973632Y-93800700D01*
X140826366Y-93800700D01*
X140826364Y-93800700D01*
X140818310Y-93801761D01*
X140818262Y-93801398D01*
X140796980Y-93804200D01*
X140388562Y-93804200D01*
X140383529Y-93804492D01*
X140376347Y-93804700D01*
X140271283Y-93804700D01*
X140202217Y-93814762D01*
X140095685Y-93866842D01*
X140049130Y-93913397D01*
X139987807Y-93946881D01*
X139918115Y-93941896D01*
X139865597Y-93904380D01*
X139817915Y-93846280D01*
X139783719Y-93812085D01*
X139783714Y-93812080D01*
X139707113Y-93749214D01*
X139701707Y-93745602D01*
X139667021Y-93722425D01*
X139667003Y-93722414D01*
X139625976Y-93700486D01*
X139576131Y-93651525D01*
X139560669Y-93583387D01*
X139584499Y-93517707D01*
X139629964Y-93479727D01*
X139684312Y-93453159D01*
X139768160Y-93369311D01*
X139777830Y-93349529D01*
X139824957Y-93297947D01*
X139892490Y-93280032D01*
X139958989Y-93301472D01*
G37*
%TD.AperFunction*%
%TA.AperFunction,Conductor*%
G36*
X154773472Y-77563895D02*
G01*
X155076144Y-77580893D01*
X155089942Y-77582447D01*
X155385368Y-77632642D01*
X155398924Y-77635736D01*
X155686870Y-77718692D01*
X155699996Y-77723285D01*
X155976841Y-77837958D01*
X155989355Y-77843984D01*
X156030709Y-77866840D01*
X156251625Y-77988936D01*
X156263399Y-77996334D01*
X156507784Y-78169734D01*
X156518656Y-78178404D01*
X156742090Y-78378076D01*
X156751923Y-78387909D01*
X156951595Y-78611343D01*
X156960265Y-78622215D01*
X157133665Y-78866600D01*
X157141063Y-78878374D01*
X157286011Y-79140637D01*
X157292044Y-79153165D01*
X157406714Y-79430004D01*
X157411307Y-79443129D01*
X157494263Y-79731075D01*
X157497357Y-79744632D01*
X157547550Y-80040047D01*
X157549107Y-80053865D01*
X157566105Y-80356527D01*
X157566300Y-80363480D01*
X157566300Y-106356519D01*
X157566105Y-106363472D01*
X157549107Y-106666134D01*
X157547550Y-106679952D01*
X157497357Y-106975367D01*
X157494263Y-106988924D01*
X157411307Y-107276870D01*
X157406714Y-107289995D01*
X157292044Y-107566834D01*
X157286011Y-107579362D01*
X157141063Y-107841625D01*
X157133665Y-107853399D01*
X156960265Y-108097784D01*
X156951595Y-108108656D01*
X156751923Y-108332090D01*
X156742090Y-108341923D01*
X156518656Y-108541595D01*
X156507784Y-108550265D01*
X156263399Y-108723665D01*
X156251625Y-108731063D01*
X155989362Y-108876011D01*
X155976834Y-108882044D01*
X155699995Y-108996714D01*
X155686870Y-109001307D01*
X155398924Y-109084263D01*
X155385367Y-109087357D01*
X155089952Y-109137550D01*
X155076134Y-109139107D01*
X154773472Y-109156105D01*
X154766519Y-109156300D01*
X128773481Y-109156300D01*
X128766528Y-109156105D01*
X128463865Y-109139107D01*
X128450047Y-109137550D01*
X128154632Y-109087357D01*
X128141075Y-109084263D01*
X127853129Y-109001307D01*
X127840004Y-108996714D01*
X127563165Y-108882044D01*
X127550637Y-108876011D01*
X127288374Y-108731063D01*
X127276600Y-108723665D01*
X127032215Y-108550265D01*
X127021343Y-108541595D01*
X126797909Y-108341923D01*
X126788076Y-108332090D01*
X126588404Y-108108656D01*
X126579734Y-108097784D01*
X126406334Y-107853399D01*
X126398936Y-107841625D01*
X126253988Y-107579362D01*
X126247958Y-107566841D01*
X126133285Y-107289995D01*
X126128692Y-107276870D01*
X126045736Y-106988924D01*
X126042642Y-106975367D01*
X126023356Y-106861857D01*
X125992447Y-106679942D01*
X125990893Y-106666144D01*
X125973895Y-106363472D01*
X125973700Y-106356519D01*
X125973700Y-92089999D01*
X129179751Y-92089999D01*
X129179751Y-92090000D01*
X129199505Y-92303194D01*
X129258099Y-92509127D01*
X129258104Y-92509140D01*
X129353536Y-92700792D01*
X129482567Y-92871656D01*
X129613238Y-92990778D01*
X129649520Y-93050489D01*
X129653700Y-93082415D01*
X129653700Y-93637584D01*
X129634015Y-93704623D01*
X129613238Y-93729221D01*
X129482567Y-93848342D01*
X129353536Y-94019207D01*
X129258104Y-94210859D01*
X129258099Y-94210872D01*
X129199505Y-94416805D01*
X129179751Y-94629999D01*
X129179751Y-94630000D01*
X129199505Y-94843194D01*
X129258099Y-95049127D01*
X129258104Y-95049140D01*
X129353536Y-95240792D01*
X129482567Y-95411657D01*
X129640793Y-95555898D01*
X129640795Y-95555900D01*
X129822829Y-95668610D01*
X129822830Y-95668610D01*
X129822833Y-95668612D01*
X130022483Y-95745957D01*
X130194492Y-95778111D01*
X130256772Y-95809780D01*
X130292045Y-95870092D01*
X130289111Y-95939900D01*
X130248902Y-95997040D01*
X130194492Y-96021888D01*
X130022483Y-96054043D01*
X129896227Y-96102954D01*
X129822835Y-96131387D01*
X129822829Y-96131389D01*
X129640795Y-96244099D01*
X129640793Y-96244101D01*
X129482567Y-96388342D01*
X129353536Y-96559207D01*
X129258104Y-96750859D01*
X129258099Y-96750872D01*
X129199505Y-96956805D01*
X129179751Y-97169999D01*
X129179751Y-97170000D01*
X129199505Y-97383194D01*
X129258099Y-97589127D01*
X129258104Y-97589140D01*
X129353536Y-97780792D01*
X129482567Y-97951656D01*
X129613238Y-98070778D01*
X129649520Y-98130489D01*
X129653700Y-98162415D01*
X129653700Y-98717584D01*
X129634015Y-98784623D01*
X129613238Y-98809221D01*
X129482567Y-98928342D01*
X129353536Y-99099207D01*
X129258104Y-99290859D01*
X129258099Y-99290872D01*
X129199505Y-99496805D01*
X129179751Y-99709999D01*
X129179751Y-99710000D01*
X129199505Y-99923194D01*
X129258099Y-100129127D01*
X129258104Y-100129140D01*
X129353536Y-100320792D01*
X129482567Y-100491657D01*
X129640793Y-100635898D01*
X129640795Y-100635900D01*
X129822829Y-100748610D01*
X129822830Y-100748610D01*
X129822833Y-100748612D01*
X130022483Y-100825957D01*
X130232946Y-100865300D01*
X130232948Y-100865300D01*
X130447052Y-100865300D01*
X130447054Y-100865300D01*
X130657517Y-100825957D01*
X130857167Y-100748612D01*
X131039206Y-100635899D01*
X131197434Y-100491655D01*
X131326464Y-100320792D01*
X131421900Y-100129130D01*
X131480494Y-99923195D01*
X131500249Y-99710000D01*
X131495487Y-99658614D01*
X131480494Y-99496805D01*
X131455521Y-99409036D01*
X131421900Y-99290870D01*
X131326464Y-99099208D01*
X131197434Y-98928345D01*
X131197432Y-98928342D01*
X131066762Y-98809221D01*
X131030480Y-98749510D01*
X131026300Y-98717584D01*
X131026300Y-98162415D01*
X131045985Y-98095376D01*
X131066762Y-98070778D01*
X131197434Y-97951655D01*
X131326464Y-97780792D01*
X131421900Y-97589130D01*
X131480494Y-97383195D01*
X131500249Y-97170000D01*
X131480494Y-96956805D01*
X131470238Y-96920759D01*
X131470824Y-96850893D01*
X131501821Y-96799146D01*
X133160350Y-95140619D01*
X133221673Y-95107134D01*
X133248031Y-95104300D01*
X135888364Y-95104300D01*
X135955403Y-95123985D01*
X135997821Y-95170032D01*
X136001617Y-95177163D01*
X136028230Y-95217172D01*
X136090689Y-95293656D01*
X136124687Y-95327843D01*
X136200825Y-95390726D01*
X136240690Y-95417563D01*
X136240703Y-95417570D01*
X136327581Y-95464435D01*
X136327588Y-95464438D01*
X136327593Y-95464441D01*
X136327597Y-95464442D01*
X136327604Y-95464446D01*
X136372051Y-95483074D01*
X136372055Y-95483075D01*
X136372057Y-95483076D01*
X136466416Y-95512166D01*
X136466422Y-95512167D01*
X136466425Y-95512168D01*
X136476304Y-95514183D01*
X136525652Y-95524249D01*
X136564210Y-95530167D01*
X136574492Y-95531746D01*
X136574496Y-95531746D01*
X136574513Y-95531749D01*
X136598607Y-95534249D01*
X136647970Y-95536940D01*
X136647967Y-95536940D01*
X136721060Y-95537345D01*
X137703859Y-95542805D01*
X137770788Y-95562862D01*
X137816249Y-95615919D01*
X137827170Y-95666587D01*
X137834044Y-99609131D01*
X137836558Y-99658614D01*
X137836560Y-99658631D01*
X137838567Y-99678670D01*
X137838981Y-99682796D01*
X137846326Y-99731769D01*
X137858241Y-99791190D01*
X137858241Y-99791192D01*
X137887110Y-99885876D01*
X137905661Y-99930498D01*
X137952418Y-100017724D01*
X137952423Y-100017731D01*
X137952426Y-100017737D01*
X137968350Y-100041513D01*
X137979229Y-100057757D01*
X138000687Y-100083851D01*
X138042092Y-100134205D01*
X138042098Y-100134211D01*
X138042099Y-100134212D01*
X138076292Y-100168348D01*
X138076293Y-100168349D01*
X138152861Y-100231091D01*
X138152867Y-100231095D01*
X138192922Y-100257822D01*
X138192929Y-100257826D01*
X138192931Y-100257827D01*
X138280257Y-100304443D01*
X138324915Y-100322918D01*
X138324923Y-100322920D01*
X138324927Y-100322922D01*
X138324929Y-100322923D01*
X138419630Y-100351616D01*
X138419633Y-100351616D01*
X138419644Y-100351620D01*
X138419658Y-100351622D01*
X138419659Y-100351623D01*
X138479067Y-100363427D01*
X138479070Y-100363427D01*
X138479088Y-100363431D01*
X138528112Y-100370695D01*
X138552275Y-100373072D01*
X138552282Y-100373072D01*
X138552289Y-100373073D01*
X138601753Y-100375500D01*
X138601764Y-100375500D01*
X141655447Y-100375500D01*
X141655464Y-100375500D01*
X141705300Y-100373037D01*
X141729626Y-100370627D01*
X141778975Y-100363264D01*
X141798535Y-100359350D01*
X141798534Y-100359349D01*
X141810626Y-100356929D01*
X141838776Y-100351299D01*
X141838784Y-100351296D01*
X141841756Y-100350702D01*
X141841795Y-100350693D01*
X141853886Y-100348273D01*
X141860430Y-100344690D01*
X141934103Y-100322207D01*
X141979011Y-100303487D01*
X142066765Y-100256264D01*
X142106982Y-100229196D01*
X142183765Y-100165678D01*
X142218010Y-100131126D01*
X142280834Y-100053789D01*
X142286340Y-100045449D01*
X142288065Y-100042818D01*
X142288898Y-100041539D01*
X142290567Y-100038960D01*
X142350338Y-99908083D01*
X142370023Y-99841044D01*
X142370024Y-99841040D01*
X142379324Y-99776353D01*
X142408348Y-99712798D01*
X142467126Y-99675023D01*
X142502062Y-99670000D01*
X142845701Y-99670000D01*
X142912740Y-99689685D01*
X142958495Y-99742489D01*
X142969701Y-99794000D01*
X142969701Y-99893005D01*
X142969702Y-99893028D01*
X142972661Y-99918540D01*
X142972662Y-99918543D01*
X143018765Y-100022958D01*
X143018766Y-100022959D01*
X143099475Y-100103668D01*
X143203891Y-100149772D01*
X143229421Y-100152734D01*
X144653012Y-100152733D01*
X144678543Y-100149772D01*
X144782959Y-100103668D01*
X144863668Y-100022959D01*
X144863670Y-100022952D01*
X144864689Y-100021467D01*
X144867254Y-100019372D01*
X144871793Y-100014834D01*
X144872251Y-100015292D01*
X144918813Y-99977281D01*
X144966051Y-99967544D01*
X146991624Y-99952257D01*
X147021904Y-99950546D01*
X147045978Y-99948001D01*
X147075964Y-99943339D01*
X147135182Y-99931140D01*
X147193062Y-99913174D01*
X147237485Y-99894456D01*
X147290777Y-99865577D01*
X147330582Y-99838669D01*
X147377238Y-99799985D01*
X147411166Y-99765739D01*
X147449413Y-99718725D01*
X147475949Y-99678670D01*
X147504326Y-99625119D01*
X147522630Y-99580524D01*
X147540057Y-99522480D01*
X147551703Y-99463162D01*
X147556085Y-99433144D01*
X147558408Y-99409036D01*
X147559839Y-99378726D01*
X147550763Y-94241945D01*
X147549212Y-94211507D01*
X147546783Y-94187304D01*
X147542256Y-94157176D01*
X147530300Y-94097660D01*
X147512514Y-94039441D01*
X147493894Y-93994747D01*
X147465086Y-93941123D01*
X147465082Y-93941117D01*
X147438199Y-93901073D01*
X147438197Y-93901070D01*
X147399475Y-93854103D01*
X147365162Y-93819948D01*
X147321697Y-93784449D01*
X147282226Y-93726796D01*
X147280191Y-93656956D01*
X147296876Y-93619754D01*
X147298257Y-93617675D01*
X147298269Y-93617662D01*
X147325023Y-93577422D01*
X147353628Y-93523581D01*
X147372063Y-93478727D01*
X147389589Y-93420325D01*
X147401259Y-93360653D01*
X147405638Y-93330438D01*
X147407942Y-93306182D01*
X147409330Y-93275699D01*
X147407020Y-92647411D01*
X147426458Y-92580301D01*
X147479093Y-92534352D01*
X147548215Y-92524154D01*
X147611877Y-92552945D01*
X147618700Y-92559275D01*
X152014675Y-96955249D01*
X152048160Y-97016572D01*
X152050465Y-97054371D01*
X152039751Y-97169998D01*
X152039751Y-97170000D01*
X152059505Y-97383194D01*
X152118099Y-97589127D01*
X152118104Y-97589140D01*
X152213536Y-97780792D01*
X152342567Y-97951656D01*
X152473238Y-98070778D01*
X152509520Y-98130489D01*
X152513700Y-98162415D01*
X152513700Y-98430700D01*
X152494015Y-98497739D01*
X152441211Y-98543494D01*
X152389701Y-98554700D01*
X152304429Y-98554700D01*
X152304405Y-98554702D01*
X152278893Y-98557661D01*
X152278890Y-98557662D01*
X152174475Y-98603765D01*
X152093766Y-98684474D01*
X152047662Y-98788888D01*
X152047662Y-98788890D01*
X152044700Y-98814419D01*
X152044700Y-100605571D01*
X152044702Y-100605594D01*
X152047661Y-100631106D01*
X152047662Y-100631109D01*
X152093765Y-100735524D01*
X152093766Y-100735525D01*
X152174475Y-100816234D01*
X152278891Y-100862338D01*
X152304421Y-100865300D01*
X154095578Y-100865299D01*
X154121109Y-100862338D01*
X154225525Y-100816234D01*
X154306234Y-100735525D01*
X154352338Y-100631109D01*
X154355300Y-100605579D01*
X154355299Y-98814422D01*
X154352338Y-98788891D01*
X154306234Y-98684475D01*
X154225525Y-98603766D01*
X154225523Y-98603765D01*
X154121110Y-98557662D01*
X154095580Y-98554700D01*
X154095579Y-98554700D01*
X154010300Y-98554700D01*
X153943261Y-98535015D01*
X153897506Y-98482211D01*
X153886300Y-98430700D01*
X153886300Y-98162415D01*
X153905985Y-98095376D01*
X153926762Y-98070778D01*
X154057434Y-97951655D01*
X154186464Y-97780792D01*
X154281900Y-97589130D01*
X154340494Y-97383195D01*
X154360249Y-97170000D01*
X154340494Y-96956805D01*
X154281900Y-96750870D01*
X154186464Y-96559208D01*
X154057434Y-96388345D01*
X154057432Y-96388342D01*
X153899206Y-96244101D01*
X153899204Y-96244099D01*
X153717170Y-96131389D01*
X153717164Y-96131387D01*
X153517517Y-96054043D01*
X153307054Y-96014700D01*
X153092946Y-96014700D01*
X153092942Y-96014700D01*
X153091752Y-96014923D01*
X153091173Y-96014864D01*
X153087239Y-96015229D01*
X153087167Y-96014459D01*
X153022237Y-96007890D01*
X152981289Y-95980715D01*
X148267494Y-91266918D01*
X148267490Y-91266915D01*
X148155091Y-91191812D01*
X148155082Y-91191807D01*
X148030186Y-91140074D01*
X148030178Y-91140072D01*
X147897598Y-91113700D01*
X147897595Y-91113700D01*
X147517162Y-91113700D01*
X147450123Y-91094015D01*
X147404368Y-91041211D01*
X147394565Y-91008304D01*
X147392642Y-90995626D01*
X147380643Y-90936299D01*
X147362851Y-90878273D01*
X147344255Y-90833727D01*
X147315512Y-90780279D01*
X147300473Y-90757883D01*
X147288698Y-90740347D01*
X147288689Y-90740336D01*
X147278519Y-90727996D01*
X147250097Y-90693508D01*
X147215904Y-90659440D01*
X147168931Y-90621016D01*
X147168926Y-90621012D01*
X147168924Y-90621011D01*
X147128899Y-90594346D01*
X147107475Y-90582926D01*
X147075345Y-90565799D01*
X147075343Y-90565798D01*
X147075339Y-90565796D01*
X147055535Y-90557614D01*
X147030731Y-90547366D01*
X147030724Y-90547363D01*
X147030711Y-90547359D01*
X146972641Y-90529787D01*
X146972633Y-90529785D01*
X146927423Y-90520815D01*
X146913248Y-90518002D01*
X146883195Y-90513556D01*
X146883182Y-90513555D01*
X146859223Y-90511202D01*
X146859070Y-90511187D01*
X146859069Y-90511186D01*
X146859049Y-90511185D01*
X146828743Y-90509700D01*
X146828731Y-90509700D01*
X145473161Y-90509700D01*
X145473148Y-90509700D01*
X145442673Y-90511201D01*
X145418414Y-90513597D01*
X145388251Y-90518080D01*
X145363943Y-90522927D01*
X145363922Y-90522930D01*
X145363923Y-90522931D01*
X145328602Y-90529974D01*
X145270291Y-90547705D01*
X145225487Y-90566310D01*
X145225485Y-90566311D01*
X145171765Y-90595104D01*
X145171750Y-90595113D01*
X145131599Y-90622022D01*
X145131593Y-90622026D01*
X145084551Y-90660760D01*
X145084530Y-90660779D01*
X145050313Y-90695122D01*
X145011730Y-90742336D01*
X144984981Y-90782567D01*
X144956370Y-90836421D01*
X144937938Y-90881268D01*
X144937937Y-90881271D01*
X144920412Y-90939665D01*
X144908738Y-90999358D01*
X144904360Y-91029570D01*
X144904359Y-91029572D01*
X144902058Y-91053798D01*
X144900668Y-91084309D01*
X144900668Y-91084323D01*
X144908740Y-93279864D01*
X144910339Y-93310199D01*
X144910340Y-93310212D01*
X144912797Y-93334316D01*
X144912800Y-93334340D01*
X144917357Y-93364376D01*
X144929357Y-93423705D01*
X144947144Y-93481717D01*
X144947146Y-93481722D01*
X144956780Y-93504801D01*
X144964439Y-93574250D01*
X144933335Y-93636814D01*
X144873344Y-93672631D01*
X144842704Y-93676566D01*
X141689868Y-93685600D01*
X141689840Y-93685601D01*
X141668945Y-93686766D01*
X141600914Y-93670843D01*
X141552291Y-93620668D01*
X141538513Y-93552170D01*
X141563955Y-93487098D01*
X141596812Y-93460335D01*
X141595950Y-93459128D01*
X141604312Y-93453157D01*
X141688158Y-93369311D01*
X141694129Y-93360949D01*
X141695244Y-93361745D01*
X141716971Y-93333715D01*
X141717638Y-93333145D01*
X141717642Y-93333143D01*
X141770783Y-93287780D01*
X141865802Y-93179748D01*
X141926541Y-93049317D01*
X141946487Y-92983201D01*
X141946718Y-92982455D01*
X141946723Y-92982423D01*
X141968253Y-92840162D01*
X141983307Y-90807709D01*
X142003488Y-90740821D01*
X142019618Y-90720955D01*
X142467956Y-90272619D01*
X142529279Y-90239134D01*
X142555637Y-90236300D01*
X152208812Y-90236300D01*
X152275851Y-90255985D01*
X152307766Y-90285573D01*
X152342567Y-90331656D01*
X152500793Y-90475898D01*
X152500795Y-90475900D01*
X152682829Y-90588610D01*
X152682830Y-90588610D01*
X152682833Y-90588612D01*
X152882483Y-90665957D01*
X153092946Y-90705300D01*
X153092948Y-90705300D01*
X153307052Y-90705300D01*
X153307054Y-90705300D01*
X153517517Y-90665957D01*
X153717167Y-90588612D01*
X153899206Y-90475899D01*
X154057434Y-90331655D01*
X154186464Y-90160792D01*
X154281900Y-89969130D01*
X154340494Y-89763195D01*
X154360249Y-89550000D01*
X154340494Y-89336805D01*
X154281900Y-89130870D01*
X154186464Y-88939208D01*
X154057434Y-88768345D01*
X154057432Y-88768342D01*
X153926762Y-88649221D01*
X153890480Y-88589510D01*
X153886300Y-88557584D01*
X153886300Y-88289299D01*
X153905985Y-88222260D01*
X153958789Y-88176505D01*
X154010300Y-88165299D01*
X154095572Y-88165299D01*
X154095578Y-88165299D01*
X154121109Y-88162338D01*
X154225525Y-88116234D01*
X154306234Y-88035525D01*
X154352338Y-87931109D01*
X154355300Y-87905579D01*
X154355299Y-86114422D01*
X154352338Y-86088891D01*
X154306234Y-85984475D01*
X154225525Y-85903766D01*
X154225523Y-85903765D01*
X154121110Y-85857662D01*
X154095579Y-85854700D01*
X152304428Y-85854700D01*
X152304405Y-85854702D01*
X152278893Y-85857661D01*
X152278890Y-85857662D01*
X152174475Y-85903765D01*
X152093766Y-85984474D01*
X152047662Y-86088888D01*
X152047662Y-86088890D01*
X152044700Y-86114419D01*
X152044700Y-87905571D01*
X152044702Y-87905594D01*
X152047661Y-87931106D01*
X152047662Y-87931109D01*
X152093765Y-88035524D01*
X152093766Y-88035525D01*
X152174475Y-88116234D01*
X152278891Y-88162338D01*
X152304421Y-88165300D01*
X152389701Y-88165299D01*
X152456738Y-88184983D01*
X152502494Y-88237786D01*
X152513700Y-88289299D01*
X152513700Y-88557584D01*
X152494015Y-88624623D01*
X152473238Y-88649221D01*
X152342567Y-88768343D01*
X152307766Y-88814427D01*
X152251656Y-88856063D01*
X152208812Y-88863700D01*
X142152402Y-88863700D01*
X142019821Y-88890072D01*
X142019813Y-88890074D01*
X141936746Y-88924482D01*
X141936745Y-88924482D01*
X141894913Y-88941809D01*
X141894910Y-88941810D01*
X141782509Y-89016915D01*
X141782505Y-89016918D01*
X140831244Y-89968181D01*
X140769921Y-90001666D01*
X140743563Y-90004500D01*
X140004069Y-90004500D01*
X139954378Y-90006953D01*
X139954365Y-90006953D01*
X139954344Y-90006955D01*
X139937997Y-90008571D01*
X139930047Y-90009358D01*
X139880737Y-90016706D01*
X139880700Y-90016713D01*
X139820977Y-90028649D01*
X139820976Y-90028649D01*
X139820970Y-90028650D01*
X139820969Y-90028651D01*
X139725737Y-90057681D01*
X139725734Y-90057681D01*
X139725728Y-90057684D01*
X139680879Y-90076356D01*
X139593185Y-90123489D01*
X139552976Y-90150516D01*
X139476242Y-90213900D01*
X139476220Y-90213919D01*
X139442000Y-90248391D01*
X139441988Y-90248404D01*
X139379156Y-90325611D01*
X139379149Y-90325619D01*
X139352427Y-90366009D01*
X139352427Y-90366010D01*
X139305940Y-90454039D01*
X139287590Y-90499034D01*
X139259254Y-90594479D01*
X139247747Y-90654328D01*
X139247741Y-90654368D01*
X139240768Y-90703614D01*
X139240764Y-90703647D01*
X139240763Y-90703656D01*
X139239896Y-90713117D01*
X139238536Y-90727959D01*
X139238534Y-90727996D01*
X139236440Y-90777758D01*
X139236440Y-90777771D01*
X139236440Y-90777774D01*
X139236868Y-90836421D01*
X139242612Y-91623355D01*
X139245385Y-91672655D01*
X139247922Y-91696726D01*
X139255486Y-91745504D01*
X139267646Y-91804661D01*
X139296841Y-91898889D01*
X139296845Y-91898900D01*
X139315524Y-91943304D01*
X139362444Y-92030032D01*
X139362460Y-92030057D01*
X139389295Y-92069824D01*
X139389296Y-92069825D01*
X139389301Y-92069832D01*
X139452182Y-92145815D01*
X139486359Y-92179744D01*
X139562817Y-92242082D01*
X139602805Y-92268642D01*
X139619612Y-92277576D01*
X139669567Y-92326425D01*
X139685182Y-92394528D01*
X139661500Y-92460261D01*
X139606039Y-92502756D01*
X139543532Y-92509771D01*
X139508722Y-92504700D01*
X139508717Y-92504700D01*
X139025213Y-92504700D01*
X139005071Y-92502048D01*
X139005004Y-92502561D01*
X138996948Y-92501500D01*
X138996946Y-92501500D01*
X138996943Y-92501500D01*
X131588274Y-92501500D01*
X131521235Y-92481815D01*
X131475480Y-92429011D01*
X131465536Y-92359853D01*
X131469008Y-92343566D01*
X131480493Y-92303197D01*
X131480494Y-92303195D01*
X131500249Y-92090000D01*
X131498379Y-92069824D01*
X131480494Y-91876805D01*
X131443135Y-91745504D01*
X131421900Y-91670870D01*
X131398240Y-91623355D01*
X131375383Y-91577452D01*
X131326464Y-91479208D01*
X131197434Y-91308345D01*
X131197432Y-91308342D01*
X131039206Y-91164101D01*
X131039204Y-91164099D01*
X130857170Y-91051389D01*
X130857164Y-91051387D01*
X130657517Y-90974043D01*
X130447054Y-90934700D01*
X130232946Y-90934700D01*
X130022483Y-90974043D01*
X129896227Y-91022954D01*
X129822835Y-91051387D01*
X129822829Y-91051389D01*
X129640795Y-91164099D01*
X129640793Y-91164101D01*
X129482567Y-91308342D01*
X129353536Y-91479207D01*
X129258104Y-91670859D01*
X129258099Y-91670872D01*
X129199505Y-91876805D01*
X129179751Y-92089999D01*
X125973700Y-92089999D01*
X125973700Y-80363480D01*
X125973895Y-80356527D01*
X125990893Y-80053853D01*
X125992447Y-80040059D01*
X126042643Y-79744627D01*
X126045736Y-79731075D01*
X126128692Y-79443129D01*
X126133285Y-79430004D01*
X126247961Y-79153150D01*
X126253981Y-79140651D01*
X126398939Y-78878368D01*
X126406334Y-78866600D01*
X126579741Y-78622205D01*
X126588397Y-78611351D01*
X126788086Y-78387898D01*
X126797898Y-78378086D01*
X127021351Y-78178397D01*
X127032205Y-78169741D01*
X127276605Y-77996330D01*
X127288368Y-77988939D01*
X127550651Y-77843981D01*
X127563150Y-77837961D01*
X127840008Y-77723283D01*
X127853125Y-77718693D01*
X128141080Y-77635734D01*
X128154627Y-77632643D01*
X128450059Y-77582447D01*
X128463853Y-77580893D01*
X128766528Y-77563895D01*
X128773481Y-77563700D01*
X128810519Y-77563700D01*
X154729481Y-77563700D01*
X154766519Y-77563700D01*
X154773472Y-77563895D01*
G37*
%TD.AperFunction*%
%TD*%
M02*
