M48
; DRILL file {KiCad 8.0.8} date 2025-02-19T00:34:52-0500
; FORMAT={-:-/ absolute / inch / decimal}
; #@! TF.CreationDate,2025-02-19T00:34:52-05:00
; #@! TF.GenerationSoftware,Kicad,Pcbnew,8.0.8
; #@! TF.FileFunction,Plated,1,6,PTH
FMAT,2
INCH
; #@! TA.AperFunction,Plated,PTH,ViaDrill
T1C0.0120
; #@! TA.AperFunction,Plated,PTH,ComponentDrill
T2C0.0197
; #@! TA.AperFunction,Plated,PTH,ComponentDrill
T3C0.0354
; #@! TA.AperFunction,Plated,PTH,ComponentDrill
T4C0.0394
; #@! TA.AperFunction,Plated,PTH,ComponentDrill
T5C0.0630
; #@! TA.AperFunction,Plated,PTH,ComponentDrill
T6C0.1063
%
G90
G05
T1
X3.674Y-4.01
X3.706Y-3.678
X3.708Y-3.597
X3.752Y-3.901
X3.764Y-3.33
X3.764Y-3.41
X3.764Y-3.97
X3.779Y-3.6302
X3.78Y-3.571
X3.78Y-3.6789
X3.781Y-3.732
X3.814Y-4.28
X3.851Y-3.706
X3.862Y-3.762
X3.879Y-3.655
X3.915Y-4.065
X3.934Y-3.52
X3.944Y-3.33
X3.944Y-3.41
X3.944Y-3.97
X4.044Y-4.28
X4.059Y-4.1
X4.059Y-4.17
X4.089Y-3.415
X4.159Y-4.1
X4.159Y-4.17
X4.194Y-4.03
X4.195Y-3.72
X4.222Y-3.622
X4.228Y-3.688
X4.249Y-3.12
X4.249Y-3.16
X4.249Y-3.2
X4.254Y-3.72
X4.269Y-4.1
X4.269Y-4.17
X4.2782Y-3.876
X4.2783Y-3.906
X4.289Y-3.12
X4.289Y-3.16
X4.289Y-3.2
X4.304Y-3.44
X4.304Y-3.8
X4.314Y-3.54
X4.364Y-4.29
X4.394Y-3.17
X4.414Y-3.44
X4.414Y-3.725
X4.414Y-3.76
X4.454Y-3.675
X4.454Y-3.725
X4.454Y-3.76
X4.464Y-4.175
X4.494Y-3.725
X4.494Y-3.76
X4.539Y-3.605
X4.553Y-3.513
X4.554Y-3.469
X4.558Y-3.81
X4.559Y-4.08
X4.559Y-4.175
X4.579Y-3.605
X4.579Y-3.645
X4.579Y-3.685
X4.654Y-3.17
X4.654Y-3.225
X4.672Y-3.471
X4.672Y-3.508
X4.694Y-3.81
X4.694Y-3.95
X4.694Y-4.005
X4.714Y-4.08
X4.714Y-4.175
X4.739Y-3.17
X4.739Y-3.225
X4.74Y-3.31
X4.744Y-3.0
X4.744Y-3.08
X4.754Y-4.29
X4.784Y-3.95
X4.784Y-4.005
X4.789Y-4.08
X4.789Y-4.175
X4.814Y-3.31
X4.819Y-3.17
X4.819Y-3.225
X4.82Y-3.375
X4.904Y-3.22
X4.905Y-3.58
X4.91Y-3.735
X4.96Y-3.275
X5.044Y-3.46
X5.044Y-3.62
X5.044Y-3.78
X5.074Y-3.0
X5.074Y-3.08
X5.115Y-3.22
X5.134Y-4.29
X5.164Y-3.36
X5.254Y-3.79
X5.274Y-3.27
X5.364Y-3.0
X5.364Y-3.08
X5.375Y-3.19
X5.469Y-3.815
X5.484Y-4.29
X5.509Y-3.31
X5.634Y-3.31
X5.634Y-3.4
X5.719Y-3.625
X5.719Y-3.75
X5.744Y-3.31
X5.744Y-3.4
X5.784Y-3.625
X5.887Y-3.802
X5.924Y-3.55
X5.924Y-3.96
X5.924Y-4.08
X5.9324Y-3.7416
X5.943Y-3.481
X5.945Y-3.802
X5.994Y-3.96
X5.994Y-4.02
X5.994Y-4.08
X6.0Y-3.481
X6.004Y-3.804
X6.006Y-3.846
X6.037Y-3.721
X6.041Y-3.662
X6.064Y-3.295
X6.064Y-3.545
X6.094Y-3.355
X6.099Y-3.72
X6.125Y-3.227
X6.137Y-3.768
X6.1666Y-3.3581
X6.17Y-3.752
X6.234Y-3.545
X6.234Y-3.75
X6.2729Y-3.599
X6.274Y-3.629
X6.294Y-4.01
X6.299Y-3.835
X6.317Y-3.492
X6.348Y-3.835
X6.353Y-3.491
X6.374Y-3.43
X6.41Y-3.275
X6.434Y-3.92
X6.434Y-4.01
X6.484Y-3.34
X6.504Y-3.43
X6.509Y-3.83
X6.546Y-3.667
X6.609Y-3.92
X6.609Y-4.01
X6.619Y-3.334
X6.639Y-3.717
X6.663Y-3.373
X6.6933Y-3.3984
X6.716Y-3.418
X6.739Y-3.3983
X6.744Y-4.01
X6.761Y-3.419
X6.784Y-3.399
X6.811Y-3.421
X6.868Y-3.398
X6.874Y-3.0
X6.874Y-3.08
X6.884Y-3.66
X6.904Y-4.0
X7.024Y-4.29
X7.061Y-3.59
X7.079Y-3.369
X7.194Y-3.0
X7.194Y-3.08
X7.214Y-3.59
X7.214Y-3.64
X7.214Y-3.69
X7.254Y-3.46
X7.254Y-3.78
X7.254Y-4.085
X7.294Y-3.74
X7.354Y-4.085
X7.354Y-4.29
X7.434Y-3.41
X7.464Y-3.59
X7.474Y-3.55
X7.474Y-3.63
X7.474Y-3.73
X7.474Y-3.78
X7.474Y-3.83
X7.524Y-3.0
X7.524Y-3.08
X7.554Y-3.5
X7.554Y-3.68
X7.68Y-3.785
X7.815Y-3.675
X7.877Y-3.964
X7.88Y-3.406
X8.054Y-3.97
T3
X3.909Y-3.1
X3.909Y-3.23
X3.969Y-3.04
X3.969Y-3.16
T4
X5.659Y-3.05
X5.659Y-4.269
X5.759Y-3.05
X5.759Y-4.269
X5.859Y-3.05
X5.859Y-4.269
X5.959Y-3.05
X5.959Y-4.269
X6.059Y-3.05
X6.059Y-4.269
X6.159Y-3.05
X6.159Y-4.269
X6.259Y-3.05
X6.259Y-4.269
X6.359Y-3.05
X6.359Y-4.269
X6.459Y-3.05
X6.459Y-4.269
X6.559Y-3.05
X6.559Y-4.269
X6.659Y-3.05
X6.659Y-4.269
X7.984Y-3.5143
X7.984Y-3.6143
X7.984Y-3.7143
X7.984Y-3.8143
T5
X4.6689Y-3.6521
X7.661Y-3.6521
T6
X3.6533Y-3.16
X3.6533Y-4.1443
X7.984Y-3.16
X7.984Y-4.1443
T2
G00X3.5155Y-3.4801
M15
G01X3.4919Y-3.4801
M16
G05
G00X3.5155Y-3.8336
M15
G01X3.4919Y-3.8336
M16
G05
G00X3.7498Y-3.8195
M15
G01X3.7261Y-3.8195
M16
G05
G00X3.7498Y-3.4943
M15
G01X3.7261Y-3.4943
M16
G05
M30
