M48
; DRILL file {KiCad 8.0.8} date 2025-02-16T18:34:08-0500
; FORMAT={-:-/ absolute / inch / decimal}
; #@! TF.CreationDate,2025-02-16T18:34:08-05:00
; #@! TF.GenerationSoftware,Kicad,Pcbnew,8.0.8
; #@! TF.FileFunction,Plated,1,6,PTH
FMAT,2
INCH
; #@! TA.AperFunction,Plated,PTH,ViaDrill
T1C0.0120
; #@! TA.AperFunction,Plated,PTH,ComponentDrill
T2C0.0197
; #@! TA.AperFunction,Plated,PTH,ComponentDrill
T3C0.0354
; #@! TA.AperFunction,Plated,PTH,ComponentDrill
T4C0.0394
; #@! TA.AperFunction,Plated,PTH,ComponentDrill
T5C0.0630
; #@! TA.AperFunction,Plated,PTH,ComponentDrill
T6C0.1063
%
G90
G05
T1
X3.97Y-5.374
X3.978Y-5.45
X4.084Y-5.037
X4.128Y-5.341
X4.137Y-5.414
X4.14Y-4.78
X4.14Y-4.85
X4.155Y-5.0702
X4.156Y-5.011
X4.156Y-5.1189
X4.157Y-5.172
X4.19Y-5.72
X4.227Y-5.146
X4.24Y-4.78
X4.255Y-5.095
X4.265Y-5.415
X4.31Y-4.96
X4.33Y-4.78
X4.33Y-4.85
X4.42Y-4.85
X4.42Y-5.72
X4.435Y-5.54
X4.435Y-5.61
X4.535Y-5.54
X4.535Y-5.61
X4.57Y-5.47
X4.571Y-5.16
X4.598Y-5.062
X4.604Y-5.128
X4.625Y-4.56
X4.625Y-4.6
X4.625Y-4.64
X4.63Y-5.16
X4.645Y-5.54
X4.645Y-5.61
X4.6542Y-5.316
X4.6543Y-5.346
X4.665Y-4.56
X4.665Y-4.6
X4.665Y-4.64
X4.68Y-5.24
X4.69Y-4.88
X4.69Y-4.96
X4.735Y-5.105
X4.74Y-4.88
X4.74Y-5.73
X4.79Y-5.165
X4.79Y-5.2
X4.83Y-5.165
X4.83Y-5.2
X4.84Y-5.615
X4.87Y-5.165
X4.87Y-5.2
X4.882Y-5.121
X4.89Y-5.06
X4.929Y-4.953
X4.93Y-4.909
X4.93Y-5.1
X4.934Y-5.194
X4.935Y-5.52
X4.935Y-5.615
X4.97Y-5.035
X4.97Y-5.15
X5.03Y-4.61
X5.03Y-4.665
X5.03Y-4.75
X5.048Y-4.911
X5.048Y-4.948
X5.07Y-5.25
X5.07Y-5.39
X5.07Y-5.445
X5.09Y-5.52
X5.09Y-5.615
X5.115Y-4.61
X5.115Y-4.665
X5.12Y-4.44
X5.12Y-4.52
X5.13Y-5.73
X5.16Y-5.39
X5.16Y-5.445
X5.165Y-5.52
X5.165Y-5.615
X5.19Y-4.75
X5.195Y-4.61
X5.195Y-4.665
X5.28Y-4.66
X5.29Y-4.95
X5.29Y-5.13
X5.36Y-4.75
X5.42Y-4.9
X5.42Y-5.06
X5.42Y-5.22
X5.45Y-4.44
X5.45Y-4.52
X5.45Y-4.66
X5.51Y-5.73
X5.54Y-4.8
X5.65Y-4.71
X5.74Y-4.44
X5.74Y-4.52
X5.86Y-5.73
X5.89Y-5.25
X5.91Y-4.83
X5.96Y-4.89
X6.01Y-4.83
X6.02Y-5.21
X6.06Y-4.89
X6.07Y-4.44
X6.07Y-4.52
X6.08Y-5.07
X6.1Y-4.83
X6.16Y-5.07
X6.18Y-5.73
X6.255Y-5.4
X6.26Y-5.46
X6.26Y-5.52
X6.263Y-5.242
X6.3Y-4.99
X6.319Y-4.921
X6.321Y-5.242
X6.34Y-4.44
X6.34Y-4.52
X6.37Y-5.4
X6.37Y-5.46
X6.37Y-5.52
X6.376Y-4.921
X6.38Y-5.244
X6.382Y-5.286
X6.413Y-5.161
X6.417Y-5.102
X6.44Y-4.735
X6.44Y-4.985
X6.47Y-4.795
X6.513Y-5.208
X6.52Y-5.73
X6.5426Y-4.7981
X6.546Y-5.192
X6.61Y-4.985
X6.61Y-5.19
X6.6489Y-5.039
X6.65Y-5.069
X6.67Y-4.44
X6.67Y-4.52
X6.682Y-5.275
X6.693Y-4.932
X6.724Y-5.248
X6.724Y-5.294
X6.729Y-4.931
X6.76Y-4.87
X6.79Y-5.525
X6.79Y-5.73
X6.81Y-5.36
X6.85Y-4.78
X6.865Y-5.06
X6.89Y-5.24
X6.92Y-4.44
X6.92Y-4.52
X6.92Y-4.86
X6.922Y-5.107
X6.98Y-5.36
X7.0Y-4.78
X7.015Y-5.157
X7.12Y-5.525
X7.12Y-5.73
X7.15Y-5.36
X7.17Y-4.85
X7.25Y-4.44
X7.25Y-4.52
X7.26Y-5.1
X7.335Y-5.36
X7.4Y-5.525
X7.4Y-5.73
X7.437Y-5.03
X7.455Y-4.809
X7.516Y-5.078
X7.558Y-5.081
X7.57Y-4.44
X7.57Y-4.52
X7.625Y-5.195
X7.625Y-5.26
X7.64Y-4.92
X7.675Y-5.02
X7.706Y-4.952
X7.72Y-4.92
X7.73Y-5.525
X7.73Y-5.73
X7.757Y-5.166
X7.77Y-5.01
X7.773Y-4.95
X7.7926Y-5.082
X7.885Y-4.92
X7.885Y-5.24
X7.89Y-5.02
X7.9Y-4.44
X7.9Y-4.52
X8.23Y-4.87
X8.25Y-5.15
X8.27Y-5.41
X8.43Y-5.41
T3
X4.285Y-4.565
X4.285Y-4.695
X4.345Y-4.505
X4.345Y-4.625
T4
X8.36Y-4.9543
X8.36Y-5.0543
X8.36Y-5.1543
X8.36Y-5.2543
T5
X5.0449Y-5.0921
X8.037Y-5.0921
T6
X4.0293Y-4.6
X4.0293Y-5.5843
X8.36Y-4.6
X8.36Y-5.5843
T2
G00X3.8915Y-4.9201
M15
G01X3.8679Y-4.9201
M16
G05
G00X3.8915Y-5.2736
M15
G01X3.8679Y-5.2736
M16
G05
G00X4.1258Y-5.2595
M15
G01X4.1021Y-5.2595
M16
G05
G00X4.1258Y-4.9343
M15
G01X4.1021Y-4.9343
M16
G05
M30
