%TF.GenerationSoftware,KiCad,Pcbnew,8.0.8*%
%TF.CreationDate,2025-02-16T18:34:08-05:00*%
%TF.ProjectId,flashlight-stm32-dev,666c6173-686c-4696-9768-742d73746d33,rev?*%
%TF.SameCoordinates,Original*%
%TF.FileFunction,Paste,Top*%
%TF.FilePolarity,Positive*%
%FSLAX46Y46*%
G04 Gerber Fmt 4.6, Leading zero omitted, Abs format (unit mm)*
G04 Created by KiCad (PCBNEW 8.0.8) date 2025-02-16 18:34:08*
%MOMM*%
%LPD*%
G01*
G04 APERTURE LIST*
G04 Aperture macros list*
%AMRoundRect*
0 Rectangle with rounded corners*
0 $1 Rounding radius*
0 $2 $3 $4 $5 $6 $7 $8 $9 X,Y pos of 4 corners*
0 Add a 4 corners polygon primitive as box body*
4,1,4,$2,$3,$4,$5,$6,$7,$8,$9,$2,$3,0*
0 Add four circle primitives for the rounded corners*
1,1,$1+$1,$2,$3*
1,1,$1+$1,$4,$5*
1,1,$1+$1,$6,$7*
1,1,$1+$1,$8,$9*
0 Add four rect primitives between the rounded corners*
20,1,$1+$1,$2,$3,$4,$5,0*
20,1,$1+$1,$4,$5,$6,$7,0*
20,1,$1+$1,$6,$7,$8,$9,0*
20,1,$1+$1,$8,$9,$2,$3,0*%
G04 Aperture macros list end*
%ADD10C,0.010000*%
%ADD11R,0.658400X1.168400*%
%ADD12RoundRect,0.174600X0.724600X0.174600X-0.724600X0.174600X-0.724600X-0.174600X0.724600X-0.174600X0*%
%ADD13RoundRect,0.114600X-0.144600X0.114600X-0.144600X-0.114600X0.144600X-0.114600X0.144600X0.114600X0*%
%ADD14RoundRect,0.114600X-0.114600X-0.144600X0.114600X-0.144600X0.114600X0.144600X-0.114600X0.144600X0*%
%ADD15RoundRect,0.114600X0.144600X-0.114600X0.144600X0.114600X-0.144600X0.114600X-0.144600X-0.114600X0*%
%ADD16RoundRect,0.109600X0.109600X0.159600X-0.109600X0.159600X-0.109600X-0.159600X0.109600X-0.159600X0*%
%ADD17RoundRect,0.199600X0.224600X-0.199600X0.224600X0.199600X-0.224600X0.199600X-0.224600X-0.199600X0*%
%ADD18RoundRect,0.199600X-0.224600X0.199600X-0.224600X-0.199600X0.224600X-0.199600X0.224600X0.199600X0*%
%ADD19RoundRect,0.109600X-0.159600X0.109600X-0.159600X-0.109600X0.159600X-0.109600X0.159600X0.109600X0*%
%ADD20RoundRect,0.109600X-0.109600X-0.159600X0.109600X-0.159600X0.109600X0.159600X-0.109600X0.159600X0*%
%ADD21RoundRect,0.212100X-0.224600X-0.212100X0.224600X-0.212100X0.224600X0.212100X-0.224600X0.212100X0*%
%ADD22RoundRect,0.212100X-0.212100X0.224600X-0.212100X-0.224600X0.212100X-0.224600X0.212100X0.224600X0*%
%ADD23RoundRect,0.114600X0.114600X0.144600X-0.114600X0.144600X-0.114600X-0.144600X0.114600X-0.144600X0*%
%ADD24RoundRect,0.109600X0.159600X-0.109600X0.159600X0.109600X-0.159600X0.109600X-0.159600X-0.109600X0*%
%ADD25RoundRect,0.072100X-0.407100X-0.072100X0.407100X-0.072100X0.407100X0.072100X-0.407100X0.072100X0*%
%ADD26RoundRect,0.193350X0.193350X0.230850X-0.193350X0.230850X-0.193350X-0.230850X0.193350X-0.230850X0*%
%ADD27RoundRect,0.199600X-0.199600X-0.224600X0.199600X-0.224600X0.199600X0.224600X-0.199600X0.224600X0*%
%ADD28R,2.298400X1.898400*%
%ADD29R,0.648400X0.898400*%
%ADD30R,0.998400X0.498400*%
%ADD31RoundRect,0.049600X-0.637100X-0.049600X0.637100X-0.049600X0.637100X0.049600X-0.637100X0.049600X0*%
%ADD32RoundRect,0.049600X-0.049600X-0.637100X0.049600X-0.637100X0.049600X0.637100X-0.049600X0.637100X0*%
%ADD33R,0.648400X0.098400*%
%ADD34R,0.898400X1.498400*%
%ADD35RoundRect,0.212100X0.212100X-0.224600X0.212100X0.224600X-0.212100X0.224600X-0.212100X-0.224600X0*%
%ADD36R,0.598400X0.198400*%
G04 APERTURE END LIST*
D10*
%TO.C,U3*%
X195412999Y-128414999D02*
X195413000Y-128715000D01*
X195163001Y-128714999D01*
X195163001Y-128414997D01*
X195412999Y-128414999D01*
G36*
X195412999Y-128414999D02*
G01*
X195413000Y-128715000D01*
X195163001Y-128714999D01*
X195163001Y-128414997D01*
X195412999Y-128414999D01*
G37*
X195412997Y-129215000D02*
X195112999Y-129215000D01*
X195113001Y-128965000D01*
X195413000Y-128964998D01*
X195412997Y-129215000D01*
G36*
X195412997Y-129215000D02*
G01*
X195112999Y-129215000D01*
X195113001Y-128965000D01*
X195413000Y-128964998D01*
X195412997Y-129215000D01*
G37*
X195413001Y-129715000D02*
X195113003Y-129715002D01*
X195112999Y-129465000D01*
X195413000Y-129464999D01*
X195413001Y-129715000D01*
G36*
X195413001Y-129715000D02*
G01*
X195113003Y-129715002D01*
X195112999Y-129465000D01*
X195413000Y-129464999D01*
X195413001Y-129715000D01*
G37*
X195413000Y-130264999D02*
X195162999Y-130264997D01*
X195163000Y-129965000D01*
X195413000Y-129965000D01*
X195413000Y-130264999D01*
G36*
X195413000Y-130264999D02*
G01*
X195162999Y-130264997D01*
X195163000Y-129965000D01*
X195413000Y-129965000D01*
X195413000Y-130264999D01*
G37*
X195913001Y-128715000D02*
X195663000Y-128715001D01*
X195662998Y-128415003D01*
X195913000Y-128414999D01*
X195913001Y-128715000D01*
G36*
X195913001Y-128715000D02*
G01*
X195663000Y-128715001D01*
X195662998Y-128415003D01*
X195913000Y-128414999D01*
X195913001Y-128715000D01*
G37*
X195913000Y-129965003D02*
X195913000Y-130265001D01*
X195663000Y-130264999D01*
X195662998Y-129965000D01*
X195913000Y-129965003D01*
G36*
X195913000Y-129965003D02*
G01*
X195913000Y-130265001D01*
X195663000Y-130264999D01*
X195662998Y-129965000D01*
X195913000Y-129965003D01*
G37*
X196413000Y-128415001D02*
X196413002Y-128715000D01*
X196163000Y-128714997D01*
X196163000Y-128414999D01*
X196413000Y-128415001D01*
G36*
X196413000Y-128415001D02*
G01*
X196413002Y-128715000D01*
X196163000Y-128714997D01*
X196163000Y-128414999D01*
X196413000Y-128415001D01*
G37*
X196413002Y-130264997D02*
X196163000Y-130265001D01*
X196162999Y-129965000D01*
X196413000Y-129964999D01*
X196413002Y-130264997D01*
G36*
X196413002Y-130264997D02*
G01*
X196163000Y-130265001D01*
X196162999Y-129965000D01*
X196413000Y-129964999D01*
X196413002Y-130264997D01*
G37*
X196912999Y-129965001D02*
X196912999Y-130265003D01*
X196663001Y-130265001D01*
X196663000Y-129965000D01*
X196912999Y-129965001D01*
G36*
X196912999Y-129965001D02*
G01*
X196912999Y-130265003D01*
X196663001Y-130265001D01*
X196663000Y-129965000D01*
X196912999Y-129965001D01*
G37*
X196913001Y-128415003D02*
X196913000Y-128715000D01*
X196663000Y-128715000D01*
X196663000Y-128415001D01*
X196913001Y-128415003D01*
G36*
X196913001Y-128415003D02*
G01*
X196913000Y-128715000D01*
X196663000Y-128715000D01*
X196663000Y-128415001D01*
X196913001Y-128415003D01*
G37*
X196963001Y-129215000D02*
X196663000Y-129215001D01*
X196662999Y-128965000D01*
X196962997Y-128964998D01*
X196963001Y-129215000D01*
G36*
X196963001Y-129215000D02*
G01*
X196663000Y-129215001D01*
X196662999Y-128965000D01*
X196962997Y-128964998D01*
X196963001Y-129215000D01*
G37*
X196962999Y-129715000D02*
X196663000Y-129715002D01*
X196663003Y-129465000D01*
X196963001Y-129465000D01*
X196962999Y-129715000D01*
G36*
X196962999Y-129715000D02*
G01*
X196663000Y-129715002D01*
X196663003Y-129465000D01*
X196963001Y-129465000D01*
X196962999Y-129715000D01*
G37*
%TD*%
D11*
%TO.C,SW2*%
X188722000Y-133350000D03*
X189992000Y-133350000D03*
X188722000Y-125730000D03*
X189992000Y-125730000D03*
%TD*%
D12*
%TO.C,Q1*%
X137693400Y-129560398D03*
X137693400Y-127660400D03*
X134693400Y-128610400D03*
%TD*%
D13*
%TO.C,CU14*%
X121945400Y-128831400D03*
X121945400Y-129791400D03*
%TD*%
D14*
%TO.C,CU27*%
X171859000Y-125222000D03*
X172819000Y-125222000D03*
%TD*%
D15*
%TO.C,CY21*%
X148742400Y-129156400D03*
X148742400Y-128196400D03*
%TD*%
D16*
%TO.C,RQ12*%
X140538800Y-129550201D03*
X139518800Y-129550199D03*
%TD*%
D13*
%TO.C,CSW11*%
X177114201Y-127917000D03*
X177114201Y-128877000D03*
%TD*%
D16*
%TO.C,RD21*%
X104142000Y-123190001D03*
X103122000Y-123189999D03*
%TD*%
%TO.C,RJ11*%
X106580400Y-135636001D03*
X105560400Y-135635999D03*
%TD*%
D17*
%TO.C,CU41*%
X115951000Y-119139001D03*
X115951000Y-117588999D03*
%TD*%
D18*
%TO.C,CU52*%
X123393199Y-138543999D03*
X123393199Y-140094001D03*
%TD*%
D13*
%TO.C,CU26*%
X169976800Y-135079800D03*
X169976800Y-136039800D03*
%TD*%
D16*
%TO.C,RJ12*%
X108510800Y-123393201D03*
X107490800Y-123393199D03*
%TD*%
D19*
%TO.C,RU15*%
X121335801Y-124813600D03*
X121335799Y-125833600D03*
%TD*%
D16*
%TO.C,RD51*%
X104116500Y-135636001D03*
X103096500Y-135635999D03*
%TD*%
D20*
%TO.C,RU14*%
X127230600Y-124688601D03*
X126210600Y-124688599D03*
%TD*%
D19*
%TO.C,RU36*%
X193929002Y-127781400D03*
X193929000Y-128801400D03*
%TD*%
D20*
%TO.C,RQ11*%
X139544200Y-127645199D03*
X140564200Y-127645201D03*
%TD*%
D18*
%TO.C,CU16*%
X120472200Y-132168599D03*
X120472200Y-133718601D03*
%TD*%
D19*
%TO.C,RSW11*%
X178206401Y-128928400D03*
X178206399Y-129948400D03*
%TD*%
D13*
%TO.C,CU25*%
X168910000Y-135079800D03*
X168910000Y-136039800D03*
%TD*%
D21*
%TO.C,RU16*%
X113870100Y-124536200D03*
X115695100Y-124536200D03*
%TD*%
D16*
%TO.C,RSW22*%
X191010000Y-123240801D03*
X189990000Y-123240799D03*
%TD*%
D22*
%TO.C,RU22*%
X157226000Y-124182500D03*
X157226000Y-126007500D03*
%TD*%
D20*
%TO.C,RQ31*%
X139518800Y-131734600D03*
X140538800Y-131734600D03*
%TD*%
%TO.C,RU31*%
X198829200Y-129082799D03*
X199849200Y-129082801D03*
%TD*%
D21*
%TO.C,RU11*%
X113870100Y-126187200D03*
X115695100Y-126187200D03*
%TD*%
D23*
%TO.C,CU17*%
X120037800Y-130759200D03*
X119077800Y-130759200D03*
%TD*%
D24*
%TO.C,RD13*%
X132841999Y-133225000D03*
X132842001Y-132205000D03*
%TD*%
D25*
%TO.C,U6*%
X109580400Y-128788400D03*
X109580400Y-129438400D03*
X109580400Y-130088400D03*
X111450400Y-130088400D03*
X111450400Y-129438400D03*
X111450400Y-128788400D03*
%TD*%
D26*
%TO.C,D2*%
X101625502Y-123190001D03*
X100050498Y-123189999D03*
%TD*%
D22*
%TO.C,RU33*%
X198678800Y-125681100D03*
X198678800Y-127506100D03*
%TD*%
D15*
%TO.C,CU23*%
X161975800Y-123822400D03*
X161975800Y-122862400D03*
%TD*%
D27*
%TO.C,CU51*%
X119112999Y-142367000D03*
X120663001Y-142367000D03*
%TD*%
D17*
%TO.C,CU22*%
X160502600Y-122440399D03*
X160502600Y-123990401D03*
%TD*%
D12*
%TO.C,U5*%
X121083199Y-140461299D03*
X121083200Y-138561300D03*
X118083200Y-139511300D03*
%TD*%
D20*
%TO.C,RQ21*%
X139544200Y-123606600D03*
X140564200Y-123606600D03*
%TD*%
D18*
%TO.C,CU28*%
X160528000Y-134403799D03*
X160528000Y-135953801D03*
%TD*%
D13*
%TO.C,CY22*%
X148742400Y-131244400D03*
X148742400Y-132204400D03*
%TD*%
D22*
%TO.C,RU12*%
X112166400Y-124436500D03*
X112166400Y-126261500D03*
%TD*%
D20*
%TO.C,RSW32*%
X187704000Y-123240800D03*
X188724000Y-123240800D03*
%TD*%
D24*
%TO.C,RD12*%
X132841999Y-125224000D03*
X132842001Y-124204000D03*
%TD*%
D14*
%TO.C,CU32*%
X195404800Y-131216400D03*
X196364800Y-131216400D03*
%TD*%
D26*
%TO.C,D3*%
X101600002Y-137413999D03*
X100024998Y-137413997D03*
%TD*%
D23*
%TO.C,CY12*%
X153134000Y-129413000D03*
X152174000Y-129413000D03*
%TD*%
D24*
%TO.C,RSW12*%
X177114199Y-130964400D03*
X177114201Y-129944400D03*
%TD*%
%TO.C,RD11*%
X132842001Y-128268000D03*
X132841999Y-129288000D03*
%TD*%
D13*
%TO.C,CU29*%
X159080200Y-134698800D03*
X159080200Y-135658800D03*
%TD*%
D20*
%TO.C,RSW31*%
X187704000Y-135712200D03*
X188724000Y-135712200D03*
%TD*%
%TO.C,RU13*%
X126210600Y-125729999D03*
X127230600Y-125730001D03*
%TD*%
D16*
%TO.C,RU32*%
X196166200Y-126669801D03*
X195146200Y-126669799D03*
%TD*%
D22*
%TO.C,RY21*%
X142900401Y-129105900D03*
X142900401Y-130930900D03*
%TD*%
%TO.C,RY11*%
X150622000Y-126595500D03*
X150622000Y-128420500D03*
%TD*%
%TO.C,RU34*%
X198755000Y-131269100D03*
X198755000Y-133094100D03*
%TD*%
D19*
%TO.C,RU35*%
X193929000Y-129842800D03*
X193928998Y-130862800D03*
%TD*%
D28*
%TO.C,YU22*%
X145948401Y-132050400D03*
X145948399Y-128350400D03*
%TD*%
D12*
%TO.C,U4*%
X121108601Y-120141299D03*
X121108600Y-118241300D03*
X118108600Y-119191300D03*
%TD*%
D16*
%TO.C,RD41*%
X104142000Y-121412001D03*
X103122000Y-121411999D03*
%TD*%
D29*
%TO.C,SW1*%
X184399397Y-126963802D03*
X184399397Y-132963800D03*
X180649401Y-126963800D03*
X180649401Y-132963798D03*
%TD*%
D18*
%TO.C,CU12*%
X116052600Y-132270199D03*
X116052600Y-133820201D03*
%TD*%
D13*
%TO.C,CU15*%
X122961400Y-128831400D03*
X122961400Y-129791400D03*
%TD*%
D16*
%TO.C,RQ32*%
X140538800Y-133614201D03*
X139518800Y-133614199D03*
%TD*%
D12*
%TO.C,Q3*%
X137693400Y-133624398D03*
X137693400Y-131724400D03*
X134693400Y-132674400D03*
%TD*%
D30*
%TO.C,YU21*%
X152654000Y-128208000D03*
X152654000Y-126808000D03*
%TD*%
D31*
%TO.C,U2*%
X161827500Y-126590000D03*
X161827500Y-127090000D03*
X161827500Y-127590000D03*
X161827500Y-128090000D03*
X161827500Y-128590000D03*
X161827500Y-129090000D03*
X161827500Y-129590000D03*
X161827500Y-130090000D03*
X161827500Y-130590000D03*
X161827500Y-131090000D03*
X161827500Y-131590000D03*
X161827500Y-132090000D03*
D32*
X163240000Y-133502500D03*
X163740000Y-133502500D03*
X164240000Y-133502500D03*
X164740000Y-133502500D03*
X165240000Y-133502500D03*
X165740000Y-133502500D03*
X166240000Y-133502500D03*
X166740000Y-133502500D03*
X167240000Y-133502500D03*
X167740000Y-133502500D03*
X168240000Y-133502500D03*
X168740000Y-133502500D03*
D31*
X170152500Y-132090000D03*
X170152500Y-131590000D03*
X170152500Y-131090000D03*
X170152500Y-130590000D03*
X170152500Y-130090000D03*
X170152500Y-129590000D03*
X170152500Y-129090000D03*
X170152500Y-128590000D03*
X170152500Y-128090000D03*
X170152500Y-127590000D03*
X170152500Y-127090000D03*
X170152500Y-126590000D03*
D32*
X168740000Y-125177500D03*
X168240000Y-125177500D03*
X167740000Y-125177500D03*
X167240000Y-125177500D03*
X166740000Y-125177500D03*
X166240000Y-125177500D03*
X165740000Y-125177500D03*
X165240000Y-125177500D03*
X164740000Y-125177500D03*
X164240000Y-125177500D03*
X163740000Y-125177500D03*
X163240000Y-125177500D03*
%TD*%
D14*
%TO.C,CU24*%
X171859000Y-126390400D03*
X172819000Y-126390400D03*
%TD*%
D16*
%TO.C,RSW21*%
X191086200Y-135712201D03*
X190066200Y-135712199D03*
%TD*%
D33*
%TO.C,U1*%
X120098999Y-128653503D03*
X120099000Y-128253500D03*
X120099001Y-127853503D03*
X120099000Y-127453500D03*
X120099000Y-127053498D03*
X117899001Y-127053497D03*
X117899000Y-127453500D03*
X117898999Y-127853497D03*
X117899000Y-128253500D03*
X117899000Y-128653502D03*
D34*
X118999000Y-127853500D03*
%TD*%
D35*
%TO.C,RU21*%
X166243000Y-120927500D03*
X166243000Y-119102500D03*
%TD*%
D36*
%TO.C,J1*%
X104704502Y-126460249D03*
X104704504Y-126960249D03*
X104704504Y-127460246D03*
X104704502Y-127960249D03*
X104704501Y-128460252D03*
X104704504Y-128960251D03*
X104704501Y-129460248D03*
X104704501Y-129960253D03*
X104704501Y-130460251D03*
X104704502Y-130960250D03*
X104704502Y-131460248D03*
X104704502Y-131960246D03*
X106404502Y-132210252D03*
X106404502Y-131710254D03*
X106404501Y-131210250D03*
X106404504Y-130710251D03*
X106404502Y-130210250D03*
X106404502Y-129710250D03*
X106404501Y-129210250D03*
X106404507Y-128710251D03*
X106404502Y-128210249D03*
X106404503Y-127710249D03*
X106404499Y-127210251D03*
X106404502Y-126710247D03*
%TD*%
D16*
%TO.C,RQ22*%
X140564200Y-125486201D03*
X139544200Y-125486199D03*
%TD*%
D23*
%TO.C,CY11*%
X153134000Y-125603000D03*
X152174000Y-125603000D03*
%TD*%
D18*
%TO.C,CU42*%
X123418600Y-118509298D03*
X123418600Y-120059300D03*
%TD*%
D14*
%TO.C,CU13*%
X118061800Y-129717800D03*
X119021800Y-129717800D03*
%TD*%
D26*
%TO.C,D5*%
X101600000Y-135636000D03*
X100024996Y-135635998D03*
%TD*%
%TO.C,D4*%
X101625502Y-121412001D03*
X100050498Y-121411999D03*
%TD*%
D27*
%TO.C,CU31*%
X195059000Y-132486400D03*
X196609000Y-132486400D03*
%TD*%
D18*
%TO.C,CU11*%
X117627400Y-132270199D03*
X117627400Y-133820201D03*
%TD*%
D16*
%TO.C,RD31*%
X104116499Y-137414001D03*
X103096499Y-137413999D03*
%TD*%
D12*
%TO.C,Q2*%
X137693399Y-125496399D03*
X137693400Y-123596400D03*
X134693400Y-124546400D03*
%TD*%
M02*
