%TF.GenerationSoftware,KiCad,Pcbnew,8.0.8*%
%TF.CreationDate,2025-02-19T00:34:52-05:00*%
%TF.ProjectId,flashlight-stm32-dev,666c6173-686c-4696-9768-742d73746d33,rev?*%
%TF.SameCoordinates,Original*%
%TF.FileFunction,Soldermask,Bot*%
%TF.FilePolarity,Negative*%
%FSLAX46Y46*%
G04 Gerber Fmt 4.6, Leading zero omitted, Abs format (unit mm)*
G04 Created by KiCad (PCBNEW 8.0.8) date 2025-02-19 00:34:52*
%MOMM*%
%LPD*%
G01*
G04 APERTURE LIST*
G04 Aperture macros list*
%AMRoundRect*
0 Rectangle with rounded corners*
0 $1 Rounding radius*
0 $2 $3 $4 $5 $6 $7 $8 $9 X,Y pos of 4 corners*
0 Add a 4 corners polygon primitive as box body*
4,1,4,$2,$3,$4,$5,$6,$7,$8,$9,$2,$3,0*
0 Add four circle primitives for the rounded corners*
1,1,$1+$1,$2,$3*
1,1,$1+$1,$4,$5*
1,1,$1+$1,$6,$7*
1,1,$1+$1,$8,$9*
0 Add four rect primitives between the rounded corners*
20,1,$1+$1,$2,$3,$4,$5,0*
20,1,$1+$1,$4,$5,$6,$7,0*
20,1,$1+$1,$6,$7,$8,$9,0*
20,1,$1+$1,$8,$9,$2,$3,0*%
G04 Aperture macros list end*
%ADD10C,5.400000*%
%ADD11RoundRect,0.450000X0.450000X-0.450000X0.450000X0.450000X-0.450000X0.450000X-0.450000X-0.450000X0*%
%ADD12C,1.800000*%
%ADD13R,1.700000X1.700000*%
%ADD14O,1.700000X1.700000*%
%ADD15C,0.675000*%
%ADD16C,0.650000*%
%ADD17O,1.804000X1.004000*%
%ADD18C,3.000000*%
G04 APERTURE END LIST*
D10*
%TO.C,H1*%
X92793600Y-80264000D03*
%TD*%
D11*
%TO.C,D1*%
X99288599Y-82042000D03*
D12*
X100812600Y-80264000D03*
X99288599Y-78740000D03*
X100812600Y-77216001D03*
%TD*%
D10*
%TO.C,H2*%
X202793600Y-80264000D03*
%TD*%
%TO.C,H4*%
X202793600Y-105264000D03*
%TD*%
D13*
%TO.C,J2*%
X202793600Y-89262000D03*
D14*
X202793600Y-91802000D03*
X202793600Y-94342000D03*
X202793600Y-96882000D03*
%TD*%
D13*
%TO.C,J3*%
X143739601Y-108433000D03*
D14*
X146279601Y-108433000D03*
X148819601Y-108433000D03*
X151359601Y-108433000D03*
X153899601Y-108433000D03*
X156439601Y-108433000D03*
X158979601Y-108433000D03*
X161519601Y-108433000D03*
X164059601Y-108433000D03*
X166599601Y-108433000D03*
X169139601Y-108433000D03*
%TD*%
D10*
%TO.C,H3*%
X92793600Y-105264000D03*
%TD*%
D15*
%TO.C,J1*%
X96194102Y-89284250D03*
D16*
X96194102Y-96484250D03*
D17*
X94944108Y-88754251D03*
X94944102Y-97014250D03*
X88994102Y-97374250D03*
X88994102Y-88394250D03*
%TD*%
D13*
%TO.C,J4*%
X143739601Y-77470000D03*
D14*
X146279601Y-77470000D03*
X148819601Y-77470000D03*
X151359601Y-77470000D03*
X153899601Y-77470000D03*
X156439601Y-77470000D03*
X158979601Y-77470000D03*
X161519601Y-77470000D03*
X164059601Y-77470000D03*
X166599601Y-77470000D03*
X169139601Y-77470000D03*
%TD*%
D18*
%TO.C,BT1*%
X118589600Y-92764000D03*
X194589601Y-92763998D03*
%TD*%
M02*
