%TF.GenerationSoftware,KiCad,Pcbnew,8.0.8*%
%TF.CreationDate,2025-02-17T13:53:59-05:00*%
%TF.ProjectId,flashlight-stm32-dev,666c6173-686c-4696-9768-742d73746d33,rev?*%
%TF.SameCoordinates,Original*%
%TF.FileFunction,Legend,Bot*%
%TF.FilePolarity,Positive*%
%FSLAX46Y46*%
G04 Gerber Fmt 4.6, Leading zero omitted, Abs format (unit mm)*
G04 Created by KiCad (PCBNEW 8.0.8) date 2025-02-17 13:53:59*
%MOMM*%
%LPD*%
G01*
G04 APERTURE LIST*
G04 Aperture macros list*
%AMRoundRect*
0 Rectangle with rounded corners*
0 $1 Rounding radius*
0 $2 $3 $4 $5 $6 $7 $8 $9 X,Y pos of 4 corners*
0 Add a 4 corners polygon primitive as box body*
4,1,4,$2,$3,$4,$5,$6,$7,$8,$9,$2,$3,0*
0 Add four circle primitives for the rounded corners*
1,1,$1+$1,$2,$3*
1,1,$1+$1,$4,$5*
1,1,$1+$1,$6,$7*
1,1,$1+$1,$8,$9*
0 Add four rect primitives between the rounded corners*
20,1,$1+$1,$2,$3,$4,$5,0*
20,1,$1+$1,$4,$5,$6,$7,0*
20,1,$1+$1,$6,$7,$8,$9,0*
20,1,$1+$1,$8,$9,$2,$3,0*%
G04 Aperture macros list end*
%ADD10C,0.100000*%
%ADD11C,0.050000*%
%ADD12C,5.400000*%
%ADD13RoundRect,0.450000X0.450000X-0.450000X0.450000X0.450000X-0.450000X0.450000X-0.450000X-0.450000X0*%
%ADD14C,1.800000*%
%ADD15R,1.700000X1.700000*%
%ADD16O,1.700000X1.700000*%
%ADD17C,0.675000*%
%ADD18C,0.650000*%
%ADD19O,1.804000X1.004000*%
%ADD20C,3.000000*%
G04 APERTURE END LIST*
D10*
X165204287Y-133670390D02*
X165347144Y-133622771D01*
X165347144Y-133622771D02*
X165394763Y-133575152D01*
X165394763Y-133575152D02*
X165442382Y-133479914D01*
X165442382Y-133479914D02*
X165442382Y-133337057D01*
X165442382Y-133337057D02*
X165394763Y-133241819D01*
X165394763Y-133241819D02*
X165347144Y-133194200D01*
X165347144Y-133194200D02*
X165251906Y-133146580D01*
X165251906Y-133146580D02*
X164870954Y-133146580D01*
X164870954Y-133146580D02*
X164870954Y-134146580D01*
X164870954Y-134146580D02*
X165204287Y-134146580D01*
X165204287Y-134146580D02*
X165299525Y-134098961D01*
X165299525Y-134098961D02*
X165347144Y-134051342D01*
X165347144Y-134051342D02*
X165394763Y-133956104D01*
X165394763Y-133956104D02*
X165394763Y-133860866D01*
X165394763Y-133860866D02*
X165347144Y-133765628D01*
X165347144Y-133765628D02*
X165299525Y-133718009D01*
X165299525Y-133718009D02*
X165204287Y-133670390D01*
X165204287Y-133670390D02*
X164870954Y-133670390D01*
X165728097Y-134146580D02*
X166299525Y-134146580D01*
X166013811Y-133146580D02*
X166013811Y-134146580D01*
X167156668Y-133146580D02*
X166585240Y-133146580D01*
X166870954Y-133146580D02*
X166870954Y-134146580D01*
X166870954Y-134146580D02*
X166775716Y-134003723D01*
X166775716Y-134003723D02*
X166680478Y-133908485D01*
X166680478Y-133908485D02*
X166585240Y-133860866D01*
D11*
%TO.C,BT1*%
X167190000Y-129340000D02*
G75*
G02*
X164790000Y-129340000I-1200000J0D01*
G01*
X164790000Y-129340000D02*
G75*
G02*
X167190000Y-129340000I1200000J0D01*
G01*
%TD*%
%LPC*%
D12*
%TO.C,H1*%
X102344000Y-116840000D03*
%TD*%
D13*
%TO.C,D1*%
X108838999Y-119253000D03*
D14*
X110363000Y-117475000D03*
X108838999Y-115951000D03*
X110363000Y-114427001D03*
%TD*%
D12*
%TO.C,H2*%
X212344000Y-116840000D03*
%TD*%
%TO.C,H4*%
X212344000Y-141840000D03*
%TD*%
D15*
%TO.C,J2*%
X212344000Y-125838000D03*
D16*
X212344000Y-128378000D03*
X212344000Y-130918000D03*
X212344000Y-133458000D03*
%TD*%
D15*
%TO.C,J3*%
X153290001Y-145009000D03*
D16*
X155830001Y-145009000D03*
X158370001Y-145009000D03*
X160910001Y-145009000D03*
X163450001Y-145009000D03*
X165990001Y-145009000D03*
X168530001Y-145009000D03*
X171070001Y-145009000D03*
X173610001Y-145009000D03*
X176150001Y-145009000D03*
X178690001Y-145009000D03*
%TD*%
D12*
%TO.C,H3*%
X102344000Y-141840000D03*
%TD*%
D17*
%TO.C,J1*%
X105744502Y-125860250D03*
D18*
X105744502Y-133060250D03*
D19*
X104494508Y-125330251D03*
X104494502Y-133590250D03*
X98544502Y-133950250D03*
X98544502Y-124970250D03*
%TD*%
D15*
%TO.C,J4*%
X153290001Y-114046000D03*
D16*
X155830001Y-114046000D03*
X158370001Y-114046000D03*
X160910001Y-114046000D03*
X163450001Y-114046000D03*
X165990001Y-114046000D03*
X168530001Y-114046000D03*
X171070001Y-114046000D03*
X173610001Y-114046000D03*
X176150001Y-114046000D03*
X178690001Y-114046000D03*
%TD*%
D20*
%TO.C,BT1*%
X128140000Y-129340000D03*
X204140001Y-129339998D03*
%TD*%
%LPD*%
M02*
