%TF.GenerationSoftware,KiCad,Pcbnew,8.0.8*%
%TF.CreationDate,2025-03-05T00:38:32-05:00*%
%TF.ProjectId,flashlight-stm32-dev,666c6173-686c-4696-9768-742d73746d33,rev?*%
%TF.SameCoordinates,Original*%
%TF.FileFunction,Copper,L2,Inr*%
%TF.FilePolarity,Positive*%
%FSLAX46Y46*%
G04 Gerber Fmt 4.6, Leading zero omitted, Abs format (unit mm)*
G04 Created by KiCad (PCBNEW 8.0.8) date 2025-03-05 00:38:32*
%MOMM*%
%LPD*%
G01*
G04 APERTURE LIST*
%TA.AperFunction,ComponentPad*%
%ADD10C,5.400000*%
%TD*%
%TA.AperFunction,ComponentPad*%
%ADD11R,1.700000X1.700000*%
%TD*%
%TA.AperFunction,ComponentPad*%
%ADD12O,1.700000X1.700000*%
%TD*%
%TA.AperFunction,ComponentPad*%
%ADD13O,1.600000X0.800000*%
%TD*%
%TA.AperFunction,ComponentPad*%
%ADD14C,3.000000*%
%TD*%
%TA.AperFunction,ViaPad*%
%ADD15C,0.609600*%
%TD*%
G04 APERTURE END LIST*
D10*
%TO.N,GND*%
%TO.C,H1*%
X92793600Y-80264000D03*
%TD*%
%TO.N,GND*%
%TO.C,H2*%
X202793600Y-80264000D03*
%TD*%
%TO.N,GND*%
%TO.C,H4*%
X202793600Y-105264000D03*
%TD*%
D11*
%TO.N,+3.3V*%
%TO.C,J2*%
X202793600Y-89262000D03*
D12*
%TO.N,/SWD*%
X202793600Y-91802000D03*
%TO.N,/SCK*%
X202793600Y-94342000D03*
%TO.N,GND*%
X202793600Y-96882000D03*
%TD*%
D11*
%TO.N,GND*%
%TO.C,J3*%
X141199601Y-108433000D03*
D12*
%TO.N,/PA1*%
X143739601Y-108433000D03*
%TO.N,/PA2*%
X146279601Y-108433000D03*
%TO.N,/PA3*%
X148819601Y-108433000D03*
%TO.N,/PA4*%
X151359601Y-108433000D03*
%TO.N,/PA5*%
X153899601Y-108433000D03*
%TO.N,/PA6*%
X156439601Y-108433000D03*
%TO.N,/PA7*%
X158979601Y-108433000D03*
%TO.N,/PB10*%
X161519601Y-108433000D03*
%TO.N,/PB11*%
X164059601Y-108433000D03*
%TO.N,+3.3V*%
X166599601Y-108433000D03*
%TO.N,GND*%
X169139601Y-108433000D03*
%TD*%
D10*
%TO.N,GND*%
%TO.C,H3*%
X92793600Y-105264000D03*
%TD*%
D13*
%TO.N,GND*%
%TO.C,J1*%
X94944108Y-88754251D03*
X94944102Y-97014250D03*
X88994102Y-97374250D03*
X88994102Y-88394250D03*
%TD*%
D11*
%TO.N,/VLCD*%
%TO.C,J4*%
X141199601Y-77470000D03*
D12*
%TO.N,+3.3V*%
X143739601Y-77470000D03*
%TO.N,GND*%
X146279601Y-77470000D03*
%TO.N,/PB3*%
X148819601Y-77470000D03*
%TO.N,/PA15*%
X151359601Y-77470000D03*
%TO.N,/PA10*%
X153899601Y-77470000D03*
%TO.N,/PA9*%
X156439601Y-77470000D03*
%TO.N,/PA8*%
X158979601Y-77470000D03*
%TO.N,/PB15*%
X161519601Y-77470000D03*
%TO.N,/PB14*%
X164059601Y-77470000D03*
%TO.N,/PB13*%
X166599601Y-77470000D03*
%TO.N,/PB12*%
X169139601Y-77470000D03*
%TD*%
D14*
%TO.N,/BAT+*%
%TO.C,BT1*%
X118589600Y-92764000D03*
%TO.N,GND*%
X194589601Y-92763998D03*
%TD*%
D15*
%TO.N,+3.3V*%
X118211600Y-81915000D03*
X191871600Y-93472000D03*
X159994600Y-97409000D03*
X118668800Y-88163400D03*
X120370600Y-81915000D03*
X122402600Y-80518000D03*
X189839600Y-94742000D03*
X150952200Y-88417400D03*
X191871600Y-88900000D03*
X152400000Y-88417400D03*
X179806600Y-85572600D03*
X184251600Y-87884000D03*
X118211600Y-80518000D03*
X168630600Y-94411800D03*
X189839600Y-97282000D03*
X161366200Y-88671400D03*
X98247200Y-79222600D03*
X189839600Y-96012000D03*
X160451800Y-88696800D03*
X161239200Y-97409000D03*
X122402600Y-81915000D03*
X120370600Y-80518000D03*
X184251600Y-96012000D03*
X118668800Y-89103200D03*
X111607600Y-80518000D03*
%TO.N,/NRST*%
X153441400Y-93014000D03*
X166268400Y-93141800D03*
%TO.N,+5V*%
X99441000Y-103251000D03*
X96037400Y-94792800D03*
X94183200Y-91363800D03*
X97815400Y-94132400D03*
X106553000Y-94488000D03*
X108051600Y-94488000D03*
X107391200Y-93675200D03*
X96012000Y-90703400D03*
%TO.N,VS*%
X107924600Y-81280000D03*
X114147600Y-94615000D03*
X106527600Y-102362000D03*
X108940600Y-81280000D03*
X107924600Y-80264000D03*
X108432600Y-105918000D03*
X105638600Y-105918000D03*
X107924600Y-79248000D03*
X105638600Y-104140000D03*
X112115600Y-94615000D03*
X103098600Y-105918000D03*
X113131600Y-94615000D03*
X112115600Y-95504000D03*
X114147600Y-95504000D03*
X93319600Y-101854000D03*
X103098600Y-104140000D03*
X108940600Y-79248000D03*
X113131600Y-95504000D03*
X108940600Y-80264000D03*
X108432600Y-104140000D03*
%TO.N,+3.3VADC*%
X152552400Y-97688400D03*
X119227600Y-101727000D03*
X152501600Y-96621600D03*
X119227600Y-100330000D03*
X121513600Y-101727000D03*
X151003000Y-96570800D03*
X149529800Y-96570800D03*
X121513600Y-100330000D03*
%TO.N,/USB_D+*%
X159331351Y-91414000D03*
X108665351Y-98450400D03*
%TO.N,Net-(J1-CC2)*%
X94132400Y-93421200D03*
X98094800Y-95554800D03*
%TO.N,/USB_D-*%
X96012000Y-93443048D03*
X95985705Y-92206325D03*
X108669126Y-99212393D03*
X159359600Y-92175479D03*
%TO.N,/BOOT0*%
X179349400Y-91186000D03*
X154787600Y-85217000D03*
%TO.N,/STAT1*%
X155879800Y-95707200D03*
X122428000Y-85725000D03*
X107238800Y-91998800D03*
X115646200Y-89230200D03*
%TO.N,/STAT2*%
X115671600Y-88112599D03*
X156718000Y-95300800D03*
X125984000Y-83185000D03*
%TO.N,/CE*%
X155575000Y-81965800D03*
X162814000Y-83185000D03*
%TO.N,/SCL*%
X156630800Y-85296200D03*
X189839600Y-92202000D03*
X195072000Y-96139000D03*
%TO.N,/SDA*%
X189839600Y-90170000D03*
X154025600Y-83693000D03*
%TO.N,/INT2*%
X183235600Y-91186000D03*
X150469600Y-90170000D03*
%TO.N,/INT1*%
X153339800Y-94514000D03*
X183235600Y-93726000D03*
%TO.N,/BAT+*%
X116306600Y-91567000D03*
X116306600Y-92583000D03*
X116306600Y-93599000D03*
X115290600Y-91567000D03*
%TO.N,GND*%
X167868600Y-99568000D03*
X139293600Y-108966000D03*
X120497600Y-78232000D03*
X136245600Y-78232000D03*
X128879600Y-78232000D03*
X143103600Y-86360000D03*
X204571600Y-100838000D03*
X185267600Y-94996000D03*
X99923600Y-89408000D03*
X128117600Y-87884000D03*
X154025600Y-90043000D03*
X100177600Y-84582000D03*
X159867600Y-101854000D03*
X182727600Y-76200000D03*
X174853600Y-92964000D03*
X188823600Y-86614000D03*
X136525000Y-81026000D03*
X182727600Y-78232000D03*
X175361600Y-101600000D03*
X145262600Y-95250000D03*
X109575600Y-89916000D03*
X95605600Y-86614000D03*
X130403600Y-108966000D03*
X186791600Y-108966000D03*
X161899600Y-87122000D03*
X145897600Y-84074000D03*
X102717600Y-108712000D03*
X100177600Y-100838000D03*
X189585600Y-91186000D03*
X100177600Y-86614000D03*
X163423600Y-99568000D03*
X174599600Y-76200000D03*
X113131600Y-93345000D03*
X115773200Y-96774000D03*
X145262600Y-92075000D03*
X200075800Y-100685600D03*
X163423600Y-101854000D03*
X184251600Y-103759000D03*
X178409600Y-108966000D03*
X110845600Y-108966000D03*
X136245600Y-76200000D03*
X164693600Y-84836000D03*
X131165600Y-85344000D03*
X198501000Y-93345000D03*
X146913600Y-92075000D03*
X133451600Y-96266000D03*
X174447200Y-86309200D03*
X128117600Y-91948000D03*
X143103600Y-84074000D03*
X112115600Y-87376000D03*
X158343600Y-90043000D03*
X158343600Y-95250000D03*
X109321600Y-96520000D03*
X119227600Y-96774000D03*
X120396000Y-84074000D03*
X191109600Y-78232000D03*
X124587000Y-90932000D03*
X124561600Y-81788000D03*
X122275600Y-84074000D03*
X165328600Y-97282000D03*
X128117600Y-96012000D03*
X183235600Y-92456000D03*
X109321600Y-87376000D03*
X98526600Y-92837000D03*
X95605600Y-100838000D03*
X139928600Y-84074000D03*
X167868600Y-101854000D03*
X174599600Y-78232000D03*
X95300800Y-99085400D03*
X133959600Y-83058000D03*
X186791600Y-103759000D03*
X200152000Y-86512400D03*
X128879600Y-76200000D03*
X138912600Y-96901000D03*
X124714000Y-94869000D03*
X168122600Y-84683600D03*
X96875600Y-108712000D03*
X120497600Y-76200000D03*
X165201600Y-87122000D03*
X171297600Y-101854000D03*
X120751600Y-108966000D03*
X129921000Y-81788000D03*
X191109600Y-76200000D03*
X95605600Y-84582000D03*
%TO.N,GNDA*%
X152247600Y-100584000D03*
X150469600Y-103632000D03*
X152247600Y-103632000D03*
X119735600Y-103632000D03*
X115798600Y-106045000D03*
X121640600Y-106045000D03*
X150469600Y-100584000D03*
X113385600Y-106045000D03*
X115798600Y-103632000D03*
X119735600Y-106045000D03*
X152247600Y-102108000D03*
X121640600Y-103632000D03*
%TO.N,/PA1*%
X150684068Y-95035532D03*
%TO.N,/PB13*%
X172313600Y-86334600D03*
%TO.N,/PA8*%
X170586400Y-86817200D03*
%TO.N,/PA9*%
X170010364Y-86318372D03*
%TO.N,/PB14*%
X171729400Y-86842600D03*
%TO.N,/PA2*%
X154914600Y-94488000D03*
%TO.N,/PA10*%
X169240200Y-85674200D03*
%TO.N,/PB15*%
X171170600Y-86317771D03*
%TO.N,/PB12*%
X172999400Y-86893400D03*
%TO.N,/VLCD*%
X149098000Y-88265000D03*
%TD*%
%TA.AperFunction,Conductor*%
%TO.N,GND*%
G36*
X203796694Y-75467852D02*
G01*
X204159522Y-75485676D01*
X204171821Y-75486887D01*
X204528104Y-75539737D01*
X204540215Y-75542146D01*
X204889609Y-75629664D01*
X204901431Y-75633251D01*
X205240552Y-75754591D01*
X205251971Y-75759320D01*
X205414772Y-75836319D01*
X205577568Y-75913316D01*
X205588473Y-75919145D01*
X205897404Y-76104311D01*
X205907685Y-76111181D01*
X206196969Y-76325728D01*
X206206528Y-76333572D01*
X206473402Y-76575454D01*
X206482145Y-76584197D01*
X206724027Y-76851071D01*
X206731871Y-76860630D01*
X206946418Y-77149914D01*
X206953288Y-77160195D01*
X207138454Y-77469126D01*
X207144283Y-77480031D01*
X207298277Y-77805623D01*
X207303008Y-77817047D01*
X207424348Y-78156168D01*
X207427938Y-78168001D01*
X207515451Y-78517376D01*
X207517863Y-78529503D01*
X207570711Y-78885775D01*
X207571923Y-78898080D01*
X207589748Y-79260904D01*
X207589900Y-79267087D01*
X207589900Y-106260912D01*
X207589748Y-106267095D01*
X207571923Y-106629919D01*
X207570711Y-106642224D01*
X207517863Y-106998496D01*
X207515451Y-107010623D01*
X207427938Y-107359998D01*
X207424348Y-107371831D01*
X207303008Y-107710952D01*
X207298277Y-107722376D01*
X207144283Y-108047968D01*
X207138454Y-108058873D01*
X206953288Y-108367804D01*
X206946418Y-108378085D01*
X206731871Y-108667369D01*
X206724027Y-108676928D01*
X206482145Y-108943802D01*
X206473402Y-108952545D01*
X206206528Y-109194427D01*
X206196969Y-109202271D01*
X205907685Y-109416818D01*
X205897404Y-109423688D01*
X205588473Y-109608854D01*
X205577568Y-109614683D01*
X205251976Y-109768677D01*
X205240552Y-109773408D01*
X204901431Y-109894748D01*
X204889598Y-109898338D01*
X204540223Y-109985851D01*
X204528096Y-109988263D01*
X204171824Y-110041111D01*
X204159519Y-110042323D01*
X203817690Y-110059116D01*
X203796693Y-110060148D01*
X203790512Y-110060300D01*
X91796688Y-110060300D01*
X91790506Y-110060148D01*
X91768124Y-110059048D01*
X91427680Y-110042323D01*
X91415375Y-110041111D01*
X91059103Y-109988263D01*
X91046976Y-109985851D01*
X90697601Y-109898338D01*
X90685768Y-109894748D01*
X90346647Y-109773408D01*
X90335223Y-109768677D01*
X90009631Y-109614683D01*
X89998726Y-109608854D01*
X89689795Y-109423688D01*
X89679514Y-109416818D01*
X89390230Y-109202271D01*
X89380671Y-109194427D01*
X89113797Y-108952545D01*
X89105054Y-108943802D01*
X88863172Y-108676928D01*
X88855328Y-108667369D01*
X88640781Y-108378085D01*
X88633911Y-108367804D01*
X88448745Y-108058873D01*
X88442916Y-108047968D01*
X88357139Y-107866609D01*
X88288920Y-107722371D01*
X88284191Y-107710952D01*
X88162851Y-107371831D01*
X88159264Y-107360009D01*
X88071746Y-107010615D01*
X88069336Y-106998496D01*
X88016488Y-106642224D01*
X88015276Y-106629918D01*
X88004302Y-106406542D01*
X87997452Y-106267094D01*
X87997300Y-106260912D01*
X87997300Y-105917999D01*
X102534474Y-105917999D01*
X102534474Y-105918000D01*
X102553695Y-106064006D01*
X102553697Y-106064010D01*
X102610050Y-106200057D01*
X102610057Y-106200069D01*
X102699702Y-106316897D01*
X102816530Y-106406542D01*
X102816537Y-106406547D01*
X102952593Y-106462904D01*
X103098600Y-106482126D01*
X103244607Y-106462904D01*
X103380663Y-106406547D01*
X103497497Y-106316897D01*
X103587147Y-106200063D01*
X103643504Y-106064007D01*
X103662726Y-105918000D01*
X103662726Y-105917999D01*
X105074474Y-105917999D01*
X105074474Y-105918000D01*
X105093695Y-106064006D01*
X105093697Y-106064010D01*
X105150050Y-106200057D01*
X105150057Y-106200069D01*
X105239702Y-106316897D01*
X105356530Y-106406542D01*
X105356537Y-106406547D01*
X105492593Y-106462904D01*
X105638600Y-106482126D01*
X105784607Y-106462904D01*
X105920663Y-106406547D01*
X106037497Y-106316897D01*
X106127147Y-106200063D01*
X106183504Y-106064007D01*
X106202726Y-105918000D01*
X106202726Y-105917999D01*
X107868474Y-105917999D01*
X107868474Y-105918000D01*
X107887695Y-106064006D01*
X107887697Y-106064010D01*
X107944050Y-106200057D01*
X107944057Y-106200069D01*
X108033702Y-106316897D01*
X108150530Y-106406542D01*
X108150537Y-106406547D01*
X108286593Y-106462904D01*
X108432600Y-106482126D01*
X108578607Y-106462904D01*
X108714663Y-106406547D01*
X108831497Y-106316897D01*
X108921147Y-106200063D01*
X108977504Y-106064007D01*
X108996726Y-105918000D01*
X108977504Y-105771993D01*
X108921147Y-105635937D01*
X108921142Y-105635930D01*
X108831497Y-105519102D01*
X108714669Y-105429457D01*
X108714665Y-105429455D01*
X108714663Y-105429453D01*
X108714660Y-105429451D01*
X108714657Y-105429450D01*
X108578610Y-105373097D01*
X108578606Y-105373095D01*
X108432600Y-105353874D01*
X108286593Y-105373095D01*
X108286589Y-105373097D01*
X108150542Y-105429450D01*
X108150530Y-105429457D01*
X108033702Y-105519102D01*
X107944057Y-105635930D01*
X107944050Y-105635942D01*
X107887697Y-105771989D01*
X107887695Y-105771993D01*
X107868474Y-105917999D01*
X106202726Y-105917999D01*
X106183504Y-105771993D01*
X106127147Y-105635937D01*
X106127142Y-105635930D01*
X106037497Y-105519102D01*
X105920669Y-105429457D01*
X105920665Y-105429455D01*
X105920663Y-105429453D01*
X105920660Y-105429451D01*
X105920657Y-105429450D01*
X105784610Y-105373097D01*
X105784606Y-105373095D01*
X105638600Y-105353874D01*
X105492593Y-105373095D01*
X105492589Y-105373097D01*
X105356542Y-105429450D01*
X105356530Y-105429457D01*
X105239702Y-105519102D01*
X105150057Y-105635930D01*
X105150050Y-105635942D01*
X105093697Y-105771989D01*
X105093695Y-105771993D01*
X105074474Y-105917999D01*
X103662726Y-105917999D01*
X103643504Y-105771993D01*
X103587147Y-105635937D01*
X103587142Y-105635930D01*
X103497497Y-105519102D01*
X103380669Y-105429457D01*
X103380665Y-105429455D01*
X103380663Y-105429453D01*
X103380660Y-105429451D01*
X103380657Y-105429450D01*
X103244610Y-105373097D01*
X103244606Y-105373095D01*
X103098600Y-105353874D01*
X102952593Y-105373095D01*
X102952589Y-105373097D01*
X102816542Y-105429450D01*
X102816530Y-105429457D01*
X102699702Y-105519102D01*
X102610057Y-105635930D01*
X102610050Y-105635942D01*
X102553697Y-105771989D01*
X102553695Y-105771993D01*
X102534474Y-105917999D01*
X87997300Y-105917999D01*
X87997300Y-104139999D01*
X102534474Y-104139999D01*
X102534474Y-104140000D01*
X102553695Y-104286006D01*
X102553697Y-104286010D01*
X102610050Y-104422057D01*
X102610057Y-104422069D01*
X102699702Y-104538897D01*
X102816530Y-104628542D01*
X102816537Y-104628547D01*
X102952593Y-104684904D01*
X103098600Y-104704126D01*
X103244607Y-104684904D01*
X103380663Y-104628547D01*
X103497497Y-104538897D01*
X103587147Y-104422063D01*
X103643504Y-104286007D01*
X103662726Y-104140000D01*
X103662726Y-104139999D01*
X105074474Y-104139999D01*
X105074474Y-104140000D01*
X105093695Y-104286006D01*
X105093697Y-104286010D01*
X105150050Y-104422057D01*
X105150057Y-104422069D01*
X105239702Y-104538897D01*
X105356530Y-104628542D01*
X105356537Y-104628547D01*
X105492593Y-104684904D01*
X105638600Y-104704126D01*
X105784607Y-104684904D01*
X105920663Y-104628547D01*
X106037497Y-104538897D01*
X106127147Y-104422063D01*
X106183504Y-104286007D01*
X106202726Y-104140000D01*
X106202726Y-104139999D01*
X107868474Y-104139999D01*
X107868474Y-104140000D01*
X107887695Y-104286006D01*
X107887697Y-104286010D01*
X107944050Y-104422057D01*
X107944057Y-104422069D01*
X108033702Y-104538897D01*
X108150530Y-104628542D01*
X108150537Y-104628547D01*
X108286593Y-104684904D01*
X108432600Y-104704126D01*
X108578607Y-104684904D01*
X108714663Y-104628547D01*
X108831497Y-104538897D01*
X108921147Y-104422063D01*
X108977504Y-104286007D01*
X108996726Y-104140000D01*
X108977504Y-103993993D01*
X108921147Y-103857937D01*
X108888297Y-103815126D01*
X108831497Y-103741102D01*
X108714669Y-103651457D01*
X108714665Y-103651455D01*
X108714663Y-103651453D01*
X108714660Y-103651451D01*
X108714657Y-103651450D01*
X108578610Y-103595097D01*
X108578606Y-103595095D01*
X108432600Y-103575874D01*
X108286593Y-103595095D01*
X108286589Y-103595097D01*
X108150542Y-103651450D01*
X108150530Y-103651457D01*
X108033702Y-103741102D01*
X107944057Y-103857930D01*
X107944050Y-103857942D01*
X107887697Y-103993989D01*
X107887695Y-103993993D01*
X107868474Y-104139999D01*
X106202726Y-104139999D01*
X106183504Y-103993993D01*
X106127147Y-103857937D01*
X106094297Y-103815126D01*
X106037497Y-103741102D01*
X105920669Y-103651457D01*
X105920665Y-103651455D01*
X105920663Y-103651453D01*
X105920660Y-103651451D01*
X105920657Y-103651450D01*
X105784610Y-103595097D01*
X105784606Y-103595095D01*
X105638600Y-103575874D01*
X105492593Y-103595095D01*
X105492589Y-103595097D01*
X105356542Y-103651450D01*
X105356530Y-103651457D01*
X105239702Y-103741102D01*
X105150057Y-103857930D01*
X105150050Y-103857942D01*
X105093697Y-103993989D01*
X105093695Y-103993993D01*
X105074474Y-104139999D01*
X103662726Y-104139999D01*
X103643504Y-103993993D01*
X103587147Y-103857937D01*
X103554297Y-103815126D01*
X103497497Y-103741102D01*
X103380669Y-103651457D01*
X103380665Y-103651455D01*
X103380663Y-103651453D01*
X103380660Y-103651451D01*
X103380657Y-103651450D01*
X103244610Y-103595097D01*
X103244606Y-103595095D01*
X103098600Y-103575874D01*
X102952593Y-103595095D01*
X102952589Y-103595097D01*
X102816542Y-103651450D01*
X102816530Y-103651457D01*
X102699702Y-103741102D01*
X102610057Y-103857930D01*
X102610050Y-103857942D01*
X102553697Y-103993989D01*
X102553695Y-103993993D01*
X102534474Y-104139999D01*
X87997300Y-104139999D01*
X87997300Y-103250999D01*
X98876874Y-103250999D01*
X98876874Y-103251000D01*
X98896095Y-103397006D01*
X98896097Y-103397010D01*
X98952450Y-103533057D01*
X98952457Y-103533069D01*
X99042102Y-103649897D01*
X99158930Y-103739542D01*
X99158937Y-103739547D01*
X99294993Y-103795904D01*
X99441000Y-103815126D01*
X99587007Y-103795904D01*
X99723063Y-103739547D01*
X99839897Y-103649897D01*
X99929547Y-103533063D01*
X99985904Y-103397007D01*
X100005126Y-103251000D01*
X99985904Y-103104993D01*
X99929547Y-102968937D01*
X99896697Y-102926126D01*
X99839897Y-102852102D01*
X99723069Y-102762457D01*
X99723065Y-102762455D01*
X99723063Y-102762453D01*
X99723060Y-102762451D01*
X99723057Y-102762450D01*
X99587010Y-102706097D01*
X99587006Y-102706095D01*
X99441000Y-102686874D01*
X99294993Y-102706095D01*
X99294989Y-102706097D01*
X99158942Y-102762450D01*
X99158930Y-102762457D01*
X99042102Y-102852102D01*
X98952457Y-102968930D01*
X98952450Y-102968942D01*
X98896097Y-103104989D01*
X98896095Y-103104993D01*
X98876874Y-103250999D01*
X87997300Y-103250999D01*
X87997300Y-101853999D01*
X92755474Y-101853999D01*
X92755474Y-101854000D01*
X92774695Y-102000006D01*
X92774697Y-102000010D01*
X92831050Y-102136057D01*
X92831057Y-102136069D01*
X92920702Y-102252897D01*
X93037530Y-102342542D01*
X93037537Y-102342547D01*
X93173593Y-102398904D01*
X93319600Y-102418126D01*
X93465607Y-102398904D01*
X93554702Y-102361999D01*
X105963474Y-102361999D01*
X105963474Y-102362000D01*
X105982695Y-102508006D01*
X105982697Y-102508010D01*
X106039050Y-102644057D01*
X106039057Y-102644069D01*
X106128702Y-102760897D01*
X106245530Y-102850542D01*
X106245537Y-102850547D01*
X106381593Y-102906904D01*
X106527600Y-102926126D01*
X106673607Y-102906904D01*
X106809663Y-102850547D01*
X106926497Y-102760897D01*
X107016147Y-102644063D01*
X107072504Y-102508007D01*
X107091726Y-102362000D01*
X107072504Y-102215993D01*
X107016147Y-102079937D01*
X107016142Y-102079930D01*
X106926497Y-101963102D01*
X106809669Y-101873457D01*
X106809665Y-101873455D01*
X106809663Y-101873453D01*
X106809660Y-101873451D01*
X106809657Y-101873450D01*
X106673610Y-101817097D01*
X106673606Y-101817095D01*
X106527600Y-101797874D01*
X106381593Y-101817095D01*
X106381589Y-101817097D01*
X106245542Y-101873450D01*
X106245530Y-101873457D01*
X106128702Y-101963102D01*
X106039057Y-102079930D01*
X106039050Y-102079942D01*
X105982697Y-102215989D01*
X105982695Y-102215993D01*
X105963474Y-102361999D01*
X93554702Y-102361999D01*
X93601663Y-102342547D01*
X93718497Y-102252897D01*
X93808147Y-102136063D01*
X93864504Y-102000007D01*
X93883726Y-101854000D01*
X93878867Y-101817095D01*
X93864504Y-101707993D01*
X93864502Y-101707989D01*
X93808149Y-101571942D01*
X93808147Y-101571937D01*
X93746264Y-101491289D01*
X93718497Y-101455102D01*
X93601669Y-101365457D01*
X93601665Y-101365455D01*
X93601663Y-101365453D01*
X93601660Y-101365451D01*
X93601657Y-101365450D01*
X93465610Y-101309097D01*
X93465606Y-101309095D01*
X93319600Y-101289874D01*
X93173593Y-101309095D01*
X93173589Y-101309097D01*
X93037542Y-101365450D01*
X93037530Y-101365457D01*
X92920702Y-101455102D01*
X92831057Y-101571930D01*
X92831050Y-101571942D01*
X92774697Y-101707989D01*
X92774695Y-101707993D01*
X92755474Y-101853999D01*
X87997300Y-101853999D01*
X87997300Y-98450399D01*
X108101225Y-98450399D01*
X108101225Y-98450400D01*
X108120446Y-98596406D01*
X108120448Y-98596410D01*
X108176801Y-98732457D01*
X108176802Y-98732460D01*
X108176804Y-98732463D01*
X108195749Y-98757153D01*
X108221349Y-98823373D01*
X108207084Y-98892921D01*
X108195752Y-98910555D01*
X108195636Y-98910707D01*
X108180580Y-98930328D01*
X108180576Y-98930335D01*
X108124223Y-99066382D01*
X108124221Y-99066386D01*
X108105000Y-99212392D01*
X108105000Y-99212393D01*
X108124221Y-99358399D01*
X108124223Y-99358403D01*
X108180576Y-99494450D01*
X108180583Y-99494462D01*
X108270228Y-99611290D01*
X108387056Y-99700935D01*
X108387063Y-99700940D01*
X108523119Y-99757297D01*
X108669126Y-99776519D01*
X108815133Y-99757297D01*
X108951189Y-99700940D01*
X109068023Y-99611290D01*
X109157673Y-99494456D01*
X109214030Y-99358400D01*
X109218991Y-99320717D01*
X109697100Y-99320717D01*
X109697100Y-107053170D01*
X109697508Y-107067711D01*
X109698289Y-107081597D01*
X109698290Y-107081613D01*
X109699515Y-107096125D01*
X109714917Y-107232724D01*
X109716303Y-107245009D01*
X109721176Y-107273664D01*
X109721182Y-107273694D01*
X109727365Y-107300769D01*
X109727373Y-107300798D01*
X109735430Y-107328748D01*
X109735442Y-107328785D01*
X109776323Y-107445524D01*
X109782633Y-107463542D01*
X109793786Y-107490445D01*
X109793792Y-107490458D01*
X109793796Y-107490467D01*
X109805839Y-107515455D01*
X109805848Y-107515471D01*
X109819944Y-107540954D01*
X109895857Y-107661658D01*
X109895974Y-107661844D01*
X109895978Y-107661851D01*
X109912831Y-107685579D01*
X109912836Y-107685586D01*
X109930154Y-107707279D01*
X109930170Y-107707299D01*
X109949582Y-107728998D01*
X110050610Y-107829909D01*
X110072332Y-107849298D01*
X110085842Y-107860058D01*
X110094060Y-107866603D01*
X110117832Y-107883446D01*
X110153051Y-107905539D01*
X110153052Y-107905539D01*
X110238805Y-107959332D01*
X110264308Y-107973400D01*
X110280365Y-107981116D01*
X110289346Y-107985432D01*
X110289350Y-107985433D01*
X110289353Y-107985435D01*
X110296381Y-107988339D01*
X110316241Y-107996546D01*
X110316251Y-107996549D01*
X110316262Y-107996554D01*
X110451082Y-108043593D01*
X110479070Y-108051628D01*
X110506167Y-108057785D01*
X110506175Y-108057786D01*
X110506178Y-108057787D01*
X110534877Y-108062633D01*
X110534886Y-108062634D01*
X110683769Y-108079248D01*
X110683785Y-108079249D01*
X110683791Y-108079250D01*
X110698291Y-108080458D01*
X110704254Y-108080785D01*
X110712194Y-108081222D01*
X110726740Y-108081613D01*
X139971543Y-108047979D01*
X140026542Y-108042018D01*
X140026544Y-108042018D01*
X140026546Y-108042017D01*
X140026551Y-108042017D01*
X140077918Y-108030812D01*
X140104562Y-108023494D01*
X140192549Y-107973391D01*
X140245353Y-107927636D01*
X140277472Y-107894349D01*
X140324404Y-107804631D01*
X140344089Y-107737592D01*
X140347081Y-107716781D01*
X140350060Y-107696067D01*
X140379553Y-107631487D01*
X140439280Y-107593104D01*
X140474777Y-107588000D01*
X141923512Y-107588000D01*
X141991633Y-107608002D01*
X142038126Y-107661658D01*
X142048786Y-107700493D01*
X142050560Y-107716948D01*
X142050563Y-107716965D01*
X142061823Y-107768587D01*
X142061825Y-107768595D01*
X142069239Y-107795529D01*
X142119443Y-107883456D01*
X142119444Y-107883458D01*
X142165257Y-107936206D01*
X142198583Y-107968290D01*
X142198588Y-107968294D01*
X142288357Y-108015118D01*
X142288359Y-108015118D01*
X142288362Y-108015120D01*
X142339361Y-108030030D01*
X142355419Y-108034725D01*
X142355420Y-108034725D01*
X142355423Y-108034726D01*
X142428515Y-108045153D01*
X142428520Y-108045152D01*
X142428521Y-108045153D01*
X142429242Y-108045152D01*
X142434215Y-108045147D01*
X142434241Y-108045147D01*
X142534656Y-108045031D01*
X142602798Y-108064955D01*
X142649353Y-108118558D01*
X142659537Y-108188820D01*
X142655990Y-108205509D01*
X142649255Y-108229179D01*
X142649255Y-108229184D01*
X142630369Y-108432995D01*
X142630369Y-108433004D01*
X142649255Y-108636819D01*
X142659364Y-108672347D01*
X142705273Y-108833701D01*
X142796513Y-109016935D01*
X142796514Y-109016936D01*
X142919867Y-109180284D01*
X143071137Y-109318185D01*
X143245167Y-109425940D01*
X143245169Y-109425940D01*
X143245174Y-109425944D01*
X143436045Y-109499888D01*
X143637254Y-109537500D01*
X143637256Y-109537500D01*
X143841946Y-109537500D01*
X143841948Y-109537500D01*
X144043157Y-109499888D01*
X144234028Y-109425944D01*
X144408063Y-109318186D01*
X144559333Y-109180285D01*
X144682689Y-109016935D01*
X144773929Y-108833701D01*
X144829946Y-108636821D01*
X144848833Y-108433000D01*
X144843744Y-108378085D01*
X144829946Y-108229184D01*
X144829946Y-108229180D01*
X144829946Y-108229179D01*
X144822424Y-108202741D01*
X144823019Y-108131749D01*
X144861902Y-108072347D01*
X144926728Y-108043397D01*
X144943459Y-108042260D01*
X145075489Y-108042108D01*
X145143630Y-108062032D01*
X145190184Y-108115634D01*
X145200369Y-108185896D01*
X145196822Y-108202587D01*
X145189255Y-108229183D01*
X145189255Y-108229184D01*
X145170369Y-108432995D01*
X145170369Y-108433004D01*
X145189255Y-108636819D01*
X145199364Y-108672347D01*
X145245273Y-108833701D01*
X145336513Y-109016935D01*
X145336514Y-109016936D01*
X145459867Y-109180284D01*
X145611137Y-109318185D01*
X145785167Y-109425940D01*
X145785169Y-109425940D01*
X145785174Y-109425944D01*
X145976045Y-109499888D01*
X146177254Y-109537500D01*
X146177256Y-109537500D01*
X146381946Y-109537500D01*
X146381948Y-109537500D01*
X146583157Y-109499888D01*
X146774028Y-109425944D01*
X146948063Y-109318186D01*
X147099333Y-109180285D01*
X147222689Y-109016935D01*
X147313929Y-108833701D01*
X147369946Y-108636821D01*
X147388833Y-108433000D01*
X147383744Y-108378085D01*
X147369946Y-108229182D01*
X147369946Y-108229179D01*
X147361593Y-108199821D01*
X147362189Y-108128828D01*
X147401073Y-108069426D01*
X147465900Y-108040476D01*
X147482630Y-108039340D01*
X147616320Y-108039186D01*
X147684461Y-108059110D01*
X147731015Y-108112712D01*
X147741200Y-108182974D01*
X147737653Y-108199664D01*
X147729255Y-108229180D01*
X147729255Y-108229184D01*
X147710369Y-108432995D01*
X147710369Y-108433004D01*
X147729255Y-108636819D01*
X147739364Y-108672347D01*
X147785273Y-108833701D01*
X147876513Y-109016935D01*
X147876514Y-109016936D01*
X147999867Y-109180284D01*
X148151137Y-109318185D01*
X148325167Y-109425940D01*
X148325169Y-109425940D01*
X148325174Y-109425944D01*
X148516045Y-109499888D01*
X148717254Y-109537500D01*
X148717256Y-109537500D01*
X148921946Y-109537500D01*
X148921948Y-109537500D01*
X149123157Y-109499888D01*
X149314028Y-109425944D01*
X149488063Y-109318186D01*
X149639333Y-109180285D01*
X149762689Y-109016935D01*
X149853929Y-108833701D01*
X149909946Y-108636821D01*
X149928833Y-108433000D01*
X149923744Y-108378085D01*
X149909946Y-108229182D01*
X149909946Y-108229179D01*
X149900762Y-108196900D01*
X149901358Y-108125908D01*
X149940242Y-108066506D01*
X150005068Y-108037556D01*
X150021804Y-108036420D01*
X150157150Y-108036264D01*
X150225293Y-108056188D01*
X150271847Y-108109790D01*
X150282032Y-108180052D01*
X150278484Y-108196744D01*
X150269256Y-108229176D01*
X150269255Y-108229184D01*
X150250369Y-108432995D01*
X150250369Y-108433004D01*
X150269255Y-108636819D01*
X150279364Y-108672347D01*
X150325273Y-108833701D01*
X150416513Y-109016935D01*
X150416514Y-109016936D01*
X150539867Y-109180284D01*
X150691137Y-109318185D01*
X150865167Y-109425940D01*
X150865169Y-109425940D01*
X150865174Y-109425944D01*
X151056045Y-109499888D01*
X151257254Y-109537500D01*
X151257256Y-109537500D01*
X151461946Y-109537500D01*
X151461948Y-109537500D01*
X151663157Y-109499888D01*
X151854028Y-109425944D01*
X152028063Y-109318186D01*
X152179333Y-109180285D01*
X152302689Y-109016935D01*
X152393929Y-108833701D01*
X152449946Y-108636821D01*
X152468833Y-108433000D01*
X152463744Y-108378085D01*
X152449946Y-108229184D01*
X152449946Y-108229183D01*
X152449946Y-108229179D01*
X152439931Y-108193980D01*
X152440527Y-108122989D01*
X152479410Y-108063587D01*
X152544236Y-108034636D01*
X152560974Y-108033500D01*
X152697981Y-108033342D01*
X152766123Y-108053266D01*
X152812678Y-108106868D01*
X152822863Y-108177130D01*
X152819316Y-108193821D01*
X152809255Y-108229183D01*
X152809255Y-108229184D01*
X152790369Y-108432995D01*
X152790369Y-108433004D01*
X152809255Y-108636819D01*
X152819364Y-108672347D01*
X152865273Y-108833701D01*
X152956513Y-109016935D01*
X152956514Y-109016936D01*
X153079867Y-109180284D01*
X153231137Y-109318185D01*
X153405167Y-109425940D01*
X153405169Y-109425940D01*
X153405174Y-109425944D01*
X153596045Y-109499888D01*
X153797254Y-109537500D01*
X153797256Y-109537500D01*
X154001946Y-109537500D01*
X154001948Y-109537500D01*
X154203157Y-109499888D01*
X154394028Y-109425944D01*
X154568063Y-109318186D01*
X154719333Y-109180285D01*
X154842689Y-109016935D01*
X154933929Y-108833701D01*
X154989946Y-108636821D01*
X155008833Y-108433000D01*
X155008833Y-108432995D01*
X155330369Y-108432995D01*
X155330369Y-108433004D01*
X155349255Y-108636819D01*
X155359364Y-108672347D01*
X155405273Y-108833701D01*
X155496513Y-109016935D01*
X155496514Y-109016936D01*
X155619867Y-109180284D01*
X155771137Y-109318185D01*
X155945167Y-109425940D01*
X155945169Y-109425940D01*
X155945174Y-109425944D01*
X156136045Y-109499888D01*
X156337254Y-109537500D01*
X156337256Y-109537500D01*
X156541946Y-109537500D01*
X156541948Y-109537500D01*
X156743157Y-109499888D01*
X156934028Y-109425944D01*
X157108063Y-109318186D01*
X157259333Y-109180285D01*
X157382689Y-109016935D01*
X157473929Y-108833701D01*
X157529946Y-108636821D01*
X157548833Y-108433000D01*
X157548833Y-108432995D01*
X157870369Y-108432995D01*
X157870369Y-108433004D01*
X157889255Y-108636819D01*
X157899364Y-108672347D01*
X157945273Y-108833701D01*
X158036513Y-109016935D01*
X158036514Y-109016936D01*
X158159867Y-109180284D01*
X158311137Y-109318185D01*
X158485167Y-109425940D01*
X158485169Y-109425940D01*
X158485174Y-109425944D01*
X158676045Y-109499888D01*
X158877254Y-109537500D01*
X158877256Y-109537500D01*
X159081946Y-109537500D01*
X159081948Y-109537500D01*
X159283157Y-109499888D01*
X159474028Y-109425944D01*
X159648063Y-109318186D01*
X159799333Y-109180285D01*
X159922689Y-109016935D01*
X160013929Y-108833701D01*
X160069946Y-108636821D01*
X160088833Y-108433000D01*
X160088833Y-108432995D01*
X160410369Y-108432995D01*
X160410369Y-108433004D01*
X160429255Y-108636819D01*
X160439364Y-108672347D01*
X160485273Y-108833701D01*
X160576513Y-109016935D01*
X160576514Y-109016936D01*
X160699867Y-109180284D01*
X160851137Y-109318185D01*
X161025167Y-109425940D01*
X161025169Y-109425940D01*
X161025174Y-109425944D01*
X161216045Y-109499888D01*
X161417254Y-109537500D01*
X161417256Y-109537500D01*
X161621946Y-109537500D01*
X161621948Y-109537500D01*
X161823157Y-109499888D01*
X162014028Y-109425944D01*
X162188063Y-109318186D01*
X162339333Y-109180285D01*
X162462689Y-109016935D01*
X162553929Y-108833701D01*
X162609946Y-108636821D01*
X162628833Y-108433000D01*
X162628833Y-108432995D01*
X162950369Y-108432995D01*
X162950369Y-108433004D01*
X162969255Y-108636819D01*
X162979364Y-108672347D01*
X163025273Y-108833701D01*
X163116513Y-109016935D01*
X163116514Y-109016936D01*
X163239867Y-109180284D01*
X163391137Y-109318185D01*
X163565167Y-109425940D01*
X163565169Y-109425940D01*
X163565174Y-109425944D01*
X163756045Y-109499888D01*
X163957254Y-109537500D01*
X163957256Y-109537500D01*
X164161946Y-109537500D01*
X164161948Y-109537500D01*
X164363157Y-109499888D01*
X164554028Y-109425944D01*
X164728063Y-109318186D01*
X164879333Y-109180285D01*
X165002689Y-109016935D01*
X165093929Y-108833701D01*
X165149946Y-108636821D01*
X165168833Y-108433000D01*
X165168833Y-108432995D01*
X165490369Y-108432995D01*
X165490369Y-108433004D01*
X165509255Y-108636819D01*
X165519364Y-108672347D01*
X165565273Y-108833701D01*
X165656513Y-109016935D01*
X165656514Y-109016936D01*
X165779867Y-109180284D01*
X165931137Y-109318185D01*
X166105167Y-109425940D01*
X166105169Y-109425940D01*
X166105174Y-109425944D01*
X166296045Y-109499888D01*
X166497254Y-109537500D01*
X166497256Y-109537500D01*
X166701946Y-109537500D01*
X166701948Y-109537500D01*
X166903157Y-109499888D01*
X167094028Y-109425944D01*
X167268063Y-109318186D01*
X167419333Y-109180285D01*
X167542689Y-109016935D01*
X167633929Y-108833701D01*
X167689946Y-108636821D01*
X167708833Y-108433000D01*
X167703744Y-108378085D01*
X167689946Y-108229180D01*
X167679932Y-108193983D01*
X167633929Y-108032299D01*
X167542689Y-107849065D01*
X167502139Y-107795368D01*
X167419334Y-107685715D01*
X167268064Y-107547814D01*
X167094034Y-107440059D01*
X167094029Y-107440057D01*
X167094028Y-107440056D01*
X166999331Y-107403370D01*
X166903160Y-107366113D01*
X166903161Y-107366113D01*
X166903158Y-107366112D01*
X166903157Y-107366112D01*
X166701948Y-107328500D01*
X166497254Y-107328500D01*
X166296045Y-107366112D01*
X166296040Y-107366113D01*
X166105178Y-107440054D01*
X166105167Y-107440059D01*
X165931137Y-107547814D01*
X165779867Y-107685715D01*
X165656514Y-107849063D01*
X165565272Y-108032301D01*
X165509255Y-108229180D01*
X165490369Y-108432995D01*
X165168833Y-108432995D01*
X165163744Y-108378085D01*
X165149946Y-108229180D01*
X165139932Y-108193983D01*
X165093929Y-108032299D01*
X165002689Y-107849065D01*
X164962139Y-107795368D01*
X164879334Y-107685715D01*
X164728064Y-107547814D01*
X164554034Y-107440059D01*
X164554029Y-107440057D01*
X164554028Y-107440056D01*
X164459331Y-107403370D01*
X164363160Y-107366113D01*
X164363161Y-107366113D01*
X164363158Y-107366112D01*
X164363157Y-107366112D01*
X164161948Y-107328500D01*
X163957254Y-107328500D01*
X163756045Y-107366112D01*
X163756040Y-107366113D01*
X163565178Y-107440054D01*
X163565167Y-107440059D01*
X163391137Y-107547814D01*
X163239867Y-107685715D01*
X163116514Y-107849063D01*
X163025272Y-108032301D01*
X162969255Y-108229180D01*
X162950369Y-108432995D01*
X162628833Y-108432995D01*
X162623744Y-108378085D01*
X162609946Y-108229180D01*
X162599932Y-108193983D01*
X162553929Y-108032299D01*
X162462689Y-107849065D01*
X162422139Y-107795368D01*
X162339334Y-107685715D01*
X162188064Y-107547814D01*
X162014034Y-107440059D01*
X162014029Y-107440057D01*
X162014028Y-107440056D01*
X161919331Y-107403370D01*
X161823160Y-107366113D01*
X161823161Y-107366113D01*
X161823158Y-107366112D01*
X161823157Y-107366112D01*
X161621948Y-107328500D01*
X161417254Y-107328500D01*
X161216045Y-107366112D01*
X161216040Y-107366113D01*
X161025178Y-107440054D01*
X161025167Y-107440059D01*
X160851137Y-107547814D01*
X160699867Y-107685715D01*
X160576514Y-107849063D01*
X160485272Y-108032301D01*
X160429255Y-108229180D01*
X160410369Y-108432995D01*
X160088833Y-108432995D01*
X160083744Y-108378085D01*
X160069946Y-108229180D01*
X160059932Y-108193983D01*
X160013929Y-108032299D01*
X159922689Y-107849065D01*
X159882139Y-107795368D01*
X159799334Y-107685715D01*
X159648064Y-107547814D01*
X159474034Y-107440059D01*
X159474029Y-107440057D01*
X159474028Y-107440056D01*
X159379331Y-107403370D01*
X159283160Y-107366113D01*
X159283161Y-107366113D01*
X159283158Y-107366112D01*
X159283157Y-107366112D01*
X159081948Y-107328500D01*
X158877254Y-107328500D01*
X158676045Y-107366112D01*
X158676040Y-107366113D01*
X158485178Y-107440054D01*
X158485167Y-107440059D01*
X158311137Y-107547814D01*
X158159867Y-107685715D01*
X158036514Y-107849063D01*
X157945272Y-108032301D01*
X157889255Y-108229180D01*
X157870369Y-108432995D01*
X157548833Y-108432995D01*
X157543744Y-108378085D01*
X157529946Y-108229180D01*
X157519932Y-108193983D01*
X157473929Y-108032299D01*
X157382689Y-107849065D01*
X157342139Y-107795368D01*
X157259334Y-107685715D01*
X157108064Y-107547814D01*
X156934034Y-107440059D01*
X156934029Y-107440057D01*
X156934028Y-107440056D01*
X156839331Y-107403370D01*
X156743160Y-107366113D01*
X156743161Y-107366113D01*
X156743158Y-107366112D01*
X156743157Y-107366112D01*
X156541948Y-107328500D01*
X156337254Y-107328500D01*
X156136045Y-107366112D01*
X156136040Y-107366113D01*
X155945178Y-107440054D01*
X155945167Y-107440059D01*
X155771137Y-107547814D01*
X155619867Y-107685715D01*
X155496514Y-107849063D01*
X155405272Y-108032301D01*
X155349255Y-108229180D01*
X155330369Y-108432995D01*
X155008833Y-108432995D01*
X155003744Y-108378085D01*
X154989946Y-108229180D01*
X154979932Y-108193983D01*
X154933929Y-108032299D01*
X154842689Y-107849065D01*
X154802139Y-107795368D01*
X154719334Y-107685715D01*
X154568062Y-107547813D01*
X154568061Y-107547812D01*
X154402860Y-107445524D01*
X154355472Y-107392657D01*
X154344189Y-107322563D01*
X154350569Y-107295910D01*
X154353669Y-107287259D01*
X154361883Y-107259556D01*
X154368238Y-107232724D01*
X154373322Y-107204278D01*
X154391288Y-107056699D01*
X154392635Y-107042308D01*
X154393538Y-107028528D01*
X154394081Y-107014081D01*
X154457749Y-100463999D01*
X185630838Y-100463999D01*
X185651040Y-100733584D01*
X185711195Y-100997136D01*
X185711196Y-100997140D01*
X185762776Y-101128563D01*
X185809960Y-101248787D01*
X185809963Y-101248795D01*
X185945127Y-101482906D01*
X185945129Y-101482909D01*
X185945130Y-101482910D01*
X186113683Y-101694268D01*
X186311855Y-101878145D01*
X186311861Y-101878149D01*
X186535215Y-102030429D01*
X186535223Y-102030434D01*
X186778775Y-102147722D01*
X186778776Y-102147722D01*
X186778784Y-102147726D01*
X187000085Y-102215989D01*
X187037104Y-102227408D01*
X187037111Y-102227410D01*
X187304429Y-102267701D01*
X187304433Y-102267701D01*
X187574763Y-102267701D01*
X187574767Y-102267701D01*
X187842085Y-102227410D01*
X188100412Y-102147726D01*
X188343978Y-102030431D01*
X188567341Y-101878145D01*
X188765513Y-101694268D01*
X188934066Y-101482910D01*
X189001881Y-101365450D01*
X189069232Y-101248795D01*
X189069234Y-101248791D01*
X189168000Y-100997140D01*
X189228156Y-100733581D01*
X189248358Y-100463999D01*
X189228156Y-100194417D01*
X189168000Y-99930858D01*
X189069234Y-99679207D01*
X189069233Y-99679206D01*
X189069232Y-99679202D01*
X188934068Y-99445091D01*
X188927382Y-99436707D01*
X188765513Y-99233730D01*
X188567341Y-99049853D01*
X188560766Y-99045370D01*
X188343980Y-98897568D01*
X188343972Y-98897563D01*
X188100420Y-98780275D01*
X188100415Y-98780273D01*
X188100412Y-98780272D01*
X188000996Y-98749606D01*
X187842091Y-98700589D01*
X187842086Y-98700588D01*
X187842085Y-98700588D01*
X187574767Y-98660297D01*
X187304429Y-98660297D01*
X187037111Y-98700588D01*
X187037110Y-98700588D01*
X187037104Y-98700589D01*
X186820584Y-98767378D01*
X186778784Y-98780272D01*
X186778782Y-98780272D01*
X186778775Y-98780275D01*
X186535223Y-98897563D01*
X186535215Y-98897568D01*
X186311861Y-99049848D01*
X186311856Y-99049852D01*
X186113684Y-99233729D01*
X185945127Y-99445091D01*
X185809963Y-99679202D01*
X185809960Y-99679210D01*
X185711195Y-99930861D01*
X185651040Y-100194413D01*
X185630838Y-100463999D01*
X154457749Y-100463999D01*
X154474062Y-98785746D01*
X154474064Y-98785568D01*
X154474071Y-98784802D01*
X154474088Y-98782750D01*
X154474092Y-98782232D01*
X154474094Y-98781914D01*
X154474095Y-98781765D01*
X154474105Y-98780041D01*
X154474106Y-98779869D01*
X154474108Y-98779485D01*
X154474490Y-98691515D01*
X154474763Y-98628425D01*
X154477683Y-97954549D01*
X154480046Y-97408999D01*
X159430474Y-97408999D01*
X159430474Y-97409000D01*
X159449695Y-97555006D01*
X159449697Y-97555010D01*
X159506050Y-97691057D01*
X159506057Y-97691069D01*
X159595702Y-97807897D01*
X159712530Y-97897542D01*
X159712537Y-97897547D01*
X159848593Y-97953904D01*
X159994600Y-97973126D01*
X160140607Y-97953904D01*
X160276663Y-97897547D01*
X160393497Y-97807897D01*
X160483147Y-97691063D01*
X160500492Y-97649188D01*
X160545040Y-97593909D01*
X160612403Y-97571488D01*
X160681194Y-97589046D01*
X160729573Y-97641009D01*
X160733302Y-97649175D01*
X160746442Y-97680897D01*
X160750652Y-97691061D01*
X160750657Y-97691069D01*
X160840302Y-97807897D01*
X160957130Y-97897542D01*
X160957137Y-97897547D01*
X161093193Y-97953904D01*
X161239200Y-97973126D01*
X161385207Y-97953904D01*
X161521263Y-97897547D01*
X161638097Y-97807897D01*
X161727747Y-97691063D01*
X161784104Y-97555007D01*
X161803326Y-97409000D01*
X161784104Y-97262993D01*
X161727747Y-97126937D01*
X161727742Y-97126930D01*
X161638097Y-97010102D01*
X161521269Y-96920457D01*
X161521265Y-96920455D01*
X161521263Y-96920453D01*
X161521260Y-96920451D01*
X161521257Y-96920450D01*
X161385210Y-96864097D01*
X161385206Y-96864095D01*
X161239200Y-96844874D01*
X161093193Y-96864095D01*
X161093189Y-96864097D01*
X160957142Y-96920450D01*
X160957130Y-96920457D01*
X160840302Y-97010102D01*
X160750657Y-97126930D01*
X160750650Y-97126942D01*
X160733308Y-97168810D01*
X160688760Y-97224091D01*
X160621396Y-97246511D01*
X160552605Y-97228952D01*
X160504227Y-97176990D01*
X160500492Y-97168810D01*
X160483149Y-97126942D01*
X160483147Y-97126937D01*
X160483142Y-97126930D01*
X160393497Y-97010102D01*
X160276669Y-96920457D01*
X160276665Y-96920455D01*
X160276663Y-96920453D01*
X160276660Y-96920451D01*
X160276657Y-96920450D01*
X160140610Y-96864097D01*
X160140606Y-96864095D01*
X159994600Y-96844874D01*
X159848593Y-96864095D01*
X159848589Y-96864097D01*
X159712542Y-96920450D01*
X159712530Y-96920457D01*
X159595702Y-97010102D01*
X159506057Y-97126930D01*
X159506050Y-97126942D01*
X159449697Y-97262989D01*
X159449695Y-97262993D01*
X159430474Y-97408999D01*
X154480046Y-97408999D01*
X154480679Y-97262993D01*
X154484950Y-96277405D01*
X154484949Y-96277400D01*
X154484950Y-96277377D01*
X154484663Y-96265382D01*
X154484602Y-96262806D01*
X154483878Y-96248882D01*
X154482711Y-96234341D01*
X154481341Y-96221728D01*
X154466505Y-96085109D01*
X154466504Y-96085108D01*
X154461729Y-96056322D01*
X154460065Y-96048904D01*
X154455634Y-96029152D01*
X154455631Y-96029140D01*
X154447655Y-96001085D01*
X154447652Y-96001078D01*
X154447649Y-96001065D01*
X154444446Y-95991815D01*
X154444446Y-95991804D01*
X154444444Y-95991805D01*
X154400860Y-95865874D01*
X154400859Y-95865871D01*
X154389781Y-95838881D01*
X154388814Y-95836857D01*
X154377777Y-95813755D01*
X154363737Y-95788174D01*
X154358839Y-95780331D01*
X154313171Y-95707199D01*
X155315674Y-95707199D01*
X155315674Y-95707200D01*
X155334895Y-95853206D01*
X155334897Y-95853210D01*
X155391250Y-95989257D01*
X155391257Y-95989269D01*
X155480902Y-96106097D01*
X155592400Y-96191652D01*
X155597737Y-96195747D01*
X155733793Y-96252104D01*
X155879800Y-96271326D01*
X156025807Y-96252104D01*
X156161863Y-96195747D01*
X156278697Y-96106097D01*
X156350901Y-96011999D01*
X183687474Y-96011999D01*
X183687474Y-96012000D01*
X183706695Y-96158006D01*
X183706697Y-96158010D01*
X183763050Y-96294057D01*
X183763057Y-96294069D01*
X183852702Y-96410897D01*
X183969530Y-96500542D01*
X183969537Y-96500547D01*
X184105593Y-96556904D01*
X184251600Y-96576126D01*
X184397607Y-96556904D01*
X184533663Y-96500547D01*
X184650497Y-96410897D01*
X184740147Y-96294063D01*
X184796504Y-96158007D01*
X184815726Y-96012000D01*
X184815411Y-96009611D01*
X184796504Y-95865993D01*
X184796502Y-95865989D01*
X184796454Y-95865874D01*
X184740147Y-95729937D01*
X184740142Y-95729930D01*
X184650497Y-95613102D01*
X184533669Y-95523457D01*
X184533664Y-95523454D01*
X184533663Y-95523453D01*
X184533660Y-95523451D01*
X184533657Y-95523450D01*
X184397610Y-95467097D01*
X184397606Y-95467095D01*
X184251600Y-95447874D01*
X184105593Y-95467095D01*
X184105589Y-95467097D01*
X183969542Y-95523450D01*
X183969530Y-95523457D01*
X183852702Y-95613102D01*
X183763057Y-95729930D01*
X183763050Y-95729942D01*
X183706697Y-95865989D01*
X183706695Y-95865993D01*
X183687474Y-96011999D01*
X156350901Y-96011999D01*
X156368347Y-95989263D01*
X156400709Y-95911133D01*
X156445255Y-95855855D01*
X156512618Y-95833434D01*
X156565335Y-95842946D01*
X156571993Y-95845704D01*
X156718000Y-95864926D01*
X156864007Y-95845704D01*
X157000063Y-95789347D01*
X157116897Y-95699697D01*
X157206547Y-95582863D01*
X157262904Y-95446807D01*
X157282126Y-95300800D01*
X157279781Y-95282991D01*
X157262904Y-95154793D01*
X157262902Y-95154789D01*
X157258049Y-95143074D01*
X157206547Y-95018737D01*
X157206442Y-95018600D01*
X157116897Y-94901902D01*
X157000069Y-94812257D01*
X157000065Y-94812255D01*
X157000063Y-94812253D01*
X157000060Y-94812251D01*
X157000057Y-94812250D01*
X156864010Y-94755897D01*
X156864006Y-94755895D01*
X156718000Y-94736674D01*
X156571993Y-94755895D01*
X156571989Y-94755897D01*
X156435942Y-94812250D01*
X156435930Y-94812257D01*
X156319102Y-94901902D01*
X156229457Y-95018730D01*
X156229452Y-95018738D01*
X156197090Y-95096865D01*
X156152540Y-95152145D01*
X156085177Y-95174564D01*
X156032467Y-95165054D01*
X156025810Y-95162297D01*
X156025806Y-95162295D01*
X155879800Y-95143074D01*
X155733793Y-95162295D01*
X155733789Y-95162297D01*
X155597742Y-95218650D01*
X155597730Y-95218657D01*
X155480902Y-95308302D01*
X155391257Y-95425130D01*
X155391250Y-95425142D01*
X155334897Y-95561189D01*
X155334895Y-95561193D01*
X155315674Y-95707199D01*
X154313171Y-95707199D01*
X154287952Y-95666813D01*
X154271133Y-95642976D01*
X154271132Y-95642975D01*
X154266409Y-95637022D01*
X154253823Y-95621159D01*
X154234427Y-95599353D01*
X154133470Y-95497958D01*
X154111751Y-95478470D01*
X154104493Y-95472660D01*
X154090024Y-95461076D01*
X154071483Y-95447874D01*
X154066245Y-95444144D01*
X154066238Y-95444139D01*
X154066233Y-95444136D01*
X153952621Y-95372504D01*
X153945208Y-95367830D01*
X153945201Y-95367826D01*
X153919703Y-95353686D01*
X153919693Y-95353681D01*
X153914794Y-95351314D01*
X153894643Y-95341578D01*
X153894636Y-95341575D01*
X153894625Y-95341570D01*
X153867698Y-95330382D01*
X153867688Y-95330378D01*
X153732664Y-95282991D01*
X153704637Y-95274893D01*
X153704628Y-95274890D01*
X153704622Y-95274889D01*
X153704609Y-95274886D01*
X153677505Y-95268682D01*
X153677489Y-95268678D01*
X153648730Y-95263778D01*
X153648719Y-95263777D01*
X153617173Y-95260212D01*
X153551729Y-95232686D01*
X153511556Y-95174149D01*
X153509408Y-95103184D01*
X153545967Y-95042324D01*
X153583102Y-95018602D01*
X153621863Y-95002547D01*
X153738697Y-94912897D01*
X153828347Y-94796063D01*
X153884704Y-94660007D01*
X153903926Y-94514000D01*
X153903496Y-94510737D01*
X153900503Y-94487999D01*
X154350474Y-94487999D01*
X154350474Y-94488000D01*
X154369695Y-94634006D01*
X154369697Y-94634010D01*
X154426050Y-94770057D01*
X154426057Y-94770069D01*
X154515702Y-94886897D01*
X154632530Y-94976542D01*
X154632537Y-94976547D01*
X154768593Y-95032904D01*
X154914600Y-95052126D01*
X155060607Y-95032904D01*
X155196663Y-94976547D01*
X155313497Y-94886897D01*
X155403147Y-94770063D01*
X155459504Y-94634007D01*
X155478726Y-94488000D01*
X155477581Y-94479306D01*
X155468694Y-94411799D01*
X168066474Y-94411799D01*
X168066474Y-94411800D01*
X168085695Y-94557806D01*
X168085697Y-94557810D01*
X168142050Y-94693857D01*
X168142057Y-94693869D01*
X168231702Y-94810697D01*
X168344249Y-94897057D01*
X168348537Y-94900347D01*
X168484593Y-94956704D01*
X168630600Y-94975926D01*
X168776607Y-94956704D01*
X168912663Y-94900347D01*
X169029497Y-94810697D01*
X169082211Y-94741999D01*
X189275474Y-94741999D01*
X189275474Y-94742000D01*
X189294695Y-94888006D01*
X189294697Y-94888010D01*
X189351050Y-95024057D01*
X189351057Y-95024069D01*
X189440702Y-95140897D01*
X189557530Y-95230542D01*
X189557537Y-95230547D01*
X189557542Y-95230549D01*
X189630070Y-95260592D01*
X189685351Y-95305140D01*
X189707771Y-95372504D01*
X189690212Y-95441295D01*
X189638250Y-95489673D01*
X189630070Y-95493408D01*
X189557542Y-95523450D01*
X189557530Y-95523457D01*
X189440702Y-95613102D01*
X189351057Y-95729930D01*
X189351050Y-95729942D01*
X189294697Y-95865989D01*
X189294695Y-95865993D01*
X189275474Y-96011999D01*
X189275474Y-96012000D01*
X189294695Y-96158006D01*
X189294697Y-96158010D01*
X189351050Y-96294057D01*
X189351057Y-96294069D01*
X189440702Y-96410897D01*
X189557530Y-96500542D01*
X189557537Y-96500547D01*
X189557542Y-96500549D01*
X189630070Y-96530592D01*
X189685351Y-96575140D01*
X189707771Y-96642504D01*
X189690212Y-96711295D01*
X189638250Y-96759673D01*
X189630070Y-96763408D01*
X189557542Y-96793450D01*
X189557530Y-96793457D01*
X189440702Y-96883102D01*
X189351057Y-96999930D01*
X189351050Y-96999942D01*
X189294697Y-97135989D01*
X189294695Y-97135993D01*
X189275474Y-97281999D01*
X189275474Y-97282000D01*
X189294695Y-97428006D01*
X189294697Y-97428010D01*
X189351050Y-97564057D01*
X189351057Y-97564069D01*
X189440702Y-97680897D01*
X189557530Y-97770542D01*
X189557537Y-97770547D01*
X189693593Y-97826904D01*
X189839600Y-97846126D01*
X189985607Y-97826904D01*
X190121663Y-97770547D01*
X190238497Y-97680897D01*
X190328147Y-97564063D01*
X190384504Y-97428007D01*
X190403726Y-97282000D01*
X190384504Y-97135993D01*
X190328147Y-96999937D01*
X190296633Y-96958867D01*
X190238497Y-96883102D01*
X190121669Y-96793457D01*
X190121666Y-96793455D01*
X190121663Y-96793453D01*
X190049126Y-96763407D01*
X189993849Y-96718860D01*
X189971428Y-96651497D01*
X189988986Y-96582706D01*
X190040949Y-96534327D01*
X190049106Y-96530601D01*
X190121663Y-96500547D01*
X190238497Y-96410897D01*
X190328147Y-96294063D01*
X190384504Y-96158007D01*
X190387006Y-96138999D01*
X194507874Y-96138999D01*
X194507874Y-96139000D01*
X194527095Y-96285006D01*
X194527097Y-96285010D01*
X194583450Y-96421057D01*
X194583457Y-96421069D01*
X194673102Y-96537897D01*
X194789930Y-96627542D01*
X194789937Y-96627547D01*
X194925993Y-96683904D01*
X195072000Y-96703126D01*
X195218007Y-96683904D01*
X195354063Y-96627547D01*
X195470897Y-96537897D01*
X195560547Y-96421063D01*
X195616904Y-96285007D01*
X195636126Y-96139000D01*
X195634965Y-96130185D01*
X195616904Y-95992993D01*
X195616902Y-95992989D01*
X195615964Y-95990725D01*
X195560547Y-95856937D01*
X195559717Y-95855855D01*
X195470897Y-95740102D01*
X195354069Y-95650457D01*
X195354065Y-95650455D01*
X195354063Y-95650453D01*
X195354060Y-95650451D01*
X195354057Y-95650450D01*
X195218010Y-95594097D01*
X195218006Y-95594095D01*
X195072000Y-95574874D01*
X194925993Y-95594095D01*
X194925989Y-95594097D01*
X194789942Y-95650450D01*
X194789930Y-95650457D01*
X194673102Y-95740102D01*
X194583457Y-95856930D01*
X194583450Y-95856942D01*
X194527097Y-95992989D01*
X194527095Y-95992993D01*
X194507874Y-96138999D01*
X190387006Y-96138999D01*
X190403726Y-96012000D01*
X190403411Y-96009611D01*
X190384504Y-95865993D01*
X190384502Y-95865989D01*
X190384454Y-95865874D01*
X190328147Y-95729937D01*
X190328142Y-95729930D01*
X190238497Y-95613102D01*
X190121669Y-95523457D01*
X190121666Y-95523455D01*
X190121663Y-95523453D01*
X190049126Y-95493407D01*
X189993849Y-95448860D01*
X189971428Y-95381497D01*
X189988986Y-95312706D01*
X190040949Y-95264327D01*
X190049106Y-95260601D01*
X190121663Y-95230547D01*
X190238497Y-95140897D01*
X190328147Y-95024063D01*
X190384504Y-94888007D01*
X190403726Y-94742000D01*
X190397389Y-94693869D01*
X190384504Y-94595993D01*
X190384502Y-94595989D01*
X190368686Y-94557807D01*
X190328147Y-94459937D01*
X190328142Y-94459930D01*
X190238497Y-94343102D01*
X190237054Y-94341995D01*
X201684368Y-94341995D01*
X201684368Y-94342004D01*
X201703254Y-94545819D01*
X201759271Y-94742698D01*
X201759272Y-94742701D01*
X201850512Y-94925935D01*
X201860235Y-94938810D01*
X201973866Y-95089284D01*
X202125136Y-95227185D01*
X202299166Y-95334940D01*
X202299168Y-95334940D01*
X202299173Y-95334944D01*
X202490044Y-95408888D01*
X202691253Y-95446500D01*
X202691255Y-95446500D01*
X202895945Y-95446500D01*
X202895947Y-95446500D01*
X203097156Y-95408888D01*
X203288027Y-95334944D01*
X203462062Y-95227186D01*
X203613332Y-95089285D01*
X203624219Y-95074869D01*
X203655910Y-95032902D01*
X203736688Y-94925935D01*
X203827928Y-94742701D01*
X203883945Y-94545821D01*
X203897291Y-94401795D01*
X203902832Y-94342004D01*
X203902832Y-94341995D01*
X203885336Y-94153187D01*
X203883945Y-94138179D01*
X203827928Y-93941299D01*
X203736688Y-93758065D01*
X203682797Y-93686702D01*
X203613333Y-93594715D01*
X203462063Y-93456814D01*
X203288033Y-93349059D01*
X203288028Y-93349057D01*
X203288027Y-93349056D01*
X203231360Y-93327103D01*
X203097159Y-93275113D01*
X203097160Y-93275113D01*
X203097157Y-93275112D01*
X203097156Y-93275112D01*
X202895947Y-93237500D01*
X202691253Y-93237500D01*
X202490044Y-93275112D01*
X202490039Y-93275113D01*
X202299177Y-93349054D01*
X202299166Y-93349059D01*
X202125136Y-93456814D01*
X201973866Y-93594715D01*
X201850513Y-93758063D01*
X201759271Y-93941301D01*
X201703254Y-94138180D01*
X201684368Y-94341995D01*
X190237054Y-94341995D01*
X190121669Y-94253457D01*
X190121665Y-94253455D01*
X190121663Y-94253453D01*
X190121660Y-94253451D01*
X190121657Y-94253450D01*
X189985610Y-94197097D01*
X189985606Y-94197095D01*
X189839600Y-94177874D01*
X189693593Y-94197095D01*
X189693589Y-94197097D01*
X189557542Y-94253450D01*
X189557530Y-94253457D01*
X189440702Y-94343102D01*
X189351057Y-94459930D01*
X189351050Y-94459942D01*
X189294697Y-94595989D01*
X189294695Y-94595993D01*
X189275474Y-94741999D01*
X169082211Y-94741999D01*
X169119147Y-94693863D01*
X169175504Y-94557807D01*
X169194726Y-94411800D01*
X169175504Y-94265793D01*
X169119147Y-94129737D01*
X169119142Y-94129730D01*
X169029497Y-94012902D01*
X168912669Y-93923257D01*
X168912665Y-93923255D01*
X168912663Y-93923253D01*
X168912660Y-93923251D01*
X168912657Y-93923250D01*
X168776610Y-93866897D01*
X168776606Y-93866895D01*
X168630600Y-93847674D01*
X168484593Y-93866895D01*
X168484589Y-93866897D01*
X168348542Y-93923250D01*
X168348530Y-93923257D01*
X168231702Y-94012902D01*
X168142057Y-94129730D01*
X168142050Y-94129742D01*
X168085697Y-94265789D01*
X168085695Y-94265793D01*
X168066474Y-94411799D01*
X155468694Y-94411799D01*
X155459504Y-94341993D01*
X155459502Y-94341989D01*
X155438329Y-94290874D01*
X155403147Y-94205937D01*
X155396363Y-94197096D01*
X155313497Y-94089102D01*
X155196669Y-93999457D01*
X155196665Y-93999455D01*
X155196663Y-93999453D01*
X155196660Y-93999451D01*
X155196657Y-93999450D01*
X155060610Y-93943097D01*
X155060606Y-93943095D01*
X154914600Y-93923874D01*
X154768593Y-93943095D01*
X154768589Y-93943097D01*
X154632542Y-93999450D01*
X154632530Y-93999457D01*
X154515702Y-94089102D01*
X154426057Y-94205930D01*
X154426050Y-94205942D01*
X154369697Y-94341989D01*
X154369695Y-94341993D01*
X154350474Y-94487999D01*
X153900503Y-94487999D01*
X153884704Y-94367993D01*
X153884702Y-94367989D01*
X153874393Y-94343102D01*
X153828347Y-94231937D01*
X153828342Y-94231930D01*
X153738697Y-94115102D01*
X153621869Y-94025457D01*
X153621865Y-94025455D01*
X153621863Y-94025453D01*
X153621860Y-94025451D01*
X153621857Y-94025450D01*
X153485810Y-93969097D01*
X153485806Y-93969095D01*
X153339800Y-93949874D01*
X153193793Y-93969095D01*
X153193789Y-93969097D01*
X153057742Y-94025450D01*
X153057730Y-94025457D01*
X152940902Y-94115102D01*
X152851257Y-94231930D01*
X152851250Y-94231942D01*
X152794897Y-94367989D01*
X152794895Y-94367993D01*
X152775674Y-94513999D01*
X152775674Y-94514000D01*
X152794895Y-94660006D01*
X152794897Y-94660010D01*
X152851250Y-94796057D01*
X152851257Y-94796069D01*
X152940902Y-94912897D01*
X153057730Y-95002542D01*
X153057737Y-95002547D01*
X153057742Y-95002549D01*
X153064887Y-95006674D01*
X153064073Y-95008082D01*
X153111920Y-95046642D01*
X153134339Y-95114006D01*
X153116779Y-95182797D01*
X153064816Y-95231174D01*
X153008419Y-95244500D01*
X151364358Y-95244500D01*
X151296237Y-95224498D01*
X151249744Y-95170842D01*
X151239436Y-95102053D01*
X151244150Y-95066253D01*
X151248194Y-95035532D01*
X151243851Y-95002547D01*
X151228972Y-94889525D01*
X151228970Y-94889521D01*
X151228342Y-94888006D01*
X151172615Y-94753469D01*
X151172610Y-94753462D01*
X151082965Y-94636634D01*
X150966137Y-94546989D01*
X150966133Y-94546987D01*
X150966131Y-94546985D01*
X150966128Y-94546983D01*
X150966125Y-94546982D01*
X150830078Y-94490629D01*
X150830074Y-94490627D01*
X150684068Y-94471406D01*
X150538061Y-94490627D01*
X150538057Y-94490629D01*
X150402010Y-94546982D01*
X150401998Y-94546989D01*
X150285170Y-94636634D01*
X150195525Y-94753462D01*
X150195518Y-94753474D01*
X150139165Y-94889521D01*
X150139163Y-94889525D01*
X150121452Y-95024063D01*
X150119942Y-95035532D01*
X150123986Y-95066253D01*
X150128700Y-95102053D01*
X150117761Y-95172202D01*
X150070633Y-95225301D01*
X150003778Y-95244500D01*
X148819192Y-95244500D01*
X148810512Y-95244742D01*
X148804724Y-95244904D01*
X148790905Y-95245675D01*
X148776489Y-95246884D01*
X148760397Y-95248687D01*
X148760387Y-95248687D01*
X148760388Y-95248688D01*
X148628487Y-95263470D01*
X148628479Y-95263471D01*
X148599951Y-95268292D01*
X148599933Y-95268295D01*
X148573041Y-95274399D01*
X148573039Y-95274399D01*
X148553639Y-95279957D01*
X148545201Y-95282375D01*
X148545196Y-95282376D01*
X148545191Y-95282378D01*
X148411114Y-95329025D01*
X148384335Y-95340054D01*
X148359449Y-95351968D01*
X148334100Y-95365890D01*
X148334079Y-95365902D01*
X148213686Y-95441050D01*
X148213681Y-95441053D01*
X148213677Y-95441056D01*
X148190022Y-95457722D01*
X148190008Y-95457732D01*
X148168375Y-95474856D01*
X148146714Y-95494061D01*
X148146705Y-95494070D01*
X148045920Y-95594017D01*
X148026532Y-95615518D01*
X148009214Y-95637022D01*
X147992356Y-95660528D01*
X147992338Y-95660554D01*
X147916167Y-95780348D01*
X147902046Y-95805561D01*
X147902037Y-95805578D01*
X147889906Y-95830388D01*
X147889903Y-95830394D01*
X147878657Y-95857074D01*
X147849535Y-95938584D01*
X147830905Y-95990725D01*
X147822707Y-96018461D01*
X147822704Y-96018470D01*
X147822704Y-96018473D01*
X147816838Y-96043349D01*
X147816364Y-96045358D01*
X147811298Y-96073877D01*
X147798403Y-96180858D01*
X147798402Y-96180877D01*
X147797103Y-96191651D01*
X147797103Y-96191652D01*
X147796609Y-96195749D01*
X147793478Y-96221728D01*
X147792152Y-96236086D01*
X147791263Y-96249920D01*
X147790739Y-96264372D01*
X147789430Y-96421063D01*
X147788485Y-96534327D01*
X147788198Y-96568633D01*
X147788180Y-96570794D01*
X147788180Y-96570799D01*
X147774937Y-98156025D01*
X147754366Y-98223976D01*
X147700324Y-98270019D01*
X147648980Y-98280972D01*
X126289824Y-98287504D01*
X126159265Y-98287544D01*
X126159259Y-98287544D01*
X126106724Y-98292935D01*
X126057574Y-98303112D01*
X126033276Y-98309382D01*
X126033275Y-98309383D01*
X125944288Y-98357678D01*
X125944286Y-98357679D01*
X125890556Y-98402351D01*
X125857763Y-98434979D01*
X125809019Y-98523709D01*
X125809015Y-98523720D01*
X125789620Y-98585109D01*
X125750025Y-98644039D01*
X125684856Y-98672208D01*
X125650698Y-98671743D01*
X125574770Y-98660299D01*
X125304432Y-98660299D01*
X125278902Y-98664146D01*
X125228321Y-98671770D01*
X125157981Y-98662143D01*
X125104011Y-98616015D01*
X125086930Y-98576189D01*
X125079431Y-98544501D01*
X125077873Y-98537914D01*
X125027743Y-98449943D01*
X124981972Y-98397153D01*
X124948674Y-98365042D01*
X124858941Y-98318138D01*
X124858938Y-98318137D01*
X124858938Y-98318136D01*
X124800869Y-98301106D01*
X124791896Y-98298474D01*
X124791894Y-98298473D01*
X124791892Y-98298473D01*
X124718785Y-98287985D01*
X124718783Y-98287985D01*
X122565928Y-98288643D01*
X110725219Y-98292264D01*
X110710659Y-98292677D01*
X110696830Y-98293459D01*
X110682330Y-98294687D01*
X110533592Y-98311488D01*
X110504921Y-98316367D01*
X110504918Y-98316367D01*
X110504916Y-98316368D01*
X110477857Y-98322551D01*
X110477850Y-98322552D01*
X110477850Y-98322553D01*
X110449888Y-98330616D01*
X110411994Y-98343887D01*
X110411993Y-98343886D01*
X110315252Y-98377765D01*
X110315227Y-98377775D01*
X110288399Y-98388894D01*
X110288343Y-98388919D01*
X110263365Y-98400954D01*
X110237899Y-98415036D01*
X110237861Y-98415059D01*
X110117138Y-98490947D01*
X110117103Y-98490969D01*
X110093407Y-98507789D01*
X110071696Y-98525108D01*
X110050003Y-98544501D01*
X109949121Y-98645415D01*
X109949116Y-98645420D01*
X109929740Y-98667107D01*
X109912443Y-98688805D01*
X109912427Y-98688826D01*
X109895625Y-98712514D01*
X109895613Y-98712532D01*
X109895613Y-98712533D01*
X109853253Y-98779966D01*
X109819720Y-98833346D01*
X109805640Y-98858826D01*
X109793615Y-98883803D01*
X109793605Y-98883825D01*
X109782479Y-98910693D01*
X109782474Y-98910707D01*
X109735364Y-99045370D01*
X109735361Y-99045377D01*
X109727315Y-99073311D01*
X109727306Y-99073346D01*
X109721145Y-99100346D01*
X109721136Y-99100390D01*
X109716266Y-99129059D01*
X109710396Y-99181169D01*
X109699511Y-99277793D01*
X109698286Y-99292320D01*
X109697507Y-99306208D01*
X109697100Y-99320717D01*
X109218991Y-99320717D01*
X109233252Y-99212393D01*
X109214030Y-99066386D01*
X109157673Y-98930330D01*
X109138728Y-98905640D01*
X109113127Y-98839420D01*
X109127392Y-98769871D01*
X109138723Y-98752238D01*
X109153898Y-98732463D01*
X109210255Y-98596407D01*
X109229477Y-98450400D01*
X109229416Y-98449940D01*
X109210255Y-98304393D01*
X109210253Y-98304389D01*
X109207802Y-98298473D01*
X109153898Y-98168337D01*
X109144451Y-98156025D01*
X109064248Y-98051502D01*
X108947420Y-97961857D01*
X108947416Y-97961855D01*
X108947414Y-97961853D01*
X108947411Y-97961851D01*
X108947408Y-97961850D01*
X108811361Y-97905497D01*
X108811357Y-97905495D01*
X108665351Y-97886274D01*
X108519344Y-97905495D01*
X108519340Y-97905497D01*
X108383293Y-97961850D01*
X108383281Y-97961857D01*
X108266453Y-98051502D01*
X108176808Y-98168330D01*
X108176801Y-98168342D01*
X108120448Y-98304389D01*
X108120446Y-98304393D01*
X108101225Y-98450399D01*
X87997300Y-98450399D01*
X87997300Y-96264670D01*
X95665392Y-96264670D01*
X95665402Y-96334219D01*
X95665402Y-96582087D01*
X95665393Y-96582117D01*
X95665402Y-96661881D01*
X95665402Y-96661883D01*
X95665403Y-96682470D01*
X95665405Y-96682491D01*
X95665408Y-96703873D01*
X95669426Y-96718860D01*
X95701452Y-96838325D01*
X95701453Y-96838327D01*
X95701454Y-96838329D01*
X95771060Y-96958865D01*
X95822305Y-97010102D01*
X95869495Y-97057285D01*
X95869497Y-97057286D01*
X95869501Y-97057289D01*
X95990042Y-97126876D01*
X95990044Y-97126877D01*
X95990046Y-97126878D01*
X96124500Y-97162902D01*
X96124504Y-97162902D01*
X96263697Y-97162902D01*
X96263702Y-97162901D01*
X96297786Y-97153768D01*
X96398151Y-97126879D01*
X96518702Y-97057287D01*
X96617136Y-96958868D01*
X96686747Y-96838328D01*
X96722791Y-96703879D01*
X96722793Y-96687585D01*
X96722801Y-96687513D01*
X96722801Y-96634219D01*
X96722802Y-96627542D01*
X96722808Y-96593763D01*
X96722807Y-96593760D01*
X96722809Y-96580605D01*
X96722800Y-96580509D01*
X96722800Y-96568534D01*
X96722802Y-96568517D01*
X96722802Y-96405879D01*
X96722800Y-96405849D01*
X96722800Y-96319212D01*
X96722808Y-96264670D01*
X96686791Y-96130187D01*
X96617192Y-96009609D01*
X96518754Y-95911157D01*
X96440327Y-95865871D01*
X96398187Y-95841538D01*
X96263710Y-95805503D01*
X96124487Y-95805503D01*
X95990008Y-95841541D01*
X95869443Y-95911158D01*
X95771006Y-96009611D01*
X95701407Y-96130189D01*
X95665392Y-96264670D01*
X87997300Y-96264670D01*
X87997300Y-95554799D01*
X97530674Y-95554799D01*
X97530674Y-95554800D01*
X97549895Y-95700806D01*
X97549897Y-95700810D01*
X97606250Y-95836857D01*
X97606257Y-95836869D01*
X97695902Y-95953697D01*
X97812730Y-96043342D01*
X97812737Y-96043347D01*
X97948793Y-96099704D01*
X98094800Y-96118926D01*
X98240807Y-96099704D01*
X98376863Y-96043347D01*
X98493697Y-95953697D01*
X98583347Y-95836863D01*
X98639704Y-95700807D01*
X98658926Y-95554800D01*
X98639704Y-95408793D01*
X98583347Y-95272737D01*
X98580403Y-95268900D01*
X98493697Y-95155902D01*
X98376869Y-95066257D01*
X98376865Y-95066255D01*
X98376863Y-95066253D01*
X98376860Y-95066251D01*
X98376857Y-95066250D01*
X98240810Y-95009897D01*
X98240806Y-95009895D01*
X98094800Y-94990674D01*
X97948793Y-95009895D01*
X97948789Y-95009897D01*
X97812742Y-95066250D01*
X97812730Y-95066257D01*
X97695902Y-95155902D01*
X97606257Y-95272730D01*
X97606250Y-95272742D01*
X97549897Y-95408789D01*
X97549895Y-95408793D01*
X97530674Y-95554799D01*
X87997300Y-95554799D01*
X87997300Y-93421199D01*
X93568274Y-93421199D01*
X93568274Y-93421200D01*
X93587495Y-93567206D01*
X93587497Y-93567210D01*
X93643850Y-93703257D01*
X93643857Y-93703269D01*
X93733502Y-93820097D01*
X93812955Y-93881063D01*
X93850337Y-93909747D01*
X93986393Y-93966104D01*
X94132400Y-93985326D01*
X94278407Y-93966104D01*
X94414463Y-93909747D01*
X94531297Y-93820097D01*
X94620947Y-93703263D01*
X94677304Y-93567207D01*
X94696526Y-93421200D01*
X94692831Y-93393137D01*
X94677304Y-93275193D01*
X94677302Y-93275189D01*
X94638349Y-93181150D01*
X94620947Y-93139137D01*
X94614163Y-93130296D01*
X94531297Y-93022302D01*
X94414469Y-92932657D01*
X94414465Y-92932655D01*
X94414463Y-92932653D01*
X94414460Y-92932651D01*
X94414457Y-92932650D01*
X94278410Y-92876297D01*
X94278406Y-92876295D01*
X94132400Y-92857074D01*
X93986393Y-92876295D01*
X93986389Y-92876297D01*
X93850342Y-92932650D01*
X93850330Y-92932657D01*
X93733502Y-93022302D01*
X93643857Y-93139130D01*
X93643850Y-93139142D01*
X93587497Y-93275189D01*
X93587495Y-93275193D01*
X93568274Y-93421199D01*
X87997300Y-93421199D01*
X87997300Y-92206324D01*
X95421579Y-92206324D01*
X95421579Y-92206325D01*
X95440800Y-92352331D01*
X95440802Y-92352335D01*
X95497155Y-92488382D01*
X95497162Y-92488394D01*
X95586807Y-92605222D01*
X95698008Y-92690549D01*
X95703642Y-92694872D01*
X95749156Y-92713724D01*
X95804434Y-92758272D01*
X95826855Y-92825635D01*
X95809297Y-92894427D01*
X95757334Y-92942805D01*
X95749157Y-92946539D01*
X95729942Y-92954498D01*
X95729930Y-92954505D01*
X95613102Y-93044150D01*
X95523457Y-93160978D01*
X95523450Y-93160990D01*
X95467097Y-93297037D01*
X95467095Y-93297041D01*
X95447874Y-93443047D01*
X95447874Y-93443048D01*
X95467095Y-93589054D01*
X95467097Y-93589058D01*
X95523450Y-93725105D01*
X95523457Y-93725117D01*
X95613102Y-93841945D01*
X95729930Y-93931590D01*
X95729937Y-93931595D01*
X95865993Y-93987952D01*
X95917052Y-93994674D01*
X95981978Y-94023394D01*
X96021071Y-94082659D01*
X96021917Y-94153650D01*
X95984247Y-94213829D01*
X95920023Y-94244090D01*
X95917056Y-94244517D01*
X95891391Y-94247896D01*
X95891389Y-94247897D01*
X95755342Y-94304250D01*
X95755330Y-94304257D01*
X95638502Y-94393902D01*
X95548857Y-94510730D01*
X95548850Y-94510742D01*
X95492497Y-94646789D01*
X95492495Y-94646793D01*
X95473274Y-94792799D01*
X95473274Y-94792800D01*
X95492495Y-94938806D01*
X95492497Y-94938810D01*
X95548850Y-95074857D01*
X95548857Y-95074869D01*
X95638502Y-95191697D01*
X95755330Y-95281342D01*
X95755337Y-95281347D01*
X95891393Y-95337704D01*
X96037400Y-95356926D01*
X96183407Y-95337704D01*
X96319463Y-95281347D01*
X96436297Y-95191697D01*
X96525947Y-95074863D01*
X96582304Y-94938807D01*
X96601526Y-94792800D01*
X96598533Y-94770069D01*
X96582304Y-94646793D01*
X96582302Y-94646789D01*
X96577007Y-94634007D01*
X96525947Y-94510737D01*
X96510516Y-94490627D01*
X96436297Y-94393902D01*
X96319469Y-94304257D01*
X96319465Y-94304255D01*
X96319463Y-94304253D01*
X96319460Y-94304251D01*
X96319457Y-94304250D01*
X96183410Y-94247897D01*
X96183408Y-94247896D01*
X96183407Y-94247896D01*
X96132346Y-94241173D01*
X96067420Y-94212452D01*
X96028328Y-94153187D01*
X96028081Y-94132399D01*
X97251274Y-94132399D01*
X97251274Y-94132400D01*
X97270495Y-94278406D01*
X97270497Y-94278410D01*
X97326850Y-94414457D01*
X97326857Y-94414469D01*
X97416502Y-94531297D01*
X97533330Y-94620942D01*
X97533337Y-94620947D01*
X97669393Y-94677304D01*
X97815400Y-94696526D01*
X97961407Y-94677304D01*
X98097463Y-94620947D01*
X98214297Y-94531297D01*
X98247521Y-94487999D01*
X105988874Y-94487999D01*
X105988874Y-94488000D01*
X106008095Y-94634006D01*
X106008097Y-94634010D01*
X106064450Y-94770057D01*
X106064457Y-94770069D01*
X106154102Y-94886897D01*
X106270930Y-94976542D01*
X106270937Y-94976547D01*
X106406993Y-95032904D01*
X106553000Y-95052126D01*
X106699007Y-95032904D01*
X106835063Y-94976547D01*
X106951897Y-94886897D01*
X107041547Y-94770063D01*
X107097904Y-94634007D01*
X107117126Y-94488000D01*
X107115981Y-94479306D01*
X107110307Y-94436205D01*
X107100409Y-94361021D01*
X107111348Y-94290874D01*
X107158476Y-94237775D01*
X107226830Y-94218585D01*
X107241777Y-94219654D01*
X107245192Y-94220103D01*
X107245193Y-94220104D01*
X107391200Y-94239326D01*
X107391200Y-94239325D01*
X107393092Y-94239575D01*
X107458019Y-94268297D01*
X107497111Y-94327563D01*
X107501568Y-94380943D01*
X107487474Y-94487999D01*
X107487474Y-94488000D01*
X107506695Y-94634006D01*
X107506697Y-94634010D01*
X107563050Y-94770057D01*
X107563057Y-94770069D01*
X107652702Y-94886897D01*
X107769530Y-94976542D01*
X107769537Y-94976547D01*
X107905593Y-95032904D01*
X108051600Y-95052126D01*
X108197607Y-95032904D01*
X108333663Y-94976547D01*
X108450497Y-94886897D01*
X108540147Y-94770063D01*
X108596504Y-94634007D01*
X108599006Y-94614999D01*
X111551474Y-94614999D01*
X111551474Y-94615000D01*
X111570695Y-94761006D01*
X111570697Y-94761010D01*
X111627050Y-94897057D01*
X111627057Y-94897069D01*
X111692838Y-94982797D01*
X111718438Y-95049017D01*
X111704173Y-95118566D01*
X111692838Y-95136203D01*
X111627057Y-95221930D01*
X111627050Y-95221942D01*
X111570697Y-95357989D01*
X111570695Y-95357993D01*
X111551474Y-95503999D01*
X111551474Y-95504000D01*
X111570695Y-95650006D01*
X111570697Y-95650010D01*
X111627050Y-95786057D01*
X111627057Y-95786069D01*
X111716702Y-95902897D01*
X111833530Y-95992542D01*
X111833537Y-95992547D01*
X111969593Y-96048904D01*
X112115600Y-96068126D01*
X112261607Y-96048904D01*
X112397663Y-95992547D01*
X112514497Y-95902897D01*
X112523637Y-95890984D01*
X112580973Y-95849118D01*
X112651844Y-95844894D01*
X112713747Y-95879657D01*
X112723558Y-95890979D01*
X112732703Y-95902897D01*
X112732704Y-95902898D01*
X112848585Y-95991817D01*
X112849537Y-95992547D01*
X112985593Y-96048904D01*
X113131600Y-96068126D01*
X113277607Y-96048904D01*
X113413663Y-95992547D01*
X113530497Y-95902897D01*
X113539637Y-95890984D01*
X113596973Y-95849118D01*
X113667844Y-95844894D01*
X113729747Y-95879657D01*
X113739558Y-95890979D01*
X113748703Y-95902897D01*
X113748704Y-95902898D01*
X113864585Y-95991817D01*
X113865537Y-95992547D01*
X114001593Y-96048904D01*
X114147600Y-96068126D01*
X114293607Y-96048904D01*
X114429663Y-95992547D01*
X114546497Y-95902897D01*
X114636147Y-95786063D01*
X114692504Y-95650007D01*
X114711726Y-95504000D01*
X114710418Y-95494068D01*
X114692504Y-95357993D01*
X114692502Y-95357989D01*
X114690008Y-95351969D01*
X114636147Y-95221937D01*
X114633630Y-95218657D01*
X114570362Y-95136204D01*
X114544761Y-95069984D01*
X114559026Y-95000435D01*
X114570362Y-94982796D01*
X114632434Y-94901902D01*
X114636147Y-94897063D01*
X114692504Y-94761007D01*
X114711726Y-94615000D01*
X114704196Y-94557807D01*
X114692504Y-94468993D01*
X114692502Y-94468989D01*
X114669916Y-94414463D01*
X114636147Y-94332937D01*
X114636142Y-94332930D01*
X114546497Y-94216102D01*
X114429669Y-94126457D01*
X114429665Y-94126455D01*
X114429663Y-94126453D01*
X114429660Y-94126451D01*
X114429657Y-94126450D01*
X114293610Y-94070097D01*
X114293606Y-94070095D01*
X114147600Y-94050874D01*
X114001593Y-94070095D01*
X114001589Y-94070097D01*
X113865542Y-94126450D01*
X113865530Y-94126457D01*
X113748702Y-94216102D01*
X113739562Y-94228015D01*
X113682224Y-94269882D01*
X113611353Y-94274104D01*
X113549450Y-94239340D01*
X113539638Y-94228015D01*
X113530497Y-94216102D01*
X113413669Y-94126457D01*
X113413665Y-94126455D01*
X113413663Y-94126453D01*
X113413660Y-94126451D01*
X113413657Y-94126450D01*
X113277610Y-94070097D01*
X113277606Y-94070095D01*
X113131600Y-94050874D01*
X112985593Y-94070095D01*
X112985589Y-94070097D01*
X112849542Y-94126450D01*
X112849530Y-94126457D01*
X112732702Y-94216102D01*
X112723562Y-94228015D01*
X112666224Y-94269882D01*
X112595353Y-94274104D01*
X112533450Y-94239340D01*
X112523638Y-94228015D01*
X112514497Y-94216102D01*
X112397669Y-94126457D01*
X112397665Y-94126455D01*
X112397663Y-94126453D01*
X112397660Y-94126451D01*
X112397657Y-94126450D01*
X112261610Y-94070097D01*
X112261606Y-94070095D01*
X112115600Y-94050874D01*
X111969593Y-94070095D01*
X111969589Y-94070097D01*
X111833542Y-94126450D01*
X111833530Y-94126457D01*
X111716702Y-94216102D01*
X111627057Y-94332930D01*
X111627050Y-94332942D01*
X111570697Y-94468989D01*
X111570695Y-94468993D01*
X111551474Y-94614999D01*
X108599006Y-94614999D01*
X108615726Y-94488000D01*
X108614581Y-94479306D01*
X108596504Y-94341993D01*
X108596502Y-94341989D01*
X108575329Y-94290874D01*
X108540147Y-94205937D01*
X108533363Y-94197096D01*
X108450497Y-94089102D01*
X108333669Y-93999457D01*
X108333665Y-93999455D01*
X108333663Y-93999453D01*
X108333660Y-93999451D01*
X108333657Y-93999450D01*
X108197610Y-93943097D01*
X108197607Y-93943096D01*
X108049706Y-93923624D01*
X107984779Y-93894901D01*
X107945688Y-93835636D01*
X107941231Y-93782260D01*
X107955326Y-93675200D01*
X107936104Y-93529193D01*
X107879747Y-93393137D01*
X107845925Y-93349059D01*
X107790097Y-93276302D01*
X107673269Y-93186657D01*
X107673265Y-93186655D01*
X107673263Y-93186653D01*
X107673260Y-93186651D01*
X107673257Y-93186650D01*
X107537210Y-93130297D01*
X107537206Y-93130295D01*
X107391200Y-93111074D01*
X107245193Y-93130295D01*
X107245189Y-93130297D01*
X107109142Y-93186650D01*
X107109130Y-93186657D01*
X106992302Y-93276302D01*
X106902657Y-93393130D01*
X106902650Y-93393142D01*
X106846297Y-93529189D01*
X106846295Y-93529193D01*
X106827074Y-93675199D01*
X106827074Y-93675200D01*
X106843790Y-93802177D01*
X106832850Y-93872326D01*
X106785722Y-93925424D01*
X106717368Y-93944614D01*
X106702422Y-93943545D01*
X106553001Y-93923874D01*
X106553000Y-93923874D01*
X106406993Y-93943095D01*
X106406989Y-93943097D01*
X106270942Y-93999450D01*
X106270930Y-93999457D01*
X106154102Y-94089102D01*
X106064457Y-94205930D01*
X106064450Y-94205942D01*
X106008097Y-94341989D01*
X106008095Y-94341993D01*
X105988874Y-94487999D01*
X98247521Y-94487999D01*
X98303947Y-94414463D01*
X98360304Y-94278407D01*
X98379526Y-94132400D01*
X98379175Y-94129737D01*
X98360304Y-93986393D01*
X98360302Y-93986389D01*
X98353139Y-93969097D01*
X98303947Y-93850337D01*
X98280743Y-93820097D01*
X98214297Y-93733502D01*
X98097469Y-93643857D01*
X98097465Y-93643855D01*
X98097463Y-93643853D01*
X98097460Y-93643851D01*
X98097457Y-93643850D01*
X97961410Y-93587497D01*
X97961406Y-93587495D01*
X97815400Y-93568274D01*
X97669393Y-93587495D01*
X97669389Y-93587497D01*
X97533342Y-93643850D01*
X97533330Y-93643857D01*
X97416502Y-93733502D01*
X97326857Y-93850330D01*
X97326850Y-93850342D01*
X97270497Y-93986389D01*
X97270495Y-93986393D01*
X97251274Y-94132399D01*
X96028081Y-94132399D01*
X96027483Y-94082195D01*
X96065153Y-94022016D01*
X96129378Y-93991757D01*
X96132332Y-93991332D01*
X96158007Y-93987952D01*
X96294063Y-93931595D01*
X96410897Y-93841945D01*
X96500547Y-93725111D01*
X96556904Y-93589055D01*
X96576126Y-93443048D01*
X96573599Y-93423857D01*
X96556904Y-93297041D01*
X96556902Y-93297037D01*
X96553078Y-93287806D01*
X96500547Y-93160985D01*
X96485825Y-93141799D01*
X96410897Y-93044150D01*
X96294069Y-92954505D01*
X96294065Y-92954502D01*
X96294063Y-92954501D01*
X96294060Y-92954500D01*
X96294059Y-92954499D01*
X96248549Y-92935648D01*
X96193269Y-92891099D01*
X96170849Y-92823735D01*
X96188408Y-92754944D01*
X96240371Y-92706567D01*
X96248537Y-92702837D01*
X96267768Y-92694872D01*
X96384602Y-92605222D01*
X96474252Y-92488388D01*
X96530609Y-92352332D01*
X96549831Y-92206325D01*
X96549261Y-92201999D01*
X96530609Y-92060318D01*
X96530607Y-92060314D01*
X96528817Y-92055993D01*
X96505126Y-91998799D01*
X106674674Y-91998799D01*
X106674674Y-91998800D01*
X106693895Y-92144806D01*
X106693897Y-92144810D01*
X106750250Y-92280857D01*
X106750257Y-92280869D01*
X106839902Y-92397697D01*
X106932953Y-92469097D01*
X106956737Y-92487347D01*
X107092793Y-92543704D01*
X107238800Y-92562926D01*
X107384807Y-92543704D01*
X107520863Y-92487347D01*
X107637697Y-92397697D01*
X107727347Y-92280863D01*
X107783704Y-92144807D01*
X107802926Y-91998800D01*
X107799797Y-91975036D01*
X107783704Y-91852793D01*
X107783702Y-91852789D01*
X107764912Y-91807427D01*
X107727347Y-91716737D01*
X107727342Y-91716730D01*
X107637697Y-91599902D01*
X107594817Y-91566999D01*
X114726474Y-91566999D01*
X114726474Y-91567000D01*
X114745695Y-91713006D01*
X114745697Y-91713010D01*
X114802050Y-91849057D01*
X114802057Y-91849069D01*
X114891702Y-91965897D01*
X114997080Y-92046756D01*
X115008537Y-92055547D01*
X115144593Y-92111904D01*
X115290600Y-92131126D01*
X115436607Y-92111904D01*
X115572663Y-92055547D01*
X115689497Y-91965897D01*
X115698637Y-91953984D01*
X115755973Y-91912118D01*
X115826844Y-91907894D01*
X115888747Y-91942657D01*
X115898558Y-91953979D01*
X115907703Y-91965897D01*
X115907704Y-91965898D01*
X115919615Y-91975038D01*
X115961482Y-92032376D01*
X115965704Y-92103247D01*
X115930940Y-92165150D01*
X115919615Y-92174962D01*
X115907702Y-92184102D01*
X115818057Y-92300930D01*
X115818050Y-92300942D01*
X115761697Y-92436989D01*
X115761695Y-92436993D01*
X115742474Y-92582999D01*
X115742474Y-92583000D01*
X115761695Y-92729006D01*
X115761697Y-92729010D01*
X115818050Y-92865057D01*
X115818057Y-92865069D01*
X115907702Y-92981897D01*
X115919615Y-92991038D01*
X115961482Y-93048376D01*
X115965704Y-93119247D01*
X115930940Y-93181150D01*
X115919615Y-93190962D01*
X115907702Y-93200102D01*
X115818057Y-93316930D01*
X115818050Y-93316942D01*
X115761697Y-93452989D01*
X115761695Y-93452993D01*
X115742474Y-93598999D01*
X115742474Y-93599000D01*
X115761695Y-93745006D01*
X115761697Y-93745010D01*
X115818050Y-93881057D01*
X115818057Y-93881069D01*
X115907702Y-93997897D01*
X116024530Y-94087542D01*
X116024537Y-94087547D01*
X116160593Y-94143904D01*
X116306600Y-94163126D01*
X116452607Y-94143904D01*
X116588663Y-94087547D01*
X116705497Y-93997897D01*
X116795147Y-93881063D01*
X116851504Y-93745007D01*
X116854779Y-93720128D01*
X116883501Y-93655202D01*
X116942765Y-93616109D01*
X117013757Y-93615264D01*
X117073936Y-93652933D01*
X117088820Y-93673574D01*
X117135896Y-93755113D01*
X117135898Y-93755116D01*
X117135899Y-93755117D01*
X117138250Y-93758065D01*
X117299857Y-93960714D01*
X117430784Y-94082195D01*
X117492620Y-94139570D01*
X117513272Y-94153650D01*
X117709880Y-94287696D01*
X117709887Y-94287700D01*
X117709890Y-94287702D01*
X117946812Y-94401798D01*
X118164639Y-94468989D01*
X118198085Y-94479306D01*
X118198092Y-94479308D01*
X118458118Y-94518500D01*
X118458122Y-94518500D01*
X118721078Y-94518500D01*
X118721082Y-94518500D01*
X118981108Y-94479308D01*
X119232388Y-94401798D01*
X119469310Y-94287702D01*
X119686580Y-94139570D01*
X119879346Y-93960710D01*
X120043301Y-93755117D01*
X120060112Y-93725999D01*
X182671474Y-93725999D01*
X182671474Y-93726000D01*
X182690695Y-93872006D01*
X182690697Y-93872010D01*
X182747050Y-94008057D01*
X182747057Y-94008069D01*
X182836702Y-94124897D01*
X182952601Y-94213829D01*
X182953537Y-94214547D01*
X183089593Y-94270904D01*
X183235600Y-94290126D01*
X183381607Y-94270904D01*
X183517663Y-94214547D01*
X183634497Y-94124897D01*
X183724147Y-94008063D01*
X183780504Y-93872007D01*
X183799726Y-93726000D01*
X183796733Y-93703269D01*
X183780504Y-93579993D01*
X183780502Y-93579989D01*
X183779730Y-93578126D01*
X183735771Y-93471999D01*
X191307474Y-93471999D01*
X191307474Y-93472000D01*
X191326695Y-93618006D01*
X191326697Y-93618010D01*
X191383050Y-93754057D01*
X191383057Y-93754069D01*
X191472702Y-93870897D01*
X191579812Y-93953085D01*
X191589537Y-93960547D01*
X191725593Y-94016904D01*
X191871600Y-94036126D01*
X192017607Y-94016904D01*
X192153663Y-93960547D01*
X192270497Y-93870897D01*
X192360147Y-93754063D01*
X192416504Y-93618007D01*
X192435726Y-93472000D01*
X192432031Y-93443937D01*
X192416504Y-93325993D01*
X192416502Y-93325989D01*
X192404511Y-93297041D01*
X192360147Y-93189937D01*
X192360142Y-93189930D01*
X192270497Y-93073102D01*
X192153669Y-92983457D01*
X192153665Y-92983455D01*
X192153663Y-92983453D01*
X192153660Y-92983451D01*
X192153657Y-92983450D01*
X192017610Y-92927097D01*
X192017606Y-92927095D01*
X191871600Y-92907874D01*
X191725593Y-92927095D01*
X191725589Y-92927097D01*
X191589542Y-92983450D01*
X191589530Y-92983457D01*
X191472702Y-93073102D01*
X191383057Y-93189930D01*
X191383050Y-93189942D01*
X191326697Y-93325989D01*
X191326695Y-93325993D01*
X191307474Y-93471999D01*
X183735771Y-93471999D01*
X183724147Y-93443937D01*
X183723464Y-93443047D01*
X183634497Y-93327102D01*
X183517669Y-93237457D01*
X183517665Y-93237455D01*
X183517663Y-93237453D01*
X183517660Y-93237451D01*
X183517657Y-93237450D01*
X183381610Y-93181097D01*
X183381606Y-93181095D01*
X183235600Y-93161874D01*
X183089593Y-93181095D01*
X183089589Y-93181097D01*
X182953542Y-93237450D01*
X182953530Y-93237457D01*
X182836702Y-93327102D01*
X182747057Y-93443930D01*
X182747050Y-93443942D01*
X182690697Y-93579989D01*
X182690695Y-93579993D01*
X182671474Y-93725999D01*
X120060112Y-93725999D01*
X120174783Y-93527384D01*
X120270854Y-93282598D01*
X120329369Y-93026228D01*
X120330285Y-93013999D01*
X152877274Y-93013999D01*
X152877274Y-93014000D01*
X152896495Y-93160006D01*
X152896497Y-93160010D01*
X152952850Y-93296057D01*
X152952857Y-93296069D01*
X153042502Y-93412897D01*
X153119527Y-93472000D01*
X153159337Y-93502547D01*
X153295393Y-93558904D01*
X153441400Y-93578126D01*
X153587407Y-93558904D01*
X153723463Y-93502547D01*
X153840297Y-93412897D01*
X153929947Y-93296063D01*
X153986304Y-93160007D01*
X153988701Y-93141799D01*
X165704274Y-93141799D01*
X165704274Y-93141800D01*
X165723495Y-93287806D01*
X165723497Y-93287810D01*
X165779850Y-93423857D01*
X165779857Y-93423869D01*
X165869502Y-93540697D01*
X165970255Y-93618007D01*
X165986337Y-93630347D01*
X166122393Y-93686704D01*
X166268400Y-93705926D01*
X166414407Y-93686704D01*
X166550463Y-93630347D01*
X166667297Y-93540697D01*
X166756947Y-93423863D01*
X166813304Y-93287807D01*
X166832526Y-93141800D01*
X166832175Y-93139137D01*
X166813304Y-92995793D01*
X166813302Y-92995789D01*
X166808192Y-92983453D01*
X166756947Y-92859737D01*
X166729322Y-92823735D01*
X166667297Y-92742902D01*
X166550469Y-92653257D01*
X166550465Y-92653255D01*
X166550463Y-92653253D01*
X166550460Y-92653251D01*
X166550457Y-92653250D01*
X166414410Y-92596897D01*
X166414406Y-92596895D01*
X166268400Y-92577674D01*
X166122393Y-92596895D01*
X166122389Y-92596897D01*
X165986342Y-92653250D01*
X165986330Y-92653257D01*
X165869502Y-92742902D01*
X165779857Y-92859730D01*
X165779850Y-92859742D01*
X165723497Y-92995789D01*
X165723495Y-92995793D01*
X165704274Y-93141799D01*
X153988701Y-93141799D01*
X154005526Y-93014000D01*
X154003128Y-92995789D01*
X153986304Y-92867993D01*
X153986302Y-92867989D01*
X153985092Y-92865069D01*
X153929947Y-92731937D01*
X153927698Y-92729006D01*
X153840297Y-92615102D01*
X153723469Y-92525457D01*
X153723465Y-92525455D01*
X153723463Y-92525453D01*
X153723460Y-92525451D01*
X153723457Y-92525450D01*
X153587410Y-92469097D01*
X153587406Y-92469095D01*
X153441400Y-92449874D01*
X153295393Y-92469095D01*
X153295389Y-92469097D01*
X153159342Y-92525450D01*
X153159330Y-92525457D01*
X153042502Y-92615102D01*
X152952857Y-92731930D01*
X152952850Y-92731942D01*
X152896497Y-92867989D01*
X152896495Y-92867993D01*
X152877274Y-93013999D01*
X120330285Y-93013999D01*
X120349020Y-92764000D01*
X120329369Y-92501772D01*
X120270854Y-92245402D01*
X120264118Y-92228238D01*
X120174786Y-92000622D01*
X120174784Y-92000618D01*
X120173734Y-91998800D01*
X120060748Y-91803102D01*
X120043303Y-91772886D01*
X119995904Y-91713450D01*
X119879346Y-91567290D01*
X119879345Y-91567289D01*
X119879342Y-91567285D01*
X119714137Y-91413999D01*
X158767225Y-91413999D01*
X158767225Y-91414000D01*
X158786446Y-91560006D01*
X158786448Y-91560010D01*
X158842801Y-91696057D01*
X158842802Y-91696059D01*
X158842804Y-91696063D01*
X158873788Y-91736443D01*
X158899389Y-91802661D01*
X158885125Y-91872210D01*
X158873792Y-91889845D01*
X158871058Y-91893407D01*
X158871050Y-91893421D01*
X158814697Y-92029468D01*
X158814695Y-92029472D01*
X158795474Y-92175478D01*
X158795474Y-92175479D01*
X158814695Y-92321485D01*
X158814697Y-92321489D01*
X158871050Y-92457536D01*
X158871057Y-92457548D01*
X158960702Y-92574376D01*
X159077530Y-92664021D01*
X159077537Y-92664026D01*
X159213593Y-92720383D01*
X159359600Y-92739605D01*
X159505607Y-92720383D01*
X159641663Y-92664026D01*
X159758497Y-92574376D01*
X159848147Y-92457542D01*
X159904504Y-92321486D01*
X159920235Y-92201999D01*
X189275474Y-92201999D01*
X189275474Y-92202000D01*
X189294695Y-92348006D01*
X189294697Y-92348010D01*
X189351050Y-92484057D01*
X189351057Y-92484069D01*
X189440702Y-92600897D01*
X189557530Y-92690542D01*
X189557537Y-92690547D01*
X189693593Y-92746904D01*
X189839600Y-92766126D01*
X189985607Y-92746904D01*
X190121663Y-92690547D01*
X190238497Y-92600897D01*
X190328147Y-92484063D01*
X190384504Y-92348007D01*
X190403726Y-92202000D01*
X190400234Y-92175479D01*
X190384504Y-92055993D01*
X190384502Y-92055989D01*
X190361568Y-92000623D01*
X190328147Y-91919937D01*
X190328142Y-91919930D01*
X190238497Y-91803102D01*
X190237054Y-91801995D01*
X201684368Y-91801995D01*
X201684368Y-91802004D01*
X201703254Y-92005819D01*
X201759271Y-92202698D01*
X201759272Y-92202701D01*
X201850512Y-92385935D01*
X201850513Y-92385936D01*
X201973866Y-92549284D01*
X202125136Y-92687185D01*
X202299166Y-92794940D01*
X202299168Y-92794940D01*
X202299173Y-92794944D01*
X202490044Y-92868888D01*
X202691253Y-92906500D01*
X202691255Y-92906500D01*
X202895945Y-92906500D01*
X202895947Y-92906500D01*
X203097156Y-92868888D01*
X203288027Y-92794944D01*
X203462062Y-92687186D01*
X203613332Y-92549285D01*
X203736688Y-92385935D01*
X203827928Y-92202701D01*
X203883945Y-92005821D01*
X203892944Y-91908704D01*
X203902832Y-91802004D01*
X203902832Y-91801995D01*
X203883945Y-91598180D01*
X203875074Y-91567000D01*
X203827928Y-91401299D01*
X203736688Y-91218065D01*
X203671651Y-91131942D01*
X203613333Y-91054715D01*
X203462063Y-90916814D01*
X203288033Y-90809059D01*
X203288028Y-90809057D01*
X203288027Y-90809056D01*
X203288022Y-90809054D01*
X203097159Y-90735113D01*
X203097160Y-90735113D01*
X203097157Y-90735112D01*
X203097156Y-90735112D01*
X202895947Y-90697500D01*
X202691253Y-90697500D01*
X202495319Y-90734126D01*
X202490039Y-90735113D01*
X202299177Y-90809054D01*
X202299166Y-90809059D01*
X202125136Y-90916814D01*
X201973866Y-91054715D01*
X201850513Y-91218063D01*
X201759271Y-91401301D01*
X201703254Y-91598180D01*
X201684368Y-91801995D01*
X190237054Y-91801995D01*
X190121669Y-91713457D01*
X190121665Y-91713455D01*
X190121663Y-91713453D01*
X190121660Y-91713451D01*
X190121657Y-91713450D01*
X189985610Y-91657097D01*
X189985606Y-91657095D01*
X189839600Y-91637874D01*
X189693593Y-91657095D01*
X189693589Y-91657097D01*
X189557542Y-91713450D01*
X189557530Y-91713457D01*
X189440702Y-91803102D01*
X189351057Y-91919930D01*
X189351050Y-91919942D01*
X189294697Y-92055989D01*
X189294695Y-92055993D01*
X189275474Y-92201999D01*
X159920235Y-92201999D01*
X159923726Y-92175479D01*
X159904504Y-92029472D01*
X159848147Y-91893416D01*
X159817162Y-91853035D01*
X159791561Y-91786815D01*
X159805826Y-91717266D01*
X159817163Y-91699626D01*
X159819898Y-91696063D01*
X159876255Y-91560007D01*
X159895477Y-91414000D01*
X159876255Y-91267993D01*
X159842292Y-91185999D01*
X178785274Y-91185999D01*
X178785274Y-91186000D01*
X178804495Y-91332006D01*
X178804497Y-91332010D01*
X178860850Y-91468057D01*
X178860857Y-91468069D01*
X178950502Y-91584897D01*
X179050232Y-91661422D01*
X179067337Y-91674547D01*
X179203393Y-91730904D01*
X179349400Y-91750126D01*
X179495407Y-91730904D01*
X179631463Y-91674547D01*
X179748297Y-91584897D01*
X179837947Y-91468063D01*
X179894304Y-91332007D01*
X179913526Y-91186000D01*
X179913526Y-91185999D01*
X182671474Y-91185999D01*
X182671474Y-91186000D01*
X182690695Y-91332006D01*
X182690697Y-91332010D01*
X182747050Y-91468057D01*
X182747057Y-91468069D01*
X182836702Y-91584897D01*
X182936432Y-91661422D01*
X182953537Y-91674547D01*
X183089593Y-91730904D01*
X183235600Y-91750126D01*
X183381607Y-91730904D01*
X183517663Y-91674547D01*
X183634497Y-91584897D01*
X183724147Y-91468063D01*
X183780504Y-91332007D01*
X183799726Y-91186000D01*
X183780504Y-91039993D01*
X183724147Y-90903937D01*
X183724142Y-90903930D01*
X183634497Y-90787102D01*
X183517669Y-90697457D01*
X183517665Y-90697455D01*
X183517663Y-90697453D01*
X183517660Y-90697451D01*
X183517657Y-90697450D01*
X183381610Y-90641097D01*
X183381606Y-90641095D01*
X183235600Y-90621874D01*
X183089593Y-90641095D01*
X183089589Y-90641097D01*
X182953542Y-90697450D01*
X182953530Y-90697457D01*
X182836702Y-90787102D01*
X182747057Y-90903930D01*
X182747050Y-90903942D01*
X182690697Y-91039989D01*
X182690695Y-91039993D01*
X182671474Y-91185999D01*
X179913526Y-91185999D01*
X179894304Y-91039993D01*
X179837947Y-90903937D01*
X179837942Y-90903930D01*
X179748297Y-90787102D01*
X179631469Y-90697457D01*
X179631465Y-90697455D01*
X179631463Y-90697453D01*
X179631460Y-90697451D01*
X179631457Y-90697450D01*
X179495410Y-90641097D01*
X179495406Y-90641095D01*
X179349400Y-90621874D01*
X179203393Y-90641095D01*
X179203389Y-90641097D01*
X179067342Y-90697450D01*
X179067330Y-90697457D01*
X178950502Y-90787102D01*
X178860857Y-90903930D01*
X178860850Y-90903942D01*
X178804497Y-91039989D01*
X178804495Y-91039993D01*
X178785274Y-91185999D01*
X159842292Y-91185999D01*
X159819898Y-91131937D01*
X159815499Y-91126204D01*
X159730248Y-91015102D01*
X159613420Y-90925457D01*
X159613416Y-90925455D01*
X159613414Y-90925453D01*
X159613411Y-90925451D01*
X159613408Y-90925450D01*
X159477361Y-90869097D01*
X159477357Y-90869095D01*
X159331351Y-90849874D01*
X159185344Y-90869095D01*
X159185340Y-90869097D01*
X159049293Y-90925450D01*
X159049281Y-90925457D01*
X158932453Y-91015102D01*
X158842808Y-91131930D01*
X158842801Y-91131942D01*
X158786448Y-91267989D01*
X158786446Y-91267993D01*
X158767225Y-91413999D01*
X119714137Y-91413999D01*
X119686580Y-91388430D01*
X119686573Y-91388425D01*
X119469319Y-91240303D01*
X119469312Y-91240299D01*
X119232393Y-91126204D01*
X119232390Y-91126203D01*
X119232388Y-91126202D01*
X119144496Y-91099090D01*
X118981114Y-91048693D01*
X118981109Y-91048692D01*
X118981108Y-91048692D01*
X118721082Y-91009500D01*
X118458118Y-91009500D01*
X118198092Y-91048692D01*
X118198091Y-91048692D01*
X118198085Y-91048693D01*
X117946806Y-91126204D01*
X117709887Y-91240299D01*
X117709880Y-91240303D01*
X117492626Y-91388425D01*
X117492614Y-91388435D01*
X117299857Y-91567285D01*
X117135896Y-91772886D01*
X117004415Y-92000618D01*
X117004413Y-92000623D01*
X116937100Y-92172134D01*
X116893593Y-92228238D01*
X116826661Y-92251915D01*
X116757553Y-92235646D01*
X116719848Y-92202806D01*
X116705497Y-92184103D01*
X116693584Y-92174962D01*
X116651718Y-92117627D01*
X116647494Y-92046756D01*
X116682257Y-91984853D01*
X116693584Y-91975038D01*
X116705497Y-91965897D01*
X116795147Y-91849063D01*
X116851504Y-91713007D01*
X116870726Y-91567000D01*
X116863196Y-91509807D01*
X116851504Y-91420993D01*
X116851502Y-91420989D01*
X116838013Y-91388425D01*
X116795147Y-91284937D01*
X116795142Y-91284930D01*
X116705497Y-91168102D01*
X116588669Y-91078457D01*
X116588665Y-91078455D01*
X116588663Y-91078453D01*
X116588660Y-91078451D01*
X116588657Y-91078450D01*
X116452610Y-91022097D01*
X116452606Y-91022095D01*
X116306600Y-91002874D01*
X116160593Y-91022095D01*
X116160589Y-91022097D01*
X116024542Y-91078450D01*
X116024530Y-91078457D01*
X115907702Y-91168102D01*
X115898562Y-91180015D01*
X115841224Y-91221882D01*
X115770353Y-91226104D01*
X115708450Y-91191340D01*
X115698638Y-91180015D01*
X115689497Y-91168102D01*
X115572669Y-91078457D01*
X115572665Y-91078455D01*
X115572663Y-91078453D01*
X115572660Y-91078451D01*
X115572657Y-91078450D01*
X115436610Y-91022097D01*
X115436606Y-91022095D01*
X115290600Y-91002874D01*
X115144593Y-91022095D01*
X115144589Y-91022097D01*
X115008542Y-91078450D01*
X115008530Y-91078457D01*
X114891702Y-91168102D01*
X114802057Y-91284930D01*
X114802050Y-91284942D01*
X114745697Y-91420989D01*
X114745695Y-91420993D01*
X114726474Y-91566999D01*
X107594817Y-91566999D01*
X107520869Y-91510257D01*
X107520865Y-91510255D01*
X107520863Y-91510253D01*
X107520860Y-91510251D01*
X107520857Y-91510250D01*
X107384810Y-91453897D01*
X107384806Y-91453895D01*
X107238800Y-91434674D01*
X107092793Y-91453895D01*
X107092789Y-91453897D01*
X106956742Y-91510250D01*
X106956730Y-91510257D01*
X106839902Y-91599902D01*
X106750257Y-91716730D01*
X106750250Y-91716742D01*
X106693897Y-91852789D01*
X106693895Y-91852793D01*
X106674674Y-91998799D01*
X96505126Y-91998799D01*
X96474252Y-91924262D01*
X96474247Y-91924255D01*
X96384602Y-91807427D01*
X96267774Y-91717782D01*
X96267770Y-91717780D01*
X96267768Y-91717778D01*
X96267765Y-91717776D01*
X96267762Y-91717775D01*
X96131715Y-91661422D01*
X96131711Y-91661420D01*
X95985705Y-91642199D01*
X95839698Y-91661420D01*
X95839694Y-91661422D01*
X95703647Y-91717775D01*
X95703635Y-91717782D01*
X95586807Y-91807427D01*
X95497162Y-91924255D01*
X95497155Y-91924267D01*
X95440802Y-92060314D01*
X95440800Y-92060318D01*
X95421579Y-92206324D01*
X87997300Y-92206324D01*
X87997300Y-91363799D01*
X93619074Y-91363799D01*
X93619074Y-91363800D01*
X93638295Y-91509806D01*
X93638297Y-91509810D01*
X93694650Y-91645857D01*
X93694657Y-91645869D01*
X93784302Y-91762697D01*
X93896849Y-91849057D01*
X93901137Y-91852347D01*
X94037193Y-91908704D01*
X94183200Y-91927926D01*
X94329207Y-91908704D01*
X94465263Y-91852347D01*
X94582097Y-91762697D01*
X94671747Y-91645863D01*
X94728104Y-91509807D01*
X94747326Y-91363800D01*
X94743140Y-91332007D01*
X94728104Y-91217793D01*
X94728102Y-91217789D01*
X94717146Y-91191340D01*
X94671747Y-91081737D01*
X94671742Y-91081730D01*
X94582097Y-90964902D01*
X94465269Y-90875257D01*
X94465265Y-90875255D01*
X94465263Y-90875253D01*
X94465260Y-90875251D01*
X94465257Y-90875250D01*
X94329210Y-90818897D01*
X94329206Y-90818895D01*
X94183200Y-90799674D01*
X94037193Y-90818895D01*
X94037189Y-90818897D01*
X93901142Y-90875250D01*
X93901130Y-90875257D01*
X93784302Y-90964902D01*
X93694657Y-91081730D01*
X93694650Y-91081742D01*
X93638297Y-91217789D01*
X93638295Y-91217793D01*
X93619074Y-91363799D01*
X87997300Y-91363799D01*
X87997300Y-90703399D01*
X95447874Y-90703399D01*
X95447874Y-90703400D01*
X95467095Y-90849406D01*
X95467097Y-90849410D01*
X95523450Y-90985457D01*
X95523457Y-90985469D01*
X95613102Y-91102297D01*
X95729930Y-91191942D01*
X95729937Y-91191947D01*
X95865993Y-91248304D01*
X96012000Y-91267526D01*
X96158007Y-91248304D01*
X96294063Y-91191947D01*
X96410897Y-91102297D01*
X96500547Y-90985463D01*
X96556904Y-90849407D01*
X96576126Y-90703400D01*
X96567923Y-90641095D01*
X96556904Y-90557393D01*
X96556902Y-90557389D01*
X96500549Y-90421342D01*
X96500547Y-90421337D01*
X96500542Y-90421330D01*
X96410897Y-90304502D01*
X96294069Y-90214857D01*
X96294065Y-90214855D01*
X96294063Y-90214853D01*
X96294060Y-90214851D01*
X96294057Y-90214850D01*
X96185778Y-90169999D01*
X149905474Y-90169999D01*
X149905474Y-90170000D01*
X149924695Y-90316006D01*
X149924697Y-90316010D01*
X149981050Y-90452057D01*
X149981057Y-90452069D01*
X150070702Y-90568897D01*
X150187530Y-90658542D01*
X150187537Y-90658547D01*
X150323593Y-90714904D01*
X150469600Y-90734126D01*
X150615607Y-90714904D01*
X150751663Y-90658547D01*
X150868497Y-90568897D01*
X150958147Y-90452063D01*
X151014504Y-90316007D01*
X151033726Y-90170000D01*
X151033726Y-90169999D01*
X189275474Y-90169999D01*
X189275474Y-90170000D01*
X189294695Y-90316006D01*
X189294697Y-90316010D01*
X189351050Y-90452057D01*
X189351057Y-90452069D01*
X189440702Y-90568897D01*
X189557530Y-90658542D01*
X189557537Y-90658547D01*
X189693593Y-90714904D01*
X189839600Y-90734126D01*
X189985607Y-90714904D01*
X190121663Y-90658547D01*
X190238497Y-90568897D01*
X190328147Y-90452063D01*
X190384504Y-90316007D01*
X190403726Y-90170000D01*
X190402211Y-90158496D01*
X190384504Y-90023993D01*
X190384502Y-90023989D01*
X190328149Y-89887942D01*
X190328147Y-89887937D01*
X190328142Y-89887930D01*
X190238497Y-89771102D01*
X190121669Y-89681457D01*
X190121665Y-89681455D01*
X190121663Y-89681453D01*
X190121660Y-89681451D01*
X190121657Y-89681450D01*
X189985610Y-89625097D01*
X189985606Y-89625095D01*
X189839600Y-89605874D01*
X189693593Y-89625095D01*
X189693589Y-89625097D01*
X189557542Y-89681450D01*
X189557530Y-89681457D01*
X189440702Y-89771102D01*
X189351057Y-89887930D01*
X189351050Y-89887942D01*
X189294697Y-90023989D01*
X189294695Y-90023993D01*
X189275474Y-90169999D01*
X151033726Y-90169999D01*
X151032211Y-90158496D01*
X151014504Y-90023993D01*
X151014502Y-90023989D01*
X150958149Y-89887942D01*
X150958147Y-89887937D01*
X150958142Y-89887930D01*
X150868497Y-89771102D01*
X150751669Y-89681457D01*
X150751665Y-89681455D01*
X150751663Y-89681453D01*
X150751660Y-89681451D01*
X150751657Y-89681450D01*
X150615610Y-89625097D01*
X150615606Y-89625095D01*
X150469600Y-89605874D01*
X150323593Y-89625095D01*
X150323589Y-89625097D01*
X150187542Y-89681450D01*
X150187530Y-89681457D01*
X150070702Y-89771102D01*
X149981057Y-89887930D01*
X149981050Y-89887942D01*
X149924697Y-90023989D01*
X149924695Y-90023993D01*
X149905474Y-90169999D01*
X96185778Y-90169999D01*
X96158010Y-90158497D01*
X96158006Y-90158495D01*
X96012000Y-90139274D01*
X95865993Y-90158495D01*
X95865989Y-90158497D01*
X95729942Y-90214850D01*
X95729930Y-90214857D01*
X95613102Y-90304502D01*
X95523457Y-90421330D01*
X95523450Y-90421342D01*
X95467097Y-90557389D01*
X95467095Y-90557393D01*
X95447874Y-90703399D01*
X87997300Y-90703399D01*
X87997300Y-89355498D01*
X95652901Y-89355498D01*
X95689785Y-89493149D01*
X95761031Y-89616551D01*
X95761039Y-89616561D01*
X95861790Y-89717312D01*
X95861795Y-89717316D01*
X95861797Y-89717318D01*
X95861798Y-89717319D01*
X95861800Y-89717320D01*
X95985202Y-89788566D01*
X95985204Y-89788566D01*
X95985207Y-89788568D01*
X96122852Y-89825450D01*
X96122854Y-89825450D01*
X96265350Y-89825450D01*
X96265352Y-89825450D01*
X96402997Y-89788568D01*
X96403000Y-89788566D01*
X96403001Y-89788566D01*
X96523928Y-89718749D01*
X96526407Y-89717318D01*
X96627170Y-89616555D01*
X96687379Y-89512269D01*
X96698418Y-89493149D01*
X96698418Y-89493148D01*
X96698420Y-89493145D01*
X96735302Y-89355500D01*
X96735302Y-89230199D01*
X115082074Y-89230199D01*
X115082074Y-89230200D01*
X115101295Y-89376206D01*
X115101297Y-89376210D01*
X115157650Y-89512257D01*
X115157657Y-89512269D01*
X115247302Y-89629097D01*
X115362277Y-89717320D01*
X115364137Y-89718747D01*
X115500193Y-89775104D01*
X115646200Y-89794326D01*
X115792207Y-89775104D01*
X115928263Y-89718747D01*
X116045097Y-89629097D01*
X116134747Y-89512263D01*
X116191104Y-89376207D01*
X116210326Y-89230200D01*
X116203989Y-89182069D01*
X116191104Y-89084193D01*
X116191102Y-89084189D01*
X116175286Y-89046007D01*
X116134747Y-88948137D01*
X116102375Y-88905949D01*
X116045097Y-88831302D01*
X115979680Y-88781106D01*
X115937813Y-88723768D01*
X115933591Y-88652897D01*
X115968355Y-88590994D01*
X115979674Y-88581186D01*
X116070497Y-88511496D01*
X116160147Y-88394662D01*
X116216504Y-88258606D01*
X116229038Y-88163399D01*
X118104674Y-88163399D01*
X118104674Y-88163400D01*
X118123895Y-88309406D01*
X118123897Y-88309410D01*
X118180250Y-88445457D01*
X118180251Y-88445459D01*
X118180253Y-88445463D01*
X118190251Y-88458493D01*
X118265528Y-88556597D01*
X118291128Y-88622817D01*
X118276863Y-88692366D01*
X118265528Y-88710003D01*
X118180257Y-88821131D01*
X118180250Y-88821142D01*
X118123897Y-88957189D01*
X118123895Y-88957193D01*
X118104674Y-89103199D01*
X118104674Y-89103200D01*
X118123895Y-89249206D01*
X118123897Y-89249210D01*
X118180250Y-89385257D01*
X118180257Y-89385269D01*
X118269902Y-89502097D01*
X118386730Y-89591742D01*
X118386737Y-89591747D01*
X118522793Y-89648104D01*
X118668800Y-89667326D01*
X118814807Y-89648104D01*
X118950863Y-89591747D01*
X119067697Y-89502097D01*
X119157347Y-89385263D01*
X119213704Y-89249207D01*
X119232926Y-89103200D01*
X119225396Y-89046007D01*
X119213704Y-88957193D01*
X119213702Y-88957189D01*
X119190013Y-88900000D01*
X119157347Y-88821137D01*
X119157343Y-88821132D01*
X119157342Y-88821130D01*
X119072072Y-88710004D01*
X119046471Y-88643784D01*
X119060736Y-88574235D01*
X119072072Y-88556596D01*
X119118033Y-88496697D01*
X119157347Y-88445463D01*
X119213704Y-88309407D01*
X119219550Y-88264999D01*
X148533874Y-88264999D01*
X148533874Y-88265000D01*
X148553095Y-88411006D01*
X148553097Y-88411010D01*
X148609450Y-88547057D01*
X148609457Y-88547069D01*
X148699102Y-88663897D01*
X148777128Y-88723768D01*
X148815937Y-88753547D01*
X148951993Y-88809904D01*
X149098000Y-88829126D01*
X149244007Y-88809904D01*
X149380063Y-88753547D01*
X149496897Y-88663897D01*
X149586547Y-88547063D01*
X149640256Y-88417399D01*
X150388074Y-88417399D01*
X150388074Y-88417400D01*
X150407295Y-88563406D01*
X150407297Y-88563410D01*
X150463650Y-88699457D01*
X150463657Y-88699469D01*
X150553302Y-88816297D01*
X150670130Y-88905942D01*
X150670137Y-88905947D01*
X150806193Y-88962304D01*
X150952200Y-88981526D01*
X151098207Y-88962304D01*
X151234263Y-88905947D01*
X151351097Y-88816297D01*
X151440747Y-88699463D01*
X151497104Y-88563407D01*
X151516326Y-88417400D01*
X151516326Y-88417399D01*
X151835874Y-88417399D01*
X151835874Y-88417400D01*
X151855095Y-88563406D01*
X151855097Y-88563410D01*
X151911450Y-88699457D01*
X151911457Y-88699469D01*
X152001102Y-88816297D01*
X152117930Y-88905942D01*
X152117937Y-88905947D01*
X152253993Y-88962304D01*
X152400000Y-88981526D01*
X152546007Y-88962304D01*
X152682063Y-88905947D01*
X152798897Y-88816297D01*
X152888547Y-88699463D01*
X152889650Y-88696799D01*
X159887674Y-88696799D01*
X159887674Y-88696800D01*
X159906895Y-88842806D01*
X159906897Y-88842810D01*
X159963250Y-88978857D01*
X159963257Y-88978869D01*
X160052902Y-89095697D01*
X160165449Y-89182057D01*
X160169737Y-89185347D01*
X160305793Y-89241704D01*
X160451800Y-89260926D01*
X160597807Y-89241704D01*
X160733863Y-89185347D01*
X160848846Y-89097116D01*
X160915066Y-89071516D01*
X160984615Y-89085780D01*
X161002254Y-89097116D01*
X161084137Y-89159947D01*
X161220193Y-89216304D01*
X161366200Y-89235526D01*
X161512207Y-89216304D01*
X161648263Y-89159947D01*
X161765097Y-89070297D01*
X161854747Y-88953463D01*
X161876893Y-88899999D01*
X191307474Y-88899999D01*
X191307474Y-88900000D01*
X191326695Y-89046006D01*
X191326697Y-89046010D01*
X191383050Y-89182057D01*
X191383057Y-89182069D01*
X191472702Y-89298897D01*
X191573455Y-89376207D01*
X191589537Y-89388547D01*
X191725593Y-89444904D01*
X191871600Y-89464126D01*
X192017607Y-89444904D01*
X192153663Y-89388547D01*
X192270497Y-89298897D01*
X192360147Y-89182063D01*
X192416504Y-89046007D01*
X192435726Y-88900000D01*
X192428196Y-88842807D01*
X192416504Y-88753993D01*
X192416502Y-88753989D01*
X192411392Y-88741653D01*
X192360147Y-88617937D01*
X192339473Y-88590994D01*
X192270497Y-88501102D01*
X192153669Y-88411457D01*
X192153665Y-88411455D01*
X192153663Y-88411453D01*
X192153660Y-88411451D01*
X192153657Y-88411450D01*
X192094461Y-88386930D01*
X201689100Y-88386930D01*
X201689100Y-90137063D01*
X201689101Y-90137073D01*
X201703865Y-90211300D01*
X201760116Y-90295484D01*
X201844297Y-90351733D01*
X201844299Y-90351734D01*
X201918533Y-90366500D01*
X203668666Y-90366499D01*
X203668669Y-90366498D01*
X203668673Y-90366498D01*
X203717926Y-90356701D01*
X203742901Y-90351734D01*
X203827084Y-90295484D01*
X203883334Y-90211301D01*
X203898100Y-90137067D01*
X203898099Y-88386934D01*
X203898098Y-88386930D01*
X203898098Y-88386926D01*
X203883334Y-88312699D01*
X203881134Y-88309406D01*
X203827084Y-88228516D01*
X203796759Y-88208253D01*
X203742902Y-88172266D01*
X203668667Y-88157500D01*
X201918536Y-88157500D01*
X201918526Y-88157501D01*
X201844299Y-88172265D01*
X201760115Y-88228516D01*
X201703866Y-88312697D01*
X201689100Y-88386930D01*
X192094461Y-88386930D01*
X192017610Y-88355097D01*
X192017606Y-88355095D01*
X191871600Y-88335874D01*
X191725593Y-88355095D01*
X191725589Y-88355097D01*
X191589542Y-88411450D01*
X191589530Y-88411457D01*
X191472702Y-88501102D01*
X191383057Y-88617930D01*
X191383050Y-88617942D01*
X191326697Y-88753989D01*
X191326695Y-88753993D01*
X191307474Y-88899999D01*
X161876893Y-88899999D01*
X161911104Y-88817407D01*
X161930326Y-88671400D01*
X161928496Y-88657503D01*
X161911104Y-88525393D01*
X161911102Y-88525389D01*
X161905347Y-88511496D01*
X161854747Y-88389337D01*
X161852903Y-88386934D01*
X161765097Y-88272502D01*
X161648269Y-88182857D01*
X161648265Y-88182855D01*
X161648263Y-88182853D01*
X161648260Y-88182851D01*
X161648257Y-88182850D01*
X161512210Y-88126497D01*
X161512206Y-88126495D01*
X161366200Y-88107274D01*
X161220193Y-88126495D01*
X161220189Y-88126497D01*
X161084142Y-88182850D01*
X161084131Y-88182857D01*
X160969152Y-88271083D01*
X160902932Y-88296683D01*
X160833383Y-88282418D01*
X160815746Y-88271083D01*
X160733869Y-88208257D01*
X160733865Y-88208255D01*
X160733863Y-88208253D01*
X160733860Y-88208251D01*
X160733857Y-88208250D01*
X160597810Y-88151897D01*
X160597806Y-88151895D01*
X160451800Y-88132674D01*
X160305793Y-88151895D01*
X160305789Y-88151897D01*
X160169742Y-88208250D01*
X160169730Y-88208257D01*
X160052902Y-88297902D01*
X159963257Y-88414730D01*
X159963250Y-88414742D01*
X159906897Y-88550789D01*
X159906895Y-88550793D01*
X159887674Y-88696799D01*
X152889650Y-88696799D01*
X152944904Y-88563407D01*
X152964126Y-88417400D01*
X152963775Y-88414737D01*
X152944904Y-88271393D01*
X152944902Y-88271389D01*
X152944775Y-88271083D01*
X152888547Y-88135337D01*
X152881763Y-88126496D01*
X152798897Y-88018502D01*
X152682069Y-87928857D01*
X152682065Y-87928855D01*
X152682063Y-87928853D01*
X152682060Y-87928851D01*
X152682057Y-87928850D01*
X152573778Y-87883999D01*
X183687474Y-87883999D01*
X183687474Y-87884000D01*
X183706695Y-88030006D01*
X183706697Y-88030010D01*
X183763050Y-88166057D01*
X183763057Y-88166069D01*
X183852702Y-88282897D01*
X183954728Y-88361184D01*
X183969537Y-88372547D01*
X184105593Y-88428904D01*
X184251600Y-88448126D01*
X184397607Y-88428904D01*
X184533663Y-88372547D01*
X184650497Y-88282897D01*
X184740147Y-88166063D01*
X184796504Y-88030007D01*
X184815726Y-87884000D01*
X184815375Y-87881337D01*
X184796504Y-87737993D01*
X184796502Y-87737989D01*
X184789090Y-87720096D01*
X184740147Y-87601937D01*
X184713873Y-87567696D01*
X184650497Y-87485102D01*
X184533669Y-87395457D01*
X184533665Y-87395455D01*
X184533663Y-87395453D01*
X184533660Y-87395451D01*
X184533657Y-87395450D01*
X184397610Y-87339097D01*
X184397606Y-87339095D01*
X184251600Y-87319874D01*
X184105593Y-87339095D01*
X184105589Y-87339097D01*
X183969542Y-87395450D01*
X183969530Y-87395457D01*
X183852702Y-87485102D01*
X183763057Y-87601930D01*
X183763050Y-87601942D01*
X183706697Y-87737989D01*
X183706695Y-87737993D01*
X183687474Y-87883999D01*
X152573778Y-87883999D01*
X152546010Y-87872497D01*
X152546006Y-87872495D01*
X152400000Y-87853274D01*
X152253993Y-87872495D01*
X152253989Y-87872497D01*
X152117942Y-87928850D01*
X152117930Y-87928857D01*
X152001102Y-88018502D01*
X151911457Y-88135330D01*
X151911450Y-88135342D01*
X151855097Y-88271389D01*
X151855095Y-88271393D01*
X151835874Y-88417399D01*
X151516326Y-88417399D01*
X151515975Y-88414737D01*
X151497104Y-88271393D01*
X151497102Y-88271389D01*
X151496975Y-88271083D01*
X151440747Y-88135337D01*
X151433963Y-88126496D01*
X151351097Y-88018502D01*
X151234269Y-87928857D01*
X151234265Y-87928855D01*
X151234263Y-87928853D01*
X151234260Y-87928851D01*
X151234257Y-87928850D01*
X151098210Y-87872497D01*
X151098206Y-87872495D01*
X150952200Y-87853274D01*
X150806193Y-87872495D01*
X150806189Y-87872497D01*
X150670142Y-87928850D01*
X150670130Y-87928857D01*
X150553302Y-88018502D01*
X150463657Y-88135330D01*
X150463650Y-88135342D01*
X150407297Y-88271389D01*
X150407295Y-88271393D01*
X150388074Y-88417399D01*
X149640256Y-88417399D01*
X149642904Y-88411007D01*
X149662126Y-88265000D01*
X149649917Y-88172266D01*
X149642904Y-88118993D01*
X149642902Y-88118989D01*
X149638049Y-88107274D01*
X149586547Y-87982937D01*
X149545045Y-87928850D01*
X149496897Y-87866102D01*
X149380069Y-87776457D01*
X149380065Y-87776455D01*
X149380063Y-87776453D01*
X149380060Y-87776451D01*
X149380057Y-87776450D01*
X149244010Y-87720097D01*
X149244006Y-87720095D01*
X149098000Y-87700874D01*
X148951993Y-87720095D01*
X148951989Y-87720097D01*
X148815942Y-87776450D01*
X148815930Y-87776457D01*
X148699102Y-87866102D01*
X148609457Y-87982930D01*
X148609450Y-87982942D01*
X148553097Y-88118989D01*
X148553095Y-88118993D01*
X148533874Y-88264999D01*
X119219550Y-88264999D01*
X119232926Y-88163400D01*
X119232149Y-88157501D01*
X119213704Y-88017393D01*
X119213702Y-88017389D01*
X119199433Y-87982942D01*
X119157347Y-87881337D01*
X119150563Y-87872496D01*
X119067697Y-87764502D01*
X118950869Y-87674857D01*
X118950865Y-87674855D01*
X118950863Y-87674853D01*
X118950860Y-87674851D01*
X118950857Y-87674850D01*
X118814810Y-87618497D01*
X118814806Y-87618495D01*
X118668800Y-87599274D01*
X118522793Y-87618495D01*
X118522789Y-87618497D01*
X118386742Y-87674850D01*
X118386730Y-87674857D01*
X118269902Y-87764502D01*
X118180257Y-87881330D01*
X118180250Y-87881342D01*
X118123897Y-88017389D01*
X118123895Y-88017393D01*
X118104674Y-88163399D01*
X116229038Y-88163399D01*
X116235726Y-88112599D01*
X116223191Y-88017389D01*
X116216504Y-87966592D01*
X116216502Y-87966588D01*
X116200870Y-87928850D01*
X116160147Y-87830536D01*
X116118648Y-87776453D01*
X116070497Y-87713701D01*
X115953669Y-87624056D01*
X115953665Y-87624054D01*
X115953663Y-87624052D01*
X115953660Y-87624050D01*
X115953657Y-87624049D01*
X115817610Y-87567696D01*
X115817606Y-87567694D01*
X115671600Y-87548473D01*
X115525593Y-87567694D01*
X115525589Y-87567696D01*
X115389542Y-87624049D01*
X115389530Y-87624056D01*
X115272702Y-87713701D01*
X115183057Y-87830529D01*
X115183050Y-87830541D01*
X115126697Y-87966588D01*
X115126695Y-87966592D01*
X115107474Y-88112598D01*
X115107474Y-88112599D01*
X115126695Y-88258605D01*
X115126697Y-88258609D01*
X115183050Y-88394656D01*
X115183057Y-88394668D01*
X115272700Y-88511493D01*
X115272701Y-88511494D01*
X115272703Y-88511496D01*
X115338119Y-88561692D01*
X115379986Y-88619029D01*
X115384208Y-88689900D01*
X115349444Y-88751803D01*
X115338120Y-88761616D01*
X115247301Y-88831304D01*
X115157657Y-88948130D01*
X115157650Y-88948142D01*
X115101297Y-89084189D01*
X115101295Y-89084193D01*
X115082074Y-89230199D01*
X96735302Y-89230199D01*
X96735302Y-89213000D01*
X96698420Y-89075355D01*
X96698418Y-89075352D01*
X96698418Y-89075350D01*
X96627172Y-88951948D01*
X96627164Y-88951938D01*
X96526413Y-88851187D01*
X96526403Y-88851179D01*
X96403001Y-88779933D01*
X96386737Y-88775575D01*
X96265352Y-88743050D01*
X96122852Y-88743050D01*
X96053563Y-88761616D01*
X95985202Y-88779933D01*
X95861800Y-88851179D01*
X95861790Y-88851187D01*
X95761039Y-88951938D01*
X95761031Y-88951948D01*
X95689785Y-89075350D01*
X95652902Y-89213001D01*
X95652902Y-89355498D01*
X95652901Y-89355498D01*
X87997300Y-89355498D01*
X87997300Y-85724999D01*
X121863874Y-85724999D01*
X121863874Y-85725000D01*
X121883095Y-85871006D01*
X121883097Y-85871010D01*
X121939450Y-86007057D01*
X121939457Y-86007069D01*
X122029102Y-86123897D01*
X122113411Y-86188589D01*
X122145937Y-86213547D01*
X122281993Y-86269904D01*
X122428000Y-86289126D01*
X122574007Y-86269904D01*
X122710063Y-86213547D01*
X122826897Y-86123897D01*
X122916547Y-86007063D01*
X122972904Y-85871007D01*
X122992126Y-85725000D01*
X122972904Y-85578993D01*
X122916547Y-85442937D01*
X122916542Y-85442930D01*
X122826897Y-85326102D01*
X122710069Y-85236457D01*
X122710065Y-85236455D01*
X122710063Y-85236453D01*
X122710060Y-85236451D01*
X122710057Y-85236450D01*
X122663099Y-85216999D01*
X154223474Y-85216999D01*
X154223474Y-85217000D01*
X154242695Y-85363006D01*
X154242697Y-85363010D01*
X154299050Y-85499057D01*
X154299057Y-85499069D01*
X154388702Y-85615897D01*
X154505530Y-85705542D01*
X154505537Y-85705547D01*
X154641593Y-85761904D01*
X154787600Y-85781126D01*
X154933607Y-85761904D01*
X155069663Y-85705547D01*
X155186497Y-85615897D01*
X155276147Y-85499063D01*
X155332504Y-85363007D01*
X155341299Y-85296199D01*
X156066674Y-85296199D01*
X156066674Y-85296200D01*
X156085895Y-85442206D01*
X156085897Y-85442210D01*
X156142250Y-85578257D01*
X156142257Y-85578269D01*
X156231902Y-85695097D01*
X156334039Y-85773469D01*
X156348737Y-85784747D01*
X156484793Y-85841104D01*
X156630800Y-85860326D01*
X156776807Y-85841104D01*
X156912863Y-85784747D01*
X157029697Y-85695097D01*
X157045733Y-85674199D01*
X168676074Y-85674199D01*
X168676074Y-85674200D01*
X168695295Y-85820206D01*
X168695297Y-85820210D01*
X168751650Y-85956257D01*
X168751657Y-85956269D01*
X168841302Y-86073097D01*
X168958130Y-86162742D01*
X168958137Y-86162747D01*
X169094193Y-86219104D01*
X169240200Y-86238326D01*
X169307448Y-86229472D01*
X169377594Y-86240411D01*
X169430693Y-86287538D01*
X169448815Y-86337948D01*
X169465459Y-86464378D01*
X169465461Y-86464382D01*
X169521814Y-86600429D01*
X169521821Y-86600441D01*
X169611466Y-86717269D01*
X169728294Y-86806914D01*
X169728301Y-86806919D01*
X169864357Y-86863276D01*
X169936747Y-86872806D01*
X170001674Y-86901528D01*
X170037542Y-86955905D01*
X170038335Y-86955577D01*
X170040039Y-86959691D01*
X170040766Y-86960793D01*
X170041376Y-86962920D01*
X170097850Y-87099257D01*
X170097857Y-87099269D01*
X170187502Y-87216097D01*
X170304330Y-87305742D01*
X170304337Y-87305747D01*
X170440393Y-87362104D01*
X170586400Y-87381326D01*
X170732407Y-87362104D01*
X170868463Y-87305747D01*
X170985297Y-87216097D01*
X171048192Y-87134129D01*
X171105529Y-87092263D01*
X171176400Y-87088041D01*
X171238303Y-87122804D01*
X171248116Y-87134130D01*
X171330502Y-87241497D01*
X171447330Y-87331142D01*
X171447337Y-87331147D01*
X171583393Y-87387504D01*
X171729400Y-87406726D01*
X171875407Y-87387504D01*
X172011463Y-87331147D01*
X172128297Y-87241497D01*
X172217947Y-87124663D01*
X172237471Y-87077528D01*
X172282016Y-87022250D01*
X172349380Y-86999828D01*
X172418171Y-87017386D01*
X172466550Y-87069347D01*
X172470286Y-87077529D01*
X172489813Y-87124669D01*
X172510853Y-87175463D01*
X172510855Y-87175466D01*
X172510857Y-87175469D01*
X172600502Y-87292297D01*
X172717330Y-87381942D01*
X172717337Y-87381947D01*
X172853393Y-87438304D01*
X172999400Y-87457526D01*
X173145407Y-87438304D01*
X173281463Y-87381947D01*
X173398297Y-87292297D01*
X173487947Y-87175463D01*
X173544304Y-87039407D01*
X173563526Y-86893400D01*
X173544304Y-86747393D01*
X173487947Y-86611337D01*
X173487942Y-86611330D01*
X173398297Y-86494502D01*
X173281469Y-86404857D01*
X173281465Y-86404855D01*
X173281463Y-86404853D01*
X173281460Y-86404851D01*
X173281457Y-86404850D01*
X173145410Y-86348497D01*
X173145406Y-86348495D01*
X172999400Y-86329274D01*
X172991142Y-86329274D01*
X172991142Y-86326655D01*
X172933873Y-86317720D01*
X172880779Y-86270588D01*
X172862663Y-86220187D01*
X172862520Y-86219104D01*
X172858504Y-86188593D01*
X172802147Y-86052537D01*
X172787370Y-86033279D01*
X172712497Y-85935702D01*
X172595669Y-85846057D01*
X172595665Y-85846055D01*
X172595663Y-85846053D01*
X172595660Y-85846051D01*
X172595657Y-85846050D01*
X172459610Y-85789697D01*
X172459606Y-85789695D01*
X172313600Y-85770474D01*
X172167593Y-85789695D01*
X172167589Y-85789697D01*
X172031542Y-85846050D01*
X172031530Y-85846057D01*
X171914704Y-85935701D01*
X171848518Y-86021956D01*
X171791180Y-86063823D01*
X171720309Y-86068044D01*
X171658406Y-86033279D01*
X171648601Y-86021964D01*
X171569497Y-85918874D01*
X171569495Y-85918872D01*
X171569494Y-85918871D01*
X171452669Y-85829228D01*
X171452665Y-85829226D01*
X171452663Y-85829224D01*
X171452660Y-85829222D01*
X171452657Y-85829221D01*
X171316610Y-85772868D01*
X171316606Y-85772866D01*
X171170600Y-85753645D01*
X171024593Y-85772866D01*
X171024589Y-85772868D01*
X170888542Y-85829221D01*
X170888530Y-85829228D01*
X170771702Y-85918873D01*
X170690213Y-86025072D01*
X170632875Y-86066939D01*
X170562004Y-86071161D01*
X170500101Y-86036396D01*
X170490292Y-86025077D01*
X170409261Y-85919475D01*
X170409259Y-85919473D01*
X170409258Y-85919472D01*
X170292433Y-85829829D01*
X170292429Y-85829827D01*
X170292427Y-85829825D01*
X170292424Y-85829823D01*
X170292421Y-85829822D01*
X170156374Y-85773469D01*
X170156370Y-85773467D01*
X170010364Y-85754246D01*
X170010363Y-85754246D01*
X169943116Y-85763099D01*
X169872967Y-85752159D01*
X169819869Y-85705031D01*
X169801749Y-85654625D01*
X169790950Y-85572599D01*
X179242474Y-85572599D01*
X179242474Y-85572600D01*
X179261695Y-85718606D01*
X179261697Y-85718610D01*
X179318050Y-85854657D01*
X179318057Y-85854669D01*
X179407702Y-85971497D01*
X179524530Y-86061142D01*
X179524537Y-86061147D01*
X179660593Y-86117504D01*
X179806600Y-86136726D01*
X179952607Y-86117504D01*
X180088663Y-86061147D01*
X180205497Y-85971497D01*
X180295147Y-85854663D01*
X180351504Y-85718607D01*
X180370726Y-85572600D01*
X180351504Y-85426593D01*
X180295147Y-85290537D01*
X180253645Y-85236450D01*
X180205497Y-85173702D01*
X180088669Y-85084057D01*
X180088665Y-85084055D01*
X180088663Y-85084053D01*
X180088660Y-85084051D01*
X180088657Y-85084050D01*
X179952610Y-85027697D01*
X179952606Y-85027695D01*
X179806600Y-85008474D01*
X179660593Y-85027695D01*
X179660589Y-85027697D01*
X179524542Y-85084050D01*
X179524530Y-85084057D01*
X179407702Y-85173702D01*
X179318057Y-85290530D01*
X179318050Y-85290542D01*
X179261697Y-85426589D01*
X179261695Y-85426593D01*
X179242474Y-85572599D01*
X169790950Y-85572599D01*
X169785104Y-85528193D01*
X169728747Y-85392137D01*
X169728742Y-85392130D01*
X169639097Y-85275302D01*
X169522269Y-85185657D01*
X169522265Y-85185655D01*
X169522263Y-85185653D01*
X169522260Y-85185651D01*
X169522257Y-85185650D01*
X169386210Y-85129297D01*
X169386206Y-85129295D01*
X169240200Y-85110074D01*
X169094193Y-85129295D01*
X169094189Y-85129297D01*
X168958142Y-85185650D01*
X168958130Y-85185657D01*
X168841302Y-85275302D01*
X168751657Y-85392130D01*
X168751650Y-85392142D01*
X168695297Y-85528189D01*
X168695295Y-85528193D01*
X168676074Y-85674199D01*
X157045733Y-85674199D01*
X157119347Y-85578263D01*
X157175704Y-85442207D01*
X157194926Y-85296200D01*
X157194180Y-85290537D01*
X157175704Y-85150193D01*
X157175702Y-85150189D01*
X157167047Y-85129295D01*
X157119347Y-85014137D01*
X157115002Y-85008474D01*
X157029697Y-84897302D01*
X156912869Y-84807657D01*
X156912865Y-84807655D01*
X156912863Y-84807653D01*
X156912860Y-84807651D01*
X156912857Y-84807650D01*
X156776810Y-84751297D01*
X156776806Y-84751295D01*
X156630800Y-84732074D01*
X156484793Y-84751295D01*
X156484789Y-84751297D01*
X156348742Y-84807650D01*
X156348730Y-84807657D01*
X156231902Y-84897302D01*
X156142257Y-85014130D01*
X156142250Y-85014142D01*
X156085897Y-85150189D01*
X156085895Y-85150193D01*
X156066674Y-85296199D01*
X155341299Y-85296199D01*
X155351726Y-85217000D01*
X155346867Y-85180095D01*
X155332504Y-85070993D01*
X155332502Y-85070989D01*
X155314569Y-85027696D01*
X155276147Y-84934937D01*
X155276142Y-84934930D01*
X155186497Y-84818102D01*
X155069669Y-84728457D01*
X155069665Y-84728455D01*
X155069663Y-84728453D01*
X155069660Y-84728451D01*
X155069657Y-84728450D01*
X154933610Y-84672097D01*
X154933606Y-84672095D01*
X154787600Y-84652874D01*
X154641593Y-84672095D01*
X154641589Y-84672097D01*
X154505542Y-84728450D01*
X154505530Y-84728457D01*
X154388702Y-84818102D01*
X154299057Y-84934930D01*
X154299050Y-84934942D01*
X154242697Y-85070989D01*
X154242695Y-85070993D01*
X154223474Y-85216999D01*
X122663099Y-85216999D01*
X122574010Y-85180097D01*
X122574006Y-85180095D01*
X122428000Y-85160874D01*
X122281993Y-85180095D01*
X122281989Y-85180097D01*
X122145942Y-85236450D01*
X122145930Y-85236457D01*
X122029102Y-85326102D01*
X121939457Y-85442930D01*
X121939450Y-85442942D01*
X121883097Y-85578989D01*
X121883095Y-85578993D01*
X121863874Y-85724999D01*
X87997300Y-85724999D01*
X87997300Y-83184999D01*
X125419874Y-83184999D01*
X125419874Y-83185000D01*
X125439095Y-83331006D01*
X125439097Y-83331010D01*
X125495450Y-83467057D01*
X125495457Y-83467069D01*
X125585102Y-83583897D01*
X125701930Y-83673542D01*
X125701937Y-83673547D01*
X125837993Y-83729904D01*
X125984000Y-83749126D01*
X126130007Y-83729904D01*
X126219102Y-83692999D01*
X153461474Y-83692999D01*
X153461474Y-83693000D01*
X153480695Y-83839006D01*
X153480697Y-83839010D01*
X153537050Y-83975057D01*
X153537057Y-83975069D01*
X153626702Y-84091897D01*
X153743530Y-84181542D01*
X153743537Y-84181547D01*
X153879593Y-84237904D01*
X154025600Y-84257126D01*
X154171607Y-84237904D01*
X154307663Y-84181547D01*
X154424497Y-84091897D01*
X154514147Y-83975063D01*
X154570504Y-83839007D01*
X154589726Y-83693000D01*
X154570504Y-83546993D01*
X154514147Y-83410937D01*
X154452817Y-83331010D01*
X154424497Y-83294102D01*
X154307669Y-83204457D01*
X154307665Y-83204455D01*
X154307663Y-83204453D01*
X154307660Y-83204451D01*
X154307657Y-83204450D01*
X154260699Y-83184999D01*
X162249874Y-83184999D01*
X162249874Y-83185000D01*
X162269095Y-83331006D01*
X162269097Y-83331010D01*
X162325450Y-83467057D01*
X162325457Y-83467069D01*
X162415102Y-83583897D01*
X162531930Y-83673542D01*
X162531937Y-83673547D01*
X162667993Y-83729904D01*
X162814000Y-83749126D01*
X162960007Y-83729904D01*
X163096063Y-83673547D01*
X163212897Y-83583897D01*
X163302547Y-83467063D01*
X163358904Y-83331007D01*
X163378126Y-83185000D01*
X163373267Y-83148095D01*
X163358904Y-83038993D01*
X163358902Y-83038989D01*
X163302549Y-82902942D01*
X163302547Y-82902937D01*
X163302542Y-82902930D01*
X163212897Y-82786102D01*
X163096069Y-82696457D01*
X163096065Y-82696455D01*
X163096063Y-82696453D01*
X163096060Y-82696451D01*
X163096057Y-82696450D01*
X162960010Y-82640097D01*
X162960006Y-82640095D01*
X162814000Y-82620874D01*
X162667993Y-82640095D01*
X162667989Y-82640097D01*
X162531942Y-82696450D01*
X162531930Y-82696457D01*
X162415102Y-82786102D01*
X162325457Y-82902930D01*
X162325450Y-82902942D01*
X162269097Y-83038989D01*
X162269095Y-83038993D01*
X162249874Y-83184999D01*
X154260699Y-83184999D01*
X154171610Y-83148097D01*
X154171606Y-83148095D01*
X154025600Y-83128874D01*
X153879593Y-83148095D01*
X153879589Y-83148097D01*
X153743542Y-83204450D01*
X153743530Y-83204457D01*
X153626702Y-83294102D01*
X153537057Y-83410930D01*
X153537050Y-83410942D01*
X153480697Y-83546989D01*
X153480695Y-83546993D01*
X153461474Y-83692999D01*
X126219102Y-83692999D01*
X126266063Y-83673547D01*
X126382897Y-83583897D01*
X126472547Y-83467063D01*
X126528904Y-83331007D01*
X126548126Y-83185000D01*
X126543267Y-83148095D01*
X126528904Y-83038993D01*
X126528902Y-83038989D01*
X126472549Y-82902942D01*
X126472547Y-82902937D01*
X126472542Y-82902930D01*
X126382897Y-82786102D01*
X126266069Y-82696457D01*
X126266065Y-82696455D01*
X126266063Y-82696453D01*
X126266060Y-82696451D01*
X126266057Y-82696450D01*
X126130010Y-82640097D01*
X126130006Y-82640095D01*
X125984000Y-82620874D01*
X125837993Y-82640095D01*
X125837989Y-82640097D01*
X125701942Y-82696450D01*
X125701930Y-82696457D01*
X125585102Y-82786102D01*
X125495457Y-82902930D01*
X125495450Y-82902942D01*
X125439097Y-83038989D01*
X125439095Y-83038993D01*
X125419874Y-83184999D01*
X87997300Y-83184999D01*
X87997300Y-81914999D01*
X117647474Y-81914999D01*
X117647474Y-81915000D01*
X117666695Y-82061006D01*
X117666697Y-82061010D01*
X117723050Y-82197057D01*
X117723057Y-82197069D01*
X117812702Y-82313897D01*
X117929530Y-82403542D01*
X117929537Y-82403547D01*
X118065593Y-82459904D01*
X118211600Y-82479126D01*
X118357607Y-82459904D01*
X118493663Y-82403547D01*
X118610497Y-82313897D01*
X118700147Y-82197063D01*
X118756504Y-82061007D01*
X118775726Y-81915000D01*
X118775726Y-81914999D01*
X119806474Y-81914999D01*
X119806474Y-81915000D01*
X119825695Y-82061006D01*
X119825697Y-82061010D01*
X119882050Y-82197057D01*
X119882057Y-82197069D01*
X119971702Y-82313897D01*
X120088530Y-82403542D01*
X120088537Y-82403547D01*
X120224593Y-82459904D01*
X120370600Y-82479126D01*
X120516607Y-82459904D01*
X120652663Y-82403547D01*
X120769497Y-82313897D01*
X120859147Y-82197063D01*
X120915504Y-82061007D01*
X120934726Y-81915000D01*
X120934726Y-81914999D01*
X121838474Y-81914999D01*
X121838474Y-81915000D01*
X121857695Y-82061006D01*
X121857697Y-82061010D01*
X121914050Y-82197057D01*
X121914057Y-82197069D01*
X122003702Y-82313897D01*
X122120530Y-82403542D01*
X122120537Y-82403547D01*
X122256593Y-82459904D01*
X122402600Y-82479126D01*
X122548607Y-82459904D01*
X122684663Y-82403547D01*
X122801497Y-82313897D01*
X122891147Y-82197063D01*
X122947504Y-82061007D01*
X122960038Y-81965799D01*
X155010874Y-81965799D01*
X155010874Y-81965800D01*
X155030095Y-82111806D01*
X155030097Y-82111810D01*
X155086450Y-82247857D01*
X155086457Y-82247869D01*
X155176102Y-82364697D01*
X155292930Y-82454342D01*
X155292937Y-82454347D01*
X155428993Y-82510704D01*
X155575000Y-82529926D01*
X155721007Y-82510704D01*
X155857063Y-82454347D01*
X155973897Y-82364697D01*
X156063547Y-82247863D01*
X156119904Y-82111807D01*
X156139126Y-81965800D01*
X156119904Y-81819793D01*
X156063547Y-81683737D01*
X156059834Y-81678898D01*
X155973897Y-81566902D01*
X155857069Y-81477257D01*
X155857065Y-81477255D01*
X155857063Y-81477253D01*
X155857060Y-81477251D01*
X155857057Y-81477250D01*
X155721010Y-81420897D01*
X155721006Y-81420895D01*
X155575000Y-81401674D01*
X155428993Y-81420895D01*
X155428989Y-81420897D01*
X155292942Y-81477250D01*
X155292930Y-81477257D01*
X155176102Y-81566902D01*
X155086457Y-81683730D01*
X155086450Y-81683742D01*
X155030097Y-81819789D01*
X155030095Y-81819793D01*
X155010874Y-81965799D01*
X122960038Y-81965799D01*
X122966726Y-81915000D01*
X122954864Y-81824902D01*
X122947504Y-81768993D01*
X122947502Y-81768989D01*
X122910184Y-81678897D01*
X122891147Y-81632937D01*
X122891142Y-81632930D01*
X122801497Y-81516102D01*
X122684669Y-81426457D01*
X122684665Y-81426455D01*
X122684663Y-81426453D01*
X122684660Y-81426451D01*
X122684657Y-81426450D01*
X122548610Y-81370097D01*
X122548606Y-81370095D01*
X122402600Y-81350874D01*
X122256593Y-81370095D01*
X122256589Y-81370097D01*
X122120542Y-81426450D01*
X122120530Y-81426457D01*
X122003702Y-81516102D01*
X121914057Y-81632930D01*
X121914050Y-81632942D01*
X121857697Y-81768989D01*
X121857695Y-81768993D01*
X121838474Y-81914999D01*
X120934726Y-81914999D01*
X120922864Y-81824902D01*
X120915504Y-81768993D01*
X120915502Y-81768989D01*
X120878184Y-81678897D01*
X120859147Y-81632937D01*
X120859142Y-81632930D01*
X120769497Y-81516102D01*
X120652669Y-81426457D01*
X120652665Y-81426455D01*
X120652663Y-81426453D01*
X120652660Y-81426451D01*
X120652657Y-81426450D01*
X120516610Y-81370097D01*
X120516606Y-81370095D01*
X120370600Y-81350874D01*
X120224593Y-81370095D01*
X120224589Y-81370097D01*
X120088542Y-81426450D01*
X120088530Y-81426457D01*
X119971702Y-81516102D01*
X119882057Y-81632930D01*
X119882050Y-81632942D01*
X119825697Y-81768989D01*
X119825695Y-81768993D01*
X119806474Y-81914999D01*
X118775726Y-81914999D01*
X118763864Y-81824902D01*
X118756504Y-81768993D01*
X118756502Y-81768989D01*
X118719184Y-81678897D01*
X118700147Y-81632937D01*
X118700142Y-81632930D01*
X118610497Y-81516102D01*
X118493669Y-81426457D01*
X118493665Y-81426455D01*
X118493663Y-81426453D01*
X118493660Y-81426451D01*
X118493657Y-81426450D01*
X118357610Y-81370097D01*
X118357606Y-81370095D01*
X118211600Y-81350874D01*
X118065593Y-81370095D01*
X118065589Y-81370097D01*
X117929542Y-81426450D01*
X117929530Y-81426457D01*
X117812702Y-81516102D01*
X117723057Y-81632930D01*
X117723050Y-81632942D01*
X117666697Y-81768989D01*
X117666695Y-81768993D01*
X117647474Y-81914999D01*
X87997300Y-81914999D01*
X87997300Y-79267087D01*
X87997452Y-79260905D01*
X87998086Y-79247999D01*
X87999334Y-79222599D01*
X97683074Y-79222599D01*
X97683074Y-79222600D01*
X97702295Y-79368606D01*
X97702297Y-79368610D01*
X97758650Y-79504657D01*
X97758657Y-79504669D01*
X97848302Y-79621497D01*
X97965130Y-79711142D01*
X97965137Y-79711147D01*
X98101193Y-79767504D01*
X98247200Y-79786726D01*
X98393207Y-79767504D01*
X98529263Y-79711147D01*
X98646097Y-79621497D01*
X98735747Y-79504663D01*
X98792104Y-79368607D01*
X98807982Y-79247999D01*
X107360474Y-79247999D01*
X107360474Y-79248000D01*
X107379695Y-79394006D01*
X107379697Y-79394010D01*
X107436050Y-79530057D01*
X107436057Y-79530069D01*
X107525702Y-79646897D01*
X107537615Y-79656038D01*
X107579482Y-79713376D01*
X107583704Y-79784247D01*
X107548940Y-79846150D01*
X107537615Y-79855962D01*
X107525702Y-79865102D01*
X107436057Y-79981930D01*
X107436050Y-79981942D01*
X107379697Y-80117989D01*
X107379695Y-80117993D01*
X107360474Y-80263999D01*
X107360474Y-80264000D01*
X107379695Y-80410006D01*
X107379697Y-80410010D01*
X107436050Y-80546057D01*
X107436057Y-80546069D01*
X107525702Y-80662897D01*
X107537615Y-80672038D01*
X107579482Y-80729376D01*
X107583704Y-80800247D01*
X107548940Y-80862150D01*
X107537615Y-80871962D01*
X107525702Y-80881102D01*
X107436057Y-80997930D01*
X107436050Y-80997942D01*
X107379697Y-81133989D01*
X107379695Y-81133993D01*
X107360474Y-81279999D01*
X107360474Y-81280000D01*
X107379695Y-81426006D01*
X107379697Y-81426010D01*
X107436050Y-81562057D01*
X107436057Y-81562069D01*
X107525702Y-81678897D01*
X107642530Y-81768542D01*
X107642537Y-81768547D01*
X107778593Y-81824904D01*
X107924600Y-81844126D01*
X108070607Y-81824904D01*
X108206663Y-81768547D01*
X108323497Y-81678897D01*
X108332637Y-81666984D01*
X108389973Y-81625118D01*
X108460844Y-81620894D01*
X108522747Y-81655657D01*
X108532558Y-81666979D01*
X108541703Y-81678897D01*
X108541704Y-81678898D01*
X108548010Y-81683737D01*
X108658537Y-81768547D01*
X108794593Y-81824904D01*
X108940600Y-81844126D01*
X109086607Y-81824904D01*
X109222663Y-81768547D01*
X109339497Y-81678897D01*
X109429147Y-81562063D01*
X109485504Y-81426007D01*
X109504726Y-81280000D01*
X109485504Y-81133993D01*
X109429147Y-80997937D01*
X109339497Y-80881103D01*
X109327584Y-80871962D01*
X109285718Y-80814627D01*
X109281494Y-80743756D01*
X109316257Y-80681853D01*
X109327584Y-80672038D01*
X109339497Y-80662897D01*
X109429147Y-80546063D01*
X109440772Y-80517999D01*
X111043474Y-80517999D01*
X111043474Y-80518000D01*
X111062695Y-80664006D01*
X111062697Y-80664010D01*
X111119050Y-80800057D01*
X111119057Y-80800069D01*
X111208702Y-80916897D01*
X111325530Y-81006542D01*
X111325537Y-81006547D01*
X111461593Y-81062904D01*
X111607600Y-81082126D01*
X111753607Y-81062904D01*
X111889663Y-81006547D01*
X112006497Y-80916897D01*
X112096147Y-80800063D01*
X112152504Y-80664007D01*
X112171726Y-80518000D01*
X112171726Y-80517999D01*
X117647474Y-80517999D01*
X117647474Y-80518000D01*
X117666695Y-80664006D01*
X117666697Y-80664010D01*
X117723050Y-80800057D01*
X117723057Y-80800069D01*
X117812702Y-80916897D01*
X117929530Y-81006542D01*
X117929537Y-81006547D01*
X118065593Y-81062904D01*
X118211600Y-81082126D01*
X118357607Y-81062904D01*
X118493663Y-81006547D01*
X118610497Y-80916897D01*
X118700147Y-80800063D01*
X118756504Y-80664007D01*
X118775726Y-80518000D01*
X118775726Y-80517999D01*
X119806474Y-80517999D01*
X119806474Y-80518000D01*
X119825695Y-80664006D01*
X119825697Y-80664010D01*
X119882050Y-80800057D01*
X119882057Y-80800069D01*
X119971702Y-80916897D01*
X120088530Y-81006542D01*
X120088537Y-81006547D01*
X120224593Y-81062904D01*
X120370600Y-81082126D01*
X120516607Y-81062904D01*
X120652663Y-81006547D01*
X120769497Y-80916897D01*
X120859147Y-80800063D01*
X120915504Y-80664007D01*
X120934726Y-80518000D01*
X120934726Y-80517999D01*
X121838474Y-80517999D01*
X121838474Y-80518000D01*
X121857695Y-80664006D01*
X121857697Y-80664010D01*
X121914050Y-80800057D01*
X121914057Y-80800069D01*
X122003702Y-80916897D01*
X122120530Y-81006542D01*
X122120537Y-81006547D01*
X122256593Y-81062904D01*
X122402600Y-81082126D01*
X122548607Y-81062904D01*
X122684663Y-81006547D01*
X122801497Y-80916897D01*
X122891147Y-80800063D01*
X122947504Y-80664007D01*
X122966726Y-80518000D01*
X122947504Y-80371993D01*
X122891147Y-80235937D01*
X122891142Y-80235930D01*
X122801497Y-80119102D01*
X122684669Y-80029457D01*
X122684665Y-80029455D01*
X122684663Y-80029453D01*
X122684660Y-80029451D01*
X122684657Y-80029450D01*
X122548610Y-79973097D01*
X122548606Y-79973095D01*
X122402600Y-79953874D01*
X122256593Y-79973095D01*
X122256589Y-79973097D01*
X122120542Y-80029450D01*
X122120530Y-80029457D01*
X122003702Y-80119102D01*
X121914057Y-80235930D01*
X121914050Y-80235942D01*
X121857697Y-80371989D01*
X121857695Y-80371993D01*
X121838474Y-80517999D01*
X120934726Y-80517999D01*
X120915504Y-80371993D01*
X120859147Y-80235937D01*
X120859142Y-80235930D01*
X120769497Y-80119102D01*
X120652669Y-80029457D01*
X120652665Y-80029455D01*
X120652663Y-80029453D01*
X120652660Y-80029451D01*
X120652657Y-80029450D01*
X120516610Y-79973097D01*
X120516606Y-79973095D01*
X120370600Y-79953874D01*
X120224593Y-79973095D01*
X120224589Y-79973097D01*
X120088542Y-80029450D01*
X120088530Y-80029457D01*
X119971702Y-80119102D01*
X119882057Y-80235930D01*
X119882050Y-80235942D01*
X119825697Y-80371989D01*
X119825695Y-80371993D01*
X119806474Y-80517999D01*
X118775726Y-80517999D01*
X118756504Y-80371993D01*
X118700147Y-80235937D01*
X118700142Y-80235930D01*
X118610497Y-80119102D01*
X118493669Y-80029457D01*
X118493665Y-80029455D01*
X118493663Y-80029453D01*
X118493660Y-80029451D01*
X118493657Y-80029450D01*
X118357610Y-79973097D01*
X118357606Y-79973095D01*
X118211600Y-79953874D01*
X118065593Y-79973095D01*
X118065589Y-79973097D01*
X117929542Y-80029450D01*
X117929530Y-80029457D01*
X117812702Y-80119102D01*
X117723057Y-80235930D01*
X117723050Y-80235942D01*
X117666697Y-80371989D01*
X117666695Y-80371993D01*
X117647474Y-80517999D01*
X112171726Y-80517999D01*
X112152504Y-80371993D01*
X112096147Y-80235937D01*
X112096142Y-80235930D01*
X112006497Y-80119102D01*
X111889669Y-80029457D01*
X111889665Y-80029455D01*
X111889663Y-80029453D01*
X111889660Y-80029451D01*
X111889657Y-80029450D01*
X111753610Y-79973097D01*
X111753606Y-79973095D01*
X111607600Y-79953874D01*
X111461593Y-79973095D01*
X111461589Y-79973097D01*
X111325542Y-80029450D01*
X111325530Y-80029457D01*
X111208702Y-80119102D01*
X111119057Y-80235930D01*
X111119050Y-80235942D01*
X111062697Y-80371989D01*
X111062695Y-80371993D01*
X111043474Y-80517999D01*
X109440772Y-80517999D01*
X109485504Y-80410007D01*
X109504726Y-80264000D01*
X109501031Y-80235937D01*
X109485504Y-80117993D01*
X109485502Y-80117989D01*
X109429149Y-79981942D01*
X109429147Y-79981937D01*
X109422362Y-79973095D01*
X109339498Y-79865104D01*
X109339497Y-79865103D01*
X109327584Y-79855962D01*
X109285718Y-79798627D01*
X109281494Y-79727756D01*
X109316257Y-79665853D01*
X109327584Y-79656038D01*
X109339497Y-79646897D01*
X109429147Y-79530063D01*
X109485504Y-79394007D01*
X109504726Y-79248000D01*
X109485504Y-79101993D01*
X109429147Y-78965937D01*
X109409657Y-78940537D01*
X109339497Y-78849102D01*
X109222669Y-78759457D01*
X109222665Y-78759455D01*
X109222663Y-78759453D01*
X109222660Y-78759451D01*
X109222657Y-78759450D01*
X109086610Y-78703097D01*
X109086606Y-78703095D01*
X108940600Y-78683874D01*
X108794593Y-78703095D01*
X108794589Y-78703097D01*
X108658542Y-78759450D01*
X108658530Y-78759457D01*
X108541702Y-78849102D01*
X108532562Y-78861015D01*
X108475224Y-78902882D01*
X108404353Y-78907104D01*
X108342450Y-78872340D01*
X108332638Y-78861015D01*
X108323497Y-78849102D01*
X108206669Y-78759457D01*
X108206665Y-78759455D01*
X108206663Y-78759453D01*
X108206660Y-78759451D01*
X108206657Y-78759450D01*
X108070610Y-78703097D01*
X108070606Y-78703095D01*
X107924600Y-78683874D01*
X107778593Y-78703095D01*
X107778589Y-78703097D01*
X107642542Y-78759450D01*
X107642530Y-78759457D01*
X107525702Y-78849102D01*
X107436057Y-78965930D01*
X107436050Y-78965942D01*
X107379697Y-79101989D01*
X107379695Y-79101993D01*
X107360474Y-79247999D01*
X98807982Y-79247999D01*
X98811326Y-79222600D01*
X98792104Y-79076593D01*
X98735747Y-78940537D01*
X98710093Y-78907104D01*
X98646097Y-78823702D01*
X98529269Y-78734057D01*
X98529265Y-78734055D01*
X98529263Y-78734053D01*
X98529260Y-78734051D01*
X98529257Y-78734050D01*
X98393210Y-78677697D01*
X98393206Y-78677695D01*
X98247200Y-78658474D01*
X98101193Y-78677695D01*
X98101189Y-78677697D01*
X97965142Y-78734050D01*
X97965130Y-78734057D01*
X97848302Y-78823702D01*
X97758657Y-78940530D01*
X97758650Y-78940542D01*
X97702297Y-79076589D01*
X97702295Y-79076593D01*
X97683074Y-79222599D01*
X87999334Y-79222599D01*
X88015276Y-78898075D01*
X88016488Y-78885775D01*
X88035227Y-78759450D01*
X88069338Y-78529491D01*
X88071745Y-78517388D01*
X88159265Y-78167985D01*
X88162851Y-78156168D01*
X88284191Y-77817047D01*
X88288916Y-77805635D01*
X88442918Y-77480027D01*
X88448745Y-77469126D01*
X88633917Y-77160184D01*
X88640774Y-77149923D01*
X88855336Y-76860619D01*
X88863163Y-76851081D01*
X89095326Y-76594930D01*
X140095101Y-76594930D01*
X140095101Y-78345063D01*
X140095102Y-78345073D01*
X140109866Y-78419300D01*
X140166117Y-78503484D01*
X140250298Y-78559733D01*
X140250300Y-78559734D01*
X140324534Y-78574500D01*
X142074667Y-78574499D01*
X142074670Y-78574498D01*
X142074674Y-78574498D01*
X142123927Y-78564701D01*
X142148902Y-78559734D01*
X142233085Y-78503484D01*
X142289335Y-78419301D01*
X142304101Y-78345067D01*
X142304100Y-77469995D01*
X142630369Y-77469995D01*
X142630369Y-77470004D01*
X142649255Y-77673819D01*
X142649256Y-77673821D01*
X142705273Y-77870701D01*
X142796513Y-78053935D01*
X142796514Y-78053936D01*
X142919867Y-78217284D01*
X143071137Y-78355185D01*
X143245167Y-78462940D01*
X143245169Y-78462940D01*
X143245174Y-78462944D01*
X143436045Y-78536888D01*
X143637254Y-78574500D01*
X143637256Y-78574500D01*
X143841946Y-78574500D01*
X143841948Y-78574500D01*
X144043157Y-78536888D01*
X144234028Y-78462944D01*
X144408063Y-78355186D01*
X144559333Y-78217285D01*
X144682689Y-78053935D01*
X144773929Y-77870701D01*
X144829946Y-77673821D01*
X144840102Y-77564224D01*
X144848833Y-77470004D01*
X144848833Y-77469995D01*
X147710369Y-77469995D01*
X147710369Y-77470004D01*
X147729255Y-77673819D01*
X147729256Y-77673821D01*
X147785273Y-77870701D01*
X147876513Y-78053935D01*
X147876514Y-78053936D01*
X147999867Y-78217284D01*
X148151137Y-78355185D01*
X148325167Y-78462940D01*
X148325169Y-78462940D01*
X148325174Y-78462944D01*
X148516045Y-78536888D01*
X148717254Y-78574500D01*
X148717256Y-78574500D01*
X148921946Y-78574500D01*
X148921948Y-78574500D01*
X149123157Y-78536888D01*
X149314028Y-78462944D01*
X149488063Y-78355186D01*
X149639333Y-78217285D01*
X149762689Y-78053935D01*
X149853929Y-77870701D01*
X149909946Y-77673821D01*
X149920102Y-77564224D01*
X149928833Y-77470004D01*
X149928833Y-77469995D01*
X150250369Y-77469995D01*
X150250369Y-77470004D01*
X150269255Y-77673819D01*
X150269256Y-77673821D01*
X150325273Y-77870701D01*
X150416513Y-78053935D01*
X150416514Y-78053936D01*
X150539867Y-78217284D01*
X150691137Y-78355185D01*
X150865167Y-78462940D01*
X150865169Y-78462940D01*
X150865174Y-78462944D01*
X151056045Y-78536888D01*
X151257254Y-78574500D01*
X151257256Y-78574500D01*
X151461946Y-78574500D01*
X151461948Y-78574500D01*
X151663157Y-78536888D01*
X151854028Y-78462944D01*
X152028063Y-78355186D01*
X152179333Y-78217285D01*
X152302689Y-78053935D01*
X152393929Y-77870701D01*
X152449946Y-77673821D01*
X152460102Y-77564224D01*
X152468833Y-77470004D01*
X152468833Y-77469995D01*
X152790369Y-77469995D01*
X152790369Y-77470004D01*
X152809255Y-77673819D01*
X152809256Y-77673821D01*
X152865273Y-77870701D01*
X152956513Y-78053935D01*
X152956514Y-78053936D01*
X153079867Y-78217284D01*
X153231137Y-78355185D01*
X153405167Y-78462940D01*
X153405169Y-78462940D01*
X153405174Y-78462944D01*
X153596045Y-78536888D01*
X153797254Y-78574500D01*
X153797256Y-78574500D01*
X154001946Y-78574500D01*
X154001948Y-78574500D01*
X154203157Y-78536888D01*
X154394028Y-78462944D01*
X154568063Y-78355186D01*
X154719333Y-78217285D01*
X154842689Y-78053935D01*
X154933929Y-77870701D01*
X154989946Y-77673821D01*
X155000102Y-77564224D01*
X155008833Y-77470004D01*
X155008833Y-77469995D01*
X155330369Y-77469995D01*
X155330369Y-77470004D01*
X155349255Y-77673819D01*
X155349256Y-77673821D01*
X155405273Y-77870701D01*
X155496513Y-78053935D01*
X155496514Y-78053936D01*
X155619867Y-78217284D01*
X155771137Y-78355185D01*
X155945167Y-78462940D01*
X155945169Y-78462940D01*
X155945174Y-78462944D01*
X156136045Y-78536888D01*
X156337254Y-78574500D01*
X156337256Y-78574500D01*
X156541946Y-78574500D01*
X156541948Y-78574500D01*
X156743157Y-78536888D01*
X156934028Y-78462944D01*
X157108063Y-78355186D01*
X157259333Y-78217285D01*
X157382689Y-78053935D01*
X157473929Y-77870701D01*
X157529946Y-77673821D01*
X157540102Y-77564224D01*
X157548833Y-77470004D01*
X157548833Y-77469995D01*
X157870369Y-77469995D01*
X157870369Y-77470004D01*
X157889255Y-77673819D01*
X157889256Y-77673821D01*
X157945273Y-77870701D01*
X158036513Y-78053935D01*
X158036514Y-78053936D01*
X158159867Y-78217284D01*
X158311137Y-78355185D01*
X158485167Y-78462940D01*
X158485169Y-78462940D01*
X158485174Y-78462944D01*
X158676045Y-78536888D01*
X158877254Y-78574500D01*
X158877256Y-78574500D01*
X159081946Y-78574500D01*
X159081948Y-78574500D01*
X159283157Y-78536888D01*
X159474028Y-78462944D01*
X159648063Y-78355186D01*
X159799333Y-78217285D01*
X159922689Y-78053935D01*
X160013929Y-77870701D01*
X160069946Y-77673821D01*
X160080102Y-77564224D01*
X160088833Y-77470004D01*
X160088833Y-77469995D01*
X160410369Y-77469995D01*
X160410369Y-77470004D01*
X160429255Y-77673819D01*
X160429256Y-77673821D01*
X160485273Y-77870701D01*
X160576513Y-78053935D01*
X160576514Y-78053936D01*
X160699867Y-78217284D01*
X160851137Y-78355185D01*
X161025167Y-78462940D01*
X161025169Y-78462940D01*
X161025174Y-78462944D01*
X161216045Y-78536888D01*
X161417254Y-78574500D01*
X161417256Y-78574500D01*
X161621946Y-78574500D01*
X161621948Y-78574500D01*
X161823157Y-78536888D01*
X162014028Y-78462944D01*
X162188063Y-78355186D01*
X162339333Y-78217285D01*
X162462689Y-78053935D01*
X162553929Y-77870701D01*
X162609946Y-77673821D01*
X162620102Y-77564224D01*
X162628833Y-77470004D01*
X162628833Y-77469995D01*
X162950369Y-77469995D01*
X162950369Y-77470004D01*
X162969255Y-77673819D01*
X162969256Y-77673821D01*
X163025273Y-77870701D01*
X163116513Y-78053935D01*
X163116514Y-78053936D01*
X163239867Y-78217284D01*
X163391137Y-78355185D01*
X163565167Y-78462940D01*
X163565169Y-78462940D01*
X163565174Y-78462944D01*
X163756045Y-78536888D01*
X163957254Y-78574500D01*
X163957256Y-78574500D01*
X164161946Y-78574500D01*
X164161948Y-78574500D01*
X164363157Y-78536888D01*
X164554028Y-78462944D01*
X164728063Y-78355186D01*
X164879333Y-78217285D01*
X165002689Y-78053935D01*
X165093929Y-77870701D01*
X165149946Y-77673821D01*
X165160102Y-77564224D01*
X165168833Y-77470004D01*
X165168833Y-77469995D01*
X165490369Y-77469995D01*
X165490369Y-77470004D01*
X165509255Y-77673819D01*
X165509256Y-77673821D01*
X165565273Y-77870701D01*
X165656513Y-78053935D01*
X165656514Y-78053936D01*
X165779867Y-78217284D01*
X165931137Y-78355185D01*
X166105167Y-78462940D01*
X166105169Y-78462940D01*
X166105174Y-78462944D01*
X166296045Y-78536888D01*
X166497254Y-78574500D01*
X166497256Y-78574500D01*
X166701946Y-78574500D01*
X166701948Y-78574500D01*
X166903157Y-78536888D01*
X167094028Y-78462944D01*
X167268063Y-78355186D01*
X167419333Y-78217285D01*
X167542689Y-78053935D01*
X167633929Y-77870701D01*
X167689946Y-77673821D01*
X167700102Y-77564224D01*
X167708833Y-77470004D01*
X167708833Y-77469995D01*
X168030369Y-77469995D01*
X168030369Y-77470004D01*
X168049255Y-77673819D01*
X168049256Y-77673821D01*
X168105273Y-77870701D01*
X168196513Y-78053935D01*
X168196514Y-78053936D01*
X168319867Y-78217284D01*
X168471137Y-78355185D01*
X168645167Y-78462940D01*
X168645169Y-78462940D01*
X168645174Y-78462944D01*
X168836045Y-78536888D01*
X169037254Y-78574500D01*
X169037256Y-78574500D01*
X169241946Y-78574500D01*
X169241948Y-78574500D01*
X169443157Y-78536888D01*
X169634028Y-78462944D01*
X169808063Y-78355186D01*
X169959333Y-78217285D01*
X170082689Y-78053935D01*
X170173929Y-77870701D01*
X170229946Y-77673821D01*
X170240102Y-77564224D01*
X170248833Y-77470004D01*
X170248833Y-77469995D01*
X170229946Y-77266180D01*
X170198281Y-77154889D01*
X170173929Y-77069299D01*
X170082689Y-76886065D01*
X170042139Y-76832368D01*
X169959334Y-76722715D01*
X169808064Y-76584814D01*
X169634034Y-76477059D01*
X169634029Y-76477057D01*
X169634028Y-76477056D01*
X169634023Y-76477054D01*
X169443160Y-76403113D01*
X169443161Y-76403113D01*
X169443158Y-76403112D01*
X169443157Y-76403112D01*
X169241948Y-76365500D01*
X169037254Y-76365500D01*
X168836045Y-76403112D01*
X168836040Y-76403113D01*
X168645178Y-76477054D01*
X168645167Y-76477059D01*
X168471137Y-76584814D01*
X168319867Y-76722715D01*
X168196514Y-76886063D01*
X168105272Y-77069301D01*
X168049255Y-77266180D01*
X168030369Y-77469995D01*
X167708833Y-77469995D01*
X167689946Y-77266180D01*
X167658281Y-77154889D01*
X167633929Y-77069299D01*
X167542689Y-76886065D01*
X167502139Y-76832368D01*
X167419334Y-76722715D01*
X167268064Y-76584814D01*
X167094034Y-76477059D01*
X167094029Y-76477057D01*
X167094028Y-76477056D01*
X167094023Y-76477054D01*
X166903160Y-76403113D01*
X166903161Y-76403113D01*
X166903158Y-76403112D01*
X166903157Y-76403112D01*
X166701948Y-76365500D01*
X166497254Y-76365500D01*
X166296045Y-76403112D01*
X166296040Y-76403113D01*
X166105178Y-76477054D01*
X166105167Y-76477059D01*
X165931137Y-76584814D01*
X165779867Y-76722715D01*
X165656514Y-76886063D01*
X165565272Y-77069301D01*
X165509255Y-77266180D01*
X165490369Y-77469995D01*
X165168833Y-77469995D01*
X165149946Y-77266180D01*
X165118281Y-77154889D01*
X165093929Y-77069299D01*
X165002689Y-76886065D01*
X164962139Y-76832368D01*
X164879334Y-76722715D01*
X164728064Y-76584814D01*
X164554034Y-76477059D01*
X164554029Y-76477057D01*
X164554028Y-76477056D01*
X164554023Y-76477054D01*
X164363160Y-76403113D01*
X164363161Y-76403113D01*
X164363158Y-76403112D01*
X164363157Y-76403112D01*
X164161948Y-76365500D01*
X163957254Y-76365500D01*
X163756045Y-76403112D01*
X163756040Y-76403113D01*
X163565178Y-76477054D01*
X163565167Y-76477059D01*
X163391137Y-76584814D01*
X163239867Y-76722715D01*
X163116514Y-76886063D01*
X163025272Y-77069301D01*
X162969255Y-77266180D01*
X162950369Y-77469995D01*
X162628833Y-77469995D01*
X162609946Y-77266180D01*
X162578281Y-77154889D01*
X162553929Y-77069299D01*
X162462689Y-76886065D01*
X162422139Y-76832368D01*
X162339334Y-76722715D01*
X162188064Y-76584814D01*
X162014034Y-76477059D01*
X162014029Y-76477057D01*
X162014028Y-76477056D01*
X162014023Y-76477054D01*
X161823160Y-76403113D01*
X161823161Y-76403113D01*
X161823158Y-76403112D01*
X161823157Y-76403112D01*
X161621948Y-76365500D01*
X161417254Y-76365500D01*
X161216045Y-76403112D01*
X161216040Y-76403113D01*
X161025178Y-76477054D01*
X161025167Y-76477059D01*
X160851137Y-76584814D01*
X160699867Y-76722715D01*
X160576514Y-76886063D01*
X160485272Y-77069301D01*
X160429255Y-77266180D01*
X160410369Y-77469995D01*
X160088833Y-77469995D01*
X160069946Y-77266180D01*
X160038281Y-77154889D01*
X160013929Y-77069299D01*
X159922689Y-76886065D01*
X159882139Y-76832368D01*
X159799334Y-76722715D01*
X159648064Y-76584814D01*
X159474034Y-76477059D01*
X159474029Y-76477057D01*
X159474028Y-76477056D01*
X159474023Y-76477054D01*
X159283160Y-76403113D01*
X159283161Y-76403113D01*
X159283158Y-76403112D01*
X159283157Y-76403112D01*
X159081948Y-76365500D01*
X158877254Y-76365500D01*
X158676045Y-76403112D01*
X158676040Y-76403113D01*
X158485178Y-76477054D01*
X158485167Y-76477059D01*
X158311137Y-76584814D01*
X158159867Y-76722715D01*
X158036514Y-76886063D01*
X157945272Y-77069301D01*
X157889255Y-77266180D01*
X157870369Y-77469995D01*
X157548833Y-77469995D01*
X157529946Y-77266180D01*
X157498281Y-77154889D01*
X157473929Y-77069299D01*
X157382689Y-76886065D01*
X157342139Y-76832368D01*
X157259334Y-76722715D01*
X157108064Y-76584814D01*
X156934034Y-76477059D01*
X156934029Y-76477057D01*
X156934028Y-76477056D01*
X156934023Y-76477054D01*
X156743160Y-76403113D01*
X156743161Y-76403113D01*
X156743158Y-76403112D01*
X156743157Y-76403112D01*
X156541948Y-76365500D01*
X156337254Y-76365500D01*
X156136045Y-76403112D01*
X156136040Y-76403113D01*
X155945178Y-76477054D01*
X155945167Y-76477059D01*
X155771137Y-76584814D01*
X155619867Y-76722715D01*
X155496514Y-76886063D01*
X155405272Y-77069301D01*
X155349255Y-77266180D01*
X155330369Y-77469995D01*
X155008833Y-77469995D01*
X154989946Y-77266180D01*
X154958281Y-77154889D01*
X154933929Y-77069299D01*
X154842689Y-76886065D01*
X154802139Y-76832368D01*
X154719334Y-76722715D01*
X154568064Y-76584814D01*
X154394034Y-76477059D01*
X154394029Y-76477057D01*
X154394028Y-76477056D01*
X154394023Y-76477054D01*
X154203160Y-76403113D01*
X154203161Y-76403113D01*
X154203158Y-76403112D01*
X154203157Y-76403112D01*
X154001948Y-76365500D01*
X153797254Y-76365500D01*
X153596045Y-76403112D01*
X153596040Y-76403113D01*
X153405178Y-76477054D01*
X153405167Y-76477059D01*
X153231137Y-76584814D01*
X153079867Y-76722715D01*
X152956514Y-76886063D01*
X152865272Y-77069301D01*
X152809255Y-77266180D01*
X152790369Y-77469995D01*
X152468833Y-77469995D01*
X152449946Y-77266180D01*
X152418281Y-77154889D01*
X152393929Y-77069299D01*
X152302689Y-76886065D01*
X152262139Y-76832368D01*
X152179334Y-76722715D01*
X152028064Y-76584814D01*
X151854034Y-76477059D01*
X151854029Y-76477057D01*
X151854028Y-76477056D01*
X151854023Y-76477054D01*
X151663160Y-76403113D01*
X151663161Y-76403113D01*
X151663158Y-76403112D01*
X151663157Y-76403112D01*
X151461948Y-76365500D01*
X151257254Y-76365500D01*
X151056045Y-76403112D01*
X151056040Y-76403113D01*
X150865178Y-76477054D01*
X150865167Y-76477059D01*
X150691137Y-76584814D01*
X150539867Y-76722715D01*
X150416514Y-76886063D01*
X150325272Y-77069301D01*
X150269255Y-77266180D01*
X150250369Y-77469995D01*
X149928833Y-77469995D01*
X149909946Y-77266180D01*
X149878281Y-77154889D01*
X149853929Y-77069299D01*
X149762689Y-76886065D01*
X149722139Y-76832368D01*
X149639334Y-76722715D01*
X149488064Y-76584814D01*
X149314034Y-76477059D01*
X149314029Y-76477057D01*
X149314028Y-76477056D01*
X149314023Y-76477054D01*
X149123160Y-76403113D01*
X149123161Y-76403113D01*
X149123158Y-76403112D01*
X149123157Y-76403112D01*
X148921948Y-76365500D01*
X148717254Y-76365500D01*
X148516045Y-76403112D01*
X148516040Y-76403113D01*
X148325178Y-76477054D01*
X148325167Y-76477059D01*
X148151137Y-76584814D01*
X147999867Y-76722715D01*
X147876514Y-76886063D01*
X147785272Y-77069301D01*
X147729255Y-77266180D01*
X147710369Y-77469995D01*
X144848833Y-77469995D01*
X144829946Y-77266180D01*
X144798281Y-77154889D01*
X144773929Y-77069299D01*
X144682689Y-76886065D01*
X144642139Y-76832368D01*
X144559334Y-76722715D01*
X144408064Y-76584814D01*
X144234034Y-76477059D01*
X144234029Y-76477057D01*
X144234028Y-76477056D01*
X144234023Y-76477054D01*
X144043160Y-76403113D01*
X144043161Y-76403113D01*
X144043158Y-76403112D01*
X144043157Y-76403112D01*
X143841948Y-76365500D01*
X143637254Y-76365500D01*
X143436045Y-76403112D01*
X143436040Y-76403113D01*
X143245178Y-76477054D01*
X143245167Y-76477059D01*
X143071137Y-76584814D01*
X142919867Y-76722715D01*
X142796514Y-76886063D01*
X142705272Y-77069301D01*
X142649255Y-77266180D01*
X142630369Y-77469995D01*
X142304100Y-77469995D01*
X142304100Y-76594934D01*
X142304099Y-76594930D01*
X142304099Y-76594926D01*
X142289335Y-76520699D01*
X142233084Y-76436515D01*
X142148903Y-76380266D01*
X142074668Y-76365500D01*
X140324537Y-76365500D01*
X140324527Y-76365501D01*
X140250300Y-76380265D01*
X140166116Y-76436516D01*
X140109867Y-76520697D01*
X140095101Y-76594930D01*
X89095326Y-76594930D01*
X89105059Y-76584191D01*
X89113791Y-76575459D01*
X89380681Y-76333563D01*
X89390219Y-76325736D01*
X89679523Y-76111174D01*
X89689784Y-76104317D01*
X89998730Y-75919142D01*
X90009631Y-75913316D01*
X90335235Y-75759316D01*
X90346647Y-75754591D01*
X90685768Y-75633251D01*
X90697585Y-75629665D01*
X91046988Y-75542145D01*
X91059091Y-75539738D01*
X91415380Y-75486887D01*
X91427675Y-75485676D01*
X91790506Y-75467852D01*
X91796688Y-75467700D01*
X91834119Y-75467700D01*
X203753081Y-75467700D01*
X203790512Y-75467700D01*
X203796694Y-75467852D01*
G37*
%TD.AperFunction*%
%TD*%
%TA.AperFunction,Conductor*%
%TO.N,GNDA*%
G36*
X150396007Y-95520616D02*
G01*
X150402005Y-95524079D01*
X150538061Y-95580436D01*
X150580560Y-95586031D01*
X150684067Y-95599658D01*
X150684068Y-95599658D01*
X150684069Y-95599658D01*
X150732737Y-95593250D01*
X150830075Y-95580436D01*
X150966131Y-95524079D01*
X150966134Y-95524076D01*
X150972129Y-95520616D01*
X151034134Y-95504000D01*
X153456508Y-95504000D01*
X153470429Y-95504783D01*
X153619592Y-95521637D01*
X153646723Y-95527847D01*
X153781750Y-95575235D01*
X153806806Y-95587341D01*
X153927843Y-95663655D01*
X153949579Y-95681055D01*
X154050536Y-95782450D01*
X154067842Y-95804262D01*
X154143628Y-95925624D01*
X154155631Y-95950747D01*
X154199221Y-96076696D01*
X154202427Y-96085957D01*
X154208522Y-96113126D01*
X154224728Y-96262357D01*
X154225452Y-96276281D01*
X154218185Y-97953425D01*
X154215265Y-98627301D01*
X154214610Y-98778360D01*
X154214609Y-98778532D01*
X154214599Y-98780282D01*
X154214597Y-98780600D01*
X154214580Y-98782652D01*
X154214578Y-98782830D01*
X154134593Y-107011559D01*
X154133690Y-107025339D01*
X154115724Y-107172918D01*
X154109369Y-107199750D01*
X154093877Y-107242999D01*
X154092688Y-107246317D01*
X154051549Y-107302791D01*
X153986408Y-107328058D01*
X153975952Y-107328500D01*
X153797254Y-107328500D01*
X153596045Y-107366112D01*
X153596042Y-107366112D01*
X153596042Y-107366113D01*
X153405176Y-107440054D01*
X153405170Y-107440057D01*
X153231140Y-107547812D01*
X153231138Y-107547814D01*
X153079871Y-107685711D01*
X153050746Y-107724279D01*
X152994636Y-107765914D01*
X152951936Y-107773550D01*
X152308110Y-107774291D01*
X152241048Y-107754684D01*
X152209013Y-107725018D01*
X152179331Y-107685712D01*
X152028063Y-107547814D01*
X152028061Y-107547812D01*
X151854031Y-107440057D01*
X151854025Y-107440054D01*
X151703594Y-107381777D01*
X151663157Y-107366112D01*
X151461948Y-107328500D01*
X151257254Y-107328500D01*
X151056045Y-107366112D01*
X151056042Y-107366112D01*
X151056042Y-107366113D01*
X150865176Y-107440054D01*
X150865170Y-107440057D01*
X150691140Y-107547812D01*
X150691138Y-107547814D01*
X150539871Y-107685711D01*
X150508538Y-107727203D01*
X150452428Y-107768838D01*
X150409728Y-107776474D01*
X149847901Y-107777120D01*
X149770314Y-107777209D01*
X149703253Y-107757603D01*
X149671218Y-107727937D01*
X149639331Y-107685713D01*
X149488063Y-107547814D01*
X149488061Y-107547812D01*
X149314031Y-107440057D01*
X149314025Y-107440054D01*
X149163594Y-107381777D01*
X149123157Y-107366112D01*
X148921948Y-107328500D01*
X148717254Y-107328500D01*
X148516045Y-107366112D01*
X148516042Y-107366112D01*
X148516042Y-107366113D01*
X148325176Y-107440054D01*
X148325170Y-107440057D01*
X148151140Y-107547812D01*
X148151138Y-107547814D01*
X147999869Y-107685713D01*
X147999869Y-107685714D01*
X147966330Y-107730126D01*
X147910220Y-107771761D01*
X147867520Y-107779398D01*
X147232518Y-107780128D01*
X147165456Y-107760520D01*
X147133421Y-107730855D01*
X147132870Y-107730126D01*
X147099333Y-107685715D01*
X147099331Y-107685712D01*
X146948063Y-107547814D01*
X146948061Y-107547812D01*
X146774031Y-107440057D01*
X146774025Y-107440054D01*
X146623594Y-107381777D01*
X146583157Y-107366112D01*
X146381948Y-107328500D01*
X146177254Y-107328500D01*
X145976045Y-107366112D01*
X145976042Y-107366112D01*
X145976042Y-107366113D01*
X145785176Y-107440054D01*
X145785170Y-107440057D01*
X145611140Y-107547812D01*
X145611138Y-107547814D01*
X145459869Y-107685713D01*
X145459869Y-107685714D01*
X145424122Y-107733050D01*
X145368013Y-107774685D01*
X145325312Y-107782322D01*
X144694723Y-107783047D01*
X144627661Y-107763439D01*
X144595626Y-107733774D01*
X144559331Y-107685713D01*
X144408063Y-107547814D01*
X144408061Y-107547812D01*
X144234031Y-107440057D01*
X144234025Y-107440054D01*
X144083594Y-107381777D01*
X144043157Y-107366112D01*
X143841948Y-107328500D01*
X143637254Y-107328500D01*
X143436045Y-107366112D01*
X143436042Y-107366112D01*
X143436042Y-107366113D01*
X143245176Y-107440054D01*
X143245170Y-107440057D01*
X143071140Y-107547812D01*
X143071138Y-107547814D01*
X142919870Y-107685712D01*
X142881912Y-107735975D01*
X142825801Y-107777609D01*
X142783103Y-107785245D01*
X142433942Y-107785647D01*
X142428242Y-107785653D01*
X142361181Y-107766047D01*
X142315365Y-107713295D01*
X142304100Y-107661654D01*
X142304100Y-107557936D01*
X142304100Y-107557934D01*
X142289335Y-107483699D01*
X142260172Y-107440054D01*
X142233085Y-107399515D01*
X142182620Y-107365796D01*
X142148902Y-107343266D01*
X142148900Y-107343265D01*
X142148897Y-107343264D01*
X142074670Y-107328500D01*
X140324537Y-107328500D01*
X140250299Y-107343266D01*
X140166116Y-107399515D01*
X140109867Y-107483699D01*
X140109865Y-107483703D01*
X140095101Y-107557928D01*
X140095101Y-107664480D01*
X140075416Y-107731519D01*
X140022612Y-107777274D01*
X139971245Y-107788479D01*
X110726442Y-107822113D01*
X110712548Y-107821349D01*
X110563665Y-107804735D01*
X110536568Y-107798578D01*
X110401748Y-107751539D01*
X110376703Y-107739504D01*
X110290950Y-107685711D01*
X110255731Y-107663618D01*
X110234000Y-107646310D01*
X110132967Y-107545393D01*
X110115639Y-107523687D01*
X110039612Y-107402801D01*
X110027550Y-107377775D01*
X109980353Y-107242999D01*
X109974166Y-107215910D01*
X109957381Y-107067049D01*
X109956600Y-107053155D01*
X109956600Y-101726998D01*
X118663474Y-101726998D01*
X118663474Y-101727001D01*
X118682695Y-101873005D01*
X118682696Y-101873007D01*
X118739053Y-102009063D01*
X118828703Y-102125897D01*
X118945537Y-102215547D01*
X119081593Y-102271904D01*
X119154596Y-102281515D01*
X119227599Y-102291126D01*
X119227600Y-102291126D01*
X119227601Y-102291126D01*
X119276269Y-102284718D01*
X119373607Y-102271904D01*
X119509663Y-102215547D01*
X119626497Y-102125897D01*
X119716147Y-102009063D01*
X119772504Y-101873007D01*
X119791726Y-101727000D01*
X119791726Y-101726998D01*
X120949474Y-101726998D01*
X120949474Y-101727001D01*
X120968695Y-101873005D01*
X120968696Y-101873007D01*
X121025053Y-102009063D01*
X121114703Y-102125897D01*
X121231537Y-102215547D01*
X121367593Y-102271904D01*
X121440596Y-102281515D01*
X121513599Y-102291126D01*
X121513600Y-102291126D01*
X121513601Y-102291126D01*
X121562269Y-102284718D01*
X121659607Y-102271904D01*
X121795663Y-102215547D01*
X121912497Y-102125897D01*
X122002147Y-102009063D01*
X122058504Y-101873007D01*
X122077726Y-101727000D01*
X122073416Y-101694265D01*
X122058504Y-101580994D01*
X122058504Y-101580993D01*
X122002147Y-101444937D01*
X121912497Y-101328103D01*
X121795663Y-101238453D01*
X121795659Y-101238451D01*
X121659607Y-101182096D01*
X121659605Y-101182095D01*
X121513601Y-101162874D01*
X121513599Y-101162874D01*
X121367594Y-101182095D01*
X121367592Y-101182096D01*
X121231540Y-101238451D01*
X121231537Y-101238452D01*
X121231537Y-101238453D01*
X121123148Y-101321623D01*
X121114703Y-101328103D01*
X121025051Y-101444940D01*
X120968696Y-101580992D01*
X120968695Y-101580994D01*
X120949474Y-101726998D01*
X119791726Y-101726998D01*
X119787416Y-101694265D01*
X119772504Y-101580994D01*
X119772504Y-101580993D01*
X119716147Y-101444937D01*
X119626497Y-101328103D01*
X119509663Y-101238453D01*
X119509659Y-101238451D01*
X119373607Y-101182096D01*
X119373605Y-101182095D01*
X119227601Y-101162874D01*
X119227599Y-101162874D01*
X119081594Y-101182095D01*
X119081592Y-101182096D01*
X118945540Y-101238451D01*
X118945537Y-101238452D01*
X118945537Y-101238453D01*
X118837148Y-101321623D01*
X118828703Y-101328103D01*
X118739051Y-101444940D01*
X118682696Y-101580992D01*
X118682695Y-101580994D01*
X118663474Y-101726998D01*
X109956600Y-101726998D01*
X109956600Y-100329998D01*
X118663474Y-100329998D01*
X118663474Y-100330001D01*
X118682695Y-100476005D01*
X118682696Y-100476007D01*
X118739053Y-100612063D01*
X118828703Y-100728897D01*
X118945537Y-100818547D01*
X119081593Y-100874904D01*
X119154596Y-100884515D01*
X119227599Y-100894126D01*
X119227600Y-100894126D01*
X119227601Y-100894126D01*
X119276269Y-100887718D01*
X119373607Y-100874904D01*
X119509663Y-100818547D01*
X119626497Y-100728897D01*
X119716147Y-100612063D01*
X119772504Y-100476007D01*
X119791726Y-100330000D01*
X119791726Y-100329998D01*
X120949474Y-100329998D01*
X120949474Y-100330001D01*
X120968695Y-100476005D01*
X120968696Y-100476007D01*
X121025053Y-100612063D01*
X121114703Y-100728897D01*
X121231537Y-100818547D01*
X121367593Y-100874904D01*
X121440596Y-100884515D01*
X121513599Y-100894126D01*
X121513600Y-100894126D01*
X121513601Y-100894126D01*
X121562269Y-100887718D01*
X121659607Y-100874904D01*
X121795663Y-100818547D01*
X121912497Y-100728897D01*
X122002147Y-100612063D01*
X122058504Y-100476007D01*
X122077726Y-100330000D01*
X122058504Y-100183993D01*
X122002147Y-100047937D01*
X121912497Y-99931103D01*
X121795663Y-99841453D01*
X121795659Y-99841451D01*
X121659607Y-99785096D01*
X121659605Y-99785095D01*
X121513601Y-99765874D01*
X121513599Y-99765874D01*
X121367594Y-99785095D01*
X121367592Y-99785096D01*
X121231540Y-99841451D01*
X121231537Y-99841452D01*
X121231537Y-99841453D01*
X121114703Y-99931103D01*
X121053688Y-100010620D01*
X121025051Y-100047940D01*
X120968696Y-100183992D01*
X120968695Y-100183994D01*
X120949474Y-100329998D01*
X119791726Y-100329998D01*
X119772504Y-100183993D01*
X119716147Y-100047937D01*
X119626497Y-99931103D01*
X119509663Y-99841453D01*
X119509659Y-99841451D01*
X119373607Y-99785096D01*
X119373605Y-99785095D01*
X119227601Y-99765874D01*
X119227599Y-99765874D01*
X119081594Y-99785095D01*
X119081592Y-99785096D01*
X118945540Y-99841451D01*
X118945537Y-99841452D01*
X118945537Y-99841453D01*
X118828703Y-99931103D01*
X118767688Y-100010620D01*
X118739051Y-100047940D01*
X118682696Y-100183992D01*
X118682695Y-100183994D01*
X118663474Y-100329998D01*
X109956600Y-100329998D01*
X109956600Y-99320733D01*
X109957379Y-99306852D01*
X109968265Y-99210218D01*
X109974135Y-99158111D01*
X109980309Y-99131056D01*
X110027422Y-98996386D01*
X110039460Y-98971384D01*
X110115353Y-98850571D01*
X110132651Y-98828873D01*
X110233527Y-98727966D01*
X110255220Y-98710661D01*
X110376004Y-98634735D01*
X110401011Y-98622686D01*
X110497765Y-98588803D01*
X110535663Y-98575531D01*
X110562722Y-98569348D01*
X110711458Y-98552547D01*
X110725309Y-98551764D01*
X124718862Y-98547485D01*
X124785907Y-98567149D01*
X124831678Y-98619939D01*
X124841642Y-98689095D01*
X124812637Y-98752659D01*
X124772700Y-98783205D01*
X124535231Y-98897563D01*
X124535229Y-98897564D01*
X124311858Y-99049855D01*
X124113691Y-99233726D01*
X123945136Y-99445089D01*
X123809967Y-99679207D01*
X123711204Y-99930852D01*
X123711198Y-99930871D01*
X123651045Y-100194421D01*
X123651044Y-100194426D01*
X123630844Y-100463993D01*
X123630844Y-100464002D01*
X123651044Y-100733569D01*
X123651045Y-100733574D01*
X123711198Y-100997124D01*
X123711200Y-100997133D01*
X123711202Y-100997138D01*
X123809967Y-101248788D01*
X123945136Y-101482907D01*
X124081274Y-101653620D01*
X124113691Y-101694269D01*
X124246580Y-101817571D01*
X124311859Y-101878141D01*
X124535223Y-102030428D01*
X124535228Y-102030430D01*
X124535229Y-102030431D01*
X124535230Y-102030432D01*
X124664587Y-102092726D01*
X124778784Y-102147720D01*
X124778785Y-102147720D01*
X124778788Y-102147722D01*
X125037115Y-102227406D01*
X125037116Y-102227406D01*
X125037119Y-102227407D01*
X125304424Y-102267696D01*
X125304429Y-102267696D01*
X125304432Y-102267697D01*
X125304433Y-102267697D01*
X125574769Y-102267697D01*
X125574770Y-102267697D01*
X125574777Y-102267696D01*
X125842082Y-102227407D01*
X125842083Y-102227406D01*
X125842087Y-102227406D01*
X126100414Y-102147722D01*
X126343980Y-102030428D01*
X126567343Y-101878141D01*
X126765514Y-101694265D01*
X126934066Y-101482907D01*
X127069235Y-101248788D01*
X127168000Y-100997138D01*
X127228156Y-100733579D01*
X127228507Y-100728896D01*
X127248358Y-100464002D01*
X127248358Y-100463993D01*
X127228157Y-100194426D01*
X127228156Y-100194421D01*
X127228156Y-100194417D01*
X127168000Y-99930858D01*
X127069235Y-99679208D01*
X126934066Y-99445089D01*
X126765514Y-99233731D01*
X126765513Y-99233730D01*
X126765510Y-99233726D01*
X126567343Y-99049855D01*
X126343980Y-98897568D01*
X126343976Y-98897566D01*
X126343973Y-98897564D01*
X126343972Y-98897563D01*
X126105586Y-98782764D01*
X126053726Y-98735942D01*
X126035413Y-98668515D01*
X126056461Y-98601891D01*
X126110187Y-98557223D01*
X126159344Y-98547044D01*
X148031237Y-98540356D01*
X148047689Y-96570798D01*
X148965674Y-96570798D01*
X148965674Y-96570801D01*
X148984895Y-96716805D01*
X148984896Y-96716807D01*
X149005937Y-96767605D01*
X149041253Y-96852863D01*
X149130903Y-96969697D01*
X149247737Y-97059347D01*
X149383793Y-97115704D01*
X149456796Y-97125315D01*
X149529799Y-97134926D01*
X149529800Y-97134926D01*
X149529801Y-97134926D01*
X149578469Y-97128518D01*
X149675807Y-97115704D01*
X149811863Y-97059347D01*
X149928697Y-96969697D01*
X150018347Y-96852863D01*
X150074704Y-96716807D01*
X150093926Y-96570800D01*
X150093926Y-96570798D01*
X150438874Y-96570798D01*
X150438874Y-96570801D01*
X150458095Y-96716805D01*
X150458096Y-96716807D01*
X150479137Y-96767605D01*
X150514453Y-96852863D01*
X150604103Y-96969697D01*
X150720937Y-97059347D01*
X150856993Y-97115704D01*
X150929996Y-97125315D01*
X151002999Y-97134926D01*
X151003000Y-97134926D01*
X151003001Y-97134926D01*
X151051669Y-97128518D01*
X151149007Y-97115704D01*
X151285063Y-97059347D01*
X151401897Y-96969697D01*
X151491547Y-96852863D01*
X151547904Y-96716807D01*
X151560438Y-96621598D01*
X151937474Y-96621598D01*
X151937474Y-96621601D01*
X151956695Y-96767605D01*
X151956696Y-96767607D01*
X151992010Y-96852863D01*
X152013053Y-96903663D01*
X152102703Y-97020497D01*
X152102706Y-97020499D01*
X152175185Y-97076115D01*
X152216387Y-97132543D01*
X152220542Y-97202289D01*
X152186329Y-97263209D01*
X152175186Y-97272864D01*
X152153506Y-97289500D01*
X152153504Y-97289501D01*
X152153503Y-97289503D01*
X152063853Y-97406337D01*
X152063851Y-97406340D01*
X152007496Y-97542392D01*
X152007495Y-97542394D01*
X151988274Y-97688398D01*
X151988274Y-97688401D01*
X152007495Y-97834405D01*
X152007496Y-97834407D01*
X152056795Y-97953425D01*
X152063853Y-97970463D01*
X152153503Y-98087297D01*
X152270337Y-98176947D01*
X152406393Y-98233304D01*
X152479396Y-98242915D01*
X152552399Y-98252526D01*
X152552400Y-98252526D01*
X152552401Y-98252526D01*
X152601069Y-98246118D01*
X152698407Y-98233304D01*
X152834463Y-98176947D01*
X152951297Y-98087297D01*
X153040947Y-97970463D01*
X153097304Y-97834407D01*
X153116526Y-97688400D01*
X153097304Y-97542393D01*
X153040947Y-97406337D01*
X152951297Y-97289503D01*
X152917030Y-97263209D01*
X152878814Y-97233884D01*
X152837612Y-97177456D01*
X152833457Y-97107710D01*
X152867670Y-97046790D01*
X152878810Y-97037137D01*
X152900497Y-97020497D01*
X152990147Y-96903663D01*
X153046504Y-96767607D01*
X153065726Y-96621600D01*
X153065375Y-96618937D01*
X153046504Y-96475594D01*
X153046504Y-96475593D01*
X152990147Y-96339537D01*
X152900497Y-96222703D01*
X152783663Y-96133053D01*
X152783659Y-96133051D01*
X152647607Y-96076696D01*
X152647605Y-96076695D01*
X152501601Y-96057474D01*
X152501599Y-96057474D01*
X152355594Y-96076695D01*
X152355592Y-96076696D01*
X152219540Y-96133051D01*
X152219537Y-96133052D01*
X152219537Y-96133053D01*
X152102703Y-96222703D01*
X152015097Y-96336874D01*
X152013051Y-96339540D01*
X151956696Y-96475592D01*
X151956695Y-96475594D01*
X151937474Y-96621598D01*
X151560438Y-96621598D01*
X151567126Y-96570800D01*
X151547904Y-96424793D01*
X151491547Y-96288737D01*
X151401897Y-96171903D01*
X151285063Y-96082253D01*
X151285059Y-96082251D01*
X151149007Y-96025896D01*
X151149005Y-96025895D01*
X151003001Y-96006674D01*
X151002999Y-96006674D01*
X150856994Y-96025895D01*
X150856992Y-96025896D01*
X150720940Y-96082251D01*
X150720937Y-96082252D01*
X150720937Y-96082253D01*
X150654736Y-96133051D01*
X150604103Y-96171903D01*
X150514451Y-96288740D01*
X150458096Y-96424792D01*
X150458095Y-96424794D01*
X150438874Y-96570798D01*
X150093926Y-96570798D01*
X150074704Y-96424793D01*
X150018347Y-96288737D01*
X149928697Y-96171903D01*
X149811863Y-96082253D01*
X149811859Y-96082251D01*
X149675807Y-96025896D01*
X149675805Y-96025895D01*
X149529801Y-96006674D01*
X149529799Y-96006674D01*
X149383794Y-96025895D01*
X149383792Y-96025896D01*
X149247740Y-96082251D01*
X149247737Y-96082252D01*
X149247737Y-96082253D01*
X149181536Y-96133051D01*
X149130903Y-96171903D01*
X149041251Y-96288740D01*
X148984896Y-96424792D01*
X148984895Y-96424794D01*
X148965674Y-96570798D01*
X148047689Y-96570798D01*
X148050230Y-96266555D01*
X148051117Y-96252755D01*
X148054739Y-96222703D01*
X148068936Y-96104917D01*
X148075275Y-96078038D01*
X148093905Y-96025896D01*
X148123033Y-95944372D01*
X148135159Y-95919571D01*
X148211328Y-95799781D01*
X148228640Y-95778284D01*
X148329435Y-95678327D01*
X148351082Y-95661192D01*
X148471497Y-95586031D01*
X148496397Y-95574111D01*
X148630470Y-95527466D01*
X148657390Y-95521356D01*
X148785794Y-95506966D01*
X148805383Y-95504771D01*
X148819192Y-95504000D01*
X150334002Y-95504000D01*
X150396007Y-95520616D01*
G37*
%TD.AperFunction*%
%TD*%
M02*
