%TF.GenerationSoftware,KiCad,Pcbnew,8.0.8*%
%TF.CreationDate,2025-02-17T13:53:59-05:00*%
%TF.ProjectId,flashlight-stm32-dev,666c6173-686c-4696-9768-742d73746d33,rev?*%
%TF.SameCoordinates,Original*%
%TF.FileFunction,Copper,L5,Inr*%
%TF.FilePolarity,Positive*%
%FSLAX46Y46*%
G04 Gerber Fmt 4.6, Leading zero omitted, Abs format (unit mm)*
G04 Created by KiCad (PCBNEW 8.0.8) date 2025-02-17 13:53:59*
%MOMM*%
%LPD*%
G01*
G04 APERTURE LIST*
G04 Aperture macros list*
%AMRoundRect*
0 Rectangle with rounded corners*
0 $1 Rounding radius*
0 $2 $3 $4 $5 $6 $7 $8 $9 X,Y pos of 4 corners*
0 Add a 4 corners polygon primitive as box body*
4,1,4,$2,$3,$4,$5,$6,$7,$8,$9,$2,$3,0*
0 Add four circle primitives for the rounded corners*
1,1,$1+$1,$2,$3*
1,1,$1+$1,$4,$5*
1,1,$1+$1,$6,$7*
1,1,$1+$1,$8,$9*
0 Add four rect primitives between the rounded corners*
20,1,$1+$1,$2,$3,$4,$5,0*
20,1,$1+$1,$4,$5,$6,$7,0*
20,1,$1+$1,$6,$7,$8,$9,0*
20,1,$1+$1,$8,$9,$2,$3,0*%
G04 Aperture macros list end*
%TA.AperFunction,ComponentPad*%
%ADD10C,5.400000*%
%TD*%
%TA.AperFunction,ComponentPad*%
%ADD11RoundRect,0.450000X0.450000X-0.450000X0.450000X0.450000X-0.450000X0.450000X-0.450000X-0.450000X0*%
%TD*%
%TA.AperFunction,ComponentPad*%
%ADD12C,1.800000*%
%TD*%
%TA.AperFunction,ComponentPad*%
%ADD13R,1.700000X1.700000*%
%TD*%
%TA.AperFunction,ComponentPad*%
%ADD14O,1.700000X1.700000*%
%TD*%
%TA.AperFunction,ComponentPad*%
%ADD15O,1.600000X0.800000*%
%TD*%
%TA.AperFunction,ComponentPad*%
%ADD16C,3.000000*%
%TD*%
%TA.AperFunction,ViaPad*%
%ADD17C,0.609600*%
%TD*%
%TA.AperFunction,Conductor*%
%ADD18C,0.203200*%
%TD*%
G04 APERTURE END LIST*
D10*
%TO.N,GND*%
%TO.C,H1*%
X102344000Y-116840000D03*
%TD*%
D11*
%TO.N,Net-(D1-BK)*%
%TO.C,D1*%
X108838999Y-119253000D03*
D12*
%TO.N,+3.3V*%
X110363000Y-117475000D03*
%TO.N,Net-(D1-RK)*%
X108838999Y-115951000D03*
%TO.N,Net-(D1-GK)*%
X110363000Y-114427001D03*
%TD*%
D10*
%TO.N,GND*%
%TO.C,H2*%
X212344000Y-116840000D03*
%TD*%
%TO.N,GND*%
%TO.C,H4*%
X212344000Y-141840000D03*
%TD*%
D13*
%TO.N,+3.3V*%
%TO.C,J2*%
X212344000Y-125838000D03*
D14*
%TO.N,/SWD*%
X212344000Y-128378000D03*
%TO.N,/SCK*%
X212344000Y-130918000D03*
%TO.N,GND*%
X212344000Y-133458000D03*
%TD*%
D13*
%TO.N,/PA1*%
%TO.C,J3*%
X153290001Y-145009000D03*
D14*
%TO.N,/PA2*%
X155830001Y-145009000D03*
%TO.N,/PA3*%
X158370001Y-145009000D03*
%TO.N,/PA4*%
X160910001Y-145009000D03*
%TO.N,/PA5*%
X163450001Y-145009000D03*
%TO.N,/PA6*%
X165990001Y-145009000D03*
%TO.N,/PA7*%
X168530001Y-145009000D03*
%TO.N,/PB10*%
X171070001Y-145009000D03*
%TO.N,/PB11*%
X173610001Y-145009000D03*
%TO.N,+3.3V*%
X176150001Y-145009000D03*
%TO.N,GND*%
X178690001Y-145009000D03*
%TD*%
D10*
%TO.N,GND*%
%TO.C,H3*%
X102344000Y-141840000D03*
%TD*%
D15*
%TO.N,GND*%
%TO.C,J1*%
X104494508Y-125330251D03*
X104494502Y-133590250D03*
X98544502Y-133950250D03*
X98544502Y-124970250D03*
%TD*%
D13*
%TO.N,+3.3V*%
%TO.C,J4*%
X153290001Y-114046000D03*
D14*
%TO.N,GND*%
X155830001Y-114046000D03*
%TO.N,/PB3*%
X158370001Y-114046000D03*
%TO.N,/PA15*%
X160910001Y-114046000D03*
%TO.N,/PA10*%
X163450001Y-114046000D03*
%TO.N,/PA9*%
X165990001Y-114046000D03*
%TO.N,/PA8*%
X168530001Y-114046000D03*
%TO.N,/PB15*%
X171070001Y-114046000D03*
%TO.N,/PB14*%
X173610001Y-114046000D03*
%TO.N,/PB13*%
X176150001Y-114046000D03*
%TO.N,/PB12*%
X178690001Y-114046000D03*
%TD*%
D16*
%TO.N,/BAT+*%
%TO.C,BT1*%
X128140000Y-129340000D03*
%TO.N,GND*%
X204140001Y-129339998D03*
%TD*%
D17*
%TO.N,+3.3V*%
X127762000Y-118491000D03*
X200279000Y-124968000D03*
X169722800Y-133985000D03*
X197358000Y-127254000D03*
X128219200Y-124739400D03*
X129921000Y-118491000D03*
X131953000Y-117094000D03*
X160502600Y-124993400D03*
X161950400Y-124993400D03*
X196088000Y-124968000D03*
X189357000Y-122148600D03*
X127762000Y-117094000D03*
X178181000Y-130987800D03*
X170916600Y-125247400D03*
X194945000Y-127508000D03*
X194056000Y-124968000D03*
X170002200Y-125272800D03*
X193675000Y-131953000D03*
X170789600Y-133299200D03*
X131953000Y-118491000D03*
X129921000Y-117094000D03*
X193675000Y-133604000D03*
X170789600Y-134467600D03*
X200406000Y-127508000D03*
X200279000Y-133096000D03*
X128219200Y-125679200D03*
%TO.N,/NRST*%
X162991800Y-129590000D03*
X175818800Y-129717800D03*
%TO.N,+5V*%
X105587800Y-131368800D03*
X103733600Y-127939800D03*
X107365800Y-130708400D03*
X116103400Y-131064000D03*
X117602000Y-131064000D03*
X116941600Y-130251200D03*
X105562400Y-127279400D03*
%TO.N,VS*%
X117475000Y-117856000D03*
X123698000Y-131191000D03*
X116078000Y-138938000D03*
X120269000Y-129667000D03*
X118491000Y-117856000D03*
X117475000Y-116840000D03*
X117983000Y-142494000D03*
X115189000Y-142494000D03*
X117475000Y-115824000D03*
X115189000Y-140716000D03*
X121666000Y-131191000D03*
X112649000Y-142494000D03*
X122682000Y-131191000D03*
X121666000Y-132080000D03*
X123698000Y-132080000D03*
X102870000Y-138430000D03*
X112649000Y-140716000D03*
X118491000Y-115824000D03*
X122682000Y-132080000D03*
X118491000Y-116840000D03*
X117983000Y-140716000D03*
%TO.N,+3.3VADC*%
X162102800Y-134264400D03*
X128778000Y-138303000D03*
X162052000Y-133197600D03*
X128778000Y-136906000D03*
X131064000Y-138303000D03*
X160553400Y-133146800D03*
X159080200Y-133146800D03*
X131064000Y-136906000D03*
%TO.N,/USB_D+*%
X168881751Y-127990000D03*
X118215751Y-135026400D03*
%TO.N,/USB_D-*%
X105562400Y-130019048D03*
X105536105Y-128782325D03*
X118219526Y-135788393D03*
X168910000Y-128751479D03*
%TO.N,/BOOT0*%
X188899800Y-127762000D03*
X164338000Y-121793000D03*
%TO.N,/STAT1*%
X165430200Y-132283200D03*
X116789200Y-128574800D03*
X125196600Y-125806200D03*
%TO.N,/STAT2*%
X125222000Y-124688599D03*
X166268400Y-131876800D03*
%TO.N,/SCL*%
X166181200Y-121872200D03*
X197931965Y-129082799D03*
%TO.N,/SDA*%
X195732400Y-125780800D03*
X163576000Y-120269000D03*
%TO.N,/INT2*%
X190906400Y-128981200D03*
X160020000Y-126746000D03*
%TO.N,/INT1*%
X162890200Y-131090000D03*
X191973200Y-129057400D03*
%TO.N,/BAT+*%
X126238000Y-127889000D03*
X125222000Y-129540000D03*
X126238000Y-130810000D03*
X124206000Y-128524000D03*
%TO.N,GND*%
X177292000Y-136144000D03*
X148844000Y-145542000D03*
X130048000Y-114808000D03*
X145796000Y-114808000D03*
X138430000Y-114808000D03*
X151384000Y-124206000D03*
X214122000Y-137414000D03*
X109474000Y-125984000D03*
X137668000Y-124460000D03*
X163576000Y-126619000D03*
X109982000Y-121412000D03*
X192278000Y-112776000D03*
X184404000Y-129540000D03*
X197358000Y-122428000D03*
X136144000Y-120650000D03*
X192278000Y-114808000D03*
X186309000Y-136144000D03*
X152908000Y-132334000D03*
X119126000Y-125984000D03*
X105156000Y-123190000D03*
X139954000Y-145542000D03*
X196342000Y-145542000D03*
X172466000Y-123698000D03*
X154940000Y-122682000D03*
X153924000Y-124206000D03*
X112268000Y-145288000D03*
X108331000Y-137541000D03*
X109982000Y-123190000D03*
X172974000Y-136144000D03*
X184150000Y-112776000D03*
X124002800Y-130073400D03*
X125323600Y-131927600D03*
X154432000Y-128778000D03*
X210058000Y-137414000D03*
X172466000Y-140335000D03*
X187960000Y-140335000D03*
X187960000Y-145542000D03*
X120396000Y-145542000D03*
X145796000Y-112776000D03*
X174244000Y-121412000D03*
X140716000Y-121920000D03*
X209550000Y-130810000D03*
X156464000Y-128778000D03*
X183997600Y-122885200D03*
X137668000Y-128524000D03*
X152654000Y-122682000D03*
X120396000Y-123952000D03*
X167894000Y-126619000D03*
X167894000Y-131826000D03*
X118872000Y-133096000D03*
X128778000Y-133350000D03*
X107696000Y-121412000D03*
X127762000Y-120650000D03*
X200660000Y-114808000D03*
X134366000Y-125730000D03*
X112268000Y-123190000D03*
X134112000Y-118364000D03*
X131826000Y-120650000D03*
X174879000Y-133858000D03*
X137668000Y-132588000D03*
X119126000Y-123952000D03*
X108077000Y-129413000D03*
X105079800Y-137515600D03*
X150114000Y-122682000D03*
X180848000Y-140335000D03*
X184150000Y-114808000D03*
X104851200Y-135661400D03*
X197027800Y-131216400D03*
X143510000Y-119634000D03*
X196342000Y-140335000D03*
X209042000Y-123698000D03*
X138430000Y-112776000D03*
X149606000Y-133350000D03*
X134366000Y-130302000D03*
X177673000Y-121259600D03*
X106426000Y-145288000D03*
X130048000Y-112776000D03*
X174752000Y-123698000D03*
X181610000Y-136144000D03*
X130302000Y-145542000D03*
X197434200Y-125730000D03*
X138430000Y-118364000D03*
X200660000Y-112776000D03*
X105156000Y-121412000D03*
%TO.N,GNDA*%
X161798000Y-137160000D03*
X159004000Y-140208000D03*
X161798000Y-140208000D03*
X129286000Y-140208000D03*
X125349000Y-142621000D03*
X131191000Y-142621000D03*
X158877000Y-137160000D03*
X122936000Y-142621000D03*
X125349000Y-140208000D03*
X129286000Y-142621000D03*
X161798000Y-138684000D03*
X131191000Y-140208000D03*
%TO.N,/PA1*%
X160234468Y-131611532D03*
%TO.N,/PB13*%
X181864000Y-122910600D03*
%TO.N,/PA8*%
X180136800Y-123393200D03*
%TO.N,/PA9*%
X179560764Y-122894372D03*
%TO.N,/PB14*%
X181279800Y-123418600D03*
%TO.N,/PA2*%
X164465000Y-131064000D03*
%TO.N,/PA10*%
X178790600Y-122250200D03*
%TO.N,/PB15*%
X180721000Y-122893771D03*
%TO.N,/PB12*%
X182549800Y-123469400D03*
%TD*%
D18*
%TO.N,/NRST*%
X163118000Y-129463800D02*
X175564800Y-129463800D01*
X175564800Y-129463800D02*
X175818800Y-129717800D01*
X162991800Y-129590000D02*
X163118000Y-129463800D01*
%TO.N,/USB_D+*%
X168677952Y-128193799D02*
X168881751Y-127990000D01*
X118647551Y-134594600D02*
X153799552Y-134594600D01*
X153799552Y-134594600D02*
X160200353Y-128193799D01*
X118215751Y-135026400D02*
X118647551Y-134594600D01*
X160200353Y-128193799D02*
X168677952Y-128193799D01*
%TO.N,/USB_D-*%
X153870648Y-135026400D02*
X160145569Y-128751479D01*
X119006014Y-135026400D02*
X153870648Y-135026400D01*
X105536105Y-128782325D02*
X105536105Y-129992753D01*
X118422719Y-135585200D02*
X118447214Y-135585200D01*
X160145569Y-128751479D02*
X168910000Y-128751479D01*
X118447214Y-135585200D02*
X119006014Y-135026400D01*
X118219526Y-135788393D02*
X118422719Y-135585200D01*
X105536105Y-129992753D02*
X105562400Y-130019048D01*
%TO.N,/BOOT0*%
X169392600Y-126847600D02*
X187985400Y-126847600D01*
X187985400Y-126847600D02*
X188899800Y-127762000D01*
X164338000Y-121793000D02*
X169392600Y-126847600D01*
%TO.N,/STAT1*%
X116789200Y-128574800D02*
X117449600Y-127914400D01*
X123977400Y-125806200D02*
X125196600Y-125806200D01*
X117449600Y-127914400D02*
X121869200Y-127914400D01*
X121869200Y-127914400D02*
X123977400Y-125806200D01*
%TO.N,/SCL*%
X194985566Y-126136400D02*
X169822968Y-126136400D01*
X166116000Y-121937400D02*
X166181200Y-121872200D01*
X169822968Y-126136400D02*
X166116000Y-122429432D01*
X166116000Y-122429432D02*
X166116000Y-121937400D01*
X197931965Y-129082799D02*
X194985566Y-126136400D01*
%TO.N,/SDA*%
X164261800Y-120904000D02*
X168275000Y-120904000D01*
X168275000Y-120904000D02*
X172897800Y-125526800D01*
X195478400Y-125526800D02*
X195732400Y-125780800D01*
X172897800Y-125526800D02*
X195478400Y-125526800D01*
X163626800Y-120269000D02*
X164261800Y-120904000D01*
X163576000Y-120269000D02*
X163626800Y-120269000D01*
%TO.N,/INT2*%
X190906400Y-128981200D02*
X188671200Y-128981200D01*
X187121200Y-127431200D02*
X160705200Y-127431200D01*
X188671200Y-128981200D02*
X187121200Y-127431200D01*
X160705200Y-127431200D02*
X160020000Y-126746000D01*
%TO.N,/INT1*%
X162890200Y-131090000D02*
X163551200Y-130429000D01*
X163551200Y-130429000D02*
X190601600Y-130429000D01*
X190601600Y-130429000D02*
X191973200Y-129057400D01*
%TO.N,/PA1*%
X153290001Y-137539999D02*
X153290001Y-145009000D01*
X159258000Y-131572000D02*
X153290001Y-137539999D01*
X160194936Y-131572000D02*
X159258000Y-131572000D01*
X160234468Y-131611532D02*
X160194936Y-131572000D01*
%TO.N,/PB13*%
X176150001Y-114046000D02*
X177547001Y-115443000D01*
X179552600Y-115443000D02*
X182194200Y-118084600D01*
X177547001Y-115443000D02*
X179552600Y-115443000D01*
X182194200Y-118084600D02*
X182194200Y-122580400D01*
X182194200Y-122580400D02*
X181864000Y-122910600D01*
%TO.N,/PA8*%
X179110718Y-116509800D02*
X170993801Y-116509800D01*
X180136800Y-123393200D02*
X180136800Y-122687708D01*
X181127400Y-118526482D02*
X179110718Y-116509800D01*
X181127400Y-121697108D02*
X181127400Y-118526482D01*
X170993801Y-116509800D02*
X168530001Y-114046000D01*
X180136800Y-122687708D02*
X181127400Y-121697108D01*
%TO.N,/PA9*%
X180644800Y-118546776D02*
X178963424Y-116865400D01*
X168809401Y-116865400D02*
X165990001Y-114046000D01*
X179560764Y-122894372D02*
X179560764Y-122521436D01*
X178963424Y-116865400D02*
X168809401Y-116865400D01*
X180644800Y-121437400D02*
X180644800Y-118546776D01*
X179560764Y-122521436D02*
X180644800Y-121437400D01*
%TO.N,/PB14*%
X181838600Y-122145737D02*
X181838600Y-118231894D01*
X181279800Y-122704537D02*
X181838600Y-122145737D01*
X181838600Y-118231894D02*
X179405306Y-115798600D01*
X174588709Y-114046000D02*
X173610001Y-114046000D01*
X179405306Y-115798600D02*
X176341309Y-115798600D01*
X181279800Y-123418600D02*
X181279800Y-122704537D01*
X176341309Y-115798600D02*
X174588709Y-114046000D01*
%TO.N,/PA2*%
X155575000Y-144753999D02*
X155830002Y-145009001D01*
X155575000Y-135757894D02*
X155575000Y-144753999D01*
X164465000Y-131064000D02*
X163358668Y-132170332D01*
X159162562Y-132170332D02*
X155575000Y-135757894D01*
X163358668Y-132170332D02*
X159162562Y-132170332D01*
%TO.N,/PA10*%
X180289200Y-118694070D02*
X178816130Y-117221000D01*
X178816130Y-117221000D02*
X168662107Y-117221000D01*
X168662107Y-117221000D02*
X167519107Y-116078000D01*
X180289200Y-120751600D02*
X180289200Y-118694070D01*
X165482001Y-116078000D02*
X163450001Y-114046000D01*
X178790600Y-122250200D02*
X180289200Y-120751600D01*
X167519107Y-116078000D02*
X165482001Y-116078000D01*
%TO.N,/PB15*%
X181483000Y-118379188D02*
X179258012Y-116154200D01*
X180721000Y-122758200D02*
X180873400Y-122605800D01*
X176194015Y-116154200D02*
X175189815Y-115150000D01*
X172174001Y-115150000D02*
X171070001Y-114046000D01*
X180721000Y-122893771D02*
X180721000Y-122758200D01*
X180873400Y-122605800D02*
X180875643Y-122605800D01*
X181483000Y-121998443D02*
X181483000Y-118379188D01*
X179258012Y-116154200D02*
X176194015Y-116154200D01*
X175189815Y-115150000D02*
X172174001Y-115150000D01*
X180875643Y-122605800D02*
X181483000Y-121998443D01*
%TO.N,/PB12*%
X182549800Y-123469400D02*
X182549800Y-117905799D01*
X182549800Y-117905799D02*
X178690001Y-114046000D01*
%TD*%
%TA.AperFunction,Conductor*%
%TO.N,GND*%
G36*
X186989629Y-127807302D02*
G01*
X187010603Y-127824205D01*
X188452542Y-129266145D01*
X188452547Y-129266149D01*
X188452549Y-129266151D01*
X188452550Y-129266152D01*
X188452552Y-129266153D01*
X188469949Y-129276197D01*
X188533750Y-129313033D01*
X188624319Y-129337300D01*
X188718081Y-129337300D01*
X190412527Y-129337300D01*
X190480648Y-129357302D01*
X190500462Y-129375458D01*
X190501663Y-129374258D01*
X190507500Y-129380095D01*
X190610054Y-129458788D01*
X190624337Y-129469747D01*
X190756236Y-129524382D01*
X190811515Y-129568930D01*
X190833936Y-129636294D01*
X190816377Y-129705085D01*
X190797112Y-129729885D01*
X190491003Y-130035995D01*
X190428690Y-130070020D01*
X190401907Y-130072900D01*
X176465667Y-130072900D01*
X176397546Y-130052898D01*
X176351053Y-129999242D01*
X176340949Y-129928968D01*
X176349256Y-129898684D01*
X176363704Y-129863807D01*
X176382926Y-129717800D01*
X176381411Y-129706296D01*
X176363704Y-129571793D01*
X176363702Y-129571789D01*
X176363519Y-129571348D01*
X176307347Y-129435737D01*
X176273917Y-129392170D01*
X176217697Y-129318902D01*
X176100869Y-129229257D01*
X176100865Y-129229255D01*
X176100863Y-129229253D01*
X176100860Y-129229251D01*
X176100857Y-129229250D01*
X175964810Y-129172897D01*
X175964806Y-129172895D01*
X175818801Y-129153674D01*
X175818797Y-129153674D01*
X175796910Y-129156555D01*
X175726761Y-129145615D01*
X175717473Y-129140756D01*
X175702250Y-129131967D01*
X175611681Y-129107700D01*
X175611680Y-129107700D01*
X169556403Y-129107700D01*
X169488282Y-129087698D01*
X169441789Y-129034042D01*
X169431685Y-128963768D01*
X169439994Y-128933482D01*
X169449145Y-128911389D01*
X169454904Y-128897486D01*
X169474126Y-128751479D01*
X169461885Y-128658502D01*
X169454904Y-128605472D01*
X169454902Y-128605468D01*
X169447747Y-128588195D01*
X169398547Y-128469416D01*
X169373134Y-128436297D01*
X169367562Y-128429035D01*
X169341961Y-128362815D01*
X169356226Y-128293266D01*
X169367563Y-128275626D01*
X169370298Y-128272063D01*
X169426655Y-128136007D01*
X169445877Y-127990000D01*
X169437944Y-127929744D01*
X169448883Y-127859598D01*
X169496011Y-127806499D01*
X169562866Y-127787300D01*
X186921508Y-127787300D01*
X186989629Y-127807302D01*
G37*
%TD.AperFunction*%
%TA.AperFunction,Conductor*%
G36*
X213347094Y-112043852D02*
G01*
X213709922Y-112061676D01*
X213722221Y-112062887D01*
X214078504Y-112115737D01*
X214090615Y-112118146D01*
X214440009Y-112205664D01*
X214451831Y-112209251D01*
X214790952Y-112330591D01*
X214802371Y-112335320D01*
X214965172Y-112412319D01*
X215127968Y-112489316D01*
X215138873Y-112495145D01*
X215447804Y-112680311D01*
X215458085Y-112687181D01*
X215747369Y-112901728D01*
X215756928Y-112909572D01*
X216023802Y-113151454D01*
X216032545Y-113160197D01*
X216274427Y-113427071D01*
X216282271Y-113436630D01*
X216496818Y-113725914D01*
X216503688Y-113736195D01*
X216688854Y-114045126D01*
X216694683Y-114056031D01*
X216848677Y-114381623D01*
X216853408Y-114393047D01*
X216974748Y-114732168D01*
X216978338Y-114744001D01*
X217065851Y-115093376D01*
X217068263Y-115105503D01*
X217121111Y-115461775D01*
X217122323Y-115474080D01*
X217140148Y-115836904D01*
X217140300Y-115843087D01*
X217140300Y-142836912D01*
X217140148Y-142843095D01*
X217122323Y-143205919D01*
X217121111Y-143218224D01*
X217068263Y-143574496D01*
X217065851Y-143586623D01*
X216978338Y-143935998D01*
X216974748Y-143947831D01*
X216853408Y-144286952D01*
X216848677Y-144298376D01*
X216694683Y-144623968D01*
X216688854Y-144634873D01*
X216503688Y-144943804D01*
X216496818Y-144954085D01*
X216282271Y-145243369D01*
X216274427Y-145252928D01*
X216032545Y-145519802D01*
X216023802Y-145528545D01*
X215756928Y-145770427D01*
X215747369Y-145778271D01*
X215458085Y-145992818D01*
X215447804Y-145999688D01*
X215138873Y-146184854D01*
X215127968Y-146190683D01*
X214802376Y-146344677D01*
X214790952Y-146349408D01*
X214451831Y-146470748D01*
X214439998Y-146474338D01*
X214090623Y-146561851D01*
X214078496Y-146564263D01*
X213722224Y-146617111D01*
X213709919Y-146618323D01*
X213368090Y-146635116D01*
X213347093Y-146636148D01*
X213340912Y-146636300D01*
X101347088Y-146636300D01*
X101340906Y-146636148D01*
X101318524Y-146635048D01*
X100978080Y-146618323D01*
X100965775Y-146617111D01*
X100609503Y-146564263D01*
X100597376Y-146561851D01*
X100248001Y-146474338D01*
X100236168Y-146470748D01*
X99897047Y-146349408D01*
X99885623Y-146344677D01*
X99560031Y-146190683D01*
X99549126Y-146184854D01*
X99240195Y-145999688D01*
X99229914Y-145992818D01*
X98940630Y-145778271D01*
X98931071Y-145770427D01*
X98664197Y-145528545D01*
X98655454Y-145519802D01*
X98413572Y-145252928D01*
X98405728Y-145243369D01*
X98191181Y-144954085D01*
X98184311Y-144943804D01*
X97999145Y-144634873D01*
X97993316Y-144623968D01*
X97839322Y-144298376D01*
X97834591Y-144286952D01*
X97713251Y-143947831D01*
X97709664Y-143936009D01*
X97622146Y-143586615D01*
X97619736Y-143574496D01*
X97566888Y-143218224D01*
X97565676Y-143205918D01*
X97560941Y-143109542D01*
X97547852Y-142843094D01*
X97547700Y-142836912D01*
X97547700Y-142493999D01*
X112084874Y-142493999D01*
X112084874Y-142494000D01*
X112104095Y-142640006D01*
X112104097Y-142640010D01*
X112160450Y-142776057D01*
X112160457Y-142776069D01*
X112250102Y-142892897D01*
X112366930Y-142982542D01*
X112366937Y-142982547D01*
X112502993Y-143038904D01*
X112649000Y-143058126D01*
X112795007Y-143038904D01*
X112931063Y-142982547D01*
X113047897Y-142892897D01*
X113137547Y-142776063D01*
X113193904Y-142640007D01*
X113213126Y-142494000D01*
X113213126Y-142493999D01*
X114624874Y-142493999D01*
X114624874Y-142494000D01*
X114644095Y-142640006D01*
X114644097Y-142640010D01*
X114700450Y-142776057D01*
X114700457Y-142776069D01*
X114790102Y-142892897D01*
X114906930Y-142982542D01*
X114906937Y-142982547D01*
X115042993Y-143038904D01*
X115189000Y-143058126D01*
X115335007Y-143038904D01*
X115471063Y-142982547D01*
X115587897Y-142892897D01*
X115677547Y-142776063D01*
X115733904Y-142640007D01*
X115753126Y-142494000D01*
X115753126Y-142493999D01*
X117418874Y-142493999D01*
X117418874Y-142494000D01*
X117438095Y-142640006D01*
X117438097Y-142640010D01*
X117494450Y-142776057D01*
X117494457Y-142776069D01*
X117584102Y-142892897D01*
X117700930Y-142982542D01*
X117700937Y-142982547D01*
X117836993Y-143038904D01*
X117983000Y-143058126D01*
X118129007Y-143038904D01*
X118265063Y-142982547D01*
X118381897Y-142892897D01*
X118471547Y-142776063D01*
X118527904Y-142640007D01*
X118530406Y-142620999D01*
X122371874Y-142620999D01*
X122371874Y-142621000D01*
X122391095Y-142767006D01*
X122391097Y-142767010D01*
X122447450Y-142903057D01*
X122447457Y-142903069D01*
X122537102Y-143019897D01*
X122653930Y-143109542D01*
X122653937Y-143109547D01*
X122789993Y-143165904D01*
X122936000Y-143185126D01*
X123082007Y-143165904D01*
X123218063Y-143109547D01*
X123334897Y-143019897D01*
X123424547Y-142903063D01*
X123480904Y-142767007D01*
X123500126Y-142621000D01*
X123500126Y-142620999D01*
X124784874Y-142620999D01*
X124784874Y-142621000D01*
X124804095Y-142767006D01*
X124804097Y-142767010D01*
X124860450Y-142903057D01*
X124860457Y-142903069D01*
X124950102Y-143019897D01*
X125066930Y-143109542D01*
X125066937Y-143109547D01*
X125202993Y-143165904D01*
X125349000Y-143185126D01*
X125495007Y-143165904D01*
X125631063Y-143109547D01*
X125747897Y-143019897D01*
X125837547Y-142903063D01*
X125893904Y-142767007D01*
X125913126Y-142621000D01*
X125913126Y-142620999D01*
X128721874Y-142620999D01*
X128721874Y-142621000D01*
X128741095Y-142767006D01*
X128741097Y-142767010D01*
X128797450Y-142903057D01*
X128797457Y-142903069D01*
X128887102Y-143019897D01*
X129003930Y-143109542D01*
X129003937Y-143109547D01*
X129139993Y-143165904D01*
X129286000Y-143185126D01*
X129432007Y-143165904D01*
X129568063Y-143109547D01*
X129684897Y-143019897D01*
X129774547Y-142903063D01*
X129830904Y-142767007D01*
X129850126Y-142621000D01*
X129850126Y-142620999D01*
X130626874Y-142620999D01*
X130626874Y-142621000D01*
X130646095Y-142767006D01*
X130646097Y-142767010D01*
X130702450Y-142903057D01*
X130702457Y-142903069D01*
X130792102Y-143019897D01*
X130908930Y-143109542D01*
X130908937Y-143109547D01*
X131044993Y-143165904D01*
X131191000Y-143185126D01*
X131337007Y-143165904D01*
X131473063Y-143109547D01*
X131589897Y-143019897D01*
X131679547Y-142903063D01*
X131735904Y-142767007D01*
X131755126Y-142621000D01*
X131735904Y-142474993D01*
X131679547Y-142338937D01*
X131679542Y-142338930D01*
X131589897Y-142222102D01*
X131473069Y-142132457D01*
X131473065Y-142132455D01*
X131473063Y-142132453D01*
X131473060Y-142132451D01*
X131473057Y-142132450D01*
X131337010Y-142076097D01*
X131337006Y-142076095D01*
X131191000Y-142056874D01*
X131044993Y-142076095D01*
X131044989Y-142076097D01*
X130908942Y-142132450D01*
X130908930Y-142132457D01*
X130792102Y-142222102D01*
X130702457Y-142338930D01*
X130702450Y-142338942D01*
X130646097Y-142474989D01*
X130646095Y-142474993D01*
X130626874Y-142620999D01*
X129850126Y-142620999D01*
X129830904Y-142474993D01*
X129774547Y-142338937D01*
X129774542Y-142338930D01*
X129684897Y-142222102D01*
X129568069Y-142132457D01*
X129568065Y-142132455D01*
X129568063Y-142132453D01*
X129568060Y-142132451D01*
X129568057Y-142132450D01*
X129432010Y-142076097D01*
X129432006Y-142076095D01*
X129286000Y-142056874D01*
X129139993Y-142076095D01*
X129139989Y-142076097D01*
X129003942Y-142132450D01*
X129003930Y-142132457D01*
X128887102Y-142222102D01*
X128797457Y-142338930D01*
X128797450Y-142338942D01*
X128741097Y-142474989D01*
X128741095Y-142474993D01*
X128721874Y-142620999D01*
X125913126Y-142620999D01*
X125893904Y-142474993D01*
X125837547Y-142338937D01*
X125837542Y-142338930D01*
X125747897Y-142222102D01*
X125631069Y-142132457D01*
X125631065Y-142132455D01*
X125631063Y-142132453D01*
X125631060Y-142132451D01*
X125631057Y-142132450D01*
X125495010Y-142076097D01*
X125495006Y-142076095D01*
X125349000Y-142056874D01*
X125202993Y-142076095D01*
X125202989Y-142076097D01*
X125066942Y-142132450D01*
X125066930Y-142132457D01*
X124950102Y-142222102D01*
X124860457Y-142338930D01*
X124860450Y-142338942D01*
X124804097Y-142474989D01*
X124804095Y-142474993D01*
X124784874Y-142620999D01*
X123500126Y-142620999D01*
X123480904Y-142474993D01*
X123424547Y-142338937D01*
X123424542Y-142338930D01*
X123334897Y-142222102D01*
X123218069Y-142132457D01*
X123218065Y-142132455D01*
X123218063Y-142132453D01*
X123218060Y-142132451D01*
X123218057Y-142132450D01*
X123082010Y-142076097D01*
X123082006Y-142076095D01*
X122936000Y-142056874D01*
X122789993Y-142076095D01*
X122789989Y-142076097D01*
X122653942Y-142132450D01*
X122653930Y-142132457D01*
X122537102Y-142222102D01*
X122447457Y-142338930D01*
X122447450Y-142338942D01*
X122391097Y-142474989D01*
X122391095Y-142474993D01*
X122371874Y-142620999D01*
X118530406Y-142620999D01*
X118547126Y-142494000D01*
X118527904Y-142347993D01*
X118471547Y-142211937D01*
X118410557Y-142132453D01*
X118381897Y-142095102D01*
X118265069Y-142005457D01*
X118265065Y-142005455D01*
X118265063Y-142005453D01*
X118265060Y-142005451D01*
X118265057Y-142005450D01*
X118129010Y-141949097D01*
X118129006Y-141949095D01*
X117983000Y-141929874D01*
X117836993Y-141949095D01*
X117836989Y-141949097D01*
X117700942Y-142005450D01*
X117700930Y-142005457D01*
X117584102Y-142095102D01*
X117494457Y-142211930D01*
X117494450Y-142211942D01*
X117438097Y-142347989D01*
X117438095Y-142347993D01*
X117418874Y-142493999D01*
X115753126Y-142493999D01*
X115733904Y-142347993D01*
X115677547Y-142211937D01*
X115616557Y-142132453D01*
X115587897Y-142095102D01*
X115471069Y-142005457D01*
X115471065Y-142005455D01*
X115471063Y-142005453D01*
X115471060Y-142005451D01*
X115471057Y-142005450D01*
X115335010Y-141949097D01*
X115335006Y-141949095D01*
X115189000Y-141929874D01*
X115042993Y-141949095D01*
X115042989Y-141949097D01*
X114906942Y-142005450D01*
X114906930Y-142005457D01*
X114790102Y-142095102D01*
X114700457Y-142211930D01*
X114700450Y-142211942D01*
X114644097Y-142347989D01*
X114644095Y-142347993D01*
X114624874Y-142493999D01*
X113213126Y-142493999D01*
X113193904Y-142347993D01*
X113137547Y-142211937D01*
X113076557Y-142132453D01*
X113047897Y-142095102D01*
X112931069Y-142005457D01*
X112931065Y-142005455D01*
X112931063Y-142005453D01*
X112931060Y-142005451D01*
X112931057Y-142005450D01*
X112795010Y-141949097D01*
X112795006Y-141949095D01*
X112649000Y-141929874D01*
X112502993Y-141949095D01*
X112502989Y-141949097D01*
X112366942Y-142005450D01*
X112366930Y-142005457D01*
X112250102Y-142095102D01*
X112160457Y-142211930D01*
X112160450Y-142211942D01*
X112104097Y-142347989D01*
X112104095Y-142347993D01*
X112084874Y-142493999D01*
X97547700Y-142493999D01*
X97547700Y-140715999D01*
X112084874Y-140715999D01*
X112084874Y-140716000D01*
X112104095Y-140862006D01*
X112104097Y-140862010D01*
X112160450Y-140998057D01*
X112160457Y-140998069D01*
X112250102Y-141114897D01*
X112366930Y-141204542D01*
X112366937Y-141204547D01*
X112502993Y-141260904D01*
X112649000Y-141280126D01*
X112795007Y-141260904D01*
X112931063Y-141204547D01*
X113047897Y-141114897D01*
X113137547Y-140998063D01*
X113193904Y-140862007D01*
X113213126Y-140716000D01*
X113213126Y-140715999D01*
X114624874Y-140715999D01*
X114624874Y-140716000D01*
X114644095Y-140862006D01*
X114644097Y-140862010D01*
X114700450Y-140998057D01*
X114700457Y-140998069D01*
X114790102Y-141114897D01*
X114906930Y-141204542D01*
X114906937Y-141204547D01*
X115042993Y-141260904D01*
X115189000Y-141280126D01*
X115335007Y-141260904D01*
X115471063Y-141204547D01*
X115587897Y-141114897D01*
X115677547Y-140998063D01*
X115733904Y-140862007D01*
X115753126Y-140716000D01*
X115753126Y-140715999D01*
X117418874Y-140715999D01*
X117418874Y-140716000D01*
X117438095Y-140862006D01*
X117438097Y-140862010D01*
X117494450Y-140998057D01*
X117494457Y-140998069D01*
X117584102Y-141114897D01*
X117700930Y-141204542D01*
X117700937Y-141204547D01*
X117836993Y-141260904D01*
X117983000Y-141280126D01*
X118129007Y-141260904D01*
X118265063Y-141204547D01*
X118381897Y-141114897D01*
X118471547Y-140998063D01*
X118527904Y-140862007D01*
X118547126Y-140716000D01*
X118527904Y-140569993D01*
X118471547Y-140433937D01*
X118410217Y-140354010D01*
X118381897Y-140317102D01*
X118265069Y-140227457D01*
X118265065Y-140227455D01*
X118265063Y-140227453D01*
X118265060Y-140227451D01*
X118265057Y-140227450D01*
X118218099Y-140207999D01*
X124784874Y-140207999D01*
X124784874Y-140208000D01*
X124804095Y-140354006D01*
X124804097Y-140354010D01*
X124860450Y-140490057D01*
X124860457Y-140490069D01*
X124950102Y-140606897D01*
X125066930Y-140696542D01*
X125066937Y-140696547D01*
X125202993Y-140752904D01*
X125349000Y-140772126D01*
X125495007Y-140752904D01*
X125631063Y-140696547D01*
X125747897Y-140606897D01*
X125837547Y-140490063D01*
X125893904Y-140354007D01*
X125913126Y-140208000D01*
X125913126Y-140207999D01*
X128721874Y-140207999D01*
X128721874Y-140208000D01*
X128741095Y-140354006D01*
X128741097Y-140354010D01*
X128797450Y-140490057D01*
X128797457Y-140490069D01*
X128887102Y-140606897D01*
X129003930Y-140696542D01*
X129003937Y-140696547D01*
X129139993Y-140752904D01*
X129286000Y-140772126D01*
X129432007Y-140752904D01*
X129568063Y-140696547D01*
X129684897Y-140606897D01*
X129774547Y-140490063D01*
X129830904Y-140354007D01*
X129850126Y-140208000D01*
X129850126Y-140207999D01*
X130626874Y-140207999D01*
X130626874Y-140208000D01*
X130646095Y-140354006D01*
X130646097Y-140354010D01*
X130702450Y-140490057D01*
X130702457Y-140490069D01*
X130792102Y-140606897D01*
X130908930Y-140696542D01*
X130908937Y-140696547D01*
X131044993Y-140752904D01*
X131191000Y-140772126D01*
X131337007Y-140752904D01*
X131473063Y-140696547D01*
X131589897Y-140606897D01*
X131679547Y-140490063D01*
X131735904Y-140354007D01*
X131755126Y-140208000D01*
X131750267Y-140171095D01*
X131735904Y-140061993D01*
X131735902Y-140061989D01*
X131679549Y-139925942D01*
X131679547Y-139925937D01*
X131679542Y-139925930D01*
X131589897Y-139809102D01*
X131473069Y-139719457D01*
X131473065Y-139719455D01*
X131473063Y-139719453D01*
X131473060Y-139719451D01*
X131473057Y-139719450D01*
X131337010Y-139663097D01*
X131337006Y-139663095D01*
X131191000Y-139643874D01*
X131044993Y-139663095D01*
X131044989Y-139663097D01*
X130908942Y-139719450D01*
X130908930Y-139719457D01*
X130792102Y-139809102D01*
X130702457Y-139925930D01*
X130702450Y-139925942D01*
X130646097Y-140061989D01*
X130646095Y-140061993D01*
X130626874Y-140207999D01*
X129850126Y-140207999D01*
X129845267Y-140171095D01*
X129830904Y-140061993D01*
X129830902Y-140061989D01*
X129774549Y-139925942D01*
X129774547Y-139925937D01*
X129774542Y-139925930D01*
X129684897Y-139809102D01*
X129568069Y-139719457D01*
X129568065Y-139719455D01*
X129568063Y-139719453D01*
X129568060Y-139719451D01*
X129568057Y-139719450D01*
X129432010Y-139663097D01*
X129432006Y-139663095D01*
X129286000Y-139643874D01*
X129139993Y-139663095D01*
X129139989Y-139663097D01*
X129003942Y-139719450D01*
X129003930Y-139719457D01*
X128887102Y-139809102D01*
X128797457Y-139925930D01*
X128797450Y-139925942D01*
X128741097Y-140061989D01*
X128741095Y-140061993D01*
X128721874Y-140207999D01*
X125913126Y-140207999D01*
X125908267Y-140171095D01*
X125893904Y-140061993D01*
X125893902Y-140061989D01*
X125837549Y-139925942D01*
X125837547Y-139925937D01*
X125837542Y-139925930D01*
X125747897Y-139809102D01*
X125631069Y-139719457D01*
X125631065Y-139719455D01*
X125631063Y-139719453D01*
X125631060Y-139719451D01*
X125631057Y-139719450D01*
X125495010Y-139663097D01*
X125495006Y-139663095D01*
X125349000Y-139643874D01*
X125202993Y-139663095D01*
X125202989Y-139663097D01*
X125066942Y-139719450D01*
X125066930Y-139719457D01*
X124950102Y-139809102D01*
X124860457Y-139925930D01*
X124860450Y-139925942D01*
X124804097Y-140061989D01*
X124804095Y-140061993D01*
X124784874Y-140207999D01*
X118218099Y-140207999D01*
X118129010Y-140171097D01*
X118129006Y-140171095D01*
X117983000Y-140151874D01*
X117836993Y-140171095D01*
X117836989Y-140171097D01*
X117700942Y-140227450D01*
X117700930Y-140227457D01*
X117584102Y-140317102D01*
X117494457Y-140433930D01*
X117494450Y-140433942D01*
X117438097Y-140569989D01*
X117438095Y-140569993D01*
X117418874Y-140715999D01*
X115753126Y-140715999D01*
X115733904Y-140569993D01*
X115677547Y-140433937D01*
X115616217Y-140354010D01*
X115587897Y-140317102D01*
X115471069Y-140227457D01*
X115471065Y-140227455D01*
X115471063Y-140227453D01*
X115471060Y-140227451D01*
X115471057Y-140227450D01*
X115335010Y-140171097D01*
X115335006Y-140171095D01*
X115189000Y-140151874D01*
X115042993Y-140171095D01*
X115042989Y-140171097D01*
X114906942Y-140227450D01*
X114906930Y-140227457D01*
X114790102Y-140317102D01*
X114700457Y-140433930D01*
X114700450Y-140433942D01*
X114644097Y-140569989D01*
X114644095Y-140569993D01*
X114624874Y-140715999D01*
X113213126Y-140715999D01*
X113193904Y-140569993D01*
X113137547Y-140433937D01*
X113076217Y-140354010D01*
X113047897Y-140317102D01*
X112931069Y-140227457D01*
X112931065Y-140227455D01*
X112931063Y-140227453D01*
X112931060Y-140227451D01*
X112931057Y-140227450D01*
X112795010Y-140171097D01*
X112795006Y-140171095D01*
X112649000Y-140151874D01*
X112502993Y-140171095D01*
X112502989Y-140171097D01*
X112366942Y-140227450D01*
X112366930Y-140227457D01*
X112250102Y-140317102D01*
X112160457Y-140433930D01*
X112160450Y-140433942D01*
X112104097Y-140569989D01*
X112104095Y-140569993D01*
X112084874Y-140715999D01*
X97547700Y-140715999D01*
X97547700Y-138429999D01*
X102305874Y-138429999D01*
X102305874Y-138430000D01*
X102325095Y-138576006D01*
X102325097Y-138576010D01*
X102381450Y-138712057D01*
X102381457Y-138712069D01*
X102471102Y-138828897D01*
X102587930Y-138918542D01*
X102587937Y-138918547D01*
X102723993Y-138974904D01*
X102870000Y-138994126D01*
X103016007Y-138974904D01*
X103105102Y-138937999D01*
X115513874Y-138937999D01*
X115513874Y-138938000D01*
X115533095Y-139084006D01*
X115533097Y-139084010D01*
X115589450Y-139220057D01*
X115589457Y-139220069D01*
X115679102Y-139336897D01*
X115795930Y-139426542D01*
X115795937Y-139426547D01*
X115931993Y-139482904D01*
X116078000Y-139502126D01*
X116224007Y-139482904D01*
X116360063Y-139426547D01*
X116476897Y-139336897D01*
X116566547Y-139220063D01*
X116622904Y-139084007D01*
X116642126Y-138938000D01*
X116630264Y-138847902D01*
X116622904Y-138791993D01*
X116622902Y-138791989D01*
X116594626Y-138723726D01*
X116566547Y-138655937D01*
X116566542Y-138655930D01*
X116476897Y-138539102D01*
X116360069Y-138449457D01*
X116360065Y-138449455D01*
X116360063Y-138449453D01*
X116360060Y-138449451D01*
X116360057Y-138449450D01*
X116224010Y-138393097D01*
X116224006Y-138393095D01*
X116078000Y-138373874D01*
X115931993Y-138393095D01*
X115931989Y-138393097D01*
X115795942Y-138449450D01*
X115795930Y-138449457D01*
X115679102Y-138539102D01*
X115589457Y-138655930D01*
X115589450Y-138655942D01*
X115533097Y-138791989D01*
X115533095Y-138791993D01*
X115513874Y-138937999D01*
X103105102Y-138937999D01*
X103152063Y-138918547D01*
X103268897Y-138828897D01*
X103358547Y-138712063D01*
X103414904Y-138576007D01*
X103434126Y-138430000D01*
X103430431Y-138401937D01*
X103417406Y-138302999D01*
X128213874Y-138302999D01*
X128213874Y-138303000D01*
X128233095Y-138449006D01*
X128233097Y-138449010D01*
X128289450Y-138585057D01*
X128289457Y-138585069D01*
X128379102Y-138701897D01*
X128495930Y-138791542D01*
X128495937Y-138791547D01*
X128631993Y-138847904D01*
X128778000Y-138867126D01*
X128924007Y-138847904D01*
X129060063Y-138791547D01*
X129176897Y-138701897D01*
X129266547Y-138585063D01*
X129322904Y-138449007D01*
X129342126Y-138303000D01*
X129342126Y-138302999D01*
X130499874Y-138302999D01*
X130499874Y-138303000D01*
X130519095Y-138449006D01*
X130519097Y-138449010D01*
X130575450Y-138585057D01*
X130575457Y-138585069D01*
X130665102Y-138701897D01*
X130781930Y-138791542D01*
X130781937Y-138791547D01*
X130917993Y-138847904D01*
X131064000Y-138867126D01*
X131210007Y-138847904D01*
X131346063Y-138791547D01*
X131462897Y-138701897D01*
X131552547Y-138585063D01*
X131608904Y-138449007D01*
X131628126Y-138303000D01*
X131608904Y-138156993D01*
X131552547Y-138020937D01*
X131491557Y-137941453D01*
X131462897Y-137904102D01*
X131346069Y-137814457D01*
X131346065Y-137814455D01*
X131346063Y-137814453D01*
X131346060Y-137814451D01*
X131346057Y-137814450D01*
X131210010Y-137758097D01*
X131210006Y-137758095D01*
X131064000Y-137738874D01*
X130917993Y-137758095D01*
X130917989Y-137758097D01*
X130781942Y-137814450D01*
X130781930Y-137814457D01*
X130665102Y-137904102D01*
X130575457Y-138020930D01*
X130575450Y-138020942D01*
X130519097Y-138156989D01*
X130519095Y-138156993D01*
X130499874Y-138302999D01*
X129342126Y-138302999D01*
X129322904Y-138156993D01*
X129266547Y-138020937D01*
X129205557Y-137941453D01*
X129176897Y-137904102D01*
X129060069Y-137814457D01*
X129060065Y-137814455D01*
X129060063Y-137814453D01*
X129060060Y-137814451D01*
X129060057Y-137814450D01*
X128924010Y-137758097D01*
X128924006Y-137758095D01*
X128778000Y-137738874D01*
X128631993Y-137758095D01*
X128631989Y-137758097D01*
X128495942Y-137814450D01*
X128495930Y-137814457D01*
X128379102Y-137904102D01*
X128289457Y-138020930D01*
X128289450Y-138020942D01*
X128233097Y-138156989D01*
X128233095Y-138156993D01*
X128213874Y-138302999D01*
X103417406Y-138302999D01*
X103414904Y-138283993D01*
X103414902Y-138283989D01*
X103409217Y-138270265D01*
X103358547Y-138147937D01*
X103351763Y-138139096D01*
X103268897Y-138031102D01*
X103152069Y-137941457D01*
X103152065Y-137941455D01*
X103152063Y-137941453D01*
X103152060Y-137941451D01*
X103152057Y-137941450D01*
X103016010Y-137885097D01*
X103016006Y-137885095D01*
X102870000Y-137865874D01*
X102723993Y-137885095D01*
X102723989Y-137885097D01*
X102587942Y-137941450D01*
X102587930Y-137941457D01*
X102471102Y-138031102D01*
X102381457Y-138147930D01*
X102381450Y-138147942D01*
X102325097Y-138283989D01*
X102325095Y-138283993D01*
X102305874Y-138429999D01*
X97547700Y-138429999D01*
X97547700Y-136905999D01*
X128213874Y-136905999D01*
X128213874Y-136906000D01*
X128233095Y-137052006D01*
X128233097Y-137052010D01*
X128289450Y-137188057D01*
X128289457Y-137188069D01*
X128379102Y-137304897D01*
X128495930Y-137394542D01*
X128495937Y-137394547D01*
X128631993Y-137450904D01*
X128778000Y-137470126D01*
X128924007Y-137450904D01*
X129060063Y-137394547D01*
X129176897Y-137304897D01*
X129266547Y-137188063D01*
X129322904Y-137052007D01*
X129342126Y-136906000D01*
X129342126Y-136905999D01*
X130499874Y-136905999D01*
X130499874Y-136906000D01*
X130519095Y-137052006D01*
X130519097Y-137052010D01*
X130575450Y-137188057D01*
X130575457Y-137188069D01*
X130665102Y-137304897D01*
X130781930Y-137394542D01*
X130781937Y-137394547D01*
X130917993Y-137450904D01*
X131064000Y-137470126D01*
X131210007Y-137450904D01*
X131346063Y-137394547D01*
X131462897Y-137304897D01*
X131552547Y-137188063D01*
X131608904Y-137052007D01*
X131628126Y-136906000D01*
X131624431Y-136877937D01*
X131608904Y-136759993D01*
X131608902Y-136759989D01*
X131552549Y-136623942D01*
X131552547Y-136623937D01*
X131545763Y-136615096D01*
X131462897Y-136507102D01*
X131346069Y-136417457D01*
X131346065Y-136417455D01*
X131346063Y-136417453D01*
X131346060Y-136417451D01*
X131346057Y-136417450D01*
X131210010Y-136361097D01*
X131210006Y-136361095D01*
X131064000Y-136341874D01*
X130917993Y-136361095D01*
X130917989Y-136361097D01*
X130781942Y-136417450D01*
X130781930Y-136417457D01*
X130665102Y-136507102D01*
X130575457Y-136623930D01*
X130575450Y-136623942D01*
X130519097Y-136759989D01*
X130519095Y-136759993D01*
X130499874Y-136905999D01*
X129342126Y-136905999D01*
X129338431Y-136877937D01*
X129322904Y-136759993D01*
X129322902Y-136759989D01*
X129266549Y-136623942D01*
X129266547Y-136623937D01*
X129259763Y-136615096D01*
X129176897Y-136507102D01*
X129060069Y-136417457D01*
X129060065Y-136417455D01*
X129060063Y-136417453D01*
X129060060Y-136417451D01*
X129060057Y-136417450D01*
X128924010Y-136361097D01*
X128924006Y-136361095D01*
X128778000Y-136341874D01*
X128631993Y-136361095D01*
X128631989Y-136361097D01*
X128495942Y-136417450D01*
X128495930Y-136417457D01*
X128379102Y-136507102D01*
X128289457Y-136623930D01*
X128289450Y-136623942D01*
X128233097Y-136759989D01*
X128233095Y-136759993D01*
X128213874Y-136905999D01*
X97547700Y-136905999D01*
X97547700Y-135026399D01*
X117651625Y-135026399D01*
X117651625Y-135026400D01*
X117670846Y-135172406D01*
X117670848Y-135172410D01*
X117727201Y-135308457D01*
X117727202Y-135308460D01*
X117727204Y-135308463D01*
X117746149Y-135333153D01*
X117771749Y-135399373D01*
X117757484Y-135468921D01*
X117746150Y-135486559D01*
X117730980Y-135506328D01*
X117730976Y-135506335D01*
X117674623Y-135642382D01*
X117674621Y-135642386D01*
X117655400Y-135788392D01*
X117655400Y-135788393D01*
X117674621Y-135934399D01*
X117674623Y-135934403D01*
X117730976Y-136070450D01*
X117730983Y-136070462D01*
X117820628Y-136187290D01*
X117909149Y-136255214D01*
X117937463Y-136276940D01*
X118073519Y-136333297D01*
X118219526Y-136352519D01*
X118365533Y-136333297D01*
X118501589Y-136276940D01*
X118618423Y-136187290D01*
X118708073Y-136070456D01*
X118764430Y-135934400D01*
X118783532Y-135789303D01*
X118812253Y-135724379D01*
X118819345Y-135716669D01*
X119116612Y-135419404D01*
X119178924Y-135385379D01*
X119205707Y-135382500D01*
X133810713Y-135382500D01*
X133878834Y-135402502D01*
X133925327Y-135456158D01*
X133935431Y-135526432D01*
X133905937Y-135591012D01*
X133881692Y-135612606D01*
X133862260Y-135625854D01*
X133664089Y-135809730D01*
X133495533Y-136021092D01*
X133360365Y-136255210D01*
X133360363Y-136255214D01*
X133261603Y-136506854D01*
X133261602Y-136506856D01*
X133201446Y-136770413D01*
X133181244Y-137039998D01*
X133201446Y-137309582D01*
X133261602Y-137573139D01*
X133261603Y-137573141D01*
X133360363Y-137824781D01*
X133360365Y-137824785D01*
X133495533Y-138058903D01*
X133495535Y-138058906D01*
X133495536Y-138058907D01*
X133664088Y-138270265D01*
X133862259Y-138454141D01*
X133862265Y-138454145D01*
X134085620Y-138606426D01*
X134085628Y-138606431D01*
X134329179Y-138723718D01*
X134329180Y-138723718D01*
X134329188Y-138723722D01*
X134549076Y-138791549D01*
X134587508Y-138803404D01*
X134587515Y-138803406D01*
X134854832Y-138843697D01*
X134854836Y-138843697D01*
X135125166Y-138843697D01*
X135125170Y-138843697D01*
X135392487Y-138803406D01*
X135650814Y-138723722D01*
X135894380Y-138606428D01*
X136117743Y-138454141D01*
X136315914Y-138270265D01*
X136484466Y-138058907D01*
X136619635Y-137824788D01*
X136623693Y-137814450D01*
X136666686Y-137704904D01*
X136718400Y-137573138D01*
X136778556Y-137309579D01*
X136798758Y-137039998D01*
X136778556Y-136770417D01*
X136718400Y-136506858D01*
X136661193Y-136361096D01*
X136619638Y-136255214D01*
X136619636Y-136255210D01*
X136619631Y-136255202D01*
X136484466Y-136021089D01*
X136315914Y-135809731D01*
X136117743Y-135625855D01*
X136117740Y-135625853D01*
X136098310Y-135612606D01*
X136053294Y-135557705D01*
X136045105Y-135487182D01*
X136076344Y-135423428D01*
X136137093Y-135386683D01*
X136169289Y-135382500D01*
X153917527Y-135382500D01*
X153917529Y-135382500D01*
X154008098Y-135358233D01*
X154089299Y-135311351D01*
X160256165Y-129144483D01*
X160318477Y-129110458D01*
X160345260Y-129107579D01*
X162401490Y-129107579D01*
X162469611Y-129127581D01*
X162516104Y-129181237D01*
X162526208Y-129251511D01*
X162505832Y-129299887D01*
X162507384Y-129300783D01*
X162503250Y-129307942D01*
X162446897Y-129443989D01*
X162446895Y-129443993D01*
X162427674Y-129589999D01*
X162427674Y-129590000D01*
X162446895Y-129736006D01*
X162446897Y-129736010D01*
X162503250Y-129872057D01*
X162503257Y-129872069D01*
X162592902Y-129988897D01*
X162709730Y-130078542D01*
X162709737Y-130078547D01*
X162845793Y-130134904D01*
X162991800Y-130154126D01*
X163004597Y-130152441D01*
X163074746Y-130163380D01*
X163127845Y-130210508D01*
X163147035Y-130278862D01*
X163126224Y-130346740D01*
X163110139Y-130366458D01*
X162987620Y-130488977D01*
X162925308Y-130523003D01*
X162898458Y-130524283D01*
X162898458Y-130525874D01*
X162890200Y-130525874D01*
X162744193Y-130545095D01*
X162744189Y-130545097D01*
X162608142Y-130601450D01*
X162608130Y-130601457D01*
X162491302Y-130691102D01*
X162401657Y-130807930D01*
X162401650Y-130807942D01*
X162345297Y-130943989D01*
X162345295Y-130943993D01*
X162326074Y-131089999D01*
X162326074Y-131090000D01*
X162345295Y-131236006D01*
X162345297Y-131236010D01*
X162401650Y-131372057D01*
X162401657Y-131372069D01*
X162491302Y-131488897D01*
X162608135Y-131578546D01*
X162609117Y-131579113D01*
X162609779Y-131579807D01*
X162614689Y-131583575D01*
X162614101Y-131584340D01*
X162658110Y-131630495D01*
X162671546Y-131700209D01*
X162645160Y-131766120D01*
X162587328Y-131807302D01*
X162546117Y-131814232D01*
X160915583Y-131814232D01*
X160847462Y-131794230D01*
X160800969Y-131740574D01*
X160790661Y-131671787D01*
X160798594Y-131611532D01*
X160779372Y-131465525D01*
X160723015Y-131329469D01*
X160723010Y-131329462D01*
X160633365Y-131212634D01*
X160516537Y-131122989D01*
X160516533Y-131122987D01*
X160516531Y-131122985D01*
X160516528Y-131122983D01*
X160516525Y-131122982D01*
X160380478Y-131066629D01*
X160380474Y-131066627D01*
X160234468Y-131047406D01*
X160088461Y-131066627D01*
X160088457Y-131066629D01*
X159952410Y-131122982D01*
X159952398Y-131122989D01*
X159865249Y-131189862D01*
X159799029Y-131215463D01*
X159788545Y-131215900D01*
X159211119Y-131215900D01*
X159120553Y-131240166D01*
X159120545Y-131240169D01*
X159039352Y-131287046D01*
X159039342Y-131287054D01*
X154538006Y-135788392D01*
X153071350Y-137255048D01*
X153038200Y-137288197D01*
X153005051Y-137321346D01*
X153005047Y-137321351D01*
X152958170Y-137402544D01*
X152958167Y-137402552D01*
X152933901Y-137493118D01*
X152933901Y-143778500D01*
X152913899Y-143846621D01*
X152860243Y-143893114D01*
X152807901Y-143904500D01*
X152414937Y-143904500D01*
X152414927Y-143904501D01*
X152340700Y-143919265D01*
X152256516Y-143975516D01*
X152200267Y-144059697D01*
X152185501Y-144133930D01*
X152185501Y-145884063D01*
X152185502Y-145884073D01*
X152200266Y-145958300D01*
X152256517Y-146042484D01*
X152340698Y-146098733D01*
X152340700Y-146098734D01*
X152414934Y-146113500D01*
X154165067Y-146113499D01*
X154165070Y-146113498D01*
X154165074Y-146113498D01*
X154214327Y-146103701D01*
X154239302Y-146098734D01*
X154323485Y-146042484D01*
X154379735Y-145958301D01*
X154394501Y-145884067D01*
X154394500Y-144133934D01*
X154394499Y-144133930D01*
X154394499Y-144133926D01*
X154379735Y-144059699D01*
X154323484Y-143975515D01*
X154239303Y-143919266D01*
X154165070Y-143904500D01*
X154165068Y-143904500D01*
X153772101Y-143904500D01*
X153703980Y-143884498D01*
X153657487Y-143830842D01*
X153646101Y-143778500D01*
X153646101Y-137739691D01*
X153666103Y-137671570D01*
X153683006Y-137650596D01*
X155003805Y-136329797D01*
X155066117Y-136295771D01*
X155136932Y-136300836D01*
X155193768Y-136343383D01*
X155218579Y-136409903D01*
X155218900Y-136418892D01*
X155218900Y-144018116D01*
X155198898Y-144086237D01*
X155165365Y-144119212D01*
X155166189Y-144120303D01*
X155161532Y-144123819D01*
X155010270Y-144261712D01*
X154886914Y-144425063D01*
X154795672Y-144608301D01*
X154739655Y-144805180D01*
X154720769Y-145008995D01*
X154720769Y-145009004D01*
X154739655Y-145212819D01*
X154749764Y-145248347D01*
X154795673Y-145409701D01*
X154886913Y-145592935D01*
X154886914Y-145592936D01*
X155010267Y-145756284D01*
X155161537Y-145894185D01*
X155335567Y-146001940D01*
X155335569Y-146001940D01*
X155335574Y-146001944D01*
X155526445Y-146075888D01*
X155727654Y-146113500D01*
X155727656Y-146113500D01*
X155932346Y-146113500D01*
X155932348Y-146113500D01*
X156133557Y-146075888D01*
X156324428Y-146001944D01*
X156498463Y-145894186D01*
X156649733Y-145756285D01*
X156773089Y-145592935D01*
X156864329Y-145409701D01*
X156920346Y-145212821D01*
X156939233Y-145009000D01*
X156939233Y-145008995D01*
X157260769Y-145008995D01*
X157260769Y-145009004D01*
X157279655Y-145212819D01*
X157289764Y-145248347D01*
X157335673Y-145409701D01*
X157426913Y-145592935D01*
X157426914Y-145592936D01*
X157550267Y-145756284D01*
X157701537Y-145894185D01*
X157875567Y-146001940D01*
X157875569Y-146001940D01*
X157875574Y-146001944D01*
X158066445Y-146075888D01*
X158267654Y-146113500D01*
X158267656Y-146113500D01*
X158472346Y-146113500D01*
X158472348Y-146113500D01*
X158673557Y-146075888D01*
X158864428Y-146001944D01*
X159038463Y-145894186D01*
X159189733Y-145756285D01*
X159313089Y-145592935D01*
X159404329Y-145409701D01*
X159460346Y-145212821D01*
X159479233Y-145009000D01*
X159479233Y-145008995D01*
X159800769Y-145008995D01*
X159800769Y-145009004D01*
X159819655Y-145212819D01*
X159829764Y-145248347D01*
X159875673Y-145409701D01*
X159966913Y-145592935D01*
X159966914Y-145592936D01*
X160090267Y-145756284D01*
X160241537Y-145894185D01*
X160415567Y-146001940D01*
X160415569Y-146001940D01*
X160415574Y-146001944D01*
X160606445Y-146075888D01*
X160807654Y-146113500D01*
X160807656Y-146113500D01*
X161012346Y-146113500D01*
X161012348Y-146113500D01*
X161213557Y-146075888D01*
X161404428Y-146001944D01*
X161578463Y-145894186D01*
X161729733Y-145756285D01*
X161853089Y-145592935D01*
X161944329Y-145409701D01*
X162000346Y-145212821D01*
X162019233Y-145009000D01*
X162019233Y-145008995D01*
X162340769Y-145008995D01*
X162340769Y-145009004D01*
X162359655Y-145212819D01*
X162369764Y-145248347D01*
X162415673Y-145409701D01*
X162506913Y-145592935D01*
X162506914Y-145592936D01*
X162630267Y-145756284D01*
X162781537Y-145894185D01*
X162955567Y-146001940D01*
X162955569Y-146001940D01*
X162955574Y-146001944D01*
X163146445Y-146075888D01*
X163347654Y-146113500D01*
X163347656Y-146113500D01*
X163552346Y-146113500D01*
X163552348Y-146113500D01*
X163753557Y-146075888D01*
X163944428Y-146001944D01*
X164118463Y-145894186D01*
X164269733Y-145756285D01*
X164393089Y-145592935D01*
X164484329Y-145409701D01*
X164540346Y-145212821D01*
X164559233Y-145009000D01*
X164559233Y-145008995D01*
X164880769Y-145008995D01*
X164880769Y-145009004D01*
X164899655Y-145212819D01*
X164909764Y-145248347D01*
X164955673Y-145409701D01*
X165046913Y-145592935D01*
X165046914Y-145592936D01*
X165170267Y-145756284D01*
X165321537Y-145894185D01*
X165495567Y-146001940D01*
X165495569Y-146001940D01*
X165495574Y-146001944D01*
X165686445Y-146075888D01*
X165887654Y-146113500D01*
X165887656Y-146113500D01*
X166092346Y-146113500D01*
X166092348Y-146113500D01*
X166293557Y-146075888D01*
X166484428Y-146001944D01*
X166658463Y-145894186D01*
X166809733Y-145756285D01*
X166933089Y-145592935D01*
X167024329Y-145409701D01*
X167080346Y-145212821D01*
X167099233Y-145009000D01*
X167099233Y-145008995D01*
X167420769Y-145008995D01*
X167420769Y-145009004D01*
X167439655Y-145212819D01*
X167449764Y-145248347D01*
X167495673Y-145409701D01*
X167586913Y-145592935D01*
X167586914Y-145592936D01*
X167710267Y-145756284D01*
X167861537Y-145894185D01*
X168035567Y-146001940D01*
X168035569Y-146001940D01*
X168035574Y-146001944D01*
X168226445Y-146075888D01*
X168427654Y-146113500D01*
X168427656Y-146113500D01*
X168632346Y-146113500D01*
X168632348Y-146113500D01*
X168833557Y-146075888D01*
X169024428Y-146001944D01*
X169198463Y-145894186D01*
X169349733Y-145756285D01*
X169473089Y-145592935D01*
X169564329Y-145409701D01*
X169620346Y-145212821D01*
X169639233Y-145009000D01*
X169639233Y-145008995D01*
X169960769Y-145008995D01*
X169960769Y-145009004D01*
X169979655Y-145212819D01*
X169989764Y-145248347D01*
X170035673Y-145409701D01*
X170126913Y-145592935D01*
X170126914Y-145592936D01*
X170250267Y-145756284D01*
X170401537Y-145894185D01*
X170575567Y-146001940D01*
X170575569Y-146001940D01*
X170575574Y-146001944D01*
X170766445Y-146075888D01*
X170967654Y-146113500D01*
X170967656Y-146113500D01*
X171172346Y-146113500D01*
X171172348Y-146113500D01*
X171373557Y-146075888D01*
X171564428Y-146001944D01*
X171738463Y-145894186D01*
X171889733Y-145756285D01*
X172013089Y-145592935D01*
X172104329Y-145409701D01*
X172160346Y-145212821D01*
X172179233Y-145009000D01*
X172179233Y-145008995D01*
X172500769Y-145008995D01*
X172500769Y-145009004D01*
X172519655Y-145212819D01*
X172529764Y-145248347D01*
X172575673Y-145409701D01*
X172666913Y-145592935D01*
X172666914Y-145592936D01*
X172790267Y-145756284D01*
X172941537Y-145894185D01*
X173115567Y-146001940D01*
X173115569Y-146001940D01*
X173115574Y-146001944D01*
X173306445Y-146075888D01*
X173507654Y-146113500D01*
X173507656Y-146113500D01*
X173712346Y-146113500D01*
X173712348Y-146113500D01*
X173913557Y-146075888D01*
X174104428Y-146001944D01*
X174278463Y-145894186D01*
X174429733Y-145756285D01*
X174553089Y-145592935D01*
X174644329Y-145409701D01*
X174700346Y-145212821D01*
X174719233Y-145009000D01*
X174719233Y-145008995D01*
X175040769Y-145008995D01*
X175040769Y-145009004D01*
X175059655Y-145212819D01*
X175069764Y-145248347D01*
X175115673Y-145409701D01*
X175206913Y-145592935D01*
X175206914Y-145592936D01*
X175330267Y-145756284D01*
X175481537Y-145894185D01*
X175655567Y-146001940D01*
X175655569Y-146001940D01*
X175655574Y-146001944D01*
X175846445Y-146075888D01*
X176047654Y-146113500D01*
X176047656Y-146113500D01*
X176252346Y-146113500D01*
X176252348Y-146113500D01*
X176453557Y-146075888D01*
X176644428Y-146001944D01*
X176818463Y-145894186D01*
X176969733Y-145756285D01*
X177093089Y-145592935D01*
X177184329Y-145409701D01*
X177240346Y-145212821D01*
X177259233Y-145009000D01*
X177254144Y-144954085D01*
X177240346Y-144805180D01*
X177240346Y-144805179D01*
X177184329Y-144608299D01*
X177093089Y-144425065D01*
X177052539Y-144371368D01*
X176969734Y-144261715D01*
X176818464Y-144123814D01*
X176644434Y-144016059D01*
X176644429Y-144016057D01*
X176644428Y-144016056D01*
X176644423Y-144016054D01*
X176453560Y-143942113D01*
X176453561Y-143942113D01*
X176453558Y-143942112D01*
X176453557Y-143942112D01*
X176252348Y-143904500D01*
X176047654Y-143904500D01*
X175846445Y-143942112D01*
X175846440Y-143942113D01*
X175655578Y-144016054D01*
X175655567Y-144016059D01*
X175481537Y-144123814D01*
X175330267Y-144261715D01*
X175206914Y-144425063D01*
X175115672Y-144608301D01*
X175059655Y-144805180D01*
X175040769Y-145008995D01*
X174719233Y-145008995D01*
X174714144Y-144954085D01*
X174700346Y-144805180D01*
X174700346Y-144805179D01*
X174644329Y-144608299D01*
X174553089Y-144425065D01*
X174512539Y-144371368D01*
X174429734Y-144261715D01*
X174278464Y-144123814D01*
X174104434Y-144016059D01*
X174104429Y-144016057D01*
X174104428Y-144016056D01*
X174104423Y-144016054D01*
X173913560Y-143942113D01*
X173913561Y-143942113D01*
X173913558Y-143942112D01*
X173913557Y-143942112D01*
X173712348Y-143904500D01*
X173507654Y-143904500D01*
X173306445Y-143942112D01*
X173306440Y-143942113D01*
X173115578Y-144016054D01*
X173115567Y-144016059D01*
X172941537Y-144123814D01*
X172790267Y-144261715D01*
X172666914Y-144425063D01*
X172575672Y-144608301D01*
X172519655Y-144805180D01*
X172500769Y-145008995D01*
X172179233Y-145008995D01*
X172174144Y-144954085D01*
X172160346Y-144805180D01*
X172160346Y-144805179D01*
X172104329Y-144608299D01*
X172013089Y-144425065D01*
X171972539Y-144371368D01*
X171889734Y-144261715D01*
X171738464Y-144123814D01*
X171564434Y-144016059D01*
X171564429Y-144016057D01*
X171564428Y-144016056D01*
X171564423Y-144016054D01*
X171373560Y-143942113D01*
X171373561Y-143942113D01*
X171373558Y-143942112D01*
X171373557Y-143942112D01*
X171172348Y-143904500D01*
X170967654Y-143904500D01*
X170766445Y-143942112D01*
X170766440Y-143942113D01*
X170575578Y-144016054D01*
X170575567Y-144016059D01*
X170401537Y-144123814D01*
X170250267Y-144261715D01*
X170126914Y-144425063D01*
X170035672Y-144608301D01*
X169979655Y-144805180D01*
X169960769Y-145008995D01*
X169639233Y-145008995D01*
X169634144Y-144954085D01*
X169620346Y-144805180D01*
X169620346Y-144805179D01*
X169564329Y-144608299D01*
X169473089Y-144425065D01*
X169432539Y-144371368D01*
X169349734Y-144261715D01*
X169198464Y-144123814D01*
X169024434Y-144016059D01*
X169024429Y-144016057D01*
X169024428Y-144016056D01*
X169024423Y-144016054D01*
X168833560Y-143942113D01*
X168833561Y-143942113D01*
X168833558Y-143942112D01*
X168833557Y-143942112D01*
X168632348Y-143904500D01*
X168427654Y-143904500D01*
X168226445Y-143942112D01*
X168226440Y-143942113D01*
X168035578Y-144016054D01*
X168035567Y-144016059D01*
X167861537Y-144123814D01*
X167710267Y-144261715D01*
X167586914Y-144425063D01*
X167495672Y-144608301D01*
X167439655Y-144805180D01*
X167420769Y-145008995D01*
X167099233Y-145008995D01*
X167094144Y-144954085D01*
X167080346Y-144805180D01*
X167080346Y-144805179D01*
X167024329Y-144608299D01*
X166933089Y-144425065D01*
X166892539Y-144371368D01*
X166809734Y-144261715D01*
X166658464Y-144123814D01*
X166484434Y-144016059D01*
X166484429Y-144016057D01*
X166484428Y-144016056D01*
X166484423Y-144016054D01*
X166293560Y-143942113D01*
X166293561Y-143942113D01*
X166293558Y-143942112D01*
X166293557Y-143942112D01*
X166092348Y-143904500D01*
X165887654Y-143904500D01*
X165686445Y-143942112D01*
X165686440Y-143942113D01*
X165495578Y-144016054D01*
X165495567Y-144016059D01*
X165321537Y-144123814D01*
X165170267Y-144261715D01*
X165046914Y-144425063D01*
X164955672Y-144608301D01*
X164899655Y-144805180D01*
X164880769Y-145008995D01*
X164559233Y-145008995D01*
X164554144Y-144954085D01*
X164540346Y-144805180D01*
X164540346Y-144805179D01*
X164484329Y-144608299D01*
X164393089Y-144425065D01*
X164352539Y-144371368D01*
X164269734Y-144261715D01*
X164118464Y-144123814D01*
X163944434Y-144016059D01*
X163944429Y-144016057D01*
X163944428Y-144016056D01*
X163944423Y-144016054D01*
X163753560Y-143942113D01*
X163753561Y-143942113D01*
X163753558Y-143942112D01*
X163753557Y-143942112D01*
X163552348Y-143904500D01*
X163347654Y-143904500D01*
X163146445Y-143942112D01*
X163146440Y-143942113D01*
X162955578Y-144016054D01*
X162955567Y-144016059D01*
X162781537Y-144123814D01*
X162630267Y-144261715D01*
X162506914Y-144425063D01*
X162415672Y-144608301D01*
X162359655Y-144805180D01*
X162340769Y-145008995D01*
X162019233Y-145008995D01*
X162014144Y-144954085D01*
X162000346Y-144805180D01*
X162000346Y-144805179D01*
X161944329Y-144608299D01*
X161853089Y-144425065D01*
X161812539Y-144371368D01*
X161729734Y-144261715D01*
X161578464Y-144123814D01*
X161404434Y-144016059D01*
X161404429Y-144016057D01*
X161404428Y-144016056D01*
X161404423Y-144016054D01*
X161213560Y-143942113D01*
X161213561Y-143942113D01*
X161213558Y-143942112D01*
X161213557Y-143942112D01*
X161012348Y-143904500D01*
X160807654Y-143904500D01*
X160606445Y-143942112D01*
X160606440Y-143942113D01*
X160415578Y-144016054D01*
X160415567Y-144016059D01*
X160241537Y-144123814D01*
X160090267Y-144261715D01*
X159966914Y-144425063D01*
X159875672Y-144608301D01*
X159819655Y-144805180D01*
X159800769Y-145008995D01*
X159479233Y-145008995D01*
X159474144Y-144954085D01*
X159460346Y-144805180D01*
X159460346Y-144805179D01*
X159404329Y-144608299D01*
X159313089Y-144425065D01*
X159272539Y-144371368D01*
X159189734Y-144261715D01*
X159038464Y-144123814D01*
X158864434Y-144016059D01*
X158864429Y-144016057D01*
X158864428Y-144016056D01*
X158864423Y-144016054D01*
X158673560Y-143942113D01*
X158673561Y-143942113D01*
X158673558Y-143942112D01*
X158673557Y-143942112D01*
X158472348Y-143904500D01*
X158267654Y-143904500D01*
X158066445Y-143942112D01*
X158066440Y-143942113D01*
X157875578Y-144016054D01*
X157875567Y-144016059D01*
X157701537Y-144123814D01*
X157550267Y-144261715D01*
X157426914Y-144425063D01*
X157335672Y-144608301D01*
X157279655Y-144805180D01*
X157260769Y-145008995D01*
X156939233Y-145008995D01*
X156934144Y-144954085D01*
X156920346Y-144805180D01*
X156920346Y-144805179D01*
X156864329Y-144608299D01*
X156773089Y-144425065D01*
X156732539Y-144371368D01*
X156649734Y-144261715D01*
X156498464Y-144123814D01*
X156324434Y-144016059D01*
X156324429Y-144016057D01*
X156324428Y-144016056D01*
X156324423Y-144016054D01*
X156133562Y-143942113D01*
X156133557Y-143942112D01*
X156033946Y-143923491D01*
X155970662Y-143891313D01*
X155934820Y-143830027D01*
X155931100Y-143799637D01*
X155931100Y-140207999D01*
X158439874Y-140207999D01*
X158439874Y-140208000D01*
X158459095Y-140354006D01*
X158459097Y-140354010D01*
X158515450Y-140490057D01*
X158515457Y-140490069D01*
X158605102Y-140606897D01*
X158721930Y-140696542D01*
X158721937Y-140696547D01*
X158857993Y-140752904D01*
X159004000Y-140772126D01*
X159150007Y-140752904D01*
X159286063Y-140696547D01*
X159402897Y-140606897D01*
X159492547Y-140490063D01*
X159548904Y-140354007D01*
X159568126Y-140208000D01*
X159568126Y-140207999D01*
X161233874Y-140207999D01*
X161233874Y-140208000D01*
X161253095Y-140354006D01*
X161253097Y-140354010D01*
X161309450Y-140490057D01*
X161309457Y-140490069D01*
X161399102Y-140606897D01*
X161515930Y-140696542D01*
X161515937Y-140696547D01*
X161651993Y-140752904D01*
X161798000Y-140772126D01*
X161944007Y-140752904D01*
X162080063Y-140696547D01*
X162196897Y-140606897D01*
X162286547Y-140490063D01*
X162342904Y-140354007D01*
X162362126Y-140208000D01*
X162357267Y-140171095D01*
X162342904Y-140061993D01*
X162342902Y-140061989D01*
X162286549Y-139925942D01*
X162286547Y-139925937D01*
X162286542Y-139925930D01*
X162196897Y-139809102D01*
X162080069Y-139719457D01*
X162080065Y-139719455D01*
X162080063Y-139719453D01*
X162080060Y-139719451D01*
X162080057Y-139719450D01*
X161944010Y-139663097D01*
X161944006Y-139663095D01*
X161798000Y-139643874D01*
X161651993Y-139663095D01*
X161651989Y-139663097D01*
X161515942Y-139719450D01*
X161515930Y-139719457D01*
X161399102Y-139809102D01*
X161309457Y-139925930D01*
X161309450Y-139925942D01*
X161253097Y-140061989D01*
X161253095Y-140061993D01*
X161233874Y-140207999D01*
X159568126Y-140207999D01*
X159563267Y-140171095D01*
X159548904Y-140061993D01*
X159548902Y-140061989D01*
X159492549Y-139925942D01*
X159492547Y-139925937D01*
X159492542Y-139925930D01*
X159402897Y-139809102D01*
X159286069Y-139719457D01*
X159286065Y-139719455D01*
X159286063Y-139719453D01*
X159286060Y-139719451D01*
X159286057Y-139719450D01*
X159150010Y-139663097D01*
X159150006Y-139663095D01*
X159004000Y-139643874D01*
X158857993Y-139663095D01*
X158857989Y-139663097D01*
X158721942Y-139719450D01*
X158721930Y-139719457D01*
X158605102Y-139809102D01*
X158515457Y-139925930D01*
X158515450Y-139925942D01*
X158459097Y-140061989D01*
X158459095Y-140061993D01*
X158439874Y-140207999D01*
X155931100Y-140207999D01*
X155931100Y-138683999D01*
X161233874Y-138683999D01*
X161233874Y-138684000D01*
X161253095Y-138830006D01*
X161253097Y-138830010D01*
X161309450Y-138966057D01*
X161309457Y-138966069D01*
X161399102Y-139082897D01*
X161515930Y-139172542D01*
X161515937Y-139172547D01*
X161651993Y-139228904D01*
X161798000Y-139248126D01*
X161944007Y-139228904D01*
X162080063Y-139172547D01*
X162196897Y-139082897D01*
X162286547Y-138966063D01*
X162342904Y-138830007D01*
X162362126Y-138684000D01*
X162358431Y-138655937D01*
X162342904Y-138537993D01*
X162342902Y-138537989D01*
X162308172Y-138454145D01*
X162286547Y-138401937D01*
X162279763Y-138393096D01*
X162196897Y-138285102D01*
X162080069Y-138195457D01*
X162080065Y-138195455D01*
X162080063Y-138195453D01*
X162080060Y-138195451D01*
X162080057Y-138195450D01*
X161944010Y-138139097D01*
X161944006Y-138139095D01*
X161798000Y-138119874D01*
X161651993Y-138139095D01*
X161651989Y-138139097D01*
X161515942Y-138195450D01*
X161515930Y-138195457D01*
X161399102Y-138285102D01*
X161309457Y-138401930D01*
X161309450Y-138401942D01*
X161253097Y-138537989D01*
X161253095Y-138537993D01*
X161233874Y-138683999D01*
X155931100Y-138683999D01*
X155931100Y-137159999D01*
X158312874Y-137159999D01*
X158312874Y-137160000D01*
X158332095Y-137306006D01*
X158332097Y-137306010D01*
X158388450Y-137442057D01*
X158388457Y-137442069D01*
X158478102Y-137558897D01*
X158594930Y-137648542D01*
X158594937Y-137648547D01*
X158730993Y-137704904D01*
X158877000Y-137724126D01*
X159023007Y-137704904D01*
X159159063Y-137648547D01*
X159275897Y-137558897D01*
X159365547Y-137442063D01*
X159421904Y-137306007D01*
X159441126Y-137160000D01*
X159441126Y-137159999D01*
X161233874Y-137159999D01*
X161233874Y-137160000D01*
X161253095Y-137306006D01*
X161253097Y-137306010D01*
X161309450Y-137442057D01*
X161309457Y-137442069D01*
X161399102Y-137558897D01*
X161515930Y-137648542D01*
X161515937Y-137648547D01*
X161651993Y-137704904D01*
X161798000Y-137724126D01*
X161944007Y-137704904D01*
X162080063Y-137648547D01*
X162196897Y-137558897D01*
X162286547Y-137442063D01*
X162342904Y-137306007D01*
X162362126Y-137160000D01*
X162346328Y-137039999D01*
X195181238Y-137039999D01*
X195201440Y-137309584D01*
X195258345Y-137558897D01*
X195261596Y-137573140D01*
X195300227Y-137671570D01*
X195360360Y-137824787D01*
X195360363Y-137824795D01*
X195495527Y-138058906D01*
X195495528Y-138058907D01*
X195495530Y-138058910D01*
X195664083Y-138270268D01*
X195862255Y-138454145D01*
X195862261Y-138454149D01*
X196085615Y-138606429D01*
X196085623Y-138606434D01*
X196329175Y-138723722D01*
X196329176Y-138723722D01*
X196329184Y-138723726D01*
X196549059Y-138791549D01*
X196587504Y-138803408D01*
X196587511Y-138803410D01*
X196854829Y-138843701D01*
X196854833Y-138843701D01*
X197125163Y-138843701D01*
X197125167Y-138843701D01*
X197392485Y-138803410D01*
X197650812Y-138723726D01*
X197894378Y-138606431D01*
X198117741Y-138454145D01*
X198315913Y-138270268D01*
X198484466Y-138058910D01*
X198552281Y-137941450D01*
X198619632Y-137824795D01*
X198619635Y-137824788D01*
X198718400Y-137573140D01*
X198778556Y-137309581D01*
X198798758Y-137039999D01*
X198778556Y-136770417D01*
X198718400Y-136506858D01*
X198619634Y-136255207D01*
X198619633Y-136255206D01*
X198619632Y-136255202D01*
X198484468Y-136021091D01*
X198484467Y-136021089D01*
X198484466Y-136021088D01*
X198315913Y-135809730D01*
X198117741Y-135625853D01*
X198117734Y-135625848D01*
X197894380Y-135473568D01*
X197894372Y-135473563D01*
X197650820Y-135356275D01*
X197650815Y-135356273D01*
X197650812Y-135356272D01*
X197551396Y-135325606D01*
X197392491Y-135276589D01*
X197392486Y-135276588D01*
X197392485Y-135276588D01*
X197125167Y-135236297D01*
X196854829Y-135236297D01*
X196587511Y-135276588D01*
X196587510Y-135276588D01*
X196587504Y-135276589D01*
X196370984Y-135343378D01*
X196329184Y-135356272D01*
X196329182Y-135356272D01*
X196329175Y-135356275D01*
X196085623Y-135473563D01*
X196085615Y-135473568D01*
X195862261Y-135625848D01*
X195862256Y-135625852D01*
X195664084Y-135809729D01*
X195495527Y-136021091D01*
X195360363Y-136255202D01*
X195360360Y-136255210D01*
X195261595Y-136506861D01*
X195201440Y-136770413D01*
X195181238Y-137039999D01*
X162346328Y-137039999D01*
X162342904Y-137013993D01*
X162286547Y-136877937D01*
X162286542Y-136877930D01*
X162196897Y-136761102D01*
X162080069Y-136671457D01*
X162080065Y-136671455D01*
X162080063Y-136671453D01*
X162080060Y-136671451D01*
X162080057Y-136671450D01*
X161944010Y-136615097D01*
X161944006Y-136615095D01*
X161798000Y-136595874D01*
X161651993Y-136615095D01*
X161651989Y-136615097D01*
X161515942Y-136671450D01*
X161515930Y-136671457D01*
X161399102Y-136761102D01*
X161309457Y-136877930D01*
X161309450Y-136877942D01*
X161253097Y-137013989D01*
X161253095Y-137013993D01*
X161233874Y-137159999D01*
X159441126Y-137159999D01*
X159421904Y-137013993D01*
X159365547Y-136877937D01*
X159365542Y-136877930D01*
X159275897Y-136761102D01*
X159159069Y-136671457D01*
X159159065Y-136671455D01*
X159159063Y-136671453D01*
X159159060Y-136671451D01*
X159159057Y-136671450D01*
X159023010Y-136615097D01*
X159023006Y-136615095D01*
X158877000Y-136595874D01*
X158730993Y-136615095D01*
X158730989Y-136615097D01*
X158594942Y-136671450D01*
X158594930Y-136671457D01*
X158478102Y-136761102D01*
X158388457Y-136877930D01*
X158388450Y-136877942D01*
X158332097Y-137013989D01*
X158332095Y-137013993D01*
X158312874Y-137159999D01*
X155931100Y-137159999D01*
X155931100Y-135957585D01*
X155951102Y-135889464D01*
X155968000Y-135868495D01*
X158410164Y-133426330D01*
X158472474Y-133392307D01*
X158543289Y-133397371D01*
X158599217Y-133438721D01*
X158672993Y-133534867D01*
X158681305Y-133545699D01*
X158798130Y-133635342D01*
X158798137Y-133635347D01*
X158934193Y-133691704D01*
X159080200Y-133710926D01*
X159226207Y-133691704D01*
X159362263Y-133635347D01*
X159479097Y-133545697D01*
X159568747Y-133428863D01*
X159625104Y-133292807D01*
X159644326Y-133146800D01*
X159644025Y-133144517D01*
X159625104Y-133000793D01*
X159625102Y-133000789D01*
X159620900Y-132990645D01*
X159568747Y-132864737D01*
X159550280Y-132840671D01*
X159479095Y-132747900D01*
X159473258Y-132742063D01*
X159475660Y-132739660D01*
X159443097Y-132695095D01*
X159438852Y-132624226D01*
X159473596Y-132562311D01*
X159536298Y-132529010D01*
X159561654Y-132526432D01*
X160071946Y-132526432D01*
X160140067Y-132546434D01*
X160186560Y-132600090D01*
X160196664Y-132670364D01*
X160167170Y-132734944D01*
X160159987Y-132741708D01*
X160160342Y-132742063D01*
X160154504Y-132747900D01*
X160064857Y-132864730D01*
X160064850Y-132864742D01*
X160008497Y-133000789D01*
X160008495Y-133000793D01*
X159989274Y-133146799D01*
X159989274Y-133146800D01*
X160008495Y-133292806D01*
X160008497Y-133292810D01*
X160064850Y-133428857D01*
X160064857Y-133428869D01*
X160154502Y-133545697D01*
X160271330Y-133635342D01*
X160271337Y-133635347D01*
X160407393Y-133691704D01*
X160553400Y-133710926D01*
X160699407Y-133691704D01*
X160835463Y-133635347D01*
X160952297Y-133545697D01*
X161041947Y-133428863D01*
X161098304Y-133292807D01*
X161117526Y-133146800D01*
X161117225Y-133144517D01*
X161098304Y-133000793D01*
X161098302Y-133000789D01*
X161094100Y-132990645D01*
X161041947Y-132864737D01*
X161023480Y-132840671D01*
X160952295Y-132747900D01*
X160946458Y-132742063D01*
X160948860Y-132739660D01*
X160916297Y-132695095D01*
X160912052Y-132624226D01*
X160946796Y-132562311D01*
X161009498Y-132529010D01*
X161034854Y-132526432D01*
X161636749Y-132526432D01*
X161704870Y-132546434D01*
X161751363Y-132600090D01*
X161761467Y-132670364D01*
X161731973Y-132734944D01*
X161713453Y-132752394D01*
X161653102Y-132798702D01*
X161563457Y-132915530D01*
X161563450Y-132915542D01*
X161507097Y-133051589D01*
X161507095Y-133051593D01*
X161487874Y-133197599D01*
X161487874Y-133197600D01*
X161507095Y-133343606D01*
X161507097Y-133343610D01*
X161563450Y-133479657D01*
X161563457Y-133479669D01*
X161653102Y-133596497D01*
X161723516Y-133650528D01*
X161765384Y-133707866D01*
X161769605Y-133778737D01*
X161734840Y-133840640D01*
X161723518Y-133850451D01*
X161703902Y-133865503D01*
X161614257Y-133982330D01*
X161614250Y-133982342D01*
X161557897Y-134118389D01*
X161557895Y-134118393D01*
X161538674Y-134264399D01*
X161538674Y-134264400D01*
X161557895Y-134410406D01*
X161557897Y-134410410D01*
X161614250Y-134546457D01*
X161614257Y-134546469D01*
X161703902Y-134663297D01*
X161816449Y-134749657D01*
X161820737Y-134752947D01*
X161956793Y-134809304D01*
X162102800Y-134828526D01*
X162248807Y-134809304D01*
X162384863Y-134752947D01*
X162501697Y-134663297D01*
X162591347Y-134546463D01*
X162647704Y-134410407D01*
X162666926Y-134264400D01*
X162647704Y-134118393D01*
X162592450Y-133984999D01*
X169158674Y-133984999D01*
X169158674Y-133985000D01*
X169177895Y-134131006D01*
X169177897Y-134131010D01*
X169234250Y-134267057D01*
X169234257Y-134267069D01*
X169323902Y-134383897D01*
X169440730Y-134473542D01*
X169440737Y-134473547D01*
X169576793Y-134529904D01*
X169722800Y-134549126D01*
X169868807Y-134529904D01*
X170004863Y-134473547D01*
X170032803Y-134452107D01*
X170099023Y-134426507D01*
X170168571Y-134440771D01*
X170219368Y-134490372D01*
X170234429Y-134535623D01*
X170244696Y-134613607D01*
X170244697Y-134613610D01*
X170301050Y-134749657D01*
X170301057Y-134749669D01*
X170390702Y-134866497D01*
X170507530Y-134956142D01*
X170507537Y-134956147D01*
X170643593Y-135012504D01*
X170789600Y-135031726D01*
X170935607Y-135012504D01*
X171071663Y-134956147D01*
X171188497Y-134866497D01*
X171278147Y-134749663D01*
X171334504Y-134613607D01*
X171353726Y-134467600D01*
X171351686Y-134452108D01*
X171334504Y-134321593D01*
X171334502Y-134321589D01*
X171329556Y-134309649D01*
X171278147Y-134185537D01*
X171264787Y-134168126D01*
X171188499Y-134068705D01*
X171188497Y-134068704D01*
X171188497Y-134068703D01*
X171077277Y-133983361D01*
X171035412Y-133926025D01*
X171031190Y-133855154D01*
X171065954Y-133793251D01*
X171077272Y-133783442D01*
X171188497Y-133698097D01*
X171260701Y-133603999D01*
X193110874Y-133603999D01*
X193110874Y-133604000D01*
X193130095Y-133750006D01*
X193130097Y-133750010D01*
X193186450Y-133886057D01*
X193186457Y-133886069D01*
X193276102Y-134002897D01*
X193392930Y-134092542D01*
X193392937Y-134092547D01*
X193528993Y-134148904D01*
X193675000Y-134168126D01*
X193821007Y-134148904D01*
X193957063Y-134092547D01*
X194073897Y-134002897D01*
X194163547Y-133886063D01*
X194219904Y-133750007D01*
X194239126Y-133604000D01*
X194236133Y-133581269D01*
X194219904Y-133457993D01*
X194219902Y-133457989D01*
X194214607Y-133445207D01*
X194163547Y-133321937D01*
X194163542Y-133321930D01*
X194073897Y-133205102D01*
X193957069Y-133115457D01*
X193957065Y-133115455D01*
X193957063Y-133115453D01*
X193957060Y-133115451D01*
X193957057Y-133115450D01*
X193910099Y-133095999D01*
X199714874Y-133095999D01*
X199714874Y-133096000D01*
X199734095Y-133242006D01*
X199734097Y-133242010D01*
X199790450Y-133378057D01*
X199790457Y-133378069D01*
X199880102Y-133494897D01*
X199946309Y-133545699D01*
X199996937Y-133584547D01*
X200132993Y-133640904D01*
X200279000Y-133660126D01*
X200425007Y-133640904D01*
X200561063Y-133584547D01*
X200677897Y-133494897D01*
X200767547Y-133378063D01*
X200823904Y-133242007D01*
X200843126Y-133096000D01*
X200838267Y-133059095D01*
X200823904Y-132949993D01*
X200823902Y-132949989D01*
X200809633Y-132915542D01*
X200767547Y-132813937D01*
X200767542Y-132813930D01*
X200677897Y-132697102D01*
X200561069Y-132607457D01*
X200561065Y-132607455D01*
X200561063Y-132607453D01*
X200561060Y-132607451D01*
X200561057Y-132607450D01*
X200425010Y-132551097D01*
X200425006Y-132551095D01*
X200279000Y-132531874D01*
X200132993Y-132551095D01*
X200132989Y-132551097D01*
X199996942Y-132607450D01*
X199996930Y-132607457D01*
X199880102Y-132697102D01*
X199790457Y-132813930D01*
X199790450Y-132813942D01*
X199734097Y-132949989D01*
X199734095Y-132949993D01*
X199714874Y-133095999D01*
X193910099Y-133095999D01*
X193821010Y-133059097D01*
X193821006Y-133059095D01*
X193675000Y-133039874D01*
X193528993Y-133059095D01*
X193528989Y-133059097D01*
X193392942Y-133115450D01*
X193392930Y-133115457D01*
X193276102Y-133205102D01*
X193186457Y-133321930D01*
X193186450Y-133321942D01*
X193130097Y-133457989D01*
X193130095Y-133457993D01*
X193110874Y-133603999D01*
X171260701Y-133603999D01*
X171278147Y-133581263D01*
X171334504Y-133445207D01*
X171353726Y-133299200D01*
X171346196Y-133242007D01*
X171334504Y-133153193D01*
X171334502Y-133153189D01*
X171324838Y-133129859D01*
X171278147Y-133017137D01*
X171257819Y-132990645D01*
X171188497Y-132900302D01*
X171071669Y-132810657D01*
X171071665Y-132810655D01*
X171071663Y-132810653D01*
X171071660Y-132810651D01*
X171071657Y-132810650D01*
X170935610Y-132754297D01*
X170935606Y-132754295D01*
X170789600Y-132735074D01*
X170643593Y-132754295D01*
X170643589Y-132754297D01*
X170507542Y-132810650D01*
X170507530Y-132810657D01*
X170390702Y-132900302D01*
X170301057Y-133017130D01*
X170301050Y-133017142D01*
X170244697Y-133153189D01*
X170244695Y-133153193D01*
X170225474Y-133299199D01*
X170225474Y-133299200D01*
X170239446Y-133405333D01*
X170228506Y-133475482D01*
X170181378Y-133528580D01*
X170113024Y-133547770D01*
X170045146Y-133526958D01*
X170037821Y-133521742D01*
X170004868Y-133496457D01*
X170004869Y-133496457D01*
X170004863Y-133496453D01*
X170004859Y-133496451D01*
X170004857Y-133496450D01*
X169868810Y-133440097D01*
X169868806Y-133440095D01*
X169722800Y-133420874D01*
X169576793Y-133440095D01*
X169576789Y-133440097D01*
X169440742Y-133496450D01*
X169440730Y-133496457D01*
X169323902Y-133586102D01*
X169234257Y-133702930D01*
X169234250Y-133702942D01*
X169177897Y-133838989D01*
X169177895Y-133838993D01*
X169158674Y-133984999D01*
X162592450Y-133984999D01*
X162591347Y-133982337D01*
X162548137Y-133926025D01*
X162501698Y-133865504D01*
X162431282Y-133811471D01*
X162389415Y-133754133D01*
X162385194Y-133683262D01*
X162419959Y-133621359D01*
X162431276Y-133611552D01*
X162450897Y-133596497D01*
X162540547Y-133479663D01*
X162596904Y-133343607D01*
X162616126Y-133197600D01*
X162596904Y-133051593D01*
X162540547Y-132915537D01*
X162540542Y-132915530D01*
X162450897Y-132798702D01*
X162390547Y-132752394D01*
X162348680Y-132695056D01*
X162344458Y-132624185D01*
X162379222Y-132562282D01*
X162441935Y-132529001D01*
X162467251Y-132526432D01*
X163405547Y-132526432D01*
X163405549Y-132526432D01*
X163496118Y-132502165D01*
X163577319Y-132455283D01*
X163749403Y-132283199D01*
X164866074Y-132283199D01*
X164866074Y-132283200D01*
X164885295Y-132429206D01*
X164885297Y-132429210D01*
X164941650Y-132565257D01*
X164941657Y-132565269D01*
X165031302Y-132682097D01*
X165148130Y-132771742D01*
X165148137Y-132771747D01*
X165284193Y-132828104D01*
X165430200Y-132847326D01*
X165576207Y-132828104D01*
X165712263Y-132771747D01*
X165829097Y-132682097D01*
X165918747Y-132565263D01*
X165951109Y-132487133D01*
X165995655Y-132431855D01*
X166063018Y-132409434D01*
X166115735Y-132418946D01*
X166122393Y-132421704D01*
X166268400Y-132440926D01*
X166414407Y-132421704D01*
X166550463Y-132365347D01*
X166667297Y-132275697D01*
X166756947Y-132158863D01*
X166813304Y-132022807D01*
X166822494Y-131952999D01*
X193110874Y-131952999D01*
X193110874Y-131953000D01*
X193130095Y-132099006D01*
X193130097Y-132099010D01*
X193186450Y-132235057D01*
X193186457Y-132235069D01*
X193276102Y-132351897D01*
X193392930Y-132441542D01*
X193392937Y-132441547D01*
X193528993Y-132497904D01*
X193675000Y-132517126D01*
X193821007Y-132497904D01*
X193957063Y-132441547D01*
X194073897Y-132351897D01*
X194163547Y-132235063D01*
X194219904Y-132099007D01*
X194239126Y-131953000D01*
X194233589Y-131910945D01*
X194219904Y-131806993D01*
X194219902Y-131806989D01*
X194218326Y-131803185D01*
X194163547Y-131670937D01*
X194159210Y-131665285D01*
X194073897Y-131554102D01*
X193957069Y-131464457D01*
X193957065Y-131464455D01*
X193957063Y-131464453D01*
X193957060Y-131464451D01*
X193957057Y-131464450D01*
X193821010Y-131408097D01*
X193821006Y-131408095D01*
X193675000Y-131388874D01*
X193528993Y-131408095D01*
X193528989Y-131408097D01*
X193392942Y-131464450D01*
X193392930Y-131464457D01*
X193276102Y-131554102D01*
X193186457Y-131670930D01*
X193186450Y-131670942D01*
X193130097Y-131806989D01*
X193130095Y-131806993D01*
X193110874Y-131952999D01*
X166822494Y-131952999D01*
X166832526Y-131876800D01*
X166822834Y-131803185D01*
X166813304Y-131730793D01*
X166813302Y-131730789D01*
X166808449Y-131719074D01*
X166756947Y-131594737D01*
X166756942Y-131594730D01*
X166667297Y-131477902D01*
X166550469Y-131388257D01*
X166550465Y-131388255D01*
X166550463Y-131388253D01*
X166550460Y-131388251D01*
X166550457Y-131388250D01*
X166414410Y-131331897D01*
X166414406Y-131331895D01*
X166268400Y-131312674D01*
X166122393Y-131331895D01*
X166122389Y-131331897D01*
X165986342Y-131388250D01*
X165986330Y-131388257D01*
X165869502Y-131477902D01*
X165779857Y-131594730D01*
X165779852Y-131594738D01*
X165747490Y-131672865D01*
X165702940Y-131728145D01*
X165635577Y-131750564D01*
X165582867Y-131741054D01*
X165576210Y-131738297D01*
X165576206Y-131738295D01*
X165430200Y-131719074D01*
X165284193Y-131738295D01*
X165284189Y-131738297D01*
X165148142Y-131794650D01*
X165148130Y-131794657D01*
X165031302Y-131884302D01*
X164941657Y-132001130D01*
X164941650Y-132001142D01*
X164885297Y-132137189D01*
X164885295Y-132137193D01*
X164866074Y-132283199D01*
X163749403Y-132283199D01*
X164367580Y-131665020D01*
X164429891Y-131630997D01*
X164456740Y-131629939D01*
X164456740Y-131628126D01*
X164465000Y-131628126D01*
X164611007Y-131608904D01*
X164747063Y-131552547D01*
X164863897Y-131462897D01*
X164953547Y-131346063D01*
X165009904Y-131210007D01*
X165029126Y-131064000D01*
X165029126Y-131063999D01*
X165011162Y-130927546D01*
X165022102Y-130857397D01*
X165069230Y-130804299D01*
X165136084Y-130785100D01*
X177499885Y-130785100D01*
X177568006Y-130805102D01*
X177614499Y-130858758D01*
X177624806Y-130927544D01*
X177619230Y-130969902D01*
X177616874Y-130987800D01*
X177636095Y-131133806D01*
X177636097Y-131133810D01*
X177692450Y-131269857D01*
X177692457Y-131269869D01*
X177782102Y-131386697D01*
X177894649Y-131473057D01*
X177898937Y-131476347D01*
X178034993Y-131532704D01*
X178181000Y-131551926D01*
X178327007Y-131532704D01*
X178463063Y-131476347D01*
X178579897Y-131386697D01*
X178669547Y-131269863D01*
X178725904Y-131133807D01*
X178745126Y-130987800D01*
X178737193Y-130927544D01*
X178738682Y-130917995D01*
X211234768Y-130917995D01*
X211234768Y-130918004D01*
X211253654Y-131121819D01*
X211301844Y-131291190D01*
X211309672Y-131318701D01*
X211400912Y-131501935D01*
X211410635Y-131514810D01*
X211524266Y-131665284D01*
X211675536Y-131803185D01*
X211849566Y-131910940D01*
X211849568Y-131910940D01*
X211849573Y-131910944D01*
X212040444Y-131984888D01*
X212241653Y-132022500D01*
X212241655Y-132022500D01*
X212446345Y-132022500D01*
X212446347Y-132022500D01*
X212647556Y-131984888D01*
X212838427Y-131910944D01*
X213012462Y-131803186D01*
X213163732Y-131665285D01*
X213174471Y-131651065D01*
X213206310Y-131608902D01*
X213287088Y-131501935D01*
X213378328Y-131318701D01*
X213434345Y-131121821D01*
X213442250Y-131036516D01*
X213453232Y-130918004D01*
X213453232Y-130917995D01*
X213434345Y-130714180D01*
X213434345Y-130714179D01*
X213378328Y-130517299D01*
X213287088Y-130334065D01*
X213245401Y-130278862D01*
X213163733Y-130170715D01*
X213012463Y-130032814D01*
X212838433Y-129925059D01*
X212838428Y-129925057D01*
X212838427Y-129925056D01*
X212770402Y-129898703D01*
X212647559Y-129851113D01*
X212647560Y-129851113D01*
X212647557Y-129851112D01*
X212647556Y-129851112D01*
X212446347Y-129813500D01*
X212241653Y-129813500D01*
X212040444Y-129851112D01*
X212040439Y-129851113D01*
X211849577Y-129925054D01*
X211849566Y-129925059D01*
X211675536Y-130032814D01*
X211524266Y-130170715D01*
X211400913Y-130334063D01*
X211309671Y-130517301D01*
X211253654Y-130714180D01*
X211234768Y-130917995D01*
X178738682Y-130917995D01*
X178748132Y-130857398D01*
X178795260Y-130804299D01*
X178862115Y-130785100D01*
X190648479Y-130785100D01*
X190648481Y-130785100D01*
X190739050Y-130760833D01*
X190820251Y-130713951D01*
X191875779Y-129658420D01*
X191938090Y-129624397D01*
X191964940Y-129623313D01*
X191964940Y-129621526D01*
X191973200Y-129621526D01*
X192119207Y-129602304D01*
X192255263Y-129545947D01*
X192372097Y-129456297D01*
X192461747Y-129339463D01*
X192518104Y-129203407D01*
X192537326Y-129057400D01*
X192518104Y-128911393D01*
X192461747Y-128775337D01*
X192461742Y-128775330D01*
X192372097Y-128658502D01*
X192255269Y-128568857D01*
X192255265Y-128568855D01*
X192255263Y-128568853D01*
X192255260Y-128568851D01*
X192255257Y-128568850D01*
X192119210Y-128512497D01*
X192119206Y-128512495D01*
X191973200Y-128493274D01*
X191827193Y-128512495D01*
X191827189Y-128512497D01*
X191691142Y-128568850D01*
X191691130Y-128568857D01*
X191574301Y-128658503D01*
X191568994Y-128665420D01*
X191511654Y-128707285D01*
X191440783Y-128711504D01*
X191378882Y-128676737D01*
X191369073Y-128665416D01*
X191305297Y-128582302D01*
X191188469Y-128492657D01*
X191188465Y-128492655D01*
X191188463Y-128492653D01*
X191188460Y-128492651D01*
X191188457Y-128492650D01*
X191052410Y-128436297D01*
X191052406Y-128436295D01*
X190906400Y-128417074D01*
X190760393Y-128436295D01*
X190760389Y-128436297D01*
X190624342Y-128492650D01*
X190624330Y-128492657D01*
X190507500Y-128582304D01*
X190501663Y-128588142D01*
X190499155Y-128585634D01*
X190454686Y-128617838D01*
X190412527Y-128625100D01*
X188870892Y-128625100D01*
X188802771Y-128605098D01*
X188781797Y-128588195D01*
X188724570Y-128530968D01*
X188690544Y-128468656D01*
X188695609Y-128397841D01*
X188738156Y-128341005D01*
X188804676Y-128316194D01*
X188830107Y-128316950D01*
X188899800Y-128326126D01*
X189045807Y-128306904D01*
X189181863Y-128250547D01*
X189298697Y-128160897D01*
X189388347Y-128044063D01*
X189444704Y-127908007D01*
X189463926Y-127762000D01*
X189446475Y-127629449D01*
X189444704Y-127615993D01*
X189444702Y-127615989D01*
X189422116Y-127561463D01*
X189388347Y-127479937D01*
X189387897Y-127479350D01*
X189298697Y-127363102D01*
X189181869Y-127273457D01*
X189181865Y-127273455D01*
X189181863Y-127273453D01*
X189181860Y-127273451D01*
X189181857Y-127273450D01*
X189045810Y-127217097D01*
X189045806Y-127217095D01*
X188899800Y-127197874D01*
X188891542Y-127197874D01*
X188891542Y-127194526D01*
X188836205Y-127185113D01*
X188802381Y-127160979D01*
X188348997Y-126707595D01*
X188314972Y-126645283D01*
X188320037Y-126574467D01*
X188362584Y-126517632D01*
X188429104Y-126492821D01*
X188438093Y-126492500D01*
X194785874Y-126492500D01*
X194853995Y-126512502D01*
X194874969Y-126529405D01*
X195079193Y-126733629D01*
X195113219Y-126795941D01*
X195108154Y-126866756D01*
X195065607Y-126923592D01*
X194999087Y-126948403D01*
X194973652Y-126947646D01*
X194945000Y-126943874D01*
X194798993Y-126963095D01*
X194798989Y-126963097D01*
X194662942Y-127019450D01*
X194662930Y-127019457D01*
X194546102Y-127109102D01*
X194456457Y-127225930D01*
X194456450Y-127225942D01*
X194400097Y-127361989D01*
X194400095Y-127361993D01*
X194380874Y-127507999D01*
X194380874Y-127508000D01*
X194400095Y-127654006D01*
X194400097Y-127654010D01*
X194456450Y-127790057D01*
X194456457Y-127790069D01*
X194546102Y-127906897D01*
X194662930Y-127996542D01*
X194662937Y-127996547D01*
X194798993Y-128052904D01*
X194945000Y-128072126D01*
X195091007Y-128052904D01*
X195227063Y-127996547D01*
X195343897Y-127906897D01*
X195433547Y-127790063D01*
X195489904Y-127654007D01*
X195509126Y-127508000D01*
X195505353Y-127479345D01*
X195516291Y-127409201D01*
X195563418Y-127356101D01*
X195631772Y-127336910D01*
X195699650Y-127357720D01*
X195719370Y-127373806D01*
X197330942Y-128985377D01*
X197364967Y-129047689D01*
X197366295Y-129074541D01*
X197367839Y-129074541D01*
X197367839Y-129082800D01*
X197387060Y-129228805D01*
X197387062Y-129228809D01*
X197443415Y-129364856D01*
X197443422Y-129364868D01*
X197533067Y-129481696D01*
X197646753Y-129568930D01*
X197649902Y-129571346D01*
X197785958Y-129627703D01*
X197931965Y-129646925D01*
X198077972Y-129627703D01*
X198214028Y-129571346D01*
X198330862Y-129481696D01*
X198420512Y-129364862D01*
X198476869Y-129228806D01*
X198496091Y-129082799D01*
X198493529Y-129063342D01*
X198476869Y-128936792D01*
X198476867Y-128936788D01*
X198473364Y-128928332D01*
X198420512Y-128800736D01*
X198403602Y-128778698D01*
X198330862Y-128683901D01*
X198214034Y-128594256D01*
X198214030Y-128594254D01*
X198214028Y-128594252D01*
X198214025Y-128594250D01*
X198214022Y-128594249D01*
X198077975Y-128537896D01*
X198077971Y-128537894D01*
X197931966Y-128518673D01*
X197923707Y-128518673D01*
X197923707Y-128515361D01*
X197868178Y-128505819D01*
X197834543Y-128481776D01*
X197730762Y-128377995D01*
X211234768Y-128377995D01*
X211234768Y-128378004D01*
X211253654Y-128581819D01*
X211301926Y-128751478D01*
X211309672Y-128778701D01*
X211400912Y-128961935D01*
X211400913Y-128961936D01*
X211524266Y-129125284D01*
X211675536Y-129263185D01*
X211849566Y-129370940D01*
X211849568Y-129370940D01*
X211849573Y-129370944D01*
X212040444Y-129444888D01*
X212241653Y-129482500D01*
X212241655Y-129482500D01*
X212446345Y-129482500D01*
X212446347Y-129482500D01*
X212647556Y-129444888D01*
X212838427Y-129370944D01*
X213012462Y-129263186D01*
X213163732Y-129125285D01*
X213166140Y-129122097D01*
X213192505Y-129087183D01*
X213287088Y-128961935D01*
X213378328Y-128778701D01*
X213434345Y-128581821D01*
X213443344Y-128484704D01*
X213453232Y-128378004D01*
X213453232Y-128377995D01*
X213434345Y-128174180D01*
X213423484Y-128136007D01*
X213378328Y-127977299D01*
X213287088Y-127794065D01*
X213228250Y-127716151D01*
X213163733Y-127630715D01*
X213012463Y-127492814D01*
X212838433Y-127385059D01*
X212838428Y-127385057D01*
X212838427Y-127385056D01*
X212838422Y-127385054D01*
X212647559Y-127311113D01*
X212647560Y-127311113D01*
X212647557Y-127311112D01*
X212647556Y-127311112D01*
X212446347Y-127273500D01*
X212241653Y-127273500D01*
X212083391Y-127303084D01*
X212040439Y-127311113D01*
X211849577Y-127385054D01*
X211849566Y-127385059D01*
X211675536Y-127492814D01*
X211524266Y-127630715D01*
X211400913Y-127794063D01*
X211309671Y-127977301D01*
X211253654Y-128174180D01*
X211234768Y-128377995D01*
X197730762Y-128377995D01*
X197373327Y-128020560D01*
X197339301Y-127958248D01*
X197344366Y-127887433D01*
X197386913Y-127830597D01*
X197445974Y-127806544D01*
X197504007Y-127798904D01*
X197640063Y-127742547D01*
X197756897Y-127652897D01*
X197846547Y-127536063D01*
X197858172Y-127507999D01*
X199841874Y-127507999D01*
X199841874Y-127508000D01*
X199861095Y-127654006D01*
X199861097Y-127654010D01*
X199917450Y-127790057D01*
X199917457Y-127790069D01*
X200007102Y-127906897D01*
X200123930Y-127996542D01*
X200123937Y-127996547D01*
X200259993Y-128052904D01*
X200406000Y-128072126D01*
X200552007Y-128052904D01*
X200688063Y-127996547D01*
X200804897Y-127906897D01*
X200894547Y-127790063D01*
X200950904Y-127654007D01*
X200970126Y-127508000D01*
X200966431Y-127479937D01*
X200950904Y-127361993D01*
X200950902Y-127361989D01*
X200948621Y-127356483D01*
X200894547Y-127225937D01*
X200887763Y-127217096D01*
X200804897Y-127109102D01*
X200688069Y-127019457D01*
X200688065Y-127019455D01*
X200688063Y-127019453D01*
X200688060Y-127019451D01*
X200688057Y-127019450D01*
X200552010Y-126963097D01*
X200552006Y-126963095D01*
X200406000Y-126943874D01*
X200259993Y-126963095D01*
X200259989Y-126963097D01*
X200123942Y-127019450D01*
X200123930Y-127019457D01*
X200007102Y-127109102D01*
X199917457Y-127225930D01*
X199917450Y-127225942D01*
X199861097Y-127361989D01*
X199861095Y-127361993D01*
X199841874Y-127507999D01*
X197858172Y-127507999D01*
X197902904Y-127400007D01*
X197922126Y-127254000D01*
X197918431Y-127225937D01*
X197902904Y-127107993D01*
X197902902Y-127107989D01*
X197885613Y-127066251D01*
X197846547Y-126971937D01*
X197839763Y-126963096D01*
X197756897Y-126855102D01*
X197640069Y-126765457D01*
X197640065Y-126765455D01*
X197640063Y-126765453D01*
X197640060Y-126765451D01*
X197640057Y-126765450D01*
X197504010Y-126709097D01*
X197504006Y-126709095D01*
X197358000Y-126689874D01*
X197211993Y-126709095D01*
X197211989Y-126709097D01*
X197075942Y-126765450D01*
X197075930Y-126765457D01*
X196959102Y-126855102D01*
X196869457Y-126971930D01*
X196869450Y-126971942D01*
X196813097Y-127107989D01*
X196813096Y-127107992D01*
X196805456Y-127166024D01*
X196776733Y-127230951D01*
X196717468Y-127270042D01*
X196646476Y-127270887D01*
X196591439Y-127238672D01*
X196275084Y-126922317D01*
X195870369Y-126517602D01*
X195836345Y-126455292D01*
X195841410Y-126384477D01*
X195883957Y-126327641D01*
X195911240Y-126312103D01*
X196014463Y-126269347D01*
X196131297Y-126179697D01*
X196220947Y-126062863D01*
X196277304Y-125926807D01*
X196296526Y-125780800D01*
X196277304Y-125634793D01*
X196276087Y-125631856D01*
X196275799Y-125629178D01*
X196275166Y-125626814D01*
X196275534Y-125626715D01*
X196268496Y-125561270D01*
X196300272Y-125497782D01*
X196344275Y-125467228D01*
X196370063Y-125456547D01*
X196486897Y-125366897D01*
X196576547Y-125250063D01*
X196632904Y-125114007D01*
X196652126Y-124968000D01*
X196652126Y-124967999D01*
X199714874Y-124967999D01*
X199714874Y-124968000D01*
X199734095Y-125114006D01*
X199734097Y-125114010D01*
X199790450Y-125250057D01*
X199790457Y-125250069D01*
X199880102Y-125366897D01*
X199958674Y-125427187D01*
X199996937Y-125456547D01*
X200132993Y-125512904D01*
X200279000Y-125532126D01*
X200425007Y-125512904D01*
X200561063Y-125456547D01*
X200677897Y-125366897D01*
X200767547Y-125250063D01*
X200823904Y-125114007D01*
X200843126Y-124968000D01*
X200842775Y-124965337D01*
X200842458Y-124962930D01*
X211239500Y-124962930D01*
X211239500Y-126713063D01*
X211239501Y-126713073D01*
X211254265Y-126787300D01*
X211310516Y-126871484D01*
X211394697Y-126927733D01*
X211394699Y-126927734D01*
X211468933Y-126942500D01*
X213219066Y-126942499D01*
X213219069Y-126942498D01*
X213219073Y-126942498D01*
X213268326Y-126932701D01*
X213293301Y-126927734D01*
X213377484Y-126871484D01*
X213433734Y-126787301D01*
X213448500Y-126713067D01*
X213448499Y-124962934D01*
X213448498Y-124962930D01*
X213448498Y-124962926D01*
X213433734Y-124888699D01*
X213431534Y-124885406D01*
X213377484Y-124804516D01*
X213347159Y-124784253D01*
X213293302Y-124748266D01*
X213219067Y-124733500D01*
X211468936Y-124733500D01*
X211468926Y-124733501D01*
X211394699Y-124748265D01*
X211310515Y-124804516D01*
X211254266Y-124888697D01*
X211239500Y-124962930D01*
X200842458Y-124962930D01*
X200823904Y-124821993D01*
X200823902Y-124821989D01*
X200816664Y-124804516D01*
X200767547Y-124685937D01*
X200765504Y-124683274D01*
X200677897Y-124569102D01*
X200561069Y-124479457D01*
X200561065Y-124479455D01*
X200561063Y-124479453D01*
X200561060Y-124479451D01*
X200561057Y-124479450D01*
X200425010Y-124423097D01*
X200425006Y-124423095D01*
X200279000Y-124403874D01*
X200132993Y-124423095D01*
X200132989Y-124423097D01*
X199996942Y-124479450D01*
X199996930Y-124479457D01*
X199880102Y-124569102D01*
X199790457Y-124685930D01*
X199790450Y-124685942D01*
X199734097Y-124821989D01*
X199734095Y-124821993D01*
X199714874Y-124967999D01*
X196652126Y-124967999D01*
X196651775Y-124965337D01*
X196632904Y-124821993D01*
X196632902Y-124821989D01*
X196625664Y-124804516D01*
X196576547Y-124685937D01*
X196574504Y-124683274D01*
X196486897Y-124569102D01*
X196370069Y-124479457D01*
X196370065Y-124479455D01*
X196370063Y-124479453D01*
X196370060Y-124479451D01*
X196370057Y-124479450D01*
X196234010Y-124423097D01*
X196234006Y-124423095D01*
X196088000Y-124403874D01*
X195941993Y-124423095D01*
X195941989Y-124423097D01*
X195805942Y-124479450D01*
X195805930Y-124479457D01*
X195689102Y-124569102D01*
X195599457Y-124685930D01*
X195599450Y-124685942D01*
X195543097Y-124821989D01*
X195543095Y-124821993D01*
X195524224Y-124965342D01*
X195523874Y-124968000D01*
X195531806Y-125028255D01*
X195520868Y-125098402D01*
X195473740Y-125151501D01*
X195406885Y-125170700D01*
X194737115Y-125170700D01*
X194668994Y-125150698D01*
X194622501Y-125097042D01*
X194612193Y-125028255D01*
X194620126Y-124968000D01*
X194600904Y-124821993D01*
X194544547Y-124685937D01*
X194542504Y-124683274D01*
X194454897Y-124569102D01*
X194338069Y-124479457D01*
X194338065Y-124479455D01*
X194338063Y-124479453D01*
X194338060Y-124479451D01*
X194338057Y-124479450D01*
X194202010Y-124423097D01*
X194202006Y-124423095D01*
X194056000Y-124403874D01*
X193909993Y-124423095D01*
X193909989Y-124423097D01*
X193773942Y-124479450D01*
X193773930Y-124479457D01*
X193657102Y-124569102D01*
X193567457Y-124685930D01*
X193567450Y-124685942D01*
X193511097Y-124821989D01*
X193511095Y-124821993D01*
X193492224Y-124965342D01*
X193491874Y-124968000D01*
X193499806Y-125028255D01*
X193488868Y-125098402D01*
X193441740Y-125151501D01*
X193374885Y-125170700D01*
X173097491Y-125170700D01*
X173029370Y-125150698D01*
X173008396Y-125133795D01*
X168493657Y-120619054D01*
X168493647Y-120619046D01*
X168412454Y-120572169D01*
X168412452Y-120572168D01*
X168412450Y-120572167D01*
X168321881Y-120547900D01*
X168321880Y-120547900D01*
X164461492Y-120547900D01*
X164393371Y-120527898D01*
X164372397Y-120510995D01*
X164171844Y-120310442D01*
X164137818Y-120248130D01*
X164136019Y-120237806D01*
X164120904Y-120122993D01*
X164064547Y-119986937D01*
X164064542Y-119986930D01*
X163974897Y-119870102D01*
X163858069Y-119780457D01*
X163858065Y-119780455D01*
X163858063Y-119780453D01*
X163858060Y-119780451D01*
X163858057Y-119780450D01*
X163722010Y-119724097D01*
X163722006Y-119724095D01*
X163576000Y-119704874D01*
X163429993Y-119724095D01*
X163429989Y-119724097D01*
X163293942Y-119780450D01*
X163293930Y-119780457D01*
X163177102Y-119870102D01*
X163087457Y-119986930D01*
X163087450Y-119986942D01*
X163031097Y-120122989D01*
X163031095Y-120122993D01*
X163011874Y-120268999D01*
X163011874Y-120269000D01*
X163031095Y-120415006D01*
X163031097Y-120415010D01*
X163087450Y-120551057D01*
X163087457Y-120551069D01*
X163177102Y-120667897D01*
X163293930Y-120757542D01*
X163293937Y-120757547D01*
X163429993Y-120813904D01*
X163576000Y-120833126D01*
X163612769Y-120828285D01*
X163682917Y-120839224D01*
X163718310Y-120864112D01*
X164012461Y-121158263D01*
X164046487Y-121220575D01*
X164041422Y-121291390D01*
X164000071Y-121347320D01*
X163939101Y-121394104D01*
X163849457Y-121510930D01*
X163849450Y-121510942D01*
X163793097Y-121646989D01*
X163793095Y-121646993D01*
X163773874Y-121792999D01*
X163773874Y-121793000D01*
X163793095Y-121939006D01*
X163793097Y-121939010D01*
X163849450Y-122075057D01*
X163849457Y-122075069D01*
X163939102Y-122191897D01*
X164055930Y-122281542D01*
X164055937Y-122281547D01*
X164191993Y-122337904D01*
X164338000Y-122357126D01*
X164346260Y-122357126D01*
X164346260Y-122360874D01*
X164399264Y-122368778D01*
X164435420Y-122394022D01*
X168901403Y-126860005D01*
X168935429Y-126922317D01*
X168930364Y-126993132D01*
X168887817Y-127049968D01*
X168821297Y-127074779D01*
X168812308Y-127075100D01*
X160904892Y-127075100D01*
X160836771Y-127055098D01*
X160815797Y-127038195D01*
X160621022Y-126843420D01*
X160586996Y-126781108D01*
X160585968Y-126754260D01*
X160584126Y-126754260D01*
X160584126Y-126745999D01*
X160564904Y-126599993D01*
X160564902Y-126599989D01*
X160554330Y-126574467D01*
X160508547Y-126463937D01*
X160506331Y-126461049D01*
X160418897Y-126347102D01*
X160302069Y-126257457D01*
X160302065Y-126257455D01*
X160302063Y-126257453D01*
X160302060Y-126257451D01*
X160302057Y-126257450D01*
X160166010Y-126201097D01*
X160166006Y-126201095D01*
X160020000Y-126181874D01*
X159873993Y-126201095D01*
X159873989Y-126201097D01*
X159737942Y-126257450D01*
X159737930Y-126257457D01*
X159621102Y-126347102D01*
X159531457Y-126463930D01*
X159531450Y-126463942D01*
X159475097Y-126599989D01*
X159475095Y-126599993D01*
X159455874Y-126745999D01*
X159455874Y-126746000D01*
X159475095Y-126892006D01*
X159475097Y-126892010D01*
X159531450Y-127028057D01*
X159531457Y-127028069D01*
X159621102Y-127144897D01*
X159737930Y-127234542D01*
X159737937Y-127234547D01*
X159873993Y-127290904D01*
X160020000Y-127310126D01*
X160028260Y-127310126D01*
X160028260Y-127313874D01*
X160081264Y-127321778D01*
X160117417Y-127347019D01*
X160263212Y-127492814D01*
X160393002Y-127622604D01*
X160427027Y-127684916D01*
X160421962Y-127755732D01*
X160379415Y-127812567D01*
X160312895Y-127837378D01*
X160303906Y-127837699D01*
X160254968Y-127837699D01*
X160254952Y-127837698D01*
X160247234Y-127837698D01*
X160153472Y-127837698D01*
X160082042Y-127856836D01*
X160082042Y-127856837D01*
X160075662Y-127858546D01*
X160062901Y-127861966D01*
X160002163Y-127897034D01*
X159981708Y-127908844D01*
X159981694Y-127908854D01*
X153688955Y-134201595D01*
X153626643Y-134235621D01*
X153599860Y-134238500D01*
X118600670Y-134238500D01*
X118510104Y-134262766D01*
X118510096Y-134262769D01*
X118428903Y-134309646D01*
X118428898Y-134309650D01*
X118395749Y-134342799D01*
X118362600Y-134375949D01*
X118362598Y-134375951D01*
X118328143Y-134410406D01*
X118313171Y-134425378D01*
X118250858Y-134459403D01*
X118224009Y-134460683D01*
X118224009Y-134462274D01*
X118215751Y-134462274D01*
X118069744Y-134481495D01*
X118069740Y-134481497D01*
X117933693Y-134537850D01*
X117933681Y-134537857D01*
X117816853Y-134627502D01*
X117727208Y-134744330D01*
X117727201Y-134744342D01*
X117670848Y-134880389D01*
X117670846Y-134880393D01*
X117651625Y-135026399D01*
X97547700Y-135026399D01*
X97547700Y-132840670D01*
X105215792Y-132840670D01*
X105215802Y-132907392D01*
X105215802Y-133158087D01*
X105215793Y-133158117D01*
X105215802Y-133237881D01*
X105215802Y-133237883D01*
X105215803Y-133258470D01*
X105215805Y-133258491D01*
X105215808Y-133279873D01*
X105219276Y-133292810D01*
X105251852Y-133414325D01*
X105251853Y-133414327D01*
X105251854Y-133414329D01*
X105321460Y-133534865D01*
X105390605Y-133603999D01*
X105419895Y-133633285D01*
X105419897Y-133633286D01*
X105419901Y-133633289D01*
X105540442Y-133702876D01*
X105540444Y-133702877D01*
X105540446Y-133702878D01*
X105674900Y-133738902D01*
X105674904Y-133738902D01*
X105814097Y-133738902D01*
X105814102Y-133738901D01*
X105848186Y-133729768D01*
X105948551Y-133702879D01*
X106069102Y-133633287D01*
X106167536Y-133534868D01*
X106237147Y-133414328D01*
X106273191Y-133279879D01*
X106273193Y-133263585D01*
X106273201Y-133263513D01*
X106273201Y-133210219D01*
X106273203Y-133197599D01*
X106273208Y-133169763D01*
X106273207Y-133169760D01*
X106273209Y-133156605D01*
X106273200Y-133156509D01*
X106273200Y-133144534D01*
X106273202Y-133144517D01*
X106273202Y-132981879D01*
X106273200Y-132981849D01*
X106273200Y-132895881D01*
X106273208Y-132840670D01*
X106237191Y-132706187D01*
X106167592Y-132585609D01*
X106069154Y-132487157D01*
X106014602Y-132455657D01*
X105948587Y-132417538D01*
X105814110Y-132381503D01*
X105674887Y-132381503D01*
X105540408Y-132417541D01*
X105419843Y-132487158D01*
X105321406Y-132585611D01*
X105251807Y-132706189D01*
X105215792Y-132840670D01*
X97547700Y-132840670D01*
X97547700Y-128782324D01*
X104971979Y-128782324D01*
X104971979Y-128782325D01*
X104991200Y-128928331D01*
X104991202Y-128928335D01*
X105047555Y-129064382D01*
X105047562Y-129064394D01*
X105137209Y-129181224D01*
X105143047Y-129187062D01*
X105140380Y-129189728D01*
X105172232Y-129232627D01*
X105180005Y-129276197D01*
X105180005Y-129555874D01*
X105160003Y-129623995D01*
X105153967Y-129632578D01*
X105073857Y-129736978D01*
X105073850Y-129736990D01*
X105017497Y-129873037D01*
X105017495Y-129873041D01*
X104998274Y-130019047D01*
X104998274Y-130019048D01*
X105017495Y-130165054D01*
X105017497Y-130165058D01*
X105073850Y-130301105D01*
X105073857Y-130301117D01*
X105163502Y-130417945D01*
X105280330Y-130507590D01*
X105280337Y-130507595D01*
X105416393Y-130563952D01*
X105467452Y-130570674D01*
X105532378Y-130599394D01*
X105571471Y-130658659D01*
X105572317Y-130729650D01*
X105534647Y-130789829D01*
X105470423Y-130820090D01*
X105467456Y-130820517D01*
X105441791Y-130823896D01*
X105441789Y-130823897D01*
X105305742Y-130880250D01*
X105305730Y-130880257D01*
X105188902Y-130969902D01*
X105099257Y-131086730D01*
X105099250Y-131086742D01*
X105042897Y-131222789D01*
X105042895Y-131222793D01*
X105023674Y-131368799D01*
X105023674Y-131368800D01*
X105042895Y-131514806D01*
X105042897Y-131514810D01*
X105099250Y-131650857D01*
X105099257Y-131650869D01*
X105188902Y-131767697D01*
X105305730Y-131857342D01*
X105305737Y-131857347D01*
X105441793Y-131913704D01*
X105587800Y-131932926D01*
X105733807Y-131913704D01*
X105869863Y-131857347D01*
X105986697Y-131767697D01*
X106076347Y-131650863D01*
X106132704Y-131514807D01*
X106151926Y-131368800D01*
X106148933Y-131346069D01*
X106132704Y-131222793D01*
X106132702Y-131222789D01*
X106129848Y-131215900D01*
X106076347Y-131086737D01*
X106060916Y-131066627D01*
X105986697Y-130969902D01*
X105869869Y-130880257D01*
X105869865Y-130880255D01*
X105869863Y-130880253D01*
X105869860Y-130880251D01*
X105869857Y-130880250D01*
X105733810Y-130823897D01*
X105733808Y-130823896D01*
X105733807Y-130823896D01*
X105682746Y-130817173D01*
X105617820Y-130788452D01*
X105578728Y-130729187D01*
X105578481Y-130708399D01*
X106801674Y-130708399D01*
X106801674Y-130708400D01*
X106820895Y-130854406D01*
X106820897Y-130854410D01*
X106877250Y-130990457D01*
X106877257Y-130990469D01*
X106966902Y-131107297D01*
X107083730Y-131196942D01*
X107083737Y-131196947D01*
X107219793Y-131253304D01*
X107365800Y-131272526D01*
X107511807Y-131253304D01*
X107647863Y-131196947D01*
X107764697Y-131107297D01*
X107797921Y-131063999D01*
X115539274Y-131063999D01*
X115539274Y-131064000D01*
X115558495Y-131210006D01*
X115558497Y-131210010D01*
X115614850Y-131346057D01*
X115614857Y-131346069D01*
X115704502Y-131462897D01*
X115821330Y-131552542D01*
X115821337Y-131552547D01*
X115957393Y-131608904D01*
X116103400Y-131628126D01*
X116249407Y-131608904D01*
X116385463Y-131552547D01*
X116502297Y-131462897D01*
X116591947Y-131346063D01*
X116648304Y-131210007D01*
X116667526Y-131064000D01*
X116650809Y-130937021D01*
X116661748Y-130866874D01*
X116708876Y-130813775D01*
X116777230Y-130794585D01*
X116792177Y-130795654D01*
X116795592Y-130796103D01*
X116795593Y-130796104D01*
X116941600Y-130815326D01*
X116941600Y-130815325D01*
X116943492Y-130815575D01*
X117008419Y-130844297D01*
X117047511Y-130903563D01*
X117051968Y-130956943D01*
X117037874Y-131063999D01*
X117037874Y-131064000D01*
X117057095Y-131210006D01*
X117057097Y-131210010D01*
X117113450Y-131346057D01*
X117113457Y-131346069D01*
X117203102Y-131462897D01*
X117319930Y-131552542D01*
X117319937Y-131552547D01*
X117455993Y-131608904D01*
X117602000Y-131628126D01*
X117748007Y-131608904D01*
X117884063Y-131552547D01*
X118000897Y-131462897D01*
X118090547Y-131346063D01*
X118146904Y-131210007D01*
X118149406Y-131190999D01*
X121101874Y-131190999D01*
X121101874Y-131191000D01*
X121121095Y-131337006D01*
X121121097Y-131337010D01*
X121177450Y-131473057D01*
X121177457Y-131473069D01*
X121243238Y-131558797D01*
X121268838Y-131625017D01*
X121254573Y-131694566D01*
X121243238Y-131712203D01*
X121177457Y-131797930D01*
X121177450Y-131797942D01*
X121121097Y-131933989D01*
X121121095Y-131933993D01*
X121101874Y-132079999D01*
X121101874Y-132080000D01*
X121121095Y-132226006D01*
X121121097Y-132226010D01*
X121177450Y-132362057D01*
X121177457Y-132362069D01*
X121267102Y-132478897D01*
X121379657Y-132565263D01*
X121383937Y-132568547D01*
X121519993Y-132624904D01*
X121666000Y-132644126D01*
X121812007Y-132624904D01*
X121948063Y-132568547D01*
X122064897Y-132478897D01*
X122074037Y-132466984D01*
X122131373Y-132425118D01*
X122202244Y-132420894D01*
X122264147Y-132455657D01*
X122273958Y-132466979D01*
X122283103Y-132478897D01*
X122283104Y-132478898D01*
X122377195Y-132551097D01*
X122399937Y-132568547D01*
X122535993Y-132624904D01*
X122682000Y-132644126D01*
X122828007Y-132624904D01*
X122964063Y-132568547D01*
X123080897Y-132478897D01*
X123090037Y-132466984D01*
X123147373Y-132425118D01*
X123218244Y-132420894D01*
X123280147Y-132455657D01*
X123289958Y-132466979D01*
X123299103Y-132478897D01*
X123299104Y-132478898D01*
X123393195Y-132551097D01*
X123415937Y-132568547D01*
X123551993Y-132624904D01*
X123698000Y-132644126D01*
X123844007Y-132624904D01*
X123980063Y-132568547D01*
X124096897Y-132478897D01*
X124186547Y-132362063D01*
X124242904Y-132226007D01*
X124262126Y-132080000D01*
X124254596Y-132022807D01*
X124242904Y-131933993D01*
X124242902Y-131933989D01*
X124233356Y-131910944D01*
X124186547Y-131797937D01*
X124184030Y-131794657D01*
X124120762Y-131712204D01*
X124095161Y-131645984D01*
X124109426Y-131576435D01*
X124120762Y-131558796D01*
X124182834Y-131477902D01*
X124186547Y-131473063D01*
X124242904Y-131337007D01*
X124262126Y-131191000D01*
X124259502Y-131171072D01*
X124242904Y-131044993D01*
X124242902Y-131044989D01*
X124239392Y-131036516D01*
X124186547Y-130908937D01*
X124186542Y-130908930D01*
X124096897Y-130792102D01*
X123980069Y-130702457D01*
X123980065Y-130702455D01*
X123980063Y-130702453D01*
X123980060Y-130702451D01*
X123980057Y-130702450D01*
X123844010Y-130646097D01*
X123844006Y-130646095D01*
X123698000Y-130626874D01*
X123551993Y-130646095D01*
X123551989Y-130646097D01*
X123415942Y-130702450D01*
X123415930Y-130702457D01*
X123299102Y-130792102D01*
X123289962Y-130804015D01*
X123232624Y-130845882D01*
X123161753Y-130850104D01*
X123099850Y-130815340D01*
X123090038Y-130804015D01*
X123080897Y-130792102D01*
X122964069Y-130702457D01*
X122964065Y-130702455D01*
X122964063Y-130702453D01*
X122964060Y-130702451D01*
X122964057Y-130702450D01*
X122828010Y-130646097D01*
X122828006Y-130646095D01*
X122682000Y-130626874D01*
X122535993Y-130646095D01*
X122535989Y-130646097D01*
X122399942Y-130702450D01*
X122399930Y-130702457D01*
X122283102Y-130792102D01*
X122273962Y-130804015D01*
X122216624Y-130845882D01*
X122145753Y-130850104D01*
X122083850Y-130815340D01*
X122074038Y-130804015D01*
X122064897Y-130792102D01*
X121948069Y-130702457D01*
X121948065Y-130702455D01*
X121948063Y-130702453D01*
X121948060Y-130702451D01*
X121948057Y-130702450D01*
X121812010Y-130646097D01*
X121812006Y-130646095D01*
X121666000Y-130626874D01*
X121519993Y-130646095D01*
X121519989Y-130646097D01*
X121383942Y-130702450D01*
X121383930Y-130702457D01*
X121267102Y-130792102D01*
X121177457Y-130908930D01*
X121177450Y-130908942D01*
X121121097Y-131044989D01*
X121121095Y-131044993D01*
X121101874Y-131190999D01*
X118149406Y-131190999D01*
X118166126Y-131064000D01*
X118146904Y-130917993D01*
X118090547Y-130781937D01*
X118090542Y-130781930D01*
X118000897Y-130665102D01*
X117884069Y-130575457D01*
X117884065Y-130575455D01*
X117884063Y-130575453D01*
X117884060Y-130575451D01*
X117884057Y-130575450D01*
X117748010Y-130519097D01*
X117748007Y-130519096D01*
X117600106Y-130499624D01*
X117535179Y-130470901D01*
X117496088Y-130411636D01*
X117491631Y-130358260D01*
X117505726Y-130251200D01*
X117486504Y-130105193D01*
X117430147Y-129969137D01*
X117430142Y-129969130D01*
X117340497Y-129852302D01*
X117223669Y-129762657D01*
X117223665Y-129762655D01*
X117223663Y-129762653D01*
X117223660Y-129762651D01*
X117223657Y-129762650D01*
X117087610Y-129706297D01*
X117087606Y-129706295D01*
X116941600Y-129687074D01*
X116795593Y-129706295D01*
X116795589Y-129706297D01*
X116659542Y-129762650D01*
X116659530Y-129762657D01*
X116542702Y-129852302D01*
X116453057Y-129969130D01*
X116453050Y-129969142D01*
X116396697Y-130105189D01*
X116396695Y-130105193D01*
X116377474Y-130251199D01*
X116377474Y-130251200D01*
X116394190Y-130378177D01*
X116383250Y-130448326D01*
X116336122Y-130501424D01*
X116267768Y-130520614D01*
X116252822Y-130519545D01*
X116103401Y-130499874D01*
X116103400Y-130499874D01*
X115957393Y-130519095D01*
X115957389Y-130519097D01*
X115821342Y-130575450D01*
X115821330Y-130575457D01*
X115704502Y-130665102D01*
X115614857Y-130781930D01*
X115614850Y-130781942D01*
X115558497Y-130917989D01*
X115558495Y-130917993D01*
X115539274Y-131063999D01*
X107797921Y-131063999D01*
X107854347Y-130990463D01*
X107910704Y-130854407D01*
X107929926Y-130708400D01*
X107923316Y-130658195D01*
X107910704Y-130562393D01*
X107910702Y-130562389D01*
X107903539Y-130545097D01*
X107854347Y-130426337D01*
X107831995Y-130397207D01*
X107764697Y-130309502D01*
X107647869Y-130219857D01*
X107647865Y-130219855D01*
X107647863Y-130219853D01*
X107647860Y-130219851D01*
X107647857Y-130219850D01*
X107511810Y-130163497D01*
X107511806Y-130163495D01*
X107365800Y-130144274D01*
X107219793Y-130163495D01*
X107219789Y-130163497D01*
X107083742Y-130219850D01*
X107083730Y-130219857D01*
X106966902Y-130309502D01*
X106877257Y-130426330D01*
X106877250Y-130426342D01*
X106820897Y-130562389D01*
X106820895Y-130562393D01*
X106801674Y-130708399D01*
X105578481Y-130708399D01*
X105577883Y-130658195D01*
X105615553Y-130598016D01*
X105679778Y-130567757D01*
X105682732Y-130567332D01*
X105708407Y-130563952D01*
X105844463Y-130507595D01*
X105961297Y-130417945D01*
X106050947Y-130301111D01*
X106107304Y-130165055D01*
X106126526Y-130019048D01*
X106107304Y-129873041D01*
X106050947Y-129736985D01*
X106027399Y-129706297D01*
X105997245Y-129666999D01*
X119704874Y-129666999D01*
X119704874Y-129667000D01*
X119724095Y-129813006D01*
X119724097Y-129813010D01*
X119780450Y-129949057D01*
X119780457Y-129949069D01*
X119870102Y-130065897D01*
X119985085Y-130154126D01*
X119986937Y-130155547D01*
X120122993Y-130211904D01*
X120269000Y-130231126D01*
X120415007Y-130211904D01*
X120551063Y-130155547D01*
X120667897Y-130065897D01*
X120757547Y-129949063D01*
X120813904Y-129813007D01*
X120833126Y-129667000D01*
X120824608Y-129602302D01*
X120813904Y-129520993D01*
X120813902Y-129520989D01*
X120807278Y-129504998D01*
X120757547Y-129384937D01*
X120757542Y-129384930D01*
X120667897Y-129268102D01*
X120551069Y-129178457D01*
X120551065Y-129178455D01*
X120551063Y-129178453D01*
X120551060Y-129178451D01*
X120551057Y-129178450D01*
X120415010Y-129122097D01*
X120415006Y-129122095D01*
X120269000Y-129102874D01*
X120122993Y-129122095D01*
X120122989Y-129122097D01*
X119986942Y-129178450D01*
X119986930Y-129178457D01*
X119870102Y-129268102D01*
X119780457Y-129384930D01*
X119780450Y-129384942D01*
X119724097Y-129520989D01*
X119724095Y-129520993D01*
X119704874Y-129666999D01*
X105997245Y-129666999D01*
X105961298Y-129620152D01*
X105944794Y-129607488D01*
X105941499Y-129604959D01*
X105899633Y-129547621D01*
X105892205Y-129504998D01*
X105892205Y-129276197D01*
X105912207Y-129208076D01*
X105930476Y-129188375D01*
X105929163Y-129187062D01*
X105935000Y-129181224D01*
X105937124Y-129178457D01*
X106024652Y-129064388D01*
X106081009Y-128928332D01*
X106100231Y-128782325D01*
X106092132Y-128720810D01*
X106081009Y-128636318D01*
X106081007Y-128636314D01*
X106061075Y-128588195D01*
X106055526Y-128574799D01*
X116225074Y-128574799D01*
X116225074Y-128574800D01*
X116244295Y-128720806D01*
X116244297Y-128720810D01*
X116300650Y-128856857D01*
X116300657Y-128856869D01*
X116390302Y-128973697D01*
X116507130Y-129063342D01*
X116507137Y-129063347D01*
X116643193Y-129119704D01*
X116789200Y-129138926D01*
X116935207Y-129119704D01*
X117071263Y-129063347D01*
X117188097Y-128973697D01*
X117277747Y-128856863D01*
X117334104Y-128720807D01*
X117353326Y-128574800D01*
X117353326Y-128574799D01*
X117353326Y-128566540D01*
X117357036Y-128566540D01*
X117365087Y-128513300D01*
X117390219Y-128477381D01*
X117560198Y-128307404D01*
X117622510Y-128273379D01*
X117649293Y-128270500D01*
X121128100Y-128270500D01*
X121196221Y-128290502D01*
X121242714Y-128344158D01*
X121254100Y-128396500D01*
X121254100Y-128960008D01*
X121254806Y-128979143D01*
X121256156Y-128997387D01*
X121256156Y-128997391D01*
X121279420Y-129087180D01*
X121308752Y-129150598D01*
X121348980Y-129212534D01*
X121348986Y-129212543D01*
X121459045Y-129338325D01*
X121459072Y-129338354D01*
X121482485Y-129361597D01*
X121484889Y-129363984D01*
X121511170Y-129386645D01*
X121517798Y-129392170D01*
X121517797Y-129392170D01*
X121517799Y-129392171D01*
X121607517Y-129439103D01*
X121674556Y-129458788D01*
X121747668Y-129469300D01*
X123922289Y-129469300D01*
X123990410Y-129489302D01*
X124019615Y-129515277D01*
X125404379Y-131199449D01*
X125746354Y-131615365D01*
X125774343Y-131644459D01*
X125774348Y-131644464D01*
X125803087Y-131670023D01*
X125804166Y-131670937D01*
X125812709Y-131678171D01*
X125812711Y-131678172D01*
X125812714Y-131678174D01*
X125839408Y-131692137D01*
X125902427Y-131725103D01*
X125969466Y-131744788D01*
X126042578Y-131755300D01*
X129465413Y-131755300D01*
X129465424Y-131755300D01*
X129489252Y-131754204D01*
X129511928Y-131752113D01*
X129511932Y-131752111D01*
X129511936Y-131752111D01*
X129605501Y-131725132D01*
X129605505Y-131725130D01*
X129605509Y-131725129D01*
X129667818Y-131693517D01*
X129728261Y-131651065D01*
X130084369Y-131315904D01*
X130107417Y-131291190D01*
X130127815Y-131266241D01*
X130131572Y-131261536D01*
X130177050Y-131171072D01*
X130195651Y-131103724D01*
X130204982Y-131030454D01*
X130155617Y-127969806D01*
X130155615Y-127969795D01*
X130155615Y-127969789D01*
X130145168Y-127900980D01*
X130145167Y-127900975D01*
X130126617Y-127837711D01*
X130126611Y-127837698D01*
X130114180Y-127809842D01*
X130098247Y-127774139D01*
X130098241Y-127774129D01*
X129822402Y-127328543D01*
X129792848Y-127290904D01*
X129786793Y-127283192D01*
X129748399Y-127244145D01*
X129726194Y-127224029D01*
X129726192Y-127224028D01*
X129726190Y-127224026D01*
X129636484Y-127177100D01*
X129636468Y-127177094D01*
X129569434Y-127157411D01*
X129569435Y-127157411D01*
X129496330Y-127146900D01*
X129496325Y-127146900D01*
X124268589Y-127146900D01*
X124267837Y-127146902D01*
X124266975Y-127146904D01*
X124265757Y-127146911D01*
X124265707Y-127146912D01*
X124265704Y-127146912D01*
X124265693Y-127146913D01*
X124191194Y-127158277D01*
X124191187Y-127158278D01*
X124191180Y-127158279D01*
X124191180Y-127158280D01*
X124165890Y-127166024D01*
X124124369Y-127178738D01*
X124124360Y-127178741D01*
X124057559Y-127210184D01*
X124057543Y-127210193D01*
X123067525Y-127862705D01*
X122999640Y-127883492D01*
X122998186Y-127883500D01*
X122707892Y-127883500D01*
X122639771Y-127863498D01*
X122593278Y-127809842D01*
X122583174Y-127739568D01*
X122612668Y-127674988D01*
X122618797Y-127668405D01*
X124087997Y-126199205D01*
X124150309Y-126165179D01*
X124177092Y-126162300D01*
X124702727Y-126162300D01*
X124770848Y-126182302D01*
X124790662Y-126200458D01*
X124791863Y-126199258D01*
X124797700Y-126205095D01*
X124912674Y-126293318D01*
X124914537Y-126294747D01*
X125050593Y-126351104D01*
X125196600Y-126370326D01*
X125342607Y-126351104D01*
X125478663Y-126294747D01*
X125595497Y-126205097D01*
X125685147Y-126088263D01*
X125741504Y-125952207D01*
X125760726Y-125806200D01*
X125741504Y-125660193D01*
X125685147Y-125524137D01*
X125676526Y-125512902D01*
X125595497Y-125407302D01*
X125530080Y-125357106D01*
X125488213Y-125299768D01*
X125483991Y-125228897D01*
X125518755Y-125166994D01*
X125530074Y-125157186D01*
X125620897Y-125087496D01*
X125710547Y-124970662D01*
X125766904Y-124834606D01*
X125779438Y-124739399D01*
X127655074Y-124739399D01*
X127655074Y-124739400D01*
X127674295Y-124885406D01*
X127674297Y-124885410D01*
X127730650Y-125021457D01*
X127730651Y-125021459D01*
X127730653Y-125021463D01*
X127730657Y-125021468D01*
X127815928Y-125132597D01*
X127841528Y-125198817D01*
X127827263Y-125268366D01*
X127815928Y-125286003D01*
X127730657Y-125397131D01*
X127730650Y-125397142D01*
X127674297Y-125533189D01*
X127674295Y-125533193D01*
X127655074Y-125679199D01*
X127655074Y-125679200D01*
X127674295Y-125825206D01*
X127674297Y-125825210D01*
X127730650Y-125961257D01*
X127730657Y-125961269D01*
X127820302Y-126078097D01*
X127930038Y-126162300D01*
X127937137Y-126167747D01*
X128073193Y-126224104D01*
X128219200Y-126243326D01*
X128365207Y-126224104D01*
X128501263Y-126167747D01*
X128618097Y-126078097D01*
X128707747Y-125961263D01*
X128764104Y-125825207D01*
X128783326Y-125679200D01*
X128764104Y-125533193D01*
X128707747Y-125397137D01*
X128707743Y-125397132D01*
X128707742Y-125397130D01*
X128622472Y-125286004D01*
X128596871Y-125219784D01*
X128611136Y-125150235D01*
X128622472Y-125132596D01*
X128684462Y-125051809D01*
X128707747Y-125021463D01*
X128719372Y-124993399D01*
X159938474Y-124993399D01*
X159938474Y-124993400D01*
X159957695Y-125139406D01*
X159957697Y-125139410D01*
X160014050Y-125275457D01*
X160014057Y-125275469D01*
X160103702Y-125392297D01*
X160210661Y-125474369D01*
X160220537Y-125481947D01*
X160356593Y-125538304D01*
X160502600Y-125557526D01*
X160648607Y-125538304D01*
X160784663Y-125481947D01*
X160901497Y-125392297D01*
X160991147Y-125275463D01*
X161047504Y-125139407D01*
X161066726Y-124993400D01*
X161066726Y-124993399D01*
X161386274Y-124993399D01*
X161386274Y-124993400D01*
X161405495Y-125139406D01*
X161405497Y-125139410D01*
X161461850Y-125275457D01*
X161461857Y-125275469D01*
X161551502Y-125392297D01*
X161658461Y-125474369D01*
X161668337Y-125481947D01*
X161804393Y-125538304D01*
X161950400Y-125557526D01*
X162096407Y-125538304D01*
X162232463Y-125481947D01*
X162349297Y-125392297D01*
X162438947Y-125275463D01*
X162495304Y-125139407D01*
X162514526Y-124993400D01*
X162514175Y-124990737D01*
X162495304Y-124847393D01*
X162495302Y-124847389D01*
X162495175Y-124847083D01*
X162438947Y-124711337D01*
X162432163Y-124702496D01*
X162349297Y-124594502D01*
X162232469Y-124504857D01*
X162232465Y-124504855D01*
X162232463Y-124504853D01*
X162232460Y-124504851D01*
X162232457Y-124504850D01*
X162096410Y-124448497D01*
X162096406Y-124448495D01*
X161950400Y-124429274D01*
X161804393Y-124448495D01*
X161804389Y-124448497D01*
X161668342Y-124504850D01*
X161668330Y-124504857D01*
X161551502Y-124594502D01*
X161461857Y-124711330D01*
X161461850Y-124711342D01*
X161405497Y-124847389D01*
X161405495Y-124847393D01*
X161386274Y-124993399D01*
X161066726Y-124993399D01*
X161066375Y-124990737D01*
X161047504Y-124847393D01*
X161047502Y-124847389D01*
X161047375Y-124847083D01*
X160991147Y-124711337D01*
X160984363Y-124702496D01*
X160901497Y-124594502D01*
X160784669Y-124504857D01*
X160784665Y-124504855D01*
X160784663Y-124504853D01*
X160784660Y-124504851D01*
X160784657Y-124504850D01*
X160648610Y-124448497D01*
X160648606Y-124448495D01*
X160502600Y-124429274D01*
X160356593Y-124448495D01*
X160356589Y-124448497D01*
X160220542Y-124504850D01*
X160220530Y-124504857D01*
X160103702Y-124594502D01*
X160014057Y-124711330D01*
X160014050Y-124711342D01*
X159957697Y-124847389D01*
X159957695Y-124847393D01*
X159938474Y-124993399D01*
X128719372Y-124993399D01*
X128764104Y-124885407D01*
X128783326Y-124739400D01*
X128782549Y-124733501D01*
X128764104Y-124593393D01*
X128764102Y-124593389D01*
X128754042Y-124569103D01*
X128707747Y-124457337D01*
X128700963Y-124448496D01*
X128618097Y-124340502D01*
X128501269Y-124250857D01*
X128501265Y-124250855D01*
X128501263Y-124250853D01*
X128501260Y-124250851D01*
X128501257Y-124250850D01*
X128365210Y-124194497D01*
X128365206Y-124194495D01*
X128219200Y-124175274D01*
X128073193Y-124194495D01*
X128073189Y-124194497D01*
X127937142Y-124250850D01*
X127937130Y-124250857D01*
X127820302Y-124340502D01*
X127730657Y-124457330D01*
X127730650Y-124457342D01*
X127674297Y-124593389D01*
X127674295Y-124593393D01*
X127655074Y-124739399D01*
X125779438Y-124739399D01*
X125786126Y-124688599D01*
X125773591Y-124593389D01*
X125766904Y-124542592D01*
X125766902Y-124542588D01*
X125751270Y-124504850D01*
X125710547Y-124406536D01*
X125710542Y-124406529D01*
X125620897Y-124289701D01*
X125504069Y-124200056D01*
X125504065Y-124200054D01*
X125504063Y-124200052D01*
X125504060Y-124200050D01*
X125504057Y-124200049D01*
X125368010Y-124143696D01*
X125368006Y-124143694D01*
X125222000Y-124124473D01*
X125075993Y-124143694D01*
X125075989Y-124143696D01*
X124939942Y-124200049D01*
X124939930Y-124200056D01*
X124823102Y-124289701D01*
X124733457Y-124406529D01*
X124733450Y-124406541D01*
X124677097Y-124542588D01*
X124677095Y-124542592D01*
X124657874Y-124688598D01*
X124657874Y-124688599D01*
X124677095Y-124834605D01*
X124677097Y-124834609D01*
X124733450Y-124970656D01*
X124733457Y-124970668D01*
X124823100Y-125087493D01*
X124823101Y-125087494D01*
X124823103Y-125087496D01*
X124888519Y-125137692D01*
X124930386Y-125195029D01*
X124934608Y-125265900D01*
X124899844Y-125327803D01*
X124888520Y-125337616D01*
X124797697Y-125407307D01*
X124791863Y-125413142D01*
X124789355Y-125410634D01*
X124744886Y-125442838D01*
X124702727Y-125450100D01*
X123930519Y-125450100D01*
X123839953Y-125474366D01*
X123839945Y-125474369D01*
X123758752Y-125521246D01*
X123758742Y-125521254D01*
X121758603Y-127521395D01*
X121696291Y-127555420D01*
X121669508Y-127558300D01*
X117504215Y-127558300D01*
X117504199Y-127558299D01*
X117496481Y-127558299D01*
X117402719Y-127558299D01*
X117331289Y-127577437D01*
X117331289Y-127577438D01*
X117327244Y-127578521D01*
X117312150Y-127582566D01*
X117275669Y-127603629D01*
X117239188Y-127624692D01*
X117234698Y-127627284D01*
X117230948Y-127629449D01*
X116886618Y-127973778D01*
X116824306Y-128007803D01*
X116797458Y-128009034D01*
X116797458Y-128010674D01*
X116789200Y-128010674D01*
X116643193Y-128029895D01*
X116643189Y-128029897D01*
X116507142Y-128086250D01*
X116507130Y-128086257D01*
X116390302Y-128175902D01*
X116300657Y-128292730D01*
X116300650Y-128292742D01*
X116244297Y-128428789D01*
X116244295Y-128428793D01*
X116225074Y-128574799D01*
X106055526Y-128574799D01*
X106024652Y-128500262D01*
X106019290Y-128493274D01*
X105935002Y-128383427D01*
X105818174Y-128293782D01*
X105818170Y-128293780D01*
X105818168Y-128293778D01*
X105818165Y-128293776D01*
X105818162Y-128293775D01*
X105682115Y-128237422D01*
X105682111Y-128237420D01*
X105536105Y-128218199D01*
X105390098Y-128237420D01*
X105390094Y-128237422D01*
X105254047Y-128293775D01*
X105254035Y-128293782D01*
X105137207Y-128383427D01*
X105047562Y-128500255D01*
X105047555Y-128500267D01*
X104991202Y-128636314D01*
X104991200Y-128636318D01*
X104971979Y-128782324D01*
X97547700Y-128782324D01*
X97547700Y-127939799D01*
X103169474Y-127939799D01*
X103169474Y-127939800D01*
X103188695Y-128085806D01*
X103188697Y-128085810D01*
X103245050Y-128221857D01*
X103245057Y-128221869D01*
X103334702Y-128338697D01*
X103451530Y-128428342D01*
X103451537Y-128428347D01*
X103587593Y-128484704D01*
X103733600Y-128503926D01*
X103879607Y-128484704D01*
X104015663Y-128428347D01*
X104132497Y-128338697D01*
X104222147Y-128221863D01*
X104278504Y-128085807D01*
X104297726Y-127939800D01*
X104293540Y-127908007D01*
X104278504Y-127793793D01*
X104278502Y-127793789D01*
X104270358Y-127774129D01*
X104222147Y-127657737D01*
X104222142Y-127657730D01*
X104132497Y-127540902D01*
X104015669Y-127451257D01*
X104015665Y-127451255D01*
X104015663Y-127451253D01*
X104015660Y-127451251D01*
X104015657Y-127451250D01*
X103879610Y-127394897D01*
X103879606Y-127394895D01*
X103733600Y-127375674D01*
X103587593Y-127394895D01*
X103587589Y-127394897D01*
X103451542Y-127451250D01*
X103451530Y-127451257D01*
X103334702Y-127540902D01*
X103245057Y-127657730D01*
X103245050Y-127657742D01*
X103188697Y-127793789D01*
X103188695Y-127793793D01*
X103169474Y-127939799D01*
X97547700Y-127939799D01*
X97547700Y-127279399D01*
X104998274Y-127279399D01*
X104998274Y-127279400D01*
X105017495Y-127425406D01*
X105017497Y-127425410D01*
X105073850Y-127561457D01*
X105073857Y-127561469D01*
X105163502Y-127678297D01*
X105280330Y-127767942D01*
X105280337Y-127767947D01*
X105416393Y-127824304D01*
X105562400Y-127843526D01*
X105708407Y-127824304D01*
X105844463Y-127767947D01*
X105961297Y-127678297D01*
X106050947Y-127561463D01*
X106107304Y-127425407D01*
X106126526Y-127279400D01*
X106118323Y-127217095D01*
X106107304Y-127133393D01*
X106107302Y-127133389D01*
X106097242Y-127109103D01*
X106050947Y-126997337D01*
X106050942Y-126997330D01*
X105961297Y-126880502D01*
X105844469Y-126790857D01*
X105844465Y-126790855D01*
X105844463Y-126790853D01*
X105844460Y-126790851D01*
X105844457Y-126790850D01*
X105708410Y-126734497D01*
X105708406Y-126734495D01*
X105562400Y-126715274D01*
X105416393Y-126734495D01*
X105416389Y-126734497D01*
X105280342Y-126790850D01*
X105280330Y-126790857D01*
X105163502Y-126880502D01*
X105073857Y-126997330D01*
X105073850Y-126997342D01*
X105017497Y-127133389D01*
X105017495Y-127133393D01*
X104998274Y-127279399D01*
X97547700Y-127279399D01*
X97547700Y-125931498D01*
X105203301Y-125931498D01*
X105240185Y-126069149D01*
X105311431Y-126192551D01*
X105311439Y-126192561D01*
X105412190Y-126293312D01*
X105412195Y-126293316D01*
X105412197Y-126293318D01*
X105412198Y-126293319D01*
X105412200Y-126293320D01*
X105535602Y-126364566D01*
X105535604Y-126364566D01*
X105535607Y-126364568D01*
X105673252Y-126401450D01*
X105673254Y-126401450D01*
X105815750Y-126401450D01*
X105815752Y-126401450D01*
X105953397Y-126364568D01*
X105953400Y-126364566D01*
X105953401Y-126364566D01*
X106074328Y-126294749D01*
X106076807Y-126293318D01*
X106177570Y-126192555D01*
X106237779Y-126088269D01*
X106248818Y-126069149D01*
X106248818Y-126069148D01*
X106248820Y-126069145D01*
X106285702Y-125931500D01*
X106285702Y-125789000D01*
X106248820Y-125651355D01*
X106248818Y-125651352D01*
X106248818Y-125651350D01*
X106177572Y-125527948D01*
X106177564Y-125527938D01*
X106076813Y-125427187D01*
X106076803Y-125427179D01*
X105953401Y-125355933D01*
X105937137Y-125351575D01*
X105815752Y-125319050D01*
X105673252Y-125319050D01*
X105603963Y-125337616D01*
X105535602Y-125355933D01*
X105412200Y-125427179D01*
X105412190Y-125427187D01*
X105311439Y-125527938D01*
X105311431Y-125527948D01*
X105240185Y-125651350D01*
X105225370Y-125706642D01*
X105205500Y-125780799D01*
X105203302Y-125789001D01*
X105203302Y-125931498D01*
X105203301Y-125931498D01*
X97547700Y-125931498D01*
X97547700Y-115950995D01*
X107679553Y-115950995D01*
X107679553Y-115951004D01*
X107699294Y-116164044D01*
X107755118Y-116360247D01*
X107757848Y-116369840D01*
X107853218Y-116561370D01*
X107853219Y-116561371D01*
X107853220Y-116561373D01*
X107982154Y-116732110D01*
X107982157Y-116732112D01*
X107982158Y-116732114D01*
X108100503Y-116839999D01*
X108140277Y-116876258D01*
X108140278Y-116876259D01*
X108322177Y-116988886D01*
X108322180Y-116988887D01*
X108322189Y-116988893D01*
X108521697Y-117066183D01*
X108521702Y-117066185D01*
X108732019Y-117105500D01*
X108732021Y-117105500D01*
X108945981Y-117105500D01*
X109007504Y-117093999D01*
X109085857Y-117079352D01*
X109156492Y-117086495D01*
X109212053Y-117130694D01*
X109234898Y-117197915D01*
X109230200Y-117237684D01*
X109223295Y-117261953D01*
X109203554Y-117474995D01*
X109203554Y-117475004D01*
X109223295Y-117688044D01*
X109281847Y-117893834D01*
X109281851Y-117893845D01*
X109293052Y-117916340D01*
X109305509Y-117986235D01*
X109278200Y-118051770D01*
X109219796Y-118092136D01*
X109180260Y-118098500D01*
X108332067Y-118098500D01*
X108261083Y-118104950D01*
X108261076Y-118104951D01*
X108097743Y-118155846D01*
X108097742Y-118155847D01*
X107951329Y-118244356D01*
X107951324Y-118244360D01*
X107830359Y-118365325D01*
X107830355Y-118365330D01*
X107741846Y-118511743D01*
X107741845Y-118511744D01*
X107690949Y-118675080D01*
X107685671Y-118733165D01*
X107684739Y-118743430D01*
X107684499Y-118746067D01*
X107684499Y-119759931D01*
X107690949Y-119830915D01*
X107690950Y-119830922D01*
X107741845Y-119994255D01*
X107741846Y-119994256D01*
X107741847Y-119994259D01*
X107830355Y-120140669D01*
X107830359Y-120140674D01*
X107951324Y-120261639D01*
X107951329Y-120261643D01*
X107951330Y-120261644D01*
X108097740Y-120350152D01*
X108261077Y-120401049D01*
X108332064Y-120407500D01*
X109345933Y-120407499D01*
X109416921Y-120401049D01*
X109580258Y-120350152D01*
X109726668Y-120261644D01*
X109847643Y-120140669D01*
X109936151Y-119994259D01*
X109987048Y-119830922D01*
X109993499Y-119759935D01*
X109993498Y-118746066D01*
X109993258Y-118743428D01*
X110007009Y-118673777D01*
X110056234Y-118622617D01*
X110125305Y-118606191D01*
X110141878Y-118608163D01*
X110256020Y-118629500D01*
X110256023Y-118629500D01*
X110469978Y-118629500D01*
X110469980Y-118629500D01*
X110680297Y-118590185D01*
X110879810Y-118512893D01*
X110915170Y-118490999D01*
X127197874Y-118490999D01*
X127197874Y-118491000D01*
X127217095Y-118637006D01*
X127217097Y-118637010D01*
X127273450Y-118773057D01*
X127273457Y-118773069D01*
X127363102Y-118889897D01*
X127479930Y-118979542D01*
X127479937Y-118979547D01*
X127615993Y-119035904D01*
X127762000Y-119055126D01*
X127908007Y-119035904D01*
X128044063Y-118979547D01*
X128160897Y-118889897D01*
X128250547Y-118773063D01*
X128306904Y-118637007D01*
X128326126Y-118491000D01*
X128326126Y-118490999D01*
X129356874Y-118490999D01*
X129356874Y-118491000D01*
X129376095Y-118637006D01*
X129376097Y-118637010D01*
X129432450Y-118773057D01*
X129432457Y-118773069D01*
X129522102Y-118889897D01*
X129638930Y-118979542D01*
X129638937Y-118979547D01*
X129774993Y-119035904D01*
X129921000Y-119055126D01*
X130067007Y-119035904D01*
X130203063Y-118979547D01*
X130319897Y-118889897D01*
X130409547Y-118773063D01*
X130465904Y-118637007D01*
X130485126Y-118491000D01*
X130485126Y-118490999D01*
X131388874Y-118490999D01*
X131388874Y-118491000D01*
X131408095Y-118637006D01*
X131408097Y-118637010D01*
X131464450Y-118773057D01*
X131464457Y-118773069D01*
X131554102Y-118889897D01*
X131670930Y-118979542D01*
X131670937Y-118979547D01*
X131806993Y-119035904D01*
X131953000Y-119055126D01*
X132099007Y-119035904D01*
X132235063Y-118979547D01*
X132351897Y-118889897D01*
X132441547Y-118773063D01*
X132497904Y-118637007D01*
X132517126Y-118491000D01*
X132505264Y-118400902D01*
X132497904Y-118344993D01*
X132497902Y-118344989D01*
X132461088Y-118256114D01*
X132441547Y-118208937D01*
X132441542Y-118208930D01*
X132351897Y-118092102D01*
X132235069Y-118002457D01*
X132235065Y-118002455D01*
X132235063Y-118002453D01*
X132235060Y-118002451D01*
X132235057Y-118002450D01*
X132099010Y-117946097D01*
X132099006Y-117946095D01*
X131953000Y-117926874D01*
X131806993Y-117946095D01*
X131806989Y-117946097D01*
X131670942Y-118002450D01*
X131670930Y-118002457D01*
X131554102Y-118092102D01*
X131464457Y-118208930D01*
X131464450Y-118208942D01*
X131408097Y-118344989D01*
X131408095Y-118344993D01*
X131388874Y-118490999D01*
X130485126Y-118490999D01*
X130473264Y-118400902D01*
X130465904Y-118344993D01*
X130465902Y-118344989D01*
X130429088Y-118256114D01*
X130409547Y-118208937D01*
X130409542Y-118208930D01*
X130319897Y-118092102D01*
X130203069Y-118002457D01*
X130203065Y-118002455D01*
X130203063Y-118002453D01*
X130203060Y-118002451D01*
X130203057Y-118002450D01*
X130067010Y-117946097D01*
X130067006Y-117946095D01*
X129921000Y-117926874D01*
X129774993Y-117946095D01*
X129774989Y-117946097D01*
X129638942Y-118002450D01*
X129638930Y-118002457D01*
X129522102Y-118092102D01*
X129432457Y-118208930D01*
X129432450Y-118208942D01*
X129376097Y-118344989D01*
X129376095Y-118344993D01*
X129356874Y-118490999D01*
X128326126Y-118490999D01*
X128314264Y-118400902D01*
X128306904Y-118344993D01*
X128306902Y-118344989D01*
X128270088Y-118256114D01*
X128250547Y-118208937D01*
X128250542Y-118208930D01*
X128160897Y-118092102D01*
X128044069Y-118002457D01*
X128044065Y-118002455D01*
X128044063Y-118002453D01*
X128044060Y-118002451D01*
X128044057Y-118002450D01*
X127908010Y-117946097D01*
X127908006Y-117946095D01*
X127762000Y-117926874D01*
X127615993Y-117946095D01*
X127615989Y-117946097D01*
X127479942Y-118002450D01*
X127479930Y-118002457D01*
X127363102Y-118092102D01*
X127273457Y-118208930D01*
X127273450Y-118208942D01*
X127217097Y-118344989D01*
X127217095Y-118344993D01*
X127197874Y-118490999D01*
X110915170Y-118490999D01*
X111061722Y-118400258D01*
X111219841Y-118256114D01*
X111348781Y-118085370D01*
X111444151Y-117893840D01*
X111502704Y-117688048D01*
X111522446Y-117475000D01*
X111520787Y-117457102D01*
X111502704Y-117261955D01*
X111502704Y-117261952D01*
X111444151Y-117056160D01*
X111348781Y-116864630D01*
X111308984Y-116811930D01*
X111219844Y-116693889D01*
X111061721Y-116549741D01*
X111061720Y-116549740D01*
X110879821Y-116437113D01*
X110879814Y-116437109D01*
X110879810Y-116437107D01*
X110872048Y-116434100D01*
X110680301Y-116359816D01*
X110680302Y-116359816D01*
X110662654Y-116356517D01*
X110469980Y-116320500D01*
X110256020Y-116320500D01*
X110116140Y-116346647D01*
X110045505Y-116339503D01*
X109989945Y-116295304D01*
X109967100Y-116228083D01*
X109971798Y-116188315D01*
X109978703Y-116164048D01*
X109990548Y-116036219D01*
X109998445Y-115951004D01*
X109998445Y-115950995D01*
X109986677Y-115824000D01*
X109986677Y-115823999D01*
X116910874Y-115823999D01*
X116910874Y-115824000D01*
X116930095Y-115970006D01*
X116930097Y-115970010D01*
X116986450Y-116106057D01*
X116986457Y-116106069D01*
X117076102Y-116222897D01*
X117088015Y-116232038D01*
X117129882Y-116289376D01*
X117134104Y-116360247D01*
X117099340Y-116422150D01*
X117088015Y-116431962D01*
X117076102Y-116441102D01*
X116986457Y-116557930D01*
X116986450Y-116557942D01*
X116930097Y-116693989D01*
X116930095Y-116693993D01*
X116910874Y-116839999D01*
X116910874Y-116840000D01*
X116930095Y-116986006D01*
X116930097Y-116986010D01*
X116986450Y-117122057D01*
X116986457Y-117122069D01*
X117076102Y-117238897D01*
X117088015Y-117248038D01*
X117129882Y-117305376D01*
X117134104Y-117376247D01*
X117099340Y-117438150D01*
X117088015Y-117447962D01*
X117076102Y-117457102D01*
X116986457Y-117573930D01*
X116986450Y-117573942D01*
X116930097Y-117709989D01*
X116930095Y-117709993D01*
X116910874Y-117855999D01*
X116910874Y-117856000D01*
X116930095Y-118002006D01*
X116930097Y-118002010D01*
X116986450Y-118138057D01*
X116986457Y-118138069D01*
X117076102Y-118254897D01*
X117192930Y-118344542D01*
X117192937Y-118344547D01*
X117328993Y-118400904D01*
X117475000Y-118420126D01*
X117621007Y-118400904D01*
X117757063Y-118344547D01*
X117873897Y-118254897D01*
X117883037Y-118242984D01*
X117940373Y-118201118D01*
X118011244Y-118196894D01*
X118073147Y-118231657D01*
X118082958Y-118242979D01*
X118092103Y-118254897D01*
X118208937Y-118344547D01*
X118344993Y-118400904D01*
X118491000Y-118420126D01*
X118637007Y-118400904D01*
X118773063Y-118344547D01*
X118889897Y-118254897D01*
X118979547Y-118138063D01*
X119035904Y-118002007D01*
X119055126Y-117856000D01*
X119035904Y-117709993D01*
X118979547Y-117573937D01*
X118963353Y-117552833D01*
X118889898Y-117457104D01*
X118889897Y-117457103D01*
X118877984Y-117447962D01*
X118836118Y-117390627D01*
X118831894Y-117319756D01*
X118866657Y-117257853D01*
X118877984Y-117248038D01*
X118889897Y-117238897D01*
X118979547Y-117122063D01*
X118991172Y-117093999D01*
X127197874Y-117093999D01*
X127197874Y-117094000D01*
X127217095Y-117240006D01*
X127217097Y-117240010D01*
X127273450Y-117376057D01*
X127273457Y-117376069D01*
X127363102Y-117492897D01*
X127472837Y-117577099D01*
X127479937Y-117582547D01*
X127615993Y-117638904D01*
X127762000Y-117658126D01*
X127908007Y-117638904D01*
X128044063Y-117582547D01*
X128160897Y-117492897D01*
X128250547Y-117376063D01*
X128306904Y-117240007D01*
X128326126Y-117094000D01*
X128326126Y-117093999D01*
X129356874Y-117093999D01*
X129356874Y-117094000D01*
X129376095Y-117240006D01*
X129376097Y-117240010D01*
X129432450Y-117376057D01*
X129432457Y-117376069D01*
X129522102Y-117492897D01*
X129631837Y-117577099D01*
X129638937Y-117582547D01*
X129774993Y-117638904D01*
X129921000Y-117658126D01*
X130067007Y-117638904D01*
X130203063Y-117582547D01*
X130319897Y-117492897D01*
X130409547Y-117376063D01*
X130465904Y-117240007D01*
X130485126Y-117094000D01*
X130485126Y-117093999D01*
X131388874Y-117093999D01*
X131388874Y-117094000D01*
X131408095Y-117240006D01*
X131408097Y-117240010D01*
X131464450Y-117376057D01*
X131464457Y-117376069D01*
X131554102Y-117492897D01*
X131663837Y-117577099D01*
X131670937Y-117582547D01*
X131806993Y-117638904D01*
X131953000Y-117658126D01*
X132099007Y-117638904D01*
X132235063Y-117582547D01*
X132351897Y-117492897D01*
X132441547Y-117376063D01*
X132497904Y-117240007D01*
X132517126Y-117094000D01*
X132497904Y-116947993D01*
X132441547Y-116811937D01*
X132380294Y-116732110D01*
X132351897Y-116695102D01*
X132235069Y-116605457D01*
X132235065Y-116605455D01*
X132235063Y-116605453D01*
X132235060Y-116605451D01*
X132235057Y-116605450D01*
X132099010Y-116549097D01*
X132099006Y-116549095D01*
X131953000Y-116529874D01*
X131806993Y-116549095D01*
X131806989Y-116549097D01*
X131670942Y-116605450D01*
X131670930Y-116605457D01*
X131554102Y-116695102D01*
X131464457Y-116811930D01*
X131464450Y-116811942D01*
X131408097Y-116947989D01*
X131408095Y-116947993D01*
X131388874Y-117093999D01*
X130485126Y-117093999D01*
X130465904Y-116947993D01*
X130409547Y-116811937D01*
X130348294Y-116732110D01*
X130319897Y-116695102D01*
X130203069Y-116605457D01*
X130203065Y-116605455D01*
X130203063Y-116605453D01*
X130203060Y-116605451D01*
X130203057Y-116605450D01*
X130067010Y-116549097D01*
X130067006Y-116549095D01*
X129921000Y-116529874D01*
X129774993Y-116549095D01*
X129774989Y-116549097D01*
X129638942Y-116605450D01*
X129638930Y-116605457D01*
X129522102Y-116695102D01*
X129432457Y-116811930D01*
X129432450Y-116811942D01*
X129376097Y-116947989D01*
X129376095Y-116947993D01*
X129356874Y-117093999D01*
X128326126Y-117093999D01*
X128306904Y-116947993D01*
X128250547Y-116811937D01*
X128189294Y-116732110D01*
X128160897Y-116695102D01*
X128044069Y-116605457D01*
X128044065Y-116605455D01*
X128044063Y-116605453D01*
X128044060Y-116605451D01*
X128044057Y-116605450D01*
X127908010Y-116549097D01*
X127908006Y-116549095D01*
X127762000Y-116529874D01*
X127615993Y-116549095D01*
X127615989Y-116549097D01*
X127479942Y-116605450D01*
X127479930Y-116605457D01*
X127363102Y-116695102D01*
X127273457Y-116811930D01*
X127273450Y-116811942D01*
X127217097Y-116947989D01*
X127217095Y-116947993D01*
X127197874Y-117093999D01*
X118991172Y-117093999D01*
X119035904Y-116986007D01*
X119055126Y-116840000D01*
X119051431Y-116811937D01*
X119035904Y-116693993D01*
X119035902Y-116693989D01*
X119035859Y-116693886D01*
X118979547Y-116557937D01*
X118973257Y-116549740D01*
X118889898Y-116441104D01*
X118889897Y-116441103D01*
X118877984Y-116431962D01*
X118836118Y-116374627D01*
X118831894Y-116303756D01*
X118866657Y-116241853D01*
X118877984Y-116232038D01*
X118889897Y-116222897D01*
X118979547Y-116106063D01*
X119035904Y-115970007D01*
X119055126Y-115824000D01*
X119035904Y-115677993D01*
X118979547Y-115541937D01*
X118972045Y-115532160D01*
X118889897Y-115425102D01*
X118773069Y-115335457D01*
X118773065Y-115335455D01*
X118773063Y-115335453D01*
X118773060Y-115335451D01*
X118773057Y-115335450D01*
X118637010Y-115279097D01*
X118637006Y-115279095D01*
X118491000Y-115259874D01*
X118344993Y-115279095D01*
X118344989Y-115279097D01*
X118208942Y-115335450D01*
X118208930Y-115335457D01*
X118092102Y-115425102D01*
X118082962Y-115437015D01*
X118025624Y-115478882D01*
X117954753Y-115483104D01*
X117892850Y-115448340D01*
X117883038Y-115437015D01*
X117873897Y-115425102D01*
X117757069Y-115335457D01*
X117757065Y-115335455D01*
X117757063Y-115335453D01*
X117757060Y-115335451D01*
X117757057Y-115335450D01*
X117621010Y-115279097D01*
X117621006Y-115279095D01*
X117475000Y-115259874D01*
X117328993Y-115279095D01*
X117328989Y-115279097D01*
X117192942Y-115335450D01*
X117192930Y-115335457D01*
X117076102Y-115425102D01*
X116986457Y-115541930D01*
X116986450Y-115541942D01*
X116930097Y-115677989D01*
X116930095Y-115677993D01*
X116910874Y-115823999D01*
X109986677Y-115823999D01*
X109978703Y-115737952D01*
X109971799Y-115713687D01*
X109972395Y-115642696D01*
X110011278Y-115583294D01*
X110076104Y-115554343D01*
X110116133Y-115555351D01*
X110256020Y-115581501D01*
X110256023Y-115581501D01*
X110469978Y-115581501D01*
X110469980Y-115581501D01*
X110680297Y-115542186D01*
X110879810Y-115464894D01*
X111061722Y-115352259D01*
X111219841Y-115208115D01*
X111348781Y-115037371D01*
X111444151Y-114845841D01*
X111502704Y-114640049D01*
X111520621Y-114446698D01*
X111522446Y-114427005D01*
X111522446Y-114426996D01*
X111506028Y-114249821D01*
X111502704Y-114213953D01*
X111444151Y-114008161D01*
X111348781Y-113816631D01*
X111306811Y-113761054D01*
X111219844Y-113645890D01*
X111061721Y-113501742D01*
X111061720Y-113501741D01*
X110879821Y-113389114D01*
X110879814Y-113389110D01*
X110879810Y-113389108D01*
X110879805Y-113389106D01*
X110680301Y-113311817D01*
X110680302Y-113311817D01*
X110680297Y-113311816D01*
X110469980Y-113272501D01*
X110256020Y-113272501D01*
X110097313Y-113302168D01*
X110045697Y-113311817D01*
X109846194Y-113389106D01*
X109846178Y-113389114D01*
X109664279Y-113501741D01*
X109664278Y-113501742D01*
X109506155Y-113645890D01*
X109377221Y-113816627D01*
X109281849Y-114008161D01*
X109281847Y-114008166D01*
X109223295Y-114213956D01*
X109203554Y-114426996D01*
X109203554Y-114427005D01*
X109223295Y-114640048D01*
X109223295Y-114640049D01*
X109230199Y-114664313D01*
X109229602Y-114735307D01*
X109190718Y-114794708D01*
X109125891Y-114823657D01*
X109085858Y-114822648D01*
X108945979Y-114796500D01*
X108732019Y-114796500D01*
X108586742Y-114823657D01*
X108521696Y-114835816D01*
X108322193Y-114913105D01*
X108322177Y-114913113D01*
X108140278Y-115025740D01*
X108140277Y-115025741D01*
X107982154Y-115169889D01*
X107853220Y-115340626D01*
X107757848Y-115532160D01*
X107757846Y-115532165D01*
X107699294Y-115737955D01*
X107679553Y-115950995D01*
X97547700Y-115950995D01*
X97547700Y-115843087D01*
X97547852Y-115836905D01*
X97548486Y-115823999D01*
X97565676Y-115474075D01*
X97566888Y-115461775D01*
X97570867Y-115434951D01*
X97619738Y-115105491D01*
X97622145Y-115093388D01*
X97709665Y-114743985D01*
X97713251Y-114732168D01*
X97834591Y-114393047D01*
X97839316Y-114381635D01*
X97993318Y-114056027D01*
X97999145Y-114045126D01*
X98021301Y-114008161D01*
X98184317Y-113736184D01*
X98191174Y-113725923D01*
X98405736Y-113436619D01*
X98413563Y-113427081D01*
X98645726Y-113170930D01*
X152185501Y-113170930D01*
X152185501Y-114921063D01*
X152185502Y-114921073D01*
X152200266Y-114995300D01*
X152256517Y-115079484D01*
X152340698Y-115135733D01*
X152340700Y-115135734D01*
X152414934Y-115150500D01*
X154165067Y-115150499D01*
X154165070Y-115150498D01*
X154165074Y-115150498D01*
X154226350Y-115138310D01*
X154239302Y-115135734D01*
X154323485Y-115079484D01*
X154379735Y-114995301D01*
X154394501Y-114921067D01*
X154394500Y-114045995D01*
X157260769Y-114045995D01*
X157260769Y-114046004D01*
X157279655Y-114249819D01*
X157279656Y-114249821D01*
X157335673Y-114446701D01*
X157426913Y-114629935D01*
X157426914Y-114629936D01*
X157550267Y-114793284D01*
X157701537Y-114931185D01*
X157875567Y-115038940D01*
X157875569Y-115038940D01*
X157875574Y-115038944D01*
X158066445Y-115112888D01*
X158267654Y-115150500D01*
X158267656Y-115150500D01*
X158472346Y-115150500D01*
X158472348Y-115150500D01*
X158673557Y-115112888D01*
X158864428Y-115038944D01*
X159038463Y-114931186D01*
X159189733Y-114793285D01*
X159313089Y-114629935D01*
X159404329Y-114446701D01*
X159460346Y-114249821D01*
X159470502Y-114140224D01*
X159479233Y-114046004D01*
X159479233Y-114045995D01*
X159800769Y-114045995D01*
X159800769Y-114046004D01*
X159819655Y-114249819D01*
X159819656Y-114249821D01*
X159875673Y-114446701D01*
X159966913Y-114629935D01*
X159966914Y-114629936D01*
X160090267Y-114793284D01*
X160241537Y-114931185D01*
X160415567Y-115038940D01*
X160415569Y-115038940D01*
X160415574Y-115038944D01*
X160606445Y-115112888D01*
X160807654Y-115150500D01*
X160807656Y-115150500D01*
X161012346Y-115150500D01*
X161012348Y-115150500D01*
X161213557Y-115112888D01*
X161404428Y-115038944D01*
X161578463Y-114931186D01*
X161729733Y-114793285D01*
X161853089Y-114629935D01*
X161944329Y-114446701D01*
X162000346Y-114249821D01*
X162010502Y-114140224D01*
X162019233Y-114046004D01*
X162019233Y-114045995D01*
X162340769Y-114045995D01*
X162340769Y-114046004D01*
X162359655Y-114249819D01*
X162359656Y-114249821D01*
X162415673Y-114446701D01*
X162506913Y-114629935D01*
X162506914Y-114629936D01*
X162630267Y-114793284D01*
X162781537Y-114931185D01*
X162955567Y-115038940D01*
X162955569Y-115038940D01*
X162955574Y-115038944D01*
X163146445Y-115112888D01*
X163347654Y-115150500D01*
X163347656Y-115150500D01*
X163552346Y-115150500D01*
X163552348Y-115150500D01*
X163753557Y-115112888D01*
X163864204Y-115070021D01*
X163934951Y-115064065D01*
X163997687Y-115097301D01*
X163998816Y-115098417D01*
X165197050Y-116296651D01*
X165263350Y-116362951D01*
X165263351Y-116362952D01*
X165263353Y-116362953D01*
X165275280Y-116369839D01*
X165344551Y-116409833D01*
X165435120Y-116434100D01*
X167319415Y-116434100D01*
X167387536Y-116454102D01*
X167408510Y-116471005D01*
X168377156Y-117439651D01*
X168443456Y-117505951D01*
X168524657Y-117552833D01*
X168615226Y-117577100D01*
X178616438Y-117577100D01*
X178684559Y-117597102D01*
X178705533Y-117614005D01*
X179896195Y-118804667D01*
X179930221Y-118866979D01*
X179933100Y-118893762D01*
X179933100Y-120551908D01*
X179913098Y-120620029D01*
X179896195Y-120641003D01*
X178888020Y-121649177D01*
X178825708Y-121683203D01*
X178798858Y-121684483D01*
X178798858Y-121686074D01*
X178790600Y-121686074D01*
X178644593Y-121705295D01*
X178644589Y-121705297D01*
X178508542Y-121761650D01*
X178508530Y-121761657D01*
X178391702Y-121851302D01*
X178302057Y-121968130D01*
X178302050Y-121968142D01*
X178245697Y-122104189D01*
X178245695Y-122104193D01*
X178226474Y-122250199D01*
X178226474Y-122250200D01*
X178245695Y-122396206D01*
X178245697Y-122396210D01*
X178302050Y-122532257D01*
X178302057Y-122532269D01*
X178391702Y-122649097D01*
X178508530Y-122738742D01*
X178508537Y-122738747D01*
X178644593Y-122795104D01*
X178790600Y-122814326D01*
X178857848Y-122805472D01*
X178927994Y-122816411D01*
X178981093Y-122863538D01*
X178999215Y-122913948D01*
X179015859Y-123040378D01*
X179015861Y-123040382D01*
X179072214Y-123176429D01*
X179072221Y-123176441D01*
X179161866Y-123293269D01*
X179278694Y-123382914D01*
X179278701Y-123382919D01*
X179414757Y-123439276D01*
X179487147Y-123448806D01*
X179552074Y-123477528D01*
X179587942Y-123531905D01*
X179588735Y-123531577D01*
X179590439Y-123535691D01*
X179591166Y-123536793D01*
X179591776Y-123538920D01*
X179648250Y-123675257D01*
X179648257Y-123675269D01*
X179737902Y-123792097D01*
X179854730Y-123881742D01*
X179854737Y-123881747D01*
X179990793Y-123938104D01*
X180136800Y-123957326D01*
X180282807Y-123938104D01*
X180418863Y-123881747D01*
X180535697Y-123792097D01*
X180598592Y-123710129D01*
X180655929Y-123668263D01*
X180726800Y-123664041D01*
X180788703Y-123698804D01*
X180798516Y-123710130D01*
X180880902Y-123817497D01*
X180997730Y-123907142D01*
X180997737Y-123907147D01*
X181133793Y-123963504D01*
X181279800Y-123982726D01*
X181425807Y-123963504D01*
X181561863Y-123907147D01*
X181678697Y-123817497D01*
X181768347Y-123700663D01*
X181787871Y-123653528D01*
X181832416Y-123598250D01*
X181899780Y-123575828D01*
X181968571Y-123593386D01*
X182016950Y-123645347D01*
X182020686Y-123653529D01*
X182040213Y-123700669D01*
X182061253Y-123751463D01*
X182061255Y-123751466D01*
X182061257Y-123751469D01*
X182150902Y-123868297D01*
X182267730Y-123957942D01*
X182267737Y-123957947D01*
X182403793Y-124014304D01*
X182549800Y-124033526D01*
X182695807Y-124014304D01*
X182831863Y-123957947D01*
X182948697Y-123868297D01*
X183038347Y-123751463D01*
X183094704Y-123615407D01*
X183113926Y-123469400D01*
X183094704Y-123323393D01*
X183038347Y-123187337D01*
X183029986Y-123176441D01*
X182948695Y-123070500D01*
X182942859Y-123064664D01*
X182945330Y-123062192D01*
X182913052Y-123017375D01*
X182905900Y-122975527D01*
X182905900Y-122148599D01*
X188792874Y-122148599D01*
X188792874Y-122148600D01*
X188812095Y-122294606D01*
X188812097Y-122294610D01*
X188868450Y-122430657D01*
X188868457Y-122430669D01*
X188958102Y-122547497D01*
X189074930Y-122637142D01*
X189074937Y-122637147D01*
X189210993Y-122693504D01*
X189357000Y-122712726D01*
X189503007Y-122693504D01*
X189639063Y-122637147D01*
X189755897Y-122547497D01*
X189845547Y-122430663D01*
X189901904Y-122294607D01*
X189921126Y-122148600D01*
X189901904Y-122002593D01*
X189845547Y-121866537D01*
X189833857Y-121851302D01*
X189755897Y-121749702D01*
X189639069Y-121660057D01*
X189639065Y-121660055D01*
X189639063Y-121660053D01*
X189639060Y-121660051D01*
X189639057Y-121660050D01*
X189503010Y-121603697D01*
X189503006Y-121603695D01*
X189357000Y-121584474D01*
X189210993Y-121603695D01*
X189210989Y-121603697D01*
X189074942Y-121660050D01*
X189074930Y-121660057D01*
X188958102Y-121749702D01*
X188868457Y-121866530D01*
X188868450Y-121866542D01*
X188812097Y-122002589D01*
X188812095Y-122002593D01*
X188792874Y-122148599D01*
X182905900Y-122148599D01*
X182905900Y-117858920D01*
X182905900Y-117858918D01*
X182881633Y-117768349D01*
X182847941Y-117709993D01*
X182834753Y-117687151D01*
X182834749Y-117687146D01*
X182805729Y-117658126D01*
X182768451Y-117620848D01*
X179745210Y-114597607D01*
X179711185Y-114535296D01*
X179716250Y-114464481D01*
X179721515Y-114452351D01*
X179724329Y-114446701D01*
X179780346Y-114249821D01*
X179790502Y-114140224D01*
X179799233Y-114046004D01*
X179799233Y-114045995D01*
X179780346Y-113842180D01*
X179780346Y-113842179D01*
X179724329Y-113645299D01*
X179633089Y-113462065D01*
X179577993Y-113389106D01*
X179509734Y-113298715D01*
X179358464Y-113160814D01*
X179184434Y-113053059D01*
X179184429Y-113053057D01*
X179184428Y-113053056D01*
X179184423Y-113053054D01*
X178993560Y-112979113D01*
X178993561Y-112979113D01*
X178993558Y-112979112D01*
X178993557Y-112979112D01*
X178792348Y-112941500D01*
X178587654Y-112941500D01*
X178386445Y-112979112D01*
X178386440Y-112979113D01*
X178195578Y-113053054D01*
X178195567Y-113053059D01*
X178021537Y-113160814D01*
X177870267Y-113298715D01*
X177746914Y-113462063D01*
X177655672Y-113645301D01*
X177599655Y-113842180D01*
X177580769Y-114045995D01*
X177580769Y-114046004D01*
X177599655Y-114249819D01*
X177599656Y-114249821D01*
X177655673Y-114446701D01*
X177746913Y-114629935D01*
X177746914Y-114629936D01*
X177870267Y-114793284D01*
X177951991Y-114867785D01*
X177988857Y-114928459D01*
X177987068Y-114999433D01*
X177947192Y-115058173D01*
X177881888Y-115086030D01*
X177867105Y-115086900D01*
X177746693Y-115086900D01*
X177678572Y-115066898D01*
X177657597Y-115049995D01*
X177205210Y-114597607D01*
X177171185Y-114535295D01*
X177176250Y-114464479D01*
X177181513Y-114452354D01*
X177184329Y-114446701D01*
X177240346Y-114249821D01*
X177250502Y-114140224D01*
X177259233Y-114046004D01*
X177259233Y-114045995D01*
X177240346Y-113842180D01*
X177240346Y-113842179D01*
X177184329Y-113645299D01*
X177093089Y-113462065D01*
X177037993Y-113389106D01*
X176969734Y-113298715D01*
X176818464Y-113160814D01*
X176644434Y-113053059D01*
X176644429Y-113053057D01*
X176644428Y-113053056D01*
X176644423Y-113053054D01*
X176453560Y-112979113D01*
X176453561Y-112979113D01*
X176453558Y-112979112D01*
X176453557Y-112979112D01*
X176252348Y-112941500D01*
X176047654Y-112941500D01*
X175846445Y-112979112D01*
X175846440Y-112979113D01*
X175655578Y-113053054D01*
X175655567Y-113053059D01*
X175481537Y-113160814D01*
X175330267Y-113298715D01*
X175206914Y-113462063D01*
X175115672Y-113645301D01*
X175080418Y-113769207D01*
X175042537Y-113829254D01*
X174978207Y-113859288D01*
X174907850Y-113849775D01*
X174870133Y-113823821D01*
X174807366Y-113761054D01*
X174807356Y-113761046D01*
X174726163Y-113714169D01*
X174726161Y-113714168D01*
X174726159Y-113714167D01*
X174726156Y-113714166D01*
X174718528Y-113711007D01*
X174719020Y-113709816D01*
X174665532Y-113677206D01*
X174645984Y-113648624D01*
X174644329Y-113645302D01*
X174644329Y-113645299D01*
X174553089Y-113462065D01*
X174497993Y-113389106D01*
X174429734Y-113298715D01*
X174278464Y-113160814D01*
X174104434Y-113053059D01*
X174104429Y-113053057D01*
X174104428Y-113053056D01*
X174104423Y-113053054D01*
X173913560Y-112979113D01*
X173913561Y-112979113D01*
X173913558Y-112979112D01*
X173913557Y-112979112D01*
X173712348Y-112941500D01*
X173507654Y-112941500D01*
X173306445Y-112979112D01*
X173306440Y-112979113D01*
X173115578Y-113053054D01*
X173115567Y-113053059D01*
X172941537Y-113160814D01*
X172790267Y-113298715D01*
X172666914Y-113462063D01*
X172575672Y-113645301D01*
X172519655Y-113842180D01*
X172500769Y-114045995D01*
X172500769Y-114046004D01*
X172519655Y-114249819D01*
X172575672Y-114446700D01*
X172575675Y-114446706D01*
X172657851Y-114611737D01*
X172670311Y-114681632D01*
X172643004Y-114747167D01*
X172584601Y-114787535D01*
X172545061Y-114793900D01*
X172373693Y-114793900D01*
X172305572Y-114773898D01*
X172284598Y-114756995D01*
X172125211Y-114597608D01*
X172091185Y-114535296D01*
X172096250Y-114464481D01*
X172101515Y-114452351D01*
X172104329Y-114446701D01*
X172160346Y-114249821D01*
X172170502Y-114140224D01*
X172179233Y-114046004D01*
X172179233Y-114045995D01*
X172160346Y-113842180D01*
X172160346Y-113842179D01*
X172104329Y-113645299D01*
X172013089Y-113462065D01*
X171957993Y-113389106D01*
X171889734Y-113298715D01*
X171738464Y-113160814D01*
X171564434Y-113053059D01*
X171564429Y-113053057D01*
X171564428Y-113053056D01*
X171564423Y-113053054D01*
X171373560Y-112979113D01*
X171373561Y-112979113D01*
X171373558Y-112979112D01*
X171373557Y-112979112D01*
X171172348Y-112941500D01*
X170967654Y-112941500D01*
X170766445Y-112979112D01*
X170766440Y-112979113D01*
X170575578Y-113053054D01*
X170575567Y-113053059D01*
X170401537Y-113160814D01*
X170250267Y-113298715D01*
X170126914Y-113462063D01*
X170035672Y-113645301D01*
X169979655Y-113842180D01*
X169960769Y-114045995D01*
X169960769Y-114046004D01*
X169979655Y-114249819D01*
X169979656Y-114249821D01*
X170035673Y-114446701D01*
X170126913Y-114629935D01*
X170126914Y-114629936D01*
X170250267Y-114793284D01*
X170401537Y-114931185D01*
X170575567Y-115038940D01*
X170575569Y-115038940D01*
X170575574Y-115038944D01*
X170766445Y-115112888D01*
X170967654Y-115150500D01*
X170967656Y-115150500D01*
X171172346Y-115150500D01*
X171172348Y-115150500D01*
X171373557Y-115112888D01*
X171484204Y-115070021D01*
X171554951Y-115064065D01*
X171617687Y-115097301D01*
X171618816Y-115098417D01*
X171889050Y-115368651D01*
X171955350Y-115434951D01*
X171955351Y-115434952D01*
X171955353Y-115434953D01*
X171967869Y-115442179D01*
X172036551Y-115481833D01*
X172036556Y-115481834D01*
X172036558Y-115481835D01*
X172045822Y-115484317D01*
X172055690Y-115486961D01*
X172127120Y-115506101D01*
X172228600Y-115506101D01*
X172228616Y-115506100D01*
X174990122Y-115506100D01*
X175058243Y-115526102D01*
X175079217Y-115543004D01*
X175360213Y-115824000D01*
X175474818Y-115938604D01*
X175508843Y-116000917D01*
X175503779Y-116071732D01*
X175461232Y-116128568D01*
X175394712Y-116153379D01*
X175385723Y-116153700D01*
X171193492Y-116153700D01*
X171125371Y-116133698D01*
X171104397Y-116116795D01*
X169585211Y-114597608D01*
X169551185Y-114535296D01*
X169556250Y-114464480D01*
X169561515Y-114452351D01*
X169564329Y-114446701D01*
X169620346Y-114249821D01*
X169630502Y-114140224D01*
X169639233Y-114046004D01*
X169639233Y-114045995D01*
X169620346Y-113842180D01*
X169620346Y-113842179D01*
X169564329Y-113645299D01*
X169473089Y-113462065D01*
X169417993Y-113389106D01*
X169349734Y-113298715D01*
X169198464Y-113160814D01*
X169024434Y-113053059D01*
X169024429Y-113053057D01*
X169024428Y-113053056D01*
X169024423Y-113053054D01*
X168833560Y-112979113D01*
X168833561Y-112979113D01*
X168833558Y-112979112D01*
X168833557Y-112979112D01*
X168632348Y-112941500D01*
X168427654Y-112941500D01*
X168226445Y-112979112D01*
X168226440Y-112979113D01*
X168035578Y-113053054D01*
X168035567Y-113053059D01*
X167861537Y-113160814D01*
X167710267Y-113298715D01*
X167586914Y-113462063D01*
X167495672Y-113645301D01*
X167439655Y-113842180D01*
X167420769Y-114045995D01*
X167420769Y-114046004D01*
X167439655Y-114249819D01*
X167439656Y-114249821D01*
X167495673Y-114446701D01*
X167586913Y-114629935D01*
X167586914Y-114629936D01*
X167710267Y-114793284D01*
X167861537Y-114931185D01*
X168035567Y-115038940D01*
X168035569Y-115038940D01*
X168035574Y-115038944D01*
X168226445Y-115112888D01*
X168427654Y-115150500D01*
X168427656Y-115150500D01*
X168632346Y-115150500D01*
X168632348Y-115150500D01*
X168833557Y-115112888D01*
X168944209Y-115070020D01*
X169014950Y-115064063D01*
X169077686Y-115097299D01*
X169078817Y-115098417D01*
X170274605Y-116294205D01*
X170308631Y-116356517D01*
X170303566Y-116427332D01*
X170261019Y-116484168D01*
X170194499Y-116508979D01*
X170185510Y-116509300D01*
X169009093Y-116509300D01*
X168940972Y-116489298D01*
X168919998Y-116472395D01*
X167045211Y-114597608D01*
X167011185Y-114535296D01*
X167016250Y-114464481D01*
X167021515Y-114452351D01*
X167024329Y-114446701D01*
X167080346Y-114249821D01*
X167090502Y-114140224D01*
X167099233Y-114046004D01*
X167099233Y-114045995D01*
X167080346Y-113842180D01*
X167080346Y-113842179D01*
X167024329Y-113645299D01*
X166933089Y-113462065D01*
X166877993Y-113389106D01*
X166809734Y-113298715D01*
X166658464Y-113160814D01*
X166484434Y-113053059D01*
X166484429Y-113053057D01*
X166484428Y-113053056D01*
X166484423Y-113053054D01*
X166293560Y-112979113D01*
X166293561Y-112979113D01*
X166293558Y-112979112D01*
X166293557Y-112979112D01*
X166092348Y-112941500D01*
X165887654Y-112941500D01*
X165686445Y-112979112D01*
X165686440Y-112979113D01*
X165495578Y-113053054D01*
X165495567Y-113053059D01*
X165321537Y-113160814D01*
X165170267Y-113298715D01*
X165046914Y-113462063D01*
X164955672Y-113645301D01*
X164899655Y-113842180D01*
X164880769Y-114045995D01*
X164880769Y-114046004D01*
X164899655Y-114249819D01*
X164899656Y-114249821D01*
X164955673Y-114446701D01*
X165046913Y-114629935D01*
X165046914Y-114629936D01*
X165170267Y-114793284D01*
X165321537Y-114931185D01*
X165495567Y-115038940D01*
X165495569Y-115038940D01*
X165495574Y-115038944D01*
X165686445Y-115112888D01*
X165887654Y-115150500D01*
X165887656Y-115150500D01*
X166092346Y-115150500D01*
X166092348Y-115150500D01*
X166293557Y-115112888D01*
X166404204Y-115070021D01*
X166474951Y-115064065D01*
X166537687Y-115097301D01*
X166538817Y-115098418D01*
X166947204Y-115506805D01*
X166981230Y-115569117D01*
X166976165Y-115639932D01*
X166933618Y-115696768D01*
X166867098Y-115721579D01*
X166858109Y-115721900D01*
X165681693Y-115721900D01*
X165613572Y-115701898D01*
X165592598Y-115684995D01*
X164505211Y-114597608D01*
X164471185Y-114535296D01*
X164476250Y-114464481D01*
X164481515Y-114452351D01*
X164484329Y-114446701D01*
X164540346Y-114249821D01*
X164550502Y-114140224D01*
X164559233Y-114046004D01*
X164559233Y-114045995D01*
X164540346Y-113842180D01*
X164540346Y-113842179D01*
X164484329Y-113645299D01*
X164393089Y-113462065D01*
X164337993Y-113389106D01*
X164269734Y-113298715D01*
X164118464Y-113160814D01*
X163944434Y-113053059D01*
X163944429Y-113053057D01*
X163944428Y-113053056D01*
X163944423Y-113053054D01*
X163753560Y-112979113D01*
X163753561Y-112979113D01*
X163753558Y-112979112D01*
X163753557Y-112979112D01*
X163552348Y-112941500D01*
X163347654Y-112941500D01*
X163146445Y-112979112D01*
X163146440Y-112979113D01*
X162955578Y-113053054D01*
X162955567Y-113053059D01*
X162781537Y-113160814D01*
X162630267Y-113298715D01*
X162506914Y-113462063D01*
X162415672Y-113645301D01*
X162359655Y-113842180D01*
X162340769Y-114045995D01*
X162019233Y-114045995D01*
X162000346Y-113842180D01*
X162000346Y-113842179D01*
X161944329Y-113645299D01*
X161853089Y-113462065D01*
X161797993Y-113389106D01*
X161729734Y-113298715D01*
X161578464Y-113160814D01*
X161404434Y-113053059D01*
X161404429Y-113053057D01*
X161404428Y-113053056D01*
X161404423Y-113053054D01*
X161213560Y-112979113D01*
X161213561Y-112979113D01*
X161213558Y-112979112D01*
X161213557Y-112979112D01*
X161012348Y-112941500D01*
X160807654Y-112941500D01*
X160606445Y-112979112D01*
X160606440Y-112979113D01*
X160415578Y-113053054D01*
X160415567Y-113053059D01*
X160241537Y-113160814D01*
X160090267Y-113298715D01*
X159966914Y-113462063D01*
X159875672Y-113645301D01*
X159819655Y-113842180D01*
X159800769Y-114045995D01*
X159479233Y-114045995D01*
X159460346Y-113842180D01*
X159460346Y-113842179D01*
X159404329Y-113645299D01*
X159313089Y-113462065D01*
X159257993Y-113389106D01*
X159189734Y-113298715D01*
X159038464Y-113160814D01*
X158864434Y-113053059D01*
X158864429Y-113053057D01*
X158864428Y-113053056D01*
X158864423Y-113053054D01*
X158673560Y-112979113D01*
X158673561Y-112979113D01*
X158673558Y-112979112D01*
X158673557Y-112979112D01*
X158472348Y-112941500D01*
X158267654Y-112941500D01*
X158066445Y-112979112D01*
X158066440Y-112979113D01*
X157875578Y-113053054D01*
X157875567Y-113053059D01*
X157701537Y-113160814D01*
X157550267Y-113298715D01*
X157426914Y-113462063D01*
X157335672Y-113645301D01*
X157279655Y-113842180D01*
X157260769Y-114045995D01*
X154394500Y-114045995D01*
X154394500Y-113170934D01*
X154394499Y-113170930D01*
X154394499Y-113170926D01*
X154379735Y-113096699D01*
X154323484Y-113012515D01*
X154239303Y-112956266D01*
X154165068Y-112941500D01*
X152414937Y-112941500D01*
X152414927Y-112941501D01*
X152340700Y-112956265D01*
X152256516Y-113012516D01*
X152200267Y-113096697D01*
X152185501Y-113170930D01*
X98645726Y-113170930D01*
X98655459Y-113160191D01*
X98664191Y-113151459D01*
X98931081Y-112909563D01*
X98940619Y-112901736D01*
X99229923Y-112687174D01*
X99240184Y-112680317D01*
X99549130Y-112495142D01*
X99560031Y-112489316D01*
X99885635Y-112335316D01*
X99897047Y-112330591D01*
X100236168Y-112209251D01*
X100247985Y-112205665D01*
X100597388Y-112118145D01*
X100609491Y-112115738D01*
X100965780Y-112062887D01*
X100978075Y-112061676D01*
X101340906Y-112043852D01*
X101347088Y-112043700D01*
X101384519Y-112043700D01*
X213303481Y-112043700D01*
X213340912Y-112043700D01*
X213347094Y-112043852D01*
G37*
%TD.AperFunction*%
%TD*%
%TA.AperFunction,Conductor*%
%TO.N,/BAT+*%
G36*
X129563364Y-127426085D02*
G01*
X129601758Y-127465132D01*
X129877600Y-127910723D01*
X129896151Y-127973991D01*
X129945516Y-131034639D01*
X129926915Y-131101987D01*
X129906517Y-131126936D01*
X129550409Y-131462097D01*
X129488100Y-131493709D01*
X129465424Y-131495800D01*
X126042578Y-131495800D01*
X125975539Y-131476115D01*
X125946797Y-131450553D01*
X125604823Y-131034639D01*
X124104400Y-129209800D01*
X124104399Y-129209800D01*
X121747668Y-129209800D01*
X121680629Y-129190115D01*
X121654348Y-129167454D01*
X121544280Y-129041661D01*
X121514949Y-128978246D01*
X121513600Y-128960007D01*
X121513600Y-128394500D01*
X121533285Y-128327461D01*
X121586089Y-128281706D01*
X121637600Y-128270500D01*
X121916078Y-128270500D01*
X121916081Y-128270500D01*
X121961365Y-128258366D01*
X122006647Y-128246234D01*
X122006647Y-128246233D01*
X122006650Y-128246233D01*
X122087851Y-128199351D01*
X122107883Y-128179319D01*
X122169206Y-128145834D01*
X122195564Y-128143000D01*
X123113800Y-128143000D01*
X124200350Y-127426865D01*
X124267158Y-127406408D01*
X124268589Y-127406400D01*
X129496325Y-127406400D01*
X129563364Y-127426085D01*
G37*
%TD.AperFunction*%
%TD*%
M02*
