%TF.GenerationSoftware,KiCad,Pcbnew,8.0.8*%
%TF.CreationDate,2025-03-20T23:22:12-04:00*%
%TF.ProjectId,flashlight-stm32-dev,666c6173-686c-4696-9768-742d73746d33,rev?*%
%TF.SameCoordinates,Original*%
%TF.FileFunction,Soldermask,Top*%
%TF.FilePolarity,Negative*%
%FSLAX46Y46*%
G04 Gerber Fmt 4.6, Leading zero omitted, Abs format (unit mm)*
G04 Created by KiCad (PCBNEW 8.0.8) date 2025-03-20 23:22:12*
%MOMM*%
%LPD*%
G01*
G04 APERTURE LIST*
G04 Aperture macros list*
%AMRoundRect*
0 Rectangle with rounded corners*
0 $1 Rounding radius*
0 $2 $3 $4 $5 $6 $7 $8 $9 X,Y pos of 4 corners*
0 Add a 4 corners polygon primitive as box body*
4,1,4,$2,$3,$4,$5,$6,$7,$8,$9,$2,$3,0*
0 Add four circle primitives for the rounded corners*
1,1,$1+$1,$2,$3*
1,1,$1+$1,$4,$5*
1,1,$1+$1,$6,$7*
1,1,$1+$1,$8,$9*
0 Add four rect primitives between the rounded corners*
20,1,$1+$1,$2,$3,$4,$5,0*
20,1,$1+$1,$4,$5,$6,$7,0*
20,1,$1+$1,$6,$7,$8,$9,0*
20,1,$1+$1,$8,$9,$2,$3,0*%
%AMFreePoly0*
4,1,19,0.500000,-0.750000,0.000000,-0.750000,0.000000,-0.744911,-0.071157,-0.744911,-0.207708,-0.704816,-0.327430,-0.627875,-0.420627,-0.520320,-0.479746,-0.390866,-0.500000,-0.250000,-0.500000,0.250000,-0.479746,0.390866,-0.420627,0.520320,-0.327430,0.627875,-0.207708,0.704816,-0.071157,0.744911,0.000000,0.744911,0.000000,0.750000,0.500000,0.750000,0.500000,-0.750000,0.500000,-0.750000,
$1*%
%AMFreePoly1*
4,1,19,0.000000,0.744911,0.071157,0.744911,0.207708,0.704816,0.327430,0.627875,0.420627,0.520320,0.479746,0.390866,0.500000,0.250000,0.500000,-0.250000,0.479746,-0.390866,0.420627,-0.520320,0.327430,-0.627875,0.207708,-0.704816,0.071157,-0.744911,0.000000,-0.744911,0.000000,-0.750000,-0.500000,-0.750000,-0.500000,0.750000,0.000000,0.750000,0.000000,0.744911,0.000000,0.744911,
$1*%
G04 Aperture macros list end*
%ADD10R,0.760000X1.270000*%
%ADD11C,2.600000*%
%ADD12RoundRect,0.200000X0.750000X0.200000X-0.750000X0.200000X-0.750000X-0.200000X0.750000X-0.200000X0*%
%ADD13RoundRect,0.140000X-0.170000X0.140000X-0.170000X-0.140000X0.170000X-0.140000X0.170000X0.140000X0*%
%ADD14RoundRect,0.140000X-0.140000X-0.170000X0.140000X-0.170000X0.140000X0.170000X-0.140000X0.170000X0*%
%ADD15RoundRect,0.140000X0.170000X-0.140000X0.170000X0.140000X-0.170000X0.140000X-0.170000X-0.140000X0*%
%ADD16C,5.400000*%
%ADD17RoundRect,0.135000X0.135000X0.185000X-0.135000X0.185000X-0.135000X-0.185000X0.135000X-0.185000X0*%
%ADD18R,0.600000X0.700000*%
%ADD19RoundRect,0.135000X-0.185000X0.135000X-0.185000X-0.135000X0.185000X-0.135000X0.185000X0.135000X0*%
%ADD20RoundRect,0.237500X0.237500X-0.250000X0.237500X0.250000X-0.237500X0.250000X-0.237500X-0.250000X0*%
%ADD21RoundRect,0.225000X0.250000X-0.225000X0.250000X0.225000X-0.250000X0.225000X-0.250000X-0.225000X0*%
%ADD22RoundRect,0.225000X-0.250000X0.225000X-0.250000X-0.225000X0.250000X-0.225000X0.250000X0.225000X0*%
%ADD23C,2.000000*%
%ADD24RoundRect,0.135000X-0.135000X-0.185000X0.135000X-0.185000X0.135000X0.185000X-0.135000X0.185000X0*%
%ADD25RoundRect,0.237500X-0.250000X-0.237500X0.250000X-0.237500X0.250000X0.237500X-0.250000X0.237500X0*%
%ADD26RoundRect,0.237500X0.237500X-0.300000X0.237500X0.300000X-0.237500X0.300000X-0.237500X-0.300000X0*%
%ADD27RoundRect,0.140000X0.140000X0.170000X-0.140000X0.170000X-0.140000X-0.170000X0.140000X-0.170000X0*%
%ADD28RoundRect,0.135000X0.185000X-0.135000X0.185000X0.135000X-0.185000X0.135000X-0.185000X-0.135000X0*%
%ADD29RoundRect,0.148500X-0.483500X-0.148500X0.483500X-0.148500X0.483500X0.148500X-0.483500X0.148500X0*%
%ADD30R,1.700000X1.700000*%
%ADD31O,1.700000X1.700000*%
%ADD32RoundRect,0.218750X0.218750X0.256250X-0.218750X0.256250X-0.218750X-0.256250X0.218750X-0.256250X0*%
%ADD33RoundRect,0.225000X-0.225000X-0.250000X0.225000X-0.250000X0.225000X0.250000X-0.225000X0.250000X0*%
%ADD34RoundRect,0.237500X-0.237500X0.250000X-0.237500X-0.250000X0.237500X-0.250000X0.237500X0.250000X0*%
%ADD35FreePoly0,0.000000*%
%ADD36FreePoly1,0.000000*%
%ADD37R,2.400000X2.000000*%
%ADD38R,0.750000X1.000000*%
%ADD39R,1.100000X0.600000*%
%ADD40RoundRect,0.075000X-0.662500X-0.075000X0.662500X-0.075000X0.662500X0.075000X-0.662500X0.075000X0*%
%ADD41RoundRect,0.075000X-0.075000X-0.662500X0.075000X-0.662500X0.075000X0.662500X-0.075000X0.662500X0*%
%ADD42RoundRect,0.102000X0.300000X0.150000X-0.300000X0.150000X-0.300000X-0.150000X0.300000X-0.150000X0*%
%ADD43RoundRect,0.102000X0.150000X0.300000X-0.150000X0.300000X-0.150000X-0.300000X0.150000X-0.300000X0*%
%ADD44R,0.750000X0.200000*%
%ADD45R,1.000000X1.600000*%
%ADD46C,0.675000*%
%ADD47C,0.650000*%
%ADD48RoundRect,0.102000X-0.350000X0.150000X-0.350000X-0.150000X0.350000X-0.150000X0.350000X0.150000X0*%
%ADD49O,1.804000X1.004000*%
%ADD50RoundRect,0.225000X0.225000X0.250000X-0.225000X0.250000X-0.225000X-0.250000X0.225000X-0.250000X0*%
%ADD51C,3.000000*%
G04 APERTURE END LIST*
D10*
%TO.C,SW2*%
X179171600Y-96774000D03*
X180441600Y-96774000D03*
X179171600Y-89154000D03*
X180441600Y-89154000D03*
%TD*%
D11*
%TO.C,J6*%
X202793600Y-100482400D03*
%TD*%
%TO.C,J5*%
X202793600Y-85394800D03*
%TD*%
D12*
%TO.C,Q1*%
X128143000Y-92984398D03*
X128143000Y-91084400D03*
X125143000Y-92034400D03*
%TD*%
D13*
%TO.C,CU14*%
X112242600Y-92255400D03*
X112242600Y-93215400D03*
%TD*%
D14*
%TO.C,CU27*%
X162308600Y-88646000D03*
X163268600Y-88646000D03*
%TD*%
D15*
%TO.C,CY21*%
X139192000Y-92580400D03*
X139192000Y-91620400D03*
%TD*%
D16*
%TO.C,H1*%
X92793600Y-80264000D03*
%TD*%
D17*
%TO.C,RQ12*%
X130988400Y-92974201D03*
X129968400Y-92974199D03*
%TD*%
D13*
%TO.C,CSW11*%
X168046400Y-92382400D03*
X168046400Y-93342400D03*
%TD*%
D18*
%TO.C,D1*%
X98715600Y-79687800D03*
X100115600Y-79687800D03*
X98715600Y-80687800D03*
X100115600Y-80687800D03*
%TD*%
D17*
%TO.C,RD21*%
X94591600Y-86614001D03*
X93571600Y-86613999D03*
%TD*%
D19*
%TO.C,RJ11*%
X98145601Y-96264000D03*
X98145599Y-97284000D03*
%TD*%
D20*
%TO.C,RU36*%
X184251600Y-95297000D03*
X184251600Y-93472000D03*
%TD*%
D21*
%TO.C,CU41*%
X106400600Y-82563001D03*
X106400600Y-81012999D03*
%TD*%
D22*
%TO.C,CU52*%
X113842799Y-101967999D03*
X113842799Y-103518001D03*
%TD*%
D13*
%TO.C,CU26*%
X160426400Y-98503800D03*
X160426400Y-99463800D03*
%TD*%
D19*
%TO.C,RJ12*%
X98145601Y-88644000D03*
X98145599Y-89664000D03*
%TD*%
D16*
%TO.C,H2*%
X202793600Y-80264000D03*
%TD*%
D19*
%TO.C,RU15*%
X111785401Y-88237600D03*
X111785399Y-89257600D03*
%TD*%
D17*
%TO.C,RD51*%
X94566100Y-99060001D03*
X93546100Y-99059999D03*
%TD*%
D23*
%TO.C,TP7*%
X195072000Y-98171000D03*
%TD*%
D24*
%TO.C,RU14*%
X116660200Y-88112599D03*
X117680200Y-88112601D03*
%TD*%
%TO.C,RQ11*%
X129993800Y-91069199D03*
X131013800Y-91069201D03*
%TD*%
D22*
%TO.C,CU16*%
X110921800Y-95592599D03*
X110921800Y-97142601D03*
%TD*%
D23*
%TO.C,TP8*%
X193040000Y-86487000D03*
%TD*%
D13*
%TO.C,CU25*%
X159359600Y-98503800D03*
X159359600Y-99463800D03*
%TD*%
D25*
%TO.C,RU16*%
X104319700Y-87960200D03*
X106144700Y-87960200D03*
%TD*%
D23*
%TO.C,TP5*%
X116332000Y-81178400D03*
%TD*%
D17*
%TO.C,RSW22*%
X181459600Y-86664801D03*
X180439600Y-86664799D03*
%TD*%
D26*
%TO.C,CU210*%
X147574000Y-88492500D03*
X147574000Y-86767500D03*
%TD*%
D23*
%TO.C,TP2*%
X126746000Y-81280000D03*
%TD*%
D16*
%TO.C,H4*%
X202793600Y-105264000D03*
%TD*%
D24*
%TO.C,RQ31*%
X129968400Y-95158600D03*
X130988400Y-95158600D03*
%TD*%
%TO.C,RU31*%
X190828200Y-90169999D03*
X191848200Y-90170001D03*
%TD*%
D25*
%TO.C,RU11*%
X104319700Y-89611200D03*
X106144700Y-89611200D03*
%TD*%
D27*
%TO.C,CU17*%
X110487400Y-94183200D03*
X109527400Y-94183200D03*
%TD*%
D28*
%TO.C,RD13*%
X123291599Y-96649000D03*
X123291601Y-95629000D03*
%TD*%
D29*
%TO.C,U6*%
X100030000Y-92212400D03*
X100030000Y-92862400D03*
X100030000Y-93512400D03*
X101900000Y-93512400D03*
X101900000Y-92862400D03*
X101900000Y-92212400D03*
%TD*%
D30*
%TO.C,J2*%
X202793600Y-89262000D03*
D31*
X202793600Y-91802000D03*
X202793600Y-94342000D03*
X202793600Y-96882000D03*
%TD*%
D32*
%TO.C,D2*%
X92075102Y-86614001D03*
X90500098Y-86613999D03*
%TD*%
D31*
%TO.C,J3*%
X169139601Y-108433000D03*
X166599601Y-108433000D03*
X164059601Y-108433000D03*
X161519601Y-108433000D03*
X158979601Y-108433000D03*
X156439601Y-108433000D03*
X153899601Y-108433000D03*
X151359601Y-108433000D03*
X148819601Y-108433000D03*
X146279601Y-108433000D03*
X143739601Y-108433000D03*
D30*
X141199601Y-108433000D03*
%TD*%
D23*
%TO.C,TP4*%
X99060000Y-105283000D03*
%TD*%
D15*
%TO.C,CU23*%
X152425400Y-87246400D03*
X152425400Y-86286400D03*
%TD*%
D33*
%TO.C,CU51*%
X109562599Y-105791000D03*
X111112601Y-105791000D03*
%TD*%
D21*
%TO.C,CU22*%
X150952200Y-87414401D03*
X150952200Y-85864399D03*
%TD*%
D12*
%TO.C,U5*%
X111532799Y-103885299D03*
X111532800Y-101985300D03*
X108532800Y-102935300D03*
%TD*%
D24*
%TO.C,RQ21*%
X129993800Y-87030600D03*
X131013800Y-87030600D03*
%TD*%
D22*
%TO.C,CU28*%
X150977600Y-97827799D03*
X150977600Y-99377801D03*
%TD*%
D13*
%TO.C,CY22*%
X139192000Y-94668400D03*
X139192000Y-95628400D03*
%TD*%
D34*
%TO.C,RU12*%
X102616000Y-87860500D03*
X102616000Y-89685500D03*
%TD*%
D24*
%TO.C,RSW32*%
X178153600Y-86664800D03*
X179173600Y-86664800D03*
%TD*%
D28*
%TO.C,RD12*%
X123291599Y-88648000D03*
X123291601Y-87628000D03*
%TD*%
D27*
%TO.C,CU32*%
X187779600Y-97282000D03*
X186819600Y-97282000D03*
%TD*%
D32*
%TO.C,D3*%
X92049602Y-101092001D03*
X90474598Y-101091999D03*
%TD*%
D27*
%TO.C,CY12*%
X143583600Y-92837000D03*
X142623600Y-92837000D03*
%TD*%
D28*
%TO.C,RD11*%
X123291599Y-92712000D03*
X123291601Y-91692000D03*
%TD*%
D13*
%TO.C,CU29*%
X149529800Y-98122800D03*
X149529800Y-99082800D03*
%TD*%
D24*
%TO.C,RSW31*%
X178153600Y-99136200D03*
X179173600Y-99136200D03*
%TD*%
%TO.C,RU13*%
X116660200Y-89153999D03*
X117680200Y-89154001D03*
%TD*%
%TO.C,RU32*%
X190825600Y-92201999D03*
X191845600Y-92202001D03*
%TD*%
D34*
%TO.C,RY21*%
X133350001Y-92529900D03*
X133350001Y-94354900D03*
%TD*%
D35*
%TO.C,JP1*%
X147660600Y-101346000D03*
D36*
X148960600Y-101346000D03*
%TD*%
D34*
%TO.C,RY11*%
X141071600Y-90019500D03*
X141071600Y-91844500D03*
%TD*%
%TO.C,RU33*%
X187299600Y-87098500D03*
X187299600Y-88923500D03*
%TD*%
D20*
%TO.C,RU35*%
X184251600Y-91158700D03*
X184251600Y-89333700D03*
%TD*%
D37*
%TO.C,YU22*%
X136398001Y-95474400D03*
X136397999Y-91774400D03*
%TD*%
D12*
%TO.C,U4*%
X111558201Y-83565299D03*
X111558200Y-81665300D03*
X108558200Y-82615300D03*
%TD*%
D17*
%TO.C,RD41*%
X94591600Y-84582001D03*
X93571600Y-84581999D03*
%TD*%
D38*
%TO.C,SW1*%
X174848997Y-90387802D03*
X174848997Y-96387800D03*
X171099001Y-90387800D03*
X171099001Y-96387798D03*
%TD*%
D22*
%TO.C,CU12*%
X106502200Y-95694199D03*
X106502200Y-97244201D03*
%TD*%
D23*
%TO.C,TP6*%
X103632000Y-102489000D03*
%TD*%
D13*
%TO.C,CU15*%
X114020600Y-92255400D03*
X114020600Y-93215400D03*
%TD*%
D17*
%TO.C,RQ32*%
X130988400Y-97038201D03*
X129968400Y-97038199D03*
%TD*%
D12*
%TO.C,Q3*%
X128143000Y-97048398D03*
X128143000Y-95148400D03*
X125143000Y-96098400D03*
%TD*%
D39*
%TO.C,YU21*%
X143103600Y-91632000D03*
X143103600Y-90232000D03*
%TD*%
D40*
%TO.C,U2*%
X152277100Y-90014000D03*
X152277100Y-90514000D03*
X152277100Y-91014000D03*
X152277100Y-91514000D03*
X152277100Y-92014000D03*
X152277100Y-92514000D03*
X152277100Y-93014000D03*
X152277100Y-93514000D03*
X152277100Y-94014000D03*
X152277100Y-94514000D03*
X152277100Y-95014000D03*
X152277100Y-95514000D03*
D41*
X153689600Y-96926500D03*
X154189600Y-96926500D03*
X154689600Y-96926500D03*
X155189600Y-96926500D03*
X155689600Y-96926500D03*
X156189600Y-96926500D03*
X156689600Y-96926500D03*
X157189600Y-96926500D03*
X157689600Y-96926500D03*
X158189600Y-96926500D03*
X158689600Y-96926500D03*
X159189600Y-96926500D03*
D40*
X160602100Y-95514000D03*
X160602100Y-95014000D03*
X160602100Y-94514000D03*
X160602100Y-94014000D03*
X160602100Y-93514000D03*
X160602100Y-93014000D03*
X160602100Y-92514000D03*
X160602100Y-92014000D03*
X160602100Y-91514000D03*
X160602100Y-91014000D03*
X160602100Y-90514000D03*
X160602100Y-90014000D03*
D41*
X159189600Y-88601500D03*
X158689600Y-88601500D03*
X158189600Y-88601500D03*
X157689600Y-88601500D03*
X157189600Y-88601500D03*
X156689600Y-88601500D03*
X156189600Y-88601500D03*
X155689600Y-88601500D03*
X155189600Y-88601500D03*
X154689600Y-88601500D03*
X154189600Y-88601500D03*
X153689600Y-88601500D03*
%TD*%
D42*
%TO.C,U3*%
X188505802Y-93770196D03*
X188505802Y-93270198D03*
X188505801Y-92770198D03*
X188505802Y-92270196D03*
X188505800Y-91770198D03*
D43*
X187805801Y-91570197D03*
X187305801Y-91570198D03*
X186805799Y-91570197D03*
D42*
X186105800Y-91770200D03*
X186105800Y-92270198D03*
X186105801Y-92770198D03*
X186105800Y-93270200D03*
X186105802Y-93770198D03*
D43*
X186805801Y-93970199D03*
X187305801Y-93970198D03*
X187805803Y-93970199D03*
%TD*%
D14*
%TO.C,CU24*%
X162308600Y-89814400D03*
X163268600Y-89814400D03*
%TD*%
D17*
%TO.C,RSW21*%
X181535800Y-99136201D03*
X180515800Y-99136199D03*
%TD*%
D23*
%TO.C,TP3*%
X160655000Y-84328000D03*
%TD*%
D44*
%TO.C,U1*%
X110548599Y-92077503D03*
X110548600Y-91677500D03*
X110548601Y-91277503D03*
X110548600Y-90877500D03*
X110548600Y-90477498D03*
X108348601Y-90477497D03*
X108348600Y-90877500D03*
X108348599Y-91277497D03*
X108348600Y-91677500D03*
X108348600Y-92077502D03*
D45*
X109448600Y-91277500D03*
%TD*%
D16*
%TO.C,H3*%
X92793600Y-105264000D03*
%TD*%
D23*
%TO.C,TP1*%
X124333000Y-84328000D03*
%TD*%
D20*
%TO.C,RU21*%
X156692600Y-84351500D03*
X156692600Y-82526500D03*
%TD*%
D46*
%TO.C,J1*%
X96194102Y-89284250D03*
D47*
X96194102Y-96484250D03*
D48*
X96854102Y-90134247D03*
X96854099Y-90634251D03*
X96854103Y-91134249D03*
X96854102Y-91634249D03*
X96854107Y-92134251D03*
X96854101Y-92634250D03*
X96854102Y-93134250D03*
X96854102Y-93634250D03*
X96854104Y-94134251D03*
X96854101Y-94634250D03*
X96854102Y-95134254D03*
X96854102Y-95634252D03*
X95154102Y-95384246D03*
X95154102Y-94884248D03*
X95154102Y-94384250D03*
X95154101Y-93884251D03*
X95154101Y-93384253D03*
X95154101Y-92884248D03*
X95154104Y-92384251D03*
X95154101Y-91884252D03*
X95154102Y-91384249D03*
X95154104Y-90884246D03*
X95154104Y-90384249D03*
X95154102Y-89884249D03*
D49*
X94944108Y-88754251D03*
X94944102Y-97014250D03*
X88994102Y-97374250D03*
X88994102Y-88394250D03*
%TD*%
D31*
%TO.C,J4*%
X169139601Y-77470000D03*
X166599601Y-77470000D03*
X164059601Y-77470000D03*
X161519601Y-77470000D03*
X158979601Y-77470000D03*
X156439601Y-77470000D03*
X153899601Y-77470000D03*
X151359601Y-77470000D03*
X148819601Y-77470000D03*
X146279601Y-77470000D03*
X143739601Y-77470000D03*
D30*
X141199601Y-77470000D03*
%TD*%
D17*
%TO.C,RQ22*%
X131013800Y-88910201D03*
X129993800Y-88910199D03*
%TD*%
D27*
%TO.C,CY11*%
X143583600Y-89027000D03*
X142623600Y-89027000D03*
%TD*%
D22*
%TO.C,CU42*%
X113868200Y-81933298D03*
X113868200Y-83483300D03*
%TD*%
D27*
%TO.C,CU33*%
X191843600Y-94767400D03*
X190883600Y-94767400D03*
%TD*%
D14*
%TO.C,CU13*%
X108511400Y-93141800D03*
X109471400Y-93141800D03*
%TD*%
D32*
%TO.C,D5*%
X92049600Y-99060000D03*
X90474596Y-99059998D03*
%TD*%
%TO.C,D4*%
X92075102Y-84582001D03*
X90500098Y-84581999D03*
%TD*%
D50*
%TO.C,CU31*%
X188201601Y-95961200D03*
X186651599Y-95961200D03*
%TD*%
D22*
%TO.C,CU11*%
X108077000Y-95694199D03*
X108077000Y-97244201D03*
%TD*%
D17*
%TO.C,RD31*%
X94566099Y-100838001D03*
X93546099Y-100837999D03*
%TD*%
D12*
%TO.C,Q2*%
X128142999Y-88920399D03*
X128143000Y-87020400D03*
X125143000Y-87970400D03*
%TD*%
D51*
%TO.C,BT1*%
X118589600Y-92764000D03*
X194589601Y-92763998D03*
%TD*%
M02*
