%TF.GenerationSoftware,KiCad,Pcbnew,8.0.8*%
%TF.CreationDate,2025-02-17T13:53:59-05:00*%
%TF.ProjectId,flashlight-stm32-dev,666c6173-686c-4696-9768-742d73746d33,rev?*%
%TF.SameCoordinates,Original*%
%TF.FileFunction,Legend,Top*%
%TF.FilePolarity,Positive*%
%FSLAX46Y46*%
G04 Gerber Fmt 4.6, Leading zero omitted, Abs format (unit mm)*
G04 Created by KiCad (PCBNEW 8.0.8) date 2025-02-17 13:53:59*
%MOMM*%
%LPD*%
G01*
G04 APERTURE LIST*
G04 Aperture macros list*
%AMRoundRect*
0 Rectangle with rounded corners*
0 $1 Rounding radius*
0 $2 $3 $4 $5 $6 $7 $8 $9 X,Y pos of 4 corners*
0 Add a 4 corners polygon primitive as box body*
4,1,4,$2,$3,$4,$5,$6,$7,$8,$9,$2,$3,0*
0 Add four circle primitives for the rounded corners*
1,1,$1+$1,$2,$3*
1,1,$1+$1,$4,$5*
1,1,$1+$1,$6,$7*
1,1,$1+$1,$8,$9*
0 Add four rect primitives between the rounded corners*
20,1,$1+$1,$2,$3,$4,$5,0*
20,1,$1+$1,$4,$5,$6,$7,0*
20,1,$1+$1,$6,$7,$8,$9,0*
20,1,$1+$1,$8,$9,$2,$3,0*%
%AMFreePoly0*
4,1,19,0.500000,-0.750000,0.000000,-0.750000,0.000000,-0.744911,-0.071157,-0.744911,-0.207708,-0.704816,-0.327430,-0.627875,-0.420627,-0.520320,-0.479746,-0.390866,-0.500000,-0.250000,-0.500000,0.250000,-0.479746,0.390866,-0.420627,0.520320,-0.327430,0.627875,-0.207708,0.704816,-0.071157,0.744911,0.000000,0.744911,0.000000,0.750000,0.500000,0.750000,0.500000,-0.750000,0.500000,-0.750000,
$1*%
%AMFreePoly1*
4,1,19,0.000000,0.744911,0.071157,0.744911,0.207708,0.704816,0.327430,0.627875,0.420627,0.520320,0.479746,0.390866,0.500000,0.250000,0.500000,-0.250000,0.479746,-0.390866,0.420627,-0.520320,0.327430,-0.627875,0.207708,-0.704816,0.071157,-0.744911,0.000000,-0.744911,0.000000,-0.750000,-0.500000,-0.750000,-0.500000,0.750000,0.000000,0.750000,0.000000,0.744911,0.000000,0.744911,
$1*%
G04 Aperture macros list end*
%ADD10C,0.150000*%
%ADD11C,0.254000*%
%ADD12C,0.120000*%
%ADD13C,0.152400*%
%ADD14C,0.200000*%
%ADD15C,0.100000*%
%ADD16C,0.127000*%
%ADD17C,0.250000*%
%ADD18C,0.010000*%
%ADD19RoundRect,0.200000X0.750000X0.200000X-0.750000X0.200000X-0.750000X-0.200000X0.750000X-0.200000X0*%
%ADD20RoundRect,0.140000X-0.170000X0.140000X-0.170000X-0.140000X0.170000X-0.140000X0.170000X0.140000X0*%
%ADD21RoundRect,0.140000X-0.140000X-0.170000X0.140000X-0.170000X0.140000X0.170000X-0.140000X0.170000X0*%
%ADD22RoundRect,0.140000X0.170000X-0.140000X0.170000X0.140000X-0.170000X0.140000X-0.170000X-0.140000X0*%
%ADD23C,5.400000*%
%ADD24RoundRect,0.135000X0.135000X0.185000X-0.135000X0.185000X-0.135000X-0.185000X0.135000X-0.185000X0*%
%ADD25RoundRect,0.450000X0.450000X-0.450000X0.450000X0.450000X-0.450000X0.450000X-0.450000X-0.450000X0*%
%ADD26C,1.800000*%
%ADD27RoundRect,0.225000X0.250000X-0.225000X0.250000X0.225000X-0.250000X0.225000X-0.250000X-0.225000X0*%
%ADD28RoundRect,0.225000X-0.250000X0.225000X-0.250000X-0.225000X0.250000X-0.225000X0.250000X0.225000X0*%
%ADD29RoundRect,0.135000X-0.185000X0.135000X-0.185000X-0.135000X0.185000X-0.135000X0.185000X0.135000X0*%
%ADD30RoundRect,0.135000X-0.135000X-0.185000X0.135000X-0.185000X0.135000X0.185000X-0.135000X0.185000X0*%
%ADD31RoundRect,0.237500X-0.250000X-0.237500X0.250000X-0.237500X0.250000X0.237500X-0.250000X0.237500X0*%
%ADD32RoundRect,0.237500X-0.237500X0.250000X-0.237500X-0.250000X0.237500X-0.250000X0.237500X0.250000X0*%
%ADD33RoundRect,0.140000X0.140000X0.170000X-0.140000X0.170000X-0.140000X-0.170000X0.140000X-0.170000X0*%
%ADD34RoundRect,0.135000X0.185000X-0.135000X0.185000X0.135000X-0.185000X0.135000X-0.185000X-0.135000X0*%
%ADD35RoundRect,0.148500X-0.483500X-0.148500X0.483500X-0.148500X0.483500X0.148500X-0.483500X0.148500X0*%
%ADD36R,1.700000X1.700000*%
%ADD37O,1.700000X1.700000*%
%ADD38RoundRect,0.218750X0.218750X0.256250X-0.218750X0.256250X-0.218750X-0.256250X0.218750X-0.256250X0*%
%ADD39R,0.760000X1.270000*%
%ADD40RoundRect,0.225000X-0.225000X-0.250000X0.225000X-0.250000X0.225000X0.250000X-0.225000X0.250000X0*%
%ADD41FreePoly0,0.000000*%
%ADD42FreePoly1,0.000000*%
%ADD43R,2.400000X2.000000*%
%ADD44R,0.750000X1.000000*%
%ADD45R,1.100000X0.600000*%
%ADD46RoundRect,0.075000X-0.662500X-0.075000X0.662500X-0.075000X0.662500X0.075000X-0.662500X0.075000X0*%
%ADD47RoundRect,0.075000X-0.075000X-0.662500X0.075000X-0.662500X0.075000X0.662500X-0.075000X0.662500X0*%
%ADD48R,0.750000X0.200000*%
%ADD49R,1.000000X1.600000*%
%ADD50RoundRect,0.237500X0.237500X-0.250000X0.237500X0.250000X-0.237500X0.250000X-0.237500X-0.250000X0*%
%ADD51C,0.675000*%
%ADD52C,0.650000*%
%ADD53RoundRect,0.102000X-0.350000X0.150000X-0.350000X-0.150000X0.350000X-0.150000X0.350000X0.150000X0*%
%ADD54O,1.804000X1.004000*%
%ADD55C,3.000000*%
G04 APERTURE END LIST*
D10*
X134193161Y-127941257D02*
X134097923Y-127893638D01*
X134097923Y-127893638D02*
X134002685Y-127798400D01*
X134002685Y-127798400D02*
X133859828Y-127655542D01*
X133859828Y-127655542D02*
X133764590Y-127607923D01*
X133764590Y-127607923D02*
X133669352Y-127607923D01*
X133716971Y-127846019D02*
X133621733Y-127798400D01*
X133621733Y-127798400D02*
X133526495Y-127703161D01*
X133526495Y-127703161D02*
X133478876Y-127512685D01*
X133478876Y-127512685D02*
X133478876Y-127179352D01*
X133478876Y-127179352D02*
X133526495Y-126988876D01*
X133526495Y-126988876D02*
X133621733Y-126893638D01*
X133621733Y-126893638D02*
X133716971Y-126846019D01*
X133716971Y-126846019D02*
X133907447Y-126846019D01*
X133907447Y-126846019D02*
X134002685Y-126893638D01*
X134002685Y-126893638D02*
X134097923Y-126988876D01*
X134097923Y-126988876D02*
X134145542Y-127179352D01*
X134145542Y-127179352D02*
X134145542Y-127512685D01*
X134145542Y-127512685D02*
X134097923Y-127703161D01*
X134097923Y-127703161D02*
X134002685Y-127798400D01*
X134002685Y-127798400D02*
X133907447Y-127846019D01*
X133907447Y-127846019D02*
X133716971Y-127846019D01*
X135097923Y-127846019D02*
X134526495Y-127846019D01*
X134812209Y-127846019D02*
X134812209Y-126846019D01*
X134812209Y-126846019D02*
X134716971Y-126988876D01*
X134716971Y-126988876D02*
X134621733Y-127084114D01*
X134621733Y-127084114D02*
X134526495Y-127131733D01*
X114246819Y-117197094D02*
X113246819Y-117197094D01*
X113246819Y-117197094D02*
X113246819Y-116958999D01*
X113246819Y-116958999D02*
X113294438Y-116816142D01*
X113294438Y-116816142D02*
X113389676Y-116720904D01*
X113389676Y-116720904D02*
X113484914Y-116673285D01*
X113484914Y-116673285D02*
X113675390Y-116625666D01*
X113675390Y-116625666D02*
X113818247Y-116625666D01*
X113818247Y-116625666D02*
X114008723Y-116673285D01*
X114008723Y-116673285D02*
X114103961Y-116720904D01*
X114103961Y-116720904D02*
X114199200Y-116816142D01*
X114199200Y-116816142D02*
X114246819Y-116958999D01*
X114246819Y-116958999D02*
X114246819Y-117197094D01*
X114246819Y-115673285D02*
X114246819Y-116244713D01*
X114246819Y-115958999D02*
X113246819Y-115958999D01*
X113246819Y-115958999D02*
X113389676Y-116054237D01*
X113389676Y-116054237D02*
X113484914Y-116149475D01*
X113484914Y-116149475D02*
X113532533Y-116244713D01*
X116310580Y-115847666D02*
X116358200Y-115895285D01*
X116358200Y-115895285D02*
X116405819Y-116038142D01*
X116405819Y-116038142D02*
X116405819Y-116133380D01*
X116405819Y-116133380D02*
X116358200Y-116276237D01*
X116358200Y-116276237D02*
X116262961Y-116371475D01*
X116262961Y-116371475D02*
X116167723Y-116419094D01*
X116167723Y-116419094D02*
X115977247Y-116466713D01*
X115977247Y-116466713D02*
X115834390Y-116466713D01*
X115834390Y-116466713D02*
X115643914Y-116419094D01*
X115643914Y-116419094D02*
X115548676Y-116371475D01*
X115548676Y-116371475D02*
X115453438Y-116276237D01*
X115453438Y-116276237D02*
X115405819Y-116133380D01*
X115405819Y-116133380D02*
X115405819Y-116038142D01*
X115405819Y-116038142D02*
X115453438Y-115895285D01*
X115453438Y-115895285D02*
X115501057Y-115847666D01*
X115405819Y-115419094D02*
X116215342Y-115419094D01*
X116215342Y-115419094D02*
X116310580Y-115371475D01*
X116310580Y-115371475D02*
X116358200Y-115323856D01*
X116358200Y-115323856D02*
X116405819Y-115228618D01*
X116405819Y-115228618D02*
X116405819Y-115038142D01*
X116405819Y-115038142D02*
X116358200Y-114942904D01*
X116358200Y-114942904D02*
X116310580Y-114895285D01*
X116310580Y-114895285D02*
X116215342Y-114847666D01*
X116215342Y-114847666D02*
X115405819Y-114847666D01*
X115739152Y-113942904D02*
X116405819Y-113942904D01*
X115358200Y-114180999D02*
X116072485Y-114419094D01*
X116072485Y-114419094D02*
X116072485Y-113800047D01*
X116405819Y-112895285D02*
X116405819Y-113466713D01*
X116405819Y-113180999D02*
X115405819Y-113180999D01*
X115405819Y-113180999D02*
X115548676Y-113276237D01*
X115548676Y-113276237D02*
X115643914Y-113371475D01*
X115643914Y-113371475D02*
X115691533Y-113466713D01*
X122277333Y-145012580D02*
X122229714Y-145060200D01*
X122229714Y-145060200D02*
X122086857Y-145107819D01*
X122086857Y-145107819D02*
X121991619Y-145107819D01*
X121991619Y-145107819D02*
X121848762Y-145060200D01*
X121848762Y-145060200D02*
X121753524Y-144964961D01*
X121753524Y-144964961D02*
X121705905Y-144869723D01*
X121705905Y-144869723D02*
X121658286Y-144679247D01*
X121658286Y-144679247D02*
X121658286Y-144536390D01*
X121658286Y-144536390D02*
X121705905Y-144345914D01*
X121705905Y-144345914D02*
X121753524Y-144250676D01*
X121753524Y-144250676D02*
X121848762Y-144155438D01*
X121848762Y-144155438D02*
X121991619Y-144107819D01*
X121991619Y-144107819D02*
X122086857Y-144107819D01*
X122086857Y-144107819D02*
X122229714Y-144155438D01*
X122229714Y-144155438D02*
X122277333Y-144203057D01*
X122705905Y-144107819D02*
X122705905Y-144917342D01*
X122705905Y-144917342D02*
X122753524Y-145012580D01*
X122753524Y-145012580D02*
X122801143Y-145060200D01*
X122801143Y-145060200D02*
X122896381Y-145107819D01*
X122896381Y-145107819D02*
X123086857Y-145107819D01*
X123086857Y-145107819D02*
X123182095Y-145060200D01*
X123182095Y-145060200D02*
X123229714Y-145012580D01*
X123229714Y-145012580D02*
X123277333Y-144917342D01*
X123277333Y-144917342D02*
X123277333Y-144107819D01*
X124229714Y-144107819D02*
X123753524Y-144107819D01*
X123753524Y-144107819D02*
X123705905Y-144584009D01*
X123705905Y-144584009D02*
X123753524Y-144536390D01*
X123753524Y-144536390D02*
X123848762Y-144488771D01*
X123848762Y-144488771D02*
X124086857Y-144488771D01*
X124086857Y-144488771D02*
X124182095Y-144536390D01*
X124182095Y-144536390D02*
X124229714Y-144584009D01*
X124229714Y-144584009D02*
X124277333Y-144679247D01*
X124277333Y-144679247D02*
X124277333Y-144917342D01*
X124277333Y-144917342D02*
X124229714Y-145012580D01*
X124229714Y-145012580D02*
X124182095Y-145060200D01*
X124182095Y-145060200D02*
X124086857Y-145107819D01*
X124086857Y-145107819D02*
X123848762Y-145107819D01*
X123848762Y-145107819D02*
X123753524Y-145060200D01*
X123753524Y-145060200D02*
X123705905Y-145012580D01*
X124658286Y-144203057D02*
X124705905Y-144155438D01*
X124705905Y-144155438D02*
X124801143Y-144107819D01*
X124801143Y-144107819D02*
X125039238Y-144107819D01*
X125039238Y-144107819D02*
X125134476Y-144155438D01*
X125134476Y-144155438D02*
X125182095Y-144203057D01*
X125182095Y-144203057D02*
X125229714Y-144298295D01*
X125229714Y-144298295D02*
X125229714Y-144393533D01*
X125229714Y-144393533D02*
X125182095Y-144536390D01*
X125182095Y-144536390D02*
X124610667Y-145107819D01*
X124610667Y-145107819D02*
X125229714Y-145107819D01*
X159110818Y-126261667D02*
X158634627Y-126595000D01*
X159110818Y-126833095D02*
X158110818Y-126833095D01*
X158110818Y-126833095D02*
X158110818Y-126452143D01*
X158110818Y-126452143D02*
X158158437Y-126356905D01*
X158158437Y-126356905D02*
X158206056Y-126309286D01*
X158206056Y-126309286D02*
X158301294Y-126261667D01*
X158301294Y-126261667D02*
X158444151Y-126261667D01*
X158444151Y-126261667D02*
X158539389Y-126309286D01*
X158539389Y-126309286D02*
X158587008Y-126356905D01*
X158587008Y-126356905D02*
X158634627Y-126452143D01*
X158634627Y-126452143D02*
X158634627Y-126833095D01*
X158110818Y-125833095D02*
X158920341Y-125833095D01*
X158920341Y-125833095D02*
X159015579Y-125785476D01*
X159015579Y-125785476D02*
X159063199Y-125737857D01*
X159063199Y-125737857D02*
X159110818Y-125642619D01*
X159110818Y-125642619D02*
X159110818Y-125452143D01*
X159110818Y-125452143D02*
X159063199Y-125356905D01*
X159063199Y-125356905D02*
X159015579Y-125309286D01*
X159015579Y-125309286D02*
X158920341Y-125261667D01*
X158920341Y-125261667D02*
X158110818Y-125261667D01*
X158206056Y-124833095D02*
X158158437Y-124785476D01*
X158158437Y-124785476D02*
X158110818Y-124690238D01*
X158110818Y-124690238D02*
X158110818Y-124452143D01*
X158110818Y-124452143D02*
X158158437Y-124356905D01*
X158158437Y-124356905D02*
X158206056Y-124309286D01*
X158206056Y-124309286D02*
X158301294Y-124261667D01*
X158301294Y-124261667D02*
X158396532Y-124261667D01*
X158396532Y-124261667D02*
X158539389Y-124309286D01*
X158539389Y-124309286D02*
X159110818Y-124880714D01*
X159110818Y-124880714D02*
X159110818Y-124261667D01*
X158206056Y-123880714D02*
X158158437Y-123833095D01*
X158158437Y-123833095D02*
X158110818Y-123737857D01*
X158110818Y-123737857D02*
X158110818Y-123499762D01*
X158110818Y-123499762D02*
X158158437Y-123404524D01*
X158158437Y-123404524D02*
X158206056Y-123356905D01*
X158206056Y-123356905D02*
X158301294Y-123309286D01*
X158301294Y-123309286D02*
X158396532Y-123309286D01*
X158396532Y-123309286D02*
X158539389Y-123356905D01*
X158539389Y-123356905D02*
X159110818Y-123928333D01*
X159110818Y-123928333D02*
X159110818Y-123309286D01*
X110174095Y-131353219D02*
X110174095Y-132162742D01*
X110174095Y-132162742D02*
X110221714Y-132257980D01*
X110221714Y-132257980D02*
X110269333Y-132305600D01*
X110269333Y-132305600D02*
X110364571Y-132353219D01*
X110364571Y-132353219D02*
X110555047Y-132353219D01*
X110555047Y-132353219D02*
X110650285Y-132305600D01*
X110650285Y-132305600D02*
X110697904Y-132257980D01*
X110697904Y-132257980D02*
X110745523Y-132162742D01*
X110745523Y-132162742D02*
X110745523Y-131353219D01*
X111650285Y-131353219D02*
X111459809Y-131353219D01*
X111459809Y-131353219D02*
X111364571Y-131400838D01*
X111364571Y-131400838D02*
X111316952Y-131448457D01*
X111316952Y-131448457D02*
X111221714Y-131591314D01*
X111221714Y-131591314D02*
X111174095Y-131781790D01*
X111174095Y-131781790D02*
X111174095Y-132162742D01*
X111174095Y-132162742D02*
X111221714Y-132257980D01*
X111221714Y-132257980D02*
X111269333Y-132305600D01*
X111269333Y-132305600D02*
X111364571Y-132353219D01*
X111364571Y-132353219D02*
X111555047Y-132353219D01*
X111555047Y-132353219D02*
X111650285Y-132305600D01*
X111650285Y-132305600D02*
X111697904Y-132257980D01*
X111697904Y-132257980D02*
X111745523Y-132162742D01*
X111745523Y-132162742D02*
X111745523Y-131924647D01*
X111745523Y-131924647D02*
X111697904Y-131829409D01*
X111697904Y-131829409D02*
X111650285Y-131781790D01*
X111650285Y-131781790D02*
X111555047Y-131734171D01*
X111555047Y-131734171D02*
X111364571Y-131734171D01*
X111364571Y-131734171D02*
X111269333Y-131781790D01*
X111269333Y-131781790D02*
X111221714Y-131829409D01*
X111221714Y-131829409D02*
X111174095Y-131924647D01*
X212010666Y-122962819D02*
X212010666Y-123677104D01*
X212010666Y-123677104D02*
X211963047Y-123819961D01*
X211963047Y-123819961D02*
X211867809Y-123915200D01*
X211867809Y-123915200D02*
X211724952Y-123962819D01*
X211724952Y-123962819D02*
X211629714Y-123962819D01*
X212439238Y-123058057D02*
X212486857Y-123010438D01*
X212486857Y-123010438D02*
X212582095Y-122962819D01*
X212582095Y-122962819D02*
X212820190Y-122962819D01*
X212820190Y-122962819D02*
X212915428Y-123010438D01*
X212915428Y-123010438D02*
X212963047Y-123058057D01*
X212963047Y-123058057D02*
X213010666Y-123153295D01*
X213010666Y-123153295D02*
X213010666Y-123248533D01*
X213010666Y-123248533D02*
X212963047Y-123391390D01*
X212963047Y-123391390D02*
X212391619Y-123962819D01*
X212391619Y-123962819D02*
X213010666Y-123962819D01*
X150414820Y-145342333D02*
X151129105Y-145342333D01*
X151129105Y-145342333D02*
X151271962Y-145389952D01*
X151271962Y-145389952D02*
X151367201Y-145485190D01*
X151367201Y-145485190D02*
X151414820Y-145628047D01*
X151414820Y-145628047D02*
X151414820Y-145723285D01*
X150414820Y-144961380D02*
X150414820Y-144342333D01*
X150414820Y-144342333D02*
X150795772Y-144675666D01*
X150795772Y-144675666D02*
X150795772Y-144532809D01*
X150795772Y-144532809D02*
X150843391Y-144437571D01*
X150843391Y-144437571D02*
X150891010Y-144389952D01*
X150891010Y-144389952D02*
X150986248Y-144342333D01*
X150986248Y-144342333D02*
X151224343Y-144342333D01*
X151224343Y-144342333D02*
X151319581Y-144389952D01*
X151319581Y-144389952D02*
X151367201Y-144437571D01*
X151367201Y-144437571D02*
X151414820Y-144532809D01*
X151414820Y-144532809D02*
X151414820Y-144818523D01*
X151414820Y-144818523D02*
X151367201Y-144913761D01*
X151367201Y-144913761D02*
X151319581Y-144961380D01*
D11*
X187663666Y-130053842D02*
X187845095Y-130114318D01*
X187845095Y-130114318D02*
X188147476Y-130114318D01*
X188147476Y-130114318D02*
X188268428Y-130053842D01*
X188268428Y-130053842D02*
X188328904Y-129993365D01*
X188328904Y-129993365D02*
X188389381Y-129872413D01*
X188389381Y-129872413D02*
X188389381Y-129751461D01*
X188389381Y-129751461D02*
X188328904Y-129630508D01*
X188328904Y-129630508D02*
X188268428Y-129570032D01*
X188268428Y-129570032D02*
X188147476Y-129509556D01*
X188147476Y-129509556D02*
X187905571Y-129449080D01*
X187905571Y-129449080D02*
X187784619Y-129388603D01*
X187784619Y-129388603D02*
X187724142Y-129328127D01*
X187724142Y-129328127D02*
X187663666Y-129207175D01*
X187663666Y-129207175D02*
X187663666Y-129086222D01*
X187663666Y-129086222D02*
X187724142Y-128965270D01*
X187724142Y-128965270D02*
X187784619Y-128904794D01*
X187784619Y-128904794D02*
X187905571Y-128844318D01*
X187905571Y-128844318D02*
X188207952Y-128844318D01*
X188207952Y-128844318D02*
X188389381Y-128904794D01*
X188812714Y-128844318D02*
X189115095Y-130114318D01*
X189115095Y-130114318D02*
X189357000Y-129207175D01*
X189357000Y-129207175D02*
X189598905Y-130114318D01*
X189598905Y-130114318D02*
X189901286Y-128844318D01*
X190324619Y-128965270D02*
X190385095Y-128904794D01*
X190385095Y-128904794D02*
X190506048Y-128844318D01*
X190506048Y-128844318D02*
X190808429Y-128844318D01*
X190808429Y-128844318D02*
X190929381Y-128904794D01*
X190929381Y-128904794D02*
X190989857Y-128965270D01*
X190989857Y-128965270D02*
X191050334Y-129086222D01*
X191050334Y-129086222D02*
X191050334Y-129207175D01*
X191050334Y-129207175D02*
X190989857Y-129388603D01*
X190989857Y-129388603D02*
X190264143Y-130114318D01*
X190264143Y-130114318D02*
X191050334Y-130114318D01*
D10*
X116054333Y-145012580D02*
X116006714Y-145060200D01*
X116006714Y-145060200D02*
X115863857Y-145107819D01*
X115863857Y-145107819D02*
X115768619Y-145107819D01*
X115768619Y-145107819D02*
X115625762Y-145060200D01*
X115625762Y-145060200D02*
X115530524Y-144964961D01*
X115530524Y-144964961D02*
X115482905Y-144869723D01*
X115482905Y-144869723D02*
X115435286Y-144679247D01*
X115435286Y-144679247D02*
X115435286Y-144536390D01*
X115435286Y-144536390D02*
X115482905Y-144345914D01*
X115482905Y-144345914D02*
X115530524Y-144250676D01*
X115530524Y-144250676D02*
X115625762Y-144155438D01*
X115625762Y-144155438D02*
X115768619Y-144107819D01*
X115768619Y-144107819D02*
X115863857Y-144107819D01*
X115863857Y-144107819D02*
X116006714Y-144155438D01*
X116006714Y-144155438D02*
X116054333Y-144203057D01*
X116482905Y-144107819D02*
X116482905Y-144917342D01*
X116482905Y-144917342D02*
X116530524Y-145012580D01*
X116530524Y-145012580D02*
X116578143Y-145060200D01*
X116578143Y-145060200D02*
X116673381Y-145107819D01*
X116673381Y-145107819D02*
X116863857Y-145107819D01*
X116863857Y-145107819D02*
X116959095Y-145060200D01*
X116959095Y-145060200D02*
X117006714Y-145012580D01*
X117006714Y-145012580D02*
X117054333Y-144917342D01*
X117054333Y-144917342D02*
X117054333Y-144107819D01*
X118006714Y-144107819D02*
X117530524Y-144107819D01*
X117530524Y-144107819D02*
X117482905Y-144584009D01*
X117482905Y-144584009D02*
X117530524Y-144536390D01*
X117530524Y-144536390D02*
X117625762Y-144488771D01*
X117625762Y-144488771D02*
X117863857Y-144488771D01*
X117863857Y-144488771D02*
X117959095Y-144536390D01*
X117959095Y-144536390D02*
X118006714Y-144584009D01*
X118006714Y-144584009D02*
X118054333Y-144679247D01*
X118054333Y-144679247D02*
X118054333Y-144917342D01*
X118054333Y-144917342D02*
X118006714Y-145012580D01*
X118006714Y-145012580D02*
X117959095Y-145060200D01*
X117959095Y-145060200D02*
X117863857Y-145107819D01*
X117863857Y-145107819D02*
X117625762Y-145107819D01*
X117625762Y-145107819D02*
X117530524Y-145060200D01*
X117530524Y-145060200D02*
X117482905Y-145012580D01*
X119006714Y-145107819D02*
X118435286Y-145107819D01*
X118721000Y-145107819D02*
X118721000Y-144107819D01*
X118721000Y-144107819D02*
X118625762Y-144250676D01*
X118625762Y-144250676D02*
X118530524Y-144345914D01*
X118530524Y-144345914D02*
X118435286Y-144393533D01*
X112522095Y-138900819D02*
X112522095Y-139710342D01*
X112522095Y-139710342D02*
X112569714Y-139805580D01*
X112569714Y-139805580D02*
X112617333Y-139853200D01*
X112617333Y-139853200D02*
X112712571Y-139900819D01*
X112712571Y-139900819D02*
X112903047Y-139900819D01*
X112903047Y-139900819D02*
X112998285Y-139853200D01*
X112998285Y-139853200D02*
X113045904Y-139805580D01*
X113045904Y-139805580D02*
X113093523Y-139710342D01*
X113093523Y-139710342D02*
X113093523Y-138900819D01*
X114045904Y-138900819D02*
X113569714Y-138900819D01*
X113569714Y-138900819D02*
X113522095Y-139377009D01*
X113522095Y-139377009D02*
X113569714Y-139329390D01*
X113569714Y-139329390D02*
X113664952Y-139281771D01*
X113664952Y-139281771D02*
X113903047Y-139281771D01*
X113903047Y-139281771D02*
X113998285Y-139329390D01*
X113998285Y-139329390D02*
X114045904Y-139377009D01*
X114045904Y-139377009D02*
X114093523Y-139472247D01*
X114093523Y-139472247D02*
X114093523Y-139710342D01*
X114093523Y-139710342D02*
X114045904Y-139805580D01*
X114045904Y-139805580D02*
X113998285Y-139853200D01*
X113998285Y-139853200D02*
X113903047Y-139900819D01*
X113903047Y-139900819D02*
X113664952Y-139900819D01*
X113664952Y-139900819D02*
X113569714Y-139853200D01*
X113569714Y-139853200D02*
X113522095Y-139805580D01*
X153852666Y-138265819D02*
X153852666Y-138980104D01*
X153852666Y-138980104D02*
X153805047Y-139122961D01*
X153805047Y-139122961D02*
X153709809Y-139218200D01*
X153709809Y-139218200D02*
X153566952Y-139265819D01*
X153566952Y-139265819D02*
X153471714Y-139265819D01*
X154328857Y-139265819D02*
X154328857Y-138265819D01*
X154328857Y-138265819D02*
X154709809Y-138265819D01*
X154709809Y-138265819D02*
X154805047Y-138313438D01*
X154805047Y-138313438D02*
X154852666Y-138361057D01*
X154852666Y-138361057D02*
X154900285Y-138456295D01*
X154900285Y-138456295D02*
X154900285Y-138599152D01*
X154900285Y-138599152D02*
X154852666Y-138694390D01*
X154852666Y-138694390D02*
X154805047Y-138742009D01*
X154805047Y-138742009D02*
X154709809Y-138789628D01*
X154709809Y-138789628D02*
X154328857Y-138789628D01*
X155852666Y-139265819D02*
X155281238Y-139265819D01*
X155566952Y-139265819D02*
X155566952Y-138265819D01*
X155566952Y-138265819D02*
X155471714Y-138408676D01*
X155471714Y-138408676D02*
X155376476Y-138503914D01*
X155376476Y-138503914D02*
X155281238Y-138551533D01*
X144472209Y-126115028D02*
X144472209Y-126591219D01*
X144138876Y-125591219D02*
X144472209Y-126115028D01*
X144472209Y-126115028D02*
X144805542Y-125591219D01*
X145138876Y-125591219D02*
X145138876Y-126400742D01*
X145138876Y-126400742D02*
X145186495Y-126495980D01*
X145186495Y-126495980D02*
X145234114Y-126543600D01*
X145234114Y-126543600D02*
X145329352Y-126591219D01*
X145329352Y-126591219D02*
X145519828Y-126591219D01*
X145519828Y-126591219D02*
X145615066Y-126543600D01*
X145615066Y-126543600D02*
X145662685Y-126495980D01*
X145662685Y-126495980D02*
X145710304Y-126400742D01*
X145710304Y-126400742D02*
X145710304Y-125591219D01*
X146138876Y-125686457D02*
X146186495Y-125638838D01*
X146186495Y-125638838D02*
X146281733Y-125591219D01*
X146281733Y-125591219D02*
X146519828Y-125591219D01*
X146519828Y-125591219D02*
X146615066Y-125638838D01*
X146615066Y-125638838D02*
X146662685Y-125686457D01*
X146662685Y-125686457D02*
X146710304Y-125781695D01*
X146710304Y-125781695D02*
X146710304Y-125876933D01*
X146710304Y-125876933D02*
X146662685Y-126019790D01*
X146662685Y-126019790D02*
X146091257Y-126591219D01*
X146091257Y-126591219D02*
X146710304Y-126591219D01*
X147091257Y-125686457D02*
X147138876Y-125638838D01*
X147138876Y-125638838D02*
X147234114Y-125591219D01*
X147234114Y-125591219D02*
X147472209Y-125591219D01*
X147472209Y-125591219D02*
X147567447Y-125638838D01*
X147567447Y-125638838D02*
X147615066Y-125686457D01*
X147615066Y-125686457D02*
X147662685Y-125781695D01*
X147662685Y-125781695D02*
X147662685Y-125876933D01*
X147662685Y-125876933D02*
X147615066Y-126019790D01*
X147615066Y-126019790D02*
X147043638Y-126591219D01*
X147043638Y-126591219D02*
X147662685Y-126591219D01*
X118881893Y-115902919D02*
X118881893Y-116712442D01*
X118881893Y-116712442D02*
X118929512Y-116807680D01*
X118929512Y-116807680D02*
X118977131Y-116855300D01*
X118977131Y-116855300D02*
X119072369Y-116902919D01*
X119072369Y-116902919D02*
X119262845Y-116902919D01*
X119262845Y-116902919D02*
X119358083Y-116855300D01*
X119358083Y-116855300D02*
X119405702Y-116807680D01*
X119405702Y-116807680D02*
X119453321Y-116712442D01*
X119453321Y-116712442D02*
X119453321Y-115902919D01*
X120358083Y-116236252D02*
X120358083Y-116902919D01*
X120119988Y-115855300D02*
X119881893Y-116569585D01*
X119881893Y-116569585D02*
X120500940Y-116569585D01*
D11*
X183038243Y-131157133D02*
X183098719Y-130975704D01*
X183098719Y-130975704D02*
X183098719Y-130673323D01*
X183098719Y-130673323D02*
X183038243Y-130552371D01*
X183038243Y-130552371D02*
X182977766Y-130491895D01*
X182977766Y-130491895D02*
X182856814Y-130431418D01*
X182856814Y-130431418D02*
X182735862Y-130431418D01*
X182735862Y-130431418D02*
X182614909Y-130491895D01*
X182614909Y-130491895D02*
X182554433Y-130552371D01*
X182554433Y-130552371D02*
X182493957Y-130673323D01*
X182493957Y-130673323D02*
X182433481Y-130915228D01*
X182433481Y-130915228D02*
X182373004Y-131036180D01*
X182373004Y-131036180D02*
X182312528Y-131096657D01*
X182312528Y-131096657D02*
X182191576Y-131157133D01*
X182191576Y-131157133D02*
X182070623Y-131157133D01*
X182070623Y-131157133D02*
X181949671Y-131096657D01*
X181949671Y-131096657D02*
X181889195Y-131036180D01*
X181889195Y-131036180D02*
X181828719Y-130915228D01*
X181828719Y-130915228D02*
X181828719Y-130612847D01*
X181828719Y-130612847D02*
X181889195Y-130431418D01*
X181828719Y-130008085D02*
X183098719Y-129705704D01*
X183098719Y-129705704D02*
X182191576Y-129463799D01*
X182191576Y-129463799D02*
X183098719Y-129221894D01*
X183098719Y-129221894D02*
X181828719Y-128919514D01*
X183098719Y-127770465D02*
X183098719Y-128496180D01*
X183098719Y-128133323D02*
X181828719Y-128133323D01*
X181828719Y-128133323D02*
X182010147Y-128254275D01*
X182010147Y-128254275D02*
X182131100Y-128375227D01*
X182131100Y-128375227D02*
X182191576Y-128496180D01*
D10*
X134218561Y-131979857D02*
X134123323Y-131932238D01*
X134123323Y-131932238D02*
X134028085Y-131837000D01*
X134028085Y-131837000D02*
X133885228Y-131694142D01*
X133885228Y-131694142D02*
X133789990Y-131646523D01*
X133789990Y-131646523D02*
X133694752Y-131646523D01*
X133742371Y-131884619D02*
X133647133Y-131837000D01*
X133647133Y-131837000D02*
X133551895Y-131741761D01*
X133551895Y-131741761D02*
X133504276Y-131551285D01*
X133504276Y-131551285D02*
X133504276Y-131217952D01*
X133504276Y-131217952D02*
X133551895Y-131027476D01*
X133551895Y-131027476D02*
X133647133Y-130932238D01*
X133647133Y-130932238D02*
X133742371Y-130884619D01*
X133742371Y-130884619D02*
X133932847Y-130884619D01*
X133932847Y-130884619D02*
X134028085Y-130932238D01*
X134028085Y-130932238D02*
X134123323Y-131027476D01*
X134123323Y-131027476D02*
X134170942Y-131217952D01*
X134170942Y-131217952D02*
X134170942Y-131551285D01*
X134170942Y-131551285D02*
X134123323Y-131741761D01*
X134123323Y-131741761D02*
X134028085Y-131837000D01*
X134028085Y-131837000D02*
X133932847Y-131884619D01*
X133932847Y-131884619D02*
X133742371Y-131884619D01*
X134504276Y-130884619D02*
X135123323Y-130884619D01*
X135123323Y-130884619D02*
X134789990Y-131265571D01*
X134789990Y-131265571D02*
X134932847Y-131265571D01*
X134932847Y-131265571D02*
X135028085Y-131313190D01*
X135028085Y-131313190D02*
X135075704Y-131360809D01*
X135075704Y-131360809D02*
X135123323Y-131456047D01*
X135123323Y-131456047D02*
X135123323Y-131694142D01*
X135123323Y-131694142D02*
X135075704Y-131789380D01*
X135075704Y-131789380D02*
X135028085Y-131837000D01*
X135028085Y-131837000D02*
X134932847Y-131884619D01*
X134932847Y-131884619D02*
X134647133Y-131884619D01*
X134647133Y-131884619D02*
X134551895Y-131837000D01*
X134551895Y-131837000D02*
X134504276Y-131789380D01*
X154664629Y-128730190D02*
X155140820Y-128730190D01*
X154140820Y-129063523D02*
X154664629Y-128730190D01*
X154664629Y-128730190D02*
X154140820Y-128396857D01*
X154140820Y-128063523D02*
X154950343Y-128063523D01*
X154950343Y-128063523D02*
X155045581Y-128015904D01*
X155045581Y-128015904D02*
X155093201Y-127968285D01*
X155093201Y-127968285D02*
X155140820Y-127873047D01*
X155140820Y-127873047D02*
X155140820Y-127682571D01*
X155140820Y-127682571D02*
X155093201Y-127587333D01*
X155093201Y-127587333D02*
X155045581Y-127539714D01*
X155045581Y-127539714D02*
X154950343Y-127492095D01*
X154950343Y-127492095D02*
X154140820Y-127492095D01*
X154236058Y-127063523D02*
X154188439Y-127015904D01*
X154188439Y-127015904D02*
X154140820Y-126920666D01*
X154140820Y-126920666D02*
X154140820Y-126682571D01*
X154140820Y-126682571D02*
X154188439Y-126587333D01*
X154188439Y-126587333D02*
X154236058Y-126539714D01*
X154236058Y-126539714D02*
X154331296Y-126492095D01*
X154331296Y-126492095D02*
X154426534Y-126492095D01*
X154426534Y-126492095D02*
X154569391Y-126539714D01*
X154569391Y-126539714D02*
X155140820Y-127111142D01*
X155140820Y-127111142D02*
X155140820Y-126492095D01*
X155140820Y-125539714D02*
X155140820Y-126111142D01*
X155140820Y-125825428D02*
X154140820Y-125825428D01*
X154140820Y-125825428D02*
X154283677Y-125920666D01*
X154283677Y-125920666D02*
X154378915Y-126015904D01*
X154378915Y-126015904D02*
X154426534Y-126111142D01*
X163169695Y-120485819D02*
X163169695Y-121295342D01*
X163169695Y-121295342D02*
X163217314Y-121390580D01*
X163217314Y-121390580D02*
X163264933Y-121438200D01*
X163264933Y-121438200D02*
X163360171Y-121485819D01*
X163360171Y-121485819D02*
X163550647Y-121485819D01*
X163550647Y-121485819D02*
X163645885Y-121438200D01*
X163645885Y-121438200D02*
X163693504Y-121390580D01*
X163693504Y-121390580D02*
X163741123Y-121295342D01*
X163741123Y-121295342D02*
X163741123Y-120485819D01*
X164169695Y-120581057D02*
X164217314Y-120533438D01*
X164217314Y-120533438D02*
X164312552Y-120485819D01*
X164312552Y-120485819D02*
X164550647Y-120485819D01*
X164550647Y-120485819D02*
X164645885Y-120533438D01*
X164645885Y-120533438D02*
X164693504Y-120581057D01*
X164693504Y-120581057D02*
X164741123Y-120676295D01*
X164741123Y-120676295D02*
X164741123Y-120771533D01*
X164741123Y-120771533D02*
X164693504Y-120914390D01*
X164693504Y-120914390D02*
X164122076Y-121485819D01*
X164122076Y-121485819D02*
X164741123Y-121485819D01*
X193501076Y-126649419D02*
X194019171Y-126649419D01*
X194019171Y-126649419D02*
X194080123Y-126618942D01*
X194080123Y-126618942D02*
X194110600Y-126588466D01*
X194110600Y-126588466D02*
X194141076Y-126527514D01*
X194141076Y-126527514D02*
X194141076Y-126405609D01*
X194141076Y-126405609D02*
X194110600Y-126344657D01*
X194110600Y-126344657D02*
X194080123Y-126314180D01*
X194080123Y-126314180D02*
X194019171Y-126283704D01*
X194019171Y-126283704D02*
X193501076Y-126283704D01*
X193501076Y-126039895D02*
X193501076Y-125643704D01*
X193501076Y-125643704D02*
X193744885Y-125857038D01*
X193744885Y-125857038D02*
X193744885Y-125765609D01*
X193744885Y-125765609D02*
X193775361Y-125704657D01*
X193775361Y-125704657D02*
X193805838Y-125674181D01*
X193805838Y-125674181D02*
X193866790Y-125643704D01*
X193866790Y-125643704D02*
X194019171Y-125643704D01*
X194019171Y-125643704D02*
X194080123Y-125674181D01*
X194080123Y-125674181D02*
X194110600Y-125704657D01*
X194110600Y-125704657D02*
X194141076Y-125765609D01*
X194141076Y-125765609D02*
X194141076Y-125948466D01*
X194141076Y-125948466D02*
X194110600Y-126009419D01*
X194110600Y-126009419D02*
X194080123Y-126039895D01*
D11*
X118031380Y-127157818D02*
X118031380Y-128185913D01*
X118031380Y-128185913D02*
X118091857Y-128306865D01*
X118091857Y-128306865D02*
X118152333Y-128367342D01*
X118152333Y-128367342D02*
X118273285Y-128427818D01*
X118273285Y-128427818D02*
X118515190Y-128427818D01*
X118515190Y-128427818D02*
X118636142Y-128367342D01*
X118636142Y-128367342D02*
X118696619Y-128306865D01*
X118696619Y-128306865D02*
X118757095Y-128185913D01*
X118757095Y-128185913D02*
X118757095Y-127157818D01*
X120027095Y-128427818D02*
X119301380Y-128427818D01*
X119664237Y-128427818D02*
X119664237Y-127157818D01*
X119664237Y-127157818D02*
X119543285Y-127339246D01*
X119543285Y-127339246D02*
X119422333Y-127460199D01*
X119422333Y-127460199D02*
X119301380Y-127520675D01*
D10*
X169923619Y-120648266D02*
X169447428Y-120981599D01*
X169923619Y-121219694D02*
X168923619Y-121219694D01*
X168923619Y-121219694D02*
X168923619Y-120838742D01*
X168923619Y-120838742D02*
X168971238Y-120743504D01*
X168971238Y-120743504D02*
X169018857Y-120695885D01*
X169018857Y-120695885D02*
X169114095Y-120648266D01*
X169114095Y-120648266D02*
X169256952Y-120648266D01*
X169256952Y-120648266D02*
X169352190Y-120695885D01*
X169352190Y-120695885D02*
X169399809Y-120743504D01*
X169399809Y-120743504D02*
X169447428Y-120838742D01*
X169447428Y-120838742D02*
X169447428Y-121219694D01*
X168923619Y-120219694D02*
X169733142Y-120219694D01*
X169733142Y-120219694D02*
X169828380Y-120172075D01*
X169828380Y-120172075D02*
X169876000Y-120124456D01*
X169876000Y-120124456D02*
X169923619Y-120029218D01*
X169923619Y-120029218D02*
X169923619Y-119838742D01*
X169923619Y-119838742D02*
X169876000Y-119743504D01*
X169876000Y-119743504D02*
X169828380Y-119695885D01*
X169828380Y-119695885D02*
X169733142Y-119648266D01*
X169733142Y-119648266D02*
X168923619Y-119648266D01*
X169018857Y-119219694D02*
X168971238Y-119172075D01*
X168971238Y-119172075D02*
X168923619Y-119076837D01*
X168923619Y-119076837D02*
X168923619Y-118838742D01*
X168923619Y-118838742D02*
X168971238Y-118743504D01*
X168971238Y-118743504D02*
X169018857Y-118695885D01*
X169018857Y-118695885D02*
X169114095Y-118648266D01*
X169114095Y-118648266D02*
X169209333Y-118648266D01*
X169209333Y-118648266D02*
X169352190Y-118695885D01*
X169352190Y-118695885D02*
X169923619Y-119267313D01*
X169923619Y-119267313D02*
X169923619Y-118648266D01*
X169923619Y-117695885D02*
X169923619Y-118267313D01*
X169923619Y-117981599D02*
X168923619Y-117981599D01*
X168923619Y-117981599D02*
X169066476Y-118076837D01*
X169066476Y-118076837D02*
X169161714Y-118172075D01*
X169161714Y-118172075D02*
X169209333Y-118267313D01*
X101501775Y-129753643D02*
X101959584Y-129753643D01*
X101959584Y-129753643D02*
X102051145Y-129784164D01*
X102051145Y-129784164D02*
X102112187Y-129845205D01*
X102112187Y-129845205D02*
X102142707Y-129936767D01*
X102142707Y-129936767D02*
X102142707Y-129997808D01*
X102142707Y-129112711D02*
X102142707Y-129478958D01*
X102142707Y-129295835D02*
X101501775Y-129295835D01*
X101501775Y-129295835D02*
X101593337Y-129356876D01*
X101593337Y-129356876D02*
X101654378Y-129417917D01*
X101654378Y-129417917D02*
X101684899Y-129478958D01*
X150414820Y-114379333D02*
X151129105Y-114379333D01*
X151129105Y-114379333D02*
X151271962Y-114426952D01*
X151271962Y-114426952D02*
X151367201Y-114522190D01*
X151367201Y-114522190D02*
X151414820Y-114665047D01*
X151414820Y-114665047D02*
X151414820Y-114760285D01*
X150748153Y-113474571D02*
X151414820Y-113474571D01*
X150367201Y-113712666D02*
X151081486Y-113950761D01*
X151081486Y-113950761D02*
X151081486Y-113331714D01*
X123727380Y-116751166D02*
X123775000Y-116798785D01*
X123775000Y-116798785D02*
X123822619Y-116941642D01*
X123822619Y-116941642D02*
X123822619Y-117036880D01*
X123822619Y-117036880D02*
X123775000Y-117179737D01*
X123775000Y-117179737D02*
X123679761Y-117274975D01*
X123679761Y-117274975D02*
X123584523Y-117322594D01*
X123584523Y-117322594D02*
X123394047Y-117370213D01*
X123394047Y-117370213D02*
X123251190Y-117370213D01*
X123251190Y-117370213D02*
X123060714Y-117322594D01*
X123060714Y-117322594D02*
X122965476Y-117274975D01*
X122965476Y-117274975D02*
X122870238Y-117179737D01*
X122870238Y-117179737D02*
X122822619Y-117036880D01*
X122822619Y-117036880D02*
X122822619Y-116941642D01*
X122822619Y-116941642D02*
X122870238Y-116798785D01*
X122870238Y-116798785D02*
X122917857Y-116751166D01*
X122822619Y-116322594D02*
X123632142Y-116322594D01*
X123632142Y-116322594D02*
X123727380Y-116274975D01*
X123727380Y-116274975D02*
X123775000Y-116227356D01*
X123775000Y-116227356D02*
X123822619Y-116132118D01*
X123822619Y-116132118D02*
X123822619Y-115941642D01*
X123822619Y-115941642D02*
X123775000Y-115846404D01*
X123775000Y-115846404D02*
X123727380Y-115798785D01*
X123727380Y-115798785D02*
X123632142Y-115751166D01*
X123632142Y-115751166D02*
X122822619Y-115751166D01*
X123155952Y-114846404D02*
X123822619Y-114846404D01*
X122775000Y-115084499D02*
X123489285Y-115322594D01*
X123489285Y-115322594D02*
X123489285Y-114703547D01*
X122917857Y-114370213D02*
X122870238Y-114322594D01*
X122870238Y-114322594D02*
X122822619Y-114227356D01*
X122822619Y-114227356D02*
X122822619Y-113989261D01*
X122822619Y-113989261D02*
X122870238Y-113894023D01*
X122870238Y-113894023D02*
X122917857Y-113846404D01*
X122917857Y-113846404D02*
X123013095Y-113798785D01*
X123013095Y-113798785D02*
X123108333Y-113798785D01*
X123108333Y-113798785D02*
X123251190Y-113846404D01*
X123251190Y-113846404D02*
X123822619Y-114417832D01*
X123822619Y-114417832D02*
X123822619Y-113798785D01*
X105941905Y-136090819D02*
X105941905Y-135090819D01*
X105941905Y-135090819D02*
X106180000Y-135090819D01*
X106180000Y-135090819D02*
X106322857Y-135138438D01*
X106322857Y-135138438D02*
X106418095Y-135233676D01*
X106418095Y-135233676D02*
X106465714Y-135328914D01*
X106465714Y-135328914D02*
X106513333Y-135519390D01*
X106513333Y-135519390D02*
X106513333Y-135662247D01*
X106513333Y-135662247D02*
X106465714Y-135852723D01*
X106465714Y-135852723D02*
X106418095Y-135947961D01*
X106418095Y-135947961D02*
X106322857Y-136043200D01*
X106322857Y-136043200D02*
X106180000Y-136090819D01*
X106180000Y-136090819D02*
X105941905Y-136090819D01*
X107418095Y-135090819D02*
X106941905Y-135090819D01*
X106941905Y-135090819D02*
X106894286Y-135567009D01*
X106894286Y-135567009D02*
X106941905Y-135519390D01*
X106941905Y-135519390D02*
X107037143Y-135471771D01*
X107037143Y-135471771D02*
X107275238Y-135471771D01*
X107275238Y-135471771D02*
X107370476Y-135519390D01*
X107370476Y-135519390D02*
X107418095Y-135567009D01*
X107418095Y-135567009D02*
X107465714Y-135662247D01*
X107465714Y-135662247D02*
X107465714Y-135900342D01*
X107465714Y-135900342D02*
X107418095Y-135995580D01*
X107418095Y-135995580D02*
X107370476Y-136043200D01*
X107370476Y-136043200D02*
X107275238Y-136090819D01*
X107275238Y-136090819D02*
X107037143Y-136090819D01*
X107037143Y-136090819D02*
X106941905Y-136043200D01*
X106941905Y-136043200D02*
X106894286Y-135995580D01*
X134269361Y-123928057D02*
X134174123Y-123880438D01*
X134174123Y-123880438D02*
X134078885Y-123785200D01*
X134078885Y-123785200D02*
X133936028Y-123642342D01*
X133936028Y-123642342D02*
X133840790Y-123594723D01*
X133840790Y-123594723D02*
X133745552Y-123594723D01*
X133793171Y-123832819D02*
X133697933Y-123785200D01*
X133697933Y-123785200D02*
X133602695Y-123689961D01*
X133602695Y-123689961D02*
X133555076Y-123499485D01*
X133555076Y-123499485D02*
X133555076Y-123166152D01*
X133555076Y-123166152D02*
X133602695Y-122975676D01*
X133602695Y-122975676D02*
X133697933Y-122880438D01*
X133697933Y-122880438D02*
X133793171Y-122832819D01*
X133793171Y-122832819D02*
X133983647Y-122832819D01*
X133983647Y-122832819D02*
X134078885Y-122880438D01*
X134078885Y-122880438D02*
X134174123Y-122975676D01*
X134174123Y-122975676D02*
X134221742Y-123166152D01*
X134221742Y-123166152D02*
X134221742Y-123499485D01*
X134221742Y-123499485D02*
X134174123Y-123689961D01*
X134174123Y-123689961D02*
X134078885Y-123785200D01*
X134078885Y-123785200D02*
X133983647Y-123832819D01*
X133983647Y-123832819D02*
X133793171Y-123832819D01*
X134602695Y-122928057D02*
X134650314Y-122880438D01*
X134650314Y-122880438D02*
X134745552Y-122832819D01*
X134745552Y-122832819D02*
X134983647Y-122832819D01*
X134983647Y-122832819D02*
X135078885Y-122880438D01*
X135078885Y-122880438D02*
X135126504Y-122928057D01*
X135126504Y-122928057D02*
X135174123Y-123023295D01*
X135174123Y-123023295D02*
X135174123Y-123118533D01*
X135174123Y-123118533D02*
X135126504Y-123261390D01*
X135126504Y-123261390D02*
X134555076Y-123832819D01*
X134555076Y-123832819D02*
X135174123Y-123832819D01*
D12*
%TO.C,Q1*%
X135433400Y-130190400D02*
X135433400Y-129260400D01*
X135433401Y-127030400D02*
X135433400Y-127960400D01*
X135433401Y-127030400D02*
X136893398Y-127030401D01*
X136233401Y-130190399D02*
X135433400Y-130190400D01*
X136233401Y-130190399D02*
X137033400Y-130190400D01*
X137773401Y-130550400D02*
X137293401Y-130550400D01*
X137533400Y-130220400D01*
X137773401Y-130550400D01*
G36*
X137773401Y-130550400D02*
G01*
X137293401Y-130550400D01*
X137533400Y-130220400D01*
X137773401Y-130550400D01*
G37*
%TO.C,CU14*%
X121585400Y-129203562D02*
X121585403Y-129419233D01*
X122305397Y-129203567D02*
X122305400Y-129419238D01*
%TO.C,CU27*%
X172231164Y-124862000D02*
X172446836Y-124862000D01*
X172231164Y-125582000D02*
X172446836Y-125582000D01*
%TO.C,CY21*%
X148382401Y-128784235D02*
X148382400Y-128568563D01*
X149102400Y-128784237D02*
X149102399Y-128568565D01*
%TO.C,RQ12*%
X140182439Y-129930199D02*
X139875160Y-129930198D01*
X140182440Y-129170202D02*
X139875161Y-129170201D01*
%TO.C,CSW11*%
X176754201Y-128289162D02*
X176754204Y-128504833D01*
X177474198Y-128289167D02*
X177474201Y-128504838D01*
%TO.C,D1*%
X109900187Y-119399999D02*
X111145999Y-119400000D01*
X107800999Y-119225000D02*
G75*
G02*
X109342784Y-113863164I1800000J2385000D01*
G01*
X107823000Y-118592599D02*
G75*
G02*
X109314577Y-114359910I1777999J1752599D01*
G01*
X111154054Y-114880913D02*
G75*
G02*
X110680999Y-119094685I-1553055J-1959087D01*
G01*
X111395885Y-114448668D02*
G75*
G02*
X111145829Y-119400000I-1794890J-2391333D01*
G01*
%TO.C,RD21*%
X103785639Y-123569999D02*
X103478360Y-123569998D01*
X103785640Y-122810002D02*
X103478361Y-122810001D01*
%TO.C,RJ11*%
X106224039Y-136015999D02*
X105916760Y-136015998D01*
X106224040Y-135256002D02*
X105916761Y-135256001D01*
%TO.C,CU41*%
X115441001Y-118504581D02*
X115441000Y-118223419D01*
X116461000Y-118504581D02*
X116460999Y-118223419D01*
%TO.C,CU52*%
X122883199Y-139178419D02*
X122883200Y-139459581D01*
X123903198Y-139178419D02*
X123903199Y-139459581D01*
%TO.C,CU26*%
X169616800Y-135451962D02*
X169616803Y-135667633D01*
X170336797Y-135451967D02*
X170336800Y-135667638D01*
%TO.C,RJ12*%
X108154439Y-123773199D02*
X107847160Y-123773198D01*
X108154440Y-123013202D02*
X107847161Y-123013201D01*
%TO.C,RU15*%
X120955802Y-125169961D02*
X120955802Y-125477239D01*
X121715798Y-125169961D02*
X121715798Y-125477239D01*
%TO.C,RD51*%
X103760139Y-136015999D02*
X103452860Y-136015998D01*
X103760140Y-135256002D02*
X103452861Y-135256001D01*
%TO.C,RU14*%
X126566960Y-124308602D02*
X126874239Y-124308601D01*
X126566961Y-125068599D02*
X126874240Y-125068598D01*
%TO.C,RU36*%
X193549003Y-128137761D02*
X193549003Y-128445039D01*
X194308999Y-128137761D02*
X194308999Y-128445039D01*
%TO.C,RQ11*%
X139900560Y-127265202D02*
X140207839Y-127265201D01*
X139900561Y-128025199D02*
X140207840Y-128025198D01*
%TO.C,CU16*%
X119962200Y-132803019D02*
X119962201Y-133084181D01*
X120982199Y-132803019D02*
X120982200Y-133084181D01*
%TO.C,RSW11*%
X177826402Y-129284761D02*
X177826402Y-129592039D01*
X178586398Y-129284761D02*
X178586398Y-129592039D01*
%TO.C,CU25*%
X168550000Y-135451962D02*
X168550003Y-135667633D01*
X169269997Y-135451967D02*
X169270000Y-135667638D01*
%TO.C,RU16*%
X114527876Y-124013700D02*
X115037324Y-124013700D01*
X114527876Y-125058700D02*
X115037324Y-125058700D01*
%TO.C,RSW22*%
X190653639Y-123620799D02*
X190346360Y-123620798D01*
X190653640Y-122860802D02*
X190346361Y-122860801D01*
%TO.C,RU22*%
X156703500Y-124840276D02*
X156703500Y-125349724D01*
X157748500Y-124840276D02*
X157748500Y-125349724D01*
%TO.C,RQ31*%
X139875159Y-131354600D02*
X140182441Y-131354600D01*
X139875159Y-132114600D02*
X140182441Y-132114600D01*
%TO.C,RU31*%
X199185560Y-128702802D02*
X199492839Y-128702801D01*
X199185561Y-129462799D02*
X199492840Y-129462798D01*
%TO.C,RU11*%
X114527876Y-125664700D02*
X115037324Y-125664700D01*
X114527876Y-126709700D02*
X115037324Y-126709700D01*
%TO.C,CU17*%
X119665634Y-131119198D02*
X119449962Y-131119200D01*
X119665638Y-130399200D02*
X119449966Y-130399202D01*
%TO.C,RD13*%
X132462001Y-132868641D02*
X132462000Y-132561360D01*
X133222000Y-132868640D02*
X133221999Y-132561359D01*
D13*
%TO.C,U6*%
X109835400Y-130538400D02*
X111195400Y-130538400D01*
X111195400Y-128338400D02*
X109835400Y-128338400D01*
D12*
%TO.C,J2*%
X211014000Y-124508000D02*
X212344000Y-124508000D01*
X211014000Y-125838000D02*
X211014000Y-124508000D01*
X211014000Y-127108000D02*
X211014000Y-134788000D01*
X211014000Y-127108000D02*
X213674000Y-127108000D01*
X211014000Y-134788000D02*
X213674000Y-134788000D01*
X213674000Y-127108000D02*
X213674000Y-134788000D01*
%TO.C,D2*%
X100038000Y-123925000D02*
X102323002Y-123924999D01*
X102323001Y-122454999D02*
X100038001Y-122455001D01*
X102323002Y-123924999D02*
X102323001Y-122454999D01*
%TO.C,J3*%
X151960001Y-146339000D02*
X151960001Y-145009000D01*
X153290001Y-146339000D02*
X151960001Y-146339000D01*
X154560001Y-143679000D02*
X180020001Y-143679000D01*
X154560001Y-146339000D02*
X154560001Y-143679000D01*
X154560001Y-146339000D02*
X180020001Y-146339000D01*
X180020001Y-146339000D02*
X180020001Y-143679000D01*
%TO.C,RU33*%
X198156300Y-126338875D02*
X198156300Y-126848324D01*
X199201300Y-126338876D02*
X199201300Y-126848325D01*
D14*
%TO.C,SW2*%
X187502000Y-126640000D02*
X187502000Y-132440000D01*
D15*
X188557000Y-134340000D02*
X188557000Y-134340000D01*
X188557000Y-134440000D02*
X188557000Y-134440000D01*
D14*
X191212000Y-126640000D02*
X191212000Y-132440000D01*
D15*
X188557000Y-134340000D02*
G75*
G02*
X188557000Y-134440000I0J-50000D01*
G01*
X188557000Y-134440000D02*
G75*
G02*
X188557000Y-134340000I0J50000D01*
G01*
D12*
%TO.C,CU23*%
X161615801Y-123450235D02*
X161615800Y-123234563D01*
X162335800Y-123450237D02*
X162335799Y-123234565D01*
%TO.C,CU51*%
X119747419Y-141857001D02*
X120028581Y-141857000D01*
X119747419Y-142877000D02*
X120028581Y-142876999D01*
%TO.C,CU22*%
X159992601Y-123355981D02*
X159992600Y-123074819D01*
X161012600Y-123355981D02*
X161012599Y-123074819D01*
%TO.C,U5*%
X118823200Y-141091300D02*
X118823200Y-140161300D01*
X118823201Y-137931300D02*
X118823200Y-138861300D01*
X118823201Y-137931300D02*
X120283198Y-137931300D01*
X119623200Y-141091299D02*
X118823200Y-141091300D01*
X119623200Y-141091299D02*
X120423200Y-141091300D01*
X121163201Y-141451300D02*
X120683201Y-141451300D01*
X120923200Y-141121300D01*
X121163201Y-141451300D01*
G36*
X121163201Y-141451300D02*
G01*
X120683201Y-141451300D01*
X120923200Y-141121300D01*
X121163201Y-141451300D01*
G37*
%TO.C,RQ21*%
X139900559Y-123226600D02*
X140207841Y-123226600D01*
X139900559Y-123986600D02*
X140207841Y-123986600D01*
%TO.C,CU28*%
X160018000Y-135038219D02*
X160018001Y-135319381D01*
X161037999Y-135038219D02*
X161038000Y-135319381D01*
%TO.C,CY22*%
X148382400Y-131616562D02*
X148382403Y-131832233D01*
X149102397Y-131616567D02*
X149102400Y-131832238D01*
%TO.C,RU12*%
X111643900Y-125094276D02*
X111643900Y-125603724D01*
X112688900Y-125094276D02*
X112688900Y-125603724D01*
%TO.C,RSW32*%
X188060359Y-122860800D02*
X188367641Y-122860800D01*
X188060359Y-123620800D02*
X188367641Y-123620800D01*
%TO.C,RD12*%
X132462001Y-124867641D02*
X132462000Y-124560360D01*
X133222000Y-124867640D02*
X133221999Y-124560359D01*
%TO.C,CU32*%
X195776964Y-130856400D02*
X195992636Y-130856400D01*
X195776964Y-131576400D02*
X195992636Y-131576400D01*
%TO.C,D3*%
X100012500Y-138403000D02*
X102297502Y-138402999D01*
X102297501Y-136932999D02*
X100012501Y-136933001D01*
X102297502Y-138402999D02*
X102297501Y-136932999D01*
%TO.C,CY12*%
X152761834Y-129772998D02*
X152546162Y-129773000D01*
X152761838Y-129053000D02*
X152546166Y-129053002D01*
%TO.C,RSW12*%
X176734200Y-130608040D02*
X176734201Y-130300759D01*
X177494199Y-130608041D02*
X177494200Y-130300760D01*
%TO.C,RD11*%
X132462001Y-128931641D02*
X132462000Y-128624360D01*
X133222000Y-128931640D02*
X133221999Y-128624359D01*
%TO.C,CU29*%
X158720200Y-135070962D02*
X158720204Y-135286634D01*
X159440196Y-135070966D02*
X159440200Y-135286638D01*
%TO.C,RSW31*%
X188060359Y-135332200D02*
X188367641Y-135332200D01*
X188060359Y-136092200D02*
X188367641Y-136092200D01*
%TO.C,RU13*%
X126566960Y-126109998D02*
X126874239Y-126109999D01*
X126566961Y-125350001D02*
X126874240Y-125350002D01*
%TO.C,RU32*%
X195809841Y-126289800D02*
X195502559Y-126289800D01*
X195809841Y-127049800D02*
X195502559Y-127049800D01*
%TO.C,RY21*%
X142377902Y-129763675D02*
X142377901Y-130273124D01*
X143422901Y-129763676D02*
X143422900Y-130273125D01*
%TO.C,JP1*%
X156461000Y-138984000D02*
X156461000Y-138384000D01*
X157161000Y-137684000D02*
X158561000Y-137684000D01*
X158561000Y-139684000D02*
X157161000Y-139684000D01*
X159261000Y-138384000D02*
X159261000Y-138984000D01*
X156461000Y-138384000D02*
G75*
G02*
X157161000Y-137684000I699999J1D01*
G01*
X157161000Y-139684000D02*
G75*
G02*
X156461000Y-138984000I-1J699999D01*
G01*
X158561000Y-137684000D02*
G75*
G02*
X159261000Y-138384000I0J-700000D01*
G01*
X159261000Y-138984000D02*
G75*
G02*
X158561000Y-139684000I-700000J0D01*
G01*
%TO.C,RY11*%
X150099500Y-127253276D02*
X150099500Y-127762724D01*
X151144500Y-127253276D02*
X151144500Y-127762724D01*
%TO.C,RU34*%
X198232500Y-131926876D02*
X198232500Y-132436324D01*
X199277500Y-131926876D02*
X199277500Y-132436324D01*
%TO.C,RU35*%
X193549001Y-130199161D02*
X193549001Y-130506439D01*
X194308997Y-130199161D02*
X194308997Y-130506439D01*
%TO.C,YU22*%
X144148399Y-127500400D02*
X144148401Y-133250400D01*
X144148401Y-133250400D02*
X147748402Y-133250400D01*
X147748402Y-133250400D02*
X147748400Y-127500399D01*
%TO.C,U4*%
X118848600Y-120771300D02*
X118848600Y-119841300D01*
X118848601Y-117611300D02*
X118848600Y-118541300D01*
X118848601Y-117611300D02*
X120308598Y-117611300D01*
X119648601Y-120771301D02*
X118848600Y-120771300D01*
X119648601Y-120771301D02*
X120448600Y-120771300D01*
X121188601Y-121131300D02*
X120708601Y-121131300D01*
X120948600Y-120801300D01*
X121188601Y-121131300D01*
G36*
X121188601Y-121131300D02*
G01*
X120708601Y-121131300D01*
X120948600Y-120801300D01*
X121188601Y-121131300D01*
G37*
%TO.C,RD41*%
X103785639Y-121791999D02*
X103478360Y-121791998D01*
X103785640Y-121032002D02*
X103478361Y-121032001D01*
D15*
%TO.C,SW1*%
X179974399Y-127963800D02*
X179974399Y-131963800D01*
X183524399Y-127413800D02*
X181524399Y-127413800D01*
X183524399Y-132513800D02*
X181524399Y-132513800D01*
D14*
X184424399Y-125463798D02*
X184424399Y-125463798D01*
X184424399Y-125463798D02*
X184424399Y-125463798D01*
X184424400Y-125563799D02*
X184424400Y-125563799D01*
D15*
X185074399Y-127963800D02*
X185074399Y-131963800D01*
D14*
X184424399Y-125463798D02*
G75*
G02*
X184424400Y-125563798I1J-50000D01*
G01*
X184424400Y-125563799D02*
G75*
G02*
X184424399Y-125463797I0J50001D01*
G01*
X184424400Y-125563799D02*
G75*
G02*
X184424399Y-125463797I0J50001D01*
G01*
D12*
%TO.C,CU12*%
X115542600Y-132904619D02*
X115542601Y-133185781D01*
X116562599Y-132904619D02*
X116562600Y-133185781D01*
%TO.C,CU15*%
X122601400Y-129203562D02*
X122601403Y-129419233D01*
X123321397Y-129203567D02*
X123321400Y-129419238D01*
%TO.C,RQ32*%
X140182439Y-133994199D02*
X139875160Y-133994198D01*
X140182440Y-133234202D02*
X139875161Y-133234201D01*
%TO.C,Q3*%
X135433400Y-134254400D02*
X135433400Y-133324400D01*
X135433401Y-131094400D02*
X135433400Y-132024400D01*
X135433401Y-131094400D02*
X136893398Y-131094401D01*
X136233401Y-134254399D02*
X135433400Y-134254400D01*
X136233401Y-134254399D02*
X137033400Y-134254400D01*
X137773401Y-134614400D02*
X137293401Y-134614400D01*
X137533400Y-134284400D01*
X137773401Y-134614400D01*
G36*
X137773401Y-134614400D02*
G01*
X137293401Y-134614400D01*
X137533400Y-134284400D01*
X137773401Y-134614400D01*
G37*
%TO.C,YU21*%
X151854000Y-126307999D02*
X151854000Y-128707999D01*
X151854000Y-128707999D02*
X153454000Y-128708001D01*
X153454000Y-128708001D02*
X153454000Y-126308001D01*
%TO.C,U2*%
X162380000Y-125730000D02*
X162380000Y-126180000D01*
X162380000Y-132950000D02*
X162380000Y-132500000D01*
X162830000Y-125730000D02*
X162380000Y-125730000D01*
X162830000Y-132950000D02*
X162380000Y-132950000D01*
X169150000Y-125730000D02*
X169600000Y-125730000D01*
X169150000Y-132950000D02*
X169600000Y-132950000D01*
X169600000Y-125730000D02*
X169600000Y-126180000D01*
X169600000Y-132950000D02*
X169600000Y-132500000D01*
X161790000Y-126180000D02*
X161450000Y-125710000D01*
X162130000Y-125710000D01*
X161790000Y-126180000D01*
G36*
X161790000Y-126180000D02*
G01*
X161450000Y-125710000D01*
X162130000Y-125710000D01*
X161790000Y-126180000D01*
G37*
%TO.C,CU24*%
X172231164Y-126030400D02*
X172446836Y-126030400D01*
X172231164Y-126750400D02*
X172446836Y-126750400D01*
D16*
%TO.C,U3*%
X194768001Y-128070002D02*
X194768001Y-128539998D01*
X194768001Y-128070002D02*
X195238000Y-128069999D01*
X194768002Y-130609999D02*
X194767999Y-130140000D01*
X194768002Y-130609999D02*
X195237998Y-130609999D01*
X197307998Y-128070001D02*
X196838002Y-128070001D01*
X197307998Y-128070001D02*
X197308001Y-128540000D01*
X197307999Y-130609998D02*
X196838000Y-130610001D01*
X197307999Y-130609998D02*
X197307999Y-130140002D01*
D10*
X197013002Y-127840000D02*
G75*
G02*
X196862998Y-127840000I-75002J0D01*
G01*
X196862998Y-127840000D02*
G75*
G02*
X197013002Y-127840000I75002J0D01*
G01*
D12*
%TO.C,RSW21*%
X190729841Y-135332200D02*
X190422559Y-135332200D01*
X190729841Y-136092200D02*
X190422559Y-136092200D01*
D17*
%TO.C,U1*%
X120599001Y-129253500D02*
G75*
G02*
X120349001Y-129253500I-125000J0D01*
G01*
X120349001Y-129253500D02*
G75*
G02*
X120599001Y-129253500I125000J0D01*
G01*
D12*
%TO.C,RU21*%
X165720500Y-120269724D02*
X165720500Y-119760276D01*
X166765500Y-120269724D02*
X166765500Y-119760276D01*
D16*
%TO.C,J1*%
X97294502Y-124860250D02*
X97294502Y-134060250D01*
X99674503Y-134060248D02*
X103424497Y-134060252D01*
X103424503Y-124860250D02*
X99674502Y-124860249D01*
X105544502Y-134060250D02*
X106654504Y-134060250D01*
X106654502Y-124860250D02*
X105544501Y-124860250D01*
X106654502Y-126230250D02*
X106654502Y-124860250D01*
X106654504Y-134060250D02*
X106654502Y-132690250D01*
D14*
X107344502Y-126660250D02*
G75*
G02*
X107144502Y-126660250I-100000J0D01*
G01*
X107144502Y-126660250D02*
G75*
G02*
X107344502Y-126660250I100000J0D01*
G01*
D12*
%TO.C,J4*%
X151960001Y-115376000D02*
X151960001Y-114046000D01*
X153290001Y-115376000D02*
X151960001Y-115376000D01*
X154560001Y-112716000D02*
X180020001Y-112716000D01*
X154560001Y-115376000D02*
X154560001Y-112716000D01*
X154560001Y-115376000D02*
X180020001Y-115376000D01*
X180020001Y-115376000D02*
X180020001Y-112716000D01*
%TO.C,RQ22*%
X140207839Y-125866199D02*
X139900560Y-125866198D01*
X140207840Y-125106202D02*
X139900561Y-125106201D01*
%TO.C,CY11*%
X152761834Y-125962998D02*
X152546162Y-125963000D01*
X152761838Y-125243000D02*
X152546166Y-125243002D01*
%TO.C,CU42*%
X122908600Y-119143718D02*
X122908601Y-119424880D01*
X123928599Y-119143718D02*
X123928600Y-119424880D01*
%TO.C,CU13*%
X118433962Y-130077800D02*
X118649634Y-130077796D01*
X118433966Y-129357804D02*
X118649638Y-129357800D01*
%TO.C,D5*%
X100012498Y-136370999D02*
X102297500Y-136370998D01*
X102297499Y-134900998D02*
X100012499Y-134901000D01*
X102297500Y-136370998D02*
X102297499Y-134900998D01*
%TO.C,D4*%
X100038000Y-122147000D02*
X102323002Y-122146999D01*
X102323001Y-120676999D02*
X100038001Y-120677001D01*
X102323002Y-122146999D02*
X102323001Y-120676999D01*
%TO.C,CU31*%
X195693420Y-131976400D02*
X195974580Y-131976400D01*
X195693420Y-132996400D02*
X195974580Y-132996400D01*
%TO.C,CU11*%
X117117400Y-132904619D02*
X117117401Y-133185781D01*
X118137399Y-132904619D02*
X118137400Y-133185781D01*
%TO.C,RD31*%
X103760138Y-137793999D02*
X103452859Y-137793998D01*
X103760139Y-137034002D02*
X103452860Y-137034001D01*
%TO.C,Q2*%
X135433400Y-126126400D02*
X135433400Y-125196400D01*
X135433401Y-122966400D02*
X135433400Y-123896400D01*
X135433401Y-122966400D02*
X136893398Y-122966400D01*
X136233400Y-126126399D02*
X135433400Y-126126400D01*
X136233400Y-126126399D02*
X137033400Y-126126400D01*
X137773401Y-126486400D02*
X137293401Y-126486400D01*
X137533400Y-126156400D01*
X137773401Y-126486400D01*
G36*
X137773401Y-126486400D02*
G01*
X137293401Y-126486400D01*
X137533400Y-126156400D01*
X137773401Y-126486400D01*
G37*
%TD*%
%LPC*%
D18*
%TO.C,U3*%
X195487997Y-129290000D02*
X195037996Y-129289998D01*
X195038000Y-128890000D01*
X195487999Y-128889997D01*
X195487997Y-129290000D01*
G36*
X195487997Y-129290000D02*
G01*
X195037996Y-129289998D01*
X195038000Y-128890000D01*
X195487999Y-128889997D01*
X195487997Y-129290000D01*
G37*
X195488000Y-129390002D02*
X195487998Y-129789998D01*
X195038000Y-129790000D01*
X195038001Y-129390001D01*
X195488000Y-129390002D01*
G36*
X195488000Y-129390002D02*
G01*
X195487998Y-129789998D01*
X195038000Y-129790000D01*
X195038001Y-129390001D01*
X195488000Y-129390002D01*
G37*
X195488002Y-130340000D02*
X195087996Y-130339997D01*
X195088000Y-129890000D01*
X195488000Y-129890000D01*
X195488002Y-130340000D01*
G36*
X195488002Y-130340000D02*
G01*
X195087996Y-130339997D01*
X195088000Y-129890000D01*
X195488000Y-129890000D01*
X195488002Y-130340000D01*
G37*
X195488001Y-128340001D02*
X195488000Y-128790000D01*
X195088000Y-128790000D01*
X195087999Y-128339999D01*
X195488001Y-128340001D01*
G36*
X195488001Y-128340001D02*
G01*
X195488000Y-128790000D01*
X195088000Y-128790000D01*
X195087999Y-128339999D01*
X195488001Y-128340001D01*
G37*
X195987999Y-128340001D02*
X195987998Y-128790000D01*
X195588002Y-128789998D01*
X195588000Y-128340000D01*
X195987999Y-128340001D01*
G36*
X195987999Y-128340001D02*
G01*
X195987998Y-128790000D01*
X195588002Y-128789998D01*
X195588000Y-128340000D01*
X195987999Y-128340001D01*
G37*
X195988000Y-129890003D02*
X195987998Y-130340004D01*
X195588000Y-130340000D01*
X195587997Y-129890001D01*
X195988000Y-129890003D01*
G36*
X195988000Y-129890003D02*
G01*
X195987998Y-130340004D01*
X195588000Y-130340000D01*
X195587997Y-129890001D01*
X195988000Y-129890003D01*
G37*
X196487998Y-129890002D02*
X196488000Y-130340000D01*
X196088001Y-130339999D01*
X196088002Y-129890000D01*
X196487998Y-129890002D01*
G36*
X196487998Y-129890002D02*
G01*
X196488000Y-130340000D01*
X196088001Y-130339999D01*
X196088002Y-129890000D01*
X196487998Y-129890002D01*
G37*
X196488000Y-128340000D02*
X196488003Y-128789999D01*
X196088000Y-128789997D01*
X196088002Y-128339996D01*
X196488000Y-128340000D01*
G36*
X196488000Y-128340000D02*
G01*
X196488003Y-128789999D01*
X196088000Y-128789997D01*
X196088002Y-128339996D01*
X196488000Y-128340000D01*
G37*
X196988001Y-130340001D02*
X196587999Y-130339999D01*
X196588000Y-129890000D01*
X196988000Y-129890000D01*
X196988001Y-130340001D01*
G36*
X196988001Y-130340001D02*
G01*
X196587999Y-130339999D01*
X196588000Y-129890000D01*
X196988000Y-129890000D01*
X196988001Y-130340001D01*
G37*
X196988004Y-128340003D02*
X196988000Y-128790000D01*
X196588000Y-128790000D01*
X196587998Y-128340000D01*
X196988004Y-128340003D01*
G36*
X196988004Y-128340003D02*
G01*
X196988000Y-128790000D01*
X196588000Y-128790000D01*
X196587998Y-128340000D01*
X196988004Y-128340003D01*
G37*
X197037999Y-129289999D02*
X196588000Y-129289998D01*
X196588002Y-128890002D01*
X197038000Y-128890000D01*
X197037999Y-129289999D01*
G36*
X197037999Y-129289999D02*
G01*
X196588000Y-129289998D01*
X196588002Y-128890002D01*
X197038000Y-128890000D01*
X197037999Y-129289999D01*
G37*
X197038004Y-129390002D02*
X197038000Y-129790000D01*
X196588001Y-129790003D01*
X196588003Y-129390000D01*
X197038004Y-129390002D01*
G36*
X197038004Y-129390002D02*
G01*
X197038000Y-129790000D01*
X196588001Y-129790003D01*
X196588003Y-129390000D01*
X197038004Y-129390002D01*
G37*
%TD*%
D19*
%TO.C,Q1*%
X137693400Y-129560398D03*
X137693400Y-127660400D03*
X134693400Y-128610400D03*
%TD*%
D20*
%TO.C,CU14*%
X121945400Y-128831400D03*
X121945400Y-129791400D03*
%TD*%
D21*
%TO.C,CU27*%
X171859000Y-125222000D03*
X172819000Y-125222000D03*
%TD*%
D22*
%TO.C,CY21*%
X148742400Y-129156400D03*
X148742400Y-128196400D03*
%TD*%
D23*
%TO.C,H1*%
X102344000Y-116840000D03*
%TD*%
D24*
%TO.C,RQ12*%
X140538800Y-129550201D03*
X139518800Y-129550199D03*
%TD*%
D20*
%TO.C,CSW11*%
X177114201Y-127917000D03*
X177114201Y-128877000D03*
%TD*%
D25*
%TO.C,D1*%
X108838999Y-119253000D03*
D26*
X110363000Y-117475000D03*
X108838999Y-115951000D03*
X110363000Y-114427001D03*
%TD*%
D24*
%TO.C,RD21*%
X104142000Y-123190001D03*
X103122000Y-123189999D03*
%TD*%
%TO.C,RJ11*%
X106580400Y-135636001D03*
X105560400Y-135635999D03*
%TD*%
D27*
%TO.C,CU41*%
X115951000Y-119139001D03*
X115951000Y-117588999D03*
%TD*%
D28*
%TO.C,CU52*%
X123393199Y-138543999D03*
X123393199Y-140094001D03*
%TD*%
D20*
%TO.C,CU26*%
X169976800Y-135079800D03*
X169976800Y-136039800D03*
%TD*%
D24*
%TO.C,RJ12*%
X108510800Y-123393201D03*
X107490800Y-123393199D03*
%TD*%
D23*
%TO.C,H2*%
X212344000Y-116840000D03*
%TD*%
D29*
%TO.C,RU15*%
X121335801Y-124813600D03*
X121335799Y-125833600D03*
%TD*%
D24*
%TO.C,RD51*%
X104116500Y-135636001D03*
X103096500Y-135635999D03*
%TD*%
D30*
%TO.C,RU14*%
X126210600Y-124688599D03*
X127230600Y-124688601D03*
%TD*%
D29*
%TO.C,RU36*%
X193929002Y-127781400D03*
X193929000Y-128801400D03*
%TD*%
D30*
%TO.C,RQ11*%
X139544200Y-127645199D03*
X140564200Y-127645201D03*
%TD*%
D28*
%TO.C,CU16*%
X120472200Y-132168599D03*
X120472200Y-133718601D03*
%TD*%
D29*
%TO.C,RSW11*%
X178206401Y-128928400D03*
X178206399Y-129948400D03*
%TD*%
D20*
%TO.C,CU25*%
X168910000Y-135079800D03*
X168910000Y-136039800D03*
%TD*%
D31*
%TO.C,RU16*%
X113870100Y-124536200D03*
X115695100Y-124536200D03*
%TD*%
D24*
%TO.C,RSW22*%
X191010000Y-123240801D03*
X189990000Y-123240799D03*
%TD*%
D23*
%TO.C,H4*%
X212344000Y-141840000D03*
%TD*%
D32*
%TO.C,RU22*%
X157226000Y-124182500D03*
X157226000Y-126007500D03*
%TD*%
D30*
%TO.C,RQ31*%
X139518800Y-131734600D03*
X140538800Y-131734600D03*
%TD*%
%TO.C,RU31*%
X198829200Y-129082799D03*
X199849200Y-129082801D03*
%TD*%
D31*
%TO.C,RU11*%
X113870100Y-126187200D03*
X115695100Y-126187200D03*
%TD*%
D33*
%TO.C,CU17*%
X120037800Y-130759200D03*
X119077800Y-130759200D03*
%TD*%
D34*
%TO.C,RD13*%
X132841999Y-133225000D03*
X132842001Y-132205000D03*
%TD*%
D35*
%TO.C,U6*%
X109580400Y-128788400D03*
X109580400Y-129438400D03*
X109580400Y-130088400D03*
X111450400Y-130088400D03*
X111450400Y-129438400D03*
X111450400Y-128788400D03*
%TD*%
D36*
%TO.C,J2*%
X212344000Y-125838000D03*
D37*
X212344000Y-128378000D03*
X212344000Y-130918000D03*
X212344000Y-133458000D03*
%TD*%
D38*
%TO.C,D2*%
X101625502Y-123190001D03*
X100050498Y-123189999D03*
%TD*%
D36*
%TO.C,J3*%
X153290001Y-145009000D03*
D37*
X155830001Y-145009000D03*
X158370001Y-145009000D03*
X160910001Y-145009000D03*
X163450001Y-145009000D03*
X165990001Y-145009000D03*
X168530001Y-145009000D03*
X171070001Y-145009000D03*
X173610001Y-145009000D03*
X176150001Y-145009000D03*
X178690001Y-145009000D03*
%TD*%
D32*
%TO.C,RU33*%
X198678800Y-125681100D03*
X198678800Y-127506100D03*
%TD*%
D39*
%TO.C,SW2*%
X188722000Y-133350000D03*
X189992000Y-133350000D03*
X188722000Y-125730000D03*
X189992000Y-125730000D03*
%TD*%
D22*
%TO.C,CU23*%
X161975800Y-123822400D03*
X161975800Y-122862400D03*
%TD*%
D40*
%TO.C,CU51*%
X119112999Y-142367000D03*
X120663001Y-142367000D03*
%TD*%
D27*
%TO.C,CU22*%
X160502600Y-123990401D03*
X160502600Y-122440399D03*
%TD*%
D19*
%TO.C,U5*%
X121083199Y-140461299D03*
X121083200Y-138561300D03*
X118083200Y-139511300D03*
%TD*%
D30*
%TO.C,RQ21*%
X139544200Y-123606600D03*
X140564200Y-123606600D03*
%TD*%
D28*
%TO.C,CU28*%
X160528000Y-134403799D03*
X160528000Y-135953801D03*
%TD*%
D20*
%TO.C,CY22*%
X148742400Y-131244400D03*
X148742400Y-132204400D03*
%TD*%
D32*
%TO.C,RU12*%
X112166400Y-124436500D03*
X112166400Y-126261500D03*
%TD*%
D30*
%TO.C,RSW32*%
X187704000Y-123240800D03*
X188724000Y-123240800D03*
%TD*%
D34*
%TO.C,RD12*%
X132841999Y-125224000D03*
X132842001Y-124204000D03*
%TD*%
D21*
%TO.C,CU32*%
X195404800Y-131216400D03*
X196364800Y-131216400D03*
%TD*%
D38*
%TO.C,D3*%
X101600002Y-137668001D03*
X100024998Y-137667999D03*
%TD*%
D33*
%TO.C,CY12*%
X153134000Y-129413000D03*
X152174000Y-129413000D03*
%TD*%
D34*
%TO.C,RSW12*%
X177114199Y-130964400D03*
X177114201Y-129944400D03*
%TD*%
%TO.C,RD11*%
X132841999Y-129288000D03*
X132842001Y-128268000D03*
%TD*%
D20*
%TO.C,CU29*%
X159080200Y-134698800D03*
X159080200Y-135658800D03*
%TD*%
D30*
%TO.C,RSW31*%
X187704000Y-135712200D03*
X188724000Y-135712200D03*
%TD*%
%TO.C,RU13*%
X126210600Y-125729999D03*
X127230600Y-125730001D03*
%TD*%
D24*
%TO.C,RU32*%
X196166200Y-126669801D03*
X195146200Y-126669799D03*
%TD*%
D32*
%TO.C,RY21*%
X142900401Y-129105900D03*
X142900401Y-130930900D03*
%TD*%
D41*
%TO.C,JP1*%
X157211000Y-138684000D03*
D42*
X158511000Y-138684000D03*
%TD*%
D32*
%TO.C,RY11*%
X150622000Y-126595500D03*
X150622000Y-128420500D03*
%TD*%
%TO.C,RU34*%
X198755000Y-131269100D03*
X198755000Y-133094100D03*
%TD*%
D29*
%TO.C,RU35*%
X193929000Y-129842800D03*
X193928998Y-130862800D03*
%TD*%
D43*
%TO.C,YU22*%
X145948401Y-132050400D03*
X145948399Y-128350400D03*
%TD*%
D19*
%TO.C,U4*%
X121108601Y-120141299D03*
X121108600Y-118241300D03*
X118108600Y-119191300D03*
%TD*%
D24*
%TO.C,RD41*%
X104142000Y-121412001D03*
X103122000Y-121411999D03*
%TD*%
D44*
%TO.C,SW1*%
X184399397Y-126963802D03*
X184399397Y-132963800D03*
X180649401Y-126963800D03*
X180649401Y-132963798D03*
%TD*%
D28*
%TO.C,CU12*%
X116052600Y-132270199D03*
X116052600Y-133820201D03*
%TD*%
D20*
%TO.C,CU15*%
X122961400Y-128831400D03*
X122961400Y-129791400D03*
%TD*%
D24*
%TO.C,RQ32*%
X140538800Y-133614201D03*
X139518800Y-133614199D03*
%TD*%
D19*
%TO.C,Q3*%
X137693400Y-133624398D03*
X137693400Y-131724400D03*
X134693400Y-132674400D03*
%TD*%
D45*
%TO.C,YU21*%
X152654000Y-128208000D03*
X152654000Y-126808000D03*
%TD*%
D46*
%TO.C,U2*%
X161827500Y-126590000D03*
X161827500Y-127090000D03*
X161827500Y-127590000D03*
X161827500Y-128090000D03*
X161827500Y-128590000D03*
X161827500Y-129090000D03*
X161827500Y-129590000D03*
X161827500Y-130090000D03*
X161827500Y-130590000D03*
X161827500Y-131090000D03*
X161827500Y-131590000D03*
X161827500Y-132090000D03*
D47*
X163240000Y-133502500D03*
X163740000Y-133502500D03*
X164240000Y-133502500D03*
X164740000Y-133502500D03*
X165240000Y-133502500D03*
X165740000Y-133502500D03*
X166240000Y-133502500D03*
X166740000Y-133502500D03*
X167240000Y-133502500D03*
X167740000Y-133502500D03*
X168240000Y-133502500D03*
X168740000Y-133502500D03*
D46*
X170152500Y-132090000D03*
X170152500Y-131590000D03*
X170152500Y-131090000D03*
X170152500Y-130590000D03*
X170152500Y-130090000D03*
X170152500Y-129590000D03*
X170152500Y-129090000D03*
X170152500Y-128590000D03*
X170152500Y-128090000D03*
X170152500Y-127590000D03*
X170152500Y-127090000D03*
X170152500Y-126590000D03*
D47*
X168740000Y-125177500D03*
X168240000Y-125177500D03*
X167740000Y-125177500D03*
X167240000Y-125177500D03*
X166740000Y-125177500D03*
X166240000Y-125177500D03*
X165740000Y-125177500D03*
X165240000Y-125177500D03*
X164740000Y-125177500D03*
X164240000Y-125177500D03*
X163740000Y-125177500D03*
X163240000Y-125177500D03*
%TD*%
D21*
%TO.C,CU24*%
X171859000Y-126390400D03*
X172819000Y-126390400D03*
%TD*%
D24*
%TO.C,RSW21*%
X191086200Y-135712201D03*
X190066200Y-135712199D03*
%TD*%
D48*
%TO.C,U1*%
X120098999Y-128653503D03*
X120099000Y-128253500D03*
X120099001Y-127853503D03*
X120099000Y-127453500D03*
X120099000Y-127053498D03*
X117899001Y-127053497D03*
X117899000Y-127453500D03*
X117898999Y-127853497D03*
X117899000Y-128253500D03*
X117899000Y-128653502D03*
D49*
X118999000Y-127853500D03*
%TD*%
D23*
%TO.C,H3*%
X102344000Y-141840000D03*
%TD*%
D50*
%TO.C,RU21*%
X166243000Y-120927500D03*
X166243000Y-119102500D03*
%TD*%
D51*
%TO.C,J1*%
X105744502Y-125860250D03*
D52*
X105744502Y-133060250D03*
D53*
X106404502Y-126710247D03*
X106404499Y-127210251D03*
X106404503Y-127710249D03*
X106404502Y-128210249D03*
X106404507Y-128710251D03*
X106404501Y-129210250D03*
X106404502Y-129710250D03*
X106404502Y-130210250D03*
X106404504Y-130710251D03*
X106404501Y-131210250D03*
X106404502Y-131710254D03*
X106404502Y-132210252D03*
X104704502Y-131960246D03*
X104704502Y-131460248D03*
X104704502Y-130960250D03*
X104704501Y-130460251D03*
X104704501Y-129960253D03*
X104704501Y-129460248D03*
X104704504Y-128960251D03*
X104704501Y-128460252D03*
X104704502Y-127960249D03*
X104704504Y-127460246D03*
X104704504Y-126960249D03*
X104704502Y-126460249D03*
D54*
X104494508Y-125330251D03*
X104494502Y-133590250D03*
X98544502Y-133950250D03*
X98544502Y-124970250D03*
%TD*%
D36*
%TO.C,J4*%
X153290001Y-114046000D03*
D37*
X155830001Y-114046000D03*
X158370001Y-114046000D03*
X160910001Y-114046000D03*
X163450001Y-114046000D03*
X165990001Y-114046000D03*
X168530001Y-114046000D03*
X171070001Y-114046000D03*
X173610001Y-114046000D03*
X176150001Y-114046000D03*
X178690001Y-114046000D03*
%TD*%
D24*
%TO.C,RQ22*%
X140564200Y-125486201D03*
X139544200Y-125486199D03*
%TD*%
D33*
%TO.C,CY11*%
X153134000Y-125603000D03*
X152174000Y-125603000D03*
%TD*%
D28*
%TO.C,CU42*%
X123418600Y-118509298D03*
X123418600Y-120059300D03*
%TD*%
D21*
%TO.C,CU13*%
X118061800Y-129717800D03*
X119021800Y-129717800D03*
%TD*%
D38*
%TO.C,D5*%
X101600000Y-135636000D03*
X100024996Y-135635998D03*
%TD*%
%TO.C,D4*%
X101625502Y-121412001D03*
X100050498Y-121411999D03*
%TD*%
D40*
%TO.C,CU31*%
X195059000Y-132486400D03*
X196609000Y-132486400D03*
%TD*%
D28*
%TO.C,CU11*%
X117627400Y-132270199D03*
X117627400Y-133820201D03*
%TD*%
D24*
%TO.C,RD31*%
X104116499Y-137414001D03*
X103096499Y-137413999D03*
%TD*%
D19*
%TO.C,Q2*%
X137693399Y-125496399D03*
X137693400Y-123596400D03*
X134693400Y-124546400D03*
%TD*%
D55*
%TO.C,BT1*%
X128140000Y-129340000D03*
X204140001Y-129339998D03*
%TD*%
%LPD*%
M02*
