%TF.GenerationSoftware,KiCad,Pcbnew,8.0.8*%
%TF.CreationDate,2025-02-17T13:53:59-05:00*%
%TF.ProjectId,flashlight-stm32-dev,666c6173-686c-4696-9768-742d73746d33,rev?*%
%TF.SameCoordinates,Original*%
%TF.FileFunction,Soldermask,Bot*%
%TF.FilePolarity,Negative*%
%FSLAX46Y46*%
G04 Gerber Fmt 4.6, Leading zero omitted, Abs format (unit mm)*
G04 Created by KiCad (PCBNEW 8.0.8) date 2025-02-17 13:53:59*
%MOMM*%
%LPD*%
G01*
G04 APERTURE LIST*
G04 Aperture macros list*
%AMRoundRect*
0 Rectangle with rounded corners*
0 $1 Rounding radius*
0 $2 $3 $4 $5 $6 $7 $8 $9 X,Y pos of 4 corners*
0 Add a 4 corners polygon primitive as box body*
4,1,4,$2,$3,$4,$5,$6,$7,$8,$9,$2,$3,0*
0 Add four circle primitives for the rounded corners*
1,1,$1+$1,$2,$3*
1,1,$1+$1,$4,$5*
1,1,$1+$1,$6,$7*
1,1,$1+$1,$8,$9*
0 Add four rect primitives between the rounded corners*
20,1,$1+$1,$2,$3,$4,$5,0*
20,1,$1+$1,$4,$5,$6,$7,0*
20,1,$1+$1,$6,$7,$8,$9,0*
20,1,$1+$1,$8,$9,$2,$3,0*%
G04 Aperture macros list end*
%ADD10C,5.400000*%
%ADD11RoundRect,0.450000X0.450000X-0.450000X0.450000X0.450000X-0.450000X0.450000X-0.450000X-0.450000X0*%
%ADD12C,1.800000*%
%ADD13R,1.700000X1.700000*%
%ADD14O,1.700000X1.700000*%
%ADD15C,0.675000*%
%ADD16C,0.650000*%
%ADD17O,1.804000X1.004000*%
%ADD18C,3.000000*%
G04 APERTURE END LIST*
D10*
%TO.C,H1*%
X102344000Y-116840000D03*
%TD*%
D11*
%TO.C,D1*%
X108838999Y-119253000D03*
D12*
X110363000Y-117475000D03*
X108838999Y-115951000D03*
X110363000Y-114427001D03*
%TD*%
D10*
%TO.C,H2*%
X212344000Y-116840000D03*
%TD*%
%TO.C,H4*%
X212344000Y-141840000D03*
%TD*%
D13*
%TO.C,J2*%
X212344000Y-125838000D03*
D14*
X212344000Y-128378000D03*
X212344000Y-130918000D03*
X212344000Y-133458000D03*
%TD*%
D13*
%TO.C,J3*%
X153290001Y-145009000D03*
D14*
X155830001Y-145009000D03*
X158370001Y-145009000D03*
X160910001Y-145009000D03*
X163450001Y-145009000D03*
X165990001Y-145009000D03*
X168530001Y-145009000D03*
X171070001Y-145009000D03*
X173610001Y-145009000D03*
X176150001Y-145009000D03*
X178690001Y-145009000D03*
%TD*%
D10*
%TO.C,H3*%
X102344000Y-141840000D03*
%TD*%
D15*
%TO.C,J1*%
X105744502Y-125860250D03*
D16*
X105744502Y-133060250D03*
D17*
X104494508Y-125330251D03*
X104494502Y-133590250D03*
X98544502Y-133950250D03*
X98544502Y-124970250D03*
%TD*%
D13*
%TO.C,J4*%
X153290001Y-114046000D03*
D14*
X155830001Y-114046000D03*
X158370001Y-114046000D03*
X160910001Y-114046000D03*
X163450001Y-114046000D03*
X165990001Y-114046000D03*
X168530001Y-114046000D03*
X171070001Y-114046000D03*
X173610001Y-114046000D03*
X176150001Y-114046000D03*
X178690001Y-114046000D03*
%TD*%
D18*
%TO.C,BT1*%
X128140000Y-129340000D03*
X204140001Y-129339998D03*
%TD*%
M02*
