%TF.GenerationSoftware,KiCad,Pcbnew,8.0.8*%
%TF.CreationDate,2025-03-20T23:22:12-04:00*%
%TF.ProjectId,flashlight-stm32-dev,666c6173-686c-4696-9768-742d73746d33,rev?*%
%TF.SameCoordinates,Original*%
%TF.FileFunction,Legend,Top*%
%TF.FilePolarity,Positive*%
%FSLAX46Y46*%
G04 Gerber Fmt 4.6, Leading zero omitted, Abs format (unit mm)*
G04 Created by KiCad (PCBNEW 8.0.8) date 2025-03-20 23:22:12*
%MOMM*%
%LPD*%
G01*
G04 APERTURE LIST*
G04 Aperture macros list*
%AMRoundRect*
0 Rectangle with rounded corners*
0 $1 Rounding radius*
0 $2 $3 $4 $5 $6 $7 $8 $9 X,Y pos of 4 corners*
0 Add a 4 corners polygon primitive as box body*
4,1,4,$2,$3,$4,$5,$6,$7,$8,$9,$2,$3,0*
0 Add four circle primitives for the rounded corners*
1,1,$1+$1,$2,$3*
1,1,$1+$1,$4,$5*
1,1,$1+$1,$6,$7*
1,1,$1+$1,$8,$9*
0 Add four rect primitives between the rounded corners*
20,1,$1+$1,$2,$3,$4,$5,0*
20,1,$1+$1,$4,$5,$6,$7,0*
20,1,$1+$1,$6,$7,$8,$9,0*
20,1,$1+$1,$8,$9,$2,$3,0*%
%AMFreePoly0*
4,1,19,0.500000,-0.750000,0.000000,-0.750000,0.000000,-0.744911,-0.071157,-0.744911,-0.207708,-0.704816,-0.327430,-0.627875,-0.420627,-0.520320,-0.479746,-0.390866,-0.500000,-0.250000,-0.500000,0.250000,-0.479746,0.390866,-0.420627,0.520320,-0.327430,0.627875,-0.207708,0.704816,-0.071157,0.744911,0.000000,0.744911,0.000000,0.750000,0.500000,0.750000,0.500000,-0.750000,0.500000,-0.750000,
$1*%
%AMFreePoly1*
4,1,19,0.000000,0.744911,0.071157,0.744911,0.207708,0.704816,0.327430,0.627875,0.420627,0.520320,0.479746,0.390866,0.500000,0.250000,0.500000,-0.250000,0.479746,-0.390866,0.420627,-0.520320,0.327430,-0.627875,0.207708,-0.704816,0.071157,-0.744911,0.000000,-0.744911,0.000000,-0.750000,-0.500000,-0.750000,-0.500000,0.750000,0.000000,0.750000,0.000000,0.744911,0.000000,0.744911,
$1*%
G04 Aperture macros list end*
%ADD10C,0.317166*%
%ADD11C,0.152400*%
%ADD12C,0.838200*%
%ADD13C,0.150000*%
%ADD14C,0.254000*%
%ADD15C,0.200000*%
%ADD16C,0.100000*%
%ADD17C,0.120000*%
%ADD18C,0.250000*%
%ADD19C,0.141418*%
%ADD20C,0.127000*%
%ADD21R,0.760000X1.270000*%
%ADD22C,2.600000*%
%ADD23RoundRect,0.200000X0.750000X0.200000X-0.750000X0.200000X-0.750000X-0.200000X0.750000X-0.200000X0*%
%ADD24RoundRect,0.140000X-0.170000X0.140000X-0.170000X-0.140000X0.170000X-0.140000X0.170000X0.140000X0*%
%ADD25RoundRect,0.140000X-0.140000X-0.170000X0.140000X-0.170000X0.140000X0.170000X-0.140000X0.170000X0*%
%ADD26RoundRect,0.140000X0.170000X-0.140000X0.170000X0.140000X-0.170000X0.140000X-0.170000X-0.140000X0*%
%ADD27C,5.400000*%
%ADD28RoundRect,0.135000X0.135000X0.185000X-0.135000X0.185000X-0.135000X-0.185000X0.135000X-0.185000X0*%
%ADD29R,0.600000X0.700000*%
%ADD30RoundRect,0.135000X-0.185000X0.135000X-0.185000X-0.135000X0.185000X-0.135000X0.185000X0.135000X0*%
%ADD31RoundRect,0.237500X0.237500X-0.250000X0.237500X0.250000X-0.237500X0.250000X-0.237500X-0.250000X0*%
%ADD32RoundRect,0.225000X0.250000X-0.225000X0.250000X0.225000X-0.250000X0.225000X-0.250000X-0.225000X0*%
%ADD33RoundRect,0.225000X-0.250000X0.225000X-0.250000X-0.225000X0.250000X-0.225000X0.250000X0.225000X0*%
%ADD34C,2.000000*%
%ADD35RoundRect,0.135000X-0.135000X-0.185000X0.135000X-0.185000X0.135000X0.185000X-0.135000X0.185000X0*%
%ADD36RoundRect,0.237500X-0.250000X-0.237500X0.250000X-0.237500X0.250000X0.237500X-0.250000X0.237500X0*%
%ADD37RoundRect,0.237500X0.237500X-0.300000X0.237500X0.300000X-0.237500X0.300000X-0.237500X-0.300000X0*%
%ADD38RoundRect,0.140000X0.140000X0.170000X-0.140000X0.170000X-0.140000X-0.170000X0.140000X-0.170000X0*%
%ADD39RoundRect,0.135000X0.185000X-0.135000X0.185000X0.135000X-0.185000X0.135000X-0.185000X-0.135000X0*%
%ADD40RoundRect,0.148500X-0.483500X-0.148500X0.483500X-0.148500X0.483500X0.148500X-0.483500X0.148500X0*%
%ADD41R,1.700000X1.700000*%
%ADD42O,1.700000X1.700000*%
%ADD43RoundRect,0.218750X0.218750X0.256250X-0.218750X0.256250X-0.218750X-0.256250X0.218750X-0.256250X0*%
%ADD44RoundRect,0.225000X-0.225000X-0.250000X0.225000X-0.250000X0.225000X0.250000X-0.225000X0.250000X0*%
%ADD45RoundRect,0.237500X-0.237500X0.250000X-0.237500X-0.250000X0.237500X-0.250000X0.237500X0.250000X0*%
%ADD46FreePoly0,0.000000*%
%ADD47FreePoly1,0.000000*%
%ADD48R,2.400000X2.000000*%
%ADD49R,0.750000X1.000000*%
%ADD50R,1.100000X0.600000*%
%ADD51RoundRect,0.075000X-0.662500X-0.075000X0.662500X-0.075000X0.662500X0.075000X-0.662500X0.075000X0*%
%ADD52RoundRect,0.075000X-0.075000X-0.662500X0.075000X-0.662500X0.075000X0.662500X-0.075000X0.662500X0*%
%ADD53RoundRect,0.102000X0.300000X0.150000X-0.300000X0.150000X-0.300000X-0.150000X0.300000X-0.150000X0*%
%ADD54RoundRect,0.102000X0.150000X0.300000X-0.150000X0.300000X-0.150000X-0.300000X0.150000X-0.300000X0*%
%ADD55R,0.750000X0.200000*%
%ADD56R,1.000000X1.600000*%
%ADD57C,0.675000*%
%ADD58C,0.650000*%
%ADD59RoundRect,0.102000X-0.350000X0.150000X-0.350000X-0.150000X0.350000X-0.150000X0.350000X0.150000X0*%
%ADD60O,1.804000X1.004000*%
%ADD61RoundRect,0.225000X0.225000X0.250000X-0.225000X0.250000X-0.225000X-0.250000X0.225000X-0.250000X0*%
%ADD62C,3.000000*%
G04 APERTURE END LIST*
D10*
X97999383Y-78613000D02*
G75*
G02*
X97682217Y-78613000I-158583J0D01*
G01*
X97682217Y-78613000D02*
G75*
G02*
X97999383Y-78613000I158583J0D01*
G01*
X100082183Y-91135200D02*
G75*
G02*
X99765017Y-91135200I-158583J0D01*
G01*
X99765017Y-91135200D02*
G75*
G02*
X100082183Y-91135200I158583J0D01*
G01*
D11*
X201574400Y-93078300D02*
X207162400Y-93078300D01*
X188848999Y-103123999D02*
X189357000Y-102489000D01*
X201472800Y-90525600D02*
X207060800Y-90525600D01*
X165184801Y-76200702D02*
X165184799Y-82539700D01*
X162631598Y-82539700D01*
X162631597Y-76200700D01*
X165184801Y-76200702D01*
X89255600Y-98298000D02*
G75*
G02*
X89509600Y-98044000I254000J0D01*
G01*
X162644800Y-76190401D02*
X162644800Y-82529402D01*
X160091600Y-82529400D01*
X160091600Y-76190400D01*
X162644800Y-76190401D01*
X89255600Y-101854000D02*
X89255600Y-98298000D01*
X182473600Y-84328000D02*
X197713600Y-84328000D01*
X176685600Y-84328000D02*
X182473600Y-84328000D01*
X182542985Y-106172000D02*
X197782985Y-106172000D01*
X145009601Y-103378000D02*
X147523200Y-103378000D01*
X147523200Y-109758200D01*
X145009601Y-109758200D01*
X145009601Y-103378000D01*
X174117000Y-109778800D02*
X167690800Y-109783600D01*
X167736800Y-107087400D01*
X174117000Y-107087400D01*
X174117000Y-109778800D01*
X154998399Y-76180100D02*
X157551600Y-76180100D01*
X157551600Y-81706300D01*
X154998399Y-81706300D01*
X154998399Y-76180100D01*
X197713600Y-84328000D02*
G75*
G02*
X197967600Y-84582000I0J-254000D01*
G01*
X89255600Y-100076000D02*
X100939600Y-100076000D01*
X194056000Y-101663499D02*
X193548000Y-101663501D01*
X189357000Y-103124000D02*
X188848999Y-103123999D01*
X157538399Y-76190400D02*
X160091600Y-76190400D01*
X160091600Y-82529400D01*
X157538399Y-82529400D01*
X157538399Y-76190400D01*
X188341000Y-105156000D02*
X190373000Y-105156000D01*
X100939600Y-101854000D02*
G75*
G02*
X100685600Y-102108000I-254000J0D01*
G01*
X147524201Y-103378000D02*
X150037800Y-103378000D01*
X150037800Y-109758200D01*
X147524201Y-109758200D01*
X147524201Y-103378000D01*
X169811215Y-84582000D02*
G75*
G02*
X170065215Y-84328015I253985J0D01*
G01*
X155093401Y-102641400D02*
X157607000Y-102641400D01*
X157607000Y-109783600D01*
X155093401Y-109783600D01*
X155093401Y-102641400D01*
X162662601Y-102641400D02*
X165176200Y-102641400D01*
X165176200Y-109783600D01*
X162662601Y-109783600D01*
X162662601Y-102641400D01*
X182473600Y-84328000D02*
X182542985Y-106172000D01*
X195580000Y-103759000D02*
X196215000Y-104267000D01*
X197967600Y-84582000D02*
X198036985Y-105918000D01*
X142409601Y-103403400D02*
X145009601Y-103403400D01*
X145009601Y-109763000D01*
X142409601Y-109763000D01*
X142409601Y-103403400D01*
X167630800Y-82560298D02*
X165184801Y-82560301D01*
X165184801Y-76200702D01*
X167630800Y-76200699D01*
X167630800Y-82560298D01*
X188341000Y-104140000D02*
X190373000Y-104140000D01*
X89255600Y-85598000D02*
X100939600Y-85598000D01*
X176685600Y-106172000D02*
X170065215Y-106172000D01*
X142413200Y-76149200D02*
X145013200Y-76149200D01*
X145013200Y-82508800D01*
X142413200Y-82508800D01*
X142413200Y-76149200D01*
X139674600Y-98425000D02*
X139674600Y-84963000D01*
X195580000Y-104267000D02*
X195580000Y-103759000D01*
X198036985Y-105918000D02*
G75*
G02*
X197782985Y-106171985I-253985J0D01*
G01*
X169900600Y-99949000D02*
X182473600Y-99949000D01*
X170434000Y-82550000D02*
X167630800Y-82560298D01*
X167630800Y-76200699D01*
X170469601Y-76140000D01*
X170434000Y-82550000D01*
X190373000Y-104140000D02*
X190373000Y-105156000D01*
X176685600Y-105918000D02*
X176685600Y-84328000D01*
X152552400Y-76159500D02*
X154998399Y-76159500D01*
X154998399Y-82519100D01*
X152552400Y-82519100D01*
X152552400Y-76159500D01*
X89509600Y-102108000D02*
G75*
G02*
X89255600Y-101854000I0J254000D01*
G01*
X179705000Y-106172000D02*
X179705000Y-84353400D01*
X89509600Y-87630000D02*
G75*
G02*
X89255600Y-87376000I0J254000D01*
G01*
X193548000Y-104203500D02*
X193548000Y-101663501D01*
X89255600Y-83820000D02*
G75*
G02*
X89509600Y-83566000I254000J0D01*
G01*
X131927600Y-84836000D02*
X144373600Y-84836000D01*
X144373600Y-98425000D01*
X131927600Y-98425000D01*
X131927600Y-84836000D01*
X189357000Y-104140000D02*
X189357000Y-103124000D01*
X100939600Y-98298000D02*
X100939600Y-101854000D01*
X100685600Y-98044000D02*
G75*
G02*
X100939600Y-98298000I0J-254000D01*
G01*
X89255600Y-87376000D02*
X89255600Y-83820000D01*
X189357000Y-102489000D02*
X189865000Y-103123998D01*
X193548000Y-104267000D02*
X195580000Y-104267000D01*
X170065215Y-106172000D02*
G75*
G02*
X169811200Y-105918000I-15J254000D01*
G01*
X182542985Y-106172000D02*
X176685600Y-106172000D01*
X100685600Y-102108000D02*
X89509600Y-102108000D01*
X193039999Y-101663500D02*
X193548000Y-101028501D01*
X157608001Y-102641400D02*
X160121600Y-102641400D01*
X160121600Y-109783600D01*
X157608001Y-109783600D01*
X157608001Y-102641400D01*
X198983600Y-87934800D02*
X201463600Y-87934800D01*
X201463600Y-98221800D01*
X198983600Y-98221800D01*
X198983600Y-87934800D01*
X160122601Y-102641400D02*
X162636200Y-102641400D01*
X162636200Y-109783600D01*
X160122601Y-109783600D01*
X160122601Y-102641400D01*
X169811215Y-105918000D02*
X169811215Y-84582000D01*
X193548000Y-101663501D02*
X193039999Y-101663500D01*
X100685600Y-87630000D02*
X89509600Y-87630000D01*
X188341000Y-105156000D02*
X188341000Y-104140000D01*
X201463600Y-87934800D02*
X207162400Y-87934800D01*
X207162400Y-98221800D01*
X201463600Y-98221800D01*
X201463600Y-87934800D01*
X142409601Y-109763000D02*
X139869601Y-109763000D01*
X139877800Y-103403400D01*
X142409601Y-103403400D01*
X142409601Y-109763000D01*
X170065215Y-84328000D02*
X176685600Y-84328000D01*
X89509600Y-98044000D02*
X100685600Y-98044000D01*
X147459199Y-76169800D02*
X150012400Y-76169800D01*
X150012400Y-82508800D01*
X147459199Y-82508800D01*
X147459199Y-76169800D01*
X145013200Y-76149200D02*
X147459199Y-76149200D01*
X147459199Y-82508800D01*
X145013200Y-82508800D01*
X145013200Y-76149200D01*
X89509600Y-83566000D02*
X100685600Y-83566000D01*
X152578801Y-102641400D02*
X155092400Y-102641400D01*
X155092400Y-109783600D01*
X152578801Y-109783600D01*
X152578801Y-102641400D01*
X189865000Y-103123998D02*
X189357000Y-103124000D01*
X201472800Y-95631000D02*
X207060800Y-95631000D01*
X100939600Y-83820000D02*
X100939600Y-87376000D01*
X142469601Y-76140000D02*
X142427000Y-82498503D01*
X139826999Y-82498500D01*
X139827001Y-76138902D01*
X142469601Y-76140000D01*
D12*
X193967100Y-104267000D02*
G75*
G02*
X193128900Y-104267000I-419100J0D01*
G01*
X193128900Y-104267000D02*
G75*
G02*
X193967100Y-104267000I419100J0D01*
G01*
D11*
X165177201Y-102641400D02*
X167690800Y-102641400D01*
X167690800Y-109783600D01*
X165177201Y-109783600D01*
X165177201Y-102641400D01*
X150065202Y-102641400D02*
X152578801Y-102641400D01*
X152578801Y-109783600D01*
X150065202Y-109783600D01*
X150065202Y-102641400D01*
X193548000Y-101028501D02*
X194056000Y-101663499D01*
X186817000Y-105156000D02*
X186847480Y-105156000D01*
X187457080Y-105156000D02*
X187487560Y-105156000D01*
X188097160Y-105156000D02*
X188127640Y-105156000D01*
X188737240Y-105156000D02*
X188767720Y-105156000D01*
X189377320Y-105156000D02*
X189407800Y-105156000D01*
X190017400Y-105156000D02*
X190047880Y-105156000D01*
X190657480Y-105156000D02*
X190687960Y-105156000D01*
X191297560Y-105156000D02*
X191328040Y-105156000D01*
X191937640Y-105156000D02*
X191968120Y-105156000D01*
X195580000Y-104775000D02*
X195580000Y-104267000D01*
X100939600Y-87376000D02*
G75*
G02*
X100685600Y-87630000I-254000J0D01*
G01*
X100685600Y-83566000D02*
G75*
G02*
X100939600Y-83820000I0J-254000D01*
G01*
X149999199Y-76180100D02*
X152552400Y-76180100D01*
X152552400Y-82519100D01*
X149999199Y-82519100D01*
X149999199Y-76180100D01*
X196215000Y-104267000D02*
X195580000Y-104775000D01*
X102966335Y-81144660D02*
X102482526Y-81483327D01*
X102966335Y-81725232D02*
X101950335Y-81725232D01*
X101950335Y-81725232D02*
X101950335Y-81338184D01*
X101950335Y-81338184D02*
X101998716Y-81241422D01*
X101998716Y-81241422D02*
X102047097Y-81193041D01*
X102047097Y-81193041D02*
X102143859Y-81144660D01*
X102143859Y-81144660D02*
X102289002Y-81144660D01*
X102289002Y-81144660D02*
X102385764Y-81193041D01*
X102385764Y-81193041D02*
X102434145Y-81241422D01*
X102434145Y-81241422D02*
X102482526Y-81338184D01*
X102482526Y-81338184D02*
X102482526Y-81725232D01*
X101998716Y-80177041D02*
X101950335Y-80273803D01*
X101950335Y-80273803D02*
X101950335Y-80418946D01*
X101950335Y-80418946D02*
X101998716Y-80564089D01*
X101998716Y-80564089D02*
X102095478Y-80660851D01*
X102095478Y-80660851D02*
X102192240Y-80709232D01*
X102192240Y-80709232D02*
X102385764Y-80757613D01*
X102385764Y-80757613D02*
X102530907Y-80757613D01*
X102530907Y-80757613D02*
X102724431Y-80709232D01*
X102724431Y-80709232D02*
X102821193Y-80660851D01*
X102821193Y-80660851D02*
X102917955Y-80564089D01*
X102917955Y-80564089D02*
X102966335Y-80418946D01*
X102966335Y-80418946D02*
X102966335Y-80322184D01*
X102966335Y-80322184D02*
X102917955Y-80177041D01*
X102917955Y-80177041D02*
X102869574Y-80128660D01*
X102869574Y-80128660D02*
X102530907Y-80128660D01*
X102530907Y-80128660D02*
X102530907Y-80322184D01*
X102676050Y-79741613D02*
X102676050Y-79257803D01*
X102966335Y-79838375D02*
X101950335Y-79499708D01*
X101950335Y-79499708D02*
X102966335Y-79161041D01*
X102434145Y-78483708D02*
X102482526Y-78338565D01*
X102482526Y-78338565D02*
X102530907Y-78290184D01*
X102530907Y-78290184D02*
X102627669Y-78241803D01*
X102627669Y-78241803D02*
X102772812Y-78241803D01*
X102772812Y-78241803D02*
X102869574Y-78290184D01*
X102869574Y-78290184D02*
X102917955Y-78338565D01*
X102917955Y-78338565D02*
X102966335Y-78435327D01*
X102966335Y-78435327D02*
X102966335Y-78822375D01*
X102966335Y-78822375D02*
X101950335Y-78822375D01*
X101950335Y-78822375D02*
X101950335Y-78483708D01*
X101950335Y-78483708D02*
X101998716Y-78386946D01*
X101998716Y-78386946D02*
X102047097Y-78338565D01*
X102047097Y-78338565D02*
X102143859Y-78290184D01*
X102143859Y-78290184D02*
X102240621Y-78290184D01*
X102240621Y-78290184D02*
X102337383Y-78338565D01*
X102337383Y-78338565D02*
X102385764Y-78386946D01*
X102385764Y-78386946D02*
X102434145Y-78483708D01*
X102434145Y-78483708D02*
X102434145Y-78822375D01*
D13*
X162671142Y-86211580D02*
X162623523Y-86259200D01*
X162623523Y-86259200D02*
X162480666Y-86306819D01*
X162480666Y-86306819D02*
X162385428Y-86306819D01*
X162385428Y-86306819D02*
X162242571Y-86259200D01*
X162242571Y-86259200D02*
X162147333Y-86163961D01*
X162147333Y-86163961D02*
X162099714Y-86068723D01*
X162099714Y-86068723D02*
X162052095Y-85878247D01*
X162052095Y-85878247D02*
X162052095Y-85735390D01*
X162052095Y-85735390D02*
X162099714Y-85544914D01*
X162099714Y-85544914D02*
X162147333Y-85449676D01*
X162147333Y-85449676D02*
X162242571Y-85354438D01*
X162242571Y-85354438D02*
X162385428Y-85306819D01*
X162385428Y-85306819D02*
X162480666Y-85306819D01*
X162480666Y-85306819D02*
X162623523Y-85354438D01*
X162623523Y-85354438D02*
X162671142Y-85402057D01*
X163099714Y-85783009D02*
X163433047Y-85783009D01*
X163575904Y-86306819D02*
X163099714Y-86306819D01*
X163099714Y-86306819D02*
X163099714Y-85306819D01*
X163099714Y-85306819D02*
X163575904Y-85306819D01*
D11*
X171638558Y-107942316D02*
X171541796Y-107893935D01*
X171541796Y-107893935D02*
X171396653Y-107893935D01*
X171396653Y-107893935D02*
X171251510Y-107942316D01*
X171251510Y-107942316D02*
X171154748Y-108039078D01*
X171154748Y-108039078D02*
X171106367Y-108135840D01*
X171106367Y-108135840D02*
X171057986Y-108329364D01*
X171057986Y-108329364D02*
X171057986Y-108474507D01*
X171057986Y-108474507D02*
X171106367Y-108668031D01*
X171106367Y-108668031D02*
X171154748Y-108764793D01*
X171154748Y-108764793D02*
X171251510Y-108861555D01*
X171251510Y-108861555D02*
X171396653Y-108909935D01*
X171396653Y-108909935D02*
X171493415Y-108909935D01*
X171493415Y-108909935D02*
X171638558Y-108861555D01*
X171638558Y-108861555D02*
X171686939Y-108813174D01*
X171686939Y-108813174D02*
X171686939Y-108474507D01*
X171686939Y-108474507D02*
X171493415Y-108474507D01*
X172122367Y-108909935D02*
X172122367Y-107893935D01*
X172122367Y-107893935D02*
X172702939Y-108909935D01*
X172702939Y-108909935D02*
X172702939Y-107893935D01*
X173186748Y-108909935D02*
X173186748Y-107893935D01*
X173186748Y-107893935D02*
X173428653Y-107893935D01*
X173428653Y-107893935D02*
X173573796Y-107942316D01*
X173573796Y-107942316D02*
X173670558Y-108039078D01*
X173670558Y-108039078D02*
X173718939Y-108135840D01*
X173718939Y-108135840D02*
X173767320Y-108329364D01*
X173767320Y-108329364D02*
X173767320Y-108474507D01*
X173767320Y-108474507D02*
X173718939Y-108668031D01*
X173718939Y-108668031D02*
X173670558Y-108764793D01*
X173670558Y-108764793D02*
X173573796Y-108861555D01*
X173573796Y-108861555D02*
X173428653Y-108909935D01*
X173428653Y-108909935D02*
X173186748Y-108909935D01*
X168905945Y-81465184D02*
X168954326Y-81320041D01*
X168954326Y-81320041D02*
X169002707Y-81271660D01*
X169002707Y-81271660D02*
X169099469Y-81223279D01*
X169099469Y-81223279D02*
X169244612Y-81223279D01*
X169244612Y-81223279D02*
X169341374Y-81271660D01*
X169341374Y-81271660D02*
X169389755Y-81320041D01*
X169389755Y-81320041D02*
X169438135Y-81416803D01*
X169438135Y-81416803D02*
X169438135Y-81803851D01*
X169438135Y-81803851D02*
X168422135Y-81803851D01*
X168422135Y-81803851D02*
X168422135Y-81465184D01*
X168422135Y-81465184D02*
X168470516Y-81368422D01*
X168470516Y-81368422D02*
X168518897Y-81320041D01*
X168518897Y-81320041D02*
X168615659Y-81271660D01*
X168615659Y-81271660D02*
X168712421Y-81271660D01*
X168712421Y-81271660D02*
X168809183Y-81320041D01*
X168809183Y-81320041D02*
X168857564Y-81368422D01*
X168857564Y-81368422D02*
X168905945Y-81465184D01*
X168905945Y-81465184D02*
X168905945Y-81803851D01*
X169438135Y-80255660D02*
X169438135Y-80836232D01*
X169438135Y-80545946D02*
X168422135Y-80545946D01*
X168422135Y-80545946D02*
X168567278Y-80642708D01*
X168567278Y-80642708D02*
X168664040Y-80739470D01*
X168664040Y-80739470D02*
X168712421Y-80836232D01*
X168518897Y-79868613D02*
X168470516Y-79820232D01*
X168470516Y-79820232D02*
X168422135Y-79723470D01*
X168422135Y-79723470D02*
X168422135Y-79481565D01*
X168422135Y-79481565D02*
X168470516Y-79384803D01*
X168470516Y-79384803D02*
X168518897Y-79336422D01*
X168518897Y-79336422D02*
X168615659Y-79288041D01*
X168615659Y-79288041D02*
X168712421Y-79288041D01*
X168712421Y-79288041D02*
X168857564Y-79336422D01*
X168857564Y-79336422D02*
X169438135Y-79916994D01*
X169438135Y-79916994D02*
X169438135Y-79288041D01*
D13*
X191468524Y-96800200D02*
X191611381Y-96847819D01*
X191611381Y-96847819D02*
X191849476Y-96847819D01*
X191849476Y-96847819D02*
X191944714Y-96800200D01*
X191944714Y-96800200D02*
X191992333Y-96752580D01*
X191992333Y-96752580D02*
X192039952Y-96657342D01*
X192039952Y-96657342D02*
X192039952Y-96562104D01*
X192039952Y-96562104D02*
X191992333Y-96466866D01*
X191992333Y-96466866D02*
X191944714Y-96419247D01*
X191944714Y-96419247D02*
X191849476Y-96371628D01*
X191849476Y-96371628D02*
X191659000Y-96324009D01*
X191659000Y-96324009D02*
X191563762Y-96276390D01*
X191563762Y-96276390D02*
X191516143Y-96228771D01*
X191516143Y-96228771D02*
X191468524Y-96133533D01*
X191468524Y-96133533D02*
X191468524Y-96038295D01*
X191468524Y-96038295D02*
X191516143Y-95943057D01*
X191516143Y-95943057D02*
X191563762Y-95895438D01*
X191563762Y-95895438D02*
X191659000Y-95847819D01*
X191659000Y-95847819D02*
X191897095Y-95847819D01*
X191897095Y-95847819D02*
X192039952Y-95895438D01*
X193039952Y-96752580D02*
X192992333Y-96800200D01*
X192992333Y-96800200D02*
X192849476Y-96847819D01*
X192849476Y-96847819D02*
X192754238Y-96847819D01*
X192754238Y-96847819D02*
X192611381Y-96800200D01*
X192611381Y-96800200D02*
X192516143Y-96704961D01*
X192516143Y-96704961D02*
X192468524Y-96609723D01*
X192468524Y-96609723D02*
X192420905Y-96419247D01*
X192420905Y-96419247D02*
X192420905Y-96276390D01*
X192420905Y-96276390D02*
X192468524Y-96085914D01*
X192468524Y-96085914D02*
X192516143Y-95990676D01*
X192516143Y-95990676D02*
X192611381Y-95895438D01*
X192611381Y-95895438D02*
X192754238Y-95847819D01*
X192754238Y-95847819D02*
X192849476Y-95847819D01*
X192849476Y-95847819D02*
X192992333Y-95895438D01*
X192992333Y-95895438D02*
X193039952Y-95943057D01*
X193944714Y-96847819D02*
X193468524Y-96847819D01*
X193468524Y-96847819D02*
X193468524Y-95847819D01*
D11*
X204588405Y-88691535D02*
X205217358Y-88691535D01*
X205217358Y-88691535D02*
X204878691Y-89078583D01*
X204878691Y-89078583D02*
X205023834Y-89078583D01*
X205023834Y-89078583D02*
X205120596Y-89126964D01*
X205120596Y-89126964D02*
X205168977Y-89175345D01*
X205168977Y-89175345D02*
X205217358Y-89272107D01*
X205217358Y-89272107D02*
X205217358Y-89514012D01*
X205217358Y-89514012D02*
X205168977Y-89610774D01*
X205168977Y-89610774D02*
X205120596Y-89659155D01*
X205120596Y-89659155D02*
X205023834Y-89707535D01*
X205023834Y-89707535D02*
X204733548Y-89707535D01*
X204733548Y-89707535D02*
X204636786Y-89659155D01*
X204636786Y-89659155D02*
X204588405Y-89610774D01*
X205652786Y-89610774D02*
X205701167Y-89659155D01*
X205701167Y-89659155D02*
X205652786Y-89707535D01*
X205652786Y-89707535D02*
X205604405Y-89659155D01*
X205604405Y-89659155D02*
X205652786Y-89610774D01*
X205652786Y-89610774D02*
X205652786Y-89707535D01*
X206039834Y-88691535D02*
X206668787Y-88691535D01*
X206668787Y-88691535D02*
X206330120Y-89078583D01*
X206330120Y-89078583D02*
X206475263Y-89078583D01*
X206475263Y-89078583D02*
X206572025Y-89126964D01*
X206572025Y-89126964D02*
X206620406Y-89175345D01*
X206620406Y-89175345D02*
X206668787Y-89272107D01*
X206668787Y-89272107D02*
X206668787Y-89514012D01*
X206668787Y-89514012D02*
X206620406Y-89610774D01*
X206620406Y-89610774D02*
X206572025Y-89659155D01*
X206572025Y-89659155D02*
X206475263Y-89707535D01*
X206475263Y-89707535D02*
X206184977Y-89707535D01*
X206184977Y-89707535D02*
X206088215Y-89659155D01*
X206088215Y-89659155D02*
X206039834Y-89610774D01*
X97447577Y-86100735D02*
X96963767Y-86100735D01*
X96963767Y-86100735D02*
X96915386Y-86584545D01*
X96915386Y-86584545D02*
X96963767Y-86536164D01*
X96963767Y-86536164D02*
X97060529Y-86487783D01*
X97060529Y-86487783D02*
X97302434Y-86487783D01*
X97302434Y-86487783D02*
X97399196Y-86536164D01*
X97399196Y-86536164D02*
X97447577Y-86584545D01*
X97447577Y-86584545D02*
X97495958Y-86681307D01*
X97495958Y-86681307D02*
X97495958Y-86923212D01*
X97495958Y-86923212D02*
X97447577Y-87019974D01*
X97447577Y-87019974D02*
X97399196Y-87068355D01*
X97399196Y-87068355D02*
X97302434Y-87116735D01*
X97302434Y-87116735D02*
X97060529Y-87116735D01*
X97060529Y-87116735D02*
X96963767Y-87068355D01*
X96963767Y-87068355D02*
X96915386Y-87019974D01*
X97786243Y-86100735D02*
X98124910Y-87116735D01*
X98124910Y-87116735D02*
X98463577Y-86100735D01*
X151469450Y-81707089D02*
X151469450Y-81223279D01*
X151759735Y-81803851D02*
X150743735Y-81465184D01*
X150743735Y-81465184D02*
X151759735Y-81126517D01*
X151759735Y-80255660D02*
X151759735Y-80836232D01*
X151759735Y-80545946D02*
X150743735Y-80545946D01*
X150743735Y-80545946D02*
X150888878Y-80642708D01*
X150888878Y-80642708D02*
X150985640Y-80739470D01*
X150985640Y-80739470D02*
X151034021Y-80836232D01*
X150743735Y-79336422D02*
X150743735Y-79820232D01*
X150743735Y-79820232D02*
X151227545Y-79868613D01*
X151227545Y-79868613D02*
X151179164Y-79820232D01*
X151179164Y-79820232D02*
X151130783Y-79723470D01*
X151130783Y-79723470D02*
X151130783Y-79481565D01*
X151130783Y-79481565D02*
X151179164Y-79384803D01*
X151179164Y-79384803D02*
X151227545Y-79336422D01*
X151227545Y-79336422D02*
X151324307Y-79288041D01*
X151324307Y-79288041D02*
X151566212Y-79288041D01*
X151566212Y-79288041D02*
X151662974Y-79336422D01*
X151662974Y-79336422D02*
X151711355Y-79384803D01*
X151711355Y-79384803D02*
X151759735Y-79481565D01*
X151759735Y-79481565D02*
X151759735Y-79723470D01*
X151759735Y-79723470D02*
X151711355Y-79820232D01*
X151711355Y-79820232D02*
X151662974Y-79868613D01*
D13*
X115363810Y-83274819D02*
X115982857Y-83274819D01*
X115982857Y-83274819D02*
X115649524Y-83655771D01*
X115649524Y-83655771D02*
X115792381Y-83655771D01*
X115792381Y-83655771D02*
X115887619Y-83703390D01*
X115887619Y-83703390D02*
X115935238Y-83751009D01*
X115935238Y-83751009D02*
X115982857Y-83846247D01*
X115982857Y-83846247D02*
X115982857Y-84084342D01*
X115982857Y-84084342D02*
X115935238Y-84179580D01*
X115935238Y-84179580D02*
X115887619Y-84227200D01*
X115887619Y-84227200D02*
X115792381Y-84274819D01*
X115792381Y-84274819D02*
X115506667Y-84274819D01*
X115506667Y-84274819D02*
X115411429Y-84227200D01*
X115411429Y-84227200D02*
X115363810Y-84179580D01*
X116411429Y-84179580D02*
X116459048Y-84227200D01*
X116459048Y-84227200D02*
X116411429Y-84274819D01*
X116411429Y-84274819D02*
X116363810Y-84227200D01*
X116363810Y-84227200D02*
X116411429Y-84179580D01*
X116411429Y-84179580D02*
X116411429Y-84274819D01*
X116792381Y-83274819D02*
X117411428Y-83274819D01*
X117411428Y-83274819D02*
X117078095Y-83655771D01*
X117078095Y-83655771D02*
X117220952Y-83655771D01*
X117220952Y-83655771D02*
X117316190Y-83703390D01*
X117316190Y-83703390D02*
X117363809Y-83751009D01*
X117363809Y-83751009D02*
X117411428Y-83846247D01*
X117411428Y-83846247D02*
X117411428Y-84084342D01*
X117411428Y-84084342D02*
X117363809Y-84179580D01*
X117363809Y-84179580D02*
X117316190Y-84227200D01*
X117316190Y-84227200D02*
X117220952Y-84274819D01*
X117220952Y-84274819D02*
X116935238Y-84274819D01*
X116935238Y-84274819D02*
X116840000Y-84227200D01*
X116840000Y-84227200D02*
X116792381Y-84179580D01*
X117697143Y-83274819D02*
X118030476Y-84274819D01*
X118030476Y-84274819D02*
X118363809Y-83274819D01*
D11*
X204839986Y-92199155D02*
X204985129Y-92247535D01*
X204985129Y-92247535D02*
X205227034Y-92247535D01*
X205227034Y-92247535D02*
X205323796Y-92199155D01*
X205323796Y-92199155D02*
X205372177Y-92150774D01*
X205372177Y-92150774D02*
X205420558Y-92054012D01*
X205420558Y-92054012D02*
X205420558Y-91957250D01*
X205420558Y-91957250D02*
X205372177Y-91860488D01*
X205372177Y-91860488D02*
X205323796Y-91812107D01*
X205323796Y-91812107D02*
X205227034Y-91763726D01*
X205227034Y-91763726D02*
X205033510Y-91715345D01*
X205033510Y-91715345D02*
X204936748Y-91666964D01*
X204936748Y-91666964D02*
X204888367Y-91618583D01*
X204888367Y-91618583D02*
X204839986Y-91521821D01*
X204839986Y-91521821D02*
X204839986Y-91425059D01*
X204839986Y-91425059D02*
X204888367Y-91328297D01*
X204888367Y-91328297D02*
X204936748Y-91279916D01*
X204936748Y-91279916D02*
X205033510Y-91231535D01*
X205033510Y-91231535D02*
X205275415Y-91231535D01*
X205275415Y-91231535D02*
X205420558Y-91279916D01*
X205855986Y-92247535D02*
X205855986Y-91231535D01*
X205855986Y-91231535D02*
X206097891Y-91231535D01*
X206097891Y-91231535D02*
X206243034Y-91279916D01*
X206243034Y-91279916D02*
X206339796Y-91376678D01*
X206339796Y-91376678D02*
X206388177Y-91473440D01*
X206388177Y-91473440D02*
X206436558Y-91666964D01*
X206436558Y-91666964D02*
X206436558Y-91812107D01*
X206436558Y-91812107D02*
X206388177Y-92005631D01*
X206388177Y-92005631D02*
X206339796Y-92102393D01*
X206339796Y-92102393D02*
X206243034Y-92199155D01*
X206243034Y-92199155D02*
X206097891Y-92247535D01*
X206097891Y-92247535D02*
X205855986Y-92247535D01*
X151418650Y-106183013D02*
X151418650Y-105699203D01*
X151708935Y-106279775D02*
X150692935Y-105941108D01*
X150692935Y-105941108D02*
X151708935Y-105602441D01*
X151031602Y-104828346D02*
X151708935Y-104828346D01*
X150644555Y-105070251D02*
X151370269Y-105312156D01*
X151370269Y-105312156D02*
X151370269Y-104683203D01*
X205547558Y-96436116D02*
X205450796Y-96387735D01*
X205450796Y-96387735D02*
X205305653Y-96387735D01*
X205305653Y-96387735D02*
X205160510Y-96436116D01*
X205160510Y-96436116D02*
X205063748Y-96532878D01*
X205063748Y-96532878D02*
X205015367Y-96629640D01*
X205015367Y-96629640D02*
X204966986Y-96823164D01*
X204966986Y-96823164D02*
X204966986Y-96968307D01*
X204966986Y-96968307D02*
X205015367Y-97161831D01*
X205015367Y-97161831D02*
X205063748Y-97258593D01*
X205063748Y-97258593D02*
X205160510Y-97355355D01*
X205160510Y-97355355D02*
X205305653Y-97403735D01*
X205305653Y-97403735D02*
X205402415Y-97403735D01*
X205402415Y-97403735D02*
X205547558Y-97355355D01*
X205547558Y-97355355D02*
X205595939Y-97306974D01*
X205595939Y-97306974D02*
X205595939Y-96968307D01*
X205595939Y-96968307D02*
X205402415Y-96968307D01*
X206031367Y-97403735D02*
X206031367Y-96387735D01*
X206031367Y-96387735D02*
X206273272Y-96387735D01*
X206273272Y-96387735D02*
X206418415Y-96436116D01*
X206418415Y-96436116D02*
X206515177Y-96532878D01*
X206515177Y-96532878D02*
X206563558Y-96629640D01*
X206563558Y-96629640D02*
X206611939Y-96823164D01*
X206611939Y-96823164D02*
X206611939Y-96968307D01*
X206611939Y-96968307D02*
X206563558Y-97161831D01*
X206563558Y-97161831D02*
X206515177Y-97258593D01*
X206515177Y-97258593D02*
X206418415Y-97355355D01*
X206418415Y-97355355D02*
X206273272Y-97403735D01*
X206273272Y-97403735D02*
X206031367Y-97403735D01*
D13*
X128603619Y-80290200D02*
X128746476Y-80337819D01*
X128746476Y-80337819D02*
X128984571Y-80337819D01*
X128984571Y-80337819D02*
X129079809Y-80290200D01*
X129079809Y-80290200D02*
X129127428Y-80242580D01*
X129127428Y-80242580D02*
X129175047Y-80147342D01*
X129175047Y-80147342D02*
X129175047Y-80052104D01*
X129175047Y-80052104D02*
X129127428Y-79956866D01*
X129127428Y-79956866D02*
X129079809Y-79909247D01*
X129079809Y-79909247D02*
X128984571Y-79861628D01*
X128984571Y-79861628D02*
X128794095Y-79814009D01*
X128794095Y-79814009D02*
X128698857Y-79766390D01*
X128698857Y-79766390D02*
X128651238Y-79718771D01*
X128651238Y-79718771D02*
X128603619Y-79623533D01*
X128603619Y-79623533D02*
X128603619Y-79528295D01*
X128603619Y-79528295D02*
X128651238Y-79433057D01*
X128651238Y-79433057D02*
X128698857Y-79385438D01*
X128698857Y-79385438D02*
X128794095Y-79337819D01*
X128794095Y-79337819D02*
X129032190Y-79337819D01*
X129032190Y-79337819D02*
X129175047Y-79385438D01*
X129460762Y-79337819D02*
X130032190Y-79337819D01*
X129746476Y-80337819D02*
X129746476Y-79337819D01*
X130317905Y-80052104D02*
X130794095Y-80052104D01*
X130222667Y-80337819D02*
X130556000Y-79337819D01*
X130556000Y-79337819D02*
X130889333Y-80337819D01*
X131079810Y-79337819D02*
X131651238Y-79337819D01*
X131365524Y-80337819D02*
X131365524Y-79337819D01*
X131936953Y-79433057D02*
X131984572Y-79385438D01*
X131984572Y-79385438D02*
X132079810Y-79337819D01*
X132079810Y-79337819D02*
X132317905Y-79337819D01*
X132317905Y-79337819D02*
X132413143Y-79385438D01*
X132413143Y-79385438D02*
X132460762Y-79433057D01*
X132460762Y-79433057D02*
X132508381Y-79528295D01*
X132508381Y-79528295D02*
X132508381Y-79623533D01*
X132508381Y-79623533D02*
X132460762Y-79766390D01*
X132460762Y-79766390D02*
X131889334Y-80337819D01*
X131889334Y-80337819D02*
X132508381Y-80337819D01*
D11*
X96359005Y-84195735D02*
X96987958Y-84195735D01*
X96987958Y-84195735D02*
X96649291Y-84582783D01*
X96649291Y-84582783D02*
X96794434Y-84582783D01*
X96794434Y-84582783D02*
X96891196Y-84631164D01*
X96891196Y-84631164D02*
X96939577Y-84679545D01*
X96939577Y-84679545D02*
X96987958Y-84776307D01*
X96987958Y-84776307D02*
X96987958Y-85018212D01*
X96987958Y-85018212D02*
X96939577Y-85114974D01*
X96939577Y-85114974D02*
X96891196Y-85163355D01*
X96891196Y-85163355D02*
X96794434Y-85211735D01*
X96794434Y-85211735D02*
X96504148Y-85211735D01*
X96504148Y-85211735D02*
X96407386Y-85163355D01*
X96407386Y-85163355D02*
X96359005Y-85114974D01*
X97423386Y-85114974D02*
X97471767Y-85163355D01*
X97471767Y-85163355D02*
X97423386Y-85211735D01*
X97423386Y-85211735D02*
X97375005Y-85163355D01*
X97375005Y-85163355D02*
X97423386Y-85114974D01*
X97423386Y-85114974D02*
X97423386Y-85211735D01*
X97810434Y-84195735D02*
X98439387Y-84195735D01*
X98439387Y-84195735D02*
X98100720Y-84582783D01*
X98100720Y-84582783D02*
X98245863Y-84582783D01*
X98245863Y-84582783D02*
X98342625Y-84631164D01*
X98342625Y-84631164D02*
X98391006Y-84679545D01*
X98391006Y-84679545D02*
X98439387Y-84776307D01*
X98439387Y-84776307D02*
X98439387Y-85018212D01*
X98439387Y-85018212D02*
X98391006Y-85114974D01*
X98391006Y-85114974D02*
X98342625Y-85163355D01*
X98342625Y-85163355D02*
X98245863Y-85211735D01*
X98245863Y-85211735D02*
X97955577Y-85211735D01*
X97955577Y-85211735D02*
X97858815Y-85163355D01*
X97858815Y-85163355D02*
X97810434Y-85114974D01*
X98729672Y-84195735D02*
X99068339Y-85211735D01*
X99068339Y-85211735D02*
X99407006Y-84195735D01*
X200504755Y-94295813D02*
X200553135Y-94150670D01*
X200553135Y-94150670D02*
X200553135Y-93908765D01*
X200553135Y-93908765D02*
X200504755Y-93812003D01*
X200504755Y-93812003D02*
X200456374Y-93763622D01*
X200456374Y-93763622D02*
X200359612Y-93715241D01*
X200359612Y-93715241D02*
X200262850Y-93715241D01*
X200262850Y-93715241D02*
X200166088Y-93763622D01*
X200166088Y-93763622D02*
X200117707Y-93812003D01*
X200117707Y-93812003D02*
X200069326Y-93908765D01*
X200069326Y-93908765D02*
X200020945Y-94102289D01*
X200020945Y-94102289D02*
X199972564Y-94199051D01*
X199972564Y-94199051D02*
X199924183Y-94247432D01*
X199924183Y-94247432D02*
X199827421Y-94295813D01*
X199827421Y-94295813D02*
X199730659Y-94295813D01*
X199730659Y-94295813D02*
X199633897Y-94247432D01*
X199633897Y-94247432D02*
X199585516Y-94199051D01*
X199585516Y-94199051D02*
X199537135Y-94102289D01*
X199537135Y-94102289D02*
X199537135Y-93860384D01*
X199537135Y-93860384D02*
X199585516Y-93715241D01*
X199537135Y-93376575D02*
X200553135Y-93134670D01*
X200553135Y-93134670D02*
X199827421Y-92941146D01*
X199827421Y-92941146D02*
X200553135Y-92747622D01*
X200553135Y-92747622D02*
X199537135Y-92505718D01*
X200553135Y-92118670D02*
X199537135Y-92118670D01*
X199537135Y-92118670D02*
X199537135Y-91876765D01*
X199537135Y-91876765D02*
X199585516Y-91731622D01*
X199585516Y-91731622D02*
X199682278Y-91634860D01*
X199682278Y-91634860D02*
X199779040Y-91586479D01*
X199779040Y-91586479D02*
X199972564Y-91538098D01*
X199972564Y-91538098D02*
X200117707Y-91538098D01*
X200117707Y-91538098D02*
X200311231Y-91586479D01*
X200311231Y-91586479D02*
X200407993Y-91634860D01*
X200407993Y-91634860D02*
X200504755Y-91731622D01*
X200504755Y-91731622D02*
X200553135Y-91876765D01*
X200553135Y-91876765D02*
X200553135Y-92118670D01*
X145762916Y-81416803D02*
X145714535Y-81513565D01*
X145714535Y-81513565D02*
X145714535Y-81658708D01*
X145714535Y-81658708D02*
X145762916Y-81803851D01*
X145762916Y-81803851D02*
X145859678Y-81900613D01*
X145859678Y-81900613D02*
X145956440Y-81948994D01*
X145956440Y-81948994D02*
X146149964Y-81997375D01*
X146149964Y-81997375D02*
X146295107Y-81997375D01*
X146295107Y-81997375D02*
X146488631Y-81948994D01*
X146488631Y-81948994D02*
X146585393Y-81900613D01*
X146585393Y-81900613D02*
X146682155Y-81803851D01*
X146682155Y-81803851D02*
X146730535Y-81658708D01*
X146730535Y-81658708D02*
X146730535Y-81561946D01*
X146730535Y-81561946D02*
X146682155Y-81416803D01*
X146682155Y-81416803D02*
X146633774Y-81368422D01*
X146633774Y-81368422D02*
X146295107Y-81368422D01*
X146295107Y-81368422D02*
X146295107Y-81561946D01*
X146730535Y-80932994D02*
X145714535Y-80932994D01*
X145714535Y-80932994D02*
X146730535Y-80352422D01*
X146730535Y-80352422D02*
X145714535Y-80352422D01*
X146730535Y-79868613D02*
X145714535Y-79868613D01*
X145714535Y-79868613D02*
X145714535Y-79626708D01*
X145714535Y-79626708D02*
X145762916Y-79481565D01*
X145762916Y-79481565D02*
X145859678Y-79384803D01*
X145859678Y-79384803D02*
X145956440Y-79336422D01*
X145956440Y-79336422D02*
X146149964Y-79288041D01*
X146149964Y-79288041D02*
X146295107Y-79288041D01*
X146295107Y-79288041D02*
X146488631Y-79336422D01*
X146488631Y-79336422D02*
X146585393Y-79384803D01*
X146585393Y-79384803D02*
X146682155Y-79481565D01*
X146682155Y-79481565D02*
X146730535Y-79626708D01*
X146730535Y-79626708D02*
X146730535Y-79868613D01*
D13*
X126317619Y-84862200D02*
X126460476Y-84909819D01*
X126460476Y-84909819D02*
X126698571Y-84909819D01*
X126698571Y-84909819D02*
X126793809Y-84862200D01*
X126793809Y-84862200D02*
X126841428Y-84814580D01*
X126841428Y-84814580D02*
X126889047Y-84719342D01*
X126889047Y-84719342D02*
X126889047Y-84624104D01*
X126889047Y-84624104D02*
X126841428Y-84528866D01*
X126841428Y-84528866D02*
X126793809Y-84481247D01*
X126793809Y-84481247D02*
X126698571Y-84433628D01*
X126698571Y-84433628D02*
X126508095Y-84386009D01*
X126508095Y-84386009D02*
X126412857Y-84338390D01*
X126412857Y-84338390D02*
X126365238Y-84290771D01*
X126365238Y-84290771D02*
X126317619Y-84195533D01*
X126317619Y-84195533D02*
X126317619Y-84100295D01*
X126317619Y-84100295D02*
X126365238Y-84005057D01*
X126365238Y-84005057D02*
X126412857Y-83957438D01*
X126412857Y-83957438D02*
X126508095Y-83909819D01*
X126508095Y-83909819D02*
X126746190Y-83909819D01*
X126746190Y-83909819D02*
X126889047Y-83957438D01*
X127174762Y-83909819D02*
X127746190Y-83909819D01*
X127460476Y-84909819D02*
X127460476Y-83909819D01*
X128031905Y-84624104D02*
X128508095Y-84624104D01*
X127936667Y-84909819D02*
X128270000Y-83909819D01*
X128270000Y-83909819D02*
X128603333Y-84909819D01*
X128793810Y-83909819D02*
X129365238Y-83909819D01*
X129079524Y-84909819D02*
X129079524Y-83909819D01*
X130222381Y-84909819D02*
X129650953Y-84909819D01*
X129936667Y-84909819D02*
X129936667Y-83909819D01*
X129936667Y-83909819D02*
X129841429Y-84052676D01*
X129841429Y-84052676D02*
X129746191Y-84147914D01*
X129746191Y-84147914D02*
X129650953Y-84195533D01*
D11*
X153907850Y-81707089D02*
X153907850Y-81223279D01*
X154198135Y-81803851D02*
X153182135Y-81465184D01*
X153182135Y-81465184D02*
X154198135Y-81126517D01*
X154198135Y-80255660D02*
X154198135Y-80836232D01*
X154198135Y-80545946D02*
X153182135Y-80545946D01*
X153182135Y-80545946D02*
X153327278Y-80642708D01*
X153327278Y-80642708D02*
X153424040Y-80739470D01*
X153424040Y-80739470D02*
X153472421Y-80836232D01*
X153182135Y-79626708D02*
X153182135Y-79529946D01*
X153182135Y-79529946D02*
X153230516Y-79433184D01*
X153230516Y-79433184D02*
X153278897Y-79384803D01*
X153278897Y-79384803D02*
X153375659Y-79336422D01*
X153375659Y-79336422D02*
X153569183Y-79288041D01*
X153569183Y-79288041D02*
X153811088Y-79288041D01*
X153811088Y-79288041D02*
X154004612Y-79336422D01*
X154004612Y-79336422D02*
X154101374Y-79384803D01*
X154101374Y-79384803D02*
X154149755Y-79433184D01*
X154149755Y-79433184D02*
X154198135Y-79529946D01*
X154198135Y-79529946D02*
X154198135Y-79626708D01*
X154198135Y-79626708D02*
X154149755Y-79723470D01*
X154149755Y-79723470D02*
X154101374Y-79771851D01*
X154101374Y-79771851D02*
X154004612Y-79820232D01*
X154004612Y-79820232D02*
X153811088Y-79868613D01*
X153811088Y-79868613D02*
X153569183Y-79868613D01*
X153569183Y-79868613D02*
X153375659Y-79820232D01*
X153375659Y-79820232D02*
X153278897Y-79771851D01*
X153278897Y-79771851D02*
X153230516Y-79723470D01*
X153230516Y-79723470D02*
X153182135Y-79626708D01*
D13*
X97647286Y-107769866D02*
X98409191Y-107769866D01*
X98028238Y-108150819D02*
X98028238Y-107388914D01*
X99361571Y-107150819D02*
X98885381Y-107150819D01*
X98885381Y-107150819D02*
X98837762Y-107627009D01*
X98837762Y-107627009D02*
X98885381Y-107579390D01*
X98885381Y-107579390D02*
X98980619Y-107531771D01*
X98980619Y-107531771D02*
X99218714Y-107531771D01*
X99218714Y-107531771D02*
X99313952Y-107579390D01*
X99313952Y-107579390D02*
X99361571Y-107627009D01*
X99361571Y-107627009D02*
X99409190Y-107722247D01*
X99409190Y-107722247D02*
X99409190Y-107960342D01*
X99409190Y-107960342D02*
X99361571Y-108055580D01*
X99361571Y-108055580D02*
X99313952Y-108103200D01*
X99313952Y-108103200D02*
X99218714Y-108150819D01*
X99218714Y-108150819D02*
X98980619Y-108150819D01*
X98980619Y-108150819D02*
X98885381Y-108103200D01*
X98885381Y-108103200D02*
X98837762Y-108055580D01*
X99694905Y-107150819D02*
X100028238Y-108150819D01*
X100028238Y-108150819D02*
X100361571Y-107150819D01*
D11*
X146338650Y-106183013D02*
X146338650Y-105699203D01*
X146628935Y-106279775D02*
X145612935Y-105941108D01*
X145612935Y-105941108D02*
X146628935Y-105602441D01*
X145709697Y-105312156D02*
X145661316Y-105263775D01*
X145661316Y-105263775D02*
X145612935Y-105167013D01*
X145612935Y-105167013D02*
X145612935Y-104925108D01*
X145612935Y-104925108D02*
X145661316Y-104828346D01*
X145661316Y-104828346D02*
X145709697Y-104779965D01*
X145709697Y-104779965D02*
X145806459Y-104731584D01*
X145806459Y-104731584D02*
X145903221Y-104731584D01*
X145903221Y-104731584D02*
X146048364Y-104779965D01*
X146048364Y-104779965D02*
X146628935Y-105360537D01*
X146628935Y-105360537D02*
X146628935Y-104731584D01*
X156397050Y-106183013D02*
X156397050Y-105699203D01*
X156687335Y-106279775D02*
X155671335Y-105941108D01*
X155671335Y-105941108D02*
X156687335Y-105602441D01*
X155671335Y-104828346D02*
X155671335Y-105021870D01*
X155671335Y-105021870D02*
X155719716Y-105118632D01*
X155719716Y-105118632D02*
X155768097Y-105167013D01*
X155768097Y-105167013D02*
X155913240Y-105263775D01*
X155913240Y-105263775D02*
X156106764Y-105312156D01*
X156106764Y-105312156D02*
X156493812Y-105312156D01*
X156493812Y-105312156D02*
X156590574Y-105263775D01*
X156590574Y-105263775D02*
X156638955Y-105215394D01*
X156638955Y-105215394D02*
X156687335Y-105118632D01*
X156687335Y-105118632D02*
X156687335Y-104925108D01*
X156687335Y-104925108D02*
X156638955Y-104828346D01*
X156638955Y-104828346D02*
X156590574Y-104779965D01*
X156590574Y-104779965D02*
X156493812Y-104731584D01*
X156493812Y-104731584D02*
X156251907Y-104731584D01*
X156251907Y-104731584D02*
X156155145Y-104779965D01*
X156155145Y-104779965D02*
X156106764Y-104828346D01*
X156106764Y-104828346D02*
X156058383Y-104925108D01*
X156058383Y-104925108D02*
X156058383Y-105118632D01*
X156058383Y-105118632D02*
X156106764Y-105215394D01*
X156106764Y-105215394D02*
X156155145Y-105263775D01*
X156155145Y-105263775D02*
X156251907Y-105312156D01*
X165932935Y-106231394D02*
X165932935Y-105602441D01*
X165932935Y-105602441D02*
X166319983Y-105941108D01*
X166319983Y-105941108D02*
X166319983Y-105795965D01*
X166319983Y-105795965D02*
X166368364Y-105699203D01*
X166368364Y-105699203D02*
X166416745Y-105650822D01*
X166416745Y-105650822D02*
X166513507Y-105602441D01*
X166513507Y-105602441D02*
X166755412Y-105602441D01*
X166755412Y-105602441D02*
X166852174Y-105650822D01*
X166852174Y-105650822D02*
X166900555Y-105699203D01*
X166900555Y-105699203D02*
X166948935Y-105795965D01*
X166948935Y-105795965D02*
X166948935Y-106086251D01*
X166948935Y-106086251D02*
X166900555Y-106183013D01*
X166900555Y-106183013D02*
X166852174Y-106231394D01*
X166852174Y-105167013D02*
X166900555Y-105118632D01*
X166900555Y-105118632D02*
X166948935Y-105167013D01*
X166948935Y-105167013D02*
X166900555Y-105215394D01*
X166900555Y-105215394D02*
X166852174Y-105167013D01*
X166852174Y-105167013D02*
X166948935Y-105167013D01*
X165932935Y-104779965D02*
X165932935Y-104151012D01*
X165932935Y-104151012D02*
X166319983Y-104489679D01*
X166319983Y-104489679D02*
X166319983Y-104344536D01*
X166319983Y-104344536D02*
X166368364Y-104247774D01*
X166368364Y-104247774D02*
X166416745Y-104199393D01*
X166416745Y-104199393D02*
X166513507Y-104151012D01*
X166513507Y-104151012D02*
X166755412Y-104151012D01*
X166755412Y-104151012D02*
X166852174Y-104199393D01*
X166852174Y-104199393D02*
X166900555Y-104247774D01*
X166900555Y-104247774D02*
X166948935Y-104344536D01*
X166948935Y-104344536D02*
X166948935Y-104634822D01*
X166948935Y-104634822D02*
X166900555Y-104731584D01*
X166900555Y-104731584D02*
X166852174Y-104779965D01*
X165932935Y-103860727D02*
X166948935Y-103522060D01*
X166948935Y-103522060D02*
X165932935Y-103183393D01*
X140390695Y-97808142D02*
X140390695Y-97179189D01*
X140390695Y-97179189D02*
X140777743Y-97517856D01*
X140777743Y-97517856D02*
X140777743Y-97372713D01*
X140777743Y-97372713D02*
X140826124Y-97275951D01*
X140826124Y-97275951D02*
X140874505Y-97227570D01*
X140874505Y-97227570D02*
X140971267Y-97179189D01*
X140971267Y-97179189D02*
X141213172Y-97179189D01*
X141213172Y-97179189D02*
X141309934Y-97227570D01*
X141309934Y-97227570D02*
X141358315Y-97275951D01*
X141358315Y-97275951D02*
X141406695Y-97372713D01*
X141406695Y-97372713D02*
X141406695Y-97662999D01*
X141406695Y-97662999D02*
X141358315Y-97759761D01*
X141358315Y-97759761D02*
X141309934Y-97808142D01*
X140487457Y-96792142D02*
X140439076Y-96743761D01*
X140439076Y-96743761D02*
X140390695Y-96646999D01*
X140390695Y-96646999D02*
X140390695Y-96405094D01*
X140390695Y-96405094D02*
X140439076Y-96308332D01*
X140439076Y-96308332D02*
X140487457Y-96259951D01*
X140487457Y-96259951D02*
X140584219Y-96211570D01*
X140584219Y-96211570D02*
X140680981Y-96211570D01*
X140680981Y-96211570D02*
X140826124Y-96259951D01*
X140826124Y-96259951D02*
X141406695Y-96840523D01*
X141406695Y-96840523D02*
X141406695Y-96211570D01*
X141406695Y-95776142D02*
X140390695Y-95776142D01*
X141019648Y-95679380D02*
X141406695Y-95389094D01*
X140729362Y-95389094D02*
X141116410Y-95776142D01*
X141406695Y-94953666D02*
X140390695Y-94953666D01*
X140874505Y-94953666D02*
X140874505Y-94373094D01*
X141406695Y-94373094D02*
X140390695Y-94373094D01*
X140729362Y-93986047D02*
X140729362Y-93453856D01*
X140729362Y-93453856D02*
X141406695Y-93986047D01*
X141406695Y-93986047D02*
X141406695Y-93453856D01*
X143798650Y-106183013D02*
X143798650Y-105699203D01*
X144088935Y-106279775D02*
X143072935Y-105941108D01*
X143072935Y-105941108D02*
X144088935Y-105602441D01*
X144088935Y-104731584D02*
X144088935Y-105312156D01*
X144088935Y-105021870D02*
X143072935Y-105021870D01*
X143072935Y-105021870D02*
X143218078Y-105118632D01*
X143218078Y-105118632D02*
X143314840Y-105215394D01*
X143314840Y-105215394D02*
X143363221Y-105312156D01*
X192371005Y-100536402D02*
X192612910Y-101213735D01*
X192854815Y-100536402D02*
X192612910Y-101213735D01*
X192612910Y-101213735D02*
X192516148Y-101455640D01*
X192516148Y-101455640D02*
X192467767Y-101504021D01*
X192467767Y-101504021D02*
X192371005Y-101552402D01*
X163876745Y-81465184D02*
X163925126Y-81320041D01*
X163925126Y-81320041D02*
X163973507Y-81271660D01*
X163973507Y-81271660D02*
X164070269Y-81223279D01*
X164070269Y-81223279D02*
X164215412Y-81223279D01*
X164215412Y-81223279D02*
X164312174Y-81271660D01*
X164312174Y-81271660D02*
X164360555Y-81320041D01*
X164360555Y-81320041D02*
X164408935Y-81416803D01*
X164408935Y-81416803D02*
X164408935Y-81803851D01*
X164408935Y-81803851D02*
X163392935Y-81803851D01*
X163392935Y-81803851D02*
X163392935Y-81465184D01*
X163392935Y-81465184D02*
X163441316Y-81368422D01*
X163441316Y-81368422D02*
X163489697Y-81320041D01*
X163489697Y-81320041D02*
X163586459Y-81271660D01*
X163586459Y-81271660D02*
X163683221Y-81271660D01*
X163683221Y-81271660D02*
X163779983Y-81320041D01*
X163779983Y-81320041D02*
X163828364Y-81368422D01*
X163828364Y-81368422D02*
X163876745Y-81465184D01*
X163876745Y-81465184D02*
X163876745Y-81803851D01*
X164408935Y-80255660D02*
X164408935Y-80836232D01*
X164408935Y-80545946D02*
X163392935Y-80545946D01*
X163392935Y-80545946D02*
X163538078Y-80642708D01*
X163538078Y-80642708D02*
X163634840Y-80739470D01*
X163634840Y-80739470D02*
X163683221Y-80836232D01*
X163731602Y-79384803D02*
X164408935Y-79384803D01*
X163344555Y-79626708D02*
X164070269Y-79868613D01*
X164070269Y-79868613D02*
X164070269Y-79239660D01*
X181174145Y-104856165D02*
X181222526Y-104711022D01*
X181222526Y-104711022D02*
X181270907Y-104662641D01*
X181270907Y-104662641D02*
X181367669Y-104614260D01*
X181367669Y-104614260D02*
X181512812Y-104614260D01*
X181512812Y-104614260D02*
X181609574Y-104662641D01*
X181609574Y-104662641D02*
X181657955Y-104711022D01*
X181657955Y-104711022D02*
X181706335Y-104807784D01*
X181706335Y-104807784D02*
X181706335Y-105194832D01*
X181706335Y-105194832D02*
X180690335Y-105194832D01*
X180690335Y-105194832D02*
X180690335Y-104856165D01*
X180690335Y-104856165D02*
X180738716Y-104759403D01*
X180738716Y-104759403D02*
X180787097Y-104711022D01*
X180787097Y-104711022D02*
X180883859Y-104662641D01*
X180883859Y-104662641D02*
X180980621Y-104662641D01*
X180980621Y-104662641D02*
X181077383Y-104711022D01*
X181077383Y-104711022D02*
X181125764Y-104759403D01*
X181125764Y-104759403D02*
X181174145Y-104856165D01*
X181174145Y-104856165D02*
X181174145Y-105194832D01*
X180690335Y-103985308D02*
X180690335Y-103791784D01*
X180690335Y-103791784D02*
X180738716Y-103695022D01*
X180738716Y-103695022D02*
X180835478Y-103598260D01*
X180835478Y-103598260D02*
X181029002Y-103549879D01*
X181029002Y-103549879D02*
X181367669Y-103549879D01*
X181367669Y-103549879D02*
X181561193Y-103598260D01*
X181561193Y-103598260D02*
X181657955Y-103695022D01*
X181657955Y-103695022D02*
X181706335Y-103791784D01*
X181706335Y-103791784D02*
X181706335Y-103985308D01*
X181706335Y-103985308D02*
X181657955Y-104082070D01*
X181657955Y-104082070D02*
X181561193Y-104178832D01*
X181561193Y-104178832D02*
X181367669Y-104227213D01*
X181367669Y-104227213D02*
X181029002Y-104227213D01*
X181029002Y-104227213D02*
X180835478Y-104178832D01*
X180835478Y-104178832D02*
X180738716Y-104082070D01*
X180738716Y-104082070D02*
X180690335Y-103985308D01*
X180690335Y-102920927D02*
X180690335Y-102727403D01*
X180690335Y-102727403D02*
X180738716Y-102630641D01*
X180738716Y-102630641D02*
X180835478Y-102533879D01*
X180835478Y-102533879D02*
X181029002Y-102485498D01*
X181029002Y-102485498D02*
X181367669Y-102485498D01*
X181367669Y-102485498D02*
X181561193Y-102533879D01*
X181561193Y-102533879D02*
X181657955Y-102630641D01*
X181657955Y-102630641D02*
X181706335Y-102727403D01*
X181706335Y-102727403D02*
X181706335Y-102920927D01*
X181706335Y-102920927D02*
X181657955Y-103017689D01*
X181657955Y-103017689D02*
X181561193Y-103114451D01*
X181561193Y-103114451D02*
X181367669Y-103162832D01*
X181367669Y-103162832D02*
X181029002Y-103162832D01*
X181029002Y-103162832D02*
X180835478Y-103114451D01*
X180835478Y-103114451D02*
X180738716Y-103017689D01*
X180738716Y-103017689D02*
X180690335Y-102920927D01*
X180690335Y-102195213D02*
X180690335Y-101614641D01*
X181706335Y-101904927D02*
X180690335Y-101904927D01*
X180690335Y-101082451D02*
X180690335Y-100985689D01*
X180690335Y-100985689D02*
X180738716Y-100888927D01*
X180738716Y-100888927D02*
X180787097Y-100840546D01*
X180787097Y-100840546D02*
X180883859Y-100792165D01*
X180883859Y-100792165D02*
X181077383Y-100743784D01*
X181077383Y-100743784D02*
X181319288Y-100743784D01*
X181319288Y-100743784D02*
X181512812Y-100792165D01*
X181512812Y-100792165D02*
X181609574Y-100840546D01*
X181609574Y-100840546D02*
X181657955Y-100888927D01*
X181657955Y-100888927D02*
X181706335Y-100985689D01*
X181706335Y-100985689D02*
X181706335Y-101082451D01*
X181706335Y-101082451D02*
X181657955Y-101179213D01*
X181657955Y-101179213D02*
X181609574Y-101227594D01*
X181609574Y-101227594D02*
X181512812Y-101275975D01*
X181512812Y-101275975D02*
X181319288Y-101324356D01*
X181319288Y-101324356D02*
X181077383Y-101324356D01*
X181077383Y-101324356D02*
X180883859Y-101275975D01*
X180883859Y-101275975D02*
X180787097Y-101227594D01*
X180787097Y-101227594D02*
X180738716Y-101179213D01*
X180738716Y-101179213D02*
X180690335Y-101082451D01*
X166365945Y-81465184D02*
X166414326Y-81320041D01*
X166414326Y-81320041D02*
X166462707Y-81271660D01*
X166462707Y-81271660D02*
X166559469Y-81223279D01*
X166559469Y-81223279D02*
X166704612Y-81223279D01*
X166704612Y-81223279D02*
X166801374Y-81271660D01*
X166801374Y-81271660D02*
X166849755Y-81320041D01*
X166849755Y-81320041D02*
X166898135Y-81416803D01*
X166898135Y-81416803D02*
X166898135Y-81803851D01*
X166898135Y-81803851D02*
X165882135Y-81803851D01*
X165882135Y-81803851D02*
X165882135Y-81465184D01*
X165882135Y-81465184D02*
X165930516Y-81368422D01*
X165930516Y-81368422D02*
X165978897Y-81320041D01*
X165978897Y-81320041D02*
X166075659Y-81271660D01*
X166075659Y-81271660D02*
X166172421Y-81271660D01*
X166172421Y-81271660D02*
X166269183Y-81320041D01*
X166269183Y-81320041D02*
X166317564Y-81368422D01*
X166317564Y-81368422D02*
X166365945Y-81465184D01*
X166365945Y-81465184D02*
X166365945Y-81803851D01*
X166898135Y-80255660D02*
X166898135Y-80836232D01*
X166898135Y-80545946D02*
X165882135Y-80545946D01*
X165882135Y-80545946D02*
X166027278Y-80642708D01*
X166027278Y-80642708D02*
X166124040Y-80739470D01*
X166124040Y-80739470D02*
X166172421Y-80836232D01*
X165882135Y-79916994D02*
X165882135Y-79288041D01*
X165882135Y-79288041D02*
X166269183Y-79626708D01*
X166269183Y-79626708D02*
X166269183Y-79481565D01*
X166269183Y-79481565D02*
X166317564Y-79384803D01*
X166317564Y-79384803D02*
X166365945Y-79336422D01*
X166365945Y-79336422D02*
X166462707Y-79288041D01*
X166462707Y-79288041D02*
X166704612Y-79288041D01*
X166704612Y-79288041D02*
X166801374Y-79336422D01*
X166801374Y-79336422D02*
X166849755Y-79384803D01*
X166849755Y-79384803D02*
X166898135Y-79481565D01*
X166898135Y-79481565D02*
X166898135Y-79771851D01*
X166898135Y-79771851D02*
X166849755Y-79868613D01*
X166849755Y-79868613D02*
X166801374Y-79916994D01*
X204839986Y-94713755D02*
X204985129Y-94762135D01*
X204985129Y-94762135D02*
X205227034Y-94762135D01*
X205227034Y-94762135D02*
X205323796Y-94713755D01*
X205323796Y-94713755D02*
X205372177Y-94665374D01*
X205372177Y-94665374D02*
X205420558Y-94568612D01*
X205420558Y-94568612D02*
X205420558Y-94471850D01*
X205420558Y-94471850D02*
X205372177Y-94375088D01*
X205372177Y-94375088D02*
X205323796Y-94326707D01*
X205323796Y-94326707D02*
X205227034Y-94278326D01*
X205227034Y-94278326D02*
X205033510Y-94229945D01*
X205033510Y-94229945D02*
X204936748Y-94181564D01*
X204936748Y-94181564D02*
X204888367Y-94133183D01*
X204888367Y-94133183D02*
X204839986Y-94036421D01*
X204839986Y-94036421D02*
X204839986Y-93939659D01*
X204839986Y-93939659D02*
X204888367Y-93842897D01*
X204888367Y-93842897D02*
X204936748Y-93794516D01*
X204936748Y-93794516D02*
X205033510Y-93746135D01*
X205033510Y-93746135D02*
X205275415Y-93746135D01*
X205275415Y-93746135D02*
X205420558Y-93794516D01*
X205855986Y-94762135D02*
X205855986Y-93746135D01*
X206436558Y-94762135D02*
X206001129Y-94181564D01*
X206436558Y-93746135D02*
X205855986Y-94326707D01*
X153907850Y-106183013D02*
X153907850Y-105699203D01*
X154198135Y-106279775D02*
X153182135Y-105941108D01*
X153182135Y-105941108D02*
X154198135Y-105602441D01*
X153182135Y-104779965D02*
X153182135Y-105263775D01*
X153182135Y-105263775D02*
X153665945Y-105312156D01*
X153665945Y-105312156D02*
X153617564Y-105263775D01*
X153617564Y-105263775D02*
X153569183Y-105167013D01*
X153569183Y-105167013D02*
X153569183Y-104925108D01*
X153569183Y-104925108D02*
X153617564Y-104828346D01*
X153617564Y-104828346D02*
X153665945Y-104779965D01*
X153665945Y-104779965D02*
X153762707Y-104731584D01*
X153762707Y-104731584D02*
X154004612Y-104731584D01*
X154004612Y-104731584D02*
X154101374Y-104779965D01*
X154101374Y-104779965D02*
X154149755Y-104828346D01*
X154149755Y-104828346D02*
X154198135Y-104925108D01*
X154198135Y-104925108D02*
X154198135Y-105167013D01*
X154198135Y-105167013D02*
X154149755Y-105263775D01*
X154149755Y-105263775D02*
X154101374Y-105312156D01*
X143225335Y-82239280D02*
X143225335Y-81610327D01*
X143225335Y-81610327D02*
X143612383Y-81948994D01*
X143612383Y-81948994D02*
X143612383Y-81803851D01*
X143612383Y-81803851D02*
X143660764Y-81707089D01*
X143660764Y-81707089D02*
X143709145Y-81658708D01*
X143709145Y-81658708D02*
X143805907Y-81610327D01*
X143805907Y-81610327D02*
X144047812Y-81610327D01*
X144047812Y-81610327D02*
X144144574Y-81658708D01*
X144144574Y-81658708D02*
X144192955Y-81707089D01*
X144192955Y-81707089D02*
X144241335Y-81803851D01*
X144241335Y-81803851D02*
X144241335Y-82094137D01*
X144241335Y-82094137D02*
X144192955Y-82190899D01*
X144192955Y-82190899D02*
X144144574Y-82239280D01*
X144144574Y-81174899D02*
X144192955Y-81126518D01*
X144192955Y-81126518D02*
X144241335Y-81174899D01*
X144241335Y-81174899D02*
X144192955Y-81223280D01*
X144192955Y-81223280D02*
X144144574Y-81174899D01*
X144144574Y-81174899D02*
X144241335Y-81174899D01*
X143225335Y-80787851D02*
X143225335Y-80158898D01*
X143225335Y-80158898D02*
X143612383Y-80497565D01*
X143612383Y-80497565D02*
X143612383Y-80352422D01*
X143612383Y-80352422D02*
X143660764Y-80255660D01*
X143660764Y-80255660D02*
X143709145Y-80207279D01*
X143709145Y-80207279D02*
X143805907Y-80158898D01*
X143805907Y-80158898D02*
X144047812Y-80158898D01*
X144047812Y-80158898D02*
X144144574Y-80207279D01*
X144144574Y-80207279D02*
X144192955Y-80255660D01*
X144192955Y-80255660D02*
X144241335Y-80352422D01*
X144241335Y-80352422D02*
X144241335Y-80642708D01*
X144241335Y-80642708D02*
X144192955Y-80739470D01*
X144192955Y-80739470D02*
X144144574Y-80787851D01*
X143225335Y-79868613D02*
X144241335Y-79529946D01*
X144241335Y-79529946D02*
X143225335Y-79191279D01*
X140643735Y-81896473D02*
X141659735Y-81557806D01*
X141659735Y-81557806D02*
X140643735Y-81219139D01*
X141659735Y-80396663D02*
X141659735Y-80880473D01*
X141659735Y-80880473D02*
X140643735Y-80880473D01*
X141562974Y-79477425D02*
X141611355Y-79525806D01*
X141611355Y-79525806D02*
X141659735Y-79670949D01*
X141659735Y-79670949D02*
X141659735Y-79767711D01*
X141659735Y-79767711D02*
X141611355Y-79912854D01*
X141611355Y-79912854D02*
X141514593Y-80009616D01*
X141514593Y-80009616D02*
X141417831Y-80057997D01*
X141417831Y-80057997D02*
X141224307Y-80106378D01*
X141224307Y-80106378D02*
X141079164Y-80106378D01*
X141079164Y-80106378D02*
X140885640Y-80057997D01*
X140885640Y-80057997D02*
X140788878Y-80009616D01*
X140788878Y-80009616D02*
X140692116Y-79912854D01*
X140692116Y-79912854D02*
X140643735Y-79767711D01*
X140643735Y-79767711D02*
X140643735Y-79670949D01*
X140643735Y-79670949D02*
X140692116Y-79525806D01*
X140692116Y-79525806D02*
X140740497Y-79477425D01*
X158987850Y-80739470D02*
X158987850Y-80255660D01*
X159278135Y-80836232D02*
X158262135Y-80497565D01*
X158262135Y-80497565D02*
X159278135Y-80158898D01*
X158697564Y-79675089D02*
X158649183Y-79771851D01*
X158649183Y-79771851D02*
X158600802Y-79820232D01*
X158600802Y-79820232D02*
X158504040Y-79868613D01*
X158504040Y-79868613D02*
X158455659Y-79868613D01*
X158455659Y-79868613D02*
X158358897Y-79820232D01*
X158358897Y-79820232D02*
X158310516Y-79771851D01*
X158310516Y-79771851D02*
X158262135Y-79675089D01*
X158262135Y-79675089D02*
X158262135Y-79481565D01*
X158262135Y-79481565D02*
X158310516Y-79384803D01*
X158310516Y-79384803D02*
X158358897Y-79336422D01*
X158358897Y-79336422D02*
X158455659Y-79288041D01*
X158455659Y-79288041D02*
X158504040Y-79288041D01*
X158504040Y-79288041D02*
X158600802Y-79336422D01*
X158600802Y-79336422D02*
X158649183Y-79384803D01*
X158649183Y-79384803D02*
X158697564Y-79481565D01*
X158697564Y-79481565D02*
X158697564Y-79675089D01*
X158697564Y-79675089D02*
X158745945Y-79771851D01*
X158745945Y-79771851D02*
X158794326Y-79820232D01*
X158794326Y-79820232D02*
X158891088Y-79868613D01*
X158891088Y-79868613D02*
X159084612Y-79868613D01*
X159084612Y-79868613D02*
X159181374Y-79820232D01*
X159181374Y-79820232D02*
X159229755Y-79771851D01*
X159229755Y-79771851D02*
X159278135Y-79675089D01*
X159278135Y-79675089D02*
X159278135Y-79481565D01*
X159278135Y-79481565D02*
X159229755Y-79384803D01*
X159229755Y-79384803D02*
X159181374Y-79336422D01*
X159181374Y-79336422D02*
X159084612Y-79288041D01*
X159084612Y-79288041D02*
X158891088Y-79288041D01*
X158891088Y-79288041D02*
X158794326Y-79336422D01*
X158794326Y-79336422D02*
X158745945Y-79384803D01*
X158745945Y-79384803D02*
X158697564Y-79481565D01*
X158987850Y-106183013D02*
X158987850Y-105699203D01*
X159278135Y-106279775D02*
X158262135Y-105941108D01*
X158262135Y-105941108D02*
X159278135Y-105602441D01*
X158262135Y-105360537D02*
X158262135Y-104683203D01*
X158262135Y-104683203D02*
X159278135Y-105118632D01*
X148738345Y-80497565D02*
X148786726Y-80352422D01*
X148786726Y-80352422D02*
X148835107Y-80304041D01*
X148835107Y-80304041D02*
X148931869Y-80255660D01*
X148931869Y-80255660D02*
X149077012Y-80255660D01*
X149077012Y-80255660D02*
X149173774Y-80304041D01*
X149173774Y-80304041D02*
X149222155Y-80352422D01*
X149222155Y-80352422D02*
X149270535Y-80449184D01*
X149270535Y-80449184D02*
X149270535Y-80836232D01*
X149270535Y-80836232D02*
X148254535Y-80836232D01*
X148254535Y-80836232D02*
X148254535Y-80497565D01*
X148254535Y-80497565D02*
X148302916Y-80400803D01*
X148302916Y-80400803D02*
X148351297Y-80352422D01*
X148351297Y-80352422D02*
X148448059Y-80304041D01*
X148448059Y-80304041D02*
X148544821Y-80304041D01*
X148544821Y-80304041D02*
X148641583Y-80352422D01*
X148641583Y-80352422D02*
X148689964Y-80400803D01*
X148689964Y-80400803D02*
X148738345Y-80497565D01*
X148738345Y-80497565D02*
X148738345Y-80836232D01*
X148254535Y-79916994D02*
X148254535Y-79288041D01*
X148254535Y-79288041D02*
X148641583Y-79626708D01*
X148641583Y-79626708D02*
X148641583Y-79481565D01*
X148641583Y-79481565D02*
X148689964Y-79384803D01*
X148689964Y-79384803D02*
X148738345Y-79336422D01*
X148738345Y-79336422D02*
X148835107Y-79288041D01*
X148835107Y-79288041D02*
X149077012Y-79288041D01*
X149077012Y-79288041D02*
X149173774Y-79336422D01*
X149173774Y-79336422D02*
X149222155Y-79384803D01*
X149222155Y-79384803D02*
X149270535Y-79481565D01*
X149270535Y-79481565D02*
X149270535Y-79771851D01*
X149270535Y-79771851D02*
X149222155Y-79868613D01*
X149222155Y-79868613D02*
X149173774Y-79916994D01*
X163825945Y-105948365D02*
X163874326Y-105803222D01*
X163874326Y-105803222D02*
X163922707Y-105754841D01*
X163922707Y-105754841D02*
X164019469Y-105706460D01*
X164019469Y-105706460D02*
X164164612Y-105706460D01*
X164164612Y-105706460D02*
X164261374Y-105754841D01*
X164261374Y-105754841D02*
X164309755Y-105803222D01*
X164309755Y-105803222D02*
X164358135Y-105899984D01*
X164358135Y-105899984D02*
X164358135Y-106287032D01*
X164358135Y-106287032D02*
X163342135Y-106287032D01*
X163342135Y-106287032D02*
X163342135Y-105948365D01*
X163342135Y-105948365D02*
X163390516Y-105851603D01*
X163390516Y-105851603D02*
X163438897Y-105803222D01*
X163438897Y-105803222D02*
X163535659Y-105754841D01*
X163535659Y-105754841D02*
X163632421Y-105754841D01*
X163632421Y-105754841D02*
X163729183Y-105803222D01*
X163729183Y-105803222D02*
X163777564Y-105851603D01*
X163777564Y-105851603D02*
X163825945Y-105948365D01*
X163825945Y-105948365D02*
X163825945Y-106287032D01*
X164358135Y-104738841D02*
X164358135Y-105319413D01*
X164358135Y-105029127D02*
X163342135Y-105029127D01*
X163342135Y-105029127D02*
X163487278Y-105125889D01*
X163487278Y-105125889D02*
X163584040Y-105222651D01*
X163584040Y-105222651D02*
X163632421Y-105319413D01*
X164358135Y-103771222D02*
X164358135Y-104351794D01*
X164358135Y-104061508D02*
X163342135Y-104061508D01*
X163342135Y-104061508D02*
X163487278Y-104158270D01*
X163487278Y-104158270D02*
X163584040Y-104255032D01*
X163584040Y-104255032D02*
X163632421Y-104351794D01*
X173578335Y-104614260D02*
X173094526Y-104952927D01*
X173578335Y-105194832D02*
X172562335Y-105194832D01*
X172562335Y-105194832D02*
X172562335Y-104807784D01*
X172562335Y-104807784D02*
X172610716Y-104711022D01*
X172610716Y-104711022D02*
X172659097Y-104662641D01*
X172659097Y-104662641D02*
X172755859Y-104614260D01*
X172755859Y-104614260D02*
X172901002Y-104614260D01*
X172901002Y-104614260D02*
X172997764Y-104662641D01*
X172997764Y-104662641D02*
X173046145Y-104711022D01*
X173046145Y-104711022D02*
X173094526Y-104807784D01*
X173094526Y-104807784D02*
X173094526Y-105194832D01*
X173046145Y-104178832D02*
X173046145Y-103840165D01*
X173578335Y-103695022D02*
X173578335Y-104178832D01*
X173578335Y-104178832D02*
X172562335Y-104178832D01*
X172562335Y-104178832D02*
X172562335Y-103695022D01*
X173529955Y-103307975D02*
X173578335Y-103162832D01*
X173578335Y-103162832D02*
X173578335Y-102920927D01*
X173578335Y-102920927D02*
X173529955Y-102824165D01*
X173529955Y-102824165D02*
X173481574Y-102775784D01*
X173481574Y-102775784D02*
X173384812Y-102727403D01*
X173384812Y-102727403D02*
X173288050Y-102727403D01*
X173288050Y-102727403D02*
X173191288Y-102775784D01*
X173191288Y-102775784D02*
X173142907Y-102824165D01*
X173142907Y-102824165D02*
X173094526Y-102920927D01*
X173094526Y-102920927D02*
X173046145Y-103114451D01*
X173046145Y-103114451D02*
X172997764Y-103211213D01*
X172997764Y-103211213D02*
X172949383Y-103259594D01*
X172949383Y-103259594D02*
X172852621Y-103307975D01*
X172852621Y-103307975D02*
X172755859Y-103307975D01*
X172755859Y-103307975D02*
X172659097Y-103259594D01*
X172659097Y-103259594D02*
X172610716Y-103211213D01*
X172610716Y-103211213D02*
X172562335Y-103114451D01*
X172562335Y-103114451D02*
X172562335Y-102872546D01*
X172562335Y-102872546D02*
X172610716Y-102727403D01*
X173046145Y-102291975D02*
X173046145Y-101953308D01*
X173578335Y-101808165D02*
X173578335Y-102291975D01*
X173578335Y-102291975D02*
X172562335Y-102291975D01*
X172562335Y-102291975D02*
X172562335Y-101808165D01*
X172562335Y-101517880D02*
X172562335Y-100937308D01*
X173578335Y-101227594D02*
X172562335Y-101227594D01*
X148929450Y-106183013D02*
X148929450Y-105699203D01*
X149219735Y-106279775D02*
X148203735Y-105941108D01*
X148203735Y-105941108D02*
X149219735Y-105602441D01*
X148203735Y-105360537D02*
X148203735Y-104731584D01*
X148203735Y-104731584D02*
X148590783Y-105070251D01*
X148590783Y-105070251D02*
X148590783Y-104925108D01*
X148590783Y-104925108D02*
X148639164Y-104828346D01*
X148639164Y-104828346D02*
X148687545Y-104779965D01*
X148687545Y-104779965D02*
X148784307Y-104731584D01*
X148784307Y-104731584D02*
X149026212Y-104731584D01*
X149026212Y-104731584D02*
X149122974Y-104779965D01*
X149122974Y-104779965D02*
X149171355Y-104828346D01*
X149171355Y-104828346D02*
X149219735Y-104925108D01*
X149219735Y-104925108D02*
X149219735Y-105215394D01*
X149219735Y-105215394D02*
X149171355Y-105312156D01*
X149171355Y-105312156D02*
X149122974Y-105360537D01*
D13*
X102822476Y-99784819D02*
X103155809Y-100784819D01*
X103155809Y-100784819D02*
X103489142Y-99784819D01*
X103774857Y-100737200D02*
X103917714Y-100784819D01*
X103917714Y-100784819D02*
X104155809Y-100784819D01*
X104155809Y-100784819D02*
X104251047Y-100737200D01*
X104251047Y-100737200D02*
X104298666Y-100689580D01*
X104298666Y-100689580D02*
X104346285Y-100594342D01*
X104346285Y-100594342D02*
X104346285Y-100499104D01*
X104346285Y-100499104D02*
X104298666Y-100403866D01*
X104298666Y-100403866D02*
X104251047Y-100356247D01*
X104251047Y-100356247D02*
X104155809Y-100308628D01*
X104155809Y-100308628D02*
X103965333Y-100261009D01*
X103965333Y-100261009D02*
X103870095Y-100213390D01*
X103870095Y-100213390D02*
X103822476Y-100165771D01*
X103822476Y-100165771D02*
X103774857Y-100070533D01*
X103774857Y-100070533D02*
X103774857Y-99975295D01*
X103774857Y-99975295D02*
X103822476Y-99880057D01*
X103822476Y-99880057D02*
X103870095Y-99832438D01*
X103870095Y-99832438D02*
X103965333Y-99784819D01*
X103965333Y-99784819D02*
X104203428Y-99784819D01*
X104203428Y-99784819D02*
X104346285Y-99832438D01*
D11*
X196333405Y-105404735D02*
X196865596Y-104727402D01*
X196333405Y-104727402D02*
X196865596Y-105404735D01*
X178253145Y-104856165D02*
X178301526Y-104711022D01*
X178301526Y-104711022D02*
X178349907Y-104662641D01*
X178349907Y-104662641D02*
X178446669Y-104614260D01*
X178446669Y-104614260D02*
X178591812Y-104614260D01*
X178591812Y-104614260D02*
X178688574Y-104662641D01*
X178688574Y-104662641D02*
X178736955Y-104711022D01*
X178736955Y-104711022D02*
X178785335Y-104807784D01*
X178785335Y-104807784D02*
X178785335Y-105194832D01*
X178785335Y-105194832D02*
X177769335Y-105194832D01*
X177769335Y-105194832D02*
X177769335Y-104856165D01*
X177769335Y-104856165D02*
X177817716Y-104759403D01*
X177817716Y-104759403D02*
X177866097Y-104711022D01*
X177866097Y-104711022D02*
X177962859Y-104662641D01*
X177962859Y-104662641D02*
X178059621Y-104662641D01*
X178059621Y-104662641D02*
X178156383Y-104711022D01*
X178156383Y-104711022D02*
X178204764Y-104759403D01*
X178204764Y-104759403D02*
X178253145Y-104856165D01*
X178253145Y-104856165D02*
X178253145Y-105194832D01*
X177769335Y-103985308D02*
X177769335Y-103791784D01*
X177769335Y-103791784D02*
X177817716Y-103695022D01*
X177817716Y-103695022D02*
X177914478Y-103598260D01*
X177914478Y-103598260D02*
X178108002Y-103549879D01*
X178108002Y-103549879D02*
X178446669Y-103549879D01*
X178446669Y-103549879D02*
X178640193Y-103598260D01*
X178640193Y-103598260D02*
X178736955Y-103695022D01*
X178736955Y-103695022D02*
X178785335Y-103791784D01*
X178785335Y-103791784D02*
X178785335Y-103985308D01*
X178785335Y-103985308D02*
X178736955Y-104082070D01*
X178736955Y-104082070D02*
X178640193Y-104178832D01*
X178640193Y-104178832D02*
X178446669Y-104227213D01*
X178446669Y-104227213D02*
X178108002Y-104227213D01*
X178108002Y-104227213D02*
X177914478Y-104178832D01*
X177914478Y-104178832D02*
X177817716Y-104082070D01*
X177817716Y-104082070D02*
X177769335Y-103985308D01*
X177769335Y-102920927D02*
X177769335Y-102727403D01*
X177769335Y-102727403D02*
X177817716Y-102630641D01*
X177817716Y-102630641D02*
X177914478Y-102533879D01*
X177914478Y-102533879D02*
X178108002Y-102485498D01*
X178108002Y-102485498D02*
X178446669Y-102485498D01*
X178446669Y-102485498D02*
X178640193Y-102533879D01*
X178640193Y-102533879D02*
X178736955Y-102630641D01*
X178736955Y-102630641D02*
X178785335Y-102727403D01*
X178785335Y-102727403D02*
X178785335Y-102920927D01*
X178785335Y-102920927D02*
X178736955Y-103017689D01*
X178736955Y-103017689D02*
X178640193Y-103114451D01*
X178640193Y-103114451D02*
X178446669Y-103162832D01*
X178446669Y-103162832D02*
X178108002Y-103162832D01*
X178108002Y-103162832D02*
X177914478Y-103114451D01*
X177914478Y-103114451D02*
X177817716Y-103017689D01*
X177817716Y-103017689D02*
X177769335Y-102920927D01*
X177769335Y-102195213D02*
X177769335Y-101614641D01*
X178785335Y-101904927D02*
X177769335Y-101904927D01*
X178785335Y-100743784D02*
X178785335Y-101324356D01*
X178785335Y-101034070D02*
X177769335Y-101034070D01*
X177769335Y-101034070D02*
X177914478Y-101130832D01*
X177914478Y-101130832D02*
X178011240Y-101227594D01*
X178011240Y-101227594D02*
X178059621Y-101324356D01*
X156447850Y-80739470D02*
X156447850Y-80255660D01*
X156738135Y-80836232D02*
X155722135Y-80497565D01*
X155722135Y-80497565D02*
X156738135Y-80158898D01*
X156738135Y-79771851D02*
X156738135Y-79578327D01*
X156738135Y-79578327D02*
X156689755Y-79481565D01*
X156689755Y-79481565D02*
X156641374Y-79433184D01*
X156641374Y-79433184D02*
X156496231Y-79336422D01*
X156496231Y-79336422D02*
X156302707Y-79288041D01*
X156302707Y-79288041D02*
X155915659Y-79288041D01*
X155915659Y-79288041D02*
X155818897Y-79336422D01*
X155818897Y-79336422D02*
X155770516Y-79384803D01*
X155770516Y-79384803D02*
X155722135Y-79481565D01*
X155722135Y-79481565D02*
X155722135Y-79675089D01*
X155722135Y-79675089D02*
X155770516Y-79771851D01*
X155770516Y-79771851D02*
X155818897Y-79820232D01*
X155818897Y-79820232D02*
X155915659Y-79868613D01*
X155915659Y-79868613D02*
X156157564Y-79868613D01*
X156157564Y-79868613D02*
X156254326Y-79820232D01*
X156254326Y-79820232D02*
X156302707Y-79771851D01*
X156302707Y-79771851D02*
X156351088Y-79675089D01*
X156351088Y-79675089D02*
X156351088Y-79481565D01*
X156351088Y-79481565D02*
X156302707Y-79384803D01*
X156302707Y-79384803D02*
X156254326Y-79336422D01*
X156254326Y-79336422D02*
X156157564Y-79288041D01*
X190364405Y-102568402D02*
X190896596Y-102568402D01*
X190896596Y-102568402D02*
X190364405Y-103245735D01*
X190364405Y-103245735D02*
X190896596Y-103245735D01*
X140530516Y-105983441D02*
X140482135Y-106080203D01*
X140482135Y-106080203D02*
X140482135Y-106225346D01*
X140482135Y-106225346D02*
X140530516Y-106370489D01*
X140530516Y-106370489D02*
X140627278Y-106467251D01*
X140627278Y-106467251D02*
X140724040Y-106515632D01*
X140724040Y-106515632D02*
X140917564Y-106564013D01*
X140917564Y-106564013D02*
X141062707Y-106564013D01*
X141062707Y-106564013D02*
X141256231Y-106515632D01*
X141256231Y-106515632D02*
X141352993Y-106467251D01*
X141352993Y-106467251D02*
X141449755Y-106370489D01*
X141449755Y-106370489D02*
X141498135Y-106225346D01*
X141498135Y-106225346D02*
X141498135Y-106128584D01*
X141498135Y-106128584D02*
X141449755Y-105983441D01*
X141449755Y-105983441D02*
X141401374Y-105935060D01*
X141401374Y-105935060D02*
X141062707Y-105935060D01*
X141062707Y-105935060D02*
X141062707Y-106128584D01*
X141498135Y-105499632D02*
X140482135Y-105499632D01*
X140482135Y-105499632D02*
X141498135Y-104919060D01*
X141498135Y-104919060D02*
X140482135Y-104919060D01*
X141498135Y-104435251D02*
X140482135Y-104435251D01*
X140482135Y-104435251D02*
X140482135Y-104193346D01*
X140482135Y-104193346D02*
X140530516Y-104048203D01*
X140530516Y-104048203D02*
X140627278Y-103951441D01*
X140627278Y-103951441D02*
X140724040Y-103903060D01*
X140724040Y-103903060D02*
X140917564Y-103854679D01*
X140917564Y-103854679D02*
X141062707Y-103854679D01*
X141062707Y-103854679D02*
X141256231Y-103903060D01*
X141256231Y-103903060D02*
X141352993Y-103951441D01*
X141352993Y-103951441D02*
X141449755Y-104048203D01*
X141449755Y-104048203D02*
X141498135Y-104193346D01*
X141498135Y-104193346D02*
X141498135Y-104435251D01*
X133965647Y-86114524D02*
X133868885Y-86066143D01*
X133868885Y-86066143D02*
X133820504Y-86017762D01*
X133820504Y-86017762D02*
X133772123Y-85921000D01*
X133772123Y-85921000D02*
X133772123Y-85872619D01*
X133772123Y-85872619D02*
X133820504Y-85775857D01*
X133820504Y-85775857D02*
X133868885Y-85727476D01*
X133868885Y-85727476D02*
X133965647Y-85679095D01*
X133965647Y-85679095D02*
X134159171Y-85679095D01*
X134159171Y-85679095D02*
X134255933Y-85727476D01*
X134255933Y-85727476D02*
X134304314Y-85775857D01*
X134304314Y-85775857D02*
X134352695Y-85872619D01*
X134352695Y-85872619D02*
X134352695Y-85921000D01*
X134352695Y-85921000D02*
X134304314Y-86017762D01*
X134304314Y-86017762D02*
X134255933Y-86066143D01*
X134255933Y-86066143D02*
X134159171Y-86114524D01*
X134159171Y-86114524D02*
X133965647Y-86114524D01*
X133965647Y-86114524D02*
X133868885Y-86162905D01*
X133868885Y-86162905D02*
X133820504Y-86211286D01*
X133820504Y-86211286D02*
X133772123Y-86308048D01*
X133772123Y-86308048D02*
X133772123Y-86501572D01*
X133772123Y-86501572D02*
X133820504Y-86598334D01*
X133820504Y-86598334D02*
X133868885Y-86646715D01*
X133868885Y-86646715D02*
X133965647Y-86695095D01*
X133965647Y-86695095D02*
X134159171Y-86695095D01*
X134159171Y-86695095D02*
X134255933Y-86646715D01*
X134255933Y-86646715D02*
X134304314Y-86598334D01*
X134304314Y-86598334D02*
X134352695Y-86501572D01*
X134352695Y-86501572D02*
X134352695Y-86308048D01*
X134352695Y-86308048D02*
X134304314Y-86211286D01*
X134304314Y-86211286D02*
X134255933Y-86162905D01*
X134255933Y-86162905D02*
X134159171Y-86114524D01*
X134788123Y-86695095D02*
X134788123Y-86017762D01*
X134788123Y-86114524D02*
X134836504Y-86066143D01*
X134836504Y-86066143D02*
X134933266Y-86017762D01*
X134933266Y-86017762D02*
X135078409Y-86017762D01*
X135078409Y-86017762D02*
X135175171Y-86066143D01*
X135175171Y-86066143D02*
X135223552Y-86162905D01*
X135223552Y-86162905D02*
X135223552Y-86695095D01*
X135223552Y-86162905D02*
X135271933Y-86066143D01*
X135271933Y-86066143D02*
X135368695Y-86017762D01*
X135368695Y-86017762D02*
X135513838Y-86017762D01*
X135513838Y-86017762D02*
X135610599Y-86066143D01*
X135610599Y-86066143D02*
X135658980Y-86162905D01*
X135658980Y-86162905D02*
X135658980Y-86695095D01*
X136142790Y-86695095D02*
X136142790Y-85679095D01*
X136578219Y-86695095D02*
X136578219Y-86162905D01*
X136578219Y-86162905D02*
X136529838Y-86066143D01*
X136529838Y-86066143D02*
X136433076Y-86017762D01*
X136433076Y-86017762D02*
X136287933Y-86017762D01*
X136287933Y-86017762D02*
X136191171Y-86066143D01*
X136191171Y-86066143D02*
X136142790Y-86114524D01*
X136965266Y-86017762D02*
X137497457Y-86017762D01*
X137497457Y-86017762D02*
X136965266Y-86695095D01*
X136965266Y-86695095D02*
X137497457Y-86695095D01*
X96407386Y-101673355D02*
X96552529Y-101721735D01*
X96552529Y-101721735D02*
X96794434Y-101721735D01*
X96794434Y-101721735D02*
X96891196Y-101673355D01*
X96891196Y-101673355D02*
X96939577Y-101624974D01*
X96939577Y-101624974D02*
X96987958Y-101528212D01*
X96987958Y-101528212D02*
X96987958Y-101431450D01*
X96987958Y-101431450D02*
X96939577Y-101334688D01*
X96939577Y-101334688D02*
X96891196Y-101286307D01*
X96891196Y-101286307D02*
X96794434Y-101237926D01*
X96794434Y-101237926D02*
X96600910Y-101189545D01*
X96600910Y-101189545D02*
X96504148Y-101141164D01*
X96504148Y-101141164D02*
X96455767Y-101092783D01*
X96455767Y-101092783D02*
X96407386Y-100996021D01*
X96407386Y-100996021D02*
X96407386Y-100899259D01*
X96407386Y-100899259D02*
X96455767Y-100802497D01*
X96455767Y-100802497D02*
X96504148Y-100754116D01*
X96504148Y-100754116D02*
X96600910Y-100705735D01*
X96600910Y-100705735D02*
X96842815Y-100705735D01*
X96842815Y-100705735D02*
X96987958Y-100754116D01*
X97616910Y-101237926D02*
X97616910Y-101721735D01*
X97278243Y-100705735D02*
X97616910Y-101237926D01*
X97616910Y-101237926D02*
X97955577Y-100705735D01*
X98245862Y-101673355D02*
X98391005Y-101721735D01*
X98391005Y-101721735D02*
X98632910Y-101721735D01*
X98632910Y-101721735D02*
X98729672Y-101673355D01*
X98729672Y-101673355D02*
X98778053Y-101624974D01*
X98778053Y-101624974D02*
X98826434Y-101528212D01*
X98826434Y-101528212D02*
X98826434Y-101431450D01*
X98826434Y-101431450D02*
X98778053Y-101334688D01*
X98778053Y-101334688D02*
X98729672Y-101286307D01*
X98729672Y-101286307D02*
X98632910Y-101237926D01*
X98632910Y-101237926D02*
X98439386Y-101189545D01*
X98439386Y-101189545D02*
X98342624Y-101141164D01*
X98342624Y-101141164D02*
X98294243Y-101092783D01*
X98294243Y-101092783D02*
X98245862Y-100996021D01*
X98245862Y-100996021D02*
X98245862Y-100899259D01*
X98245862Y-100899259D02*
X98294243Y-100802497D01*
X98294243Y-100802497D02*
X98342624Y-100754116D01*
X98342624Y-100754116D02*
X98439386Y-100705735D01*
X98439386Y-100705735D02*
X98681291Y-100705735D01*
X98681291Y-100705735D02*
X98826434Y-100754116D01*
X161336745Y-81465184D02*
X161385126Y-81320041D01*
X161385126Y-81320041D02*
X161433507Y-81271660D01*
X161433507Y-81271660D02*
X161530269Y-81223279D01*
X161530269Y-81223279D02*
X161675412Y-81223279D01*
X161675412Y-81223279D02*
X161772174Y-81271660D01*
X161772174Y-81271660D02*
X161820555Y-81320041D01*
X161820555Y-81320041D02*
X161868935Y-81416803D01*
X161868935Y-81416803D02*
X161868935Y-81803851D01*
X161868935Y-81803851D02*
X160852935Y-81803851D01*
X160852935Y-81803851D02*
X160852935Y-81465184D01*
X160852935Y-81465184D02*
X160901316Y-81368422D01*
X160901316Y-81368422D02*
X160949697Y-81320041D01*
X160949697Y-81320041D02*
X161046459Y-81271660D01*
X161046459Y-81271660D02*
X161143221Y-81271660D01*
X161143221Y-81271660D02*
X161239983Y-81320041D01*
X161239983Y-81320041D02*
X161288364Y-81368422D01*
X161288364Y-81368422D02*
X161336745Y-81465184D01*
X161336745Y-81465184D02*
X161336745Y-81803851D01*
X161868935Y-80255660D02*
X161868935Y-80836232D01*
X161868935Y-80545946D02*
X160852935Y-80545946D01*
X160852935Y-80545946D02*
X160998078Y-80642708D01*
X160998078Y-80642708D02*
X161094840Y-80739470D01*
X161094840Y-80739470D02*
X161143221Y-80836232D01*
X160852935Y-79336422D02*
X160852935Y-79820232D01*
X160852935Y-79820232D02*
X161336745Y-79868613D01*
X161336745Y-79868613D02*
X161288364Y-79820232D01*
X161288364Y-79820232D02*
X161239983Y-79723470D01*
X161239983Y-79723470D02*
X161239983Y-79481565D01*
X161239983Y-79481565D02*
X161288364Y-79384803D01*
X161288364Y-79384803D02*
X161336745Y-79336422D01*
X161336745Y-79336422D02*
X161433507Y-79288041D01*
X161433507Y-79288041D02*
X161675412Y-79288041D01*
X161675412Y-79288041D02*
X161772174Y-79336422D01*
X161772174Y-79336422D02*
X161820555Y-79384803D01*
X161820555Y-79384803D02*
X161868935Y-79481565D01*
X161868935Y-79481565D02*
X161868935Y-79723470D01*
X161868935Y-79723470D02*
X161820555Y-79820232D01*
X161820555Y-79820232D02*
X161772174Y-79868613D01*
D14*
X105565009Y-77901292D02*
X105746438Y-77961768D01*
X105746438Y-77961768D02*
X106048819Y-77961768D01*
X106048819Y-77961768D02*
X106169771Y-77901292D01*
X106169771Y-77901292D02*
X106230247Y-77840815D01*
X106230247Y-77840815D02*
X106290724Y-77719863D01*
X106290724Y-77719863D02*
X106290724Y-77598911D01*
X106290724Y-77598911D02*
X106230247Y-77477958D01*
X106230247Y-77477958D02*
X106169771Y-77417482D01*
X106169771Y-77417482D02*
X106048819Y-77357006D01*
X106048819Y-77357006D02*
X105806914Y-77296530D01*
X105806914Y-77296530D02*
X105685962Y-77236053D01*
X105685962Y-77236053D02*
X105625485Y-77175577D01*
X105625485Y-77175577D02*
X105565009Y-77054625D01*
X105565009Y-77054625D02*
X105565009Y-76933672D01*
X105565009Y-76933672D02*
X105625485Y-76812720D01*
X105625485Y-76812720D02*
X105685962Y-76752244D01*
X105685962Y-76752244D02*
X105806914Y-76691768D01*
X105806914Y-76691768D02*
X106109295Y-76691768D01*
X106109295Y-76691768D02*
X106290724Y-76752244D01*
X106653581Y-76691768D02*
X107379295Y-76691768D01*
X107016438Y-77961768D02*
X107016438Y-76691768D01*
X107802628Y-77961768D02*
X107802628Y-76691768D01*
X107802628Y-76691768D02*
X108225962Y-77598911D01*
X108225962Y-77598911D02*
X108649295Y-76691768D01*
X108649295Y-76691768D02*
X108649295Y-77961768D01*
X109133105Y-76691768D02*
X109919296Y-76691768D01*
X109919296Y-76691768D02*
X109495962Y-77175577D01*
X109495962Y-77175577D02*
X109677391Y-77175577D01*
X109677391Y-77175577D02*
X109798343Y-77236053D01*
X109798343Y-77236053D02*
X109858819Y-77296530D01*
X109858819Y-77296530D02*
X109919296Y-77417482D01*
X109919296Y-77417482D02*
X109919296Y-77719863D01*
X109919296Y-77719863D02*
X109858819Y-77840815D01*
X109858819Y-77840815D02*
X109798343Y-77901292D01*
X109798343Y-77901292D02*
X109677391Y-77961768D01*
X109677391Y-77961768D02*
X109314534Y-77961768D01*
X109314534Y-77961768D02*
X109193581Y-77901292D01*
X109193581Y-77901292D02*
X109133105Y-77840815D01*
X110403105Y-76812720D02*
X110463581Y-76752244D01*
X110463581Y-76752244D02*
X110584534Y-76691768D01*
X110584534Y-76691768D02*
X110886915Y-76691768D01*
X110886915Y-76691768D02*
X111007867Y-76752244D01*
X111007867Y-76752244D02*
X111068343Y-76812720D01*
X111068343Y-76812720D02*
X111128820Y-76933672D01*
X111128820Y-76933672D02*
X111128820Y-77054625D01*
X111128820Y-77054625D02*
X111068343Y-77236053D01*
X111068343Y-77236053D02*
X110342629Y-77961768D01*
X110342629Y-77961768D02*
X111128820Y-77961768D01*
X112277867Y-77961768D02*
X111673105Y-77961768D01*
X111673105Y-77961768D02*
X111673105Y-76691768D01*
X113366439Y-77961768D02*
X112640724Y-77961768D01*
X113003581Y-77961768D02*
X113003581Y-76691768D01*
X113003581Y-76691768D02*
X112882629Y-76873196D01*
X112882629Y-76873196D02*
X112761677Y-76994149D01*
X112761677Y-76994149D02*
X112640724Y-77054625D01*
X114515486Y-76691768D02*
X113910724Y-76691768D01*
X113910724Y-76691768D02*
X113850248Y-77296530D01*
X113850248Y-77296530D02*
X113910724Y-77236053D01*
X113910724Y-77236053D02*
X114031677Y-77175577D01*
X114031677Y-77175577D02*
X114334058Y-77175577D01*
X114334058Y-77175577D02*
X114455010Y-77236053D01*
X114455010Y-77236053D02*
X114515486Y-77296530D01*
X114515486Y-77296530D02*
X114575963Y-77417482D01*
X114575963Y-77417482D02*
X114575963Y-77719863D01*
X114575963Y-77719863D02*
X114515486Y-77840815D01*
X114515486Y-77840815D02*
X114455010Y-77901292D01*
X114455010Y-77901292D02*
X114334058Y-77961768D01*
X114334058Y-77961768D02*
X114031677Y-77961768D01*
X114031677Y-77961768D02*
X113910724Y-77901292D01*
X113910724Y-77901292D02*
X113850248Y-77840815D01*
X115785487Y-77961768D02*
X115059772Y-77961768D01*
X115422629Y-77961768D02*
X115422629Y-76691768D01*
X115422629Y-76691768D02*
X115301677Y-76873196D01*
X115301677Y-76873196D02*
X115180725Y-76994149D01*
X115180725Y-76994149D02*
X115059772Y-77054625D01*
X117055487Y-77840815D02*
X116995011Y-77901292D01*
X116995011Y-77901292D02*
X116813582Y-77961768D01*
X116813582Y-77961768D02*
X116692630Y-77961768D01*
X116692630Y-77961768D02*
X116511201Y-77901292D01*
X116511201Y-77901292D02*
X116390249Y-77780339D01*
X116390249Y-77780339D02*
X116329772Y-77659387D01*
X116329772Y-77659387D02*
X116269296Y-77417482D01*
X116269296Y-77417482D02*
X116269296Y-77236053D01*
X116269296Y-77236053D02*
X116329772Y-76994149D01*
X116329772Y-76994149D02*
X116390249Y-76873196D01*
X116390249Y-76873196D02*
X116511201Y-76752244D01*
X116511201Y-76752244D02*
X116692630Y-76691768D01*
X116692630Y-76691768D02*
X116813582Y-76691768D01*
X116813582Y-76691768D02*
X116995011Y-76752244D01*
X116995011Y-76752244D02*
X117055487Y-76812720D01*
X117781201Y-77236053D02*
X117660249Y-77175577D01*
X117660249Y-77175577D02*
X117599772Y-77115101D01*
X117599772Y-77115101D02*
X117539296Y-76994149D01*
X117539296Y-76994149D02*
X117539296Y-76933672D01*
X117539296Y-76933672D02*
X117599772Y-76812720D01*
X117599772Y-76812720D02*
X117660249Y-76752244D01*
X117660249Y-76752244D02*
X117781201Y-76691768D01*
X117781201Y-76691768D02*
X118023106Y-76691768D01*
X118023106Y-76691768D02*
X118144058Y-76752244D01*
X118144058Y-76752244D02*
X118204534Y-76812720D01*
X118204534Y-76812720D02*
X118265011Y-76933672D01*
X118265011Y-76933672D02*
X118265011Y-76994149D01*
X118265011Y-76994149D02*
X118204534Y-77115101D01*
X118204534Y-77115101D02*
X118144058Y-77175577D01*
X118144058Y-77175577D02*
X118023106Y-77236053D01*
X118023106Y-77236053D02*
X117781201Y-77236053D01*
X117781201Y-77236053D02*
X117660249Y-77296530D01*
X117660249Y-77296530D02*
X117599772Y-77357006D01*
X117599772Y-77357006D02*
X117539296Y-77477958D01*
X117539296Y-77477958D02*
X117539296Y-77719863D01*
X117539296Y-77719863D02*
X117599772Y-77840815D01*
X117599772Y-77840815D02*
X117660249Y-77901292D01*
X117660249Y-77901292D02*
X117781201Y-77961768D01*
X117781201Y-77961768D02*
X118023106Y-77961768D01*
X118023106Y-77961768D02*
X118144058Y-77901292D01*
X118144058Y-77901292D02*
X118204534Y-77840815D01*
X118204534Y-77840815D02*
X118265011Y-77719863D01*
X118265011Y-77719863D02*
X118265011Y-77477958D01*
X118265011Y-77477958D02*
X118204534Y-77357006D01*
X118204534Y-77357006D02*
X118144058Y-77296530D01*
X118144058Y-77296530D02*
X118023106Y-77236053D01*
X120200249Y-77296530D02*
X120381677Y-77357006D01*
X120381677Y-77357006D02*
X120442154Y-77417482D01*
X120442154Y-77417482D02*
X120502630Y-77538434D01*
X120502630Y-77538434D02*
X120502630Y-77719863D01*
X120502630Y-77719863D02*
X120442154Y-77840815D01*
X120442154Y-77840815D02*
X120381677Y-77901292D01*
X120381677Y-77901292D02*
X120260725Y-77961768D01*
X120260725Y-77961768D02*
X119776915Y-77961768D01*
X119776915Y-77961768D02*
X119776915Y-76691768D01*
X119776915Y-76691768D02*
X120200249Y-76691768D01*
X120200249Y-76691768D02*
X120321201Y-76752244D01*
X120321201Y-76752244D02*
X120381677Y-76812720D01*
X120381677Y-76812720D02*
X120442154Y-76933672D01*
X120442154Y-76933672D02*
X120442154Y-77054625D01*
X120442154Y-77054625D02*
X120381677Y-77175577D01*
X120381677Y-77175577D02*
X120321201Y-77236053D01*
X120321201Y-77236053D02*
X120200249Y-77296530D01*
X120200249Y-77296530D02*
X119776915Y-77296530D01*
X120986439Y-77598911D02*
X121591201Y-77598911D01*
X120865487Y-77961768D02*
X121288820Y-76691768D01*
X121288820Y-76691768D02*
X121712154Y-77961768D01*
X121954058Y-76691768D02*
X122679772Y-76691768D01*
X122316915Y-77961768D02*
X122316915Y-76691768D01*
X122921677Y-76691768D02*
X123647391Y-76691768D01*
X123284534Y-77961768D02*
X123284534Y-76691768D01*
X124070724Y-77296530D02*
X124494058Y-77296530D01*
X124675486Y-77961768D02*
X124070724Y-77961768D01*
X124070724Y-77961768D02*
X124070724Y-76691768D01*
X124070724Y-76691768D02*
X124675486Y-76691768D01*
X125945487Y-77961768D02*
X125522153Y-77357006D01*
X125219772Y-77961768D02*
X125219772Y-76691768D01*
X125219772Y-76691768D02*
X125703582Y-76691768D01*
X125703582Y-76691768D02*
X125824534Y-76752244D01*
X125824534Y-76752244D02*
X125885011Y-76812720D01*
X125885011Y-76812720D02*
X125945487Y-76933672D01*
X125945487Y-76933672D02*
X125945487Y-77115101D01*
X125945487Y-77115101D02*
X125885011Y-77236053D01*
X125885011Y-77236053D02*
X125824534Y-77296530D01*
X125824534Y-77296530D02*
X125703582Y-77357006D01*
X125703582Y-77357006D02*
X125219772Y-77357006D01*
X126731677Y-77357006D02*
X126731677Y-77961768D01*
X126308344Y-76691768D02*
X126731677Y-77357006D01*
X126731677Y-77357006D02*
X127155011Y-76691768D01*
X128545962Y-77961768D02*
X128545962Y-76691768D01*
X128545962Y-76691768D02*
X128848343Y-76691768D01*
X128848343Y-76691768D02*
X129029772Y-76752244D01*
X129029772Y-76752244D02*
X129150724Y-76873196D01*
X129150724Y-76873196D02*
X129211201Y-76994149D01*
X129211201Y-76994149D02*
X129271677Y-77236053D01*
X129271677Y-77236053D02*
X129271677Y-77417482D01*
X129271677Y-77417482D02*
X129211201Y-77659387D01*
X129211201Y-77659387D02*
X129150724Y-77780339D01*
X129150724Y-77780339D02*
X129029772Y-77901292D01*
X129029772Y-77901292D02*
X128848343Y-77961768D01*
X128848343Y-77961768D02*
X128545962Y-77961768D01*
X129815962Y-77296530D02*
X130239296Y-77296530D01*
X130420724Y-77961768D02*
X129815962Y-77961768D01*
X129815962Y-77961768D02*
X129815962Y-76691768D01*
X129815962Y-76691768D02*
X130420724Y-76691768D01*
X130783582Y-76691768D02*
X131206915Y-77961768D01*
X131206915Y-77961768D02*
X131630249Y-76691768D01*
X133444534Y-77296530D02*
X133625962Y-77357006D01*
X133625962Y-77357006D02*
X133686439Y-77417482D01*
X133686439Y-77417482D02*
X133746915Y-77538434D01*
X133746915Y-77538434D02*
X133746915Y-77719863D01*
X133746915Y-77719863D02*
X133686439Y-77840815D01*
X133686439Y-77840815D02*
X133625962Y-77901292D01*
X133625962Y-77901292D02*
X133505010Y-77961768D01*
X133505010Y-77961768D02*
X133021200Y-77961768D01*
X133021200Y-77961768D02*
X133021200Y-76691768D01*
X133021200Y-76691768D02*
X133444534Y-76691768D01*
X133444534Y-76691768D02*
X133565486Y-76752244D01*
X133565486Y-76752244D02*
X133625962Y-76812720D01*
X133625962Y-76812720D02*
X133686439Y-76933672D01*
X133686439Y-76933672D02*
X133686439Y-77054625D01*
X133686439Y-77054625D02*
X133625962Y-77175577D01*
X133625962Y-77175577D02*
X133565486Y-77236053D01*
X133565486Y-77236053D02*
X133444534Y-77296530D01*
X133444534Y-77296530D02*
X133021200Y-77296530D01*
X134533105Y-76691768D02*
X134775010Y-76691768D01*
X134775010Y-76691768D02*
X134895962Y-76752244D01*
X134895962Y-76752244D02*
X135016915Y-76873196D01*
X135016915Y-76873196D02*
X135077391Y-77115101D01*
X135077391Y-77115101D02*
X135077391Y-77538434D01*
X135077391Y-77538434D02*
X135016915Y-77780339D01*
X135016915Y-77780339D02*
X134895962Y-77901292D01*
X134895962Y-77901292D02*
X134775010Y-77961768D01*
X134775010Y-77961768D02*
X134533105Y-77961768D01*
X134533105Y-77961768D02*
X134412153Y-77901292D01*
X134412153Y-77901292D02*
X134291200Y-77780339D01*
X134291200Y-77780339D02*
X134230724Y-77538434D01*
X134230724Y-77538434D02*
X134230724Y-77115101D01*
X134230724Y-77115101D02*
X134291200Y-76873196D01*
X134291200Y-76873196D02*
X134412153Y-76752244D01*
X134412153Y-76752244D02*
X134533105Y-76691768D01*
X135561200Y-77598911D02*
X136165962Y-77598911D01*
X135440248Y-77961768D02*
X135863581Y-76691768D01*
X135863581Y-76691768D02*
X136286915Y-77961768D01*
X137435962Y-77961768D02*
X137012628Y-77357006D01*
X136710247Y-77961768D02*
X136710247Y-76691768D01*
X136710247Y-76691768D02*
X137194057Y-76691768D01*
X137194057Y-76691768D02*
X137315009Y-76752244D01*
X137315009Y-76752244D02*
X137375486Y-76812720D01*
X137375486Y-76812720D02*
X137435962Y-76933672D01*
X137435962Y-76933672D02*
X137435962Y-77115101D01*
X137435962Y-77115101D02*
X137375486Y-77236053D01*
X137375486Y-77236053D02*
X137315009Y-77296530D01*
X137315009Y-77296530D02*
X137194057Y-77357006D01*
X137194057Y-77357006D02*
X136710247Y-77357006D01*
X137980247Y-77961768D02*
X137980247Y-76691768D01*
X137980247Y-76691768D02*
X138282628Y-76691768D01*
X138282628Y-76691768D02*
X138464057Y-76752244D01*
X138464057Y-76752244D02*
X138585009Y-76873196D01*
X138585009Y-76873196D02*
X138645486Y-76994149D01*
X138645486Y-76994149D02*
X138705962Y-77236053D01*
X138705962Y-77236053D02*
X138705962Y-77417482D01*
X138705962Y-77417482D02*
X138645486Y-77659387D01*
X138645486Y-77659387D02*
X138585009Y-77780339D01*
X138585009Y-77780339D02*
X138464057Y-77901292D01*
X138464057Y-77901292D02*
X138282628Y-77961768D01*
X138282628Y-77961768D02*
X137980247Y-77961768D01*
D11*
X161235145Y-105948365D02*
X161283526Y-105803222D01*
X161283526Y-105803222D02*
X161331907Y-105754841D01*
X161331907Y-105754841D02*
X161428669Y-105706460D01*
X161428669Y-105706460D02*
X161573812Y-105706460D01*
X161573812Y-105706460D02*
X161670574Y-105754841D01*
X161670574Y-105754841D02*
X161718955Y-105803222D01*
X161718955Y-105803222D02*
X161767335Y-105899984D01*
X161767335Y-105899984D02*
X161767335Y-106287032D01*
X161767335Y-106287032D02*
X160751335Y-106287032D01*
X160751335Y-106287032D02*
X160751335Y-105948365D01*
X160751335Y-105948365D02*
X160799716Y-105851603D01*
X160799716Y-105851603D02*
X160848097Y-105803222D01*
X160848097Y-105803222D02*
X160944859Y-105754841D01*
X160944859Y-105754841D02*
X161041621Y-105754841D01*
X161041621Y-105754841D02*
X161138383Y-105803222D01*
X161138383Y-105803222D02*
X161186764Y-105851603D01*
X161186764Y-105851603D02*
X161235145Y-105948365D01*
X161235145Y-105948365D02*
X161235145Y-106287032D01*
X161767335Y-104738841D02*
X161767335Y-105319413D01*
X161767335Y-105029127D02*
X160751335Y-105029127D01*
X160751335Y-105029127D02*
X160896478Y-105125889D01*
X160896478Y-105125889D02*
X160993240Y-105222651D01*
X160993240Y-105222651D02*
X161041621Y-105319413D01*
X160751335Y-104109889D02*
X160751335Y-104013127D01*
X160751335Y-104013127D02*
X160799716Y-103916365D01*
X160799716Y-103916365D02*
X160848097Y-103867984D01*
X160848097Y-103867984D02*
X160944859Y-103819603D01*
X160944859Y-103819603D02*
X161138383Y-103771222D01*
X161138383Y-103771222D02*
X161380288Y-103771222D01*
X161380288Y-103771222D02*
X161573812Y-103819603D01*
X161573812Y-103819603D02*
X161670574Y-103867984D01*
X161670574Y-103867984D02*
X161718955Y-103916365D01*
X161718955Y-103916365D02*
X161767335Y-104013127D01*
X161767335Y-104013127D02*
X161767335Y-104109889D01*
X161767335Y-104109889D02*
X161718955Y-104206651D01*
X161718955Y-104206651D02*
X161670574Y-104255032D01*
X161670574Y-104255032D02*
X161573812Y-104303413D01*
X161573812Y-104303413D02*
X161380288Y-104351794D01*
X161380288Y-104351794D02*
X161138383Y-104351794D01*
X161138383Y-104351794D02*
X160944859Y-104303413D01*
X160944859Y-104303413D02*
X160848097Y-104255032D01*
X160848097Y-104255032D02*
X160799716Y-104206651D01*
X160799716Y-104206651D02*
X160751335Y-104109889D01*
X96310624Y-98419735D02*
X96649291Y-99435735D01*
X96649291Y-99435735D02*
X96987958Y-98419735D01*
X97278243Y-99145450D02*
X97762053Y-99145450D01*
X97181481Y-99435735D02*
X97520148Y-98419735D01*
X97520148Y-98419735D02*
X97858815Y-99435735D01*
X98197481Y-99435735D02*
X98197481Y-98419735D01*
X98197481Y-98419735D02*
X98439386Y-98419735D01*
X98439386Y-98419735D02*
X98584529Y-98468116D01*
X98584529Y-98468116D02*
X98681291Y-98564878D01*
X98681291Y-98564878D02*
X98729672Y-98661640D01*
X98729672Y-98661640D02*
X98778053Y-98855164D01*
X98778053Y-98855164D02*
X98778053Y-99000307D01*
X98778053Y-99000307D02*
X98729672Y-99193831D01*
X98729672Y-99193831D02*
X98681291Y-99290593D01*
X98681291Y-99290593D02*
X98584529Y-99387355D01*
X98584529Y-99387355D02*
X98439386Y-99435735D01*
X98439386Y-99435735D02*
X98197481Y-99435735D01*
X99794053Y-99338974D02*
X99745672Y-99387355D01*
X99745672Y-99387355D02*
X99600529Y-99435735D01*
X99600529Y-99435735D02*
X99503767Y-99435735D01*
X99503767Y-99435735D02*
X99358624Y-99387355D01*
X99358624Y-99387355D02*
X99261862Y-99290593D01*
X99261862Y-99290593D02*
X99213481Y-99193831D01*
X99213481Y-99193831D02*
X99165100Y-99000307D01*
X99165100Y-99000307D02*
X99165100Y-98855164D01*
X99165100Y-98855164D02*
X99213481Y-98661640D01*
X99213481Y-98661640D02*
X99261862Y-98564878D01*
X99261862Y-98564878D02*
X99358624Y-98468116D01*
X99358624Y-98468116D02*
X99503767Y-98419735D01*
X99503767Y-98419735D02*
X99600529Y-98419735D01*
X99600529Y-98419735D02*
X99745672Y-98468116D01*
X99745672Y-98468116D02*
X99794053Y-98516497D01*
D13*
X194873714Y-85878200D02*
X195016571Y-85925819D01*
X195016571Y-85925819D02*
X195254666Y-85925819D01*
X195254666Y-85925819D02*
X195349904Y-85878200D01*
X195349904Y-85878200D02*
X195397523Y-85830580D01*
X195397523Y-85830580D02*
X195445142Y-85735342D01*
X195445142Y-85735342D02*
X195445142Y-85640104D01*
X195445142Y-85640104D02*
X195397523Y-85544866D01*
X195397523Y-85544866D02*
X195349904Y-85497247D01*
X195349904Y-85497247D02*
X195254666Y-85449628D01*
X195254666Y-85449628D02*
X195064190Y-85402009D01*
X195064190Y-85402009D02*
X194968952Y-85354390D01*
X194968952Y-85354390D02*
X194921333Y-85306771D01*
X194921333Y-85306771D02*
X194873714Y-85211533D01*
X194873714Y-85211533D02*
X194873714Y-85116295D01*
X194873714Y-85116295D02*
X194921333Y-85021057D01*
X194921333Y-85021057D02*
X194968952Y-84973438D01*
X194968952Y-84973438D02*
X195064190Y-84925819D01*
X195064190Y-84925819D02*
X195302285Y-84925819D01*
X195302285Y-84925819D02*
X195445142Y-84973438D01*
X195873714Y-85925819D02*
X195873714Y-84925819D01*
X195873714Y-84925819D02*
X196111809Y-84925819D01*
X196111809Y-84925819D02*
X196254666Y-84973438D01*
X196254666Y-84973438D02*
X196349904Y-85068676D01*
X196349904Y-85068676D02*
X196397523Y-85163914D01*
X196397523Y-85163914D02*
X196445142Y-85354390D01*
X196445142Y-85354390D02*
X196445142Y-85497247D01*
X196445142Y-85497247D02*
X196397523Y-85687723D01*
X196397523Y-85687723D02*
X196349904Y-85782961D01*
X196349904Y-85782961D02*
X196254666Y-85878200D01*
X196254666Y-85878200D02*
X196111809Y-85925819D01*
X196111809Y-85925819D02*
X195873714Y-85925819D01*
X196826095Y-85640104D02*
X197302285Y-85640104D01*
X196730857Y-85925819D02*
X197064190Y-84925819D01*
X197064190Y-84925819D02*
X197397523Y-85925819D01*
X124745761Y-94022057D02*
X124650523Y-93974438D01*
X124650523Y-93974438D02*
X124555285Y-93879200D01*
X124555285Y-93879200D02*
X124412428Y-93736342D01*
X124412428Y-93736342D02*
X124317190Y-93688723D01*
X124317190Y-93688723D02*
X124221952Y-93688723D01*
X124269571Y-93926819D02*
X124174333Y-93879200D01*
X124174333Y-93879200D02*
X124079095Y-93783961D01*
X124079095Y-93783961D02*
X124031476Y-93593485D01*
X124031476Y-93593485D02*
X124031476Y-93260152D01*
X124031476Y-93260152D02*
X124079095Y-93069676D01*
X124079095Y-93069676D02*
X124174333Y-92974438D01*
X124174333Y-92974438D02*
X124269571Y-92926819D01*
X124269571Y-92926819D02*
X124460047Y-92926819D01*
X124460047Y-92926819D02*
X124555285Y-92974438D01*
X124555285Y-92974438D02*
X124650523Y-93069676D01*
X124650523Y-93069676D02*
X124698142Y-93260152D01*
X124698142Y-93260152D02*
X124698142Y-93593485D01*
X124698142Y-93593485D02*
X124650523Y-93783961D01*
X124650523Y-93783961D02*
X124555285Y-93879200D01*
X124555285Y-93879200D02*
X124460047Y-93926819D01*
X124460047Y-93926819D02*
X124269571Y-93926819D01*
X125650523Y-93926819D02*
X125079095Y-93926819D01*
X125364809Y-93926819D02*
X125364809Y-92926819D01*
X125364809Y-92926819D02*
X125269571Y-93069676D01*
X125269571Y-93069676D02*
X125174333Y-93164914D01*
X125174333Y-93164914D02*
X125079095Y-93212533D01*
X97610705Y-77950219D02*
X97610705Y-76950219D01*
X97610705Y-76950219D02*
X97848800Y-76950219D01*
X97848800Y-76950219D02*
X97991657Y-76997838D01*
X97991657Y-76997838D02*
X98086895Y-77093076D01*
X98086895Y-77093076D02*
X98134514Y-77188314D01*
X98134514Y-77188314D02*
X98182133Y-77378790D01*
X98182133Y-77378790D02*
X98182133Y-77521647D01*
X98182133Y-77521647D02*
X98134514Y-77712123D01*
X98134514Y-77712123D02*
X98086895Y-77807361D01*
X98086895Y-77807361D02*
X97991657Y-77902600D01*
X97991657Y-77902600D02*
X97848800Y-77950219D01*
X97848800Y-77950219D02*
X97610705Y-77950219D01*
X99134514Y-77950219D02*
X98563086Y-77950219D01*
X98848800Y-77950219D02*
X98848800Y-76950219D01*
X98848800Y-76950219D02*
X98753562Y-77093076D01*
X98753562Y-77093076D02*
X98658324Y-77188314D01*
X98658324Y-77188314D02*
X98563086Y-77235933D01*
X184757219Y-100760066D02*
X184281028Y-101093399D01*
X184757219Y-101331494D02*
X183757219Y-101331494D01*
X183757219Y-101331494D02*
X183757219Y-100950542D01*
X183757219Y-100950542D02*
X183804838Y-100855304D01*
X183804838Y-100855304D02*
X183852457Y-100807685D01*
X183852457Y-100807685D02*
X183947695Y-100760066D01*
X183947695Y-100760066D02*
X184090552Y-100760066D01*
X184090552Y-100760066D02*
X184185790Y-100807685D01*
X184185790Y-100807685D02*
X184233409Y-100855304D01*
X184233409Y-100855304D02*
X184281028Y-100950542D01*
X184281028Y-100950542D02*
X184281028Y-101331494D01*
X183757219Y-100331494D02*
X184566742Y-100331494D01*
X184566742Y-100331494D02*
X184661980Y-100283875D01*
X184661980Y-100283875D02*
X184709600Y-100236256D01*
X184709600Y-100236256D02*
X184757219Y-100141018D01*
X184757219Y-100141018D02*
X184757219Y-99950542D01*
X184757219Y-99950542D02*
X184709600Y-99855304D01*
X184709600Y-99855304D02*
X184661980Y-99807685D01*
X184661980Y-99807685D02*
X184566742Y-99760066D01*
X184566742Y-99760066D02*
X183757219Y-99760066D01*
X183757219Y-99379113D02*
X183757219Y-98760066D01*
X183757219Y-98760066D02*
X184138171Y-99093399D01*
X184138171Y-99093399D02*
X184138171Y-98950542D01*
X184138171Y-98950542D02*
X184185790Y-98855304D01*
X184185790Y-98855304D02*
X184233409Y-98807685D01*
X184233409Y-98807685D02*
X184328647Y-98760066D01*
X184328647Y-98760066D02*
X184566742Y-98760066D01*
X184566742Y-98760066D02*
X184661980Y-98807685D01*
X184661980Y-98807685D02*
X184709600Y-98855304D01*
X184709600Y-98855304D02*
X184757219Y-98950542D01*
X184757219Y-98950542D02*
X184757219Y-99236256D01*
X184757219Y-99236256D02*
X184709600Y-99331494D01*
X184709600Y-99331494D02*
X184661980Y-99379113D01*
X183757219Y-97902923D02*
X183757219Y-98093399D01*
X183757219Y-98093399D02*
X183804838Y-98188637D01*
X183804838Y-98188637D02*
X183852457Y-98236256D01*
X183852457Y-98236256D02*
X183995314Y-98331494D01*
X183995314Y-98331494D02*
X184185790Y-98379113D01*
X184185790Y-98379113D02*
X184566742Y-98379113D01*
X184566742Y-98379113D02*
X184661980Y-98331494D01*
X184661980Y-98331494D02*
X184709600Y-98283875D01*
X184709600Y-98283875D02*
X184757219Y-98188637D01*
X184757219Y-98188637D02*
X184757219Y-97998161D01*
X184757219Y-97998161D02*
X184709600Y-97902923D01*
X184709600Y-97902923D02*
X184661980Y-97855304D01*
X184661980Y-97855304D02*
X184566742Y-97807685D01*
X184566742Y-97807685D02*
X184328647Y-97807685D01*
X184328647Y-97807685D02*
X184233409Y-97855304D01*
X184233409Y-97855304D02*
X184185790Y-97902923D01*
X184185790Y-97902923D02*
X184138171Y-97998161D01*
X184138171Y-97998161D02*
X184138171Y-98188637D01*
X184138171Y-98188637D02*
X184185790Y-98283875D01*
X184185790Y-98283875D02*
X184233409Y-98331494D01*
X184233409Y-98331494D02*
X184328647Y-98379113D01*
X146155580Y-88764857D02*
X146203200Y-88812476D01*
X146203200Y-88812476D02*
X146250819Y-88955333D01*
X146250819Y-88955333D02*
X146250819Y-89050571D01*
X146250819Y-89050571D02*
X146203200Y-89193428D01*
X146203200Y-89193428D02*
X146107961Y-89288666D01*
X146107961Y-89288666D02*
X146012723Y-89336285D01*
X146012723Y-89336285D02*
X145822247Y-89383904D01*
X145822247Y-89383904D02*
X145679390Y-89383904D01*
X145679390Y-89383904D02*
X145488914Y-89336285D01*
X145488914Y-89336285D02*
X145393676Y-89288666D01*
X145393676Y-89288666D02*
X145298438Y-89193428D01*
X145298438Y-89193428D02*
X145250819Y-89050571D01*
X145250819Y-89050571D02*
X145250819Y-88955333D01*
X145250819Y-88955333D02*
X145298438Y-88812476D01*
X145298438Y-88812476D02*
X145346057Y-88764857D01*
X145250819Y-88336285D02*
X146060342Y-88336285D01*
X146060342Y-88336285D02*
X146155580Y-88288666D01*
X146155580Y-88288666D02*
X146203200Y-88241047D01*
X146203200Y-88241047D02*
X146250819Y-88145809D01*
X146250819Y-88145809D02*
X146250819Y-87955333D01*
X146250819Y-87955333D02*
X146203200Y-87860095D01*
X146203200Y-87860095D02*
X146155580Y-87812476D01*
X146155580Y-87812476D02*
X146060342Y-87764857D01*
X146060342Y-87764857D02*
X145250819Y-87764857D01*
X145346057Y-87336285D02*
X145298438Y-87288666D01*
X145298438Y-87288666D02*
X145250819Y-87193428D01*
X145250819Y-87193428D02*
X145250819Y-86955333D01*
X145250819Y-86955333D02*
X145298438Y-86860095D01*
X145298438Y-86860095D02*
X145346057Y-86812476D01*
X145346057Y-86812476D02*
X145441295Y-86764857D01*
X145441295Y-86764857D02*
X145536533Y-86764857D01*
X145536533Y-86764857D02*
X145679390Y-86812476D01*
X145679390Y-86812476D02*
X146250819Y-87383904D01*
X146250819Y-87383904D02*
X146250819Y-86764857D01*
X146250819Y-85812476D02*
X146250819Y-86383904D01*
X146250819Y-86098190D02*
X145250819Y-86098190D01*
X145250819Y-86098190D02*
X145393676Y-86193428D01*
X145393676Y-86193428D02*
X145488914Y-86288666D01*
X145488914Y-86288666D02*
X145536533Y-86383904D01*
X145250819Y-85193428D02*
X145250819Y-85098190D01*
X145250819Y-85098190D02*
X145298438Y-85002952D01*
X145298438Y-85002952D02*
X145346057Y-84955333D01*
X145346057Y-84955333D02*
X145441295Y-84907714D01*
X145441295Y-84907714D02*
X145631771Y-84860095D01*
X145631771Y-84860095D02*
X145869866Y-84860095D01*
X145869866Y-84860095D02*
X146060342Y-84907714D01*
X146060342Y-84907714D02*
X146155580Y-84955333D01*
X146155580Y-84955333D02*
X146203200Y-85002952D01*
X146203200Y-85002952D02*
X146250819Y-85098190D01*
X146250819Y-85098190D02*
X146250819Y-85193428D01*
X146250819Y-85193428D02*
X146203200Y-85288666D01*
X146203200Y-85288666D02*
X146155580Y-85336285D01*
X146155580Y-85336285D02*
X146060342Y-85383904D01*
X146060342Y-85383904D02*
X145869866Y-85431523D01*
X145869866Y-85431523D02*
X145631771Y-85431523D01*
X145631771Y-85431523D02*
X145441295Y-85383904D01*
X145441295Y-85383904D02*
X145346057Y-85336285D01*
X145346057Y-85336285D02*
X145298438Y-85288666D01*
X145298438Y-85288666D02*
X145250819Y-85193428D01*
D11*
X103310267Y-91521095D02*
X102971600Y-91037286D01*
X102729695Y-91521095D02*
X102729695Y-90505095D01*
X102729695Y-90505095D02*
X103116743Y-90505095D01*
X103116743Y-90505095D02*
X103213505Y-90553476D01*
X103213505Y-90553476D02*
X103261886Y-90601857D01*
X103261886Y-90601857D02*
X103310267Y-90698619D01*
X103310267Y-90698619D02*
X103310267Y-90843762D01*
X103310267Y-90843762D02*
X103261886Y-90940524D01*
X103261886Y-90940524D02*
X103213505Y-90988905D01*
X103213505Y-90988905D02*
X103116743Y-91037286D01*
X103116743Y-91037286D02*
X102729695Y-91037286D01*
X103745695Y-90505095D02*
X103745695Y-91327572D01*
X103745695Y-91327572D02*
X103794076Y-91424334D01*
X103794076Y-91424334D02*
X103842457Y-91472715D01*
X103842457Y-91472715D02*
X103939219Y-91521095D01*
X103939219Y-91521095D02*
X104132743Y-91521095D01*
X104132743Y-91521095D02*
X104229505Y-91472715D01*
X104229505Y-91472715D02*
X104277886Y-91424334D01*
X104277886Y-91424334D02*
X104326267Y-91327572D01*
X104326267Y-91327572D02*
X104326267Y-90505095D01*
X105342267Y-91521095D02*
X104761695Y-91521095D01*
X105051981Y-91521095D02*
X105051981Y-90505095D01*
X105051981Y-90505095D02*
X104955219Y-90650238D01*
X104955219Y-90650238D02*
X104858457Y-90747000D01*
X104858457Y-90747000D02*
X104761695Y-90795381D01*
X106309886Y-91521095D02*
X105729314Y-91521095D01*
X106019600Y-91521095D02*
X106019600Y-90505095D01*
X106019600Y-90505095D02*
X105922838Y-90650238D01*
X105922838Y-90650238D02*
X105826076Y-90747000D01*
X105826076Y-90747000D02*
X105729314Y-90795381D01*
X100444904Y-94696095D02*
X100444904Y-95518572D01*
X100444904Y-95518572D02*
X100493285Y-95615334D01*
X100493285Y-95615334D02*
X100541666Y-95663715D01*
X100541666Y-95663715D02*
X100638428Y-95712095D01*
X100638428Y-95712095D02*
X100831952Y-95712095D01*
X100831952Y-95712095D02*
X100928714Y-95663715D01*
X100928714Y-95663715D02*
X100977095Y-95615334D01*
X100977095Y-95615334D02*
X101025476Y-95518572D01*
X101025476Y-95518572D02*
X101025476Y-94696095D01*
X101944714Y-94696095D02*
X101751190Y-94696095D01*
X101751190Y-94696095D02*
X101654428Y-94744476D01*
X101654428Y-94744476D02*
X101606047Y-94792857D01*
X101606047Y-94792857D02*
X101509285Y-94938000D01*
X101509285Y-94938000D02*
X101460904Y-95131524D01*
X101460904Y-95131524D02*
X101460904Y-95518572D01*
X101460904Y-95518572D02*
X101509285Y-95615334D01*
X101509285Y-95615334D02*
X101557666Y-95663715D01*
X101557666Y-95663715D02*
X101654428Y-95712095D01*
X101654428Y-95712095D02*
X101847952Y-95712095D01*
X101847952Y-95712095D02*
X101944714Y-95663715D01*
X101944714Y-95663715D02*
X101993095Y-95615334D01*
X101993095Y-95615334D02*
X102041476Y-95518572D01*
X102041476Y-95518572D02*
X102041476Y-95276667D01*
X102041476Y-95276667D02*
X101993095Y-95179905D01*
X101993095Y-95179905D02*
X101944714Y-95131524D01*
X101944714Y-95131524D02*
X101847952Y-95083143D01*
X101847952Y-95083143D02*
X101654428Y-95083143D01*
X101654428Y-95083143D02*
X101557666Y-95131524D01*
X101557666Y-95131524D02*
X101509285Y-95179905D01*
X101509285Y-95179905D02*
X101460904Y-95276667D01*
D13*
X110998095Y-99911819D02*
X110998095Y-100721342D01*
X110998095Y-100721342D02*
X111045714Y-100816580D01*
X111045714Y-100816580D02*
X111093333Y-100864200D01*
X111093333Y-100864200D02*
X111188571Y-100911819D01*
X111188571Y-100911819D02*
X111379047Y-100911819D01*
X111379047Y-100911819D02*
X111474285Y-100864200D01*
X111474285Y-100864200D02*
X111521904Y-100816580D01*
X111521904Y-100816580D02*
X111569523Y-100721342D01*
X111569523Y-100721342D02*
X111569523Y-99911819D01*
X112521904Y-99911819D02*
X112045714Y-99911819D01*
X112045714Y-99911819D02*
X111998095Y-100388009D01*
X111998095Y-100388009D02*
X112045714Y-100340390D01*
X112045714Y-100340390D02*
X112140952Y-100292771D01*
X112140952Y-100292771D02*
X112379047Y-100292771D01*
X112379047Y-100292771D02*
X112474285Y-100340390D01*
X112474285Y-100340390D02*
X112521904Y-100388009D01*
X112521904Y-100388009D02*
X112569523Y-100483247D01*
X112569523Y-100483247D02*
X112569523Y-100721342D01*
X112569523Y-100721342D02*
X112521904Y-100816580D01*
X112521904Y-100816580D02*
X112474285Y-100864200D01*
X112474285Y-100864200D02*
X112379047Y-100911819D01*
X112379047Y-100911819D02*
X112140952Y-100911819D01*
X112140952Y-100911819D02*
X112045714Y-100864200D01*
X112045714Y-100864200D02*
X111998095Y-100816580D01*
D11*
X102976495Y-86376932D02*
X102492686Y-86715599D01*
X102976495Y-86957504D02*
X101960495Y-86957504D01*
X101960495Y-86957504D02*
X101960495Y-86570456D01*
X101960495Y-86570456D02*
X102008876Y-86473694D01*
X102008876Y-86473694D02*
X102057257Y-86425313D01*
X102057257Y-86425313D02*
X102154019Y-86376932D01*
X102154019Y-86376932D02*
X102299162Y-86376932D01*
X102299162Y-86376932D02*
X102395924Y-86425313D01*
X102395924Y-86425313D02*
X102444305Y-86473694D01*
X102444305Y-86473694D02*
X102492686Y-86570456D01*
X102492686Y-86570456D02*
X102492686Y-86957504D01*
X101960495Y-85941504D02*
X102782972Y-85941504D01*
X102782972Y-85941504D02*
X102879734Y-85893123D01*
X102879734Y-85893123D02*
X102928115Y-85844742D01*
X102928115Y-85844742D02*
X102976495Y-85747980D01*
X102976495Y-85747980D02*
X102976495Y-85554456D01*
X102976495Y-85554456D02*
X102928115Y-85457694D01*
X102928115Y-85457694D02*
X102879734Y-85409313D01*
X102879734Y-85409313D02*
X102782972Y-85360932D01*
X102782972Y-85360932D02*
X101960495Y-85360932D01*
X102976495Y-84344932D02*
X102976495Y-84925504D01*
X102976495Y-84635218D02*
X101960495Y-84635218D01*
X101960495Y-84635218D02*
X102105638Y-84731980D01*
X102105638Y-84731980D02*
X102202400Y-84828742D01*
X102202400Y-84828742D02*
X102250781Y-84925504D01*
X102057257Y-83957885D02*
X102008876Y-83909504D01*
X102008876Y-83909504D02*
X101960495Y-83812742D01*
X101960495Y-83812742D02*
X101960495Y-83570837D01*
X101960495Y-83570837D02*
X102008876Y-83474075D01*
X102008876Y-83474075D02*
X102057257Y-83425694D01*
X102057257Y-83425694D02*
X102154019Y-83377313D01*
X102154019Y-83377313D02*
X102250781Y-83377313D01*
X102250781Y-83377313D02*
X102395924Y-83425694D01*
X102395924Y-83425694D02*
X102976495Y-84006266D01*
X102976495Y-84006266D02*
X102976495Y-83377313D01*
X133786695Y-90750570D02*
X133302886Y-91089237D01*
X133786695Y-91331142D02*
X132770695Y-91331142D01*
X132770695Y-91331142D02*
X132770695Y-90944094D01*
X132770695Y-90944094D02*
X132819076Y-90847332D01*
X132819076Y-90847332D02*
X132867457Y-90798951D01*
X132867457Y-90798951D02*
X132964219Y-90750570D01*
X132964219Y-90750570D02*
X133109362Y-90750570D01*
X133109362Y-90750570D02*
X133206124Y-90798951D01*
X133206124Y-90798951D02*
X133254505Y-90847332D01*
X133254505Y-90847332D02*
X133302886Y-90944094D01*
X133302886Y-90944094D02*
X133302886Y-91331142D01*
X133302886Y-90121618D02*
X133786695Y-90121618D01*
X132770695Y-90460285D02*
X133302886Y-90121618D01*
X133302886Y-90121618D02*
X132770695Y-89782951D01*
X132867457Y-89492666D02*
X132819076Y-89444285D01*
X132819076Y-89444285D02*
X132770695Y-89347523D01*
X132770695Y-89347523D02*
X132770695Y-89105618D01*
X132770695Y-89105618D02*
X132819076Y-89008856D01*
X132819076Y-89008856D02*
X132867457Y-88960475D01*
X132867457Y-88960475D02*
X132964219Y-88912094D01*
X132964219Y-88912094D02*
X133060981Y-88912094D01*
X133060981Y-88912094D02*
X133206124Y-88960475D01*
X133206124Y-88960475D02*
X133786695Y-89541047D01*
X133786695Y-89541047D02*
X133786695Y-88912094D01*
X133786695Y-87944475D02*
X133786695Y-88525047D01*
X133786695Y-88234761D02*
X132770695Y-88234761D01*
X132770695Y-88234761D02*
X132915838Y-88331523D01*
X132915838Y-88331523D02*
X133012600Y-88428285D01*
X133012600Y-88428285D02*
X133060981Y-88525047D01*
X141533695Y-88337570D02*
X141049886Y-88676237D01*
X141533695Y-88918142D02*
X140517695Y-88918142D01*
X140517695Y-88918142D02*
X140517695Y-88531094D01*
X140517695Y-88531094D02*
X140566076Y-88434332D01*
X140566076Y-88434332D02*
X140614457Y-88385951D01*
X140614457Y-88385951D02*
X140711219Y-88337570D01*
X140711219Y-88337570D02*
X140856362Y-88337570D01*
X140856362Y-88337570D02*
X140953124Y-88385951D01*
X140953124Y-88385951D02*
X141001505Y-88434332D01*
X141001505Y-88434332D02*
X141049886Y-88531094D01*
X141049886Y-88531094D02*
X141049886Y-88918142D01*
X141049886Y-87708618D02*
X141533695Y-87708618D01*
X140517695Y-88047285D02*
X141049886Y-87708618D01*
X141049886Y-87708618D02*
X140517695Y-87369951D01*
X141533695Y-86499094D02*
X141533695Y-87079666D01*
X141533695Y-86789380D02*
X140517695Y-86789380D01*
X140517695Y-86789380D02*
X140662838Y-86886142D01*
X140662838Y-86886142D02*
X140759600Y-86982904D01*
X140759600Y-86982904D02*
X140807981Y-87079666D01*
X141533695Y-85531475D02*
X141533695Y-86112047D01*
X141533695Y-85821761D02*
X140517695Y-85821761D01*
X140517695Y-85821761D02*
X140662838Y-85918523D01*
X140662838Y-85918523D02*
X140759600Y-86015285D01*
X140759600Y-86015285D02*
X140807981Y-86112047D01*
X187612867Y-85831495D02*
X187274200Y-85347686D01*
X187032295Y-85831495D02*
X187032295Y-84815495D01*
X187032295Y-84815495D02*
X187419343Y-84815495D01*
X187419343Y-84815495D02*
X187516105Y-84863876D01*
X187516105Y-84863876D02*
X187564486Y-84912257D01*
X187564486Y-84912257D02*
X187612867Y-85009019D01*
X187612867Y-85009019D02*
X187612867Y-85154162D01*
X187612867Y-85154162D02*
X187564486Y-85250924D01*
X187564486Y-85250924D02*
X187516105Y-85299305D01*
X187516105Y-85299305D02*
X187419343Y-85347686D01*
X187419343Y-85347686D02*
X187032295Y-85347686D01*
X188048295Y-84815495D02*
X188048295Y-85637972D01*
X188048295Y-85637972D02*
X188096676Y-85734734D01*
X188096676Y-85734734D02*
X188145057Y-85783115D01*
X188145057Y-85783115D02*
X188241819Y-85831495D01*
X188241819Y-85831495D02*
X188435343Y-85831495D01*
X188435343Y-85831495D02*
X188532105Y-85783115D01*
X188532105Y-85783115D02*
X188580486Y-85734734D01*
X188580486Y-85734734D02*
X188628867Y-85637972D01*
X188628867Y-85637972D02*
X188628867Y-84815495D01*
X189015914Y-84815495D02*
X189644867Y-84815495D01*
X189644867Y-84815495D02*
X189306200Y-85202543D01*
X189306200Y-85202543D02*
X189451343Y-85202543D01*
X189451343Y-85202543D02*
X189548105Y-85250924D01*
X189548105Y-85250924D02*
X189596486Y-85299305D01*
X189596486Y-85299305D02*
X189644867Y-85396067D01*
X189644867Y-85396067D02*
X189644867Y-85637972D01*
X189644867Y-85637972D02*
X189596486Y-85734734D01*
X189596486Y-85734734D02*
X189548105Y-85783115D01*
X189548105Y-85783115D02*
X189451343Y-85831495D01*
X189451343Y-85831495D02*
X189161057Y-85831495D01*
X189161057Y-85831495D02*
X189064295Y-85783115D01*
X189064295Y-85783115D02*
X189015914Y-85734734D01*
X189983533Y-84815495D02*
X190612486Y-84815495D01*
X190612486Y-84815495D02*
X190273819Y-85202543D01*
X190273819Y-85202543D02*
X190418962Y-85202543D01*
X190418962Y-85202543D02*
X190515724Y-85250924D01*
X190515724Y-85250924D02*
X190564105Y-85299305D01*
X190564105Y-85299305D02*
X190612486Y-85396067D01*
X190612486Y-85396067D02*
X190612486Y-85637972D01*
X190612486Y-85637972D02*
X190564105Y-85734734D01*
X190564105Y-85734734D02*
X190515724Y-85783115D01*
X190515724Y-85783115D02*
X190418962Y-85831495D01*
X190418962Y-85831495D02*
X190128676Y-85831495D01*
X190128676Y-85831495D02*
X190031914Y-85783115D01*
X190031914Y-85783115D02*
X189983533Y-85734734D01*
D13*
X184731819Y-86129666D02*
X184255628Y-86462999D01*
X184731819Y-86701094D02*
X183731819Y-86701094D01*
X183731819Y-86701094D02*
X183731819Y-86320142D01*
X183731819Y-86320142D02*
X183779438Y-86224904D01*
X183779438Y-86224904D02*
X183827057Y-86177285D01*
X183827057Y-86177285D02*
X183922295Y-86129666D01*
X183922295Y-86129666D02*
X184065152Y-86129666D01*
X184065152Y-86129666D02*
X184160390Y-86177285D01*
X184160390Y-86177285D02*
X184208009Y-86224904D01*
X184208009Y-86224904D02*
X184255628Y-86320142D01*
X184255628Y-86320142D02*
X184255628Y-86701094D01*
X183731819Y-85701094D02*
X184541342Y-85701094D01*
X184541342Y-85701094D02*
X184636580Y-85653475D01*
X184636580Y-85653475D02*
X184684200Y-85605856D01*
X184684200Y-85605856D02*
X184731819Y-85510618D01*
X184731819Y-85510618D02*
X184731819Y-85320142D01*
X184731819Y-85320142D02*
X184684200Y-85224904D01*
X184684200Y-85224904D02*
X184636580Y-85177285D01*
X184636580Y-85177285D02*
X184541342Y-85129666D01*
X184541342Y-85129666D02*
X183731819Y-85129666D01*
X183731819Y-84748713D02*
X183731819Y-84129666D01*
X183731819Y-84129666D02*
X184112771Y-84462999D01*
X184112771Y-84462999D02*
X184112771Y-84320142D01*
X184112771Y-84320142D02*
X184160390Y-84224904D01*
X184160390Y-84224904D02*
X184208009Y-84177285D01*
X184208009Y-84177285D02*
X184303247Y-84129666D01*
X184303247Y-84129666D02*
X184541342Y-84129666D01*
X184541342Y-84129666D02*
X184636580Y-84177285D01*
X184636580Y-84177285D02*
X184684200Y-84224904D01*
X184684200Y-84224904D02*
X184731819Y-84320142D01*
X184731819Y-84320142D02*
X184731819Y-84605856D01*
X184731819Y-84605856D02*
X184684200Y-84701094D01*
X184684200Y-84701094D02*
X184636580Y-84748713D01*
X183731819Y-83224904D02*
X183731819Y-83701094D01*
X183731819Y-83701094D02*
X184208009Y-83748713D01*
X184208009Y-83748713D02*
X184160390Y-83701094D01*
X184160390Y-83701094D02*
X184112771Y-83605856D01*
X184112771Y-83605856D02*
X184112771Y-83367761D01*
X184112771Y-83367761D02*
X184160390Y-83272523D01*
X184160390Y-83272523D02*
X184208009Y-83224904D01*
X184208009Y-83224904D02*
X184303247Y-83177285D01*
X184303247Y-83177285D02*
X184541342Y-83177285D01*
X184541342Y-83177285D02*
X184636580Y-83224904D01*
X184636580Y-83224904D02*
X184684200Y-83272523D01*
X184684200Y-83272523D02*
X184731819Y-83367761D01*
X184731819Y-83367761D02*
X184731819Y-83605856D01*
X184731819Y-83605856D02*
X184684200Y-83701094D01*
X184684200Y-83701094D02*
X184636580Y-83748713D01*
X134921809Y-89539028D02*
X134921809Y-90015219D01*
X134588476Y-89015219D02*
X134921809Y-89539028D01*
X134921809Y-89539028D02*
X135255142Y-89015219D01*
X135588476Y-89015219D02*
X135588476Y-89824742D01*
X135588476Y-89824742D02*
X135636095Y-89919980D01*
X135636095Y-89919980D02*
X135683714Y-89967600D01*
X135683714Y-89967600D02*
X135778952Y-90015219D01*
X135778952Y-90015219D02*
X135969428Y-90015219D01*
X135969428Y-90015219D02*
X136064666Y-89967600D01*
X136064666Y-89967600D02*
X136112285Y-89919980D01*
X136112285Y-89919980D02*
X136159904Y-89824742D01*
X136159904Y-89824742D02*
X136159904Y-89015219D01*
X136588476Y-89110457D02*
X136636095Y-89062838D01*
X136636095Y-89062838D02*
X136731333Y-89015219D01*
X136731333Y-89015219D02*
X136969428Y-89015219D01*
X136969428Y-89015219D02*
X137064666Y-89062838D01*
X137064666Y-89062838D02*
X137112285Y-89110457D01*
X137112285Y-89110457D02*
X137159904Y-89205695D01*
X137159904Y-89205695D02*
X137159904Y-89300933D01*
X137159904Y-89300933D02*
X137112285Y-89443790D01*
X137112285Y-89443790D02*
X136540857Y-90015219D01*
X136540857Y-90015219D02*
X137159904Y-90015219D01*
X137540857Y-89110457D02*
X137588476Y-89062838D01*
X137588476Y-89062838D02*
X137683714Y-89015219D01*
X137683714Y-89015219D02*
X137921809Y-89015219D01*
X137921809Y-89015219D02*
X138017047Y-89062838D01*
X138017047Y-89062838D02*
X138064666Y-89110457D01*
X138064666Y-89110457D02*
X138112285Y-89205695D01*
X138112285Y-89205695D02*
X138112285Y-89300933D01*
X138112285Y-89300933D02*
X138064666Y-89443790D01*
X138064666Y-89443790D02*
X137493238Y-90015219D01*
X137493238Y-90015219D02*
X138112285Y-90015219D01*
X107315095Y-83782819D02*
X107315095Y-84592342D01*
X107315095Y-84592342D02*
X107362714Y-84687580D01*
X107362714Y-84687580D02*
X107410333Y-84735200D01*
X107410333Y-84735200D02*
X107505571Y-84782819D01*
X107505571Y-84782819D02*
X107696047Y-84782819D01*
X107696047Y-84782819D02*
X107791285Y-84735200D01*
X107791285Y-84735200D02*
X107838904Y-84687580D01*
X107838904Y-84687580D02*
X107886523Y-84592342D01*
X107886523Y-84592342D02*
X107886523Y-83782819D01*
X108791285Y-84116152D02*
X108791285Y-84782819D01*
X108553190Y-83735200D02*
X108315095Y-84449485D01*
X108315095Y-84449485D02*
X108934142Y-84449485D01*
X124745761Y-98086057D02*
X124650523Y-98038438D01*
X124650523Y-98038438D02*
X124555285Y-97943200D01*
X124555285Y-97943200D02*
X124412428Y-97800342D01*
X124412428Y-97800342D02*
X124317190Y-97752723D01*
X124317190Y-97752723D02*
X124221952Y-97752723D01*
X124269571Y-97990819D02*
X124174333Y-97943200D01*
X124174333Y-97943200D02*
X124079095Y-97847961D01*
X124079095Y-97847961D02*
X124031476Y-97657485D01*
X124031476Y-97657485D02*
X124031476Y-97324152D01*
X124031476Y-97324152D02*
X124079095Y-97133676D01*
X124079095Y-97133676D02*
X124174333Y-97038438D01*
X124174333Y-97038438D02*
X124269571Y-96990819D01*
X124269571Y-96990819D02*
X124460047Y-96990819D01*
X124460047Y-96990819D02*
X124555285Y-97038438D01*
X124555285Y-97038438D02*
X124650523Y-97133676D01*
X124650523Y-97133676D02*
X124698142Y-97324152D01*
X124698142Y-97324152D02*
X124698142Y-97657485D01*
X124698142Y-97657485D02*
X124650523Y-97847961D01*
X124650523Y-97847961D02*
X124555285Y-97943200D01*
X124555285Y-97943200D02*
X124460047Y-97990819D01*
X124460047Y-97990819D02*
X124269571Y-97990819D01*
X125031476Y-96990819D02*
X125650523Y-96990819D01*
X125650523Y-96990819D02*
X125317190Y-97371771D01*
X125317190Y-97371771D02*
X125460047Y-97371771D01*
X125460047Y-97371771D02*
X125555285Y-97419390D01*
X125555285Y-97419390D02*
X125602904Y-97467009D01*
X125602904Y-97467009D02*
X125650523Y-97562247D01*
X125650523Y-97562247D02*
X125650523Y-97800342D01*
X125650523Y-97800342D02*
X125602904Y-97895580D01*
X125602904Y-97895580D02*
X125555285Y-97943200D01*
X125555285Y-97943200D02*
X125460047Y-97990819D01*
X125460047Y-97990819D02*
X125174333Y-97990819D01*
X125174333Y-97990819D02*
X125079095Y-97943200D01*
X125079095Y-97943200D02*
X125031476Y-97895580D01*
X142955228Y-97488190D02*
X143431419Y-97488190D01*
X142431419Y-97821523D02*
X142955228Y-97488190D01*
X142955228Y-97488190D02*
X142431419Y-97154857D01*
X142431419Y-96821523D02*
X143240942Y-96821523D01*
X143240942Y-96821523D02*
X143336180Y-96773904D01*
X143336180Y-96773904D02*
X143383800Y-96726285D01*
X143383800Y-96726285D02*
X143431419Y-96631047D01*
X143431419Y-96631047D02*
X143431419Y-96440571D01*
X143431419Y-96440571D02*
X143383800Y-96345333D01*
X143383800Y-96345333D02*
X143336180Y-96297714D01*
X143336180Y-96297714D02*
X143240942Y-96250095D01*
X143240942Y-96250095D02*
X142431419Y-96250095D01*
X142526657Y-95821523D02*
X142479038Y-95773904D01*
X142479038Y-95773904D02*
X142431419Y-95678666D01*
X142431419Y-95678666D02*
X142431419Y-95440571D01*
X142431419Y-95440571D02*
X142479038Y-95345333D01*
X142479038Y-95345333D02*
X142526657Y-95297714D01*
X142526657Y-95297714D02*
X142621895Y-95250095D01*
X142621895Y-95250095D02*
X142717133Y-95250095D01*
X142717133Y-95250095D02*
X142859990Y-95297714D01*
X142859990Y-95297714D02*
X143431419Y-95869142D01*
X143431419Y-95869142D02*
X143431419Y-95250095D01*
X143431419Y-94297714D02*
X143431419Y-94869142D01*
X143431419Y-94583428D02*
X142431419Y-94583428D01*
X142431419Y-94583428D02*
X142574276Y-94678666D01*
X142574276Y-94678666D02*
X142669514Y-94773904D01*
X142669514Y-94773904D02*
X142717133Y-94869142D01*
D11*
X149695504Y-84028095D02*
X149695504Y-84850572D01*
X149695504Y-84850572D02*
X149743885Y-84947334D01*
X149743885Y-84947334D02*
X149792266Y-84995715D01*
X149792266Y-84995715D02*
X149889028Y-85044095D01*
X149889028Y-85044095D02*
X150082552Y-85044095D01*
X150082552Y-85044095D02*
X150179314Y-84995715D01*
X150179314Y-84995715D02*
X150227695Y-84947334D01*
X150227695Y-84947334D02*
X150276076Y-84850572D01*
X150276076Y-84850572D02*
X150276076Y-84028095D01*
X150711504Y-84124857D02*
X150759885Y-84076476D01*
X150759885Y-84076476D02*
X150856647Y-84028095D01*
X150856647Y-84028095D02*
X151098552Y-84028095D01*
X151098552Y-84028095D02*
X151195314Y-84076476D01*
X151195314Y-84076476D02*
X151243695Y-84124857D01*
X151243695Y-84124857D02*
X151292076Y-84221619D01*
X151292076Y-84221619D02*
X151292076Y-84318381D01*
X151292076Y-84318381D02*
X151243695Y-84463524D01*
X151243695Y-84463524D02*
X150663123Y-85044095D01*
X150663123Y-85044095D02*
X151292076Y-85044095D01*
D13*
X189762157Y-98818675D02*
X189762157Y-99629621D01*
X189762157Y-99629621D02*
X189809860Y-99725026D01*
X189809860Y-99725026D02*
X189857562Y-99772729D01*
X189857562Y-99772729D02*
X189952968Y-99820431D01*
X189952968Y-99820431D02*
X190143778Y-99820431D01*
X190143778Y-99820431D02*
X190239184Y-99772729D01*
X190239184Y-99772729D02*
X190286886Y-99725026D01*
X190286886Y-99725026D02*
X190334589Y-99629621D01*
X190334589Y-99629621D02*
X190334589Y-98818675D01*
X190716211Y-98818675D02*
X191336345Y-98818675D01*
X191336345Y-98818675D02*
X191002427Y-99200297D01*
X191002427Y-99200297D02*
X191145535Y-99200297D01*
X191145535Y-99200297D02*
X191240940Y-99247999D01*
X191240940Y-99247999D02*
X191288643Y-99295702D01*
X191288643Y-99295702D02*
X191336345Y-99391107D01*
X191336345Y-99391107D02*
X191336345Y-99629621D01*
X191336345Y-99629621D02*
X191288643Y-99725026D01*
X191288643Y-99725026D02*
X191240940Y-99772729D01*
X191240940Y-99772729D02*
X191145535Y-99820431D01*
X191145535Y-99820431D02*
X190859319Y-99820431D01*
X190859319Y-99820431D02*
X190763913Y-99772729D01*
X190763913Y-99772729D02*
X190716211Y-99725026D01*
D11*
X108801504Y-88092095D02*
X108801504Y-88914572D01*
X108801504Y-88914572D02*
X108849885Y-89011334D01*
X108849885Y-89011334D02*
X108898266Y-89059715D01*
X108898266Y-89059715D02*
X108995028Y-89108095D01*
X108995028Y-89108095D02*
X109188552Y-89108095D01*
X109188552Y-89108095D02*
X109285314Y-89059715D01*
X109285314Y-89059715D02*
X109333695Y-89011334D01*
X109333695Y-89011334D02*
X109382076Y-88914572D01*
X109382076Y-88914572D02*
X109382076Y-88092095D01*
X110398076Y-89108095D02*
X109817504Y-89108095D01*
X110107790Y-89108095D02*
X110107790Y-88092095D01*
X110107790Y-88092095D02*
X110011028Y-88237238D01*
X110011028Y-88237238D02*
X109914266Y-88334000D01*
X109914266Y-88334000D02*
X109817504Y-88382381D01*
X158551695Y-86275332D02*
X158067886Y-86613999D01*
X158551695Y-86855904D02*
X157535695Y-86855904D01*
X157535695Y-86855904D02*
X157535695Y-86468856D01*
X157535695Y-86468856D02*
X157584076Y-86372094D01*
X157584076Y-86372094D02*
X157632457Y-86323713D01*
X157632457Y-86323713D02*
X157729219Y-86275332D01*
X157729219Y-86275332D02*
X157874362Y-86275332D01*
X157874362Y-86275332D02*
X157971124Y-86323713D01*
X157971124Y-86323713D02*
X158019505Y-86372094D01*
X158019505Y-86372094D02*
X158067886Y-86468856D01*
X158067886Y-86468856D02*
X158067886Y-86855904D01*
X157535695Y-85839904D02*
X158358172Y-85839904D01*
X158358172Y-85839904D02*
X158454934Y-85791523D01*
X158454934Y-85791523D02*
X158503315Y-85743142D01*
X158503315Y-85743142D02*
X158551695Y-85646380D01*
X158551695Y-85646380D02*
X158551695Y-85452856D01*
X158551695Y-85452856D02*
X158503315Y-85356094D01*
X158503315Y-85356094D02*
X158454934Y-85307713D01*
X158454934Y-85307713D02*
X158358172Y-85259332D01*
X158358172Y-85259332D02*
X157535695Y-85259332D01*
X157632457Y-84823904D02*
X157584076Y-84775523D01*
X157584076Y-84775523D02*
X157535695Y-84678761D01*
X157535695Y-84678761D02*
X157535695Y-84436856D01*
X157535695Y-84436856D02*
X157584076Y-84340094D01*
X157584076Y-84340094D02*
X157632457Y-84291713D01*
X157632457Y-84291713D02*
X157729219Y-84243332D01*
X157729219Y-84243332D02*
X157825981Y-84243332D01*
X157825981Y-84243332D02*
X157971124Y-84291713D01*
X157971124Y-84291713D02*
X158551695Y-84872285D01*
X158551695Y-84872285D02*
X158551695Y-84243332D01*
X158551695Y-83275713D02*
X158551695Y-83856285D01*
X158551695Y-83565999D02*
X157535695Y-83565999D01*
X157535695Y-83565999D02*
X157680838Y-83662761D01*
X157680838Y-83662761D02*
X157777600Y-83759523D01*
X157777600Y-83759523D02*
X157825981Y-83856285D01*
X90733695Y-93302666D02*
X91459410Y-93302666D01*
X91459410Y-93302666D02*
X91604553Y-93351047D01*
X91604553Y-93351047D02*
X91701315Y-93447809D01*
X91701315Y-93447809D02*
X91749695Y-93592952D01*
X91749695Y-93592952D02*
X91749695Y-93689714D01*
X91749695Y-92286666D02*
X91749695Y-92867238D01*
X91749695Y-92576952D02*
X90733695Y-92576952D01*
X90733695Y-92576952D02*
X90878838Y-92673714D01*
X90878838Y-92673714D02*
X90975600Y-92770476D01*
X90975600Y-92770476D02*
X91023981Y-92867238D01*
D13*
X124745761Y-89958057D02*
X124650523Y-89910438D01*
X124650523Y-89910438D02*
X124555285Y-89815200D01*
X124555285Y-89815200D02*
X124412428Y-89672342D01*
X124412428Y-89672342D02*
X124317190Y-89624723D01*
X124317190Y-89624723D02*
X124221952Y-89624723D01*
X124269571Y-89862819D02*
X124174333Y-89815200D01*
X124174333Y-89815200D02*
X124079095Y-89719961D01*
X124079095Y-89719961D02*
X124031476Y-89529485D01*
X124031476Y-89529485D02*
X124031476Y-89196152D01*
X124031476Y-89196152D02*
X124079095Y-89005676D01*
X124079095Y-89005676D02*
X124174333Y-88910438D01*
X124174333Y-88910438D02*
X124269571Y-88862819D01*
X124269571Y-88862819D02*
X124460047Y-88862819D01*
X124460047Y-88862819D02*
X124555285Y-88910438D01*
X124555285Y-88910438D02*
X124650523Y-89005676D01*
X124650523Y-89005676D02*
X124698142Y-89196152D01*
X124698142Y-89196152D02*
X124698142Y-89529485D01*
X124698142Y-89529485D02*
X124650523Y-89719961D01*
X124650523Y-89719961D02*
X124555285Y-89815200D01*
X124555285Y-89815200D02*
X124460047Y-89862819D01*
X124460047Y-89862819D02*
X124269571Y-89862819D01*
X125079095Y-88958057D02*
X125126714Y-88910438D01*
X125126714Y-88910438D02*
X125221952Y-88862819D01*
X125221952Y-88862819D02*
X125460047Y-88862819D01*
X125460047Y-88862819D02*
X125555285Y-88910438D01*
X125555285Y-88910438D02*
X125602904Y-88958057D01*
X125602904Y-88958057D02*
X125650523Y-89053295D01*
X125650523Y-89053295D02*
X125650523Y-89148533D01*
X125650523Y-89148533D02*
X125602904Y-89291390D01*
X125602904Y-89291390D02*
X125031476Y-89862819D01*
X125031476Y-89862819D02*
X125650523Y-89862819D01*
D15*
%TO.C,SW2*%
X177951600Y-90064000D02*
X177951600Y-95864000D01*
X181661600Y-90064000D02*
X181661600Y-95864000D01*
D16*
X179006600Y-97764000D02*
X179006600Y-97764000D01*
X179006600Y-97864000D02*
X179006600Y-97864000D01*
X179006600Y-97864000D02*
G75*
G02*
X179006600Y-97764000I0J50000D01*
G01*
X179006600Y-97764000D02*
G75*
G02*
X179006600Y-97864000I0J-50000D01*
G01*
D17*
%TO.C,J6*%
X204394381Y-100482400D02*
G75*
G02*
X201192819Y-100482400I-1600781J0D01*
G01*
X201192819Y-100482400D02*
G75*
G02*
X204394381Y-100482400I1600781J0D01*
G01*
%TO.C,J5*%
X204394381Y-85394800D02*
G75*
G02*
X201192819Y-85394800I-1600781J0D01*
G01*
X201192819Y-85394800D02*
G75*
G02*
X204394381Y-85394800I1600781J0D01*
G01*
%TO.C,Q1*%
X125883000Y-93614400D02*
X125883000Y-92684400D01*
X125883001Y-90454400D02*
X125883000Y-91384400D01*
X125883001Y-90454400D02*
X127342998Y-90454401D01*
X126683001Y-93614399D02*
X125883000Y-93614400D01*
X126683001Y-93614399D02*
X127483000Y-93614400D01*
X128223001Y-93974400D02*
X127743001Y-93974400D01*
X127983000Y-93644400D01*
X128223001Y-93974400D01*
G36*
X128223001Y-93974400D02*
G01*
X127743001Y-93974400D01*
X127983000Y-93644400D01*
X128223001Y-93974400D01*
G37*
%TO.C,CU14*%
X111882600Y-92627562D02*
X111882603Y-92843233D01*
X112602597Y-92627567D02*
X112602600Y-92843238D01*
%TO.C,CU27*%
X162680764Y-88286000D02*
X162896436Y-88286000D01*
X162680764Y-89006000D02*
X162896436Y-89006000D01*
%TO.C,CY21*%
X138832001Y-92208235D02*
X138832000Y-91992563D01*
X139552000Y-92208237D02*
X139551999Y-91992565D01*
%TO.C,RQ12*%
X130632039Y-93354199D02*
X130324760Y-93354198D01*
X130632040Y-92594202D02*
X130324761Y-92594201D01*
%TO.C,CSW11*%
X167686400Y-92754562D02*
X167686403Y-92970233D01*
X168406397Y-92754567D02*
X168406400Y-92970238D01*
D18*
%TO.C,D1*%
X99295600Y-79937800D02*
X99295600Y-80447800D01*
X99295600Y-80447800D02*
X99545600Y-80187800D01*
X99545600Y-80187800D02*
X99295600Y-79937800D01*
X98685600Y-78847800D02*
G75*
G02*
X98565600Y-78847800I-60000J0D01*
G01*
X98565600Y-78847800D02*
G75*
G02*
X98685600Y-78847800I60000J0D01*
G01*
D17*
%TO.C,RD21*%
X94235239Y-86993999D02*
X93927960Y-86993998D01*
X94235240Y-86234002D02*
X93927961Y-86234001D01*
%TO.C,RJ11*%
X97765601Y-96620359D02*
X97765600Y-96927640D01*
X98525600Y-96620360D02*
X98525599Y-96927641D01*
%TO.C,RU36*%
X183729100Y-94639224D02*
X183729100Y-94129776D01*
X184774100Y-94639224D02*
X184774100Y-94129776D01*
%TO.C,CU41*%
X105890601Y-81928581D02*
X105890600Y-81647419D01*
X106910600Y-81928581D02*
X106910599Y-81647419D01*
%TO.C,CU52*%
X113332799Y-102602419D02*
X113332800Y-102883581D01*
X114352798Y-102602419D02*
X114352799Y-102883581D01*
%TO.C,CU26*%
X160066400Y-98875962D02*
X160066403Y-99091633D01*
X160786397Y-98875967D02*
X160786400Y-99091638D01*
%TO.C,RJ12*%
X97765602Y-89000361D02*
X97765602Y-89307639D01*
X98525598Y-89000361D02*
X98525598Y-89307639D01*
%TO.C,RU15*%
X111405402Y-88593961D02*
X111405402Y-88901239D01*
X112165398Y-88593961D02*
X112165398Y-88901239D01*
%TO.C,RD51*%
X94209739Y-99439999D02*
X93902460Y-99439998D01*
X94209740Y-98680002D02*
X93902461Y-98680001D01*
%TO.C,TP7*%
X196272000Y-98171000D02*
G75*
G02*
X193872000Y-98171000I-1200000J0D01*
G01*
X193872000Y-98171000D02*
G75*
G02*
X196272000Y-98171000I1200000J0D01*
G01*
%TO.C,RU14*%
X117016560Y-87732602D02*
X117323839Y-87732601D01*
X117016561Y-88492599D02*
X117323840Y-88492598D01*
%TO.C,RQ11*%
X130350160Y-90689202D02*
X130657439Y-90689201D01*
X130350161Y-91449199D02*
X130657440Y-91449198D01*
%TO.C,CU16*%
X110411800Y-96227019D02*
X110411801Y-96508181D01*
X111431799Y-96227019D02*
X111431800Y-96508181D01*
%TO.C,TP8*%
X194240000Y-86487000D02*
G75*
G02*
X191840000Y-86487000I-1200000J0D01*
G01*
X191840000Y-86487000D02*
G75*
G02*
X194240000Y-86487000I1200000J0D01*
G01*
%TO.C,CU25*%
X158999600Y-98875962D02*
X158999603Y-99091633D01*
X159719597Y-98875967D02*
X159719600Y-99091638D01*
%TO.C,RU16*%
X104977476Y-87437700D02*
X105486924Y-87437700D01*
X104977476Y-88482700D02*
X105486924Y-88482700D01*
%TO.C,TP5*%
X117532000Y-81178400D02*
G75*
G02*
X115132000Y-81178400I-1200000J0D01*
G01*
X115132000Y-81178400D02*
G75*
G02*
X117532000Y-81178400I1200000J0D01*
G01*
%TO.C,RSW22*%
X181103239Y-87044799D02*
X180795960Y-87044798D01*
X181103240Y-86284802D02*
X180795961Y-86284801D01*
%TO.C,CU210*%
X147064000Y-87776268D02*
X147064000Y-87483733D01*
X148084000Y-87776267D02*
X148084000Y-87483732D01*
%TO.C,TP2*%
X127946000Y-81280000D02*
G75*
G02*
X125546000Y-81280000I-1200000J0D01*
G01*
X125546000Y-81280000D02*
G75*
G02*
X127946000Y-81280000I1200000J0D01*
G01*
%TO.C,RQ31*%
X130324759Y-94778600D02*
X130632041Y-94778600D01*
X130324759Y-95538600D02*
X130632041Y-95538600D01*
%TO.C,RU31*%
X191184560Y-90549998D02*
X191491839Y-90549999D01*
X191184561Y-89790001D02*
X191491840Y-89790002D01*
%TO.C,RU11*%
X104977476Y-89088700D02*
X105486924Y-89088700D01*
X104977476Y-90133700D02*
X105486924Y-90133700D01*
%TO.C,CU17*%
X110115234Y-94543198D02*
X109899562Y-94543200D01*
X110115238Y-93823200D02*
X109899566Y-93823202D01*
%TO.C,RD13*%
X122911601Y-96292641D02*
X122911600Y-95985360D01*
X123671600Y-96292640D02*
X123671599Y-95985359D01*
D11*
%TO.C,U6*%
X100285000Y-93962400D02*
X101645000Y-93962400D01*
X101645000Y-91762400D02*
X100285000Y-91762400D01*
D17*
%TO.C,J2*%
X201463600Y-87932000D02*
X202793600Y-87932000D01*
X201463600Y-89262000D02*
X201463600Y-87932000D01*
X201463600Y-90532000D02*
X201463600Y-98212000D01*
X201463600Y-90532000D02*
X204123600Y-90532000D01*
X201463600Y-98212000D02*
X204123600Y-98212000D01*
X204123600Y-90532000D02*
X204123600Y-98212000D01*
%TO.C,D2*%
X90487600Y-87349000D02*
X92772602Y-87348999D01*
X92772601Y-85878999D02*
X90487601Y-85879001D01*
X92772602Y-87348999D02*
X92772601Y-85878999D01*
%TO.C,J3*%
X170469601Y-109763000D02*
X170469601Y-107103000D01*
X142469601Y-109763000D02*
X170469601Y-109763000D01*
X142469601Y-109763000D02*
X142469601Y-107103000D01*
X142469601Y-107103000D02*
X170469601Y-107103000D01*
X141199601Y-109763000D02*
X139869601Y-109763000D01*
X139869601Y-109763000D02*
X139869601Y-108433000D01*
%TO.C,TP4*%
X100260000Y-105283000D02*
G75*
G02*
X97860000Y-105283000I-1200000J0D01*
G01*
X97860000Y-105283000D02*
G75*
G02*
X100260000Y-105283000I1200000J0D01*
G01*
%TO.C,CU23*%
X152065401Y-86874235D02*
X152065400Y-86658563D01*
X152785400Y-86874237D02*
X152785399Y-86658565D01*
%TO.C,CU51*%
X110197019Y-105281001D02*
X110478181Y-105281000D01*
X110197019Y-106301000D02*
X110478181Y-106300999D01*
%TO.C,CU22*%
X150442201Y-86779981D02*
X150442200Y-86498819D01*
X151462200Y-86779981D02*
X151462199Y-86498819D01*
%TO.C,U5*%
X109272800Y-104515300D02*
X109272800Y-103585300D01*
X109272801Y-101355300D02*
X109272800Y-102285300D01*
X109272801Y-101355300D02*
X110732798Y-101355300D01*
X110072800Y-104515299D02*
X109272800Y-104515300D01*
X110072800Y-104515299D02*
X110872800Y-104515300D01*
X111612801Y-104875300D02*
X111132801Y-104875300D01*
X111372800Y-104545300D01*
X111612801Y-104875300D01*
G36*
X111612801Y-104875300D02*
G01*
X111132801Y-104875300D01*
X111372800Y-104545300D01*
X111612801Y-104875300D01*
G37*
%TO.C,RQ21*%
X130350159Y-86650600D02*
X130657441Y-86650600D01*
X130350159Y-87410600D02*
X130657441Y-87410600D01*
%TO.C,CU28*%
X150467600Y-98462219D02*
X150467601Y-98743381D01*
X151487599Y-98462219D02*
X151487600Y-98743381D01*
%TO.C,CY22*%
X138832000Y-95040562D02*
X138832003Y-95256233D01*
X139551997Y-95040567D02*
X139552000Y-95256238D01*
%TO.C,RU12*%
X102093500Y-88518276D02*
X102093500Y-89027724D01*
X103138500Y-88518276D02*
X103138500Y-89027724D01*
%TO.C,RSW32*%
X178509959Y-86284800D02*
X178817241Y-86284800D01*
X178509959Y-87044800D02*
X178817241Y-87044800D01*
%TO.C,RD12*%
X122911601Y-88291641D02*
X122911600Y-87984360D01*
X123671600Y-88291640D02*
X123671599Y-87984359D01*
%TO.C,CU32*%
X187407434Y-97641998D02*
X187191762Y-97642000D01*
X187407438Y-96922000D02*
X187191766Y-96922002D01*
%TO.C,D3*%
X90462100Y-101827000D02*
X92747102Y-101826999D01*
X92747101Y-100356999D02*
X90462101Y-100357001D01*
X92747102Y-101826999D02*
X92747101Y-100356999D01*
%TO.C,CY12*%
X143211434Y-93196998D02*
X142995762Y-93197000D01*
X143211438Y-92477000D02*
X142995766Y-92477002D01*
%TO.C,RD11*%
X122911601Y-92355641D02*
X122911600Y-92048360D01*
X123671600Y-92355640D02*
X123671599Y-92048359D01*
%TO.C,CU29*%
X149169800Y-98494962D02*
X149169804Y-98710634D01*
X149889796Y-98494966D02*
X149889800Y-98710638D01*
%TO.C,RSW31*%
X178509959Y-98756200D02*
X178817241Y-98756200D01*
X178509959Y-99516200D02*
X178817241Y-99516200D01*
%TO.C,RU13*%
X117016560Y-89533998D02*
X117323839Y-89533999D01*
X117016561Y-88774001D02*
X117323840Y-88774002D01*
%TO.C,RU32*%
X191181959Y-91822000D02*
X191489241Y-91822000D01*
X191181959Y-92582000D02*
X191489241Y-92582000D01*
%TO.C,RY21*%
X132827502Y-93187675D02*
X132827501Y-93697124D01*
X133872501Y-93187676D02*
X133872500Y-93697125D01*
%TO.C,JP1*%
X146910600Y-101646000D02*
X146910600Y-101046000D01*
X147610600Y-100346000D02*
X149010600Y-100346000D01*
X149010600Y-102346000D02*
X147610600Y-102346000D01*
X149710600Y-101046000D02*
X149710600Y-101646000D01*
X146910600Y-101046000D02*
G75*
G02*
X147610600Y-100346000I699999J1D01*
G01*
X147610600Y-102346000D02*
G75*
G02*
X146910600Y-101646000I-1J699999D01*
G01*
X149010600Y-100346000D02*
G75*
G02*
X149710600Y-101046000I0J-700000D01*
G01*
X149710600Y-101646000D02*
G75*
G02*
X149010600Y-102346000I-700000J0D01*
G01*
%TO.C,RY11*%
X140549100Y-90677276D02*
X140549100Y-91186724D01*
X141594100Y-90677276D02*
X141594100Y-91186724D01*
%TO.C,RU33*%
X186777100Y-87756276D02*
X186777100Y-88265724D01*
X187822100Y-87756276D02*
X187822100Y-88265724D01*
%TO.C,RU35*%
X183729100Y-90500924D02*
X183729100Y-89991476D01*
X184774100Y-90500924D02*
X184774100Y-89991476D01*
%TO.C,YU22*%
X134597999Y-90924400D02*
X134598001Y-96674400D01*
X134598001Y-96674400D02*
X138198002Y-96674400D01*
X138198002Y-96674400D02*
X138198000Y-90924399D01*
%TO.C,U4*%
X109298200Y-84195300D02*
X109298200Y-83265300D01*
X109298201Y-81035300D02*
X109298200Y-81965300D01*
X109298201Y-81035300D02*
X110758198Y-81035300D01*
X110098201Y-84195301D02*
X109298200Y-84195300D01*
X110098201Y-84195301D02*
X110898200Y-84195300D01*
X111638201Y-84555300D02*
X111158201Y-84555300D01*
X111398200Y-84225300D01*
X111638201Y-84555300D01*
G36*
X111638201Y-84555300D02*
G01*
X111158201Y-84555300D01*
X111398200Y-84225300D01*
X111638201Y-84555300D01*
G37*
%TO.C,RD41*%
X94235239Y-84961999D02*
X93927960Y-84961998D01*
X94235240Y-84202002D02*
X93927961Y-84202001D01*
D16*
%TO.C,SW1*%
X170423999Y-91387800D02*
X170423999Y-95387800D01*
X173973999Y-90837800D02*
X171973999Y-90837800D01*
X173973999Y-95937800D02*
X171973999Y-95937800D01*
D15*
X174873999Y-88887798D02*
X174873999Y-88887798D01*
X174873999Y-88887798D02*
X174873999Y-88887798D01*
X174874000Y-88987799D02*
X174874000Y-88987799D01*
D16*
X175523999Y-91387800D02*
X175523999Y-95387800D01*
D15*
X174873999Y-88887798D02*
G75*
G02*
X174874000Y-88987798I1J-50000D01*
G01*
X174874000Y-88987799D02*
G75*
G02*
X174873999Y-88887797I0J50001D01*
G01*
X174874000Y-88987799D02*
G75*
G02*
X174873999Y-88887797I0J50001D01*
G01*
D17*
%TO.C,CU12*%
X105992200Y-96328619D02*
X105992201Y-96609781D01*
X107012199Y-96328619D02*
X107012200Y-96609781D01*
%TO.C,TP6*%
X104832000Y-102489000D02*
G75*
G02*
X102432000Y-102489000I-1200000J0D01*
G01*
X102432000Y-102489000D02*
G75*
G02*
X104832000Y-102489000I1200000J0D01*
G01*
%TO.C,CU15*%
X113660600Y-92627562D02*
X113660603Y-92843233D01*
X114380597Y-92627567D02*
X114380600Y-92843238D01*
%TO.C,RQ32*%
X130632039Y-97418199D02*
X130324760Y-97418198D01*
X130632040Y-96658202D02*
X130324761Y-96658201D01*
%TO.C,Q3*%
X125883000Y-97678400D02*
X125883000Y-96748400D01*
X125883001Y-94518400D02*
X125883000Y-95448400D01*
X125883001Y-94518400D02*
X127342998Y-94518401D01*
X126683001Y-97678399D02*
X125883000Y-97678400D01*
X126683001Y-97678399D02*
X127483000Y-97678400D01*
X128223001Y-98038400D02*
X127743001Y-98038400D01*
X127983000Y-97708400D01*
X128223001Y-98038400D01*
G36*
X128223001Y-98038400D02*
G01*
X127743001Y-98038400D01*
X127983000Y-97708400D01*
X128223001Y-98038400D01*
G37*
%TO.C,YU21*%
X142303600Y-89731999D02*
X142303600Y-92131999D01*
X142303600Y-92131999D02*
X143903600Y-92132001D01*
X143903600Y-92132001D02*
X143903600Y-89732001D01*
%TO.C,U2*%
X152829600Y-89154000D02*
X152829600Y-89604000D01*
X152829600Y-96374000D02*
X152829600Y-95924000D01*
X153279600Y-89154000D02*
X152829600Y-89154000D01*
X153279600Y-96374000D02*
X152829600Y-96374000D01*
X159599600Y-89154000D02*
X160049600Y-89154000D01*
X159599600Y-96374000D02*
X160049600Y-96374000D01*
X160049600Y-89154000D02*
X160049600Y-89604000D01*
X160049600Y-96374000D02*
X160049600Y-95924000D01*
X152239600Y-89604000D02*
X151899600Y-89134000D01*
X152579600Y-89134000D01*
X152239600Y-89604000D01*
G36*
X152239600Y-89604000D02*
G01*
X151899600Y-89134000D01*
X152579600Y-89134000D01*
X152239600Y-89604000D01*
G37*
%TO.C,U3*%
D19*
X189376509Y-93770199D02*
G75*
G02*
X189235091Y-93770199I-70709J0D01*
G01*
X189235091Y-93770199D02*
G75*
G02*
X189376509Y-93770199I70709J0D01*
G01*
D17*
%TO.C,CU24*%
X162680764Y-89454400D02*
X162896436Y-89454400D01*
X162680764Y-90174400D02*
X162896436Y-90174400D01*
%TO.C,RSW21*%
X181179441Y-98756200D02*
X180872159Y-98756200D01*
X181179441Y-99516200D02*
X180872159Y-99516200D01*
%TO.C,TP3*%
X161855000Y-84328000D02*
G75*
G02*
X159455000Y-84328000I-1200000J0D01*
G01*
X159455000Y-84328000D02*
G75*
G02*
X161855000Y-84328000I1200000J0D01*
G01*
D18*
%TO.C,U1*%
X111048601Y-92677500D02*
G75*
G02*
X110798601Y-92677500I-125000J0D01*
G01*
X110798601Y-92677500D02*
G75*
G02*
X111048601Y-92677500I125000J0D01*
G01*
D17*
%TO.C,TP1*%
X125533000Y-84328000D02*
G75*
G02*
X123133000Y-84328000I-1200000J0D01*
G01*
X123133000Y-84328000D02*
G75*
G02*
X125533000Y-84328000I1200000J0D01*
G01*
%TO.C,RU21*%
X156170100Y-83693724D02*
X156170100Y-83184276D01*
X157215100Y-83693724D02*
X157215100Y-83184276D01*
D20*
%TO.C,J1*%
X87744102Y-88284250D02*
X87744102Y-97484250D01*
X90124103Y-97484248D02*
X93874097Y-97484252D01*
X93874103Y-88284250D02*
X90124102Y-88284249D01*
X95994102Y-97484250D02*
X97104104Y-97484250D01*
X97104102Y-88284250D02*
X95994101Y-88284250D01*
X97104102Y-89654250D02*
X97104102Y-88284250D01*
X97104104Y-97484250D02*
X97104102Y-96114250D01*
D15*
X97794102Y-90084250D02*
G75*
G02*
X97594102Y-90084250I-100000J0D01*
G01*
X97594102Y-90084250D02*
G75*
G02*
X97794102Y-90084250I100000J0D01*
G01*
D17*
%TO.C,J4*%
X170469601Y-78800000D02*
X170469601Y-76140000D01*
X142469601Y-78800000D02*
X170469601Y-78800000D01*
X142469601Y-78800000D02*
X142469601Y-76140000D01*
X142469601Y-76140000D02*
X170469601Y-76140000D01*
X141199601Y-78800000D02*
X139869601Y-78800000D01*
X139869601Y-78800000D02*
X139869601Y-77470000D01*
%TO.C,RQ22*%
X130657439Y-89290199D02*
X130350160Y-89290198D01*
X130657440Y-88530202D02*
X130350161Y-88530201D01*
%TO.C,CY11*%
X143211434Y-89386998D02*
X142995762Y-89387000D01*
X143211438Y-88667000D02*
X142995766Y-88667002D01*
%TO.C,CU42*%
X113358200Y-82567718D02*
X113358201Y-82848880D01*
X114378199Y-82567718D02*
X114378200Y-82848880D01*
%TO.C,CU33*%
X191471434Y-95127398D02*
X191255762Y-95127400D01*
X191471438Y-94407400D02*
X191255766Y-94407402D01*
%TO.C,CU13*%
X108883562Y-93501800D02*
X109099234Y-93501796D01*
X108883566Y-92781804D02*
X109099238Y-92781800D01*
%TO.C,D5*%
X90462098Y-99794999D02*
X92747100Y-99794998D01*
X92747099Y-98324998D02*
X90462099Y-98325000D01*
X92747100Y-99794998D02*
X92747099Y-98324998D01*
%TO.C,D4*%
X90487600Y-85317000D02*
X92772602Y-85316999D01*
X92772601Y-83846999D02*
X90487601Y-83847001D01*
X92772602Y-85316999D02*
X92772601Y-83846999D01*
%TO.C,CU31*%
X187567181Y-95451200D02*
X187286019Y-95451201D01*
X187567181Y-96471199D02*
X187286019Y-96471200D01*
%TO.C,CU11*%
X107567000Y-96328619D02*
X107567001Y-96609781D01*
X108586999Y-96328619D02*
X108587000Y-96609781D01*
%TO.C,RD31*%
X94209738Y-101217999D02*
X93902459Y-101217998D01*
X94209739Y-100458002D02*
X93902460Y-100458001D01*
%TO.C,Q2*%
X125883000Y-89550400D02*
X125883000Y-88620400D01*
X125883001Y-86390400D02*
X125883000Y-87320400D01*
X125883001Y-86390400D02*
X127342998Y-86390400D01*
X126683000Y-89550399D02*
X125883000Y-89550400D01*
X126683000Y-89550399D02*
X127483000Y-89550400D01*
X128223001Y-89910400D02*
X127743001Y-89910400D01*
X127983000Y-89580400D01*
X128223001Y-89910400D01*
G36*
X128223001Y-89910400D02*
G01*
X127743001Y-89910400D01*
X127983000Y-89580400D01*
X128223001Y-89910400D01*
G37*
%TD*%
%LPC*%
D21*
%TO.C,SW2*%
X179171600Y-96774000D03*
X180441600Y-96774000D03*
X179171600Y-89154000D03*
X180441600Y-89154000D03*
%TD*%
D22*
%TO.C,J6*%
X202793600Y-100482400D03*
%TD*%
%TO.C,J5*%
X202793600Y-85394800D03*
%TD*%
D23*
%TO.C,Q1*%
X128143000Y-92984398D03*
X128143000Y-91084400D03*
X125143000Y-92034400D03*
%TD*%
D24*
%TO.C,CU14*%
X112242600Y-92255400D03*
X112242600Y-93215400D03*
%TD*%
D25*
%TO.C,CU27*%
X162308600Y-88646000D03*
X163268600Y-88646000D03*
%TD*%
D26*
%TO.C,CY21*%
X139192000Y-92580400D03*
X139192000Y-91620400D03*
%TD*%
D27*
%TO.C,H1*%
X92793600Y-80264000D03*
%TD*%
D28*
%TO.C,RQ12*%
X130988400Y-92974201D03*
X129968400Y-92974199D03*
%TD*%
D24*
%TO.C,CSW11*%
X168046400Y-92382400D03*
X168046400Y-93342400D03*
%TD*%
D29*
%TO.C,D1*%
X98715600Y-79687800D03*
X100115600Y-79687800D03*
X98715600Y-80687800D03*
X100115600Y-80687800D03*
%TD*%
D28*
%TO.C,RD21*%
X94591600Y-86614001D03*
X93571600Y-86613999D03*
%TD*%
D30*
%TO.C,RJ11*%
X98145601Y-96264000D03*
X98145599Y-97284000D03*
%TD*%
D31*
%TO.C,RU36*%
X184251600Y-95297000D03*
X184251600Y-93472000D03*
%TD*%
D32*
%TO.C,CU41*%
X106400600Y-82563001D03*
X106400600Y-81012999D03*
%TD*%
D33*
%TO.C,CU52*%
X113842799Y-101967999D03*
X113842799Y-103518001D03*
%TD*%
D24*
%TO.C,CU26*%
X160426400Y-98503800D03*
X160426400Y-99463800D03*
%TD*%
D30*
%TO.C,RJ12*%
X98145601Y-88644000D03*
X98145599Y-89664000D03*
%TD*%
D27*
%TO.C,H2*%
X202793600Y-80264000D03*
%TD*%
D30*
%TO.C,RU15*%
X111785401Y-88237600D03*
X111785399Y-89257600D03*
%TD*%
D28*
%TO.C,RD51*%
X94566100Y-99060001D03*
X93546100Y-99059999D03*
%TD*%
D34*
%TO.C,TP7*%
X195072000Y-98171000D03*
%TD*%
D35*
%TO.C,RU14*%
X116660200Y-88112599D03*
X117680200Y-88112601D03*
%TD*%
%TO.C,RQ11*%
X129993800Y-91069199D03*
X131013800Y-91069201D03*
%TD*%
D33*
%TO.C,CU16*%
X110921800Y-95592599D03*
X110921800Y-97142601D03*
%TD*%
D34*
%TO.C,TP8*%
X193040000Y-86487000D03*
%TD*%
D24*
%TO.C,CU25*%
X159359600Y-98503800D03*
X159359600Y-99463800D03*
%TD*%
D36*
%TO.C,RU16*%
X104319700Y-87960200D03*
X106144700Y-87960200D03*
%TD*%
D34*
%TO.C,TP5*%
X116332000Y-81178400D03*
%TD*%
D28*
%TO.C,RSW22*%
X181459600Y-86664801D03*
X180439600Y-86664799D03*
%TD*%
D37*
%TO.C,CU210*%
X147574000Y-88492500D03*
X147574000Y-86767500D03*
%TD*%
D34*
%TO.C,TP2*%
X126746000Y-81280000D03*
%TD*%
D27*
%TO.C,H4*%
X202793600Y-105264000D03*
%TD*%
D35*
%TO.C,RQ31*%
X129968400Y-95158600D03*
X130988400Y-95158600D03*
%TD*%
%TO.C,RU31*%
X190828200Y-90169999D03*
X191848200Y-90170001D03*
%TD*%
D36*
%TO.C,RU11*%
X104319700Y-89611200D03*
X106144700Y-89611200D03*
%TD*%
D38*
%TO.C,CU17*%
X110487400Y-94183200D03*
X109527400Y-94183200D03*
%TD*%
D39*
%TO.C,RD13*%
X123291599Y-96649000D03*
X123291601Y-95629000D03*
%TD*%
D40*
%TO.C,U6*%
X100030000Y-92212400D03*
X100030000Y-92862400D03*
X100030000Y-93512400D03*
X101900000Y-93512400D03*
X101900000Y-92862400D03*
X101900000Y-92212400D03*
%TD*%
D41*
%TO.C,J2*%
X202793600Y-89262000D03*
D42*
X202793600Y-91802000D03*
X202793600Y-94342000D03*
X202793600Y-96882000D03*
%TD*%
D43*
%TO.C,D2*%
X92075102Y-86614001D03*
X90500098Y-86613999D03*
%TD*%
D42*
%TO.C,J3*%
X169139601Y-108433000D03*
X166599601Y-108433000D03*
X164059601Y-108433000D03*
X161519601Y-108433000D03*
X158979601Y-108433000D03*
X156439601Y-108433000D03*
X153899601Y-108433000D03*
X151359601Y-108433000D03*
X148819601Y-108433000D03*
X146279601Y-108433000D03*
X143739601Y-108433000D03*
D41*
X141199601Y-108433000D03*
%TD*%
D34*
%TO.C,TP4*%
X99060000Y-105283000D03*
%TD*%
D26*
%TO.C,CU23*%
X152425400Y-87246400D03*
X152425400Y-86286400D03*
%TD*%
D44*
%TO.C,CU51*%
X109562599Y-105791000D03*
X111112601Y-105791000D03*
%TD*%
D32*
%TO.C,CU22*%
X150952200Y-87414401D03*
X150952200Y-85864399D03*
%TD*%
D23*
%TO.C,U5*%
X111532799Y-103885299D03*
X111532800Y-101985300D03*
X108532800Y-102935300D03*
%TD*%
D35*
%TO.C,RQ21*%
X129993800Y-87030600D03*
X131013800Y-87030600D03*
%TD*%
D33*
%TO.C,CU28*%
X150977600Y-97827799D03*
X150977600Y-99377801D03*
%TD*%
D24*
%TO.C,CY22*%
X139192000Y-94668400D03*
X139192000Y-95628400D03*
%TD*%
D45*
%TO.C,RU12*%
X102616000Y-87860500D03*
X102616000Y-89685500D03*
%TD*%
D35*
%TO.C,RSW32*%
X178153600Y-86664800D03*
X179173600Y-86664800D03*
%TD*%
D39*
%TO.C,RD12*%
X123291599Y-88648000D03*
X123291601Y-87628000D03*
%TD*%
D38*
%TO.C,CU32*%
X187779600Y-97282000D03*
X186819600Y-97282000D03*
%TD*%
D43*
%TO.C,D3*%
X92049602Y-101092001D03*
X90474598Y-101091999D03*
%TD*%
D38*
%TO.C,CY12*%
X143583600Y-92837000D03*
X142623600Y-92837000D03*
%TD*%
D39*
%TO.C,RD11*%
X123291599Y-92712000D03*
X123291601Y-91692000D03*
%TD*%
D24*
%TO.C,CU29*%
X149529800Y-98122800D03*
X149529800Y-99082800D03*
%TD*%
D35*
%TO.C,RSW31*%
X178153600Y-99136200D03*
X179173600Y-99136200D03*
%TD*%
%TO.C,RU13*%
X116660200Y-89153999D03*
X117680200Y-89154001D03*
%TD*%
%TO.C,RU32*%
X190825600Y-92201999D03*
X191845600Y-92202001D03*
%TD*%
D45*
%TO.C,RY21*%
X133350001Y-92529900D03*
X133350001Y-94354900D03*
%TD*%
D46*
%TO.C,JP1*%
X147660600Y-101346000D03*
D47*
X148960600Y-101346000D03*
%TD*%
D45*
%TO.C,RY11*%
X141071600Y-90019500D03*
X141071600Y-91844500D03*
%TD*%
%TO.C,RU33*%
X187299600Y-87098500D03*
X187299600Y-88923500D03*
%TD*%
D31*
%TO.C,RU35*%
X184251600Y-91158700D03*
X184251600Y-89333700D03*
%TD*%
D48*
%TO.C,YU22*%
X136398001Y-95474400D03*
X136397999Y-91774400D03*
%TD*%
D23*
%TO.C,U4*%
X111558201Y-83565299D03*
X111558200Y-81665300D03*
X108558200Y-82615300D03*
%TD*%
D28*
%TO.C,RD41*%
X94591600Y-84582001D03*
X93571600Y-84581999D03*
%TD*%
D49*
%TO.C,SW1*%
X174848997Y-90387802D03*
X174848997Y-96387800D03*
X171099001Y-90387800D03*
X171099001Y-96387798D03*
%TD*%
D33*
%TO.C,CU12*%
X106502200Y-95694199D03*
X106502200Y-97244201D03*
%TD*%
D34*
%TO.C,TP6*%
X103632000Y-102489000D03*
%TD*%
D24*
%TO.C,CU15*%
X114020600Y-92255400D03*
X114020600Y-93215400D03*
%TD*%
D28*
%TO.C,RQ32*%
X130988400Y-97038201D03*
X129968400Y-97038199D03*
%TD*%
D23*
%TO.C,Q3*%
X128143000Y-97048398D03*
X128143000Y-95148400D03*
X125143000Y-96098400D03*
%TD*%
D50*
%TO.C,YU21*%
X143103600Y-91632000D03*
X143103600Y-90232000D03*
%TD*%
D51*
%TO.C,U2*%
X152277100Y-90014000D03*
X152277100Y-90514000D03*
X152277100Y-91014000D03*
X152277100Y-91514000D03*
X152277100Y-92014000D03*
X152277100Y-92514000D03*
X152277100Y-93014000D03*
X152277100Y-93514000D03*
X152277100Y-94014000D03*
X152277100Y-94514000D03*
X152277100Y-95014000D03*
X152277100Y-95514000D03*
D52*
X153689600Y-96926500D03*
X154189600Y-96926500D03*
X154689600Y-96926500D03*
X155189600Y-96926500D03*
X155689600Y-96926500D03*
X156189600Y-96926500D03*
X156689600Y-96926500D03*
X157189600Y-96926500D03*
X157689600Y-96926500D03*
X158189600Y-96926500D03*
X158689600Y-96926500D03*
X159189600Y-96926500D03*
D51*
X160602100Y-95514000D03*
X160602100Y-95014000D03*
X160602100Y-94514000D03*
X160602100Y-94014000D03*
X160602100Y-93514000D03*
X160602100Y-93014000D03*
X160602100Y-92514000D03*
X160602100Y-92014000D03*
X160602100Y-91514000D03*
X160602100Y-91014000D03*
X160602100Y-90514000D03*
X160602100Y-90014000D03*
D52*
X159189600Y-88601500D03*
X158689600Y-88601500D03*
X158189600Y-88601500D03*
X157689600Y-88601500D03*
X157189600Y-88601500D03*
X156689600Y-88601500D03*
X156189600Y-88601500D03*
X155689600Y-88601500D03*
X155189600Y-88601500D03*
X154689600Y-88601500D03*
X154189600Y-88601500D03*
X153689600Y-88601500D03*
%TD*%
D53*
%TO.C,U3*%
X188505802Y-93770196D03*
X188505802Y-93270198D03*
X188505801Y-92770198D03*
X188505802Y-92270196D03*
X188505800Y-91770198D03*
D54*
X187805801Y-91570197D03*
X187305801Y-91570198D03*
X186805799Y-91570197D03*
D53*
X186105800Y-91770200D03*
X186105800Y-92270198D03*
X186105801Y-92770198D03*
X186105800Y-93270200D03*
X186105802Y-93770198D03*
D54*
X186805801Y-93970199D03*
X187305801Y-93970198D03*
X187805803Y-93970199D03*
%TD*%
D25*
%TO.C,CU24*%
X162308600Y-89814400D03*
X163268600Y-89814400D03*
%TD*%
D28*
%TO.C,RSW21*%
X181535800Y-99136201D03*
X180515800Y-99136199D03*
%TD*%
D34*
%TO.C,TP3*%
X160655000Y-84328000D03*
%TD*%
D55*
%TO.C,U1*%
X110548599Y-92077503D03*
X110548600Y-91677500D03*
X110548601Y-91277503D03*
X110548600Y-90877500D03*
X110548600Y-90477498D03*
X108348601Y-90477497D03*
X108348600Y-90877500D03*
X108348599Y-91277497D03*
X108348600Y-91677500D03*
X108348600Y-92077502D03*
D56*
X109448600Y-91277500D03*
%TD*%
D27*
%TO.C,H3*%
X92793600Y-105264000D03*
%TD*%
D34*
%TO.C,TP1*%
X124333000Y-84328000D03*
%TD*%
D31*
%TO.C,RU21*%
X156692600Y-84351500D03*
X156692600Y-82526500D03*
%TD*%
D57*
%TO.C,J1*%
X96194102Y-89284250D03*
D58*
X96194102Y-96484250D03*
D59*
X96854102Y-90134247D03*
X96854099Y-90634251D03*
X96854103Y-91134249D03*
X96854102Y-91634249D03*
X96854107Y-92134251D03*
X96854101Y-92634250D03*
X96854102Y-93134250D03*
X96854102Y-93634250D03*
X96854104Y-94134251D03*
X96854101Y-94634250D03*
X96854102Y-95134254D03*
X96854102Y-95634252D03*
X95154102Y-95384246D03*
X95154102Y-94884248D03*
X95154102Y-94384250D03*
X95154101Y-93884251D03*
X95154101Y-93384253D03*
X95154101Y-92884248D03*
X95154104Y-92384251D03*
X95154101Y-91884252D03*
X95154102Y-91384249D03*
X95154104Y-90884246D03*
X95154104Y-90384249D03*
X95154102Y-89884249D03*
D60*
X94944108Y-88754251D03*
X94944102Y-97014250D03*
X88994102Y-97374250D03*
X88994102Y-88394250D03*
%TD*%
D42*
%TO.C,J4*%
X169139601Y-77470000D03*
X166599601Y-77470000D03*
X164059601Y-77470000D03*
X161519601Y-77470000D03*
X158979601Y-77470000D03*
X156439601Y-77470000D03*
X153899601Y-77470000D03*
X151359601Y-77470000D03*
X148819601Y-77470000D03*
X146279601Y-77470000D03*
X143739601Y-77470000D03*
D41*
X141199601Y-77470000D03*
%TD*%
D28*
%TO.C,RQ22*%
X131013800Y-88910201D03*
X129993800Y-88910199D03*
%TD*%
D38*
%TO.C,CY11*%
X143583600Y-89027000D03*
X142623600Y-89027000D03*
%TD*%
D33*
%TO.C,CU42*%
X113868200Y-81933298D03*
X113868200Y-83483300D03*
%TD*%
D38*
%TO.C,CU33*%
X191843600Y-94767400D03*
X190883600Y-94767400D03*
%TD*%
D25*
%TO.C,CU13*%
X108511400Y-93141800D03*
X109471400Y-93141800D03*
%TD*%
D43*
%TO.C,D5*%
X92049600Y-99060000D03*
X90474596Y-99059998D03*
%TD*%
%TO.C,D4*%
X92075102Y-84582001D03*
X90500098Y-84581999D03*
%TD*%
D61*
%TO.C,CU31*%
X188201601Y-95961200D03*
X186651599Y-95961200D03*
%TD*%
D33*
%TO.C,CU11*%
X108077000Y-95694199D03*
X108077000Y-97244201D03*
%TD*%
D28*
%TO.C,RD31*%
X94566099Y-100838001D03*
X93546099Y-100837999D03*
%TD*%
D23*
%TO.C,Q2*%
X128142999Y-88920399D03*
X128143000Y-87020400D03*
X125143000Y-87970400D03*
%TD*%
D62*
%TO.C,BT1*%
X118589600Y-92764000D03*
X194589601Y-92763998D03*
%TD*%
%LPD*%
M02*
